<svg xmlns="http://www.w3.org/2000/svg"
	xmlns:xlink="http://www.w3.org/1999/xlink" style="isolation:isolate" viewBox="0 0 128 128" width="128pt" height="128pt">
	<style>
			svg {
				width: 100vw;
				height: 100vh;
			}

			.eyelid {
				animation: eye 3s ease-in-out infinite;
				transform-origin: center;
			}
			
			.pupil {
				transform-origin: center;
				transition: transform 0.2s ease-out;
				will-change: transform;
			}
			
			@keyframes eye {
				5%, 20% {
					transform: scale(1, 1);
					stroke-width: 2px;
				}
				10%, 15% {
					transform: scale(1, 0);
					stroke-width: 20px;
				}
			}
	</style>

	<g>
		<path d=" M 63.66 77.904 C 66.574 77.598 72.139 79.686 85.254 84.321 L 86.206 79.591 Q 87.536 80.573 88.617 82.791 Q 89.698 85.01 98.958 84.533 Q 102.906 77.636 102.927 66.494 C 102.95 54.404 98.531 51.342 97.436 46.552 C 96.342 41.761 96.342 41.761 94.285 34.377 Q 87.534 17.833 85.432 15.965 Q 83.506 14.253 76.293 13.476 C 75.871 11.497 75.381 10.308 74.836 10.184 C 70.607 9.217 56.397 8.814 52.391 10.184 C 48.385 11.553 46.102 14.096 44 15.965 C 41.898 17.833 35.649 22.844 33 28 C 30.351 33.156 31.853 41.323 29.884 46.552 C 27.914 51.78 24.37 54.404 24.393 66.494 Q 24.414 77.636 28.362 84.533 Q 37.622 85.01 38.703 82.791 Q 39.784 80.573 41.114 79.591 L 42.066 84.321 Q 60.746 78.209 63.66 77.904 Z " fill="rgb(94,64,56)"/>
		<clipPath id="_clipPath_juMa8VZzghdzEK9bKP2q9ItzOK62fAgW">
			<path d=" M 63.66 77.904 C 66.574 77.598 72.139 79.686 85.254 84.321 L 86.206 79.591 Q 87.536 80.573 88.617 82.791 Q 89.698 85.01 98.958 84.533 Q 102.906 77.636 102.927 66.494 C 102.95 54.404 98.531 51.342 97.436 46.552 C 96.342 41.761 96.342 41.761 94.285 34.377 Q 87.534 17.833 85.432 15.965 Q 83.506 14.253 76.293 13.476 C 75.871 11.497 75.381 10.308 74.836 10.184 C 70.607 9.217 56.397 8.814 52.391 10.184 C 48.385 11.553 46.102 14.096 44 15.965 C 41.898 17.833 35.649 22.844 33 28 C 30.351 33.156 31.853 41.323 29.884 46.552 C 27.914 51.78 24.37 54.404 24.393 66.494 Q 24.414 77.636 28.362 84.533 Q 37.622 85.01 38.703 82.791 Q 39.784 80.573 41.114 79.591 L 42.066 84.321 Q 60.746 78.209 63.66 77.904 Z " fill="rgb(94,64,56)"/>
		</clipPath>
		<g clip-path="url(#_clipPath_juMa8VZzghdzEK9bKP2q9ItzOK62fAgW)">
			<path d=" M 92 29 C 94.629 29.849 99.3 51.139 98.092 61.195 C 97.225 68.412 98.401 82.741 98.916 85.92 Q 100.149 93.529 83.31 73.303 Q 89.371 28.151 92 29 Z " fill="rgb(91,60,52)"/>
			<path d=" M 93.758 88.219 Q 100.908 77.127 91.758 32.219 Q 41.031 23.079 39.758 29.219 C 38.484 35.36 29.331 82.593 35.758 87.219 C 42.184 91.846 86.608 99.312 93.758 88.219 Z " fill="rgb(70,47,40)"/>
		</g>
		<path d=" M 52.209 78.221 Q 53.382 85.249 53.165 91.042 C 53.125 92.124 53.048 93.173 52.935 94.19 C 46.233 97.042 38.429 101.511 29.492 107.558 L 63.626 119.789 L 96.735 107.462 Q 85.548 98.562 76.155 94.245 Q 74.378 86.472 74.871 72.103 L 52.209 78.221 Z " fill="rgb(248,222,200)"/>
		<clipPath id="_clipPath_EDVmv7HAZtkC8COqoHC34ZuWOUC4Wgdd">
			<path d=" M 52.209 78.221 Q 53.382 85.249 53.165 91.042 C 53.125 92.124 53.048 93.173 52.935 94.19 C 46.233 97.042 38.429 101.511 29.492 107.558 L 63.626 119.789 L 96.735 107.462 Q 85.548 98.562 76.155 94.245 Q 74.378 86.472 74.871 72.103 L 52.209 78.221 Z " fill="rgb(248,222,200)"/>
		</clipPath>
		<g clip-path="url(#_clipPath_EDVmv7HAZtkC8COqoHC34ZuWOUC4Wgdd)">
			<path d=" M 99 84.523 L 43.248 113.692 L 33 71 L 88 60 L 99 84.523 Z " fill="rgb(244,206,186)"/>
			<path d=" M 85 84.523 L 52.935 94.19 L 41.139 67.501 L 91.621 64.127 L 85 84.523 Z " fill="rgb(204,152,152)" fill-opacity="0.3" style="mix-blend-mode:multiply;"/>
			<path d=" M 68.579 107.641 L 73.803 104.536 L 86.147 103.42 L 68.579 107.641 Z " fill="rgb(237,186,169)"/>
		</g>
		<g>
			<path d=" M 41.195 98.714 Q 50.86 108.92 61.522 110.453 Q 72.184 111.986 84.348 97.982 L 88.783 101.125 L 96.725 106.4 L 94.789 134.354 L 27.448 138 L 25.017 112.477 L 38.238 101.948 L 41.195 98.714 Z " fill="rgb(198,198,198)"/>
			<clipPath id="_clipPath_DjwWBKLa3jISYQLQ6ZBv6qKR7ML2ucrT">
				<path d=" M 41.195 98.714 Q 50.86 108.92 61.522 110.453 Q 72.184 111.986 84.348 97.982 L 88.783 101.125 L 96.725 106.4 L 94.789 134.354 L 27.448 138 L 25.017 112.477 L 38.238 101.948 L 41.195 98.714 Z " fill="rgb(198,198,198)"/>
			</clipPath>
			<g clip-path="url(#_clipPath_DjwWBKLa3jISYQLQ6ZBv6qKR7ML2ucrT)">
				<path d=" M 89.863 96 L 71.863 132 L 91.863 138 L 89.863 96 Z " fill="rgb(185,183,183)"/>
				<path d=" M 35.955 93.031 L 91.863 93.031 Q 83.768 108.083 76.063 111.261 C 68.359 114.44 57.344 114.009 48.109 110.046 Q 38.875 106.083 35.955 93.031 Z " fill="rgb(232,232,232)"/>
				<path d=" M 99 158 L 91.863 156 L 17 152 L 99 158 Z " fill="rgb(185,183,183)"/>
			</g>
			<path d=" M 33.706 102.754 Q 34.759 102.513 38.567 100.323 Q 42.851 110.751 44.644 116.585 Q 46.438 122.419 49.506 138 L 13.044 138 Q 8.384 125.182 9.398 123.415 C 10.412 121.649 12.473 122.063 14.26 122.2 C 12.418 120.666 11.554 118.504 11.829 116.123 C 12.104 113.742 16.898 112.549 19.121 110.046 C 21.344 107.543 22.359 102.941 23.983 102.754 C 25.606 102.567 25.413 104.046 26.413 103.969 Q 27.414 103.892 28.844 101.538 Q 32.653 102.995 33.706 102.754 Z " fill="rgb(57,56,56)"/>
			<clipPath id="_clipPath_SPIJQgHEwJxVfUFyYezkKf2cpLA5x5kx">
				<path d=" M 33.706 102.754 Q 34.759 102.513 38.567 100.323 Q 42.851 110.751 44.644 116.585 Q 46.438 122.419 49.506 138 L 13.044 138 Q 8.384 125.182 9.398 123.415 C 10.412 121.649 12.473 122.063 14.26 122.2 C 12.418 120.666 11.554 118.504 11.829 116.123 C 12.104 113.742 16.898 112.549 19.121 110.046 C 21.344 107.543 22.359 102.941 23.983 102.754 C 25.606 102.567 25.413 104.046 26.413 103.969 Q 27.414 103.892 28.844 101.538 Q 32.653 102.995 33.706 102.754 Z " fill="rgb(57,56,56)"/>
			</clipPath>
			<g clip-path="url(#_clipPath_SPIJQgHEwJxVfUFyYezkKf2cpLA5x5kx)">
				<path d=" M 23.983 101.538 Q 34.854 112.26 38.567 120.985 Q 42.281 129.709 51.937 148.939 L 55.583 146.508 L 39.783 96.677 L 23.983 101.538 Z " fill="rgb(46,46,46)"/>
				<path d=" M 37.429 129.354 L 28.921 119.631 L 20.413 112.338 Q 27.107 115.386 30.137 118.415 Q 33.166 121.445 37.429 129.354 Z " fill="rgb(70,70,70)"/>
				<path d=" M 39.783 134.354 L 15.475 119.769 Q 15.134 122.165 15.475 123.415 Q 15.816 124.666 25.198 127.061 L 39.783 134.354 Z " fill="rgb(47,47,47)"/>
			</g>
			<path d=" M 94.294 102.754 Q 93.241 102.513 89.433 100.323 Q 85.149 110.751 83.356 116.585 Q 81.562 122.419 78.494 138 L 114.956 138 Q 119.616 125.182 118.602 123.415 C 117.588 121.649 115.527 122.063 113.74 122.2 C 115.582 120.666 116.446 118.504 116.171 116.123 C 115.896 113.742 111.102 112.549 108.879 110.046 C 106.656 107.543 105.641 102.941 104.017 102.754 C 102.394 102.567 102.587 104.046 101.587 103.969 Q 100.586 103.892 99.156 101.538 Q 95.347 102.995 94.294 102.754 Z " fill="rgb(57,56,56)"/>
			<clipPath id="_clipPath_Qg2HUN3QEtHoVFF12I7p2YO0I9pxwp3p">
				<path d=" M 94.294 102.754 Q 93.241 102.513 89.433 100.323 Q 85.149 110.751 83.356 116.585 Q 81.562 122.419 78.494 138 L 114.956 138 Q 119.616 125.182 118.602 123.415 C 117.588 121.649 115.527 122.063 113.74 122.2 C 115.582 120.666 116.446 118.504 116.171 116.123 C 115.896 113.742 111.102 112.549 108.879 110.046 C 106.656 107.543 105.641 102.941 104.017 102.754 C 102.394 102.567 102.587 104.046 101.587 103.969 Q 100.586 103.892 99.156 101.538 Q 95.347 102.995 94.294 102.754 Z " fill="rgb(57,56,56)"/>
			</clipPath>
			<g clip-path="url(#_clipPath_Qg2HUN3QEtHoVFF12I7p2YO0I9pxwp3p)">
				<path d=" M 104.017 101.538 Q 93.146 112.26 89.433 120.985 Q 85.719 129.709 76.063 148.939 L 72.417 146.508 L 88.217 96.677 L 104.017 101.538 Z " fill="rgb(46,46,46)"/>
				<path d=" M 84.571 134.354 L 93.079 124.631 L 101.587 117.338 Q 94.893 120.386 91.863 123.415 Q 88.834 126.445 84.571 134.354 Z " fill="rgb(47,47,47)"/>
				<path d=" M 88.217 134.354 L 112.525 119.769 Q 112.676 122.861 112.525 123.415 C 112.374 123.97 109.699 124.959 108.073 125.585 Q 106.276 126.278 102.802 127.061 L 88.217 134.354 Z " fill="rgb(70,70,70)"/>
			</g>
		</g>
		<g>
			<g>
				<path d=" M 84.194 65.812 C 84.573 67.31 89.388 66.03 90.387 65.546 C 91.386 65.062 91.97 63.154 93.543 61.132 C 94.703 59.641 96.346 58.366 96.695 56.741 C 97.044 55.116 96.143 47.792 94.421 47.737 Q 90.97 47.688 89.241 49.382 Q 87.512 51.075 87.54 52.37 Q 83.814 64.314 84.194 65.812 Z " fill="rgb(248,209,187)"/>
				<clipPath id="_clipPath_Xt5Vwx2XqPQCIrvZdXnXSW0fVzBMhjdl">
					<path d=" M 84.194 65.812 C 84.573 67.31 89.388 66.03 90.387 65.546 C 91.386 65.062 91.97 63.154 93.543 61.132 C 94.703 59.641 96.346 58.366 96.695 56.741 C 97.044 55.116 96.143 47.792 94.421 47.737 Q 90.97 47.688 89.241 49.382 Q 87.512 51.075 87.54 52.37 Q 83.814 64.314 84.194 65.812 Z " fill="rgb(248,209,187)"/>
				</clipPath>
				<g clip-path="url(#_clipPath_Xt5Vwx2XqPQCIrvZdXnXSW0fVzBMhjdl)">
					<path d=" M 92.531 59.743 Q 95.646 55.856 95.689 55.318 C 95.731 54.781 95.618 54.27 95.413 53.778 C 95.06 52.928 94.432 52.132 93.854 51.338 Q 93.277 50.545 89.985 51.645 L 89.491 55.607 L 92.531 59.743 Z " fill="rgb(218,172,163)"/>
					<path d=" M 89.308 56.774 Q 90.632 58.621 90.13 59.365 C 89.629 60.108 87.131 62.541 87.075 63.138 C 87.02 63.735 91.956 60.713 92.531 59.743 C 93.107 58.772 93.726 56.063 93.295 54.894 Q 92.863 53.726 91.142 52.937 L 89.941 52.748 L 89.308 56.774 Z " fill="rgb(237,186,169)"/>
				</g>
				<path d=" M 89.841 64.174 C 89.701 66.41 89.148 68.197 88.606 68.163 C 88.305 68.144 88.071 67.567 87.947 66.675" fill="none" stroke-width="1" stroke="rgb(66,63,61)" stroke-linejoin="round" stroke-linecap="round" stroke-miterlimit="3"/>
				<path d=" M 94.723 53.951 C 96.939 53.63 98.676 52.934 98.598 52.397 C 98.555 52.099 97.961 51.912 97.061 51.86" fill="none" stroke-width="1" stroke="rgb(89,87,86)" stroke-linejoin="round" stroke-linecap="round" stroke-miterlimit="3"/>
				<path d=" M 85.62 64.772 C 85.726 64.096 86.35 63.632 87.013 63.736 C 87.676 63.84 88.127 64.474 88.021 65.15 C 87.914 65.826 87.29 66.29 86.627 66.186 C 85.965 66.081 85.513 65.448 85.62 64.772 Z " fill="rgb(66,63,61)"/>
			</g>
			<g>
				<path d=" M 44.307 66.38 C 43.787 67.835 39.115 66.104 38.167 65.527 C 37.218 64.951 36.818 62.995 35.444 60.834 C 34.431 59.239 32.917 57.813 32.724 56.163 C 32.53 54.512 34.123 47.307 35.842 47.415 Q 39.282 47.695 40.843 49.545 Q 42.403 51.395 42.252 52.681 Q 44.827 64.925 44.307 66.38 Z " fill="rgb(248,209,187)"/>
				<clipPath id="_clipPath_pHE0FJHdxWwsIYe6UHXIUmkn6MT7lWHt">
					<path d=" M 44.307 66.38 C 43.787 67.835 39.115 66.104 38.167 65.527 C 37.218 64.951 36.818 62.995 35.444 60.834 C 34.431 59.239 32.917 57.813 32.724 56.163 C 32.53 54.512 34.123 47.307 35.842 47.415 Q 39.282 47.695 40.843 49.545 Q 42.403 51.395 42.252 52.681 Q 44.827 64.925 44.307 66.38 Z " fill="rgb(248,209,187)"/>
				</clipPath>
				<g clip-path="url(#_clipPath_pHE0FJHdxWwsIYe6UHXIUmkn6MT7lWHt)">
					<path d=" M 36.583 59.546 Q 33.852 55.381 33.861 54.842 C 33.87 54.303 34.03 53.806 34.281 53.335 C 34.714 52.523 35.414 51.789 36.065 51.054 Q 36.715 50.319 39.826 51.054 L 40.002 55.718 L 36.583 59.546 Z " fill="rgb(218,172,163)"/>
					<path d=" M 40.075 56.898 Q 38.581 58.61 39.01 59.398 C 39.438 60.186 41.694 62.845 41.692 63.444 C 41.691 64.044 37.064 60.567 36.583 59.546 C 36.102 58.525 35.744 55.77 36.284 54.647 Q 36.824 53.525 38.613 52.904 L 39.826 52.83 L 40.075 56.898 Z " fill="rgb(237,186,169)"/>
				</g>
				<path d=" M 35.648 60.901 C 34.325 62.708 33.874 64.631 34.641 65.193 C 35.068 65.505 35.781 65.331 36.557 64.806" fill="none" stroke-width="1" stroke="rgb(59,57,55)" stroke-linejoin="round" stroke-linecap="round" stroke-miterlimit="3"/>
				<path d=" M 38.276 62.288 C 38.2 62.384 38.126 62.482 38.052 62.582 C 36.73 64.389 36.278 66.312 37.046 66.874 C 37.557 67.248 38.482 66.924 39.433 66.13" fill="none" stroke-width="1" stroke="rgb(66,63,61)" stroke-linejoin="round" stroke-linecap="round" stroke-miterlimit="3"/>
			</g>
		</g>
		<path d=" M 39.522 38.501 C 37.009 47.372 41.301 71.356 44.947 75.845 C 48.594 80.334 57.994 87.773 60.578 88.685 C 63.162 89.596 65.041 88.601 66.755 88.183 C 68.469 87.765 77.711 81.967 81.586 76.456 C 85.46 70.945 85.059 69.814 86.477 66.015 C 87.895 62.215 95.155 43.764 90.427 32.214 C 85.699 20.663 79.702 15.96 69.184 15.047 C 58.666 14.134 53.001 18.163 47.392 23.513 C 41.783 28.864 42.035 29.63 39.522 38.501 Z " fill="rgb(248,221,198)"/>
		<clipPath id="_clipPath_hvtNFYpc0AeglZ5XtWVkV4HKEnuDmuKX">
			<path d=" M 39.522 38.501 C 37.009 47.372 41.301 71.356 44.947 75.845 C 48.594 80.334 57.994 87.773 60.578 88.685 C 63.162 89.596 65.041 88.601 66.755 88.183 C 68.469 87.765 77.711 81.967 81.586 76.456 C 85.46 70.945 85.059 69.814 86.477 66.015 C 87.895 62.215 95.155 43.764 90.427 32.214 C 85.699 20.663 79.702 15.96 69.184 15.047 C 58.666 14.134 53.001 18.163 47.392 23.513 C 41.783 28.864 42.035 29.63 39.522 38.501 Z " fill="rgb(248,221,198)"/>
		</clipPath>
		<g clip-path="url(#_clipPath_hvtNFYpc0AeglZ5XtWVkV4HKEnuDmuKX)">
			<path d=" M 38.727 69.166 C 39.174 65.335 43.063 62.637 47.405 63.144 C 51.746 63.652 54.908 67.174 54.46 71.005 C 54.013 74.836 50.124 77.534 45.782 77.027 C 41.44 76.519 38.279 72.997 38.727 69.166 Z " fill="rgb(244,185,176)" fill-opacity="0.5"/>
			<path d=" M 74.462 71.883 C 73.515 68.144 76.187 64.237 80.424 63.164 C 84.662 62.09 88.871 64.255 89.818 67.994 C 90.765 71.733 88.094 75.639 83.856 76.713 C 79.619 77.786 75.409 75.622 74.462 71.883 Z " fill="rgb(244,185,176)" fill-opacity="0.5"/>
			<path d=" M 81.98 61.515 C 82.019 61.182 82.321 60.943 82.654 60.982 C 82.987 61.021 83.226 61.323 83.187 61.656 C 83.148 61.989 82.846 62.228 82.513 62.189 C 82.18 62.15 81.941 61.848 81.98 61.515 Z " fill="rgb(237,186,169)"/>
			<path d=" M 59.906 72.396 C 59.945 72.062 60.247 71.824 60.58 71.863 C 60.913 71.901 61.152 72.204 61.113 72.537 C 61.074 72.87 60.772 73.109 60.439 73.07 C 60.106 73.031 59.867 72.729 59.906 72.396 Z " fill="rgb(237,186,169)"/>
		</g>
		<g>
			<path d=" M 64.46 56.387 Q 63.841 56.384 63.23 57.387 Q 61.24 67.482 61.389 68.333 Q 61.538 69.184 64.46 71.181 Q 67.373 69.044 67.501 68.333 Q 67.628 67.622 65.689 57.387 Q 65.078 56.39 64.46 56.387 Z " fill="rgb(248,209,187)"/>
			<path d=" M 65.689 69.232 C 66.074 69.888 66.88 70.13 67.487 69.774 C 68.094 69.417 68.274 68.595 67.889 67.94 C 67.675 67.576 67.332 67.339 66.964 67.262" fill="none" stroke-width="0.5" stroke="rgb(185,185,185)" stroke-linejoin="round" stroke-linecap="round" stroke-miterlimit="3"/>
		</g>
		<path d=" M 64 74.058 Q 61.853 74.058 58 75.058 Q 60.721 76.964 64 77.015 Q 67.279 77.066 70 75.058 Q 66.147 74.058 64 74.058 Z " fill="rgb(244,206,186)"/>
		<clipPath id="_clipPath_MypQjv93v7zdecfLIQYIpUKtfxCzq23G">
			<path d=" M 64 74.058 Q 61.853 74.058 58 75.058 Q 60.721 76.964 64 77.015 Q 67.279 77.066 70 75.058 Q 66.147 74.058 64 74.058 Z " fill="rgb(244,206,186)"/>
		</clipPath>
		<g clip-path="url(#_clipPath_MypQjv93v7zdecfLIQYIpUKtfxCzq23G)">
			<rect x="57.315" y="75" width="13.369" height="2.431" transform="matrix(1,0,0,1,0,0)" fill="rgb(243,197,173)"/>
		</g>
		<g>
			<clipPath id="_clipPath_wSmezmUqTvSY63rf4K3nPJZVFegEo5xB">
				<path class="eyelid" d=" M 57.039 53.793 Q 58.838 56.383 58.716 59.759 C 57.591 60.522 55.819 61.106 55.174 61.25 C 54.528 61.394 52.277 61.6 49.021 60.503 Q 47.226 59.898 45.2 58.358 Q 45.94 55.072 47.252 53.325 C 48.986 51.015 51.175 50.519 51.913 50.53 C 52.652 50.54 55.862 51.354 57.039 53.793 Z " fill="rgb(248,221,198)" fill-opacity="0.75" style="mix-blend-mode:screen;"/>
			</clipPath>
			<path class="eyelid" d=" M 57.039 53.793 Q 58.838 56.383 58.716 59.759 C 57.591 60.522 55.819 61.106 55.174 61.25 C 54.528 61.394 52.277 61.6 49.021 60.503 Q 47.226 59.898 45.2 58.358 Q 45.94 55.072 47.252 53.325 C 48.986 51.015 51.175 50.519 51.913 50.53 C 52.652 50.54 55.862 51.354 57.039 53.793 Z " fill="rgb(248,221,198)" fill-opacity="0.75" style="mix-blend-mode:screen;"/>
			<path class="eyelid-reference" d=" M 57.039 53.793 Q 58.838 56.383 58.716 59.759 C 57.591 60.522 55.819 61.106 55.174 61.25 C 54.528 61.394 52.277 61.6 49.021 60.503 Q 47.226 59.898 45.2 58.358 Q 45.94 55.072 47.252 53.325 C 48.986 51.015 51.175 50.519 51.913 50.53 C 52.652 50.54 55.862 51.354 57.039 53.793 Z " fill="none" />
			<g clip-path="url(#_clipPath_wSmezmUqTvSY63rf4K3nPJZVFegEo5xB)">
				<g class="eye-ball">
					<path d=" M 47.643 56.051 C 47.632 53.04 49.66 50.588 52.168 50.579 C 54.676 50.571 56.721 53.008 56.731 56.02 C 56.742 59.032 54.714 61.484 52.206 61.492 C 49.698 61.501 47.653 59.063 47.643 56.051 Z " fill="rgb(85,102,102)"/>
					<clipPath id="_clipPath_MtsL8116z8swAz9FeKZxNrAn6p1kFVoq">
						<path d=" M 47.643 56.051 C 47.632 53.04 49.66 50.588 52.168 50.579 C 54.676 50.571 56.721 53.008 56.731 56.02 C 56.742 59.032 54.714 61.484 52.206 61.492 C 49.698 61.501 47.653 59.063 47.643 56.051 Z " fill="rgb(85,102,102)"/>
					</clipPath>
					<g clip-path="url(#_clipPath_MtsL8116z8swAz9FeKZxNrAn6p1kFVoq)">
						<rect x="46.957" y="55.798" width="12.585" height="6.345" transform="matrix(1,-0.003,0.003,1,-0.202,0.183)" fill="rgb(88,162,162)"/>
					</g>
					<g class="pupil">
						<path d=" M 49.809 56.044 C 49.804 54.468 50.865 53.185 52.177 53.18 C 53.49 53.176 54.56 54.452 54.565 56.027 C 54.57 57.603 53.509 58.886 52.197 58.891 C 50.884 58.895 49.814 57.62 49.809 56.044 Z " fill="transparent" r="NaN" stroke-width="0.5" stroke="rgb(255,255,255)" stroke-opacity="0.75" stroke-linejoin="miter" stroke-linecap="square" stroke-miterlimit="3"/>
						<path d=" M 49.809 56.044 C 49.804 54.468 50.865 53.185 52.177 53.18 C 53.49 53.176 54.56 54.452 54.565 56.027 C 54.57 57.603 53.509 58.886 52.197 58.891 C 50.884 58.895 49.814 57.62 49.809 56.044 Z " fill="rgb(66,63,61)"/>
					</g>
				</g>
			</g>
			<clipPath id="_clipPath_LiDbLOWNfQIs9kLycYLAzOjZOb5WLmrf">
				<path class="eyelid" d=" M 73.064 53.566 Q 71.185 56.097 71.2 59.476 C 72.301 60.274 74.053 60.914 74.694 61.078 C 75.335 61.242 77.578 61.519 80.866 60.525 Q 82.681 59.977 84.754 58.502 Q 84.118 55.194 82.861 53.407 C 81.201 51.043 79.029 50.478 78.291 50.465 C 77.552 50.453 74.318 51.165 73.064 53.566 Z " fill="rgb(248,221,198)" fill-opacity="0.75" style="mix-blend-mode:screen;"/>
			</clipPath>
			<path class="eyelid" d=" M 73.064 53.566 Q 71.185 56.097 71.2 59.476 C 72.301 60.274 74.053 60.914 74.694 61.078 C 75.335 61.242 77.578 61.519 80.866 60.525 Q 82.681 59.977 84.754 58.502 Q 84.118 55.194 82.861 53.407 C 81.201 51.043 79.029 50.478 78.291 50.465 C 77.552 50.453 74.318 51.165 73.064 53.566 Z " fill="rgb(248,221,198)" fill-opacity="0.75" style="mix-blend-mode:screen;"/>
			<path class="eyelid-reference" d=" M 73.064 53.566 Q 71.185 56.097 71.2 59.476 C 72.301 60.274 74.053 60.914 74.694 61.078 C 75.335 61.242 77.578 61.519 80.866 60.525 Q 82.681 59.977 84.754 58.502 Q 84.118 55.194 82.861 53.407 C 81.201 51.043 79.029 50.478 78.291 50.465 C 77.552 50.453 74.318 51.165 73.064 53.566 Z " fill="none" />
			<g clip-path="url(#_clipPath_LiDbLOWNfQIs9kLycYLAzOjZOb5WLmrf)">
				<g class="eye-ball">
					<path d=" M 82.388 55.964 C 82.391 52.953 80.357 50.506 77.848 50.504 C 75.34 50.501 73.302 52.944 73.299 55.956 C 73.296 58.967 75.33 61.414 77.838 61.417 C 80.346 61.419 82.385 58.976 82.388 55.964 Z " fill="rgb(85,102,102)"/>
					<clipPath id="_clipPath_SB8XuzXYBya6t0hhdGoLFlVOWJmN9Yq6">
						<path d=" M 82.388 55.964 C 82.391 52.953 80.357 50.506 77.848 50.504 C 75.34 50.501 73.302 52.944 73.299 55.956 C 73.296 58.967 75.33 61.414 77.838 61.417 C 80.346 61.419 82.385 58.976 82.388 55.964 Z " fill="rgb(85,102,102)"/>
					</clipPath>
					<g clip-path="url(#_clipPath_SB8XuzXYBya6t0hhdGoLFlVOWJmN9Yq6)">
						<rect x="70.496" y="55.725" width="12.585" height="6.345" transform="matrix(1,0.001,-0.001,1,0.055,-0.072)" fill="rgb(88,162,162)"/>
					</g>
					<g class="pupil">
						<path d=" M 80.221 55.962 C 80.223 54.387 79.158 53.106 77.846 53.105 C 76.533 53.104 75.467 54.382 75.465 55.958 C 75.464 57.534 76.528 58.814 77.841 58.815 C 79.153 58.817 80.22 57.538 80.221 55.962 Z " fill="transparent" stroke-width="0.5" stroke="rgb(255,255,255)" stroke-opacity="0.75" stroke-linejoin="miter" stroke-linecap="square" stroke-miterlimit="3"/>
						<path d=" M 80.221 55.962 C 80.223 54.387 79.158 53.106 77.846 53.105 C 76.533 53.104 75.467 54.382 75.465 55.958 C 75.464 57.534 76.528 58.814 77.841 58.815 C 79.153 58.817 80.22 57.538 80.221 55.962 Z " fill="rgb(66,63,61)"/>
					</g>
				</g>
			</g>
		</g>
		<g>
			<path d=" M 77.654 47.183 L 69.736 46.87 Q 74.477 44.072 77.403 44.095 Q 80.328 44.117 85.571 47.496 L 77.654 47.183 Z " fill="rgb(94,64,56)"/>
			<path d=" M 51.723 47.196 L 59.631 46.701 Q 54.827 44.013 51.903 44.103 Q 48.978 44.193 43.815 47.692 L 51.723 47.196 Z " fill="rgb(94,64,56)"/>
		</g>
		<g>
			<path d=" M 38.057 46.394 C 38.42 48.105 40.407 53.978 40.215 54 Q 39.982 54.027 41.993 52 Q 38.706 46.629 38.085 45.968 C 37.975 45.851 37.978 46.026 38.057 46.394 Z " fill="rgb(66,63,61)"/>
			<clipPath id="_clipPath_fVSJ2S1KCDEbEueR4gHM7kjZcI8jpbMv">
				<path d=" M 38.057 46.394 C 38.42 48.105 40.407 53.978 40.215 54 Q 39.982 54.027 41.993 52 Q 38.706 46.629 38.085 45.968 C 37.975 45.851 37.978 46.026 38.057 46.394 Z " fill="rgb(66,63,61)"/>
			</clipPath>
			<g clip-path="url(#_clipPath_fVSJ2S1KCDEbEueR4gHM7kjZcI8jpbMv)">
				<rect x="30.803" y="48.047" width="13.532" height="2.826" transform="matrix(0.421,0.907,-0.79,0.673,60.811,-17.891)" fill="rgb(62,60,59)"/>
			</g>
			<path d=" M 40.944 52.49 Q 48.79 52.088 60.719 53.225 Q 61.211 59.124 59.876 62.648 Q 52.575 64.244 41.993 62.834 Q 40.605 56.594 40.944 52.49 Z " fill="none" stroke-width="1.5" stroke="rgb(66,63,61)" stroke-linejoin="round" stroke-linecap="round" stroke-miterlimit="3"/>
			<path d=" M 88.401 54 Q 88.629 54.058 87.401 51.726 Q 91.707 46.84 92.411 46.268 C 93.114 45.695 88.174 53.942 88.401 54 Z " fill="rgb(66,63,61)"/>
			<clipPath id="_clipPath_PwwnCX2EnW9mdxcMyTfMUUBgOOobqclI">
				<path d=" M 88.401 54 Q 88.629 54.058 87.401 51.726 Q 91.707 46.84 92.411 46.268 C 93.114 45.695 88.174 53.942 88.401 54 Z " fill="rgb(66,63,61)"/>
			</clipPath>
			<g clip-path="url(#_clipPath_PwwnCX2EnW9mdxcMyTfMUUBgOOobqclI)">
				<rect x="85.259" y="47.794" width="13.532" height="2.826" transform="matrix(0.538,-0.843,0.693,0.772,8.356,88.758)" fill="rgb(62,60,59)"/>
			</g>
			<path d=" M 88.023 52 Q 80.17 51.761 68.267 53.147 Q 67.898 59.054 69.306 62.549 Q 76.639 63.994 87.19 62.363 Q 88.447 56.096 88.023 52 Z " fill="none" stroke-width="1.5" stroke="rgb(66,63,61)" stroke-linejoin="round" stroke-linecap="round" stroke-miterlimit="3"/>
			<path d=" M 60.908 55.354 Q 61.769 54.06 64.503 54.127 Q 67.237 54.194 68.2 55.354" fill="none" stroke-width="1.5" stroke="rgb(66,63,61)" stroke-linejoin="round" stroke-linecap="round" stroke-miterlimit="3"/>
		</g>
		<g>
			<path d=" M 79 12 Q 66.95 4.954 60 5 C 53.05 5.046 48.819 7.379 45 12 C 41.181 16.621 38.79 25.086 36 29.417 Q 33.21 33.748 33 50 L 79 12 Z " fill="rgb(94,64,56)"/>
			<path d=" M 79 27 Q 83.88 37.56 85.853 44.082 Q 87.825 50.604 85.853 63 Q 90.841 57.335 93.079 52.923 C 95.316 48.511 95.089 43.253 94.523 37.968 C 93.957 32.683 92.954 19.783 85.853 16 Q 78.752 12.217 79 27 Z " fill="rgb(94,64,56)"/>
			<path d=" M 79 27 Q 74.852 24.885 72.323 25.051 Q 69.794 25.217 63.571 29.417 Q 65.596 19.968 67.957 16.299 C 70.318 12.63 75.543 4.618 80 5.024 C 80.725 5.034 83.086 6.119 84 7 C 84.914 7.881 87.164 10.9 87 13.744 C 86.843 16.472 85.269 17.876 83.134 20.173 Q 81 22.47 79 27 Z " fill="rgb(91,60,52)"/>
			<clipPath id="_clipPath_ZPTvS4N8sTwLM72Eos5QgqE3UIjZK39V">
				<path d=" M 79 27 Q 74.852 24.885 72.323 25.051 Q 69.794 25.217 63.571 29.417 Q 65.596 19.968 67.957 16.299 C 70.318 12.63 75.543 4.618 80 5.024 C 80.725 5.034 83.086 6.119 84 7 C 84.914 7.881 87.164 10.9 87 13.744 C 86.843 16.472 85.269 17.876 83.134 20.173 Q 81 22.47 79 27 Z " fill="rgb(91,60,52)"/>
			</clipPath>
			<g clip-path="url(#_clipPath_ZPTvS4N8sTwLM72Eos5QgqE3UIjZK39V)">
				<path d=" M 79 27 Q 75.217 26.854 73 27 Q 70.783 27.146 65.072 28.588 Q 66.588 20.707 68.918 17.087 C 71.248 13.466 76.22 5.794 80.883 7.398 C 85.546 9.002 86.245 11.582 85.613 14.847 C 85.1 17.5 80.871 20.986 79 23 Q 77.129 25.014 79 27 Z " fill="rgb(70,47,40)"/>
				<clipPath id="_clipPath_DPQpjTc37tmFO61oBDBEA3DN2ZWGXbGM">
					<path d=" M 79 27 Q 75.217 26.854 73 27 Q 70.783 27.146 65.072 28.588 Q 66.588 20.707 68.918 17.087 C 71.248 13.466 76.22 5.794 80.883 7.398 C 85.546 9.002 86.245 11.582 85.613 14.847 C 85.1 17.5 80.871 20.986 79 23 Q 77.129 25.014 79 27 Z " fill="rgb(70,47,40)"/>
				</clipPath>
				<g clip-path="url(#_clipPath_DPQpjTc37tmFO61oBDBEA3DN2ZWGXbGM)">
					<path d=" M 62 33 C 62.774 30.44 73.247 21.84 76 16 Q 78.753 10.16 80 5.024 Q 64.21 13.084 62 22 C 59.79 30.916 61.226 35.56 62 33 Z " fill="rgb(62,41,35)"/>
				</g>
			</g>
			<path d=" M 80 5.024 C 76.948 4.781 72.274 3.726 67 5.024 C 61.726 6.321 56.298 8.399 53 12.744 C 49.702 17.089 49.446 25.55 42 30 C 34.554 34.45 30.422 48.505 29.701 54.976 C 28.979 61.447 29.025 67.758 33.15 73.056 Q 37.275 78.355 38.441 81 Q 32.899 66.157 35.641 57.706 C 38.383 49.255 41.086 50.668 46.282 47.089 C 51.479 43.509 55.821 44.493 59.413 40.663 C 63.004 36.833 64.317 26.96 67 23 C 69.683 19.04 75.729 14.721 80 5.024 Z " fill="rgb(91,60,52)"/>
		</g>
	</g>
</svg>