<svg
	xmlns="http://www.w3.org/2000/svg"
	xml:space="preserve"
	fill-rule="evenodd"
	stroke-linecap="round"
	stroke-linejoin="round"
	stroke-miterlimit="3"
	clip-rule="evenodd"
	viewBox="0 0 1024 512"
>
	<style>
		.dialog-1 {
			opacity: 0;
			animation: greet 7s both;
		}

		.dialog-2 {
			opacity: 0;
			animation: from 7s both;
		}

		.dialog-3 {
			opacity: 0;
			animation: profession 7s both;
		}

		.dialog-4 {
			opacity: 0;
			animation: pronouns 7s both;
		}

		.dialog-5 {
			opacity: 0;
			animation: contact 7s both;
		}

		.eyelid {
			animation: eye 3s ease-in-out infinite;
			transform-origin: center;
		}

		.pupil {
			animation: pupil 15s ease-out infinite;
			transform-origin: center;
		}

		.eyebrow {
			animation: eyebrow 3s ease-in-out infinite;
			transform-origin: center;
		}

		.breath {
			animation: 2s ease-in-out infinite both breath;
		}

		.open-mouth {
			opacity: 0;
			animation: 0.3s step-start 0s 22 talk;
		}

		.dragon-sphere-1,
		.dragon-sphere-2,
		.dragon-sphere-3,
		.dragon-sphere-4,
		.dragon-sphere-5,
		.dragon-sphere-6,
		.dragon-sphere-7 {
			animation: floating var(--animation-duration, 3.5s) ease-in-out infinite;
		}

		@keyframes greet {
			0% {
				opacity: 0;
				transform: translate(0, 0);
			}
			20% {
				opacity: 1;
				transform: translate(0, 0);
			}
			40% {
				opacity: 1;
				transform: translate(0, -78px);
			}
			60% {
				opacity: 1;
				transform: translate(0, -180px);
			}
			80% {
				opacity: 1;
				transform: translate(0, -234px);
			}
			100% {
				opacity: 1;
				transform: translate(0, -333px);
			}
		}

		@keyframes from {
			0%,
			20% {
				opacity: 0;
				transform: translate(0, 0);
			}
			40% {
				opacity: 1;
				transform: translate(0, 0);
			}
			60% {
				opacity: 1;
				transform: translate(0, -100px);
			}
			80% {
				opacity: 1;
				transform: translate(0, -155px);
			}
			100% {
				opacity: 1;
				transform: translate(0, -252px);
			}
		}

		@keyframes profession {
			0%,
			40% {
				opacity: 0;
				transform: translate(0, 0);
			}
			60% {
				opacity: 1;
				transform: translate(0, 0);
			}
			80% {
				opacity: 1;
				transform: translate(0, -56px);
			}
			100% {
				opacity: 1;
				transform: translate(0, -155px);
			}
		}

		@keyframes pronouns {
			0%,
			60% {
				opacity: 0;
				transform: translate(0, 0);
			}
			80% {
				opacity: 1;
				transform: translate(0, 0);
			}
			100% {
				opacity: 1;
				transform: translate(0, -99px);
			}
		}

		@keyframes contact {
			0%,
			80% {
				opacity: 0;
				transform: translate(0, 0);
			}
			100% {
				opacity: 1;
				transform: translate(0, 0);
			}
		}

		@keyframes eye {
			5%,
			20% {
				transform: scale(1, 1);
				stroke-width: 2px;
			}
			10%,
			15% {
				transform: scale(1, 0);
				stroke-width: 20px;
			}
		}

		@keyframes pupil {
			5%,
			20% {
				transform: translate(5px, -1px);
			}
			10%,
			15% {
				transform: translate(-5px, 1px);
			}
			20%,
			100% {
				transform: translate(0, 0);
			}
		}

		@keyframes eyebrow {
			0%,
			9% {
				transform: translate(0, 0);
			}
			10%,
			15% {
				transform: translate(0, 0.5px);
			}
			16%,
			100% {
				transform: translate(0, 0);
			}
		}

		@keyframes talk {
			50% {
				opacity: 1;
			}
		}

		@keyframes breath {
			from,
			to {
				transform: translateY(calc(var(--z, 1) * 2px));
			}
			50% {
				transform: translateY(0);
			}
		}

		@keyframes floating {
			0%,100% {
				transform: "translateY(var(--translate-y, 10px));
			}
			50% { transform: translate(var(--translate, -3px)) };
		}
	</style>
	<g>
		<clipPath id="a">
			<path d="M0 0h1024v512H0z" />
		</clipPath>
		<g clip-path="url(#a)">
			<g>
				<g
					class="dragon-sphere-1"
					style="
						--animation-duration: 11.5s;
						--translate-y: -8px;
						--translate: -5px;
					"
				>
					<circle cx="921.8" cy="55" r="38.7" fill="#ffac33" />
					<clipPath id="b">
						<circle cx="921.8" cy="55" r="38.7" />
					</clipPath>
					<g clip-path="url(#b)">
						<path
							fill="#db5c00"
							d="M920.5 19.5c18.8 0 33.9 12.5 34.1 27.9 0 .7-2.3.3-5.3 1.9 0 0-.3 0-.4-.2-.7-1.5-4.7-7-5-7.6a29.3 29.3 0 0 0-21.2-13.1c-7.7-.7-19 5-24.3 10.9-4.5 5-12 9-12 8-.2-15.3 15.3-27.8 34.1-27.8Z"
						/>
						<circle cx="921.2" cy="54.6" r="25.1" fill="#fd710c" />
						<clipPath id="c">
							<circle cx="921.2" cy="54.6" r="25.1" />
						</clipPath>
						<g clip-path="url(#c)">
							<path
								fill="#ea4300"
								d="M892.5 54.6s6.1 13.9 28.7 13.3c22.6-.6 30.7-13.3 30.7-13.3s-14.3 33-30.7 32c-16.3-1.2-28.7-32-28.7-32Z"
							/>
							<path
								fill="#ce3600"
								d="M917.6 52h2.5l1.4-2.6L923 52h2.6l-2 2 1 3-3-1.3-3 1.3 1-3-2-2Z"
							/>
						</g>
						<path
							fill="#db5c00"
							d="m891.8 44-3.2 5.5s-2 4-1.3 10.2c.4 3.9 5.8 13 5.2 13a34 34 0 0 1-8-14.8c-.4-9.7 2.8-16.8 2.8-16.8l4.5 2.9Z"
						/>
						<path
							fill="#ffd55d"
							d="M895.9 38.2c-1.2-.7-10.5 9.5-7 23.8 3.6 14.4 18 24 19.2 21.4 1-2.7-11.4-10.6-13.7-21.4-3.2-14.4 3.6-22.6 1.5-23.8Z"
						/>
						<path
							fill="#ffd55d"
							d="M901.2 26c2.9-2.3 6.3-2.9 7.5-1.3 1.3 1.6 0 4.8-2.9 7-2.8 2.4-6.2 3-7.5 1.3-1.3-1.6 0-4.7 3-7Z"
						/>
						<path
							fill="#ffd55d"
							d="M941.4 77.6c2-1.6 4.4-2 5.2-1 1 1.1 0 3.3-2 5-2 1.5-4.4 2-5.3.9-.9-1.1 0-3.3 2-5Z"
						/>
						<path
							fill="#db5c00"
							d="M947.8 40s2.3 1.9 1.8 5.8c-.1.8-1.3 1.9-1 2.8 1.3 3.7.5 8.7 1 8.7.4 0 0-6 1.7-8.4.6-1 1.4 3.6 1 6.8-.3 3.9-5.5 13-5 13 .6 0 8.2-7.8 8.4-13 .3-9.6-3.3-18-3.3-18l-4.6 2.3Z"
						/>
						<path
							fill="#efe189"
							d="M942.6 38c-1.9-2.6-2-5.8-.3-7 1.8-1.3 4.8-.1 6.7 2.6 1.9 2.6 2 5.8.3 7-1.8 1.3-4.7.2-6.7-2.5Z"
						/>
						<path
							fill="#efe189"
							d="M945.4 45c-.9-1.1-1-2.5-.3-3s2 0 2.9 1.3c.8 1.2 1 2.5.2 3-.7.6-2 0-2.8-1.2Z"
						/>
					</g>
				</g>
				<g
					class="dragon-sphere-2"
					style="
						--animation-duration: 12.4s;
						--animation-delay: -4.5s;
					"
				>
					<circle cx="927.9" cy="350.4" r="38.7" fill="#ffac33" />
					<clipPath id="d">
						<circle cx="927.9" cy="350.4" r="38.7" />
					</clipPath>
					<g clip-path="url(#d)">
						<path
							fill="#db5c00"
							d="M926.6 315c18.8 0 33.9 12.4 34 27.7 0 .8-2.3.4-5.2 2-.1 0-.4 0-.5-.2-.6-1.5-4.6-7-5-7.6a29.3 29.3 0 0 0-21.1-13.1c-7.8-.7-19 5-24.3 10.9-4.5 5-12 9-12 8-.2-15.3 15.3-27.8 34.1-27.8Z"
						/>
						<circle cx="927.3" cy="350" r="25.1" fill="#fd710c" />
						<clipPath id="e">
							<circle cx="927.3" cy="350" r="25.1" />
						</clipPath>
						<g clip-path="url(#e)">
							<path
								fill="#ea4300"
								d="M898.5 350s6.2 13.8 28.8 13.3c22.6-.6 30.6-13.3 30.6-13.3s-14.2 33-30.6 32c-16.4-1.2-28.8-32-28.8-32Z"
							/>
							<path
								fill="#ce3600"
								d="M914.2 342.7h2.5l1.5-2.6 1.5 2.6h2.6l-2.1 2 1 3-3-1.3-3 1.2 1-2.9-2-2Z"
							/>
							<path
								fill="#ce3600"
								d="M933.4 350.6h2.5l1.5-2.6 1.5 2.6h2.6l-2.1 2 1 3-3-1.3-3 1.2 1-3-2-2Z"
							/>
						</g>
						<path
							fill="#db5c00"
							d="m897.8 339.4-3.2 5.5s-1.8 4-1.2 10.2c.4 3.9 5.7 13 5.2 13a34 34 0 0 1-8-14.8c-.4-9.7 2.8-16.8 2.8-16.8l4.4 2.9Z"
						/>
						<path
							fill="#ffd55d"
							d="M902 333.6c-1.2-.7-10.5 9.5-7 23.8s18 24 19.1 21.4c1.2-2.7-11.3-10.6-13.7-21.4-3.2-14.4 3.7-22.6 1.5-23.8Z"
						/>
						<path
							fill="#ffd55d"
							d="M907.3 321.4c2.9-2.3 6.2-2.9 7.5-1.3 1.3 1.6 0 4.8-2.9 7-2.9 2.4-6.2 3-7.5 1.3-1.3-1.6 0-4.7 2.9-7Z"
						/>
						<path
							fill="#ffd55d"
							d="M947.5 373c2-1.7 4.3-2 5.2-1 .9 1.1 0 3.3-2 5-2 1.5-4.4 2-5.3.9-.9-1.1 0-3.3 2-5Z"
						/>
						<path
							fill="#db5c00"
							d="M953.8 335.4s2.4 1.8 1.8 5.8c0 .8-1.2 1.8-.9 2.8 1.2 3.7.5 8.7 1 8.7.3 0 0-6 1.6-8.4.6-1 1.4 3.6 1.1 6.8-.3 3.9-5.6 13-5 13 .5 0 8.2-7.8 8.3-13 .4-9.6-3.3-18-3.3-18l-4.6 2.3Z"
						/>
						<path
							fill="#efe189"
							d="M948.7 333.5c-2-2.7-2-6-.3-7.2 1.7-1.2 4.7 0 6.6 2.7 2 2.6 2.1 5.8.3 7-1.7 1.3-4.7.2-6.6-2.5Z"
						/>
						<path
							fill="#efe189"
							d="M951.5 340.5c-.9-1.2-1-2.6-.3-3.1s2 0 2.8 1.2c.9 1.2 1 2.6.3 3.1s-2 0-2.8-1.2Z"
						/>
					</g>
				</g>
				<g
					class="dragon-sphere-3"
					style="
						--animation-duration: 11.8s;
						--animation-delay: -5s;
						--translate-Y: -15px;
						--translate: 8px;
					"
				>
					<circle cx="626.8" cy="35.2" r="38.7" fill="#ffac33" />
					<clipPath id="f">
						<circle cx="626.8" cy="35.2" r="38.7" />
					</clipPath>
					<g clip-path="url(#f)">
						<path
							fill="#db5c00"
							d="M625.5-.3c18.8 0 33.8 12.5 34 27.8 0 .8-2.3.4-5.3 2 0 0-.3 0-.4-.3-.7-1.5-4.6-6.9-5-7.5a29.3 29.3 0 0 0-21.1-13.1c-7.8-.7-19 5-24.3 10.8-4.6 5-12 9.2-12 8.1-.3-15.3 15.3-27.8 34-27.8Z"
						/>
						<circle cx="626.2" cy="34.8" r="25.1" fill="#fd710c" />
						<clipPath id="g">
							<circle cx="626.2" cy="34.8" r="25.1" />
						</clipPath>
						<g clip-path="url(#g)">
							<path
								fill="#ea4300"
								d="M597.4 34.8s6.1 13.8 28.8 13.3c22.6-.6 30.6-13.3 30.6-13.3s-14.3 33-30.6 31.9c-16.4-1.1-28.8-31.9-28.8-31.9Z"
							/>
							<path
								fill="#ce3600"
								d="M612.4 24.8h2.5l1.4-2.6 1.5 2.6h2.6l-2 2 1 3-3-1.3-3 1.2 1-3-2-2Z"
							/>
							<path
								fill="#ce3600"
								d="M634.2 31h2.5l1.4-2.7 1.5 2.6h2.6l-2 2 1 3-3-1.3-3 1.3 1-3-2-2Z"
							/>
							<path
								fill="#ce3600"
								d="M620.3 45.5h2.5l1.4-2.6 1.5 2.6h2.6l-2 2 1 3-3-1.3-3 1.2 1-3-2-2Z"
							/>
						</g>
						<path
							fill="#db5c00"
							d="m596.7 24.2-3.2 5.5s-1.9 4-1.2 10.2c.4 3.9 5.7 13 5.1 13a34 34 0 0 1-8-14.8c-.4-9.7 2.9-16.9 2.9-16.9l4.4 3Z"
						/>
						<path
							fill="#ffd55d"
							d="M600.8 18.3c-1.1-.6-10.5 9.6-7 24 3.6 14.2 18.1 24 19.2 21.3 1.1-2.7-11.3-10.7-13.7-21.4-3.2-14.5 3.6-22.6 1.5-23.9Z"
						/>
						<path
							fill="#ffd55d"
							d="M606.1 6.1c3-2.3 6.3-2.8 7.6-1.2 1.3 1.6 0 4.8-3 7-2.8 2.4-6.2 3-7.4 1.3-1.3-1.6 0-4.8 2.8-7Z"
						/>
						<path
							fill="#ffd55d"
							d="M646.3 57.7c2-1.6 4.4-2 5.3-.9.9 1.1 0 3.3-2.1 4.9-2 1.6-4.4 2-5.2 1-1-1.2 0-3.4 2-5Z"
						/>
						<path
							fill="#db5c00"
							d="M652.7 20.2s2.3 1.8 1.8 5.8c-.1.8-1.2 1.8-1 2.8 1.3 3.7.6 8.6 1 8.6s.1-5.8 1.7-8.3c.6-1 1.4 3.6 1.1 6.7-.4 4-5.6 13.1-5 13.1.5 0 8.1-7.9 8.3-13 .4-9.7-3.3-18.1-3.3-18.1l-4.6 2.4Z"
						/>
						<path
							fill="#efe189"
							d="M647.6 18.2c-2-2.6-2-5.8-.3-7 1.7-1.3 4.7-.2 6.6 2.5 2 2.7 2 6 .3 7.2-1.7 1.2-4.7 0-6.6-2.7Z"
						/>
						<path
							fill="#efe189"
							d="M650.3 25.3c-.8-1.3-1-2.6-.2-3.1.7-.6 2 0 2.8 1.2.9 1.2 1 2.6.3 3.1s-2 0-2.9-1.2Z"
						/>
					</g>
				</g>
				<g
					class="dragon-sphere-4"
					style="
						--animation-duration: 12.5s;
						--animation-delay: 3s;
						--translate-Y: 7px;
						--translate: -8px;
					"
				>
					<circle cx="512" cy="426.5" r="38.7" fill="#ffac33" />
					<clipPath id="h">
						<circle cx="512" cy="426.5" r="38.7" />
					</clipPath>
					<g clip-path="url(#h)">
						<path
							fill="#db5c00"
							d="M510.7 391c18.8 0 33.9 12.5 34.1 27.9 0 .7-2.3.3-5.3 1.9 0 0-.3 0-.4-.2-.7-1.5-4.7-7-5-7.6a29.3 29.3 0 0 0-21.2-13.1c-7.7-.7-19 5-24.3 10.9-4.5 5-12 9.1-12 8-.2-15.3 15.3-27.8 34.1-27.8Z"
						/>
						<circle cx="511.4" cy="426.1" r="25.1" fill="#fd710c" />
						<clipPath id="i">
							<circle cx="511.4" cy="426.1" r="25.1" />
						</clipPath>
						<g clip-path="url(#i)">
							<path
								fill="#ea4300"
								d="M482.7 426.1s6.1 13.9 28.7 13.3c22.6-.6 30.7-13.3 30.7-13.3s-14.3 33-30.7 32c-16.3-1.2-28.7-32-28.7-32Z"
							/>
							<path
								fill="#ce3600"
								d="M498.7 409.4h2.4l1.5-2.6 1.5 2.6h2.6l-2 2 1 3-3.1-1.3-3 1.2 1-2.9-2-2Z"
							/>
							<path
								fill="#ce3600"
								d="M518.4 420.6h2.5l1.5-2.6 1.5 2.6h2.6l-2.1 2 1 3-3-1.3-3 1.3 1-3-2-2Z"
							/>
							<path
								fill="#ce3600"
								d="M518 440h2.5l1.5-2.7 1.5 2.6h2.6l-2.1 2 1 3-3-1.3-3 1.3 1-3-2-2Z"
							/>
							<path
								fill="#ce3600"
								d="M494.6 433.7h2.4l1.5-2.6 1.5 2.6h2.6l-2 2 1 3-3-1.3-3 1.2 1-2.9-2-2Z"
							/>
						</g>
						<path
							fill="#db5c00"
							d="m482 415.5-3.2 5.5s-2 4-1.3 10.2c.4 3.9 5.8 13 5.2 13a34 34 0 0 1-8-14.8c-.4-9.7 2.8-16.8 2.8-16.8l4.5 2.9Z"
						/>
						<path
							fill="#ffd55d"
							d="M486 409.7c-1-.7-10.4 9.6-6.9 23.9 3.6 14.3 18 24 19.2 21.3 1-2.6-11.4-10.6-13.7-21.3-3.2-14.5 3.6-22.7 1.5-24Z"
						/>
						<path
							fill="#ffd55d"
							d="M491.4 397.5c2.9-2.3 6.3-2.9 7.5-1.3 1.3 1.6 0 4.8-2.9 7-2.8 2.4-6.2 3-7.5 1.3-1.3-1.6 0-4.7 3-7Z"
						/>
						<path
							fill="#ffd55d"
							d="M531.6 449c2-1.5 4.4-2 5.2-.9 1 1.1 0 3.3-2 5-2 1.5-4.4 2-5.3.9-.9-1.1 0-3.3 2.1-5Z"
						/>
						<path
							fill="#db5c00"
							d="M538 411.5s2.3 1.9 1.8 5.8c-.1.8-1.3 1.9-1 2.8 1.3 3.7.5 8.7 1 8.7.4 0 .1-6 1.7-8.4.6-1 1.4 3.6 1 6.8-.3 3.9-5.5 13-5 13 .6 0 8.2-7.8 8.4-13 .3-9.6-3.3-18-3.3-18l-4.6 2.3Z"
						/>
						<path
							fill="#efe189"
							d="M532.8 409.6c-1.9-2.7-2-6-.3-7.2 1.8-1.2 4.8 0 6.7 2.7 1.9 2.7 2 5.8.3 7-1.8 1.3-4.7.2-6.7-2.5Z"
						/>
						<path
							fill="#efe189"
							d="M535.6 416.6c-.9-1.2-1-2.6-.3-3.1s2 0 2.9 1.3c.8 1.2 1 2.5.2 3-.7.6-2 0-2.8-1.2Z"
						/>
					</g>
				</g>
				<g
					class="dragon-sphere-5"
					style="
						--animation-duration: 12s;
						--animation-delay: -3s;
						--translate-Y: 10px;
						--translate: -10px;
					"
				>
					<circle cx="434.1" cy="173.9" r="38.7" fill="#ffac33" />
					<clipPath id="j">
						<circle cx="434.1" cy="173.9" r="38.7" />
					</clipPath>
					<g clip-path="url(#j)">
						<path
							fill="#db5c00"
							d="M432.8 138.4c18.8 0 33.9 12.5 34.1 27.8 0 .8-2.3.4-5.3 2-.1 0-.4 0-.5-.3-.6-1.4-4.6-6.9-5-7.5a29.3 29.3 0 0 0-21-13.1c-7.8-.7-19.1 5-24.4 10.8-4.5 5-12 9.2-12 8.1-.2-15.3 15.3-27.8 34.1-27.8Z"
						/>
						<circle cx="433.5" cy="173.5" r="25.1" fill="#fd710c" />
						<clipPath id="k">
							<circle cx="433.5" cy="173.5" r="25.1" />
						</clipPath>
						<g clip-path="url(#k)">
							<path
								fill="#ea4300"
								d="M404.7 173.5s6.2 13.8 28.8 13.3c22.6-.6 30.6-13.3 30.6-13.3s-14.2 33-30.6 32c-16.4-1.2-28.8-32-28.8-32Z"
							/>
							<path
								fill="#ce3600"
								d="M416 167h2.6l1.4-2.7 1.5 2.6h2.6l-2 2 1 3-3-1.3-3 1.3 1-3-2-2Z"
							/>
							<path
								fill="#ce3600"
								d="M430.5 156.1h2.4l1.5-2.6 1.5 2.6h2.6l-2 2 1 3-3-1.3-3 1.3 1-3-2-2Z"
							/>
							<path
								fill="#ce3600"
								d="M445.2 166.8h2.5l1.4-2.6 1.6 2.6h2.5l-2 2 1 3-3-1.3-3 1.3 1-3-2-2Z"
							/>
							<path
								fill="#ce3600"
								d="M440.1 187.3h2.5l1.4-2.6 1.6 2.6h2.5l-2 2 1 3-3-1.3-3 1.3 1-3-2-2Z"
							/>
							<path
								fill="#ce3600"
								d="M421.1 186.8h2.5l1.4-2.6 1.6 2.6h2.5l-2 2 1 3-3-1.3-3 1.2 1-2.9-2-2Z"
							/>
						</g>
						<path
							fill="#db5c00"
							d="m404 162.9-3.1 5.5s-2 4-1.3 10.2c.4 3.9 5.7 13 5.2 13a34 34 0 0 1-8-14.8c-.4-9.7 2.8-16.8 2.8-16.8l4.5 2.9Z"
						/>
						<path
							fill="#ffd55d"
							d="M408.1 157c-1-.6-10.4 9.6-6.9 24 3.6 14.2 18 24 19.2 21.3 1-2.7-11.4-10.7-13.7-21.4-3.2-14.5 3.6-22.6 1.4-23.8Z"
						/>
						<path
							fill="#ffd55d"
							d="M413.5 144.9c2.9-2.3 6.2-2.9 7.5-1.3 1.3 1.6 0 4.8-2.9 7-2.8 2.4-6.2 3-7.5 1.3-1.3-1.6 0-4.7 2.9-7Z"
						/>
						<path
							fill="#ffd55d"
							d="M453.7 196.4c2-1.6 4.3-2 5.2-.9.9 1.1 0 3.3-2 5-2 1.5-4.4 2-5.3.9-.9-1.1 0-3.3 2-5Z"
						/>
						<path
							fill="#db5c00"
							d="M460 158.9s2.4 1.8 1.8 5.8c0 .8-1.2 1.8-.9 2.8 1.3 3.7.5 8.6 1 8.7.3 0 0-6 1.7-8.4.6-1 1.3 3.6 1 6.7-.3 4-5.6 13.1-5 13.2.6 0 8.2-8 8.4-13.1.3-9.7-3.4-18-3.4-18l-4.6 2.3Z"
						/>
						<path
							fill="#efe189"
							d="M455 157c-2-2.7-2.1-6-.4-7.2 1.8-1.2 4.7 0 6.7 2.6 1.9 2.7 2 6 .3 7.2-1.8 1.2-4.8 0-6.7-2.6Z"
						/>
						<path
							fill="#efe189"
							d="M457.7 164c-.9-1.2-1-2.6-.3-3.1s2 0 2.8 1.2c.9 1.2 1 2.6.3 3.1s-2 0-2.8-1.2Z"
						/>
					</g>
				</g>
				<g
					class="dragon-sphere-6"
					style="
						--animation-duration: 10s;
						--translate-Y: 10px;
						--translate: 0px;
					"
				>
					<circle cx="84.9" cy="111.3" r="38.7" fill="#ffac33" />
					<clipPath id="l">
						<circle cx="84.9" cy="111.3" r="38.7" />
					</clipPath>
					<g clip-path="url(#l)">
						<path
							fill="#db5c00"
							d="M83.6 75.8c18.8 0 33.9 12.5 34.1 27.8 0 .8-2.3.4-5.3 2 0 0-.3 0-.4-.3-.7-1.5-4.7-6.9-5-7.5a29.3 29.3 0 0 0-21.2-13.2c-7.7-.6-19 5-24.3 11-4.5 5-12 9-12 8-.2-15.3 15.3-27.8 34.1-27.8Z"
						/>
						<circle cx="84.3" cy="110.9" r="25.1" fill="#fd710c" />
						<clipPath id="m">
							<circle cx="84.3" cy="110.9" r="25.1" />
						</clipPath>
						<g clip-path="url(#m)">
							<path
								fill="#ea4300"
								d="M55.6 110.9s6.1 13.8 28.7 13.3c22.6-.6 30.7-13.3 30.7-13.3s-14.3 33-30.7 31.9c-16.3-1.1-28.7-31.9-28.7-31.9Z"
							/>
							<path
								fill="#ce3600"
								d="M67 104.3h2.4l1.4-2.6 1.5 2.6H75l-2 2 1 3-3-1.3-3 1.2 1-2.9-2-2Z"
							/>
							<path
								fill="#ce3600"
								d="M81.3 93.5h2.5l1.4-2.6 1.5 2.6h2.6l-2 2 1 3-3-1.3-3 1.2 1-2.9-2-2Z"
							/>
							<path
								fill="#ce3600"
								d="M81.3 112h2.5l1.5-2.5 1.5 2.6h2.6l-2.1 2 1 3-3-1.3-3 1.2 1-2.9-2-2Z"
							/>
							<path
								fill="#ce3600"
								d="M96 104.2h2.5l1.5-2.6 1.5 2.6h2.6l-2.1 2 1 3-3-1.3-3 1.2 1-2.9-2-2Z"
							/>
							<path
								fill="#ce3600"
								d="M91 124.7h2.4L95 122l1.5 2.6H99l-2.1 2 1 3-3-1.3-3 1.2 1-2.9-2-2Z"
							/>
							<path
								fill="#ce3600"
								d="M72 124.2h2.4l1.5-2.6 1.5 2.6H80l-2.1 2 1 3-3-1.3-3 1.2 1-2.9-2-2Z"
							/>
						</g>
						<path
							fill="#db5c00"
							d="m54.9 100.3-3.2 5.5s-2 4-1.3 10.1c.4 4 5.8 13 5.2 13.1a34 34 0 0 1-8-14.9c-.4-9.6 2.8-16.8 2.8-16.8l4.5 3Z"
						/>
						<path
							fill="#ffd55d"
							d="M59 94.4c-1.2-.6-10.5 9.6-7 24 3.6 14.2 18 23.9 19.2 21.3 1-2.7-11.4-10.7-13.7-21.4-3.2-14.5 3.6-22.6 1.5-23.9Z"
						/>
						<path
							fill="#ffd55d"
							d="M64.3 82.2c2.9-2.3 6.3-2.8 7.5-1.2 1.3 1.6 0 4.8-2.9 7-2.8 2.3-6.2 3-7.5 1.3-1.3-1.6 0-4.8 3-7Z"
						/>
						<path
							fill="#ffd55d"
							d="M104.5 133.8c2-1.6 4.4-2 5.2-1 1 1.2 0 3.4-2 5s-4.4 2-5.3 1c-.9-1.2 0-3.4 2.1-5Z"
						/>
						<path
							fill="#db5c00"
							d="M110.9 96.3s2.3 1.8 1.8 5.8c-.1.8-1.3 1.8-1 2.8 1.3 3.7.5 8.6 1 8.6.4 0 0-5.8 1.7-8.3.6-1 1.4 3.6 1 6.7-.3 4-5.5 13.1-5 13.1.6 0 8.2-7.9 8.4-13 .3-9.7-3.3-18.1-3.3-18.1l-4.6 2.4Z"
						/>
						<path
							fill="#efe189"
							d="M105.7 94.3c-1.9-2.7-2-5.8-.3-7 1.8-1.3 4.8-.2 6.7 2.5 1.9 2.7 2 6 .3 7.2-1.8 1.2-4.7 0-6.7-2.7Z"
						/>
						<path
							fill="#efe189"
							d="M108.5 101.3c-.9-1.2-1-2.5-.3-3 .7-.6 2 0 2.9 1.2.8 1.2 1 2.6.2 3.1-.7.5-2 0-2.8-1.3Z"
						/>
					</g>
				</g>
				<g class="dragon-sphere-7" style="--animation-duration: 12.3s">
					<circle cx="44.2" cy="371.7" r="38.7" fill="#ffac33" />
					<clipPath id="n">
						<circle cx="44.2" cy="371.7" r="38.7" />
					</clipPath>
					<g clip-path="url(#n)">
						<path
							fill="#db5c00"
							d="M43 336.2c18.7 0 33.8 12.5 34 27.8 0 .8-2.3.4-5.3 2-.1 0-.4 0-.5-.2-.6-1.5-4.6-7-5-7.6a29.3 29.3 0 0 0-21-13.1c-7.8-.7-19.1 5-24.4 10.9-4.5 5-12 9-12 8-.2-15.3 15.3-27.8 34.1-27.8Z"
						/>
						<circle cx="43.6" cy="371.3" r="25.1" fill="#fd710c" />
						<clipPath id="o">
							<circle cx="43.6" cy="371.3" r="25.1" />
						</clipPath>
						<g clip-path="url(#o)">
							<path
								fill="#ea4300"
								d="M14.8 371.3s6.2 13.8 28.8 13.3c22.6-.6 30.6-13.3 30.6-13.3s-14.2 33-30.6 32c-16.4-1.2-28.8-32-28.8-32Z"
							/>
							<path
								fill="#ce3600"
								d="M26.2 364.7h2.5l1.4-2.6 1.5 2.6h2.6l-2 2 1 3-3-1.3-3 1.3 1-3-2-2Z"
							/>
							<path
								fill="#ce3600"
								d="M40.6 354H43l1.5-2.7L46 354h2.6l-2 2 1 3-3-1.3-3 1.3 1-3-2-2Z"
							/>
							<path
								fill="#ce3600"
								d="M40.6 371.4h2.5l1.5-2.6 1.5 2.6h2.6l-2.1 2 1 3-3-1.3-3 1.2 1-2.9-2-2Z"
							/>
							<path
								fill="#ce3600"
								d="M40.7 388h2.5l1.5-2.6 1.5 2.6h2.6l-2.1 2 1 3-3-1.3-3 1.2 1-3-2-2Z"
							/>
							<path
								fill="#ce3600"
								d="M55.3 364.6h2.5l1.4-2.6 1.6 2.6h2.5l-2 2 1 3-3-1.3-3 1.3 1-3-2-2Z"
							/>
							<path
								fill="#ce3600"
								d="M54.5 382.2H57l1.4-2.6 1.5 2.6h2.6l-2 2 1 3-3-1.3-3 1.3 1-3-2-2Z"
							/>
							<path
								fill="#ce3600"
								d="M26.5 381.8h2.4l1.5-2.5 1.5 2.5h2.6l-2 2 1 3-3.1-1.3-3 1.3 1-3-2-2Z"
							/>
						</g>
						<path
							fill="#db5c00"
							d="m14.2 360.7-3.2 5.5s-2 4-1.3 10.2c.4 3.9 5.7 13 5.2 13a34 34 0 0 1-8-14.8c-.4-9.7 2.8-16.8 2.8-16.8l4.5 2.9Z"
						/>
						<path
							fill="#ffd55d"
							d="M18.2 354.9c-1-.7-10.4 9.5-6.9 23.8 3.6 14.4 18 24 19.2 21.4 1-2.7-11.4-10.6-13.7-21.4-3.2-14.4 3.6-22.6 1.4-23.8Z"
						/>
						<path
							fill="#ffd55d"
							d="M23.6 342.7c2.9-2.3 6.2-2.9 7.5-1.3 1.3 1.6 0 4.8-2.9 7-2.8 2.4-6.2 3-7.5 1.3-1.3-1.6 0-4.7 2.9-7Z"
						/>
						<path
							fill="#ffd55d"
							d="M63.8 394.3c2-1.7 4.3-2 5.2-1 .9 1.1 0 3.3-2 5-2 1.5-4.4 2-5.3.9-.9-1.1 0-3.3 2-5Z"
						/>
						<path
							fill="#db5c00"
							d="M70.1 356.7s2.4 1.8 1.8 5.8c0 .8-1.2 1.9-.9 2.8 1.3 3.7.5 8.7 1 8.7.3 0 0-6 1.7-8.4.6-1 1.3 3.6 1 6.8-.3 3.9-5.5 13-5 13 .6 0 8.2-7.8 8.4-13 .3-9.6-3.3-18-3.3-18l-4.7 2.3Z"
						/>
						<path
							fill="#efe189"
							d="M65 354.8c-1.9-2.7-2-6-.3-7.2 1.8-1.2 4.7 0 6.7 2.7 1.9 2.6 2 5.8.3 7-1.8 1.3-4.8.2-6.7-2.5Z"
						/>
						<path
							fill="#efe189"
							d="M67.8 361.8c-.9-1.2-1-2.6-.3-3.1s2 0 2.8 1.2c1 1.3 1 2.6.3 3.1-.7.6-2 0-2.8-1.2Z"
						/>
					</g>
				</g>
			</g>
			<g>
				<g>
					<g>
						<path
							fill="#2d8a92"
							d="M338.4 326.6c-1 .8-1.8 14.7 2 18.1 1.4 1.2 5.3 3.1 9.5 3.2 3.3.1 6.7-5.7 9-6 3.4-.3-2.8-5.4-2.8-5.4s-7.3 9.6-11.1 6.3c-3.9-3.4-5.6-17-6.6-16.2Z"
						/>
						<path
							fill="#25959f"
							d="M374.4 296.4c17.4-1.7 41 4.2 43.2 27.8 2.2 23.7-9.7 44-27 45.7-3.7.3-47.1 7.4-46.4 3.9.6-2.5 5-2.3 7.6-8.3 3-6.8.4-16.7-.5-26.7-2.2-23.6 5.8-40.8 23.1-42.4Z"
						/>
						<clipPath id="p">
							<path
								d="M374.4 296.4c17.4-1.7 41 4.2 43.2 27.8 2.2 23.7-9.7 44-27 45.7-3.7.3-47.1 7.4-46.4 3.9.6-2.5 5-2.3 7.6-8.3 3-6.8.4-16.7-.5-26.7-2.2-23.6 5.8-40.8 23.1-42.4Z"
							/>
						</clipPath>
						<g clip-path="url(#p)">
							<path
								fill="#1a858f"
								d="M360.9 370.2c-7.7 5-13.2 7.5-16 6.6-2.7-.8-6.9-5.1-6.9-5.1s3.8 2.2 10.3-1c6.4-3.1 11.5-7 12-6.8.6.3-8.9 7.3-8.8 8.3.1 1 17-7 9.4-2Z"
							/>
							<path
								fill="#1d8993"
								d="M385 324.3c-3.7 8.2-11.3 31.2-16 31.6-4.6.4.1 3.2 3.4 2 3.4-1.4 15.2-18 15-15-.2 3.1-7.3 9-6.4 9.7.9.8 7.1-2.9 8.4-7.5a106 106 0 0 0 3.5-25.5c-.8-5.5-.6-16.6-2-15.8-1.2.8-3.2 14.8-5.9 20.5Z"
							/>
							<path
								fill="#39a5ae"
								d="M416.7 319.7c-.8.6-5.6 23.1-6.6 25.6-3.9 9.5-14.1 23.1-14 23.2 1.5 1.5 13.4-10.9 18-21.4 2-4.4 3.3-28 2.6-27.4Z"
							/>
							<path
								fill="#39a5ae"
								d="M377.8 315.5c.2 1-9.4 21.9-10 24.5-2.6 9.9-2.4 27-2.6 27-2 .2-4.3-16.8-1.7-28 1-4.6 14-24.5 14.3-23.5Z"
							/>
							<path
								fill="#237f88"
								d="M388.8 355.4C373 376 369 375.2 359 375.2s4.6 5.9 13 4.2c8.3-1.8 21.8-10 24.9-22.4 3-12.4-4.7-23.4-4.7-23.4s1.8 14.9-3.4 21.8Z"
							/>
							<path
								fill="#1a858f"
								d="M358.7 320.4c4.2-12.4 8.2-20.2 12-21.7 3.9-1.5 12.5-.3 12.5-.3s-6.3.8-10.8 10.1c-4.4 9.4-6.7 18.3-7.5 18.5-.9.2 3.6-16.1 2.6-17.2-1-1.1-13 23-8.8 10.6Z"
							/>
							<path
								fill="#1a858f"
								d="M410.5 315.6c-3.4-8.5-6.4-13.8-9.1-14.7-2.7-.9-8.7.2-8.7.2s4.4.4 7.8 6.7c3.4 6.3 5.3 12.4 6 12.6.5 0-3.2-11.1-2.5-11.9.7-.8 9.8 15.6 6.5 7Z"
							/>
						</g>
					</g>
					<path
						fill="#25959f"
						d="M384.4 214.2c17.4-1.6 33.3 16.2 35.5 39.9 2.2 23.6-10 44.1-27.5 45.8-17.4 1.6-33.3-16.3-35.5-40-2.2-23.6 10.1-44 27.5-45.7Z"
					/>
					<clipPath id="q">
						<path
							d="M384.4 214.2c17.4-1.6 33.3 16.2 35.5 39.9 2.2 23.6-10 44.1-27.5 45.8-17.4 1.6-33.3-16.3-35.5-40-2.2-23.6 10.1-44 27.5-45.7Z"
						/>
					</clipPath>
					<g fill="#1a858f" clip-path="url(#q)">
						<path
							d="M362.6 253.6c2.9 20.6 6.7 33.8 12.2 37.3a56.7 56.7 0 0 0 19.3 4.3s-9.5-3.2-13.7-19c-4.1-16-5-30.5-6.3-31-1.2-.6 1 26.1-1 27.5-2 1.4-13.4-39.7-10.5-19.1Z"
						/>
						<path
							d="M411 266.3c-2 14.3-4.6 23.6-8.4 26-3.9 2.4-13.5 3-13.5 3s6.7-2.3 9.6-13.3c2.8-11 3.5-21.1 4.3-21.5.9-.4-.6 18.1.8 19.1 1.3 1 9.2-27.6 7.3-13.3Z"
						/>
						<path
							d="M412.2 251.4c-5-8.4-7.6-16.8-10.6-17.2-3-.5-10.6 5-10.6 5s4.7-.3 9.4 5.7c4.7 6.1 7.8 12.2 8.4 12.2.6 0-5.2-11-4.6-12 .6-1 13 14.6 8 6.3Z"
						/>
					</g>
					<path
						fill="#c02446"
						d="M368.3 288.6s25.4 3.6 39 3.7c2.6 0-3.2 9.9-3.2 9.9s-34.8-3.5-35.6-4.6c-.9-1.2-.2-9-.2-9Z"
					/>
					<path
						fill="#25959f"
						d="M374.8 156.5c17.2-3.3 34.8 13 39.3 36.2 4.5 23.3-5.8 45-23 48.3-17 3.3-34.7-13-39.2-36.3-4.5-23.3 5.8-44.9 23-48.2Z"
					/>
					<clipPath id="r">
						<path
							d="M374.8 156.5c17.2-3.3 34.8 13 39.3 36.2 4.5 23.3-5.8 45-23 48.3-17 3.3-34.7-13-39.2-36.3-4.5-23.3 5.8-44.9 23-48.2Z"
						/>
					</clipPath>
					<g fill="#1a858f" clip-path="url(#r)">
						<path
							d="M413.6 203.6c-2.8 20.6-6.7 33.8-12.2 37.3a56 56 0 0 1-19.3 4.3s9.6-3.2 13.7-19c4.1-16 5-30.5 6.3-31 1.2-.6-.9 26.1 1 27.5 2 1.4 13.4-39.7 10.5-19.1Z"
						/>
						<path
							d="M403.9 189.4c-4.7-14.9-12-23.3-16.3-24.4-4.2-1.2-12.8 10.3-12.8 10.3s7.2-6.3 13 3.1c5.9 9.4 9.4 18.6 10.3 18.7.9.2-5.8-16.6-4.8-18 2.2-3 14.6 23.1 10.6 10.3Z"
						/>
						<path
							d="M371.3 219.5c1.7 12.2 4 20.2 7.3 22.2s11.5 2.6 11.5 2.6-5.7-2-8.2-11.4c-2.4-9.4-3-18.1-3.7-18.5-.7-.3.5 15.6-.6 16.5-1.2.8-8-23.7-6.3-11.4Z"
						/>
					</g>
					<path
						fill="#25959f"
						d="M352.4 94.5c16.7-5 35.8 9.6 42.4 32.4 6.7 22.8-1.5 45.2-18.3 50.1-16.7 5-35.8-9.6-42.4-32.4-6.7-22.8 1.5-45.2 18.3-50.1Z"
					/>
					<clipPath id="s">
						<path
							d="M352.4 94.5c16.7-5 35.8 9.6 42.4 32.4 6.7 22.8-1.5 45.2-18.3 50.1-16.7 5-35.8-9.6-42.4-32.4-6.7-22.8 1.5-45.2 18.3-50.1Z"
						/>
					</clipPath>
					<g fill="#1a858f" clip-path="url(#s)">
						<path
							d="M341.9 143.1c8.5 19 17.1 28.3 22.3 32.3 6 4.8 19.4 2.1 19.7-1.3 0 0-10-.4-18.5-14.4s-13.5-27.7-14.8-28c-1.4-.1 8.2 25 6.8 26.8-1.5 1.9-24.1-34.3-15.5-15.4Z"
						/>
						<path
							d="M392 141.6c2.1 14.3 2.2 23.9-.8 27.3-3 3.4-12 6.6-12 6.6s5.7-4 5.3-15.4c-.4-11.3-2.6-21.2-1.9-21.9.7-.6 4.6 17.7 6.1 18.2 1.6.6 1.1-29.1 3.3-14.8Z"
						/>
						<path
							d="M385.2 116.2c-7.9-12-14.3-19.3-18.8-19.8-4.5-.6-13.4 3-13.4 3s7-.8 14.3 8c7.3 8.7 12.2 17.5 13.2 17.5s-8.4-16.2-7.6-17.6c.8-1.5 20.3 21 12.3 8.9Z"
						/>
					</g>
				</g>
				<path
					fill="#541d7a"
					d="M200 328.6s-48 8.4-48.9 39c-.8 30.6 84.5 109.8 104.4 107.6 19.9-2.2 110-66.2 93.4-95.2-16.6-29-60-51-60-51l-88.9-.4Z"
				/>
				<g>
					<path
						fill="#fe3466"
						d="M164 66.5c-7-1.2 3-18 1.9-25-1.3-8.4-15.1-24.5-6.3-28.9 19.2-9.4 97.5 6.3 91.2 15.3l27.7-1.1C278.7 19 351.2 4 365.4 11c6 3-2.8 16.9-3 23.6-.3 7.6 8.4 19.7 1.4 21.8-14.6 4.3-89.1 4-89.1 4s-92.5 9.3-110.7 6.1Z"
					/>
					<clipPath id="t">
						<path
							d="M164 66.5c-7-1.2 3-18 1.9-25-1.3-8.4-15.1-24.5-6.3-28.9 19.2-9.4 97.5 6.3 91.2 15.3l27.7-1.1C278.7 19 351.2 4 365.4 11c6 3-2.8 16.9-3 23.6-.3 7.6 8.4 19.7 1.4 21.8-14.6 4.3-89.1 4-89.1 4s-92.5 9.3-110.7 6.1Z"
						/>
					</clipPath>
					<g clip-path="url(#t)">
						<path
							fill="#c01b46"
							d="M222.3 29.8s10.4 12.6 16 11.7c5.6-.9 27-1.8 27-1.8l-3-11.1-40 1.2Z"
						/>
						<path
							fill="#b32044"
							d="M155.6 68.5s16.5-23.3 48.7-25c32.2-1.8 43.7.6 43.7.6l8.3 4.4L195.9 75l-40.3-6.6Z"
						/>
						<path
							fill="#c01b46"
							d="m275 19.5 25.4-10.8S312.6 28 317.7 26c5.2-2-8.7 7.8-8.7 7.8s30.8 8.9 37.6 3.6c6.9-5.3-4.1-6.7-4.1-6.7s10.4-.5 10.7-10.5c.3-10-1.3-16.5-1.3-16.5l15 .2 4.5 56.5L324 73l-44.9-18.3-4.2-35.2Z"
						/>
						<path
							fill="#ae1239"
							d="M376.3 68.5s-16.5-23.3-48.7-25c-32.3-1.8-43.8.6-43.8.6l-8.2 4.4L335.9 75l40.4-6.6Z"
						/>
					</g>
					<path
						fill="#8e1132"
						d="M249.4 24.5s4.8-3 14.5-3c9.6 0 15 4.2 15 4.2l.8 18.8-30 1-.3-21Z"
					/>
					<path
						fill="#fe3466"
						d="M230 50c-36 .9-71 12-104.3 37.2l34.8 23L230 50Z"
					/>
					<clipPath id="u">
						<path
							d="M230 50c-36 .9-71 12-104.3 37.2l34.8 23L230 50Z"
						/>
					</clipPath>
					<g clip-path="url(#u)">
						<path
							fill="#c01b46"
							d="M157 122.5s1-28.4 8.5-41.5c7-12.1 36.7-37.3 36.7-37.3l41.8.9-87 77.9Z"
						/>
					</g>
					<path
						fill="#fe3466"
						d="M295.4 54c35.6-5.4 71.9-.6 109.2 18.4L361.8 112l-66.4-58Z"
					/>
					<clipPath id="v">
						<path
							d="M295.4 54c35.6-5.4 71.9-.6 109.2 18.4L361.8 112l-66.4-58Z"
						/>
					</clipPath>
					<g clip-path="url(#v)">
						<path
							fill="#c01b46"
							d="M380 112.6s-6-27.7-15.7-39.3c-9-10.8-42.7-30.3-42.7-30.3l-41 8.2 64.8 66.6 34.6-5.2Z"
						/>
					</g>
				</g>
				<path
					fill="#f8dec8"
					fill-rule="nonzero"
					d="M208.8 312.9a256 256 0 0 1 3.9 51.3c-.2 4.3-.5 8.5-1 12.6a577.6 577.6 0 0 0-93.7 53.4l21.7 90.4 114 25.2L391 505.4l-4-75.6a413.2 413.2 0 0 0-82.3-52.8c-4.7-20.7-6.4-50.3-5.1-88.6L208.8 313Z"
				/>
				<path
					fill="#ff89c5"
					d="M254.4 543c-24.3 21.3-56.9 44.5-56.9 44.5l-152-6.9-27.3-28.8s6-54.9 24.4-66C61 474.8 53 444 53 444s11.6-46.7 64.2-47.8c52.6-1.2 29.6 14.8 43.3 42.3 12 24 55 61.6 94.5 62.9 39 1.2 81.3-39 93.3-63 9.2-18.2-4.3-31.7 5.4-38.1 4.9-3.3 20.3-4.5 38-4.1a66.3 66.3 0 0 1 64.1 47.8s-8 30.7 10.5 41.8c18.4 11.1 24.3 66 24.3 66l-27.3 28.8-152 6.9s-32.5-23.2-56.9-44.5Z"
				/>
				<clipPath id="w">
					<path
						d="M254.4 543c-24.3 21.3-56.9 44.5-56.9 44.5l-152-6.9-27.3-28.8s6-54.9 24.4-66C61 474.8 53 444 53 444s11.6-46.7 64.2-47.8c52.6-1.2 29.6 14.8 43.3 42.3 12 24 55 61.6 94.5 62.9 39 1.2 81.3-39 93.3-63 9.2-18.2-4.3-31.7 5.4-38.1 4.9-3.3 20.3-4.5 38-4.1a66.3 66.3 0 0 1 64.1 47.8s-8 30.7 10.5 41.8c18.4 11.1 24.3 66 24.3 66l-27.3 28.8-152 6.9s-32.5-23.2-56.9-44.5Z"
					/>
				</clipPath>
				<g clip-path="url(#w)">
					<path
						fill="#f567a4"
						d="M136.8 390.6s13.9 124.6 121 118.1c83.2-5 106-67.3 107.8-99.6.6-9.4-9-16.3-11-18.5-9.1-9.7-217.8 0-217.8 0Z"
					/>
					<path
						fill="#f772ab"
						d="M81.5 469.2s-42 1-44 14c-1.8 13 34.3-6.5 34.3-6.5l9.7-7.5Z"
					/>
					<path
						fill="#f772ab"
						d="M82.1 420.9S55 436 57.2 443.2c2.2 7 20.6-15.2 20.6-15.2l4.3-7.1Z"
					/>
					<path
						fill="#f772ab"
						d="M428.2 469.2s42 1 43.8 14c1.9 13-34.2-6.5-34.2-6.5l-9.6-7.5Z"
					/>
					<path
						fill="#f772ab"
						d="M427.5 420.9s27.1 15.1 25 22.3c-2.3 7-20.7-15.2-20.7-15.2l-4.3-7.1Z"
					/>
					<path
						fill="#e373a3"
						d="M119.9 564.4c12-15.2 6-50.8-1.5-61.1-7.4-10.3 9 8.3 9 8.3 1-.3-5.5-40.7-6.6-42-1.6-1.8 14.7 11.3 22 37.5 1.8 6.6-3 17 .7 28.1 3.6 11.3 11.7-20.5 11.7-20.5s-.2 32.5-8 39.9c-8 7.4-2.5 36.5-2.5 36.5l-.4 11.4-33.8-10.1s-2.8-12.7 9.4-28Z"
					/>
					<path
						fill="#e373a3"
						d="M382.6 569.4c-12.1-15.2-6-50.8 1.4-61.1 7.4-10.3-8.9 8.3-8.9 8.3-1-.3 5.5-40.7 6.6-42 1.5-1.8-14.7 11.3-22 37.5-1.9 6.6 2.9 17-.7 28.1-3.6 11.3-11.8-20.5-11.8-20.5s.2 32.5 8.1 39.9c7.9 7.4 2.4 36.5 2.4 36.5l.5 11.4 33.7-10.1s2.8-12.7-9.3-28Z"
					/>
				</g>
				<g>
					<clipPath id="x">
						<path
							d="M208.8 312.9a256 256 0 0 1 3.9 51.3c-.2 4.3-.5 8.5-1 12.6a577.6 577.6 0 0 0-93.7 53.4l21.7 90.4 114 25.2L391 505.4l-4-75.6a413.2 413.2 0 0 0-82.3-52.8c-4.7-20.7-6.4-50.3-5.1-88.6L208.8 313Z"
						/>
					</clipPath>
					<g fill-rule="nonzero" clip-path="url(#x)">
						<path
							fill="#f4ceba"
							d="M315.1 300.7s-39 67.2-76.2 86.6c-37.2 19.5-107.7 8.2-107.7 8.2L132 284l179-44 4.1 60.7Z"
						/>
						<path
							fill="#cc9898"
							fill-opacity=".3"
							d="M324.2 318s-40.7 38-72.1 50.2c-20.8 8-85-52-85-52l-2.5-46.2 201.9-13.5-42.3 61.5Z"
						/>
						<path
							fill="#cc9898"
							fill-opacity=".3"
							d="m283.3 422.6 21-12.5 49.3-4.4-70.3 16.9Z"
						/>
						<path
							fill="#cc9898"
							fill-opacity=".3"
							d="m220.6 422.6-21-12.5-49.3-4.4 70.3 16.9Z"
						/>
					</g>
				</g>
				<g>
					<g>
						<path
							fill="#f8d1bb"
							fill-rule="nonzero"
							d="M336.8 263.2c1.5 6 20.8 1 24.7-1 4-2 6.4-9.6 12.7-17.7 4.6-6 11.2-11 12.6-17.5 1.4-6.5-2.2-35.8-9.1-36-9.2-.2-16.1 2-20.7 6.5-4.6 4.5-7 8.5-6.8 12-10 31.8-14.4 49.8-13.4 53.7Z"
						/>
						<g>
							<clipPath id="y">
								<path
									d="M336.8 263.2c1.5 6 20.8 1 24.7-1 4-2 6.4-9.6 12.7-17.7 4.6-6 11.2-11 12.6-17.5 1.4-6.5-2.2-35.8-9.1-36-9.2-.2-16.1 2-20.7 6.5-4.6 4.5-7 8.5-6.8 12-10 31.8-14.4 49.8-13.4 53.7Z"
								/>
							</clipPath>
							<g fill-rule="nonzero" clip-path="url(#y)">
								<path
									fill="#daaca3"
									d="M370.1 239a88.4 88.4 0 0 0 12.7-17.7c.1-2.2-.3-4.2-1.1-6.2-1.5-3.4-4-6.6-6.3-9.7-1.5-2.2-6.7-1.8-15.5 1.2l-2 15.8 12.2 16.6Z"
								/>
								<path
									fill="#edbaa9"
									d="M357.2 227.1c3.6 5 4.7 8.4 3.3 10.4-2 3-12 12.7-12.2 15-.2 2.4 19.5-9.6 21.8-13.5 2.3-4 4.8-14.7 3-19.4-1-3.1-4-5.7-8.5-7.8l-4.8-.8-2.6 16.1Z"
								/>
							</g>
						</g>
					</g>
					<g>
						<path
							fill="#f8d1bb"
							fill-rule="nonzero"
							d="M177.2 265.5c-2 5.8-20.7-1-24.5-3.4-3.8-2.3-5.4-10.1-11-18.8-4-6.3-10-12-10.8-18.6-.8-6.6 5.6-35.5 12.5-35 9.1.7 15.8 3.5 20 8.5 4.1 5 6 9 5.6 12.5 6.9 32.7 9.6 51 8.2 54.8Z"
						/>
						<g>
							<clipPath id="z">
								<path
									d="M177.2 265.5c-2 5.8-20.7-1-24.5-3.4-3.8-2.3-5.4-10.1-11-18.8-4-6.3-10-12-10.8-18.6-.8-6.6 5.6-35.5 12.5-35 9.1.7 15.8 3.5 20 8.5 4.1 5 6 9 5.6 12.5 6.9 32.7 9.6 51 8.2 54.8Z"
								/>
							</clipPath>
							<g fill-rule="nonzero" clip-path="url(#z)">
								<path
									fill="#daaca3"
									d="M146.3 238.2a88.4 88.4 0 0 1-10.9-18.8c0-2.2.7-4.2 1.7-6 1.8-3.3 4.6-6.2 7.2-9.2 1.7-2 6.7-2 15 0l.7 18.7-13.7 15.3Z"
								/>
								<path
									fill="#edbaa9"
									d="M160.3 227.6c-4 4.6-5.4 7.9-4.3 10 1.8 3.1 10.8 13.8 10.8 16.2 0 2.4-18.5-11.5-20.5-15.6-1.9-4.1-3.3-15.1-1.2-19.6 1.5-3 4.6-5.3 9.4-7l4.8-.3 1 16.3Z"
								/>
							</g>
						</g>
					</g>
				</g>
				<path
					fill="#f8ddc6"
					fill-rule="nonzero"
					d="M158 154c-10 35.5 7.2 131.4 21.8 149.4 14.6 18 52.2 47.7 62.5 51.3 10.3 3.7 17.9-.3 24.7-2 6.9-1.6 43.8-24.8 59.3-46.9 15.5-22 14-26.5 19.6-41.7 5.7-15.2 34.7-89 15.8-135.2-18.9-46.2-42.9-65-85-68.7-42-3.7-64.7 12.5-87.1 33.9C167 115.5 168 118.5 158 154Z"
				/>
				<g>
					<clipPath id="A">
						<path
							d="M158 154c-10 35.5 7.2 131.4 21.8 149.4 14.6 18 52.2 47.7 62.5 51.3 10.3 3.7 17.9-.3 24.7-2 6.9-1.6 43.8-24.8 59.3-46.9 15.5-22 14-26.5 19.6-41.7 5.7-15.2 34.7-89 15.8-135.2-18.9-46.2-42.9-65-85-68.7-42-3.7-64.7 12.5-87.1 33.9C167 115.5 168 118.5 158 154Z"
						/>
					</clipPath>
					<g fill-rule="nonzero" clip-path="url(#A)">
						<path
							fill="#f4b9b0"
							fill-opacity=".5"
							d="M155 276.7c1.7-15.4 17.3-26.2 34.6-24.1 17.4 2 30 16 28.2 31.4-1.8 15.3-17.3 26.1-34.7 24.1-17.3-2-30-16.1-28.2-31.4Z"
						/>
						<path
							fill="#f4b9b0"
							fill-opacity=".5"
							d="M297.8 287.5c-3.7-15 7-30.6 23.9-34.8 17-4.3 33.8 4.3 37.6 19.3 3.8 15-7 30.6-23.9 34.9-17 4.2-33.8-4.4-37.6-19.4Z"
						/>
						<path
							fill="#edbaa9"
							d="M328 246a2.4 2.4 0 1 1 4.8.6 2.4 2.4 0 0 1-4.9-.5Z"
						/>
						<path
							fill="#edbaa9"
							d="M239.6 289.6a2.4 2.4 0 1 1 4.9.5 2.4 2.4 0 0 1-4.9-.5Z"
						/>
					</g>
				</g>
				<g>
					<path
						fill="#f8d1bb"
						fill-rule="nonzero"
						d="M257.8 225.6c-1.6 0-3.2 1.3-4.9 4a344.6 344.6 0 0 0-7.3 43.7c.4 2.3 4.4 6.1 12.2 11.4 7.8-5.7 11.9-9.5 12.2-11.4.3-1.9-2-16.5-7.2-43.8-1.7-2.6-3.3-4-5-4Z"
					/>
					<path
						fill="none"
						stroke="#909090"
						stroke-width="2"
						d="M262.8 277a5.2 5.2 0 0 0 7.1 2.1c2.5-1.4 3.2-4.7 1.7-7.3a5.7 5.7 0 0 0-3.7-2.8"
					/>
				</g>
				<g>
					<g>
						<path
							fill="#f4ceba"
							fill-rule="nonzero"
							d="M256 296.2a107 107 0 0 0-24 4 42.7 42.7 0 0 0 24 7.9c8.7.1 16.7-2.5 24-7.9a107 107 0 0 0-24-4Z"
						/>
						<g>
							<clipPath id="B">
								<path
									d="M256 296.2a107 107 0 0 0-24 4 42.7 42.7 0 0 0 24 7.9c8.7.1 16.7-2.5 24-7.9a107 107 0 0 0-24-4Z"
								/>
							</clipPath>
							<g clip-path="url(#B)">
								<path
									fill="#f3c5ad"
									d="M229.3 300h53.5v9.7h-53.5z"
								/>
							</g>
						</g>
					</g>

					<g class="open-mouth">
						<path
							d="M256,296.189C261.725,296.189 269.725,297.523 280,300.189C272.743,305.546 263.757,314.054 255.014,313.917C246.272,313.78 239.257,305.273 232,300.189C242.275,297.523 250.275,296.189 256,296.189Z"
							style="
								fill: #f4ceba;
								fill-opacity: 0.8;
								fill-rule: nonzero;
							"
						/>
						<path
							d="M256.138,301.202C261.864,301.202 269.959,300.488 279.996,300.191C272.739,305.722 263.918,307.688 255.175,307.547C246.433,307.405 232.01,300.193 232.01,300.193C232.01,300.193 250.413,301.202 256.138,301.202Z"
							style="
								fill: #cc9898;
								fill-opacity: 0.3;
								fill-rule: nonzero;
							"
						/>
						<path
							d="M255.229,307.58C260.954,307.58 270.681,303.419 280,300.189C272.743,305.546 264.282,314.431 255.539,314.295C246.796,314.158 239.257,305.273 232,300.189C242.219,301.651 249.504,307.58 255.229,307.58Z"
							style="fill: #f4ceba; fill-rule: nonzero"
						/>
					</g>
				</g>
				<g>
					<g>
						<path
							fill="#fff"
							fill-opacity=".8"
							fill-rule="nonzero"
							d="M228.2 215.2c4.8 6.9 7 14.8 6.7 23.8-4.5 3-11.6 5.4-14.2 6a54.7 54.7 0 0 1-39.9-11.6 54 54 0 0 1 8.2-20.1c7-9.2 15.7-11.2 18.7-11.2s15.7 3.3 20.5 13Z"
						/>
						<g>
							<clipPath id="C">
								<path
									class="eyelid"
									d="M228.2 215.2c4.8 6.9 7 14.8 6.7 23.8-4.5 3-11.6 5.4-14.2 6a54.7 54.7 0 0 1-39.9-11.6 54 54 0 0 1 8.2-20.1c7-9.2 15.7-11.2 18.7-11.2s15.7 3.3 20.5 13Z"
								/>
							</clipPath>
							<g clip-path="url(#C)">
								<g class="pupil">
									<path
										fill="#566"
										fill-rule="nonzero"
										d="M190.6 224.2c0-12 8-21.8 18-21.9 10.1 0 18.3 9.7 18.3 21.8 0 12-8 21.8-18 21.9-10.1 0-18.3-9.7-18.3-21.8Z"
									/>
									<g>
										<clipPath id="D">
											<path
												d="M190.6 224.2c0-12 8-21.8 18-21.9 10.1 0 18.3 9.7 18.3 21.8 0 12-8 21.8-18 21.9-10.1 0-18.3-9.7-18.3-21.8Z"
											/>
										</clipPath>
										<g clip-path="url(#D)">
											<path
												fill="#58a2a2"
												d="m238 223.2-50.3.2v25.3l50.4-.1v-25.4Z"
											/>
										</g>
									</g>
									<path
										fill="none"
										stroke="#fff"
										stroke-linecap="square"
										stroke-linejoin="miter"
										stroke-opacity=".8"
										stroke-width="3"
										d="M199.2 224.2c0-6.3 4.3-11.5 9.5-11.5 5.3 0 9.5 5.1 9.6 11.4 0 6.3-4.3 11.4-9.5 11.5-5.3 0-9.5-5.1-9.6-11.4Z"
									/>
									<path
										fill="#423f3d"
										fill-rule="nonzero"
										d="M199.2 224.2c0-6.3 4.3-11.5 9.5-11.5 5.3 0 9.5 5.1 9.6 11.4 0 6.3-4.3 11.4-9.5 11.5-5.3 0-9.5-5.1-9.6-11.4Z"
									/>
								</g>
							</g>
						</g>
						<path
							fill="#fff"
							fill-opacity=".8"
							fill-rule="nonzero"
							d="M292.3 214.3c-5 6.7-7.5 14.6-7.5 23.6a50.7 50.7 0 0 0 14 6.4A54.7 54.7 0 0 0 339 234a53.1 53.1 0 0 0-7.6-20.4c-6.6-9.4-15.3-11.7-18.2-11.7-3 0-16 2.8-21 12.4Z"
						/>
						<g>
							<clipPath id="E">
								<path
									class="eyelid"
									d="M292.3 214.3c-5 6.7-7.5 14.6-7.5 23.6a50.7 50.7 0 0 0 14 6.4A54.7 54.7 0 0 0 339 234a53.1 53.1 0 0 0-7.6-20.4c-6.6-9.4-15.3-11.7-18.2-11.7-3 0-16 2.8-21 12.4Z"
								/>
							</clipPath>
							<g clip-path="url(#E)">
								<g class="pupil">
									<path
										fill="#566"
										fill-rule="nonzero"
										d="M329.6 223.9c0-12-8.2-21.9-18.2-21.9s-18.2 9.8-18.2 21.8 8.1 21.9 18.2 21.9c10 0 18.1-9.8 18.2-21.8Z"
									/>
									<g>
										<clipPath id="F">
											<path
												d="M329.6 223.9c0-12-8.2-21.9-18.2-21.9s-18.2 9.8-18.2 21.8 8.1 21.9 18.2 21.9c10 0 18.1-9.8 18.2-21.8Z"
											/>
										</clipPath>
										<g clip-path="url(#F)">
											<path
												fill="#58a2a2"
												d="m332.3 223-50.3-.1v25.4h50.3V223Z"
											/>
										</g>
									</g>
									<path
										fill="none"
										stroke="#fff"
										stroke-linecap="square"
										stroke-linejoin="miter"
										stroke-opacity=".8"
										stroke-width="3"
										d="M320.9 223.8c0-6.3-4.3-11.4-9.5-11.4-5.3 0-9.5 5.1-9.5 11.4 0 6.3 4.2 11.5 9.5 11.5 5.2 0 9.5-5.1 9.5-11.5Z"
									/>
									<path
										fill="#423f3d"
										fill-rule="nonzero"
										d="M320.9 223.8c0-6.3-4.3-11.4-9.5-11.4-5.3 0-9.5 5.1-9.5 11.4 0 6.3 4.2 11.5 9.5 11.5 5.2 0 9.5-5.1 9.5-11.5Z"
									/>
								</g>
							</g>
						</g>
					</g>
				</g>
				<g class="eyebrow" fill="#178e98" fill-rule="nonzero">
					<path
						d="m310.6 188.7-31.7-1.2c12.7-7.5 23-11.2 30.7-11.1 7.8 0 18.7 4.6 32.7 13.6l-31.7-1.3Z"
					/>
					<path
						d="m206.9 188.8 31.6-2c-12.8-7.2-23-10.6-30.9-10.4-7.8.3-18.6 5-32.3 14.4l31.6-2Z"
					/>
				</g>
				<g>
					<g>
						<path
							fill="#269ca7"
							d="M244.7 93s-25.6 39.3-26 55.2c-.7 31.9 10.7 44.2 11.3 45 .7 1-4.9-3.7-8.1-7-3.2-3.5-16.4-38-8.2-60.9C222 102.4 242.2 85 242.2 85l2.5 8Z"
						/>
						<path
							fill="#269ca7"
							d="M275 93s25.7 39.3 26 55.2c.8 31.9-10.6 44.2-11.3 45-.6 1 5-3.7 8.2-7 3.2-3.5 16.4-38 8.2-60.9-8.3-22.9-28.5-40.4-28.5-40.4l-2.5 8Z"
						/>
						<path
							fill="#269ca7"
							d="M301 73.8s28.7 37 30.4 53c3.3 31.6-7 44.9-7.6 45.8-.6.9 4.6-4.1 7.6-7.8 2.9-3.7 13.2-39.1 3-61.3-10-22.2-31.6-37.9-31.6-37.9l-1.9 8.2Z"
						/>
						<path
							fill="#269ca7"
							d="M219.2 71s-28 37.7-29.4 53.6c-2.8 31.7 7.8 44.8 8.4 45.7.6.8-4.7-4-7.7-7.7-3-3.6-14-38.8-4.3-61.2 9.7-22.3 31-38.5 31-38.5l2 8.2Z"
						/>
						<path
							fill="#25959f"
							d="M152.8 165s3.3 53.1 7.4 68.5c8.2 30.8-.8 45-.4 46.5.3 1 4-4.8 6.2-8.9a54 54 0 0 0 6.7-18c1-13.5-14.8-59.6-12.7-75.5 4.4-33.3-6.6-21-6.6-21l-.6 8.4Z"
						/>
						<path
							fill="#25959f"
							d="M366 174.2c.7-1.3-3.7 57.3-8.3 73.6-8.6 30.6.9 45 .4 46.4-.3 1-4-4.8-6.2-8.8a54 54 0 0 1-6.7-18c-1-13.6 14.8-49.6 12.7-65.6-2.5-19 1.6-27.3.8-32.4-.8-6 6.8-3.6 6.8-3.6l.5 8.4Z"
						/>
						<path
							fill="#269ca7"
							d="M357.2 123.6c2.2-5.3 15.1-14 8.6 0l-4.1 9c-12.9 29.1-7 44.9-6.8 46a58 58 0 0 1-4.8-9.8c-1.3-3.4-1-26.6 7-45.2Z"
						/>
						<path
							fill="#269ca7"
							d="M164.4 135.8c-5.5-10.3-5.3 2.7-2.8 6.6 11.1 17.1 10.6 28.4 10.6 29.3 0 1 1.4-6 1.7-10.7.1-2.5-3.2-13.6-9.5-25.2Z"
						/>
					</g>
					<g fill="#25959f">
						<path
							d="M109.2 99.9s33-20.7 45.1-13c12.2 7.7 10.9 11.7 10.9 11.7l-1.7 4.3s-8-11.1-16.3-11.2c-8.3-.2-38 8.2-38 8.2Z"
						/>
						<path
							d="M357 40.8s-38.9 1.7-44.5 15c-5.7 13.2-2.3 15.7-2.3 15.7l3.8 2.7s.2-13.7 7-18.6c6.8-4.8 36-14.8 36-14.8Z"
						/>
					</g>
					<path
						fill="#25959f"
						d="M155.8 201.6a145 145 0 0 1-10.3-44.7C145.5 94 197.7 43 262 43s116.5 51 116.5 113.9c0 15.5-8.5 31-14.3 44.5C362.7 143.2 320 95.8 261 95.8c-57.4 0-101.3 49.7-105 105.8Z"
					/>
					<clipPath id="G">
						<path
							d="M155.8 201.6a145 145 0 0 1-10.3-44.7C145.5 94 197.7 43 262 43s116.5 51 116.5 113.9c0 15.5-8.5 31-14.3 44.5C362.7 143.2 320 95.8 261 95.8c-57.4 0-101.3 49.7-105 105.8Z"
						/>
					</clipPath>
					<g clip-path="url(#G)">
						<path
							fill="#1c8b95"
							d="M324 58.3s4.8 20.7 6 34.2c1.2 13.7-3.3 28.2-1.8 28.2 2.6 0 8.7-13.6 11.2-27 2.2-11.9.9-23.6.9-23.6L324 58.3Z"
						/>
						<path
							fill="#14919d"
							d="M328.6 23.4s27.4 63 27.8 88.5c.4 25.5 2.3 58 2.3 58s4.3-19.3 4.7-22.4c.5-3.1 1.2-56.6-5.7-71.5-6.8-15-20.2-50.4-20.2-50.4l-9-2.2Z"
						/>
						<path
							fill="#33a2ac"
							d="M351.7 52.7s21.9 65.1 20.1 90.5a1811 1811 0 0 0-2.7 58s6-18.8 6.7-21.9c.6-3 6-56.3.4-71.7-5.5-15.5-15.8-52-15.8-52l-8.7-2.9Z"
						/>
						<path
							fill="#2ca0aa"
							d="M341.2 68.5s10.1 31.2 9.1 43.3c-1 12.2-1.5 27.7-1.5 27.7s3-9 3.3-10.4c.3-1.5 3.1-26.9.5-34.3-2.5-7.4-7.3-24.9-7.3-24.9l-4.1-1.4Z"
						/>
						<path
							fill="#268a93"
							d="M343.2 53.4s3.6 32.7.2 44.3c-3.4 11.7-7.2 26.8-7.2 26.8l5.4-9.5c.6-1.4 8.5-25.7 7.5-33.5-1-7.7-2.1-25.8-2.1-25.8l-3.8-2.3Z"
						/>
						<path
							fill="#14919d"
							d="M279.8 13.7s32.5 37.2 35 53.7c2.6 16.4 7.2 37.2 7.2 37.2s2.7-13 2.8-15c.2-2.1-3.6-36.9-11.6-45.7-8-8.7-24.3-30-24.3-30l-9-.2Z"
						/>
						<path
							fill="#2ca0aa"
							d="M296.1 41.2s12.7 19 12.8 27c0 8 .7 18 .7 18s2.2-6.1 2.4-7.1c.2-1 .9-17.8-2.3-22.3a263 263 0 0 1-9.3-15.2l-4.3-.4Z"
						/>
						<path
							fill="#268a93"
							d="M296.9 31.2s6.3 20.7 3.9 28.7-4.9 18.3-4.9 18.3l4.5-6.9c.5-1 6.3-17.7 4.7-22.6a239 239 0 0 1-4.3-16.5l-4-1Z"
						/>
						<path
							fill="#14919d"
							d="M231.8 23.7s-32.4 37.2-35 53.7a774.7 774.7 0 0 1-7.1 37.2s-2.7-13-2.9-15c-.1-2.1 3.6-36.9 11.7-45.7 8-8.7 24.3-30 24.3-30l9-.2Z"
						/>
						<path
							fill="#2ca0aa"
							d="M215.6 51.2s-12.7 19-12.8 27c0 8-.7 18-.7 18s-2.2-6.1-2.4-7.1c-.3-1-.9-17.8 2.3-22.3a263 263 0 0 0 9.3-15.2l4.3-.4Z"
						/>
						<path
							fill="#268a93"
							d="M214.8 41.2s-6.3 20.7-4 28.7c2.5 8 5 18.3 5 18.3l-4.5-6.9c-.6-1-6.4-17.7-4.7-22.6 1.7-5 4.3-16.5 4.3-16.5l3.9-1Z"
						/>
						<path
							fill="#14919d"
							d="M277.8 16.7s-32.4 37.2-35 53.7a774.7 774.7 0 0 1-7.1 37.2s-2.7-13-2.9-15c-.1-2.1 3.6-36.9 11.7-45.7 8-8.7 24.3-30 24.3-30l9-.2Z"
						/>
						<path
							fill="#2ca0aa"
							d="M261.6 44.2s-12.7 19-12.8 27c0 8-.7 18-.7 18s-2.2-6.1-2.4-7.1c-.3-1-.9-17.8 2.3-22.3a263 263 0 0 0 9.3-15.2l4.3-.4Z"
						/>
						<path
							fill="#268a93"
							d="M260.8 34.2s-6.3 20.7-4 28.7c2.5 8 3.1 23.8 3.1 23.8s-2.1-11.4-2.6-12.4c-.6-1-6.4-17.7-4.7-22.6 1.7-5 4.3-16.5 4.3-16.5l3.9-1Z"
						/>
						<path
							fill="#14919d"
							d="M242.8 16.7s32.5 37.2 35 53.7c2.6 16.4 7.2 37.2 7.2 37.2s2.7-13 2.8-15c.2-2.1-3.6-36.9-11.6-45.7-8-8.7-24.3-30-24.3-30l-9-.2Z"
						/>
						<path
							fill="#2ca0aa"
							d="M259.1 44.2s12.7 19 12.8 27c0 8 .7 18 .7 18s2.2-6.1 2.4-7.1c.2-1 .9-17.8-2.3-22.3a263 263 0 0 1-9.3-15.2l-4.3-.4Z"
						/>
						<path
							fill="#268a93"
							d="M259.9 34.2s6.3 20.7 3.9 28.7-4 24-4 24 3.1-11.6 3.6-12.6 6.3-17.7 4.7-22.6a239 239 0 0 1-4.3-16.5l-4-1Z"
						/>
						<path
							fill="#1c8b95"
							d="M183.2 71.6s-1.4 21.2-.4 34.7c1 13.8 7.8 27.3 6.3 27.6-2.5.5-10.8-12-15.4-25-4-11.3-4.7-23-4.7-23l14.2-14.3Z"
						/>
						<path
							fill="#1c8b95"
							d="M239.2 38.9s-7.7 19.7-10.8 33c-3.1 13.4-.7 28.3-2.2 28.2-2.5-.4-6.7-14.8-7.2-28.4-.5-12 2.4-23.5 2.4-23.5l17.8-9.3Z"
						/>
						<path
							fill="#1c8b95"
							d="M274.9 37.9s7.7 19.7 10.8 33c3.1 13.4.7 28.3 2.2 28.2 2.5-.4 6.7-14.8 7.2-28.4.5-12-2.4-23.5-2.4-23.5L275 37.9Z"
						/>
						<path
							fill="#14919d"
							d="M173 38s-16.8 66.5-13.1 91.7c3.7 25.2 7.1 57.6 7.1 57.6s-7.4-18.3-8.3-21.3c-1-3-10.3-55.7-6-71.5 4.4-15.9 11.9-53 11.9-53l8.5-3.6Z"
						/>
						<path
							fill="#2ca0aa"
							d="M168 84.4s-5 32.4-2.1 44.3c2.9 11.8 6 27 6 27s-4.4-8.3-5-9.7c-.5-1.4-7.4-26-6-33.7 1.3-7.8 3.1-25.8 3.1-25.8l4-2Z"
						/>
						<path
							fill="#268a93"
							d="M163.5 70s1.7 32.7 7 43.7c5.2 11 11.4 25.2 11.4 25.2s-6-7.2-6.9-8.5c-.8-1.2-12.5-24-12.8-31.8-.3-7.8-2.1-25.9-2.1-25.9l3.4-2.8Z"
						/>
					</g>
				</g>
				<g>
					<path
						fill="#622898"
						d="M163.6 375s-19-2.6-24.9 9.1c-5.9 11.8 9.6 45.4 18 47.3 8.5 2 73.5 36.4 77.8 45.6 4.3 9.2 42.9 12.2 59.5 1.1s41-35.3 54.6-37.3c13.5-1.9 15-46.3 2-51.8-12.8-5.6-37.6-6.5-37.6-6.5l-63.8 19.7-85.6-27.2Z"
					/>
					<clipPath id="H">
						<path
							d="M163.6 375s-19-2.6-24.9 9.1c-5.9 11.8 9.6 45.4 18 47.3 8.5 2 73.5 36.4 77.8 45.6 4.3 9.2 42.9 12.2 59.5 1.1s41-35.3 54.6-37.3c13.5-1.9 15-46.3 2-51.8-12.8-5.6-37.6-6.5-37.6-6.5l-63.8 19.7-85.6-27.2Z"
						/>
					</clipPath>
					<g clip-path="url(#H)">
						<path
							fill="#541d7a"
							d="M152.5 428.8s33.3 18 39.6 8.6c2.9-4.2-9.7-33-9.7-33l75.4 45.4 66.2-57.4 36.1-27.7 26.2 58.9-18.9 42.7s-76.4 35-111 28c-34.6-7-103.9-65.5-103.9-65.5Z"
						/>
						<path
							fill="#471769"
							d="m277.7 447.8 54-76s18.3 2.5 20.5 20.7c2.3 18.2-20.1 43.9-44 49.7-24 5.8-30.5 5.6-30.5 5.6Z"
						/>
					</g>
					<path
						fill="#5c2d88"
						d="M197.6 328.8s-45.6 8.2-46.5 38.8c-.8 30.6 84.5 109.8 104.4 107.6 19.9-2.2 110-66.2 93.4-95.2-16.6-29-48.8-44.5-48.8-44.5 10 14.3 9.1 21 8.4 30-3.7 44.4-112.8 12.6-105.2-20 4.5-19.8 5.3-17.6-5.7-16.7Z"
					/>
					<clipPath id="I">
						<path
							d="M197.6 328.8s-45.6 8.2-46.5 38.8c-.8 30.6 84.5 109.8 104.4 107.6 19.9-2.2 110-66.2 93.4-95.2-16.6-29-48.8-44.5-48.8-44.5 10 14.3 9.1 21 8.4 30-3.7 44.4-112.8 12.6-105.2-20 4.5-19.8 5.3-17.6-5.7-16.7Z"
						/>
					</clipPath>
					<g clip-path="url(#I)">
						<path
							fill="#663098"
							d="M228.9 426.7c.6 2.5 27.6 19.2 39.8 19.4 28.9.6 39.6-23.3 43.7-21.5 4.2 1.8-18.5 38.3-56.7 36.5-38.3-1.8-90.8-59-90.8-59l49.6 66.9 82.3 21.5 70.8-107-42.7-51-62.6-5-21.2 58.7c-2.9 4.5 34.4 35 50 24.4 12-8.2-13.6 19.4-26 20.2-12.2.8-36.8-6.7-36.2-4.1Z"
						/>
						<path
							fill="#501873"
							d="M229.4 430s20.2 15.3 38.7 15.1c18.5-.1 39-18.5 39-18.5s-26.9 12.3-40.6 11.2a245 245 0 0 1-37-7.9Z"
						/>
						<path
							fill="#501873"
							d="M204.8 333.6s-20.6 12.3-14.5 21.9c6 9.6 29.7 31 29.7 31s-37-20.8-40.3-36.6c-3.4-15.9 25.1-16.3 25.1-16.3Z"
						/>
					</g>
				</g>
			</g>
			<g class="dialog-5">
				<path
					fill="#171717"
					fill-rule="nonzero"
					d="M543.5 443c-2 0-2.7-.7-2.4-2.4 1.7-2.4 3-4.8 3.7-7.1 1-3.5 1.1-56 1.8-70 0-5.2 2.5-8 7.5-8.3h349.5c4.7.6 7.2 3.3 7.4 8.3v70c-1 5.5-3.5 8.7-7.4 9.5h-360Z"
				/>
				<g fill="#e8e8e8" font-family="monospace" font-size="16">
					<text x="565" y="381.2">
						If you want to learn more about me,
					</text>
					<text x="565" y="404.6">
						I'm @rightonhana everywhere, or
					</text>
					<text x="565" y="428">
						you can go to  rightonhana.dev
					</text>
				</g>
			</g>
			<g class="dialog-4">
				<path
					fill="#171717"
					fill-rule="nonzero"
					d="M543.1 443c-1.6 0-2.3-.6-2-2 1.4-2 2.5-4 3-6 1-3 1-18.3 1.7-30 0-4.5 2-6.8 6.2-7h271.7c4 .4 6.1 2.8 6.3 7v30c-.9 4.7-3 7.3-6.3 8H543.1Z"
				/>
				<g>
					<text
						x="559.4"
						y="426.8"
						fill="#e8e8e8"
						font-family="monospace"
						font-size="16"
					>
						My pronouns are She/Her 
					</text>
				</g>
			</g>
			<g class="dialog-3">
				<path
					fill="#171717"
					fill-rule="nonzero"
					d="M543.5 443c-2 0-2.7-.7-2.4-2.4 1.7-2.4 3-4.8 3.7-7.1 1-3.5 1.1-56 1.8-70 0-5.2 2.5-8 7.5-8.3h349.5c4.7.6 7.2 3.3 7.4 8.3v70c-1 5.5-3.5 8.7-7.4 9.5h-360Z"
				/>
				<g fill="#e8e8e8" font-family="monospace" font-size="16">
					<text x="565" y="381.2">
						I'm a Front-end Developer with
					</text>
					<text x="565" y="404.6">
						experience in Angular, React and
					</text>
					<text x="565" y="428">Svelte.</text>
				</g>
			</g>
			<g class="dialog-2">
				<path
					fill="#171717"
					fill-rule="nonzero"
					d="M543.7 443.2c-2 0-3-.6-2.6-2 1.9-2.1 3.2-4.1 4-6 1.1-3 1.2-39.5 2-51.2 0-4.4 2.7-6.8 8-7H903c5.1.4 7.8 2.8 8 7v51.1c-1.1 4.7-3.8 7.4-8 8H543.7Z"
				/>
				<g fill="#e8e8e8" font-family="monospace" font-size="16">
					<text x="561.1" y="405.1">
						I'm born and raised in Argentina 
					</text>
					<text x="561.1" y="428.6">
						now living in Chicago, Illinois 
					</text>
				</g>
			</g>
			<g class="dialog-1">
				<path
					fill="#171717"
					fill-rule="nonzero"
					d="M543.3 443c-1.8 0-2.5-.6-2.2-2 1.6-2 2.7-4 3.3-6 1-3 1-18.3 1.7-30 0-4.5 2.2-6.8 6.7-7h343.5c4.3.4 6.5 2.8 6.7 7v30c-1 4.7-3.2 7.3-6.7 8h-353Z"
				/>
				<g>
					<text
						x="559"
						y="427"
						fill="#e8e8e8"
						font-family="monospace"
						font-size="16"
					>
						Hi there  I'm Florencia Gonzalez
					</text>
				</g>
			</g>
		</g>
	</g>
</svg>
