<svg class="avatar"
	xmlns="http://www.w3.org/2000/svg"
	xmlns:xlink="http://www.w3.org/1999/xlink" style="isolation:isolate" viewBox="0 0 1024 512" width="1024pt" height="512pt">
	<style>
		.avatar {
			transform: rotate(180deg);
		}

		.glasses {
			animation: fall 2s;
			animation-delay: 5s;
			animation-fill-mode: forwards;
		}

		@keyframes fall {
			0% {
				transform: translateY(0%);
			}
			100% {
				transform: translateY(-100%);
			}	
		}

		.dialog-1 {
			animation: bugged 2s linear infinite;
			animation-delay: 7s;
		}

		.dialog-1 {
			opacity: 0;
			animation: greet 7s both;
		}

		.dialog-2 {
			opacity: 0;
			animation: from 7s both;
		}

		.dialog-3 {
			opacity: 0;
			animation: profession 7s both;
		}

		.dialog-4 {
			opacity: 0;
			animation: pronouns 7s both;
		}

		.dialog-5 {
			opacity: 0;
			animation: contact 7s both;
		}

		.eyelid {
			animation: eye 3s ease-in-out infinite;
			transform-origin: center;
		}
		
		.pupil {
			animation: pupil 15s ease-out infinite;
			transform-origin: center;
		}

		.eyebrow {
			animation: eyebrow 3s ease-in-out infinite;
			transform-origin: center;
		}

		.mouth {
			animation: mouth 15s ease infinite;
			transform-origin: center;
		}

		.dot {
			animation: dot 15s ease infinite;
			transform-origin: center;
		}

		.cheeks:first-child {
			animation: cheeks1 15s ease infinite;
			transform-origin: center;
		}

		.cheeks:nth-child(2), .cheeks:nth-child(3) {
			animation: cheeks2 15s ease infinite;
			transform-origin: center;
		}
		
		.body {
			animation: body 3s ease-in-out infinite;
			transform-origin: 25% 100%;
		}

		@keyframes greet {
			0% {
				opacity: 0;
				transform: translate(0, 0);
			}
			20% {
				opacity: 1;
				transform: translate(0, 0);
			}
			40% {
				opacity: 1;
				transform: translate(5, -78px);
			}
			60% {
				opacity: 1;
				transform: translate(0, -180px);
			}
			80% {
				opacity: 1;
				transform: translate(-5, -234px);
			}
			100%{
				opacity: 1;
				transform: translate(1, -333px);
			}
		}

		@keyframes from {
			0%, 20% {
				opacity: 0;
				transform: translate(0, 0);
			}
			40% {
				opacity: 1;
				transform: translate(0, 0);
			}
			60% {
				opacity: 1;
				transform: translate(0, -100px);
			}
			80%{
				opacity: 1;
				transform: translate(30px, -155px);
			}
			100%{
				opacity: 1;
				transform: translate(35px, -252px);
			}
		}

		@keyframes profession {
			0%, 40% {
				opacity: 0;
				transform: translate(0, 0);
			}
			60% {
				opacity: 1;
				transform: translate(0, 0);
			}
			80%{
				opacity: 1;
				transform: translate(-120px, -56px);
			}
			100%{
				opacity: 1;
				transform: translate(-10px, -155px);
			}
		}

		@keyframes pronouns {
			0%, 60% {
				opacity: 0;
				transform: translate(0, 0);
			}
			80% {
				opacity: 1;
				transform: translate(0, 0);
			}
			100%{
				opacity: 1;
				transform: translate(4px, -99px);
			}
		}

		@keyframes contact {
			0%, 80% {
				opacity: 0;
				transform: translate(0, 0);
			}
			100%{
				opacity: 1;
				transform: translate(-3px, -350px);
			}
		}
		
		@keyframes eye {
			5%, 20% {
				transform: scale(1, 1);
				stroke-width: 2px;
			}
			10%, 15% {
				transform: scale(1, 0);
				stroke-width: 20px;
			}
		}

		@keyframes pupil {
			5%, 20% {
				transform: translate(5px, -1px);
			}
			10%, 15% {
				transform: translate(-5px, 1px);
			}
			20%, 100% {
				transform: translate(0, 0);
			}
		}

		@keyframes eyebrow {
			0%, 9% {
				transform: translate(0, 0);
			}
			10%, 15% {
				transform: translate(0, 0.5px);
			}
			16%, 100% {
				transform: translate(0, 0);
			}
		}

		@keyframes mouth {
			0%, 4% {
				transform: scale(1, 1);
			}
			5%, 20% {
				transform-origin: 250px 280px;
				transform: scale(1.1 , 0.95);
			}
			21%, 100% {
				transform: scale(1, 1);
			}
		}

		@keyframes dot {
			0%, 4% {
				transform: translate(0, 0);
			}
			5%, 20% {
				transform: translate(0, -3px);
			}
			21%, 100% {
				transform: translate(0, 0);
			}
		}

		@keyframes cheeks1 {
			0%, 4% {
				transform: translate(0, 0);
			}
			5%, 20% {
				transform: translate(-2px, 0);
			}
			21%, 100% {
				transform: translate(0, 0);
			}
		}
		
		@keyframes cheeks2 {
			0%, 4% {
				transform: translate(0, 0);
			}
			5%, 20% {
				transform: translate(2px, 0);
			}
			21%, 100% {
				transform: translate(0, 0);
			}
		}

		@keyframes body {
			0%, 100% {
				transform: rotate(1deg);
			}
			50% {
				transform: rotate(-1deg);
			}
		}
	</style>
	<defs>
		<clipPath id="_clipPath_uSaH7GvzYbWeM4qHwkmFMFjBW04XGMZb">
			<rect width="1024" height="512"/>
		</clipPath>
	</defs>
	<g clip-path="url(#_clipPath_uSaH7GvzYbWeM4qHwkmFMFjBW04XGMZb)">
		<g class="body" transform="matrix(-1,7.65714e-16,7.65714e-16,1,515.118,1.44367)">
			<g transform="matrix(1,0,0,-1,515.118,-1.44367)">
				<path d="M-126.518,-471.91C-118.185,-463.975 -88.785,-474.694 -83.38,-461.608C-78.43,-449.623 -59.172,-435.988 -57.062,-420.524C-46.531,-343.347 -81.929,-225.559 -80.093,-179.288C-78.771,-145.997 -68.477,-66.335 -95.555,-36.757C-122.634,-7.179 -198.647,-6.618 -242.565,-1.82C-281.224,2.402 -326.517,2.966 -359.067,-7.974C-390.264,-18.459 -421.361,-45.236 -437.87,-67.46C-453.093,-87.952 -456.445,-115.844 -458.122,-141.316C-461.199,-188.081 -455.024,-301.527 -456.336,-348.051C-457.023,-372.391 -468.459,-401.248 -465.996,-420.46C-463.904,-436.774 -451.37,-454.496 -441.555,-463.325C-432.658,-471.328 -418.664,-476.535 -407.106,-473.432C-395.455,-470.305 -342.758,-325.431 -261.149,-329.879C-167.072,-335.006 -134.648,-479.651 -126.518,-471.91Z" style="fill:#2e2e2e;"/>
				<clipPath id="_clip2">
					<path d="M-126.518,-471.91C-118.185,-463.975 -88.785,-474.694 -83.38,-461.608C-78.43,-449.623 -59.172,-435.988 -57.062,-420.524C-46.531,-343.347 -81.929,-225.559 -80.093,-179.288C-78.771,-145.997 -68.477,-66.335 -95.555,-36.757C-122.634,-7.179 -198.647,-6.618 -242.565,-1.82C-281.224,2.402 -326.517,2.966 -359.067,-7.974C-390.264,-18.459 -421.361,-45.236 -437.87,-67.46C-453.093,-87.952 -456.445,-115.844 -458.122,-141.316C-461.199,-188.081 -455.024,-301.527 -456.336,-348.051C-457.023,-372.391 -468.459,-401.248 -465.996,-420.46C-463.904,-436.774 -451.37,-454.496 -441.555,-463.325C-432.658,-471.328 -418.664,-476.535 -407.106,-473.432C-395.455,-470.305 -342.758,-325.431 -261.149,-329.879C-167.072,-335.006 -134.648,-479.651 -126.518,-471.91Z"/>
				</clipPath>
				<g clip-path="url(#_clip2)">
					<path d="M-358.99,-394.367C-380.725,-383.184 -332.138,-344.37 -307.625,-335.807C-281.391,-326.642 -223.317,-328.194 -201.582,-339.377C-181.415,-349.752 -155.806,-395.422 -177.216,-402.902C-203.451,-412.067 -337.255,-405.55 -358.99,-394.367Z" style="fill:#272727;"/>
				</g>
			</g>
			<g transform="matrix(-1,7.65714e-16,7.65714e-16,1,513.152,-5.50992)">
				<path d="M323.475,304C383.509,255.175 396.842,210.208 395.475,169.099C394.108,127.989 396.108,79.322 401.475,23.099C390.974,14.486 398.149,10.12 391,10C380.276,9.82 376.105,8.159 369,15C364.263,19.561 362.93,33.227 365,56C365,56 364.079,11.17 360.09,7C355.844,2.561 327.039,12.273 320.454,6C313.706,-0.429 287.85,5.121 284,10C281.832,12.748 275.475,45 275.475,45C275.475,45 282.405,3.699 280,2C276.947,-0.157 254.979,4.005 249,6C239.424,9.194 239.434,14.799 236,15C232.566,15.201 196.612,2.497 188,6C183,8.034 182,29 182,29L175,15C167.583,8.596 161.328,5.596 156.237,6C151.146,6.404 137.516,8.855 132.827,12.183C129.05,14.864 130.872,50.431 128.437,62.744C116.988,120.625 117.658,159.127 121.475,186.099C127.583,229.255 161.028,276.735 183,297C197.648,310.51 239.14,317.51 323.475,304Z" style="fill:#5e4038;fill-rule:nonzero;"/>
				<clipPath id="_clip3">
					<path d="M323.475,304C383.509,255.175 396.842,210.208 395.475,169.099C394.108,127.989 396.108,79.322 401.475,23.099C390.974,14.486 398.149,10.12 391,10C380.276,9.82 376.105,8.159 369,15C364.263,19.561 362.93,33.227 365,56C365,56 364.079,11.17 360.09,7C355.844,2.561 327.039,12.273 320.454,6C313.706,-0.429 287.85,5.121 284,10C281.832,12.748 275.475,45 275.475,45C275.475,45 282.405,3.699 280,2C276.947,-0.157 254.979,4.005 249,6C239.424,9.194 239.434,14.799 236,15C232.566,15.201 196.612,2.497 188,6C183,8.034 182,29 182,29L175,15C167.583,8.596 161.328,5.596 156.237,6C151.146,6.404 137.516,8.855 132.827,12.183C129.05,14.864 130.872,50.431 128.437,62.744C116.988,120.625 117.658,159.127 121.475,186.099C127.583,229.255 161.028,276.735 183,297C197.648,310.51 239.14,317.51 323.475,304Z" clip-rule="nonzero"/>
				</clipPath>
				<g clip-path="url(#_clip3)">
					<g transform="matrix(0.841675,5.32495e-17,5.32495e-17,1.10905,19.7075,-23.0195)">
						<path d="M124.475,201.099C131.392,78.939 140.392,15.939 151.475,12.099C162.558,8.259 171.224,8.259 177.475,12.099L177.475,211.099L124.475,201.099Z" style="fill:#462f28;fill-rule:nonzero;"/>
					</g>
					<g transform="matrix(0.55882,8.78654e-17,8.78654e-17,1,126.387,-11)">
						<path d="M200.475,201.099L205.475,-2.901L286.475,12.099L254.475,201.099L200.475,201.099Z" style="fill:#462f28;fill-rule:nonzero;"/>
					</g>
					<path d="M373.475,-15.38L359,193.62L346,260L387.475,193.62L373.475,-15.38Z" style="fill:#462f28;fill-rule:nonzero;"/>
					<g transform="matrix(1,0,0,1,-7.99361e-15,-11)">
						<path d="M330.475,15.099L368.475,13.099L362.475,211.099L280.475,211.099L330.475,15.099Z" style="fill:#462f28;fill-rule:nonzero;"/>
					</g>
					<g transform="matrix(1.4532,-6.37562e-17,-6.37562e-17,1.13307,-90.752,-28.9205)">
						<path d="M187.673,217.333L200.249,8.709L187.277,7.865L187.673,217.333Z" style="fill:#462f28;fill-rule:nonzero;"/>
					</g>
					<path d="M324.449,-4.602L319.14,-11.693L258.191,193.62L270.501,197.8L324.449,-4.602Z" style="fill:#462f28;fill-rule:nonzero;"/>
					<g transform="matrix(0.995116,0.0987075,-0.116998,1.17951,-0.451372,-61.6987)">
						<path d="M417.475,163.099L389.475,21.099L435.475,12.099L417.475,163.099Z" style="fill:#462f28;fill-rule:nonzero;"/>
					</g>
				</g>
			</g>
			<g transform="matrix(-0.312445,0.0724579,-0.085675,-0.369439,478.62,513.393)">
				<path d="M351.876,384.242L360.394,396.126L343.357,396.126L351.876,384.242Z" style="fill:#1f2734;"/>
			</g>
			<g transform="matrix(0.443106,0.102759,0.085675,-0.369439,-21.2765,505.945)">
				<path d="M351.876,384.242L360.394,396.126L343.357,396.126L351.876,384.242Z" style="fill:#1f2734;"/>
			</g>
			<path d="M208.836,312.883C211.963,331.624 213.238,348.719 212.66,364.17C212.498,368.496 212.191,372.693 211.739,376.761C184.931,388.167 153.717,406.045 117.969,430.232L139.724,520.56L253.723,545.781L390.924,505.427L386.941,429.849C357.109,406.116 329.668,388.493 304.618,376.98C299.881,356.251 298.17,326.729 299.483,288.414L208.836,312.883Z" style="fill:#f8dec8;fill-rule:nonzero;"/>
			<g>
				<clipPath id="_clip4">
					<path d="M208.836,312.883C211.963,331.624 213.238,348.719 212.66,364.17C212.498,368.496 212.191,372.693 211.739,376.761C184.931,388.167 153.717,406.045 117.969,430.232L139.724,520.56L253.723,545.781L390.924,505.427L386.941,429.849C357.109,406.116 329.668,388.493 304.618,376.98C299.881,356.251 298.17,326.729 299.483,288.414L208.836,312.883Z"/>
				</clipPath>
				<g clip-path="url(#_clip4)">
					<path d="M315.141,300.669C315.141,300.669 276.046,367.884 238.878,387.33C201.709,406.777 131.173,395.539 131.173,395.539L132,284L311,240L315.141,300.669Z" style="fill:#f4ceba;fill-rule:nonzero;"/>
					<path d="M324.183,318C324.183,318 283.54,355.991 252.084,368.192C231.268,376.266 167.027,316.152 167.027,316.152L164.555,270.006L366.483,256.509L324.183,318Z" style="fill:#cc9898;fill-opacity:0.3;fill-rule:nonzero;"/>
					<g transform="matrix(1,0,0,1,9,-8)">
						<path d="M274.316,430.563L295.211,418.143L344.588,413.679L274.316,430.563Z" style="fill:#cc9898;fill-opacity:0.3;fill-rule:nonzero;"/>
					</g>
					<g transform="matrix(-1,0,0,1,494.904,-8)">
						<path d="M274.316,430.563L295.211,418.143L344.588,413.679L274.316,430.563Z" style="fill:#cc9898;fill-opacity:0.3;fill-rule:nonzero;"/>
					</g>
				</g>
			</g>
			<g>
				<path d="M164.781,394.857C190.554,422.074 217.656,437.725 246.089,441.812C274.521,445.899 304.956,429.272 337.393,391.93L355.132,404.5L386.9,425.6L395.716,538.441L98.261,552.505L100.068,449.907L152.951,407.791L164.781,394.857Z" style="fill:#212936;fill-rule:nonzero;"/>
				<clipPath id="_clip5">
					<path d="M164.781,394.857C190.554,422.074 217.656,437.725 246.089,441.812C274.521,445.899 304.956,429.272 337.393,391.93L355.132,404.5L386.9,425.6L395.716,538.441L98.261,552.505L100.068,449.907L152.951,407.791L164.781,394.857Z" clip-rule="nonzero"/>
				</clipPath>
				<g clip-path="url(#_clip5)">
					<g transform="matrix(1.19088,0.0677984,-0.0573258,1.00693,-42.2559,-25.5249)">
						<path d="M359.454,384C359.454,384 328.802,449.713 320.628,477.219C313.462,501.333 309.783,526.452 309.783,526.452L417.226,521.594L359.454,384Z" style="fill:#1f2734;fill-rule:nonzero;"/>
					</g>
					<path d="M143.822,372.122L367.454,372.122C345.866,412.261 324.799,436.569 304.253,445.046C273.435,457.761 229.377,456.034 192.438,440.184C167.811,429.617 151.606,406.93 143.822,372.122Z" style="fill:#2a323f;fill-rule:nonzero;"/>
				</g>
			</g>
			<g>
				<g>
					<path d="M336.775,263.249C338.292,269.24 357.553,264.121 361.549,262.185C365.545,260.25 367.88,252.615 374.172,244.529C378.813,238.564 385.383,233.463 386.78,226.964C388.176,220.466 384.571,191.169 377.685,190.946C368.482,190.818 361.575,193.012 356.964,197.527C352.353,202.042 350.085,206.027 350.16,209.482C340.225,241.333 335.763,259.255 336.775,263.249Z" style="fill:#f8d1bb;fill-rule:nonzero;"/>
					<g>
						<clipPath id="_clip6">
							<path d="M336.775,263.249C338.292,269.24 357.553,264.121 361.549,262.185C365.545,260.25 367.88,252.615 374.172,244.529C378.813,238.564 385.383,233.463 386.78,226.964C388.176,220.466 384.571,191.169 377.685,190.946C368.482,190.818 361.575,193.012 356.964,197.527C352.353,202.042 350.085,206.027 350.16,209.482C340.225,241.333 335.763,259.255 336.775,263.249Z"/>
						</clipPath>
						<g clip-path="url(#_clip6)">
							<path d="M370.125,238.97C378.432,228.606 382.641,222.707 382.754,221.273C382.923,219.122 382.472,217.082 381.653,215.113C380.239,211.713 377.728,208.527 375.417,205.354C373.877,203.238 368.718,203.647 359.941,206.581L357.965,222.428L370.125,238.97Z" style="fill:#daaca3;fill-rule:nonzero;"/>
							<path d="M357.23,227.098C360.761,232.021 361.858,235.475 360.52,237.458C358.514,240.434 348.524,250.164 348.301,252.552C348.079,254.94 367.822,242.853 370.125,238.97C372.428,235.088 374.903,224.251 373.178,219.577C372.028,216.461 369.158,213.852 364.568,211.75L359.765,210.994L357.23,227.098Z" style="fill:#edbaa9;fill-rule:nonzero;"/>
						</g>
					</g>
					<g transform="matrix(-0.995001,0.0998695,0.0998695,0.995001,484.026,-12.3032)">
						<path d="M151.313,251.343C151.011,251.725 149.817,253.211 149.523,253.613C144.233,260.84 145.113,265.249 148.182,267.495C150.228,268.993 153.927,267.695 157.733,264.521" style="fill:none;fill-rule:nonzero;stroke:#423f3d;stroke-width:4px;stroke-linecap:round;"/>
					</g>
					<g transform="matrix(0.991444,-0.13053,0.13053,0.991444,-24.3152,52.2795)">
						<path d="M378.892,215.806C387.758,214.522 394.703,211.736 394.392,209.589C394.219,208.396 391.843,207.65 388.244,207.442" style="fill:none;fill-rule:nonzero;stroke:#595756;stroke-width:4px;stroke-linecap:round;"/>
					</g>
					<path d="M342.479,259.088C342.904,256.384 345.402,254.527 348.052,254.945C350.703,255.362 352.509,257.896 352.083,260.6C351.658,263.304 349.16,265.16 346.51,264.743C343.859,264.326 342.053,261.792 342.479,259.088Z" style="fill:#423f3d;fill-rule:nonzero;"/>
				</g>
				<g>
					<path d="M177.228,265.521C175.148,271.341 156.46,264.416 152.666,262.109C148.872,259.803 147.273,251.981 141.778,243.334C137.724,236.955 131.668,231.253 130.895,224.651C130.122,218.05 136.493,189.228 143.369,189.66C152.543,190.407 159.211,193.246 163.372,198.179C167.533,203.112 169.412,207.294 169.009,210.726C175.875,243.376 178.615,261.641 177.228,265.521Z" style="fill:#f8d1bb;fill-rule:nonzero;"/>
					<g>
						<clipPath id="_clip7">
							<path d="M177.228,265.521C175.148,271.341 156.46,264.416 152.666,262.109C148.872,259.803 147.273,251.981 141.778,243.334C137.724,236.955 131.668,231.253 130.895,224.651C130.122,218.05 136.493,189.228 143.369,189.66C152.543,190.407 159.211,193.246 163.372,198.179C167.533,203.112 169.412,207.294 169.009,210.726C175.875,243.376 178.615,261.641 177.228,265.521Z"/>
						</clipPath>
						<g clip-path="url(#_clip7)">
							<path d="M146.334,238.185C139.049,227.078 135.419,220.806 135.443,219.368C135.478,217.211 136.121,215.222 137.124,213.34C138.854,210.091 141.657,207.157 144.258,204.217C145.992,202.258 151.007,202.258 159.304,204.217L160.01,222.872L146.334,238.185Z" style="fill:#daaca3;fill-rule:nonzero;"/>
							<path d="M160.298,227.59C156.315,232.157 154.896,235.491 156.039,237.592C157.753,240.744 166.775,251.38 166.769,253.778C166.763,256.176 148.258,242.268 146.334,238.185C144.41,234.102 142.975,223.078 145.136,218.589C146.577,215.596 149.682,213.272 154.451,211.615L159.304,211.319L160.298,227.59Z" style="fill:#edbaa9;fill-rule:nonzero;"/>
						</g>
					</g>
					<g transform="matrix(0.995001,0.0998695,-0.0998695,0.995001,27.2895,-12.4417)">
						<path d="M142.591,243.604C137.299,250.832 135.496,258.525 138.565,260.771C140.27,262.019 143.123,261.326 146.229,259.223" style="fill:none;fill-rule:nonzero;stroke:#3b3937;stroke-width:4px;stroke-linecap:round;"/>
					</g>
					<g transform="matrix(0.995001,0.0998695,-0.0998695,0.995001,27.2895,-12.4417)">
						<path d="M151.313,251.343C151.011,251.725 149.817,253.211 149.523,253.613C144.233,260.84 145.113,265.249 148.182,267.495C150.228,268.993 153.927,267.695 157.733,264.521" style="fill:none;fill-rule:nonzero;stroke:#423f3d;stroke-width:4px;stroke-linecap:round;"/>
					</g>
					<g transform="matrix(-0.859932,0.510409,-0.510409,-0.859932,595.204,305.866)">
						<path d="M342.479,259.088C342.904,256.384 345.402,254.527 348.052,254.945C350.703,255.362 352.509,257.896 352.083,260.6C351.658,263.304 349.16,265.16 346.51,264.743C343.859,264.326 342.053,261.792 342.479,259.088Z" style="fill:#423f3d;fill-rule:nonzero;"/>
					</g>
				</g>
			</g>
			<path d="M158.089,154.004C148.037,189.49 165.202,285.426 179.789,303.38C194.376,321.334 231.978,351.093 242.312,354.739C252.646,358.384 260.164,354.404 267.02,352.732C273.876,351.059 310.845,327.867 326.343,305.824C341.841,283.78 340.236,279.257 345.908,264.058C351.58,248.86 380.621,175.057 361.709,128.855C342.798,82.653 318.809,63.841 276.736,60.188C234.663,56.536 212.005,72.65 189.569,94.053C167.133,115.456 168.142,118.519 158.089,154.004Z" style="fill:#f8ddc6;fill-rule:nonzero;"/>
			<g>
				<clipPath id="_clip8">
					<path d="M158.089,154.004C148.037,189.49 165.202,285.426 179.789,303.38C194.376,321.334 231.978,351.093 242.312,354.739C252.646,358.384 260.164,354.404 267.02,352.732C273.876,351.059 310.845,327.867 326.343,305.824C341.841,283.78 340.236,279.257 345.908,264.058C351.58,248.86 380.621,175.057 361.709,128.855C342.798,82.653 318.809,63.841 276.736,60.188C234.663,56.536 212.005,72.65 189.569,94.053C167.133,115.456 168.142,118.519 158.089,154.004Z"/>
				</clipPath>
				<g clip-path="url(#_clip8)">
					<path class="cheeks" d="M154.906,276.664C156.697,261.34 172.251,250.547 189.618,252.577C206.986,254.607 219.632,268.695 217.841,284.019C216.05,299.343 200.496,310.136 183.129,308.107C165.761,306.077 153.115,291.988 154.906,276.664Z" style="fill:#f4b9b0;fill-opacity:0.5;fill-rule:nonzero;"/>
					<path class="cheeks" d="M297.849,287.531C294.061,272.576 304.747,256.948 321.698,252.655C338.648,248.361 355.485,257.018 359.273,271.974C363.061,286.93 352.375,302.558 335.425,306.851C318.474,311.144 301.637,302.487 297.849,287.531Z" style="fill:#f4b9b0;fill-opacity:0.5;fill-rule:nonzero;"/>
					<path class="cheeks" d="M327.92,246.06C328.076,244.728 329.284,243.772 330.617,243.928C331.949,244.084 332.905,245.292 332.749,246.624C332.593,247.957 331.385,248.912 330.052,248.757C328.72,248.601 327.764,247.393 327.92,246.06Z" style="fill:#edbaa9;fill-rule:nonzero;"/>
					<path class="dot" d="M239.625,289.582C239.781,288.25 240.989,287.294 242.321,287.45C243.654,287.606 244.609,288.814 244.453,290.147C244.298,291.479 243.089,292.434 241.757,292.279C240.424,292.123 239.469,290.915 239.625,289.582Z" style="fill:#edbaa9;fill-rule:nonzero;"/>
				</g>
			</g>
			<g>
				<path d="M257.838,225.55C256.19,225.542 254.551,226.875 252.921,229.55C247.614,256.468 245.159,271.062 245.556,273.332C245.952,275.602 250.046,279.399 257.838,284.724C265.609,279.025 269.664,275.227 270.003,273.332C270.342,271.437 267.926,256.843 262.756,229.55C261.126,226.891 259.487,225.558 257.838,225.55Z" style="fill:#f8d1bb;fill-rule:nonzero;"/>
				<path d="M262.756,276.929C264.296,279.551 267.519,280.521 269.947,279.095C272.376,277.668 273.097,274.381 271.557,271.759C270.701,270.302 269.326,269.355 267.857,269.046" style="fill:none;fill-rule:nonzero;stroke:#909090;stroke-width:2px;stroke-linecap:round;"/>
			</g>
			<path class="mouth" d="M256,296.231C250.275,296.231 242.275,297.564 232,300.231C239.257,305.314 247.257,307.924 256,308.061C264.743,308.198 272.743,305.588 280,300.231C269.725,297.564 261.725,296.231 256,296.231Z" style="fill:#f4ceba;fill-rule:nonzero;"/>
			<g>
				<clipPath class="mouth" id="_clip9">
					<path class="mouth" d="M256,296.231C250.275,296.231 242.275,297.564 232,300.231C239.257,305.314 247.257,307.924 256,308.061C264.743,308.198 272.743,305.588 280,300.231C269.725,297.564 261.725,296.231 256,296.231Z"/>
				</clipPath>
				<g class="mouth" clip-path="url(#_clip9)">
					<rect class="mouth" x="229.261" y="300" width="53.477" height="9.723" style="fill:#f3c5ad;"/>
				</g>
			</g>
			<g>
				<g>
					<path d="M228.158,215.173C232.954,222.078 235.189,230.033 234.864,239.037C230.364,242.088 223.278,244.424 220.694,245C218.11,245.576 209.109,246.401 196.086,242.012C191.297,240.399 186.201,237.539 180.8,233.433C182.773,224.67 185.508,217.959 189.007,213.3C195.945,204.061 204.699,202.077 207.653,202.118C210.607,202.16 223.448,205.417 228.158,215.173Z" style="fill:#fff;fill-opacity:0.75;fill-rule:nonzero;"/>
					<g>
						<clipPath id="_clip10">
							<path class="eyelid" d="M228.158,215.173C232.954,222.078 235.189,230.033 234.864,239.037C230.364,242.088 223.278,244.424 220.694,245C218.11,245.576 209.109,246.401 196.086,242.012C191.297,240.399 186.201,237.539 180.8,233.433C182.773,224.67 185.508,217.959 189.007,213.3C195.945,204.061 204.699,202.077 207.653,202.118C210.607,202.16 223.448,205.417 228.158,215.173Z"/>
						</clipPath>
						<g clip-path="url(#_clip10)">
							<g class="pupil">
								<path d="M190.57,224.205C190.529,212.159 198.64,202.351 208.673,202.317C218.706,202.282 226.884,212.034 226.926,224.08C226.967,236.126 218.856,245.934 208.823,245.969C198.79,246.003 190.612,236.251 190.57,224.205Z" style="fill:#566;fill-rule:nonzero;"/>
								<g>
									<clipPath id="_clip11">
										<path d="M190.57,224.205C190.529,212.159 198.64,202.351 208.673,202.317C218.706,202.282 226.884,212.034 226.926,224.08C226.967,236.126 218.856,245.934 208.823,245.969C198.79,246.003 190.612,236.251 190.57,224.205Z"/>
									</clipPath>
									<g clip-path="url(#_clip11)">
										<g transform="matrix(1,-0.003,0.003,1,-0.81,0.734)">
											<rect x="187.828" y="223.191" width="50.339" height="25.379" style="fill:#58a2a2;"/>
										</g>
									</g>
								</g>
								<path d="M199.236,224.175C199.214,217.872 203.459,212.739 208.709,212.721C213.959,212.703 218.238,217.806 218.26,224.11C218.282,230.413 214.037,235.546 208.787,235.564C203.537,235.582 199.258,230.479 199.236,224.175Z" style="fill:none;fill-rule:nonzero;stroke:#fff;stroke-opacity:0.75;stroke-width:3px;stroke-linecap:square;stroke-linejoin:miter;"/>
								<path d="M199.236,224.175C199.214,217.872 203.459,212.739 208.709,212.721C213.959,212.703 218.238,217.806 218.26,224.11C218.282,230.413 214.037,235.546 208.787,235.564C203.537,235.582 199.258,230.479 199.236,224.175Z" style="fill:#423f3d;fill-rule:nonzero;"/>
							</g>
						</g>
					</g>
					<path d="M292.256,214.263C287.245,221.014 284.759,228.894 284.8,237.905C289.203,241.096 296.211,243.654 298.776,244.312C301.34,244.969 310.311,246.077 323.466,242.101C328.303,240.639 333.486,237.941 339.014,234.008C337.319,225.187 334.796,218.393 331.446,213.626C324.803,204.173 316.116,201.913 313.162,201.862C310.208,201.81 297.271,204.661 292.256,214.263Z" style="fill:#fff;fill-opacity:0.75;fill-rule:nonzero;"/>
					<g>
						<clipPath id="_clip12">
							<path class="eyelid" d="M292.256,214.263C287.245,221.014 284.759,228.894 284.8,237.905C289.203,241.096 296.211,243.654 298.776,244.312C301.34,244.969 310.311,246.077 323.466,242.101C328.303,240.639 333.486,237.941 339.014,234.008C337.319,225.187 334.796,218.393 331.446,213.626C324.803,204.173 316.116,201.913 313.162,201.862C310.208,201.81 297.271,204.661 292.256,214.263Z"/>
						</clipPath>
						<g clip-path="url(#_clip12)">
							<g class="pupil">
								<path d="M329.551,223.858C329.562,211.811 321.426,202.024 311.394,202.015C301.361,202.005 293.207,211.778 293.195,223.824C293.184,235.87 301.32,245.657 311.353,245.667C321.385,245.676 329.54,235.904 329.551,223.858Z" style="fill:#566;fill-rule:nonzero;"/>
								<g>
									<clipPath id="_clip13">
										<path d="M329.551,223.858C329.562,211.811 321.426,202.024 311.394,202.015C301.361,202.005 293.207,211.778 293.195,223.824C293.184,235.87 301.32,245.657 311.353,245.667C321.385,245.676 329.54,235.904 329.551,223.858Z"/>
									</clipPath>
									<g clip-path="url(#_clip13)">
										<g transform="matrix(1,0.001,-0.001,1,0.22,-0.287)">
											<rect x="281.984" y="222.9" width="50.339" height="25.379" style="fill:#58a2a2;"/>
										</g>
									</g>
								</g>
								<path d="M320.885,223.85C320.891,217.546 316.634,212.424 311.384,212.419C306.134,212.415 301.867,217.528 301.861,223.832C301.855,230.135 306.113,235.257 311.363,235.262C316.612,235.267 320.879,230.153 320.885,223.85Z" style="fill:none;fill-rule:nonzero;stroke:#fff;stroke-opacity:0.75;stroke-width:3px;stroke-linecap:square;stroke-linejoin:miter;"/>
								<path d="M320.885,223.85C320.891,217.546 316.634,212.424 311.384,212.419C306.134,212.415 301.867,217.528 301.861,223.832C301.855,230.135 306.113,235.257 311.363,235.262C316.612,235.267 320.879,230.153 320.885,223.85Z" style="fill:#423f3d;fill-rule:nonzero;"/>
							</g>
						</g>
					</g>
				</g>
			</g>
			<g class="eyebrows">
				<path d="M310.614,188.732L278.946,187.478C291.587,180.017 301.809,176.317 309.611,176.378C317.412,176.439 328.303,180.975 342.283,189.986L310.614,188.732Z" style="fill:#5e4038;fill-rule:nonzero;"/>
				<path d="M206.892,188.785L238.524,186.803C225.714,179.636 215.41,176.172 207.611,176.412C199.813,176.652 189.03,181.437 175.261,190.767L206.892,188.785Z" style="fill:#5e4038;fill-rule:nonzero;"/>
			</g>
			<g transform="matrix(-1,7.65714e-16,7.65714e-16,1,521.336,0.556332)">
				<path d="M156,195C165.772,182.67 173.105,171.003 178,160C185.854,142.346 183.324,134.783 192,128C200.185,121.601 211.15,131.22 221.846,128C238.042,123.124 255.044,107.118 258,107C260.956,106.882 276.377,117.289 294.985,122C303.93,124.265 313.612,115.703 323,122C331.936,127.995 334.309,143.376 343,157C349.59,167.331 357.257,179.331 366,193C373.979,156.777 377.646,131.777 377,118C376.354,104.223 373.687,89.889 369,75L301,37L297,53L290,37L258,29L252,59L244,34L196,34L203.803,68.622L192,43L163,53C152.679,80.531 147.346,102.197 147,118C146.654,133.803 149.654,159.469 156,195Z" style="fill:#5e4038;fill-rule:nonzero;"/>
				<g>
					<clipPath id="_clip14">
						<path d="M156,195C165.772,182.67 173.105,171.003 178,160C185.854,142.346 183.324,134.783 192,128C200.185,121.601 211.15,131.22 221.846,128C238.042,123.124 255.044,107.118 258,107C260.956,106.882 276.377,117.289 294.985,122C303.93,124.265 313.612,115.703 323,122C331.936,127.995 334.309,143.376 343,157C349.59,167.331 357.257,179.331 366,193C373.979,156.777 377.646,131.777 377,118C376.354,104.223 373.687,89.889 369,75L301,37L297,53L290,37L258,29L252,59L244,34L196,34L208,75L192,43L163,53C152.679,80.531 147.346,102.197 147,118C146.654,133.803 149.654,159.469 156,195Z"/>
					</clipPath>
					<g clip-path="url(#_clip14)">
						<path d="M248.29,193.76L278.955,-11.129L322.974,-72.72L270.645,-14.512L248.29,193.76Z" style="fill:#462f28;fill-rule:nonzero;"/>
						<g transform="matrix(1,0,0,1,29.4341,-2.26485e-14)">
							<path d="M248.29,193.76L265.799,52.048L278.955,-11.129L322.974,-72.72L270.645,-14.512C258.674,39.263 252.86,114.358 248.29,193.76Z" style="fill:#462f28;fill-rule:nonzero;"/>
						</g>
						<g transform="matrix(-1,1.53143e-15,1.53143e-15,1,500.698,-1)">
							<path d="M248.29,193.76L265.799,52.048L278.955,-11.129L322.974,-72.72L270.645,-14.512C258.674,39.263 252.86,114.358 248.29,193.76Z" style="fill:#462f28;fill-rule:nonzero;"/>
						</g>
						<g transform="matrix(-1,1.53143e-15,1.53143e-15,1,467.818,3.07274)">
							<path d="M229.668,116.157L238.698,69.683L238.305,53.853L249.748,73.31L229.668,116.157Z" style="fill:#462f28;fill-rule:nonzero;"/>
						</g>
						<path d="M291.035,120.354L302.95,68.252L301.685,35.782L316.155,66.363L291.035,120.354Z" style="fill:#462f28;fill-rule:nonzero;"/>
						<path d="M167.345,189.627L183.093,85.417L193.202,36.712L167,86.377L167.345,189.627Z" style="fill:#462f28;fill-rule:nonzero;"/>
						<g transform="matrix(-0.457796,0.0389623,-0.079618,-0.935488,299.888,160.071)">
							<path d="M167.345,189.627L183.093,85.417L193.202,36.712L167,86.377L167.345,189.627Z" style="fill:#462f28;fill-rule:nonzero;"/>
						</g>
						<g transform="matrix(0.402762,1.27757e-16,1.27757e-16,1.04424,201.816,-8.38922)">
							<path d="M352.127,189.627L336.378,85.417L322.974,52.421L364.851,85.069L352.127,189.627Z" style="fill:#462f28;fill-rule:nonzero;"/>
						</g>
						<g transform="matrix(-0.402762,7.44558e-16,1.47142e-15,1.04424,506.377,-6.52481)">
							<path d="M352.127,189.627L336.378,85.417L322.974,52.421L355.498,74.942L352.127,189.627Z" style="fill:#462f28;fill-rule:nonzero;"/>
						</g>
					</g>
				</g>
			</g>
			<g class="glasses">
				<path d="M152.226,185.576C153.681,192.418 161.628,215.911 160.862,216C160.241,216.073 162.61,213.406 167.97,208C159.206,193.676 153.996,185.633 152.341,183.871C151.901,183.402 151.913,184.104 152.226,185.576Z" style="fill:#423f3d;fill-rule:nonzero;"/>
				<g>
					<clipPath id="_clip15">
						<path d="M152.226,185.576C153.681,192.418 161.628,215.911 160.862,216C160.241,216.073 162.61,213.406 167.97,208C159.206,193.676 153.996,185.633 152.341,183.871C151.901,183.402 151.913,184.104 152.226,185.576Z"/>
					</clipPath>
					<g clip-path="url(#_clip15)">
						<g transform="matrix(0.421,0.907,-0.79,0.673,243.243,-71.564)">
							<rect x="123.213" y="192.186" width="54.127" height="11.305" style="fill:#3e3c3b;"/>
						</g>
					</g>
				</g>
				<path d="M163.774,209.959C184.699,208.888 211.067,209.868 242.878,212.901C244.19,228.63 243.066,241.193 239.505,250.59C220.036,254.848 196.191,255.096 167.97,251.335C164.271,234.696 162.872,220.904 163.774,209.959Z" style="fill:none;fill-rule:nonzero;stroke:#423f3d;stroke-width:6px;"/>
				<path d="M353.606,216C354.212,216.155 352.879,213.122 349.606,206.903C361.088,193.874 367.767,186.597 369.642,185.07C372.455,182.78 352.697,215.768 353.606,216Z" style="fill:#423f3d;fill-rule:nonzero;"/>
				<g>
					<clipPath id="_clip16">
						<path d="M353.606,216C354.212,216.155 352.879,213.122 349.606,206.903C361.088,193.874 367.767,186.597 369.642,185.07C372.455,182.78 352.697,215.768 353.606,216Z"/>
					</clipPath>
					<g clip-path="url(#_clip16)">
						<g transform="matrix(0.538,-0.843,0.693,0.772,33.422,355.034)">
							<rect x="341.034" y="191.178" width="54.127" height="11.305" style="fill:#3e3c3b;"/>
						</g>
					</g>
				</g>
				<path d="M352.093,207.999C331.151,207.364 304.809,208.893 273.068,212.587C272.083,228.34 273.469,240.877 277.225,250.198C296.778,254.049 320.622,253.801 348.759,249.453C352.112,232.741 353.223,218.923 352.093,207.999Z" style="fill:none;fill-rule:nonzero;stroke:#423f3d;stroke-width:6px;"/>
				<path d="M243.631,221.414C245.926,217.966 250.72,216.331 258.012,216.509C265.304,216.687 270.234,218.322 272.801,221.414" style="fill:none;fill-rule:nonzero;stroke:#423f3d;stroke-width:6px;"/>
			</g>
			<g transform="matrix(1.15978,-0.0589012,0.0589012,1.15978,-37.4243,-138.185)">
				<g transform="matrix(-1.74351,1.33503e-15,1.33503e-15,1.74351,576.223,121.283)">
					<path d="M81.451,15.087C81.451,15.087 86.037,5.576 88.093,4.532C89.83,3.65 91.851,6.093 93.786,5.86C95.726,5.627 97.778,3.124 99.733,3.131C101.688,3.138 103.604,5.915 105.517,5.904C107.43,5.892 109.734,2.89 111.208,3.061C112.683,3.232 113.073,6.265 114.364,6.93C115.654,7.595 118.747,5.533 118.953,7.05C119.292,9.553 116.398,24.913 116.398,24.913L82.123,23.106L81.451,15.087Z" style="fill:#f8ddc6;"/>
				</g>
				<g transform="matrix(-1.74351,1.33503e-15,1.33503e-15,1.74351,576.223,121.283)">
					<path d="M123.468,236.223L93.203,205.373C93.203,205.373 77.486,181.449 74.266,174.658C72.833,171.634 74.877,167.822 73.886,164.625C71.371,156.508 61.499,139.549 59.176,125.955C56.112,108.018 55.025,72.649 55.5,57.004C55.761,48.421 58.087,38.84 62.027,32.085C65.966,25.331 71.309,18.459 79.134,16.477C88.687,14.058 109.705,15.948 118.235,17.928C123.416,19.131 130.259,24.009 130.311,28.358C130.362,32.707 120.599,39.586 118.542,44.023C117.154,47.015 119.399,51.615 117.964,54.979C116.078,59.402 108.152,64.32 107.225,70.559C106.277,76.945 110.975,85.644 112.273,93.299C114.14,104.312 112.222,120.817 118.43,136.636C121.025,143.25 133.654,155.937 138.584,164.378C145.761,176.668 150.517,190.759 150.517,190.759L163.809,206.496C163.809,206.496 157.033,233.559 149.3,238.247C137.142,245.618 123.468,236.223 123.468,236.223Z" style="fill:#393838;"/>
					<clipPath id="_clip17">
						<path d="M123.468,236.223L93.203,205.373C93.203,205.373 77.486,181.449 74.266,174.658C72.833,171.634 74.877,167.822 73.886,164.625C71.371,156.508 61.499,139.549 59.176,125.955C56.112,108.018 55.025,72.649 55.5,57.004C55.761,48.421 58.087,38.84 62.027,32.085C65.966,25.331 71.309,18.459 79.134,16.477C88.687,14.058 109.705,15.948 118.235,17.928C123.416,19.131 130.259,24.009 130.311,28.358C130.362,32.707 120.599,39.586 118.542,44.023C117.154,47.015 119.399,51.615 117.964,54.979C116.078,59.402 108.152,64.32 107.225,70.559C106.277,76.945 110.975,85.644 112.273,93.299C114.14,104.312 112.222,120.817 118.43,136.636C121.025,143.25 133.654,155.937 138.584,164.378C145.761,176.668 150.517,190.759 150.517,190.759L163.809,206.496C163.809,206.496 157.033,233.559 149.3,238.247C137.142,245.618 123.468,236.223 123.468,236.223Z"/>
					</clipPath>
					<g clip-path="url(#_clip17)">
						<path d="M92.746,191.619L59.027,142.157L61.311,187.113L86.303,210.443L92.746,191.619Z" style="fill:#2e2e2e;"/>
						<g transform="matrix(-0.493901,-6.85426e-18,6.85426e-18,-0.493901,67.0301,9.42478)">
							<path d="M-105.901,-72.191C-105.901,-72.191 -64.32,-95.338 -54.657,-98.112C-50.984,-99.166 -44.473,-90.489 -47.919,-88.837C-58.191,-83.913 -116.287,-68.568 -116.287,-68.568L-105.901,-72.191Z" style="fill:#2e2e2e;"/>
						</g>
						<g transform="matrix(0.493901,-6.85426e-18,-6.85426e-18,-0.493901,110.936,-1.15485)">
							<path d="M-105.901,-72.191C-105.901,-72.191 -64.32,-95.338 -54.657,-98.112C-50.984,-99.166 -44.473,-90.489 -47.919,-88.837C-58.191,-83.913 -116.287,-68.568 -116.287,-68.568L-105.901,-72.191Z" style="fill:#464646;"/>
						</g>
						<g transform="matrix(0.475555,0.133364,0.133364,-0.475555,110.681,15.2107)">
							<path d="M-105.901,-72.191C-105.901,-72.191 -64.32,-95.338 -54.657,-98.112C-50.984,-99.166 -44.473,-90.489 -47.919,-88.837C-58.191,-83.913 -116.287,-68.568 -116.287,-68.568L-105.901,-72.191Z" style="fill:#2e2e2e;"/>
						</g>
						<g transform="matrix(-0.581621,-1.16578e-17,8.07161e-18,-0.840035,58.701,0.89003)">
							<path d="M-105.901,-72.191C-105.901,-72.191 -64.32,-95.338 -54.657,-98.112C-50.984,-99.166 -44.473,-90.489 -47.919,-88.837C-58.191,-83.913 -116.287,-68.568 -116.287,-68.568L-105.901,-72.191Z" style="fill:#464646;"/>
						</g>
						<g transform="matrix(-0.344293,0.46877,-0.677044,-0.497262,34.9679,132.147)">
							<path d="M-105.901,-72.191C-105.901,-72.191 -64.32,-95.338 -54.657,-98.112C-50.984,-99.166 -44.473,-90.489 -47.919,-88.837C-58.191,-83.913 -116.287,-68.568 -116.287,-68.568L-105.901,-72.191Z" style="fill:#464646;"/>
						</g>
					</g>
				</g>
			</g>
			<g transform="matrix(-1.1499,-0.162164,-0.162164,1.1499,587.967,-95.113)">
				<g transform="matrix(-1.74351,1.33503e-15,1.33503e-15,1.74351,576.223,121.283)">
					<path d="M81.451,15.087C81.451,15.087 86.037,5.576 88.093,4.532C89.83,3.65 91.851,6.093 93.786,5.86C95.726,5.627 97.778,3.124 99.733,3.131C101.688,3.138 103.604,5.915 105.517,5.904C107.43,5.892 109.734,2.89 111.208,3.061C112.683,3.232 113.073,6.265 114.364,6.93C115.654,7.595 118.747,5.533 118.953,7.05C119.292,9.553 116.398,24.913 116.398,24.913L82.123,23.106L81.451,15.087Z" style="fill:#f8ddc6;"/>
				</g>
				<g transform="matrix(-1.74351,1.33503e-15,1.33503e-15,1.74351,576.223,121.283)">
					<path d="M123.468,236.223L93.203,205.373C93.203,205.373 77.486,181.449 74.266,174.658C72.833,171.634 74.877,167.822 73.886,164.625C71.371,156.508 61.499,139.549 59.176,125.955C56.112,108.018 55.025,72.649 55.5,57.004C55.761,48.421 58.087,38.84 62.027,32.085C65.966,25.331 71.309,18.459 79.134,16.477C88.687,14.058 109.705,15.948 118.235,17.928C123.416,19.131 130.259,24.009 130.311,28.358C130.362,32.707 120.599,39.586 118.542,44.023C117.154,47.015 119.399,51.615 117.964,54.979C116.078,59.402 108.152,64.32 107.225,70.559C106.277,76.945 110.975,85.644 112.273,93.299C114.14,104.312 112.222,120.817 118.43,136.636C121.025,143.25 133.654,155.937 138.584,164.378C145.761,176.668 150.517,190.759 150.517,190.759L163.809,206.496C163.809,206.496 157.033,233.559 149.3,238.247C137.142,245.618 123.468,236.223 123.468,236.223Z" style="fill:#393838;"/>
					<clipPath id="_clip18">
						<path d="M123.468,236.223L93.203,205.373C93.203,205.373 77.486,181.449 74.266,174.658C72.833,171.634 74.877,167.822 73.886,164.625C71.371,156.508 61.499,139.549 59.176,125.955C56.112,108.018 55.025,72.649 55.5,57.004C55.761,48.421 58.087,38.84 62.027,32.085C65.966,25.331 71.309,18.459 79.134,16.477C88.687,14.058 109.705,15.948 118.235,17.928C123.416,19.131 130.259,24.009 130.311,28.358C130.362,32.707 120.599,39.586 118.542,44.023C117.154,47.015 119.399,51.615 117.964,54.979C116.078,59.402 108.152,64.32 107.225,70.559C106.277,76.945 110.975,85.644 112.273,93.299C114.14,104.312 112.222,120.817 118.43,136.636C121.025,143.25 133.654,155.937 138.584,164.378C145.761,176.668 150.517,190.759 150.517,190.759L163.809,206.496C163.809,206.496 157.033,233.559 149.3,238.247C137.142,245.618 123.468,236.223 123.468,236.223Z"/>
					</clipPath>
					<g clip-path="url(#_clip18)">
						<path d="M92.746,191.619L59.027,142.157L61.311,187.113L86.303,210.443L92.746,191.619Z" style="fill:#2e2e2e;"/>
						<g transform="matrix(-0.493901,-6.85426e-18,6.85426e-18,-0.493901,67.0301,9.42478)">
							<path d="M-105.901,-72.191C-105.901,-72.191 -64.32,-95.338 -54.657,-98.112C-50.984,-99.166 -44.473,-90.489 -47.919,-88.837C-58.191,-83.913 -116.287,-68.568 -116.287,-68.568L-105.901,-72.191Z" style="fill:#2e2e2e;"/>
						</g>
						<g transform="matrix(0.493901,-6.85426e-18,-6.85426e-18,-0.493901,110.936,-1.15485)">
							<path d="M-105.901,-72.191C-105.901,-72.191 -64.32,-95.338 -54.657,-98.112C-50.984,-99.166 -44.473,-90.489 -47.919,-88.837C-58.191,-83.913 -116.287,-68.568 -116.287,-68.568L-105.901,-72.191Z" style="fill:#464646;"/>
						</g>
						<g transform="matrix(0.475555,0.133364,0.133364,-0.475555,110.681,15.2107)">
							<path d="M-105.901,-72.191C-105.901,-72.191 -64.32,-95.338 -54.657,-98.112C-50.984,-99.166 -44.473,-90.489 -47.919,-88.837C-58.191,-83.913 -116.287,-68.568 -116.287,-68.568L-105.901,-72.191Z" style="fill:#2e2e2e;"/>
						</g>
						<g transform="matrix(-0.581621,-1.16578e-17,8.07161e-18,-0.840035,58.701,0.89003)">
							<path d="M-105.901,-72.191C-105.901,-72.191 -64.32,-95.338 -54.657,-98.112C-50.984,-99.166 -44.473,-90.489 -47.919,-88.837C-58.191,-83.913 -116.287,-68.568 -116.287,-68.568L-105.901,-72.191Z" style="fill:#464646;"/>
						</g>
						<g transform="matrix(-0.344293,0.46877,-0.677044,-0.497262,34.9679,132.147)">
							<path d="M-105.901,-72.191C-105.901,-72.191 -64.32,-95.338 -54.657,-98.112C-50.984,-99.166 -44.473,-90.489 -47.919,-88.837C-58.191,-83.913 -116.287,-68.568 -116.287,-68.568L-105.901,-72.191Z" style="fill:#464646;"/>
						</g>
					</g>
				</g>
			</g>
			<g transform="matrix(-1,7.65714e-16,7.65714e-16,1,515.118,-1.44367)">
				<g transform="matrix(-1,7.93469e-16,-7.65714e-16,-1,2.84217e-14,4.26326e-14)">
					<path d="M-435.339,-448.677C-424.046,-455.365 -401.188,-465.501 -395.084,-472.125C-391.312,-476.219 -394.151,-485.238 -398.715,-488.424C-404.91,-492.748 -423.567,-501.74 -432.254,-498.072C-440.941,-494.404 -445.737,-477.427 -450.835,-466.414C-455.933,-455.402 -465.423,-434.955 -462.84,-431.998C-460.258,-429.042 -444.564,-443.214 -435.339,-448.677Z" style="fill:#393838;"/>
					<clipPath id="_clip19">
						<path d="M-435.339,-448.677C-424.046,-455.365 -401.188,-465.501 -395.084,-472.125C-391.312,-476.219 -394.151,-485.238 -398.715,-488.424C-404.91,-492.748 -423.567,-501.74 -432.254,-498.072C-440.941,-494.404 -445.737,-477.427 -450.835,-466.414C-455.933,-455.402 -465.423,-434.955 -462.84,-431.998C-460.258,-429.042 -444.564,-443.214 -435.339,-448.677Z"/>
					</clipPath>
					<g clip-path="url(#_clip19)">
						<path d="M-419.455,-461.319C-417.13,-468.073 -421.988,-480.501 -425.612,-481.844C-429.237,-483.187 -439.037,-475.668 -441.203,-469.375C-444.153,-460.805 -446.937,-431.765 -443.312,-430.423C-439.688,-429.08 -422.405,-452.749 -419.455,-461.319Z" style="fill:#2e2e2e;"/>
					</g>
				</g>
				<g transform="matrix(0.999652,0.0263785,0.0263785,-0.999652,539.71,-1.14881)">
					<path d="M-435.339,-448.677C-424.046,-455.365 -401.188,-465.501 -395.084,-472.125C-391.312,-476.219 -394.151,-485.238 -398.715,-488.424C-404.91,-492.748 -423.567,-501.74 -432.254,-498.072C-440.941,-494.404 -445.737,-477.427 -450.835,-466.414C-455.933,-455.402 -465.423,-434.955 -462.84,-431.998C-460.258,-429.042 -444.564,-443.214 -435.339,-448.677Z" style="fill:#393838;"/>
					<clipPath id="_clip20">
						<path d="M-435.339,-448.677C-424.046,-455.365 -401.188,-465.501 -395.084,-472.125C-391.312,-476.219 -394.151,-485.238 -398.715,-488.424C-404.91,-492.748 -423.567,-501.74 -432.254,-498.072C-440.941,-494.404 -445.737,-477.427 -450.835,-466.414C-455.933,-455.402 -465.423,-434.955 -462.84,-431.998C-460.258,-429.042 -444.564,-443.214 -435.339,-448.677Z"/>
					</clipPath>
					<g clip-path="url(#_clip20)">
						<path d="M-419.455,-461.319C-417.13,-468.073 -421.988,-480.501 -425.612,-481.844C-429.237,-483.187 -439.037,-475.668 -441.203,-469.375C-444.153,-460.805 -446.937,-431.765 -443.312,-430.423C-439.688,-429.08 -422.405,-452.749 -419.455,-461.319Z" style="fill:#2e2e2e;"/>
					</g>
				</g>
				<g transform="matrix(-1,7.65714e-16,-7.65714e-16,-1,0,0)">
					<path d="M-343.3,-370.237C-336.902,-369.179 -330.493,-393.325 -330.818,-405.251C-331.144,-417.177 -336.816,-431.776 -345.252,-441.793C-355.383,-453.823 -380.196,-474.16 -391.606,-477.429C-400.354,-479.935 -416.641,-470.022 -413.71,-461.407C-409.976,-450.434 -364.81,-429.909 -369.206,-411.595C-376.188,-382.509 -349.698,-371.294 -343.3,-370.237Z" style="fill:#393838;"/>
					<clipPath id="_clip21">
						<path d="M-343.3,-370.237C-336.902,-369.179 -330.493,-393.325 -330.818,-405.251C-331.144,-417.177 -336.816,-431.776 -345.252,-441.793C-355.383,-453.823 -380.196,-474.16 -391.606,-477.429C-400.354,-479.935 -416.641,-470.022 -413.71,-461.407C-409.976,-450.434 -364.81,-429.909 -369.206,-411.595C-376.188,-382.509 -349.698,-371.294 -343.3,-370.237Z"/>
					</clipPath>
					<g clip-path="url(#_clip21)">
						<path d="M-359.23,-382.035C-357.404,-377.404 -346.511,-372.747 -345.004,-377.492C-342.829,-384.341 -339.325,-410.881 -346.178,-423.13C-353.032,-435.379 -383.086,-450.388 -386.125,-450.985C-389.164,-451.582 -368.357,-436.824 -364.412,-426.71C-359.93,-415.218 -362.465,-390.238 -359.23,-382.035Z" style="fill:#2e2e2e;"/>
					</g>
				</g>
				<g transform="matrix(1,-7.65714e-16,-7.65714e-16,-1,538.929,-9.70918)">
					<path d="M-343.3,-370.237C-336.902,-369.179 -330.493,-393.325 -330.818,-405.251C-331.144,-417.177 -336.816,-431.776 -345.252,-441.793C-355.383,-453.823 -380.196,-474.16 -391.606,-477.429C-400.354,-479.935 -416.641,-470.022 -413.71,-461.407C-409.976,-450.434 -364.81,-429.909 -369.206,-411.595C-376.188,-382.509 -349.698,-371.294 -343.3,-370.237Z" style="fill:#393838;"/>
					<clipPath id="_clip22">
						<path d="M-343.3,-370.237C-336.902,-369.179 -330.493,-393.325 -330.818,-405.251C-331.144,-417.177 -336.816,-431.776 -345.252,-441.793C-355.383,-453.823 -380.196,-474.16 -391.606,-477.429C-400.354,-479.935 -416.641,-470.022 -413.71,-461.407C-409.976,-450.434 -364.81,-429.909 -369.206,-411.595C-376.188,-382.509 -349.698,-371.294 -343.3,-370.237Z"/>
					</clipPath>
					<g clip-path="url(#_clip22)">
						<path d="M-359.23,-382.035C-357.404,-377.404 -346.511,-372.747 -345.004,-377.492C-342.829,-384.341 -339.325,-410.881 -346.178,-423.13C-353.032,-435.379 -383.086,-450.388 -386.125,-450.985C-389.164,-451.582 -368.357,-436.824 -364.412,-426.71C-359.93,-415.218 -362.465,-390.238 -359.23,-382.035Z" style="fill:#2e2e2e;"/>
					</g>
				</g>
			</g>
		</g>
		<g class="dialog-5">
			<path d=" M 543.54 442.992 Q 540.599 443.14 541.063 440.62 Q 543.711 436.979 544.778 433.505 C 545.844 430.03 545.91 377.421 546.635 363.537 Q 546.635 355.631 554.064 355.235 L 903.571 355.235 Q 910.69 356.026 911 363.537 Q 911 377.421 911 433.505 Q 909.452 441.806 903.571 442.992 C 816.881 442.992 678.687 442.992 543.54 442.992 Z " fill="rgb(57,56,56)"/>
			<g clip-path="url(#_clipPath_cd6GMJ8GaVQpHZEklPJY27QnsFp6XqOK)">
				<text transform="matrix(1,0,0,1,565,381.172)" style="font-family:monospace;font-weight:400;font-size:16px;font-style:normal;fill:#e8e8e8;stroke:none;">If you want to learn more about me, </text>
				<text transform="matrix(1,0,0,1,565,404.61)" style="font-family:monospace;font-weight:400;font-size:16px;font-style:normal;fill:#e8e8e8;stroke:none;">I'm @rightonhana everywhere, or </text>
				<text transform="matrix(1,0,0,1,565,428.047)" style="font-family:monospace;font-weight:400;font-size:16px;font-style:normal;fill:#e8e8e8;stroke:none;">you can go to 🔗 rightonhana.dev</text>
			</g>
			<defs>
				<clipPath id="_clipPath_cd6GMJ8GaVQpHZEklPJY27QnsFp6XqOK">
					<rect x="0" y="0" width="338.571" height="73" transform="matrix(1,0,0,1,565,362.618)"/>
				</clipPath>
			</defs>
		</g>
		<g class="dialog-4">
			<path d=" M 543.142 442.993 Q 540.662 443.118 541.053 440.993 Q 543.286 437.923 544.186 434.993 C 545.085 432.063 545.141 416.701 545.752 404.993 Q 545.752 398.326 552.016 397.993 L 823.736 397.993 Q 829.739 398.66 830 404.993 Q 830 416.701 830 434.993 Q 828.695 441.993 823.736 442.993 C 750.635 442.993 657.103 442.993 543.142 442.993 Z " fill="rgb(57,56,56)"/>
			<g clip-path="url(#_clipPath_Ms0lecwxuJ44rVCTRwPcoZdoHehpvDLq)">
				<text transform="matrix(1,0,0,1,559.408,426.799)" style="font-family:monospace;font-weight:400;font-size:16px;font-style:normal;fill:#e8e8e8;stroke:none;">My pronouns are She/Her 👩‍💻</text>
			</g>
			<defs>
				<clipPath id="_clipPath_Ms0lecwxuJ44rVCTRwPcoZdoHehpvDLq">
					<rect x="0" y="0" width="258.183" height="24.503" transform="matrix(1,0,0,1,559.408,408.245)"/>
				</clipPath>
			</defs>
		</g>
		<g class="dialog-3">
			<path d=" M 543.54 442.992 Q 540.599 443.14 541.063 440.62 Q 543.711 436.979 544.778 433.505 C 545.844 430.03 545.91 377.421 546.635 363.537 Q 546.635 355.631 554.064 355.235 L 903.571 355.235 Q 910.69 356.026 911 363.537 Q 911 377.421 911 433.505 Q 909.452 441.806 903.571 442.992 C 816.881 442.992 678.687 442.992 543.54 442.992 Z " fill="rgb(57,56,56)"/>
			<g clip-path="url(#_clipPath_cd6GMJ8GaVQpHZEklPJY27QnsFp6XqOK)">
				<text transform="matrix(1,0,0,1,565,381.172)" style="font-family:monospace;font-weight:400;font-size:16px;font-style:normal;fill:#e8e8e8;stroke:none;">I'm a Front-end Developer with </text>
				<text transform="matrix(1,0,0,1,565,404.61)" style="font-family:monospace;font-weight:400;font-size:16px;font-style:normal;fill:#e8e8e8;stroke:none;">experience in Angular, React and </text>
				<text transform="matrix(1,0,0,1,565,428.047)" style="font-family:monospace;font-weight:400;font-size:16px;font-style:normal;fill:#e8e8e8;stroke:none;">Svelte.</text>
			</g>
			<defs>
				<clipPath id="_clipPath_cd6GMJ8GaVQpHZEklPJY27QnsFp6XqOK">
					<rect x="0" y="0" width="338.571" height="73" transform="matrix(1,0,0,1,565,362.618)"/>
				</clipPath>
			</defs>
		</g>
		<g class="dialog-2">
			<path d=" M 543.742 442.16 Q 540.567 442.285 541.068 440.155 Q 543.927 437.077 545.078 434.139 C 546.23 431.202 546.301 394.748 547.084 383.011 Q 547.084 376.327 555.104 375.993 L 902.98 375.993 Q 910.666 376.661 911 383.011 Q 911 394.748 911 434.139 Q 909.329 441.157 902.98 442.16 C 809.39 442.16 689.644 442.16 543.742 442.16 Z " fill="rgb(57,56,56)"/>
			<g clip-path="url(#_clipPath_ESlM0h8RX5VXCFQgA5t80sqGiBmZNFpN)">
				<text transform="matrix(1,0,0,1,561.068,404.114)" style="font-family:monospace;font-weight:400;font-size:16px;font-style:normal;fill:#e8e8e8;stroke:none;">I'm born and raised in Argentina 🇦🇷 </text>
				<text transform="matrix(1,0,0,1,561.068,427.551)" style="font-family:monospace;font-weight:400;font-size:16px;font-style:normal;fill:#e8e8e8;stroke:none;">now living in Chicago, Illinois 🇺🇸</text>
			</g>
			<defs>
				<clipPath id="_clipPath_ESlM0h8RX5VXCFQgA5t80sqGiBmZNFpN">
					<rect x="0" y="0" width="341" height="46.875" transform="matrix(1,0,0,1,561.068,385.559)"/>
				</clipPath>
			</defs>
		</g>
		<g class="dialog-1">
			<path d=" M 543.297 442.993 Q 540.637 443.118 541.057 440.993 Q 543.452 437.923 544.417 434.993 C 545.382 432.063 545.441 416.701 546.097 404.993 Q 546.097 398.326 552.817 397.993 L 896.28 397.993 Q 902.72 398.66 903 404.993 Q 903 416.701 903 434.993 Q 901.6 441.993 896.28 442.993 C 817.868 442.993 665.54 442.993 543.297 442.993 Z " fill="rgb(57,56,56)"/>
			<g clip-path="url(#_clipPath_3D2gxkuakMBlARHwnRYqTgx1WEIpF5CZ)">
				<text transform="matrix(1,0,0,1,559,427.048)" style="font-family:monospace;font-weight:400;font-size:16px;font-style:normal;fill:#e8e8e8;stroke:none;">Hi there 👋 I'm Florencia Gonzalez</text>
			</g>
			<defs>
				<clipPath id="_clipPath_3D2gxkuakMBlARHwnRYqTgx1WEIpF5CZ">
					<rect x="0" y="0" width="350" height="24.007" transform="matrix(1,0,0,1,559,408.493)"/>
				</clipPath>
			</defs>
		</g>
	</g>
</svg>