<svg class="avatar"
	xmlns="http://www.w3.org/2000/svg"
	xmlns:xlink="http://www.w3.org/1999/xlink" style="isolation: isolate" viewBox="0 0 1024 512" width="1024pt" height="512pt">
	<style>
		.dialog-1 {
			opacity: 0;
			animation: greet 7s both;
		}

		.dialog-2 {
			opacity: 0;
			animation: from 7s both;
		}

		.dialog-3 {
			opacity: 0;
			animation: profession 7s both;
		}

		.dialog-4 {
			opacity: 0;
			animation: pronouns 7s both;
		}

		.dialog-5 {
			opacity: 0;
			animation: contact 7s both;
		}

		.eyelid {
			animation: eye 3s ease-in-out infinite;
			transform-origin: center;
		}

		.pupil {
			animation: pupil 15s ease-out infinite;
			transform-origin: center;
		}

		.eyebrow {
			animation: eyebrow 3s ease-in-out infinite;
			transform-origin: center;
		}

		.breath {
			animation: 2s ease-in-out infinite both breath;
		}

		.open-mouth {
			opacity: 0;
			animation: 0.3s step-start 0s 22 talk;
		}

		@keyframes greet {
			0% {
				opacity: 0;
				transform: translate(0, 0);
			}
			20% {
				opacity: 1;
				transform: translate(0, 0);
			}
			40% {
				opacity: 1;
				transform: translate(0, -78px);
			}
			60% {
				opacity: 1;
				transform: translate(0, -180px);
			}
			80% {
				opacity: 1;
				transform: translate(0, -234px);
			}
			100% {
				opacity: 1;
				transform: translate(0, -333px);
			}
		}

		@keyframes from {
			0%,
			20% {
				opacity: 0;
				transform: translate(0, 0);
			}
			40% {
				opacity: 1;
				transform: translate(0, 0);
			}
			60% {
				opacity: 1;
				transform: translate(0, -100px);
			}
			80% {
				opacity: 1;
				transform: translate(0, -155px);
			}
			100% {
				opacity: 1;
				transform: translate(0, -252px);
			}
		}

		@keyframes profession {
			0%,
			40% {
				opacity: 0;
				transform: translate(0, 0);
			}
			60% {
				opacity: 1;
				transform: translate(0, 0);
			}
			80% {
				opacity: 1;
				transform: translate(0, -56px);
			}
			100% {
				opacity: 1;
				transform: translate(0, -155px);
			}
		}

		@keyframes pronouns {
			0%,
			60% {
				opacity: 0;
				transform: translate(0, 0);
			}
			80% {
				opacity: 1;
				transform: translate(0, 0);
			}
			100% {
				opacity: 1;
				transform: translate(0, -99px);
			}
		}

		@keyframes contact {
			0%,
			80% {
				opacity: 0;
				transform: translate(0, 0);
			}
			100% {
				opacity: 1;
				transform: translate(0, 0);
			}
		}

		@keyframes eye {
			5%,
			20% {
				transform: scale(1, 1);
				stroke-width: 2px;
			}
			10%,
			15% {
				transform: scale(1, 0);
				stroke-width: 20px;
			}
		}

		@keyframes pupil {
			5%,
			20% {
				transform: translate(5px, -1px);
			}
			10%,
			15% {
				transform: translate(-5px, 1px);
			}
			20%,
			100% {
				transform: translate(0, 0);
			}
		}

		@keyframes eyebrow {
			0%,
			9% {
				transform: translate(0, 0);
			}
			10%,
			15% {
				transform: translate(0, 0.5px);
			}
			16%,
			100% {
				transform: translate(0, 0);
			}
		}

		@keyframes talk {
			50% {
				opacity: 1;
			}
		}

		@keyframes breath {
			from,
			to {
				transform: translateY(calc(var(--z, 1) * 2px));
			}
			50% {
				transform: translateY(0);
			}
		}
	</style>
	<defs>
		<clipPath id="a">
			<rect width="1024" height="512" />
		</clipPath>
	</defs>
	<g clip-path="url(#a)">
		<g>
			<g>
				<path fill="#865c52" d="M67.5 68.5a261 261 0 0 1 30.3 4.7s15.5 21.6 15.5 38.2c0 23.7-20.5 43-45.8 43-25.3 0-45.8-19.3-45.8-43 0-16.6 16.7-38.2 16.7-38.2s21.6-4.7 29.1-4.7Z"/>
				<clipPath id="b">
					<path d="M67.5 68.5a261 261 0 0 1 30.3 4.7s15.5 21.6 15.5 38.2c0 23.7-20.5 43-45.8 43-25.3 0-45.8-19.3-45.8-43 0-16.6 16.7-38.2 16.7-38.2s21.6-4.7 29.1-4.7Z"/>
				</clipPath>
				<g clip-path="url(#b)">
					<path fill="#b78859" d="M96.6 83.3c-.2 7.1-10.5 12.5-10.7 18.6-.1 6 9 12.2 9.8 17.7.7 5.4-5.5 10.4-5.3 15.4a41 41 0 0 0 6.2 14.3c18.2-14.6 20.2-41.2 21.1-62-12-13.6-21-8.9-21.1-4Z"/>
					<path fill="#c9a179" d="M109 82.4c-.1 7-10.5 12.5-10.6 18.5-.2 6 9 12.2 9.8 17.8.7 5.3-5.5 10.4-5.3 15.3a42 42 0 0 0 6.1 14.4c18.2-14.6 20.3-41.3 21.2-62-12-13.7-21-8.9-21.2-4Z"/>
				</g>
				<ellipse cx="68.8" cy="77.3" fill="#b0b0b0" rx="32.7" ry="21.1"/>
				<g>
					<path fill="#8b8b8b" d="m28 44 3.5 4.1s1.3-2.6 2.4-3.6c1.2-1 4.8-3.2 4.8-3.2L35 37.7s-3.5 1.7-4.7 2.8C29.2 41.7 28 44 28 44Z"/>
					<path fill="#e0e0e0" d="m13.3 26.2 4.8-4.3s16.5 16.3 24.7 25.8C51.5 57.8 63.3 87 63.3 87l-7.5 3s-10.3-25.8-18-36.2c-7.5-10-24.5-27.6-24.5-27.6Z"/>
					<clipPath id="c">
						<path d="m13.3 26.2 4.8-4.3s16.5 16.3 24.7 25.8C51.5 57.8 63.3 87 63.3 87l-7.5 3s-10.3-25.8-18-36.2c-7.5-10-24.5-27.6-24.5-27.6Z"/>
					</clipPath>
					<g clip-path="url(#c)">
						<path fill="#b0b0b0" d="m9.6 28.5 4.8-4.3S30.9 40.5 39 50c8.7 10 20.4 39.3 20.4 39.3l-7.5 3S41.7 66.5 34 56.1c-7.5-10-24.4-27.6-24.4-27.6Z"/>
					</g>
					<path fill="#b0b0b0" d="m38.7 41.3-3.6-3.6s-1.3 2.6-2.4 3.6c-1.2 1-4.8 2.7-4.8 2.7l3.6 4.1s3.5-1.7 4.7-2.8c1.2-1.1 2.5-4 2.5-4Z"/>
					<clipPath id="d">
						<path d="m38.7 41.3-3.6-3.6s-1.3 2.6-2.4 3.6c-1.2 1-4.8 2.7-4.8 2.7l3.6 4.1s3.5-1.7 4.7-2.8c1.2-1.1 2.5-4 2.5-4Z"/>
					</clipPath>
					<g clip-path="url(#d)">
						<path fill="#cbc3c3" d="m37.3 41-1.9-1.4s-.4 1.3-.9 1.8c-.4.5-2 1.4-2 1.4l1.9 1.7 2-1.5c.4-.6.9-2 .9-2Z"/>
					</g>
				</g>
				<ellipse cx="68.6" cy="73.3" fill="#e0e0e0" rx="31" ry="17.1"/>
				<clipPath id="e">
					<ellipse cx="68.6" cy="73.3" rx="31" ry="17.1"/>
				</clipPath>
				<g clip-path="url(#e)">
					<ellipse cx="68.3" cy="71" fill="#858585" rx="21.4" ry="11.1"/>
					<clipPath id="f">
						<ellipse cx="68.3" cy="71" rx="21.4" ry="11.1"/>
					</clipPath>
					<g clip-path="url(#f)">
						<ellipse cx="69.1" cy="78.5" fill="#96a520" rx="21.4" ry="11.1"/>
					</g>
					<path fill="#e0e0e0" d="M37.8 54.5c-7.5-10.1-3.2-15.6 5-6.2 6.4 7.4 16 28.6 18.1 33.1.6 1.3-10.3-3.5-10.8-4.5-2.5-5-8.3-17-12.3-22.4Z"/>
					<clipPath id="g">
						<path d="M37.8 54.5c-7.5-10.1-3.2-15.6 5-6.2 6.4 7.4 16 28.6 18.1 33.1.6 1.3-10.3-3.5-10.8-4.5-2.5-5-8.3-17-12.3-22.4Z"/>
					</clipPath>
					<g clip-path="url(#g)">
						<path fill="#b0b0b0" d="m9.6 28.5 4.8-4.3S30.9 40.5 39 50c8.7 10 20.4 39.3 20.4 39.3l-7.5 3S41.7 66.5 34 56.1c-7.5-10-24.4-27.6-24.4-27.6Z"/>
					</g>
				</g>
			</g>
			<g>
				<g>
					<path fill="#eab248" d="M1.2 420.6c-.7-1.4 7-10.6 7-10.6l31-84.2s-.4-6.7 1-7c1.4-.3 5.5 4.2 7.7 5 1.6.6 3.8-1 5.2-.2 1.5.7 2.2 3.5 3.7 4.9 1.6 1.4 4.5 1.7 5.7 3.5 1.3 1.7 1 4.8 2 6.9 1.1 2 3.4 3.7 4.3 5.6.8 1.7.2 4 1 5.7 1 2 3.8 3.7 4.2 5.6.5 2-1.5 4.5-1.5 6.2 0 1.5 2 2.6 1.8 4-.3 1.6-3 3.5-3.2 5.2-.3 1.8 2 3.7 1.5 5.5-.6 2-4 4.2-5 6.5-.8 2.3.8 5.2-.2 7.5-1 2.2-4.2 3.6-5.6 6-1.3 2.2-1.1 5.7-2.5 7.8-1.4 2-4.2 2.8-5.8 4.3-1.5 1.4-2.2 4-4 4.8-1.6 1-4.3-.3-6 .7-2 1-3.2 5-5.3 6-2 .8-5.2-1.2-7.2-.6-2 .5-3.4 3.4-4.9 3.6-1.5.2-2.5-2.3-4-2.3-1.8 0-4.7 3-6.7 2.7-2-.3-3.2-3.8-5.4-4.3-2.3-.5-8 2.7-8.8 1.2Z"/>
					<clipPath id="h">
						<path d="M1.2 420.6c-.7-1.4 7-10.6 7-10.6l31-84.2s-.4-6.7 1-7c1.4-.3 5.5 4.2 7.7 5 1.6.6 3.8-1 5.2-.2 1.5.7 2.2 3.5 3.7 4.9 1.6 1.4 4.5 1.7 5.7 3.5 1.3 1.7 1 4.8 2 6.9 1.1 2 3.4 3.7 4.3 5.6.8 1.7.2 4 1 5.7 1 2 3.8 3.7 4.2 5.6.5 2-1.5 4.5-1.5 6.2 0 1.5 2 2.6 1.8 4-.3 1.6-3 3.5-3.2 5.2-.3 1.8 2 3.7 1.5 5.5-.6 2-4 4.2-5 6.5-.8 2.3.8 5.2-.2 7.5-1 2.2-4.2 3.6-5.6 6-1.3 2.2-1.1 5.7-2.5 7.8-1.4 2-4.2 2.8-5.8 4.3-1.5 1.4-2.2 4-4 4.8-1.6 1-4.3-.3-6 .7-2 1-3.2 5-5.3 6-2 .8-5.2-1.2-7.2-.6-2 .5-3.4 3.4-4.9 3.6-1.5.2-2.5-2.3-4-2.3-1.8 0-4.7 3-6.7 2.7-2-.3-3.2-3.8-5.4-4.3-2.3-.5-8 2.7-8.8 1.2Z"/>
					</clipPath>
					<g fill="#e3a63f" clip-path="url(#h)">
						<path d="m28 425.8-6.8-14.3-2.5 1.9 2.5 10.8 6.8 1.6Z"/>
						<path d="M12 426.1v-13L8.3 411l-2 11 5.7 4Z"/>
						<path d="m38.3 422.9-9-12-4 1 6 11.5 7-.5Z"/>
						<path d="m48.2 418-8.5-9.8-4.2.8 5.7 9.6 7-.5Z"/>
						<path d="m60 409.4-12.8-8.2-3.4 2.6 9.9 8.5 6.3-2.9Z"/>
						<path d="M67 400.7 54.2 392l-2.2 4.5 8.7 7 6.3-2.8Z"/>
						<path d="m71.8 387.4-13-1.2-2.4 3.5 10.8 3 4.6-5.3Z"/>
						<path d="m76 375.5-15.2-2-.1 4.4 10.8 2.8 4.6-5.2Z"/>
						<path d="m75.8 357.6-15.2 7v4.4l14.5-4.4.7-7Z"/>
						<path d="m72.2 346.6-13.4 10 .8 3.8 12.8-6.8-.2-7Z"/>
						<path d="m66 337.5-10.3 8 .6 4.2 11.8-6.7-2.1-5.5Z"/>
						<path d="m57.8 326.8-7.7 10.5 1.7 3.9 9.4-12.2-3.4-2.2Z"/>
						<path d="m47.2 317.8-2.3 12.8 3.2 2.8 3.9-10.5-4.8-5Z"/>
						<path d="m38 315-1.6 13 3.4 2.5L43 320l-5-4.8Z"/>
					</g>
					<path fill="#db9c34" d="M5.7 414s7-30.8 12.5-45.5a535 535 0 0 1 21.3-43.8S53.5 339 57 348c3.7 9.5 7.8 23.4 4.7 33.6a57.4 57.4 0 0 1-23.4 27.8c-9.3 5.3-32.5 4.5-32.5 4.5Z"/>
					<clipPath id="i">
						<path d="M5.7 414s7-30.8 12.5-45.5a535 535 0 0 1 21.3-43.8S53.5 339 57 348c3.7 9.5 7.8 23.4 4.7 33.6a57.4 57.4 0 0 1-23.4 27.8c-9.3 5.3-32.5 4.5-32.5 4.5Z"/>
					</clipPath>
					<g clip-path="url(#i)">
						<path fill="#e9af43" d="M9.6 407.3c-2.8-6 6-26.7 10.9-39.5 4.9-12.9 12.9-35 18.5-38s12 12.4 15 20.3c3.3 8.2 6.8 20.3 4.1 29.1a49.8 49.8 0 0 1-20.3 24.1c-8 4.7-25.3 9.9-28.2 4Z"/>
						<path fill="#edb954" d="M13.3 402.2c-2.5-5.2 5.4-23.7 9.7-35 4.3-11.5 11.4-31.2 16.4-33.8 5-2.6 10.7 11 13.4 18 2.9 7.3 6 18 3.6 26a44.3 44.3 0 0 1-18 21.3c-7.2 4.2-22.5 8.8-25 3.5Z"/>
						<path fill="#ecc565" d="M21.3 390.1c-2-4 4-17.8 7.2-26.3 3.3-8.6 8.6-23.3 12.4-25.3 3.7-2 8 8.3 10 13.5 2.1 5.5 4.5 13.5 2.7 19.4a32 32 0 0 1-13.5 16c-5.4 3.2-16.9 6.7-18.8 2.7Z"/>
					</g>
				</g>
				<g>
					<path fill="#eab248" d="M21.5 400.8c-.1-1.6 10.7-6.9 10.7-6.9l62-64.7s2.3-6.4 3.8-6c1.4.2 3.3 6 5 7.6 1.3 1.2 3.9.6 5 1.9 1 1.3.5 4.1 1.3 6 .9 1.9 3.4 3.3 3.9 5.4.5 2.1-1 4.8-1 7.2.2 2.3 1.6 4.7 1.7 6.8 0 2-1.4 3.7-1.3 5.7 0 2.1 2 4.8 1.6 6.8-.4 2-3.3 3.5-4 5-.5 1.4.9 3.2 0 4.4-.8 1.3-4 2-5 3.5-.9 1.6.5 4.2-.7 5.7-1.4 1.6-5.4 2.1-7.1 4-1.7 1.7-1.4 5-3.2 6.7-1.8 1.6-5.4 1.6-7.6 3.2-2.1 1.6-3.3 4.9-5.4 6.2-2 1.2-5 .9-7.1 1.6-2 .7-3.6 2.7-5.5 2.9-1.9.1-3.8-2.1-5.9-1.9-2.2.3-4.9 3.4-7.2 3.4-2.2 0-4.3-3.1-6.3-3.4-2-.4-4.5 1.7-6 1.4-1.5-.4-1.3-3.2-2.8-3.8-1.7-.6-5.4.8-7.2-.2-1.7-1-1.3-4.7-3.2-6-2-1.5-8.5-.9-8.5-2.5Z"/>
					<clipPath id="j">
						<path d="M21.5 400.8c-.1-1.6 10.7-6.9 10.7-6.9l62-64.7s2.3-6.4 3.8-6c1.4.2 3.3 6 5 7.6 1.3 1.2 3.9.6 5 1.9 1 1.3.5 4.1 1.3 6 .9 1.9 3.4 3.3 3.9 5.4.5 2.1-1 4.8-1 7.2.2 2.3 1.6 4.7 1.7 6.8 0 2-1.4 3.7-1.3 5.7 0 2.1 2 4.8 1.6 6.8-.4 2-3.3 3.5-4 5-.5 1.4.9 3.2 0 4.4-.8 1.3-4 2-5 3.5-.9 1.6.5 4.2-.7 5.7-1.4 1.6-5.4 2.1-7.1 4-1.7 1.7-1.4 5-3.2 6.7-1.8 1.6-5.4 1.6-7.6 3.2-2.1 1.6-3.3 4.9-5.4 6.2-2 1.2-5 .9-7.1 1.6-2 .7-3.6 2.7-5.5 2.9-1.9.1-3.8-2.1-5.9-1.9-2.2.3-4.9 3.4-7.2 3.4-2.2 0-4.3-3.1-6.3-3.4-2-.4-4.5 1.7-6 1.4-1.5-.4-1.3-3.2-2.8-3.8-1.7-.6-5.4.8-7.2-.2-1.7-1-1.3-4.7-3.2-6-2-1.5-8.5-.9-8.5-2.5Z"/>
					</clipPath>
					<g fill="#e3a63f" clip-path="url(#j)">
						<path d="m44 416.3-.6-15.9-3 .7-2 11 5.5 4.2Z"/>
						<path d="m29.1 410.2 5.3-12-2.5-3.4-6.2 9.3 3.4 6Z"/>
						<path d="m54.5 417.7-3.4-14.5-4.1-.8 1 13 6.5 2.3Z"/>
						<path d="m65.5 417.3-3.8-12.5-4.1-1 1.3 11.1 6.6 2.4Z"/>
						<path d="m79.8 414-8.4-12.5-4.1 1 5.6 11.7 7-.1Z"/>
						<path d="m89.8 408.9-8.3-13.1-3.8 3.3 5 9.9 7-.1Z"/>
						<path d="m99.5 398.6-11.4-6.2-3.6 2.2 8.7 7 6.3-3Z"/>
						<path d="M108.1 389.4 95 381.5l-1.8 4 8.7 6.9 6.3-3Z"/>
						<path d="m115 373-16.7.3-1.7 4 15 1.7 3.4-6Z"/>
						<path d="m116.1 361.4-16.2 3.8-.8 3.8 14.4-1.1 2.6-6.5Z"/>
						<path d="m114.1 350.5-12.6 3.3-1.1 4 13.4-1.4.3-5.9Z"/>
						<path d="M111 337.5 99.6 344v4.3l13.4-7.4-2.2-3.4Z"/>
						<path d="m104.8 325-7.3 10.8 2 3.9 7.6-8.1-2.3-6.6Z"/>
						<path d="M97.5 318.8 90.8 330l2 3.7 7.4-8.4-2.7-6.5Z"/>
					</g>
					<path fill="#db9c34" d="M28.3 396.5S47 371 58 359.9c11.1-11.4 37-31.6 37-31.6s7.1 18.6 6.7 28.3c-.4 10.2-2.2 24.6-9.2 32.7a57.4 57.4 0 0 1-32.5 16c-10.7 1.2-31.6-8.8-31.6-8.8Z"/>
					<clipPath id="k">
						<path d="M28.3 396.5S47 371 58 359.9c11.1-11.4 37-31.6 37-31.6s7.1 18.6 6.7 28.3c-.4 10.2-2.2 24.6-9.2 32.7a57.4 57.4 0 0 1-32.5 16c-10.7 1.2-31.6-8.8-31.6-8.8Z"/>
					</clipPath>
					<g clip-path="url(#k)">
						<path fill="#e9af43" d="M34.6 392c-.3-6.6 16.1-22.1 25.7-31.8 9.6-10 25.8-27 32.1-27.5 6.4-.4 6.1 16.2 5.8 24.6-.4 8.8-2 21.3-8 28.4-6 7-19 12.8-28.3 13.9-9.2 1-27-1-27.3-7.7Z"/>
						<path fill="#edb954" d="M40 388.8c-.3-5.8 14.3-19.6 22.8-28.2 8.6-8.8 23-24 28.6-24.4 5.6-.4 5.4 14.4 5.1 21.8-.3 7.9-1.7 19-7.1 25.2a44.3 44.3 0 0 1-25.1 12.4c-8.3 1-24.1-1-24.4-6.8Z"/>
						<path fill="#ecc565" d="M52 380.9c0-4.4 10.9-14.7 17.2-21.2 6.5-6.6 17.3-18 21.5-18.3 4.2-.3 4 10.8 3.8 16.4-.2 5.9-1.3 14.2-5.3 19-4 4.6-12.7 8.5-18.8 9.2-6.2.7-18.1-.7-18.3-5.1Z"/>
					</g>
				</g>
			</g>
			<g>
				<path fill="#ecc565" d="M950.3 78.9c.4-2.2 2.6-4 4.6-4.8 3-1.2 9.7-1.7 13.5-2.5 3.2-.7 9.5-2.4 9.5-2.4l25.2 2.2s-2.1 6-4 8.6a109.2 109.2 0 0 1-15.8 17.7c-4.7 3.6-11.3 7.7-16.5 7-5.2-.6-12.2-6.5-15-10.8-2.6-4.3-2-11.8-1.5-15Z"/>
				<clipPath id="l">
					<path d="M950.3 78.9c.4-2.2 2.6-4 4.6-4.8 3-1.2 9.7-1.7 13.5-2.5 3.2-.7 9.5-2.4 9.5-2.4l25.2 2.2s-2.1 6-4 8.6a109.2 109.2 0 0 1-15.8 17.7c-4.7 3.6-11.3 7.7-16.5 7-5.2-.6-12.2-6.5-15-10.8-2.6-4.3-2-11.8-1.5-15Z"/>
				</clipPath>
				<g clip-path="url(#l)">
					<path fill="#edb954" d="M951.5 76.3c.3-2 2.3-3.6 4.2-4.3 2.7-1 8.7-1.5 12.1-2.3 2.9-.6 8.6-2.2 8.6-2.2l22.7 2s-2 5.5-3.6 7.8c-3 3.9-9.4 12.2-14.3 16-4.2 3.2-10.1 6.8-14.8 6.3-4.7-.6-11-6-13.5-9.8-2.4-3.8-1.8-10.6-1.4-13.5Z"/>
					<path fill="#e9af43" d="M957.6 78.2c.2-1.5 1.8-2.7 3.2-3.4 2-.8 6.6-1.3 9.2-2a135 135 0 0 0 6.5-1.8l17.1 1.2s-1.5 4.3-2.8 6.1a81.2 81.2 0 0 1-11 12.8c-3.3 2.6-7.8 5.5-11.4 5.2-3.5-.4-8.2-4.5-10-7.5-1.8-3-1.2-8.2-.8-10.6Z"/>
					<path fill="#db9c34" d="M961.3 77.7c.2-1.3 1.5-2.3 2.6-2.8 1.8-.7 5.5-1.1 7.7-1.6l5.3-1.5 14.2 1s-1.2 3.5-2.3 5c-2 2.6-6 8-9.1 10.5-2.8 2.2-6.5 4.6-9.4 4.3-3-.3-6.8-3.6-8.3-6.1-1.5-2.5-1-6.9-.7-8.8Z"/>
				</g>
				<path fill="#ecc565" d="M942.9 75.4c1.4-1.7 1.3-4.5.6-6.6-1-3-4.9-8.5-6.7-12a241 241 0 0 1-4.2-8.7l-18-18s-3.2 5.6-4 8.6c-1.2 5.4-3.6 16.8-3.3 23.5.2 6 1.3 13.6 5.2 17.2 3.8 3.6 12.8 5.1 17.9 4.5 5-.7 10.3-6 12.5-8.5Z"/>
				<clipPath id="m">
					<path d="M942.9 75.4c1.4-1.7 1.3-4.5.6-6.6-1-3-4.9-8.5-6.7-12a241 241 0 0 1-4.2-8.7l-18-18s-3.2 5.6-4 8.6c-1.2 5.4-3.6 16.8-3.3 23.5.2 6 1.3 13.6 5.2 17.2 3.8 3.6 12.8 5.1 17.9 4.5 5-.7 10.3-6 12.5-8.5Z"/>
				</clipPath>
				<g clip-path="url(#m)">
					<path fill="#edb954" d="M944 72.8c1.4-1.5 1.3-4 .7-6-1-2.7-4.4-7.6-6-10.7a218 218 0 0 1-3.9-8l-16.1-16s-3 4.9-3.6 7.7c-1.1 4.8-3.4 15-3.1 21.1.2 5.4 1.2 12.3 4.7 15.5 3.5 3.2 11.6 4.6 16.1 4 4.5-.6 9.3-5.4 11.3-7.6Z"/>
					<path fill="#e9af43" d="M938.7 69.4c1-1.2 1-3.1.5-4.6-.6-2.2-3.2-6-4.4-8.3-1-2-2.7-6.2-2.7-6.2L920 38s-2.3 3.9-2.8 6c-1 3.8-2.8 12-2.7 16.7.1 4.2.7 9.5 3.3 12 2.6 2.5 8.7 3.5 12.1 3 3.5-.6 7.1-4.5 8.7-6.3Z"/>
					<path fill="#db9c34" d="M936.7 66.2c.8-1 .8-2.6.4-3.8-.5-1.8-2.6-4.9-3.6-6.9l-2.3-5-9.9-10.3s-1.9 3.2-2.3 5c-.8 3.2-2.3 9.9-2.2 13.8 0 3.5.6 7.9 2.7 10 2.1 2 7.2 2.8 10 2.3 2.9-.4 6-3.6 7.2-5Z"/>
				</g>
				<path fill="#ecc565" d="M1002 73.6c-1.9 1.5-16-.1-21.3-.8-1 0-7-2-9.7-2.8-.8-.2-.4-1.5-.4-1.5l20.9-18.8 10.1-6.8s4.8 10.6 4.8 15.7-2.3 13.4-4.4 15Z"/>
				<clipPath id="n">
					<path d="M1002 73.6c-1.9 1.5-16-.1-21.3-.8-1 0-7-2-9.7-2.8-.8-.2-.4-1.5-.4-1.5l20.9-18.8 10.1-6.8s4.8 10.6 4.8 15.7-2.3 13.4-4.4 15Z"/>
				</clipPath>
				<g clip-path="url(#n)">
					<path fill="#edb954" d="M1001.5 69.5c-1.6 1.2-13.9-.1-18.6-.7-.8-.1-6-1.7-8.4-2.5-.7-.2-.4-1.3-.4-1.3l18.2-16.4 9-5.9s4 9.2 4 13.7c.1 4.5-2 11.6-3.8 13.1Z"/>
					<path fill="#e9af43" d="M999.3 66.6a57 57 0 0 1-16-.6l-7.2-2.1c-.6-.2-.3-1.2-.3-1.2l15.6-14 7.6-5s3.6 7.8 3.6 11.7c0 3.8-1.7 10-3.3 11.2Z"/>
					<path fill="#db9c34" d="M997.2 64.4a47.5 47.5 0 0 1-19.3-2.3c-.5-.2-.3-1-.3-1l13-11.6 6.4-4.2s3 6.5 3 9.7c0 3.2-1.5 8.3-2.8 9.4Z"/>
				</g>
				<path fill="#ecc565" d="M912.2 31.8c0 2.3 10.3 12 14.3 15.7.6.7 6 4.2 8.4 5.7.7.4 1.4-.7 1.4-.7l1-28-1.4-12.2s-11.1 3.1-15 6.4c-4 3.2-8.8 10.4-8.7 13Z"/>
				<clipPath id="o">
					<path d="M912.2 31.8c0 2.3 10.3 12 14.3 15.7.6.7 6 4.2 8.4 5.7.7.4 1.4-.7 1.4-.7l1-28-1.4-12.2s-11.1 3.1-15 6.4c-4 3.2-8.8 10.4-8.7 13Z"/>
				</clipPath>
				<g clip-path="url(#o)">
					<path fill="#edb954" d="M915.7 29.5c0 2 9 10.5 12.4 13.7.6.6 5.3 3.6 7.4 5 .6.3 1.2-.7 1.2-.7l.8-24.4-1.2-10.6s-9.7 2.7-13.1 5.6c-3.5 2.8-7.6 9-7.5 11.4Z"/>
					<path fill="#e9af43" d="M919.3 29.3c0 1.7 7.7 9 10.7 11.8.5.5 4.5 3 6.3 4.2.5.3 1-.5 1-.5l.7-21-1-9s-8.3 2.3-11.2 4.7c-3 2.5-6.6 7.8-6.5 9.8Z"/>
					<path fill="#db9c34" d="M922.4 29.5a47.5 47.5 0 0 0 14.1 13.3c.4.3.9-.4.9-.4l.6-17.5-.9-7.6s-6.9 2-9.4 4c-2.4 2-5.4 6.5-5.3 8.2Z"/>
				</g>
				<path fill="#ecc565" d="M988.5 22s7.2 6.5 10 10c2.5 3.2 7.5 9.5 6.8 10.8-1.7 3.4-10 7.5-15 11.6-5.7 4.5-14.8 12.3-18.7 14.7-1.4.8-3.3.2-4.9-.3-1.8-.5-6.4-3-6.4-3l11.4-28L988.5 22Z"/>
				<clipPath id="p">
					<path d="M988.5 22s7.2 6.5 10 10c2.5 3.2 7.5 9.5 6.8 10.8-1.7 3.4-10 7.5-15 11.6-5.7 4.5-14.8 12.3-18.7 14.7-1.4.8-3.3.2-4.9-.3-1.8-.5-6.4-3-6.4-3l11.4-28L988.5 22Z"/>
				</clipPath>
				<g clip-path="url(#p)">
					<path fill="#edb954" d="M987.5 21.3s6 5.7 8.2 9c2 3 6 8.8 5.4 10.1-1.7 3.3-9 7.8-13.7 12-5.2 4.6-13.6 12.5-17.2 15-1.3 1-2.9.4-4.2.1-1.7-.4-5.5-2.5-5.5-2.5l11.4-27.8 15.6-16Z"/>
					<path fill="#e9af43" d="M985.2 23.7s5 4.8 6.8 7.5c1.7 2.5 5.1 7.4 4.6 8.4-1.4 2.8-7.6 6.5-11.5 10-4.3 3.9-11.4 10.5-14.3 12.6-1 .8-2.5.3-3.6 0-1.3-.3-4.5-2-4.5-2l9.5-23.2 13-13.3Z"/>
					<path fill="#db9c34" d="M984.3 23.2s4.1 4 5.7 6.3c1.4 2 4.2 6.1 3.7 7-1.1 2.4-6.3 5.5-9.5 8.4-3.6 3.2-9.5 8.7-12 10.5-.8.6-2 .2-3 0-1-.3-3.7-1.8-3.7-1.8l8-19.3 10.8-11Z"/>
				</g>
				<path fill="#ecc565" d="M961.3 9.4s-9.5-1.4-14-1.2c-4 .1-12 .3-12.6 1.7-1.5 3.5.6 12.4.8 19 .1 7.1 0 19.1.7 23.7.3 1.6 2 2.6 3.3 3.5 1.6 1.1 6.4 3 6.4 3l14.3-26.7 1.1-23Z"/>
				<clipPath id="q">
					<path d="M961.3 9.4s-9.5-1.4-14-1.2c-4 .1-12 .3-12.6 1.7-1.5 3.5.6 12.4.8 19 .1 7.1 0 19.1.7 23.7.3 1.6 2 2.6 3.3 3.5 1.6 1.1 6.4 3 6.4 3l14.3-26.7 1.1-23Z"/>
				</clipPath>
				<g clip-path="url(#q)">
					<path fill="#edb954" d="M962.6 9.6s-8.3-.8-12.2-.4c-3.6.4-10.6 1-11.2 2.3-1.5 3.5-.1 12-.3 18.3-.2 6.9-.9 18.5-.5 22.8 0 1.5 1.5 2.5 2.6 3.3 1.4 1 5.5 2.5 5.5 2.5l14-26.5 2.1-22.3Z"/>
					<path fill="#e9af43" d="M962.2 13s-6.9-.7-10.1-.4c-3 .3-9 .8-9.4 2-1.2 2.8 0 10-.2 15.1-.2 5.8-.8 15.5-.5 19.1.1 1.3 1.3 2 2.3 2.7a32 32 0 0 0 4.5 2.2l11.6-22.2 1.8-18.5Z"/>
					<path fill="#db9c34" d="M963.2 13.4s-5.8-.6-8.5-.3c-2.5.2-7.4.7-7.8 1.6-1 2.4 0 8.3-.2 12.7-.2 4.8-.6 12.9-.4 15.9.1 1 1.1 1.7 1.9 2.2 1 .7 3.8 1.8 3.8 1.8l9.6-18.4 1.6-15.5Z"/>
				</g>
				<path fill="#ecc565" d="M951.2 63.5c3 1 8.3 3.7 11.3 1.3 4-3.2 9-15.1 12.7-20.4 2.8-4.1 6-8.7 9.7-11.4 3.5-2.5 13.8-2.7 12.1-4.6-.9-1.1-2.9-5.5-5.2-8a69 69 0 0 0-15-11.7c-4.9-2.3-18.3-3.1-19-1.5-.8 1.6 1.2 4.4 1 8.4-.4 5.2-4.3 15.7-6.5 22.2-1.8 5.5-5 13-6.4 16.4-.5 1.4-1.8 3-1.8 4-.1 1.8 4.3 4.3 7.1 5.3Z"/>
				<clipPath id="r">
					<path d="M951.2 63.5c3 1 8.3 3.7 11.3 1.3 4-3.2 9-15.1 12.7-20.4 2.8-4.1 6-8.7 9.7-11.4 3.5-2.5 13.8-2.7 12.1-4.6-.9-1.1-2.9-5.5-5.2-8a69 69 0 0 0-15-11.7c-4.9-2.3-18.3-3.1-19-1.5-.8 1.6 1.2 4.4 1 8.4-.4 5.2-4.3 15.7-6.5 22.2-1.8 5.5-5 13-6.4 16.4-.5 1.4-1.8 3-1.8 4-.1 1.8 4.3 4.3 7.1 5.3Z"/>
				</clipPath>
				<g clip-path="url(#r)">
					<path fill="#edb954" d="M952.5 60.4c2.8 1 7.6 3.4 10.4 1.3 3.7-3 8.3-14 11.7-19 2.7-3.8 5.7-8 9.1-10.5 3.2-2.4 12.7-2.5 11.2-4.3-.9-1-2.7-5-4.8-7.4a65 65 0 0 0-14-10.8c-4.4-2.1-16.9-2.9-17.6-1.4-.7 1.4 1.2 4 1 7.8-.4 4.8-4 14.5-6 20.5-1.7 5.2-4.7 12-6 15.2-.4 1.3-1.6 2.9-1.7 3.7 0 1.7 4 4 6.7 5Z"/>
					<path fill="#e9af43" d="M955 56.4c2.5.9 6.8 3 9.2 1 3.3-2.6 7.4-12.4 10.4-16.7 2.4-3.3 5-7.1 8-9.3 2.9-2 11.3-2.2 10-3.8-.8-.9-2.5-4.5-4.3-6.5a56.7 56.7 0 0 0-12.4-9.6c-4-1.9-15-2.5-15.5-1.2-.6 1.3 1 3.5.8 6.9-.3 4.2-3.5 12.8-5.3 18-1.5 4.7-4 10.8-5.2 13.5-.5 1.2-1.5 2.6-1.5 3.3-.1 1.5 3.5 3.5 5.8 4.4Z"/>
					<path fill="#db9c34" d="M957.6 51.8c2.2.8 6 2.7 8.2 1 3-2.4 6.6-11.1 9.3-15 2.1-3 4.5-6.4 7.2-8.3 2.5-1.9 10-2 8.8-3.4-.6-.8-2.1-4-3.8-5.8-2-2.2-7.7-7.1-11-8.6-3.5-1.7-13.4-2.3-14-1.1-.5 1.1 1 3.2.8 6.1-.2 3.8-3.1 11.5-4.7 16.3-1.4 4-3.7 9.5-4.7 12-.4 1-1.3 2.2-1.4 3 0 1.2 3.2 3 5.3 3.8Z"/>
				</g>
			</g>
			<g>
				<g fill="none" stroke-width="5">
					<path stroke="#a08a6f" d="M489.2 171.1s11.7-3.5 18.1-9.7c4.7-4.5 15-17.2 18.4-31.4"/>
					<path stroke="#a08a6f" d="M526.9 50.4s17 37-2.4 82"/>
					<path stroke="#af9e89" d="M445.1 161s21.2 6.8 40.8.3a111 111 0 0 0 34.1-22.4c4.7-4.3 15.5-18.2 15.5-18.2"/>
					<path stroke="#b89773" d="M482.2 212.3s21.3-21.8 35.3-43.7c14-21.8 26.6-57.2 25.7-65.5"/>
				</g>
				<g>
					<g>
						<path fill="#b4abac" d="M428.5 150.6c2.9 2 4 5.4 2.5 7.7-1.6 2.2-5.2 2.4-8.1.4-3-2-4-5.4-2.5-7.7 1.5-2.2 5.1-2.4 8-.4Zm-1.2 1.6c-2.2-1.5-3.5-1.4-4.7.3-1.2 1.8-.9 3 1.4 4.6 2.3 1.5 3.6 1.4 4.8-.3 1.2-1.8.8-3-1.5-4.6Z"/>
						<path fill="#4d4147" d="M412.4 132.9a22 22 0 0 1 4.9 30.6 22 22 0 0 1-30.5 5.2 22 22 0 0 1-5-30.6 22 22 0 0 1 30.6-5.2Z"/>
						<clipPath id="s">
							<path d="M412.4 132.9a22 22 0 0 1 4.9 30.6 22 22 0 0 1-30.5 5.2 22 22 0 0 1-5-30.6 22 22 0 0 1 30.6-5.2Z"/>
						</clipPath>
						<g clip-path="url(#s)">
							<path fill="#fbf3dd" d="M395.7 125.9s4.2 18 2.5 26.8a115 115 0 0 1-12.6 26l18.5 3.3s8.1-17.5 9.5-26.8c1.4-9.3-1.2-28.7-1.2-28.7l-16.7-.6Z"/>
						</g>
						<path fill="#998775" d="M449.2 158a23 23 0 0 1-2 8c-.5.8-2.4-.3-3.4-.4-1.3-.1-2.6.1-4.2-.2-1.6-.3-3-2.2-4.4-3.2l-4.2-3c-.8-.6-2-.8-2.5-1.8-.6-1.2-1-4.2-1-5.5.2-1 .8-2.5 1.7-2.3 1.2.3 4 3 5.7 4.1 1.4 1 3.2.7 4.5 1.1 1.1.4 2.2 1.1 3.4 1.4 1.1.4 2.1 2 3.2 2.3 1 .3 3-1.5 3.2-.5Z"/>
					</g>
					<g>
						<path fill="#9f9f9f" d="M469.6 172.9c3.3-1.4 6.8-.5 7.8 2s-.7 5.7-4 7c-3.2 1.5-6.8.5-7.8-2s.7-5.6 4-7Zm.8 1.8c-2.6 1-3.2 2.2-2.4 4.2.9 2 2.1 2.3 4.6 1.2 2.6-1 3.2-2.2 2.4-4.1-.9-2-2.1-2.4-4.6-1.3Z"/>
						<path fill="#574c54" d="M444.5 168.3a22.1 22.1 0 0 1 25.5 18 22.1 22.1 0 0 1-17.3 26 22.1 22.1 0 0 1-25.5-18 22.1 22.1 0 0 1 17.3-26Z"/>
						<clipPath id="t">
							<path d="M444.5 168.3a22.1 22.1 0 0 1 25.5 18 22.1 22.1 0 0 1-17.3 26 22.1 22.1 0 0 1-25.5-18 22.1 22.1 0 0 1 17.3-26Z"/>
						</clipPath>
						<g clip-path="url(#t)">
							<path fill="#f6eedc" d="M428 175.5s15.8 9.7 21 17.1c5.2 7.5 10 27.6 10 27.6l15.3-11.1s-7-18.3-12.8-25.9a143.8 143.8 0 0 0-21.6-19.4l-12 11.7Z"/>
						</g>
						<path fill="#948679" d="M473.7 171.4c-.2.9.3 3.8.8 4.7.5.9 1.5 4 2.7 4.3 1.3.4 3.8-1.8 4.7-2.2.8-.2 1.7-1.2 2.5-1.2.7 0 1.1 1.3 1.9 1.4.7 0 1-1.4 1.4-2 .5-.7 1-.8 1.7-.8s1.7.7 2.4.6c.7 0 1.6-1.2 1.4-2-.2-1.6-2.2-6.7-3.1-7.4-1-.6-1.6.8-2.5 1-.9.2-1.7.7-2.9.3a10 10 0 0 0-4.4 0c-.8.2-.8 1.5-1.4 2-.8.4-2.2.4-2.9 1-.7.4-2-.5-2.3.3Z"/>
					</g>
					<g>
						<path fill="#9f9f9f" d="M459.3 216.8c3.3-1.4 7 .2 8.5 3.5a6.5 6.5 0 0 1-3.4 8.5c-3.3 1.4-7-.2-8.4-3.5a6.5 6.5 0 0 1 3.3-8.5Zm1 2.4c-2.5 1.1-3 2.5-1.9 5 1.1 2.7 2.4 3.3 5 2.2 2.5-1 3-2.5 2-5-1.2-2.6-2.5-3.2-5-2.2Z"/>
						<path fill="#4c434d" d="M434.3 215.8a22.1 22.1 0 0 1 25.5 18 22.1 22.1 0 0 1-17.3 26 22.1 22.1 0 0 1-25.6-18 22.1 22.1 0 0 1 17.4-26Z"/>
						<clipPath id="u">
							<path d="M434.3 215.8a22.1 22.1 0 0 1 25.5 18 22.1 22.1 0 0 1-17.3 26 22.1 22.1 0 0 1-25.6-18 22.1 22.1 0 0 1 17.4-26Z"/>
						</clipPath>
						<g clip-path="url(#u)">
							<path fill="#e3d5bb" d="M417.7 223s16 9.7 21.1 17.1c5.2 7.4 10 27.6 10 27.6l15.3-11.1s-7.1-18.4-12.8-26c-5.8-7.5-21.6-19.4-21.6-19.4l-12 11.8Z"/>
						</g>
						<path fill="#948271" d="M463.3 215.7c-.9.1-2.1 1.8-2.1 3 0 1.3 1 3.5 1.9 4.7.9 1.2 2.4 3 3.6 2.6 1.2-.4 3.2-2.1 4.4-2.6 1.3-.4 1.7.3 2.8-.1 1.2-.4 1.8-3.8 3.5-4.8 1.6-1 5-.8 6.3-1.4 1-.5 1.2-1.8 1.8-2.6.7-1 3-2 2.3-3.1-.8-1.4-5.5-4.7-7-5-1.3-.3-1 2.6-2.3 3-1.3.6-4.1-.6-5.5 0-1.4.7-1.8 2.7-2.8 4-1 1.4-2.2.3-3.4.7-1.2.4-2.5 1.5-3.5 1.6Z"/>
					</g>
				</g>
				<g>
					<path fill="none" stroke="#af9e89" stroke-width="5" d="M529 48s6.5 14.8 9 33.5"/>
					<path fill="none" stroke="#a88f6f" stroke-width="5" d="M529.3 100.4c-12.4 13.5-25.7 30-58.8 27.8-33.2-2.2-43.5-28.7-48-39.3-3.5-8-4.2-22-1.8-32.9.7-3.6 6.7-18.2 9.8-19"/>
					<path fill="none" stroke="#b89773" stroke-width="5" d="M529 41.6s18.2 18.7 14.3 62.9"/>
					<path fill="none" stroke="#af9e89" stroke-width="5" d="M436.1 26.8s24-14.6 40.5-10.5 29.2 10.3 29.2 10.3"/>
					<path fill="none" stroke="#af9e89" stroke-width="5" d="M528.5 24.1s-17.6-6.2-21.7 1c-4 7.2 6.4 35 6.9 47.6.4 12.6 2 29-15 50.1"/>
					<path fill="none" stroke="#af9e89" stroke-width="5" d="M505.4 27.1s9.6 3.6 21.8 19.5"/>
					<path fill="none" stroke="#af9e89" stroke-width="5" d="M537.7 79.3c1.8 12 2 26-2.2 38.7"/>
					<path fill="none" stroke="#a08a6f" stroke-width="5" d="M428.6 39.6s11.7-18.8 49.7-16.5c38 2.4 48.4 27.9 51.5 31.2"/>
					<path fill="none" stroke="#af9e89" stroke-width="5" d="M496.8 124.8s-23.3 21-56-.2c-32.5-21-35.7-77-6.3-96.5"/>
					<path fill="none" stroke="#b89773" stroke-width="5" d="M457.4 125.5s-9.4-6.5-11-7.8a68.3 68.3 0 0 1-22.2-55.4c2.1-38.4 22.8-47.6 42.5-49.3a69.2 69.2 0 0 1 41 10.6"/>
					<path fill="none" stroke="#b89773" stroke-width="5" d="M459.6 127.1c.3-.4 25.7 20.2 53 9.7 27.4-10.6 35.7-44 37-52 1.5-7.9 3.6-24 2.1-46.1-1.4-22.1-17.2-11.1-17.3-12.4"/>
					<path fill="none" stroke="#b89773" stroke-width="5" d="M507.8 23.7s11 8.2 20.1 17.1"/>
					<path fill="none" stroke="#a88f6f" stroke-width="5" d="M530.7 33s-5.6 11.3-3 15c1 1.3 3 6.5 4.7 13.4 3 12.5 5 30.3-3 39-12.5 13.5-25.8 30-59 27.8-33-2.2-43.4-28.7-48-39.3"/>
					<path fill="none" stroke="#af9e89" stroke-width="5" d="M528.5 24.1s-17.6-6.2-21.7 1c-4 7.2 6.4 35 6.9 47.6"/>
					<path fill="#b5a184" d="M526.8 35.7c-1.4-1.6 2.4-5-2.3-7.8-4.4-2.5-8.3-1.6-8.1-5.8 0-.8-.4-3.2 1-3.7 2.7-.9 8.5.6 12.4 2 6 2 12.7-1 12.4 2.2-.3 3.3 2.5 5.8-2 7-4.5 1-7.6 7.4-7.7 8.4 0 1-4.7-1.2-5.7-2.3Z"/>
				</g>
			</g>
			<g>
				<path fill="#edb954" d="M728.5 271.3c11.4-5 32.3-18.4 41-19 2.4-.2 2.4 1.6 3.3 3.4 2.9 5.8 2.8 9 4.3 12.1 3.7 8.4-12 23.6-35 33.9-23 10.3-44.7 11.8-48.5 3.4-1.3-2.9-6.7-7-3.9-11 5.4-7.7 23.8-16.1 38.8-22.8Z"/>
				<clipPath id="v">
					<path d="M728.5 271.3c11.4-5 32.3-18.4 41-19 2.4-.2 2.4 1.6 3.3 3.4 2.9 5.8 2.8 9 4.3 12.1 3.7 8.4-12 23.6-35 33.9-23 10.3-44.7 11.8-48.5 3.4-1.3-2.9-6.7-7-3.9-11 5.4-7.7 23.8-16.1 38.8-22.8Z"/>
				</clipPath>
				<g clip-path="url(#v)">
					<path fill="#db9c34" d="M724 261.9c23.2-11.4 44.7-15.3 47.9-8.7 3.2 6.6-13 21.2-36.2 32.6-23.2 11.4-44.7 15.3-48 8.7-3.2-6.6 13-21.2 36.2-32.6Z"/>
				</g>
				<path fill="#4d2a11" d="M682.9 274.2s1.5 6.5 2.6 9.6c1.1 3.3.8 9 4.3 10 9 2.9 35-5 48.3-11.7 25.3-12.8 28.5-21.2 30.5-30.4.5-2.4-1.6-4.6-2.4-6.9l-2.7-7.5-80.6 37Z"/>
				<clipPath id="w">
					<path d="M682.9 274.2s1.5 6.5 2.6 9.6c1.1 3.3.8 9 4.3 10 9 2.9 35-5 48.3-11.7 25.3-12.8 28.5-21.2 30.5-30.4.5-2.4-1.6-4.6-2.4-6.9l-2.7-7.5-80.6 37Z"/>
				</clipPath>
				<g clip-path="url(#w)">
					<g fill="none" stroke="#fff" stroke-width="3">
						<path d="m691.2 280.2 8.2 2.8"/>
						<path d="m690.7 284.5 6.9 5.3"/>
						<path d="m703.5 281 6.9 5.3"/>
						<path d="m714.2 277-4.5 7.4"/>
						<path d="m697.6 278.5-3.3 5.3"/>
						<path d="m692.8 274.4-5.6 2.7"/>
						<path d="m703.9 275.8-2.4 2.7"/>
						<path d="m702 273.7-4.2.1"/>
						<path d="m706.2 286.1-6.2.6"/>
						<path d="m723.8 279.6 6.9 5.3"/>
						<path d="M734.6 275.5 730 283"/>
						<path d="m718 277-3.3 5.4"/>
						<path d="m713.2 273-5.7 2.6"/>
						<path d="m724.2 274.3-2.3 2.8"/>
						<path d="M722.4 272.3h-4.2"/>
						<path d="m726.5 284.7-6.2.5"/>
						<path d="m745.2 267.9-2 8.4"/>
						<path d="m734.2 271.5 8.2 2.9"/>
						<path d="m748.1 262.2 6 2"/>
						<path d="m749.3 256 6-1.4"/>
						<path d="m741.5 264 3.6.7"/>
						<path d="m741.7 261.3 3.3-2.6"/>
						<path d="m746.3 273.5 5.1-3.4"/>
						<path d="m726.4 265-6.8-5.2"/>
						<path d="m715.7 269.1 4.5-7.4"/>
						<path d="m732.3 267.6 3.3-5.3"/>
						<path d="m737 271.7 5.7-2.7"/>
						<path d="m726 270.4 2.4-2.8"/>
						<path d="M727.9 272.4h4.2"/>
						<path d="m723.7 256.9 6.2-.6"/>
						<path d="m741 258.8-6.2-.1"/>
						<path d="m760.4 252.5 8.7.9"/>
						<path d="M767.4 243.4v8.6"/>
						<path d="M754.1 253.5v6.2"/>
						<path d="m747.9 252.6-3.3 5.2"/>
						<path d="m758 247.8-.5 3.6"/>
						<path d="M764 244.5h-3.6"/>
						<path d="m755.3 247.1-3.5 2.3"/>
						<path d="m765.4 255.4-5 3.8"/>
					</g>
				</g>
				<g fill="none" stroke="#fff" stroke-width="3">
					<path d="m696.7 292.5-2.4 2.8"/>
					<path d="m683.9 282.8 6.3 6"/>
					<path d="m684.1 275.5.1 4.3"/>
					<path d="m686.6 290.9 2.6 3.4"/>
					<path d="M708.3 292h-4.2"/>
					<path d="m707.6 267.9-2.7 3.3"/>
					<path d="m696.7 292.5-2.4 2.8"/>
					<path d="m683.9 282.8 6.3 6"/>
					<path d="m684.1 275.5.1 4.3"/>
					<path d="m686.6 290.9 2.6 3.4"/>
					<path d="M708.3 292h-4.2"/>
					<path d="m724.7 287.8-2.3 2.8"/>
					<path d="m714.7 286.2 2.5 3.4"/>
					<path d="m736.4 287.4-4.3-.1"/>
					<path d="m757.6 269.4 3.5.7"/>
					<path d="m764.4 261.9.1 4.2"/>
					<path d="m748.2 276.4 3.3-2.7"/>
					<path d="m707.6 267.9-2.7 3.3"/>
				</g>
				<path fill="#e9af43" d="M709.6 226.5c23.9-10.2 46.4-11.2 50.2-2.1 1 2.4 6.2 8.7 4.4 12.2-5 9.3-24.7 18-42 25.4-15.5 6.6-31.7 13.6-41.4 12.3-5.2-.8-6.1-9.8-7.5-13-3.8-9 12.4-24.6 36.3-34.8Z"/>
				<clipPath id="x">
					<path d="M709.6 226.5c23.9-10.2 46.4-11.2 50.2-2.1 1 2.4 6.2 8.7 4.4 12.2-5 9.3-24.7 18-42 25.4-15.5 6.6-31.7 13.6-41.4 12.3-5.2-.8-6.1-9.8-7.5-13-3.8-9 12.4-24.6 36.3-34.8Z"/>
				</clipPath>
				<g clip-path="url(#x)">
					<path fill="#edb954" d="M709.9 225.6c24.4-10.4 46.6-13.3 49.5-6.5 2.9 6.8-14.6 20.7-39 31.1-24.5 10.4-46.7 13.4-49.6 6.6-2.9-6.8 14.6-20.7 39-31.2Z"/>
				</g>
			</g>
			<g>
				<path fill="#462f28" d="M749.1 512.6s66.9-19 101-25.2c46.2-8.4 175.9-25.2 175.9-25.2v61H755l-5.9-10.6Z"/>
				<path fill="#8d6059" d="M934 377.3c40.2-.6 73.2 27.2 73.6 62 .1 9 7.2 22.5 3.3 30.3-11 22.3-23.2 38.8-53 39.2-15.4.2-68 8-80 1-19-11-15.5-47.3-15.8-68.6-.5-34.8 31.8-63.4 72-64Z"/>
				<clipPath id="y">
					<path d="M934 377.3c40.2-.6 73.2 27.2 73.6 62 .1 9 7.2 22.5 3.3 30.3-11 22.3-23.2 38.8-53 39.2-15.4.2-68 8-80 1-19-11-15.5-47.3-15.8-68.6-.5-34.8 31.8-63.4 72-64Z"/>
				</clipPath>
				<g clip-path="url(#y)">
					<path fill="#805846" d="m931.3 478.6 46.6-2.2 3.5 31.2-49.7 6-4.4-17.1 4-17.9Z"/>
					<path fill="#a47661" d="M935.4 478.6c10.6-.2 29.6.3 38.3-1.1 5-.8 16-5.2 13.6-7-2.4-2-22.2-2.7-28-4.3-3-1-5.9-3.2-7.4-6a37 37 0 0 1-4-15c0-8 1-25.4 3.4-33.4 1.7-5.9 9.1-10.6 10.9-14.8 1.3-3-.1-7-.1-10.2 0-2.8 2.7-8.6-.1-8.5-16.7.2-65-4.1-80.5 5.6-13.9 8.8-33.3 38.7-25.6 53.2 7.9 15 43 34.3 54 41.2 7.2 4.6 17 .4 25.5.3Z"/>
					<path fill="#a77156" d="M974.2 509.6s-2.7-24.1.3-29.6c3-5.6 12.5-6 17.3-10.8a98 98 0 0 0 13.2-19.9c.9-1.6 1.9-10.6 3.5-9.6 2 1.3 8.6 17.3 8.6 17.3l.1 11.9-11.5 33-31.5 7.7Z"/>
					<path fill="#704a44" d="M931.2 478.6c-3.4-6.2-14.8-8-20-11.3a55.2 55.2 0 0 1-11.4-9A79 79 0 0 1 888 442c-1.4-3.3 2.5-8.7-.1-11-2.6-2.3-11.2-2.4-15.3-2.8-3.1-.3-6.9 0-9.3.1H858l6.6 88.2 78.8-1s-10.1-5.8-11.7-10.8c-2-6.1 3-19.8-.4-26Z"/>
					<path fill="#533e42" d="M965.8 407.4c3.7 1 13.3 10 17.7 14.7 3.6 3.6 8.5 7.6 8.6 12.6 0 5-6.3 13.6-8.2 17.3-1 1.9-1.4 4.4-3.3 5.3-2 .8-6.4-.6-8.8 0-2 .7-3.1 3.5-5.2 4-2.7.7-8.4.8-10.7.2-1.6-.4-3-2.2-3-3.9a134.8 134.8 0 0 1 8.5-41.9c1-3 1.4-9.2 4.4-8.3Z"/>
				</g>
				<g>
					<path fill="#030d09" d="m909.6 356.8 15 19.2s-10.9 3.6-13 4.5c-.3.1-.3.8 0 1 .2.1 1 .1 1.6 0l12.6-4s15.6 1 18.7 1c.4 0 .4-1 0-1-3-.4-17.9-1.5-17.9-1.5l-15.8-20.3-1.2 1.1Z"/>
					<path fill="#141919" d="m923.1 368 15.1 19.2s-11 3.6-13.1 4.6c-.3 0-.3.7 0 .9.2.2 1.1.2 1.6 0 2.4-.6 12.6-3.9 12.6-3.9s15.6 1 18.8 1c.3 0 .3-1 0-1-3-.4-18-1.6-18-1.6L924.4 367l-1.2 1.2Z"/>
					<path fill="#c4bfad" d="m911.6 345.8-3.6 10.9-33.4 12v-8.2l37-14.7Z"/>
					<path fill="#8e3e24" d="M847.5 378.7s1.3 2.5 2.9 3.4c1.5 1 6.3 2.2 6.3 2.2l38.3-32.8-7.2-5.2-40.3 32.4Z"/>
					<path fill="#c3beae" d="M965.6 297.9s2.3-4.7 3.8-6.8c1.8-2.4 4.2-5.4 5.6-7.8a48 48 0 0 0 2.6-6.8l-6-2.2-11 2.2-4.4 6.8 2.7 10 6.7 4.6Z"/>
					<path fill="#8b3c29" d="M919 356.7c.4.4 1.3 5.8 1.6 7.7.2 1.3 0 4.3 2.5 4.2 2 0 2.4-2.7 3.5-4.2 2-2.7 3.8-8.9 7.5-12.1 4.5-3.9 13.5-6.7 18.4-11.2 4.7-4.3 9.2-9.6 11.1-15.8 2.3-7.3 2.3-28 2.3-28s-4.4-5.6-5.3-8.2c-.8-2.4 1.2-5.7 3-7.5 2.2-2 9.8-5.1 9.8-5.1v-7s-6.8-3.8-9.8-4.9c-2.6-.9-5.7-.9-8.4 0-3 1-7.7 3-9.7 6.2-3.5 5.7-6.5 17.3-11.4 23-4.2 4.9-12.9 8-17.8 11.1-4.5 2.9-8 7-11.7 10.9-4 4.2-9.2 9.4-12.7 14.5-3.4 5-8 16.1-8 16.1l-3.4 5.9 11.4 1.8 10.3-4.4 8.7-3.3s-3.4 8.1-3.4 10.3c0 1.5 2.6 2.4 3.4 3 .6.2 1.5.4 1.8 0 .3-.6.4-2.6 1.3-3 1.3-.5 4.4-.9 5 0Z"/>
					<clipPath id="z">
						<path d="M919 356.7c.4.4 1.3 5.8 1.6 7.7.2 1.3 0 4.3 2.5 4.2 2 0 2.4-2.7 3.5-4.2 2-2.7 3.8-8.9 7.5-12.1 4.5-3.9 13.5-6.7 18.4-11.2 4.7-4.3 9.2-9.6 11.1-15.8 2.3-7.3 2.3-28 2.3-28s-4.4-5.6-5.3-8.2c-.8-2.4 1.2-5.7 3-7.5 2.2-2 9.8-5.1 9.8-5.1v-7s-6.8-3.8-9.8-4.9c-2.6-.9-5.7-.9-8.4 0-3 1-7.7 3-9.7 6.2-3.5 5.7-6.5 17.3-11.4 23-4.2 4.9-12.9 8-17.8 11.1-4.5 2.9-8 7-11.7 10.9-4 4.2-9.2 9.4-12.7 14.5-3.4 5-8 16.1-8 16.1l-3.4 5.9 11.4 1.8 10.3-4.4 8.7-3.3s-3.4 8.1-3.4 10.3c0 1.5 2.6 2.4 3.4 3 .6.2 1.5.4 1.8 0 .3-.6.4-2.6 1.3-3 1.3-.5 4.4-.9 5 0Z"/>
					</clipPath>
					<g clip-path="url(#z)">
						<path fill="#551f1c" d="M955.2 318s-.6 7.1-2.7 9.8c-2.2 2.6-6.6 4.3-10.1 6.1-6.1 3.2-18 9.4-26.5 12.8-8 3-24.4 7.6-24.4 7.6h-10.2l5.2-17.2 17.1-22s-5.8 18-4.5 18.8c.7.5 11.4-9.1 11.4-9.1s3.5 4 5.4 4.8c3.7 1.7 10 2 14.4 2 3 0 9.4-2.7 12-3.8 3.7-1.7 13-9.8 13-9.8Z"/>
						<path fill="#782b1c" d="M952.6 276.5c-.2 1-.3 5.3.4 6.4.5 1 2.3.3 3.4.4 1.3 0 3 .5 4.3 0 1.6-.6 5.8-3.2 5.3-3.5-.6-.4-6.8 1.2-8.7 1.3-.8 0-1.9.1-2.4-.5-.6-.7-.5-3-.9-3.6-.2-.4-1.3-1-1.4-.5Z"/>
					</g>
					<ellipse cx="962.7" cy="272.4" fill="#231d1a" rx="3.5" ry="2.6"/>
					<clipPath id="A">
						<ellipse cx="962.7" cy="272.4" rx="3.5" ry="2.6"/>
					</clipPath>
					<g clip-path="url(#A)">
						<ellipse cx="963.2" cy="271.5" fill="#ada4a0" rx="1.3" ry="1.1"/>
					</g>
					<path fill="#09120f" d="M994.3 277.9c-3.6.2-18.1 1.3-21.7-.1-2.7-1 .4-8.5.4-8.5s20 .5 24.1.9c.5 0 .5 1.3 0 1.4-3 .7-15.3 1.9-18.4 2.6-.5 0-1 1.2 0 1.4 3.6.4 13.5.4 15.6.9.4 0 .4 1.3 0 1.4Z"/>
				</g>
			</g>
			<g>
				<path fill="#794d25" d="M486.6 353.3c1.8.9 4 2.7 5.3 4.6 7 10 30 44.9 36.4 55.8a32 32 0 0 1 3.4 8.8c.7 2.9 1 7.3 1 9.4 0 4.8-10.4 12.5-16.6 16.6a58 58 0 0 1-20.6 7.6c-3.2.4-7.4-1.6-10.3-3.3a22.6 22.6 0 0 1-6.5-6.8 1325 1325 0 0 1-36.4-55.7c-1.3-2.2-1.2-5.3-1-7.6.3-2.2 2.3-4.7 2.3-6.2 0-1.1-1.9-2.9-1.9-2.9l37.2-24.2s.9 2.3 1.9 2.9c1.3.6 4 0 5.8 1Z"/>
				<clipPath id="B">
					<path d="M486.6 353.3c1.8.9 4 2.7 5.3 4.6 7 10 30 44.9 36.4 55.8a32 32 0 0 1 3.4 8.8c.7 2.9 1 7.3 1 9.4 0 4.8-10.4 12.5-16.6 16.6a58 58 0 0 1-20.6 7.6c-3.2.4-7.4-1.6-10.3-3.3a22.6 22.6 0 0 1-6.5-6.8 1325 1325 0 0 1-36.4-55.7c-1.3-2.2-1.2-5.3-1-7.6.3-2.2 2.3-4.7 2.3-6.2 0-1.1-1.9-2.9-1.9-2.9l37.2-24.2s.9 2.3 1.9 2.9c1.3.6 4 0 5.8 1Z"/>
				</clipPath>
				<g clip-path="url(#B)">
					<path fill="#71441b" d="M490 345.4c1.8 1 4 2.7 5.3 4.7 7 10 30 44.8 36.3 55.7a32 32 0 0 1 3.5 8.9c.7 2.8 1 7.2 1 9.3 0 4.8-10.4 12.6-16.6 16.6-6.2 4-13.7 10-18.7 10.6-3.2.4-7.6-1.5-10.4-3.1-2.8-1.7-4.5-4.3-6.4-7-7.4-10.2-27.6-41.2-33.8-51.7-1.3-2.2-1.2-5.3-1-7.6.2-2.2 2.2-4.7 2.3-6.2 0-1.1-6.4-9.8-6.4-9.8l37.2-24.2s.8 2.3 1.8 2.8c1.3.7 4 .1 5.8 1Z"/>
					<path fill="#613d1c" d="M496 333c1.8 1 4 2.7 5.3 4.7 7 10 30 44.8 36.4 55.7a32 32 0 0 1 3.4 8.9c.7 2.8 1 7.2 1 9.3 0 4.8-8.5 15.6-14.7 19.6-6.1 4-13.7 10-18.6 10.6-3.3.4-6.6 0-9.4-1.6-2.8-1.7-5.6-5.8-7.5-8.5a948 948 0 0 1-30.5-46.8c-1.3-2.2-1.2-5.2-1-7.5.2-2.2 2.2-4.7 2.3-6.3 0-1.1-11.6-17.7-11.6-17.7l37.2-24.2s.8 2.3 1.9 2.8c1.2.7 4 .1 5.7 1Z"/>
					<path fill="#3d3935" d="M458.3 434.2s28.9-4.1 40.8-11.9c13.6-8.9 28.4-33.3 28.4-33.3l-15.1-23.2L443 411l15.2 23.2Z"/>
					<g fill="#eee">
						<path d="M462.2 409.6c-.2-.6 0-1.6.6-2a66 66 0 0 1 8.7-4.3c2.8-1 7.7 2.7 8.8 5.4 1.2 2.6.7 9-1.8 10.4a64.5 64.5 0 0 1-8 4c-.6.2-1.5-.1-1.8-.7a153 153 0 0 1-6.5-12.8Zm6.8.3 2.7 6.1s2-.4 2.3-1.1c.5-1 .8-3.3.4-4.3s-1.9-1.9-2.8-2c-.9 0-2.6 1.3-2.6 1.3Z"/>
						<path d="M478.3 401.5c-.3-.6-.2-1.6.4-2a66 66 0 0 1 8.2-5.3c2.5-1.4 7.8 1.8 9.3 4.3 1.4 2.5 1.7 8.9-.6 10.6-1.7 1.3-6 4.2-7.6 4.9-.6.3-1.4 0-1.8-.5-1.6-2-6.6-9.7-7.9-12Zm6.8-.4 3.3 5.7s2-.6 2.2-1.4c.4-1 .4-3.3-.1-4.3s-2-1.6-3-1.6c-.9 0-2.4 1.6-2.4 1.6Z"/>
						<path d="M493.9 391.6s6.3 8.6 8 10.4c.6.6 1.7.7 2.4.3 1.5-.8 5.6-4 7-5.2.8-.8.4-2.8-.2-3.6-.6-.7-2.3-1.6-3.3-1-1.1 1-3.8 3-3.8 3l-5.5-7.4s-2-1.8-3.7-.4c-2.2 1.7-1 3.9-1 3.9Z"/>
					</g>
				</g>
				<g>
					<path fill="#2e2e2e" d="M453.8 348.8c6-3.9 14.5-7 19-8.1 3.8-1 6 5.7 7 7.2 2.2 3.3-5 11.8-16 19-11 7.2-21.7 10.3-23.8 7-.9-1.3-4-5.5-3.2-8.4 1.1-4.6 10.2-12.3 17-16.7Z"/>
					<path fill="#171717" d="M452.6 348.3c9.8-6.4 19-9.8 20.4-7.6 1.4 2.2-5.4 9.2-15.2 15.6-9.9 6.4-19 9.9-20.5 7.7-1.4-2.2 5.4-9.2 15.3-15.7Z"/>
				</g>
			</g>
			<g>
				<g>
					<path fill="#fdfdfd" d="m789.9 69.4-23 41 41.6 21.4L842 69.4l-11.7-12-40.4 12Z"/>
					<clipPath id="C">
						<path d="m789.9 69.4-23 41 41.6 21.4L842 69.4l-11.7-12-40.4 12Z"/>
					</clipPath>
					<g fill="#3982c5" clip-path="url(#C)">
						<path d="m776.7 121.2 35.8-63-15.7-2.8-35.5 56.3 15.4 9.5Z"/>
						<path d="m804.6 111.7 25.1-47h15.4l-15.4 33.8-25.1 13.2Z"/>
					</g>
					<path fill="#fff" d="M901.3 126s19.6 6.3 28.7 6.3c9 0 17.4-1.7 26.2-3.1 9.4-1.5 21.4-5.6 30-6 7-.5 21.1 0 21.1 0V80.8S996.1 77 990.7 77c-5.7 0-17 2.3-23.2 3.9-7.2 1.7-11 5.2-18.9 5.7-7.7.5-18.3-1-25.6 0-7.4 1-18.5 6-18.5 6l-3.2 33.5Z"/>
					<clipPath id="D">
						<path d="M901.3 126s19.6 6.3 28.7 6.3c9 0 17.4-1.7 26.2-3.1 9.4-1.5 21.4-5.6 30-6 7-.5 21.1 0 21.1 0V80.8S996.1 77 990.7 77c-5.7 0-17 2.3-23.2 3.9-7.2 1.7-11 5.2-18.9 5.7-7.7.5-18.3-1-25.6 0-7.4 1-18.5 6-18.5 6l-3.2 33.5Z"/>
					</clipPath>
					<g fill="#74acdf" clip-path="url(#D)">
						<path d="M899.7 132s19.6 6.2 28.7 6.2c9 0 17.4-1.7 26.3-3.1 9.3-1.5 21.4-5.6 29.9-6 7-.5 21.1 0 21.1 0l8.1-18.3s-9.7-3-15-3a193 193 0 0 0-29.7 3 302 302 0 0 1-34.7 5.7c-7.8.5-15.1-1-22.5 0-7.3 1-16 6-16 6l3.8 9.5Z"/>
						<path d="M901.5 94.4s19.5 6.2 28.7 6.2c9 0 17.4-1.6 26.2-3 9.4-1.6 21.4-5.7 30-6.2 7-.4 21.1 0 21.1 0V77.2s-11.2-3.8-16.6-3.8c-5.7 0-17 2.3-23.2 3.8-7.3 1.7-11 5.2-18.9 5.7-7.8.5-18.3-1-25.6 0-7.4 1-18.5 6-18.5 6l-3.2 5.5Z"/>
					</g>
					<path fill="#fff" d="M901.3 126 930 99l-28.7-6.6V126Z"/>
					<clipPath id="E">
						<path d="M901.3 126 930 99l-28.7-6.6V126Z"/>
					</clipPath>
					<g clip-path="url(#E)">
						<path fill="#3982c5" d="m926 91.8-33.5 20.9c-1.5 17.5 1.5 18.8 19.5 11.2 9.2-11.6 26.7-22.2 14-32.1Z"/>
					</g>
					<path fill="#fff" d="m782 155.2-15.1-44.8s17.2 2 25 0c7.7-1.9 14.5-7.4 21.6-11.5 7.2-4.1 14.5-8.6 21.5-13.4 7.4-5 15.7-12.6 23.2-17.2a88.4 88.4 0 0 1 21.5-10.6c8-2.3 19.6-2.7 26-3.2 4-.3 12.3 0 12.3 0l12 44.4h-12c-4.9 0-11.3-1.1-16.7 0a64.4 64.4 0 0 0-16 7c-6.2 3.2-14 8.2-20.7 12.6-6.7 4.3-13.2 8.9-19.8 13.3-6.8 4.6-14.7 10.3-21.2 14.2-5.9 3.4-11.6 7.7-18.3 9.2-6.9 1.5-23.4 0-23.4 0Z"/>
					<clipPath id="F">
						<path d="m782 155.2-15.1-44.8s17.2 2 25 0c7.7-1.9 14.5-7.4 21.6-11.5 7.2-4.1 14.5-8.6 21.5-13.4 7.4-5 15.7-12.6 23.2-17.2a88.4 88.4 0 0 1 21.5-10.6c8-2.3 19.6-2.7 26-3.2 4-.3 12.3 0 12.3 0l12 44.4h-12c-4.9 0-11.3-1.1-16.7 0a64.4 64.4 0 0 0-16 7c-6.2 3.2-14 8.2-20.7 12.6-6.7 4.3-13.2 8.9-19.8 13.3-6.8 4.6-14.7 10.3-21.2 14.2-5.9 3.4-11.6 7.7-18.3 9.2-6.9 1.5-23.4 0-23.4 0Z"/>
					</clipPath>
					<g fill="#74acdf" clip-path="url(#F)">
						<path d="m772.5 127-8.6-23.3s18.4 1.9 26.1 0c7.8-2 25.8-14 32.8-18 7.2-4.2 19-10.1 25.9-14.9 7.4-5.1 19.6-15.6 27-20.2 6.9-4.3 16.2-1.5 23.9-3.7 7.9-2.3 15.7 0 15.7 0l10.5 23.9h-17.3c-4.8 0-9.9-1.1-15.3 0a73.7 73.7 0 0 0-17.4 6.9c-6.1 3.2-13.9 8.3-20.6 12.6-6.7 4.3-13.2 9-19.9 13.4-6.8 4.5-14.6 10.2-21.2 14.1-5.9 3.5-11.6 7.7-18.2 9.2-7 1.5-23.4 0-23.4 0Z"/>
						<path d="m783.3 160.8-9.8-21.4s19.5 2 27.3 0c7.7-2 15-7.4 22.2-11.5 7.2-4.1 14.5-8.6 21.5-13.4 7.4-5 15.7-12.6 23.2-17.2a88.4 88.4 0 0 1 21.5-10.6c8-2.3 19.6-2.7 26-3.2 4-.3 12.3 0 12.3 0l5.5 20.2s-38.6 8-43.8 10.8c-6.1 3.3-23.3 11.9-30 16.2-6.7 4.3-19.1 18-25.7 22.5-6.9 4.6-50.2 7.6-50.2 7.6Z"/>
					</g>
				</g>
				<g>
					<path fill="#fdfdfd" d="m667.3 69.4 23 41-41.6 21.4-33.5-62.4 11.7-12 40.4 12Z"/>
					<clipPath id="G">
						<path d="m667.3 69.4 23 41-41.6 21.4-33.5-62.4 11.7-12 40.4 12Z"/>
					</clipPath>
					<g fill="#3982c5" clip-path="url(#G)">
						<path d="m680.5 121.2-35.8-63 15.7-2.8 35.5 56.3-15.4 9.5Z"/>
						<path d="m652.6 111.7-25-47H612l15.4 33.8 25.1 13.2Z"/>
					</g>
					<path fill="#fff" d="M555.9 126s-19.6 6.3-28.7 6.3c-9 0-17.4-1.7-26.2-3.1-9.4-1.5-21.4-5.6-30-6-7-.5-21.1 0-21.1 0V80.8S461 77 466.5 77c5.7 0 17 2.3 23.2 3.9 7.2 1.7 11 5.2 18.9 5.7 7.7.5 18.3-1 25.6 0 7.4 1 18.5 6 18.5 6l3.2 33.5Z"/>
					<clipPath id="H">
						<path d="M555.9 126s-19.6 6.3-28.7 6.3c-9 0-17.4-1.7-26.2-3.1-9.4-1.5-21.4-5.6-30-6-7-.5-21.1 0-21.1 0V80.8S461 77 466.5 77c5.7 0 17 2.3 23.2 3.9 7.2 1.7 11 5.2 18.9 5.7 7.7.5 18.3-1 25.6 0 7.4 1 18.5 6 18.5 6l3.2 33.5Z"/>
					</clipPath>
					<g fill="#74acdf" clip-path="url(#H)">
						<path d="M557.5 132s-19.6 6.2-28.7 6.2c-9 0-17.4-1.7-26.3-3.1-9.3-1.5-21.3-5.6-29.9-6-7-.5-21.1 0-21.1 0l-8.1-18.3s9.7-3 15-3a193 193 0 0 1 29.7 3c7.2 1.7 26.8 5.2 34.7 5.7 7.8.5 15.1-1 22.5 0s16 6 16 6l-3.8 9.5Z"/>
						<path d="M555.7 94.4s-19.5 6.2-28.7 6.2c-9 0-17.4-1.6-26.2-3-9.4-1.6-21.4-5.7-30-6.2-7-.4-21 0-21 0V77.2s11.1-3.8 16.5-3.8c5.7 0 17 2.3 23.3 3.8 7.2 1.7 10.8 5.2 18.8 5.7 7.8.5 18.3-1 25.6 0 7.4 1 18.5 6 18.5 6l3.2 5.5Z"/>
					</g>
					<path fill="#fff" d="m555.9 126-28.7-27 28.7-6.6V126Z"/>
					<clipPath id="I">
						<path d="m555.9 126-28.7-27 28.7-6.6V126Z"/>
					</clipPath>
					<g clip-path="url(#I)">
						<path fill="#3982c5" d="m531.2 91.8 33.5 20.9c1.5 17.5-1.5 18.8-19.5 11.2-9.2-11.6-26.7-22.2-14-32.1Z"/>
					</g>
					<path fill="#fff" d="m675.3 155.2 15-44.8s-17.1 2-25 0c-7.7-1.9-14.5-7.4-21.6-11.5-7.2-4.1-14.5-8.6-21.5-13.4-7.4-5-15.7-12.6-23.2-17.2a88.5 88.5 0 0 0-21.5-10.6c-8-2.3-19.6-2.7-26-3.2-4-.3-12.3 0-12.3 0l-12 44.4h12c4.9 0 11.3-1.1 16.7 0 5.5 1.2 11 4.2 16 7 6.2 3.2 14 8.2 20.7 12.6 6.7 4.3 13.2 8.9 19.8 13.3 6.8 4.6 14.7 10.3 21.2 14.2 5.9 3.4 11.6 7.7 18.3 9.2 6.9 1.5 23.4 0 23.4 0Z"/>
					<clipPath id="J">
						<path d="m675.3 155.2 15-44.8s-17.1 2-25 0c-7.7-1.9-14.5-7.4-21.6-11.5-7.2-4.1-14.5-8.6-21.5-13.4-7.4-5-15.7-12.6-23.2-17.2a88.5 88.5 0 0 0-21.5-10.6c-8-2.3-19.6-2.7-26-3.2-4-.3-12.3 0-12.3 0l-12 44.4h12c4.9 0 11.3-1.1 16.7 0 5.5 1.2 11 4.2 16 7 6.2 3.2 14 8.2 20.7 12.6 6.7 4.3 13.2 8.9 19.8 13.3 6.8 4.6 14.7 10.3 21.2 14.2 5.9 3.4 11.6 7.7 18.3 9.2 6.9 1.5 23.4 0 23.4 0Z"/>
					</clipPath>
					<g fill="#74acdf" clip-path="url(#J)">
						<path d="m684.8 127 8.5-23.3s-18.4 1.9-26.1 0c-7.8-2-25.8-14-32.8-18-7.2-4.2-18.9-10.1-25.9-14.9-7.4-5.1-19.6-15.6-27-20.2-6.9-4.3-16.2-1.5-23.9-3.7-7.9-2.3-15.7 0-15.7 0l-10.5 23.9h17.3c4.8 0 9.9-1.1 15.3 0a73.7 73.7 0 0 1 17.4 6.9c6.1 3.2 14 8.3 20.6 12.6 6.8 4.3 13.3 9 19.9 13.4 6.8 4.5 14.7 10.2 21.2 14.1 5.9 3.5 11.6 7.7 18.2 9.2 7 1.5 23.5 0 23.5 0Z"/>
						<path d="m674 160.8 9.7-21.4s-19.5 2-27.3 0c-7.7-2-15-7.4-22.2-11.5-7.2-4.1-14.5-8.6-21.5-13.4-7.4-5-15.7-12.6-23.1-17.2A88.4 88.4 0 0 0 568 86.7c-8-2.3-19.6-2.7-26-3.2-4-.3-12.3 0-12.3 0l-5.5 20.2s38.6 8 43.8 10.8c6.1 3.3 23.3 11.9 30 16.2 6.7 4.3 19.1 18 25.7 22.5 6.9 4.6 50.2 7.6 50.2 7.6Z"/>
					</g>
				</g>
				<path fill="#fff" d="m615 69.4 12.5-52s22.6-2.8 33.3 0c11.2 3.1 23 13.4 34 18.3 10 4.5 20.3 11 31.3 11s23.3-6.6 34.6-11c12.3-4.9 27.7-15.2 39.2-18.2 9.5-2.6 29.5 0 29.5 0l12.7 51.9S827.5 65 820 65a71 71 0 0 0-24.7 4.3c-10.6 4-27.4 15.5-38.9 19.9-9.6 3.6-20 6.4-30.3 6.4a97 97 0 0 1-31.4-6.4c-8.7-3.3-16.7-10.8-24.3-14-6.7-3-28.2-10.2-33.2-10.2-5.7 0-22.1 4.3-22.1 4.3Z"/>
				<clipPath id="K">
					<path d="m615 69.4 12.5-52s22.6-2.8 33.3 0c11.2 3.1 23 13.4 34 18.3 10 4.5 20.3 11 31.3 11s23.3-6.6 34.6-11c12.3-4.9 27.7-15.2 39.2-18.2 9.5-2.6 29.5 0 29.5 0l12.7 51.9S827.5 65 820 65a71 71 0 0 0-24.7 4.3c-10.6 4-27.4 15.5-38.9 19.9-9.6 3.6-20 6.4-30.3 6.4a97 97 0 0 1-31.4-6.4c-8.7-3.3-16.7-10.8-24.3-14-6.7-3-28.2-10.2-33.2-10.2-5.7 0-22.1 4.3-22.1 4.3Z"/>
				</clipPath>
				<g fill="#74acdf" clip-path="url(#K)">
					<path d="M615 46.7s20.7.2 30.5 2.8c10.8 3 22.8 10.2 34.5 14.7 13.5 5.2 31 17 46.9 17 15.9 0 34.8-11.8 48.4-17 11.3-4.4 21.4-12.3 33.3-14.7 12.3-2.4 40.5 0 40.5 0v26.7L726.9 99.3 612.3 73.5l2.8-26.8Z"/>
					<path d="M618.8 33s17.9-3 26.7-1.8c9.1 1.3 19 5.5 28 9.4 9 3.9 17.6 10.2 26.7 14 9 3.7 18.6 8.5 27.8 8.5s19.6-4.8 27.6-8.5c7.4-3.5 13.1-10.4 20.1-14a74.9 74.9 0 0 1 22-7.7c7.9-1.3 17.5 0 25.3 0h21.2l-9.6-19h-50.9S750 33.5 731.3 33c-20.4-.5-70.2-22.3-70.2-22.3-14.7-1.6-24.7 4.8-38.6 6.6L618.8 33Z"/>
				</g>
			</g>
		</g>
		<g>
			<g class="breath" style="--z: -3">
				<path d="M254.64,311.615C266.295,310.394 288.556,318.743 341.017,337.284L344.824,318.364C348.37,320.982 351.584,325.249 354.467,331.166C357.349,337.082 371.137,339.404 395.831,338.131C406.358,319.74 411.651,295.689 411.708,265.976C411.801,217.616 394.123,205.368 389.745,186.206C385.367,167.045 385.367,167.045 377.142,137.51C359.138,93.392 347.333,68.842 341.728,63.859C336.593,59.294 324.407,55.976 305.171,53.905C303.485,45.99 301.523,41.232 299.343,40.734C282.429,36.867 225.589,35.255 209.565,40.734C193.54,46.213 184.408,56.385 176,63.859C167.592,71.333 142.595,91.374 132,112C121.405,132.626 127.413,165.292 119.535,186.206C111.658,207.12 97.478,217.616 97.572,265.976C97.629,295.689 102.921,319.74 113.448,338.131C138.142,339.404 151.93,337.082 154.813,331.166C157.696,325.249 160.91,320.982 164.456,318.364L168.263,337.284C218.078,320.986 246.87,312.43 254.64,311.615Z" style="fill: #5e4038; fill-rule: nonzero" />
				<clipPath id="L">
					<path d="M254.64,311.615C266.295,310.394 288.556,318.743 341.017,337.284L344.824,318.364C348.37,320.982 351.584,325.249 354.467,331.166C357.349,337.082 371.137,339.404 395.831,338.131C406.358,319.74 411.651,295.689 411.708,265.976C411.801,217.616 394.123,205.368 389.745,186.206C385.367,167.045 385.367,167.045 377.142,137.51C359.138,93.392 347.333,68.842 341.728,63.859C336.593,59.294 324.407,55.976 305.171,53.905C303.485,45.99 301.523,41.232 299.343,40.734C282.429,36.867 225.589,35.255 209.565,40.734C193.54,46.213 184.408,56.385 176,63.859C167.592,71.333 142.595,91.374 132,112C121.405,132.626 127.413,165.292 119.535,186.206C111.658,207.12 97.478,217.616 97.572,265.976C97.629,295.689 102.921,319.74 113.448,338.131C138.142,339.404 151.93,337.082 154.813,331.166C157.696,325.249 160.91,320.982 164.456,318.364L168.263,337.284C218.078,320.986 246.87,312.43 254.64,311.615Z" />
				</clipPath>
				<g clip-path="url(#L)">
					<path d="M368,116C378.515,119.396 397.2,204.556 392.368,244.782C388.901,273.649 393.604,330.966 395.664,343.681C398.951,363.97 378.142,347.147 333.239,293.21C349.403,172.806 360.99,113.736 368,116Z" style="fill: #5b3c34; fill-rule: nonzero" />
					<path d="M375.031,352.878C394.098,323.297 391.431,248.631 367.031,128.878C231.76,104.502 162.427,100.502 159.031,116.878C153.936,141.441 117.324,330.371 143.031,348.878C168.737,367.385 346.43,397.248 375.031,352.878Z" style="fill: #462f28; fill-rule: nonzero" />
				</g>
			</g>
			<g transform="matrix(-0.312445,0.0724579,-0.085675,-0.369439,478.62,513.393)">
				<path d="M351.876,384.242L360.394,396.126L343.357,396.126L351.876,384.242Z" style="fill: #1f2734" />
			</g>
			<g transform="matrix(0.443106,0.102759,0.085675,-0.369439,-21.2765,505.945)">
				<path d="M351.876,384.242L360.394,396.126L343.357,396.126L351.876,384.242Z" style="fill: #1f2734" />
			</g>
			<path d="M208.836,312.883C211.963,331.624 213.238,348.719 212.66,364.17C212.498,368.496 212.191,372.693 211.739,376.761C184.931,388.167 153.717,406.045 117.969,430.232L139.724,520.56L253.723,545.781L390.924,505.427L386.941,429.849C357.109,406.116 329.668,388.493 304.618,376.98C299.881,356.251 298.17,326.729 299.483,288.414L208.836,312.883Z" style="fill: #f8dec8; fill-rule: nonzero" />
			<g>
				<clipPath id="M">
					<path d="M208.836,312.883C211.963,331.624 213.238,348.719 212.66,364.17C212.498,368.496 212.191,372.693 211.739,376.761C184.931,388.167 153.717,406.045 117.969,430.232L139.724,520.56L253.723,545.781L390.924,505.427L386.941,429.849C357.109,406.116 329.668,388.493 304.618,376.98C299.881,356.251 298.17,326.729 299.483,288.414L208.836,312.883Z" />
				</clipPath>
				<g clip-path="url(#M)">
					<path class="breath" d="M315.141,300.669C315.141,300.669 276.046,367.884 238.878,387.33C201.709,406.777 131.173,395.539 131.173,395.539L132,284L311,240L315.141,300.669Z" style="fill: #f4ceba; fill-rule: nonzero" />
					<path class="breath" d="M324.183,318C324.183,318 283.54,355.991 252.084,368.192C231.268,376.266 167.027,316.152 167.027,316.152L164.555,270.006L366.483,256.509L324.183,318Z" style="
							fill: #cc9898;
							fill-opacity: 0.3;
							fill-rule: nonzero;
						" />
					<g transform="matrix(1,0,0,1,9,-8)">
						<path d="M274.316,430.563L295.211,418.143L344.588,413.679L274.316,430.563Z" style="
								fill: #cc9898;
								fill-opacity: 0.3;
								fill-rule: nonzero;
							" />
					</g>
					<g transform="matrix(-1,0,0,1,494.904,-8)">
						<path d="M274.316,430.563L295.211,418.143L344.588,413.679L274.316,430.563Z" style="
								fill: #cc9898;
								fill-opacity: 0.3;
								fill-rule: nonzero;
							" />
					</g>
				</g>
			</g>
			<g>
				<path fill="#e6e6e6" d="m141.5 414 32.2 87h154.6l38.6-87s59 29.9 65.9 47c6.9 17 11.2 27.8 17 55.4 5.3 26-383.9 8.7-383.9 8.7s3.4-41.7 18-64.2 57.6-47 57.6-47Z"/>
				<clipPath id="N">
					<path d="m141.5 414 32.2 87h154.6l38.6-87s59 29.9 65.9 47c6.9 17 11.2 27.8 17 55.4 5.3 26-383.9 8.7-383.9 8.7s3.4-41.7 18-64.2 57.6-47 57.6-47Z"/>
				</clipPath>
				<g fill="#a19f9e" clip-path="url(#N)">
					<path d="m373.8 501.8-12.4 30.8h14.2l-1.8-30.8Z"/>
					<path d="m140 499.2 10.6 35.4h-14.2l3.6-35.4Z"/>
				</g>
				<g>
					<path fill="#8db4d1" d="M155.4 406.3s-20.5 11.2-31.4 18.3c-11 7.3-14.4 10.4-13.4 18.5 1 8 19 6 15.6 17.3-3.4 11.3-6 19.5 6 32.8 12 13.2 26.3 2.3 41.3 6 15 3.6 20.8 16.6 43.7 17.4 22.8.8 37.4-18.5 48-18.5 10.5 0 29 16.7 51.5 13.1 22.5-3.6 13-25.5 27.1-31.6 14.2-6 35 3.2 50.6-15.3 15.5-18.4 9.4-27.3 2.1-33.3-7.2-6-26-14.8-26-14.8l-36 26.7-82.8 26-53-9.3-43.3-53.3Z"/>
					<path fill="#68889f" d="M156.1 406s37 64.3 102 57.6a152 152 0 0 0 100.7-55.3l16.7 10.3s6.6 21-5.5 33.2c-12 12.3-25.9-1.4-37.4 6.3-11.5 7.7-7.9 19-19.3 22.1-11.4 3-22.1-6.3-40.1-4-18 2.2-25.9 16.7-41.7 16.9-15.9.1-11.4-6.6-23.4-11.7-12-5-33 4.4-43.5-5.2-10.6-9.6-2-12.3-8.5-24.4-6.4-12-14-4.7-19.1-20-5.1-15.2 5.6-18.4 5.6-18.4l13.5-7.5Z"/>
				</g>
				<g>
					<g>
						<path fill="#f4a549" d="m322.5 385.6-17.9-8.6-.8-3.6 6.7-.4 24.7 12.6h-12.7Z"/>
						<path fill="#f4a549" d="M256.7 433.7s51-41 58.7-51.1c3.2-4.2-13.9-8-11.3-9.6 2.6-1.6 19.5-5.7 26.9 0 8.8 6.9 26.3 30 25 41.2-1.4 11.1-20 20.5-33 25.9-13.2 5.4-34.4 6.7-46.3 6.7a95 95 0 0 1-24.8-6.5l4.8-6.6Z"/>
						<clipPath id="O">
							<path d="M256.7 433.7s51-41 58.7-51.1c3.2-4.2-13.9-8-11.3-9.6 2.6-1.6 19.5-5.7 26.9 0 8.8 6.9 26.3 30 25 41.2-1.4 11.1-20 20.5-33 25.9-13.2 5.4-34.4 6.7-46.3 6.7a95 95 0 0 1-24.8-6.5l4.8-6.6Z"/>
						</clipPath>
						<g clip-path="url(#O)">
							<path fill="#c18638" d="M267.2 435.3s36.1 7.2 48.2 4c11-2.9 24.7-23.3 24.7-23.3s-15.5 11.5-24.7 14c-12 3.1-48.2 5.3-48.2 5.3Z"/>
							<path fill="#cf913f" d="M287.8 416s26.3-1.3 33.4-6.8c7.1-5.6 9.2-26.7 9.2-26.7s-9.2 16.4-16.3 22c-7 5.6-26.3 11.5-26.3 11.5Z"/>
						</g>
					</g>
					<g>
						<path fill="#916332" d="m187.5 387.9 24.4-11 .2-3.6-10.6-.3-24.7 12.6 10.7 2.3Z"/>
						<path fill="#f4a44b" d="M255.3 433.7s-51-41-58.7-51.1c-3.2-4.2 17.9-8 15.3-9.6-2.6-1.6-23.5-5.7-30.9 0-8.8 6.9-26.3 30-25 41.2 1.4 11.1 20.1 20.5 33 25.9 13.2 5.4 34.4 6.7 46.3 6.7a95 95 0 0 0 24.8-6.5l-4.8-6.6Z"/>
						<clipPath id="P">
							<path d="M255.3 433.7s-51-41-58.7-51.1c-3.2-4.2 17.9-8 15.3-9.6-2.6-1.6-23.5-5.7-30.9 0-8.8 6.9-26.3 30-25 41.2 1.4 11.1 20.1 20.5 33 25.9 13.2 5.4 34.4 6.7 46.3 6.7a95 95 0 0 0 24.8-6.5l-4.8-6.6Z"/>
						</clipPath>
						<g clip-path="url(#P)">
							<path class="breath" fill="#cf913f" fill-rule="nonzero" d="M315.1 300.7s-39 67.2-76.2 86.6c-37.2 19.5-107.7 8.2-107.7 8.2L132 284l179-44 4.1 60.7Z"/>
							<path fill="#c18638" d="M244.8 435.3s-36 7.2-48.2 4c-11-2.9-24.6-23.3-24.6-23.3s15.5 11.5 24.6 14c12.1 3.1 48.2 5.3 48.2 5.3Z"/>
							<path fill="#c68138" d="M224.2 416s-26.3-1.3-33.4-6.8c-7.1-5.6-9.2-26.7-9.2-26.7a99 99 0 0 0 16.3 22c7.1 5.6 26.3 11.5 26.3 11.5Z"/>
							<clipPath id="Q">
								<path d="M224.2 416s-26.3-1.3-33.4-6.8c-7.1-5.6-9.2-26.7-9.2-26.7a99 99 0 0 0 16.3 22c7.1 5.6 26.3 11.5 26.3 11.5Z"/>
							</clipPath>
							<g clip-path="url(#Q)">
								<path class="breath" fill="#b57c36" fill-rule="nonzero" d="M315.1 300.7s-39 67.2-76.2 86.6c-37.2 19.5-107.7 8.2-107.7 8.2L132 284l179-44 4.1 60.7Z"/>
							</g>
						</g>
					</g>
					<g>
						<path fill="#f0a34d" d="M254.7 444.7s-3.5 32.6-1.2 47.4c2.3 14.6 8.4 30 15.3 41.6 6.4 11 25.8 28.3 25.8 28.3s2.7-28.5 0-42.3a158 158 0 0 0-16-41.9c-6.4-12-23.9-33-23.9-33Z"/>
						<path fill="#f3a34c" d="M175.5 501s23.8-12.1 33.4-18.4c8.6-5.6 17.4-12.7 24-19 6-5.8 15.6-19.3 15.6-19.3l-6.7-10.2s-16.8 5.4-24.2 10.2a83 83 0 0 0-21.4 19.2c-7 9.5-20.7 37.6-20.7 37.6Z"/>
						<clipPath id="R">
							<path d="M175.5 501s23.8-12.1 33.4-18.4c8.6-5.6 17.4-12.7 24-19 6-5.8 15.6-19.3 15.6-19.3l-6.7-10.2s-16.8 5.4-24.2 10.2a83 83 0 0 0-21.4 19.2c-7 9.5-20.7 37.6-20.7 37.6Z"/>
						</clipPath>
						<g clip-path="url(#R)">
							<path fill="#cf913f" d="M237 444.3s-21.1 9.1-28 14.5a82.3 82.3 0 0 0-13.6 17.7s16.4-4 23.3-8.4c7-4.3 18.4-17.6 18.4-17.6v-6.2Z"/>
						</g>
						<path fill="#b57c36" d="M231.2 425a83.3 83.3 0 0 1 25.7-.4c3.5 1.7 5.7 11.5 5.7 17 0 5.4-3.1 13.8-5.7 15.7-2.7 2-22.3 2-25.7 0-2.5-1.4-4.7-10.3-4.7-15.7 0-5.4 2.6-14.8 4.7-16.7Z"/>
						<path fill="#efa753" d="M235.2 421.3a83.3 83.3 0 0 1 25.7-.4c3.5 1.8 5.7 11.5 5.7 17 0 5.4-3.1 13.8-5.7 15.8s-22.3 1.8-25.7 0c-2.4-1.4-4.6-10.4-4.6-15.8s2.5-14.8 4.6-16.6Z"/>
					</g>
				</g>
			</g>
			<g class="breath" style="--z: -0.6">
				<g>
					<path d="M336.775,263.249C338.292,269.24 357.553,264.121 361.549,262.185C365.545,260.25 367.88,252.615 374.172,244.529C378.813,238.564 385.383,233.463 386.78,226.964C388.176,220.466 384.571,191.169 377.685,190.946C368.482,190.818 361.575,193.012 356.964,197.527C352.353,202.042 350.085,206.027 350.16,209.482C340.225,241.333 335.763,259.255 336.775,263.249Z" style="fill: #f8d1bb; fill-rule: nonzero" />
					<g>
						<clipPath id="S">
							<path d="M336.775,263.249C338.292,269.24 357.553,264.121 361.549,262.185C365.545,260.25 367.88,252.615 374.172,244.529C378.813,238.564 385.383,233.463 386.78,226.964C388.176,220.466 384.571,191.169 377.685,190.946C368.482,190.818 361.575,193.012 356.964,197.527C352.353,202.042 350.085,206.027 350.16,209.482C340.225,241.333 335.763,259.255 336.775,263.249Z" />
						</clipPath>
						<g clip-path="url(#S)">
							<path d="M370.125,238.97C378.432,228.606 382.641,222.707 382.754,221.273C382.923,219.122 382.472,217.082 381.653,215.113C380.239,211.713 377.728,208.527 375.417,205.354C373.877,203.238 368.718,203.647 359.941,206.581L357.965,222.428L370.125,238.97Z" style="fill: #daaca3; fill-rule: nonzero" />
							<path d="M357.23,227.098C360.761,232.021 361.858,235.475 360.52,237.458C358.514,240.434 348.524,250.164 348.301,252.552C348.079,254.94 367.822,242.853 370.125,238.97C372.428,235.088 374.903,224.251 373.178,219.577C372.028,216.461 369.158,213.852 364.568,211.75L359.765,210.994L357.23,227.098Z" style="fill: #edbaa9; fill-rule: nonzero" />
						</g>
					</g>
					<g transform="matrix(-0.995001,0.0998695,0.0998695,0.995001,484.026,-12.3032)">
						<path d="M151.313,251.343C151.011,251.725 149.817,253.211 149.523,253.613C144.233,260.84 145.113,265.249 148.182,267.495C150.228,268.993 153.927,267.695 157.733,264.521" style="
								fill: none;
								fill-rule: nonzero;
								stroke: #423f3d;
								stroke-width: 4px;
								stroke-linecap: round;
							" />
					</g>
					<g transform="matrix(0.991444,-0.13053,0.13053,0.991444,-24.3152,52.2795)">
						<path d="M378.892,215.806C387.758,214.522 394.703,211.736 394.392,209.589C394.219,208.396 391.843,207.65 388.244,207.442" style="
								fill: none;
								fill-rule: nonzero;
								stroke: #595756;
								stroke-width: 4px;
								stroke-linecap: round;
							" />
					</g>
					<path d="M342.479,259.088C342.904,256.384 345.402,254.527 348.052,254.945C350.703,255.362 352.509,257.896 352.083,260.6C351.658,263.304 349.16,265.16 346.51,264.743C343.859,264.326 342.053,261.792 342.479,259.088Z" style="fill: #423f3d; fill-rule: nonzero" />
				</g>
				<g>
					<path d="M177.228,265.521C175.148,271.341 156.46,264.416 152.666,262.109C148.872,259.803 147.273,251.981 141.778,243.334C137.724,236.955 131.668,231.253 130.895,224.651C130.122,218.05 136.493,189.228 143.369,189.66C152.543,190.407 159.211,193.246 163.372,198.179C167.533,203.112 169.412,207.294 169.009,210.726C175.875,243.376 178.615,261.641 177.228,265.521Z" style="fill: #f8d1bb; fill-rule: nonzero" />
					<g>
						<clipPath id="T">
							<path d="M177.228,265.521C175.148,271.341 156.46,264.416 152.666,262.109C148.872,259.803 147.273,251.981 141.778,243.334C137.724,236.955 131.668,231.253 130.895,224.651C130.122,218.05 136.493,189.228 143.369,189.66C152.543,190.407 159.211,193.246 163.372,198.179C167.533,203.112 169.412,207.294 169.009,210.726C175.875,243.376 178.615,261.641 177.228,265.521Z" />
						</clipPath>
						<g clip-path="url(#T)">
							<path d="M146.334,238.185C139.049,227.078 135.419,220.806 135.443,219.368C135.478,217.211 136.121,215.222 137.124,213.34C138.854,210.091 141.657,207.157 144.258,204.217C145.992,202.258 151.007,202.258 159.304,204.217L160.01,222.872L146.334,238.185Z" style="fill: #daaca3; fill-rule: nonzero" />
							<path d="M160.298,227.59C156.315,232.157 154.896,235.491 156.039,237.592C157.753,240.744 166.775,251.38 166.769,253.778C166.763,256.176 148.258,242.268 146.334,238.185C144.41,234.102 142.975,223.078 145.136,218.589C146.577,215.596 149.682,213.272 154.451,211.615L159.304,211.319L160.298,227.59Z" style="fill: #edbaa9; fill-rule: nonzero" />
						</g>
					</g>
					<g transform="matrix(0.995001,0.0998695,-0.0998695,0.995001,27.2895,-12.4417)">
						<path d="M142.591,243.604C137.299,250.832 135.496,258.525 138.565,260.771C140.27,262.019 143.123,261.326 146.229,259.223" style="
								fill: none;
								fill-rule: nonzero;
								stroke: #3b3937;
								stroke-width: 4px;
								stroke-linecap: round;
							" />
					</g>
					<g transform="matrix(0.995001,0.0998695,-0.0998695,0.995001,27.2895,-12.4417)">
						<path d="M151.313,251.343C151.011,251.725 149.817,253.211 149.523,253.613C144.233,260.84 145.113,265.249 148.182,267.495C150.228,268.993 153.927,267.695 157.733,264.521" style="
								fill: none;
								fill-rule: nonzero;
								stroke: #423f3d;
								stroke-width: 4px;
								stroke-linecap: round;
							" />
					</g>
					<g transform="matrix(-0.859932,0.510409,-0.510409,-0.859932,595.204,305.866)">
						<path d="M342.479,259.088C342.904,256.384 345.402,254.527 348.052,254.945C350.703,255.362 352.509,257.896 352.083,260.6C351.658,263.304 349.16,265.16 346.51,264.743C343.859,264.326 342.053,261.792 342.479,259.088Z" style="fill: #423f3d; fill-rule: nonzero" />
					</g>
				</g>
			</g>
			<path class="breath" d="M158.089,154.004C148.037,189.49 165.202,285.426 179.789,303.38C194.376,321.334 231.978,351.093 242.312,354.739C252.646,358.384 260.164,354.404 267.02,352.732C273.876,351.059 310.845,327.867 326.343,305.824C341.841,283.78 340.236,279.257 345.908,264.058C351.58,248.86 380.621,175.057 361.709,128.855C342.798,82.653 318.809,63.841 276.736,60.188C234.663,56.536 212.005,72.65 189.569,94.053C167.133,115.456 168.142,118.519 158.089,154.004Z" style="fill: #f8ddc6; fill-rule: nonzero" />
			<g class="breath">
				<clipPath id="U">
					<path d="M158.089,154.004C148.037,189.49 165.202,285.426 179.789,303.38C194.376,321.334 231.978,351.093 242.312,354.739C252.646,358.384 260.164,354.404 267.02,352.732C273.876,351.059 310.845,327.867 326.343,305.824C341.841,283.78 340.236,279.257 345.908,264.058C351.58,248.86 380.621,175.057 361.709,128.855C342.798,82.653 318.809,63.841 276.736,60.188C234.663,56.536 212.005,72.65 189.569,94.053C167.133,115.456 168.142,118.519 158.089,154.004Z" />
				</clipPath>
				<g clip-path="url(#U)">
					<path d="M154.906,276.664C156.697,261.34 172.251,250.547 189.618,252.577C206.986,254.607 219.632,268.695 217.841,284.019C216.05,299.343 200.496,310.136 183.129,308.107C165.761,306.077 153.115,291.988 154.906,276.664Z" style="
							fill: #f4b9b0;
							fill-opacity: 0.5;
							fill-rule: nonzero;
						" />
					<path d="M297.849,287.531C294.061,272.576 304.747,256.948 321.698,252.655C338.648,248.361 355.485,257.018 359.273,271.974C363.061,286.93 352.375,302.558 335.425,306.851C318.474,311.144 301.637,302.487 297.849,287.531Z" style="
							fill: #f4b9b0;
							fill-opacity: 0.5;
							fill-rule: nonzero;
						" />
					<path d="M327.92,246.06C328.076,244.728 329.284,243.772 330.617,243.928C331.949,244.084 332.905,245.292 332.749,246.624C332.593,247.957 331.385,248.912 330.052,248.757C328.72,248.601 327.764,247.393 327.92,246.06Z" style="fill: #edbaa9; fill-rule: nonzero" />
					<path d="M239.625,289.582C239.781,288.25 240.989,287.294 242.321,287.45C243.654,287.606 244.609,288.814 244.453,290.147C244.298,291.479 243.089,292.434 241.757,292.279C240.424,292.123 239.469,290.915 239.625,289.582Z" style="fill: #edbaa9; fill-rule: nonzero" />
				</g>
			</g>
			<g class="nose breath" style="--z: 2">
				<path d="M257.838,225.55C256.19,225.542 254.551,226.875 252.921,229.55C247.614,256.468 245.159,271.062 245.556,273.332C245.952,275.602 250.046,279.399 257.838,284.724C265.609,279.025 269.664,275.227 270.003,273.332C270.342,271.437 267.926,256.843 262.756,229.55C261.126,226.891 259.487,225.558 257.838,225.55Z" style="fill: #f8d1bb; fill-rule: nonzero" />
				<path d="M262.756,276.929C264.296,279.551 267.519,280.521 269.947,279.095C272.376,277.668 273.097,274.381 271.557,271.759C270.701,270.302 269.326,269.355 267.857,269.046" style="
						fill: none;
						fill-rule: nonzero;
						stroke: #909090;
						stroke-width: 2px;
						stroke-linecap: round;
					" />
			</g>
			<g class="breath" style="--z: 1.25">
				<g class="mouth">
					<path d="M256,296.231C250.275,296.231 242.275,297.564 232,300.231C239.257,305.314 247.257,307.924 256,308.061C264.743,308.198 272.743,305.588 280,300.231C269.725,297.564 261.725,296.231 256,296.231Z" style="fill: #f4ceba; fill-rule: nonzero" />
					<g>
						<clipPath id="V">
							<path d="M256,296.231C250.275,296.231 242.275,297.564 232,300.231C239.257,305.314 247.257,307.924 256,308.061C264.743,308.198 272.743,305.588 280,300.231C269.725,297.564 261.725,296.231 256,296.231Z" />
						</clipPath>
						<g clip-path="url(#V)">
							<rect x="229.261" y="300" width="53.477" height="9.723" style="fill: #f3c5ad" />
						</g>
					</g>
				</g>
				<g class="open-mouth">
					<path d="M256,296.189C261.725,296.189 269.725,297.523 280,300.189C272.743,305.546 263.757,314.054 255.014,313.917C246.272,313.78 239.257,305.273 232,300.189C242.275,297.523 250.275,296.189 256,296.189Z" style="
							fill: #f4ceba;
							fill-opacity: 0.8;
							fill-rule: nonzero;
						" />
					<path d="M256.138,301.202C261.864,301.202 269.959,300.488 279.996,300.191C272.739,305.722 263.918,307.688 255.175,307.547C246.433,307.405 232.01,300.193 232.01,300.193C232.01,300.193 250.413,301.202 256.138,301.202Z" style="
							fill: #cc9898;
							fill-opacity: 0.3;
							fill-rule: nonzero;
						" />
					<path d="M255.229,307.58C260.954,307.58 270.681,303.419 280,300.189C272.743,305.546 264.282,314.431 255.539,314.295C246.796,314.158 239.257,305.273 232,300.189C242.219,301.651 249.504,307.58 255.229,307.58Z" style="fill: #f4ceba; fill-rule: nonzero" />
				</g>
			</g>
			<g class="breath" style="--z: 1.5">
				<path d="M228.158,215.173C232.954,222.078 235.189,230.033 234.864,239.037C230.364,242.088 223.278,244.424 220.694,245C218.11,245.576 209.109,246.401 196.086,242.012C191.297,240.399 186.201,237.539 180.8,233.433C182.773,224.67 185.508,217.959 189.007,213.3C195.945,204.061 204.699,202.077 207.653,202.118C210.607,202.16 223.448,205.417 228.158,215.173Z" style="fill: #fff; fill-opacity: 0.75; fill-rule: nonzero" />
				<g>
					<clipPath id="W">
						<path class="eyelid" d="M228.158,215.173C232.954,222.078 235.189,230.033 234.864,239.037C230.364,242.088 223.278,244.424 220.694,245C218.11,245.576 209.109,246.401 196.086,242.012C191.297,240.399 186.201,237.539 180.8,233.433C182.773,224.67 185.508,217.959 189.007,213.3C195.945,204.061 204.699,202.077 207.653,202.118C210.607,202.16 223.448,205.417 228.158,215.173Z" />
					</clipPath>
					<g clip-path="url(#W)">
						<g class="pupil">
							<path d="M190.57,224.205C190.529,212.159 198.64,202.351 208.673,202.317C218.706,202.282 226.884,212.034 226.926,224.08C226.967,236.126 218.856,245.934 208.823,245.969C198.79,246.003 190.612,236.251 190.57,224.205Z" style="fill: #566; fill-rule: nonzero" />
							<g>
								<clipPath id="X">
									<path d="M190.57,224.205C190.529,212.159 198.64,202.351 208.673,202.317C218.706,202.282 226.884,212.034 226.926,224.08C226.967,236.126 218.856,245.934 208.823,245.969C198.79,246.003 190.612,236.251 190.57,224.205Z" />
								</clipPath>
								<g clip-path="url(#X)">
									<g transform="matrix(1,-0.003,0.003,1,-0.81,0.734)">
										<rect x="187.828" y="223.191" width="50.339" height="25.379" style="fill: #58a2a2" />
									</g>
								</g>
							</g>
							<path d="M199.236,224.175C199.214,217.872 203.459,212.739 208.709,212.721C213.959,212.703 218.238,217.806 218.26,224.11C218.282,230.413 214.037,235.546 208.787,235.564C203.537,235.582 199.258,230.479 199.236,224.175Z" style="
									fill: none;
									fill-rule: nonzero;
									stroke: #fff;
									stroke-opacity: 0.75;
									stroke-width: 3px;
									stroke-linecap: square;
									stroke-linejoin: miter;
								" />
							<path d="M199.236,224.175C199.214,217.872 203.459,212.739 208.709,212.721C213.959,212.703 218.238,217.806 218.26,224.11C218.282,230.413 214.037,235.546 208.787,235.564C203.537,235.582 199.258,230.479 199.236,224.175Z" style="fill: #423f3d; fill-rule: nonzero" />
						</g>
					</g>
				</g>
				<path d="M292.256,214.263C287.245,221.014 284.759,228.894 284.8,237.905C289.203,241.096 296.211,243.654 298.776,244.312C301.34,244.969 310.311,246.077 323.466,242.101C328.303,240.639 333.486,237.941 339.014,234.008C337.319,225.187 334.796,218.393 331.446,213.626C324.803,204.173 316.116,201.913 313.162,201.862C310.208,201.81 297.271,204.661 292.256,214.263Z" style="fill: #fff; fill-opacity: 0.75; fill-rule: nonzero" />
				<g>
					<clipPath id="Y">
						<path class="eyelid" d="M292.256,214.263C287.245,221.014 284.759,228.894 284.8,237.905C289.203,241.096 296.211,243.654 298.776,244.312C301.34,244.969 310.311,246.077 323.466,242.101C328.303,240.639 333.486,237.941 339.014,234.008C337.319,225.187 334.796,218.393 331.446,213.626C324.803,204.173 316.116,201.913 313.162,201.862C310.208,201.81 297.271,204.661 292.256,214.263Z" />
					</clipPath>
					<g clip-path="url(#Y)">
						<g class="pupil">
							<path d="M329.551,223.858C329.562,211.811 321.426,202.024 311.394,202.015C301.361,202.005 293.207,211.778 293.195,223.824C293.184,235.87 301.32,245.657 311.353,245.667C321.385,245.676 329.54,235.904 329.551,223.858Z" style="fill: #566; fill-rule: nonzero" />
							<g>
								<clipPath id="Z">
									<path d="M329.551,223.858C329.562,211.811 321.426,202.024 311.394,202.015C301.361,202.005 293.207,211.778 293.195,223.824C293.184,235.87 301.32,245.657 311.353,245.667C321.385,245.676 329.54,235.904 329.551,223.858Z" />
								</clipPath>
								<g clip-path="url(#Z)">
									<g transform="matrix(1,0.001,-0.001,1,0.22,-0.287)">
										<rect x="281.984" y="222.9" width="50.339" height="25.379" style="fill: #58a2a2" />
									</g>
								</g>
							</g>
							<path d="M320.885,223.85C320.891,217.546 316.634,212.424 311.384,212.419C306.134,212.415 301.867,217.528 301.861,223.832C301.855,230.135 306.113,235.257 311.363,235.262C316.612,235.267 320.879,230.153 320.885,223.85Z" style="
									fill: none;
									fill-rule: nonzero;
									stroke: #fff;
									stroke-opacity: 0.75;
									stroke-width: 3px;
									stroke-linecap: square;
									stroke-linejoin: miter;
								" />
							<path d="M320.885,223.85C320.891,217.546 316.634,212.424 311.384,212.419C306.134,212.415 301.867,217.528 301.861,223.832C301.855,230.135 306.113,235.257 311.363,235.262C316.612,235.267 320.879,230.153 320.885,223.85Z" style="fill: #423f3d; fill-rule: nonzero" />
						</g>
					</g>
				</g>
			</g>
			<g class="breath" style="--z: 1.5">
				<g class="eyebrow">
					<path d="M310.614,188.732L278.946,187.478C291.587,180.017 301.809,176.317 309.611,176.378C317.412,176.439 328.303,180.975 342.283,189.986L310.614,188.732Z" style="fill: #5e4038; fill-rule: nonzero" />
					<path d="M206.892,188.785L238.524,186.803C225.714,179.636 215.41,176.172 207.611,176.412C199.813,176.652 189.03,181.437 175.261,190.767L206.892,188.785Z" style="fill: #5e4038; fill-rule: nonzero" />
				</g>
			</g>
			<g class="glasses breath" style="--z: 2">
				<path d="M152.226,185.576C153.681,192.418 161.628,215.911 160.862,216C160.241,216.073 162.61,213.406 167.97,208C159.206,193.676 153.996,185.633 152.341,183.871C151.901,183.402 151.913,184.104 152.226,185.576Z" style="fill: #423f3d; fill-rule: nonzero" />
				<g>
					<clipPath id="aA">
						<path d="M152.226,185.576C153.681,192.418 161.628,215.911 160.862,216C160.241,216.073 162.61,213.406 167.97,208C159.206,193.676 153.996,185.633 152.341,183.871C151.901,183.402 151.913,184.104 152.226,185.576Z" />
					</clipPath>
					<g clip-path="url(#aA)">
						<g transform="matrix(0.421,0.907,-0.79,0.673,243.243,-71.564)">
							<rect x="123.213" y="192.186" width="54.127" height="11.305" style="fill: #3e3c3b" />
						</g>
					</g>
				</g>
				<path d="M163.774,209.959C184.699,208.888 211.067,209.868 242.878,212.901C244.19,228.63 243.066,241.193 239.505,250.59C220.036,254.848 196.191,255.096 167.97,251.335C164.271,234.696 162.872,220.904 163.774,209.959Z" style="
						fill: none;
						fill-rule: nonzero;
						stroke: #423f3d;
						stroke-width: 6px;
					" />
				<path d="M353.606,216C354.212,216.155 352.879,213.122 349.606,206.903C361.088,193.874 367.767,186.597 369.642,185.07C372.455,182.78 352.697,215.768 353.606,216Z" style="fill: #423f3d; fill-rule: nonzero" />
				<g>
					<clipPath id="bB">
						<path d="M353.606,216C354.212,216.155 352.879,213.122 349.606,206.903C361.088,193.874 367.767,186.597 369.642,185.07C372.455,182.78 352.697,215.768 353.606,216Z" />
					</clipPath>
					<g clip-path="url(#bB)">
						<g transform="matrix(0.538,-0.843,0.693,0.772,33.422,355.034)">
							<rect x="341.034" y="191.178" width="54.127" height="11.305" style="fill: #3e3c3b" />
						</g>
					</g>
				</g>
				<path d="M352.093,207.999C331.151,207.364 304.809,208.893 273.068,212.587C272.083,228.34 273.469,240.877 277.225,250.198C296.778,254.049 320.622,253.801 348.759,249.453C352.112,232.741 353.223,218.923 352.093,207.999Z" style="
						fill: none;
						fill-rule: nonzero;
						stroke: #423f3d;
						stroke-width: 6px;
					" />
				<path d="M243.631,221.414C245.926,217.966 250.72,216.331 258.012,216.509C265.304,216.687 270.234,218.322 272.801,221.414" style="
						fill: none;
						fill-rule: nonzero;
						stroke: #423f3d;
						stroke-width: 6px;
					" />
			</g>
			<g class="breath" style="--z: 3">
				<path d="M316,48C283.866,29.21 258.533,19.877 240,20C212.201,20.185 195.276,29.515 180,48C164.724,66.485 155.159,100.342 144,117.668C136.561,129.219 132.561,156.663 132,200L316,48Z" style="fill: #5e4038; fill-rule: nonzero" />
				<path d="M316,108C329.015,136.16 338.152,158.936 343.412,176.329C348.671,193.721 348.671,218.945 343.412,252C356.714,236.893 366.348,223.456 372.315,211.691C381.265,194.043 380.356,173.012 378.091,151.871C375.826,130.73 371.816,79.134 343.412,64C324.476,53.911 315.339,68.577 316,108Z" style="fill: #5e4038; fill-rule: nonzero" />
				<path d="M316,108C304.939,102.36 296.037,99.762 289.292,100.205C282.547,100.648 270.877,106.469 254.282,117.668C259.683,92.471 265.532,74.98 271.829,65.195C281.274,50.518 302.173,18.473 320,20.094C322.9,20.137 332.344,24.475 336,28C339.656,31.525 348.656,43.6 348,54.975C347.37,65.888 341.075,71.503 332.537,80.691C326.846,86.816 321.333,95.919 316,108Z" style="fill: #5b3c34; fill-rule: nonzero" />
				<g>
					<clipPath id="cC">
						<path d="M316,108C304.939,102.36 296.037,99.762 289.292,100.205C282.547,100.648 270.877,106.469 254.282,117.668C259.683,92.471 265.532,74.98 271.829,65.195C281.274,50.518 302.173,18.473 320,20.094C322.9,20.137 332.344,24.475 336,28C339.656,31.525 348.656,43.6 348,54.975C347.37,65.888 341.075,71.503 332.537,80.691C326.846,86.816 321.333,95.919 316,108Z" />
					</clipPath>
					<g clip-path="url(#cC)">
						<path d="M316,108C305.913,107.611 297.913,107.611 292,108C286.087,108.389 275.516,110.506 260.289,114.351C264.332,93.336 269.459,78.001 275.672,68.346C284.992,53.864 304.881,23.177 323.533,29.591C342.185,36.006 344.98,46.328 342.454,59.387C340.4,70 323.485,83.945 316,92C311.01,97.37 311.01,102.703 316,108Z" style="fill: #462f28; fill-rule: nonzero" />
						<g>
							<clipPath id="dD">
								<path d="M316,108C305.913,107.611 297.913,107.611 292,108C286.087,108.389 275.516,110.506 260.289,114.351C264.332,93.336 269.459,78.001 275.672,68.346C284.992,53.864 304.881,23.177 323.533,29.591C342.185,36.006 344.98,46.328 342.454,59.387C340.4,70 323.485,83.945 316,92C311.01,97.37 311.01,102.703 316,108Z" />
							</clipPath>
							<g clip-path="url(#dD)">
								<path d="M248,132C251.094,121.762 292.989,87.36 304,64C311.341,48.427 316.674,33.791 320,20.094C277.893,41.588 253.893,64.223 248,88C239.161,123.665 244.906,142.238 248,132Z" style="fill: #3e2923; fill-rule: nonzero" />
							</g>
						</g>
					</g>
				</g>
				<path d="M320,20.094C307.793,19.126 289.097,14.903 268,20.094C246.903,25.285 225.194,33.597 212,50.975C198.806,68.354 197.786,102.2 168,120C138.214,137.8 121.689,194.02 118.802,219.904C115.915,245.789 116.101,271.032 132.601,292.226C143.6,306.355 150.654,316.946 153.763,323.999C138.986,284.417 135.253,253.358 142.564,230.823C153.532,197.019 164.344,202.672 185.129,188.354C205.914,174.036 223.284,177.97 237.651,162.651C252.018,147.332 257.267,107.841 268,92C278.733,76.159 302.916,58.885 320,20.094Z" style="fill: #5b3c34; fill-rule: nonzero" />
			</g>
		</g>
		<g class="dialog-5">
			<path d=" M 543.54 442.992 Q 540.599 443.14 541.063 440.62 Q 543.711 436.979 544.778 433.505 C 545.844 430.03 545.91 377.421 546.635 363.537 Q 546.635 355.631 554.064 355.235 L 903.571 355.235 Q 910.69 356.026 911 363.537 Q 911 377.421 911 433.505 Q 909.452 441.806 903.571 442.992 C 816.881 442.992 678.687 442.992 543.54 442.992 Z " fill="rgb(57,56,56)" />
			<g clip-path="url(#_clipPath_cd6GMJ8GaVQpHZEklPJY27QnsFp6XqOK)">
				<text transform="matrix(1,0,0,1,565,381.172)" style="
						font-family: monospace;
						font-weight: 400;
						font-size: 16px;
						font-style: normal;
						fill: #e8e8e8;
						stroke: none;
					">
					If you want to learn more about me,
				</text>
				<text transform="matrix(1,0,0,1,565,404.61)" style="
						font-family: monospace;
						font-weight: 400;
						font-size: 16px;
						font-style: normal;
						fill: #e8e8e8;
						stroke: none;
					">
					I'm @rightonhana everywhere, or
				</text>
				<text transform="matrix(1,0,0,1,565,428.047)" style="
						font-family: monospace;
						font-weight: 400;
						font-size: 16px;
						font-style: normal;
						fill: #e8e8e8;
						stroke: none;
					">
					you can go to  rightonhana.dev
				</text>
			</g>
			<defs>
				<clipPath id="_clipPath_cd6GMJ8GaVQpHZEklPJY27QnsFp6XqOK">
					<rect x="0" y="0" width="338.571" height="73" transform="matrix(1,0,0,1,565,362.618)" />
				</clipPath>
			</defs>
		</g>
		<g class="dialog-4">
			<path d=" M 543.142 442.993 Q 540.662 443.118 541.053 440.993 Q 543.286 437.923 544.186 434.993 C 545.085 432.063 545.141 416.701 545.752 404.993 Q 545.752 398.326 552.016 397.993 L 823.736 397.993 Q 829.739 398.66 830 404.993 Q 830 416.701 830 434.993 Q 828.695 441.993 823.736 442.993 C 750.635 442.993 657.103 442.993 543.142 442.993 Z " fill="rgb(57,56,56)" />
			<g clip-path="url(#_clipPath_Ms0lecwxuJ44rVCTRwPcoZdoHehpvDLq)">
				<text transform="matrix(1,0,0,1,559.408,426.799)" style="
						font-family: monospace;
						font-weight: 400;
						font-size: 16px;
						font-style: normal;
						fill: #e8e8e8;
						stroke: none;
					">
					My pronouns are She/Her 
				</text>
			</g>
			<defs>
				<clipPath id="_clipPath_Ms0lecwxuJ44rVCTRwPcoZdoHehpvDLq">
					<rect x="0" y="0" width="258.183" height="24.503" transform="matrix(1,0,0,1,559.408,408.245)" />
				</clipPath>
			</defs>
		</g>
		<g class="dialog-3">
			<path d=" M 543.54 442.992 Q 540.599 443.14 541.063 440.62 Q 543.711 436.979 544.778 433.505 C 545.844 430.03 545.91 377.421 546.635 363.537 Q 546.635 355.631 554.064 355.235 L 903.571 355.235 Q 910.69 356.026 911 363.537 Q 911 377.421 911 433.505 Q 909.452 441.806 903.571 442.992 C 816.881 442.992 678.687 442.992 543.54 442.992 Z " fill="rgb(57,56,56)" />
			<g clip-path="url(#_clipPath_cd6GMJ8GaVQpHZEklPJY27QnsFp6XqOK)">
				<text transform="matrix(1,0,0,1,565,381.172)" style="
						font-family: monospace;
						font-weight: 400;
						font-size: 16px;
						font-style: normal;
						fill: #e8e8e8;
						stroke: none;
					">
					I'm a Front-end Developer with
				</text>
				<text transform="matrix(1,0,0,1,565,404.61)" style="
						font-family: monospace;
						font-weight: 400;
						font-size: 16px;
						font-style: normal;
						fill: #e8e8e8;
						stroke: none;
					">
					experience in Angular, React and
				</text>
				<text transform="matrix(1,0,0,1,565,428.047)" style="
						font-family: monospace;
						font-weight: 400;
						font-size: 16px;
						font-style: normal;
						fill: #e8e8e8;
						stroke: none;
					">
					Svelte.
				</text>
			</g>
			<defs>
				<clipPath id="_clipPath_cd6GMJ8GaVQpHZEklPJY27QnsFp6XqOK">
					<rect x="0" y="0" width="338.571" height="73" transform="matrix(1,0,0,1,565,362.618)" />
				</clipPath>
			</defs>
		</g>
		<g class="dialog-2">
			<path d=" M 543.742 442.16 Q 540.567 442.285 541.068 440.155 Q 543.927 437.077 545.078 434.139 C 546.23 431.202 546.301 394.748 547.084 383.011 Q 547.084 376.327 555.104 375.993 L 902.98 375.993 Q 910.666 376.661 911 383.011 Q 911 394.748 911 434.139 Q 909.329 441.157 902.98 442.16 C 809.39 442.16 689.644 442.16 543.742 442.16 Z " fill="rgb(57,56,56)" />
			<g clip-path="url(#_clipPath_ESlM0h8RX5VXCFQgA5t80sqGiBmZNFpN)">
				<text transform="matrix(1,0,0,1,561.068,404.114)" style="
						font-family: monospace;
						font-weight: 400;
						font-size: 16px;
						font-style: normal;
						fill: #e8e8e8;
						stroke: none;
					">
					I'm born and raised in Argentina 
				</text>
				<text transform="matrix(1,0,0,1,561.068,427.551)" style="
						font-family: monospace;
						font-weight: 400;
						font-size: 16px;
						font-style: normal;
						fill: #e8e8e8;
						stroke: none;
					">
					now living in Chicago, Illinois 
				</text>
			</g>
			<defs>
				<clipPath id="_clipPath_ESlM0h8RX5VXCFQgA5t80sqGiBmZNFpN">
					<rect x="0" y="0" width="341" height="46.875" transform="matrix(1,0,0,1,561.068,385.559)" />
				</clipPath>
			</defs>
		</g>
		<g class="dialog-1">
			<path d=" M 543.297 442.993 Q 540.637 443.118 541.057 440.993 Q 543.452 437.923 544.417 434.993 C 545.382 432.063 545.441 416.701 546.097 404.993 Q 546.097 398.326 552.817 397.993 L 896.28 397.993 Q 902.72 398.66 903 404.993 Q 903 416.701 903 434.993 Q 901.6 441.993 896.28 442.993 C 817.868 442.993 665.54 442.993 543.297 442.993 Z " fill="rgb(57,56,56)" />
			<g clip-path="url(#_clipPath_3D2gxkuakMBlARHwnRYqTgx1WEIpF5CZ)">
				<text transform="matrix(1,0,0,1,559,427.048)" style="
						font-family: monospace;
						font-weight: 400;
						font-size: 16px;
						font-style: normal;
						fill: #e8e8e8;
						stroke: none;
					">
					Hi there  I'm Florencia Gonzalez
				</text>
			</g>
			<defs>
				<clipPath id="_clipPath_3D2gxkuakMBlARHwnRYqTgx1WEIpF5CZ">
					<rect x="0" y="0" width="350" height="24.007" transform="matrix(1,0,0,1,559,408.493)" />
				</clipPath>
			</defs>
		</g>
	</g>
</svg>
