<svg class="avatar"
	xmlns="http://www.w3.org/2000/svg"
	xmlns:xlink="http://www.w3.org/1999/xlink" style="isolation:isolate" viewBox="0 0 1024 512" width="1024pt" height="512pt">
	<style>
		.dialog-1 {
			opacity: 0;
			animation: greet 7s both;
		}

		.dialog-2 {
			opacity: 0;
			animation: from 7s both;
		}

		.dialog-3 {
			opacity: 0;
			animation: profession 7s both;
		}

		.dialog-4 {
			opacity: 0;
			animation: pronouns 7s both;
		}

		.dialog-5 {
			opacity: 0;
			animation: contact 7s both;
		}

		.eyelid {
			animation: eye 3s ease-in-out infinite;
			transform-origin: center;
		}
		
		.pupil {
			animation: pupil 15s ease-out infinite;
			transform-origin: center;
		}

		.eyebrow {
			animation: eyebrow 3s ease-in-out infinite;
			transform-origin: center;
		}

		.mouth {
			animation: mouth 15s ease infinite;
			transform-origin: center;
		}

		.dot {
			animation: dot 15s ease infinite;
			transform-origin: center;
		}

		.cheeks:first-child {
			animation: cheeks1 15s ease infinite;
			transform-origin: center;
		}

		.cheeks:nth-child(2), .cheeks:nth-child(3) {
			animation: cheeks2 15s ease infinite;
			transform-origin: center;
		}

		@keyframes greet {
			0% {
				opacity: 0;
				transform: translate(0, 0);
			}
			20% {
				opacity: 1;
				transform: translate(0, 0);
			}
			40% {
				opacity: 1;
				transform: translate(0, -78px);
			}
			60% {
				opacity: 1;
				transform: translate(0, -180px);
			}
			80% {
				opacity: 1;
				transform: translate(0, -234px);
			}
			100%{
				opacity: 1;
				transform: translate(0, -333px);
			}
		}

		@keyframes from {
			0%, 20% {
				opacity: 0;
				transform: translate(0, 0);
			}
			40% {
				opacity: 1;
				transform: translate(0, 0);
			}
			60% {
				opacity: 1;
				transform: translate(0, -100px);
			}
			80%{
				opacity: 1;
				transform: translate(0, -155px);
			}
			100%{
				opacity: 1;
				transform: translate(0, -252px);
			}
		}

		@keyframes profession {
			0%, 40% {
				opacity: 0;
				transform: translate(0, 0);
			}
			60% {
				opacity: 1;
				transform: translate(0, 0);
			}
			80%{
				opacity: 1;
				transform: translate(0, -56px);
			}
			100%{
				opacity: 1;
				transform: translate(0, -155px);
			}
		}

		@keyframes pronouns {
			0%, 60% {
				opacity: 0;
				transform: translate(0, 0);
			}
			80% {
				opacity: 1;
				transform: translate(0, 0);
			}
			100%{
				opacity: 1;
				transform: translate(0, -99px);
			}
		}

		@keyframes contact {
			0%, 80% {
				opacity: 0;
				transform: translate(0, 0);
			}
			100%{
				opacity: 1;
				transform: translate(0, 0);
			}
		}
		
		@keyframes eye {
			5%, 20% {
				transform: scale(1, 1);
				stroke-width: 2px;
			}
			10%, 15% {
				transform: scale(1, 0);
				stroke-width: 20px;
			}
		}

		@keyframes pupil {
			5%, 20% {
				transform: translate(5px, -1px);
			}
			10%, 15% {
				transform: translate(-5px, 1px);
			}
			20%, 100% {
				transform: translate(0, 0);
			}
		}

		@keyframes eyebrow {
			0%, 9% {
				transform: translate(0, 0);
			}
			10%, 15% {
				transform: translate(0, 0.5px);
			}
			16%, 100% {
				transform: translate(0, 0);
			}
		}

		@keyframes mouth {
			0%, 4% {
				transform: scale(1, 1);
			}
			5%, 20% {
				transform-origin: 250px 280px;
				transform: scale(1.1 , 0.95);
			}
			21%, 100% {
				transform: scale(1, 1);
			}
		}

		@keyframes dot {
			0%, 4% {
				transform: translate(0, 0);
			}
			5%, 20% {
				transform: translate(0, -3px);
			}
			21%, 100% {
				transform: translate(0, 0);
			}
		}

		@keyframes cheeks1 {
			0%, 4% {
				transform: translate(0, 0);
			}
			5%, 20% {
				transform: translate(-2px, 0);
			}
			21%, 100% {
				transform: translate(0, 0);
			}
		}
		
		@keyframes cheeks2 {
			0%, 4% {
				transform: translate(0, 0);
			}
			5%, 20% {
				transform: translate(2px, 0);
			}
			21%, 100% {
				transform: translate(0, 0);
			}
		}
		@keyframes balloon1 {
			0%,100% {
				transform:translateY(0) rotate(-6deg);
			}
			50% {
				transform:translateY(-20px) rotate(8deg);
			}
		}
		@keyframes balloon2 {
			0%,100% {
				transform:translateY(0) rotate(6deg);
			}
			50% {
				transform:translateY(-30px) rotate(-8deg);
			}
		}
		@keyframes balloon3 {
			0%,100% {
				transform:translate(0, -10px) rotate(6eg);
			}
			50% {
				transform:translate(-20px, 30px) rotate(-8deg);
			}
		}
		@keyframes balloon4 {
			0%,100% {
				transform:translate(10px, -10px) rotate(-8eg);
			}
			50% {
				transform:translate(-35px, 10px) rotate(10deg);
			}
		}
		@keyframes balloon5 {
			0%,100% {
				transform:translate(20px, -15px) rotate(10eg);
			}
			50% {
				transform:translate(10px, 20px) rotate(5deg);
			}
		}
		.balloon-1 {
			animation: balloon1 2s ease-in-out infinite;
		}
		.balloon-2 {
			animation: balloon2 2s ease-in-out infinite;
		}
		.balloon-3 {
			animation: balloon4 5s ease-in-out infinite;
		}
		.balloon-4 {
			animation: balloon5 7s ease-in-out infinite;
		}
		.balloon-5 {
			animation: balloon2 6s ease-in-out infinite;
		}
		.balloon-6 {
			animation: balloon1 3s ease-in-out infinite;
		}
		.balloon-7 {
			animation: balloon2 4s ease-in-out infinite;
		}
		.balloon-8 {
			animation: balloon4 3s ease-in-out infinite;
		}
		.balloon-9 {
			animation: balloon3 5s ease-in-out infinite;
		}
	</style>
	<defs>
		<clipPath id="_clipPath_uSaH7GvzYbWeM4qHwkmFMFjBW04XGMZb">
			<rect width="1024" height="512"/>
		</clipPath>
	</defs>
	<g clip-path="url(#_clipPath_uSaH7GvzYbWeM4qHwkmFMFjBW04XGMZb)">
		<g>
			<path class="balloon-1" d=" M 293.323 -19.76 C 293.408 -19.743 293.493 -19.725 293.578 -19.706 L 293.578 -19.706 C 293.598 -19.702 293.618 -19.698 293.638 -19.693 L 293.638 -19.689 C 317.167 -14.197 331.754 10.431 326.247 35.575 C 324.673 42.762 321.626 49.224 317.523 54.676 Q 311.722 64.038 305.984 69.27 C 297.026 77.436 288.47 84.377 284.484 87.514 Q 282.41 89.147 280.68 90.386 C 279.602 91.231 278.52 91.955 277.439 92.551 Q 276.291 93.246 275.384 93.666 L 275.159 93.617 C 273.039 94.428 270.939 94.72 268.902 94.435 L 269.603 99.805 Q 268.262 100.232 267.362 100.295 L 267.334 100.425 Q 267.304 100.415 267.275 100.405 Q 267.156 100.363 267.03 100.307 Q 266.891 100.305 266.766 100.294 Q 266.736 100.291 266.704 100.287 L 266.732 100.157 Q 265.942 99.723 264.902 98.775 L 267.783 94.19 C 265.813 93.598 264.028 92.455 262.441 90.832 L 262.215 90.782 Q 261.567 90.022 260.815 88.911 C 260.082 87.917 259.401 86.807 258.774 85.589 Q 257.721 83.74 256.52 81.391 C 254.209 76.874 249.337 66.993 244.612 55.83 Q 241.586 48.679 240.228 37.749 C 238.779 31.082 238.712 23.937 240.285 16.751 C 245.792 -8.394 269.336 -24.671 293.007 -19.827 L 293.008 -19.831 C 293.028 -19.827 293.048 -19.822 293.069 -19.818 L 293.069 -19.818 C 293.154 -19.799 293.239 -19.781 293.323 -19.76 Z " fill="#0097a7"/>
			<path class="balloon-2" d=" M 767.474 201.111 C 767.577 201.15 767.679 201.191 767.782 201.233 L 767.782 201.233 C 767.806 201.243 767.83 201.253 767.854 201.262 L 767.852 201.267 C 796.119 213.204 808.415 248.864 795.29 281.265 C 791.539 290.526 786.111 298.533 779.603 304.986 Q 769.995 316.313 761.483 322.152 C 748.195 331.267 735.715 338.828 729.923 342.223 Q 726.911 343.989 724.428 345.3 C 722.863 346.213 721.322 346.965 719.814 347.546 Q 718.198 348.246 716.953 348.627 L 716.681 348.517 C 713.813 349.18 711.098 349.158 708.604 348.378 L 708.164 355.665 Q 706.371 355.97 705.222 355.879 L 705.155 356.045 Q 705.119 356.027 705.086 356.008 Q 704.946 355.929 704.801 355.828 Q 704.627 355.799 704.471 355.759 Q 704.434 355.75 704.396 355.738 L 704.463 355.571 Q 703.575 354.838 702.499 353.371 L 707.255 347.832 C 704.922 346.656 702.956 344.782 701.358 342.31 L 701.086 342.2 Q 700.457 341.06 699.784 339.432 C 699.106 337.965 698.523 336.353 698.034 334.608 Q 697.164 331.939 696.229 328.574 C 694.434 322.106 690.734 307.991 687.536 292.198 Q 685.487 282.081 686.471 267.26 C 686.289 258.097 687.964 248.57 691.715 239.309 C 704.84 206.908 738.488 189.859 767.093 200.96 L 767.095 200.955 C 767.119 200.965 767.143 200.974 767.168 200.984 L 767.168 200.984 C 767.27 201.026 767.373 201.068 767.474 201.111 Z " fill="#e64a19"/>
			<path class="balloon-3" d=" M 907.271 31.447 C 907.385 31.397 907.501 31.349 907.617 31.301 L 907.617 31.301 C 907.644 31.29 907.671 31.279 907.699 31.268 L 907.701 31.273 C 940.031 18.558 978.117 37.46 993.022 73.794 C 997.282 84.178 999.194 94.879 999.005 105.186 Q 1000.145 121.846 997.848 133.24 C 994.26 151.027 990.103 166.931 988.084 174.22 Q 987.034 178.011 986.055 181.02 C 985.505 182.986 984.848 184.804 984.084 186.459 Q 983.326 188.295 982.617 189.582 L 982.31 189.708 C 980.507 192.502 978.287 194.625 975.65 195.966 L 981.04 202.157 Q 979.826 203.815 978.823 204.647 L 978.899 204.834 Q 978.856 204.848 978.814 204.859 Q 978.638 204.905 978.441 204.939 Q 978.277 205.053 978.12 205.144 Q 978.082 205.165 978.041 205.186 L 977.965 204.999 Q 976.666 205.112 974.637 204.783 L 974.126 196.591 C 971.307 197.488 968.236 197.536 964.991 196.813 L 964.684 196.939 Q 963.275 196.52 961.446 195.746 C 959.74 195.104 957.996 194.271 956.224 193.258 Q 953.413 191.803 950.003 189.841 C 943.447 186.07 929.319 177.667 914.274 167.524 Q 904.636 161.026 893.748 148.364 C 886.376 141.159 880.222 132.199 875.962 121.814 C 861.058 85.481 874.897 45.278 906.843 31.625 L 906.841 31.62 C 906.868 31.608 906.895 31.597 906.923 31.586 L 906.923 31.586 C 907.038 31.538 907.154 31.491 907.271 31.447 Z " fill="#455a64"/>
			<path class="balloon-4" d=" M 752.124 -95.275 C 752.221 -95.271 752.319 -95.265 752.417 -95.259 L 752.417 -95.259 C 752.44 -95.257 752.464 -95.256 752.487 -95.254 L 752.486 -95.25 C 779.63 -93.123 800.112 -69.23 798.312 -41.613 C 797.797 -33.72 795.517 -26.365 791.888 -19.918 Q 787.042 -9.043 781.554 -2.572 C 772.987 7.529 764.656 16.263 760.758 20.23 Q 758.73 22.293 757.018 23.886 C 755.963 24.954 754.882 25.895 753.781 26.7 Q 752.623 27.621 751.686 28.211 L 751.426 28.194 C 749.205 29.391 746.918 30.034 744.601 30.052 L 746.306 35.653 Q 744.887 36.319 743.896 36.529 L 743.887 36.671 Q 743.851 36.666 743.818 36.66 Q 743.678 36.634 743.528 36.593 Q 743.373 36.614 743.231 36.621 Q 743.197 36.623 743.161 36.624 L 743.171 36.482 Q 742.216 36.145 740.895 35.3 L 743.313 29.968 C 741.018 29.649 738.833 28.715 736.786 27.239 L 736.527 27.223 Q 735.674 26.516 734.645 25.452 C 733.658 24.512 732.709 23.438 731.801 22.242 Q 730.31 20.441 728.568 18.132 C 725.218 13.692 718.091 3.951 710.908 -7.178 Q 706.306 -14.306 702.913 -25.718 C 700.151 -32.581 698.845 -40.17 699.36 -48.064 C 701.16 -75.68 724.571 -96.712 751.761 -95.297 L 751.761 -95.301 C 751.784 -95.3 751.807 -95.298 751.831 -95.297 L 751.831 -95.297 C 751.929 -95.291 752.026 -95.284 752.124 -95.275 Z " fill="#689f38"/>
			<path class="balloon-5" d=" M 487.99 56.937 C 488.083 56.878 488.178 56.821 488.272 56.764 L 488.272 56.764 C 488.295 56.75 488.317 56.737 488.34 56.723 L 488.342 56.728 C 514.87 41.309 550.762 52.91 568.772 82.872 C 573.92 91.435 577.058 100.586 578.305 109.665 Q 581.585 124.152 581.137 134.464 C 580.437 150.563 578.98 165.082 578.214 171.751 Q 577.815 175.22 577.371 177.992 C 577.16 179.792 576.835 181.475 576.393 183.03 Q 575.982 184.742 575.538 185.966 L 575.287 186.117 C 574.093 188.809 572.443 190.965 570.321 192.49 L 575.882 197.221 Q 575.048 198.838 574.285 199.7 L 574.377 199.854 Q 574.341 199.872 574.306 199.888 Q 574.158 199.951 573.991 200.007 Q 573.863 200.129 573.738 200.229 Q 573.708 200.253 573.675 200.277 L 573.582 200.123 Q 572.463 200.392 570.644 200.37 L 569.074 193.24 C 566.732 194.398 564.054 194.844 561.117 194.635 L 560.865 194.786 Q 559.577 194.604 557.871 194.164 C 556.291 193.824 554.652 193.322 552.964 192.664 Q 550.307 191.755 547.056 190.48 C 540.807 188.028 527.302 182.503 512.757 175.568 Q 503.439 171.126 492.184 161.433 C 484.751 156.072 478.142 149.009 472.995 140.445 C 454.984 110.483 461.577 73.343 487.64 57.15 L 487.637 57.146 C 487.66 57.132 487.682 57.119 487.704 57.105 L 487.704 57.105 C 487.799 57.048 487.894 56.991 487.99 56.937 Z " fill="#5d4037"/>
			<path class="balloon-6" d=" M 493.125 314.496 C 493.235 314.493 493.346 314.493 493.456 314.493 L 493.456 314.493 C 493.482 314.493 493.509 314.493 493.535 314.493 L 493.535 314.499 C 524.215 314.95 549 343.384 549 378.343 C 549 388.335 546.975 397.794 543.366 406.218 Q 538.714 420.324 533.017 428.931 C 524.123 442.368 515.395 454.062 511.302 459.383 Q 509.173 462.15 507.364 464.298 C 506.256 465.731 505.11 467.007 503.931 468.111 Q 502.695 469.367 501.685 470.188 L 501.392 470.188 C 498.982 471.88 496.457 472.878 493.852 473.092 L 496.181 480.011 Q 494.633 480.967 493.535 481.313 L 493.535 481.493 Q 493.494 481.49 493.456 481.485 Q 493.297 481.463 493.125 481.425 Q 492.953 481.463 492.794 481.485 Q 492.756 481.49 492.715 481.493 L 492.715 481.313 Q 491.617 480.967 490.069 480.011 L 492.398 473.092 C 489.793 472.878 487.268 471.88 484.858 470.188 L 484.565 470.188 Q 483.555 469.367 482.319 468.111 C 481.14 467.007 479.994 465.731 478.886 464.298 Q 477.077 462.15 474.948 459.383 C 470.855 454.062 462.127 442.368 453.233 428.931 Q 447.536 420.324 442.884 406.218 C 439.275 397.794 437.25 388.335 437.25 378.343 C 437.25 343.384 462.035 314.95 492.715 314.499 L 492.715 314.493 C 492.741 314.493 492.768 314.493 492.794 314.493 L 492.794 314.493 C 492.904 314.493 493.015 314.493 493.125 314.496 Z " fill="#c2185b"/>
			<path class="balloon-7" d=" M 63.635 326.532 C 63.723 326.483 63.811 326.436 63.9 326.389 L 63.9 326.389 C 63.921 326.378 63.942 326.367 63.963 326.356 L 63.965 326.36 C 88.788 313.696 119.848 324.332 133.555 350.319 C 137.473 357.747 139.555 365.637 139.959 373.428 Q 141.753 385.886 140.551 394.699 C 138.675 408.456 136.248 420.847 135.047 426.537 Q 134.422 429.496 133.81 431.859 C 133.482 433.394 133.062 434.828 132.548 436.149 Q 132.048 437.606 131.558 438.644 L 131.322 438.768 C 130.05 441.047 128.413 442.859 126.404 444.121 L 130.988 448.278 Q 130.119 449.645 129.373 450.368 L 129.443 450.501 Q 129.409 450.516 129.377 450.528 Q 129.241 450.58 129.087 450.624 Q 128.964 450.726 128.845 450.809 Q 128.816 450.829 128.785 450.848 L 128.714 450.715 Q 127.696 450.923 126.078 450.868 L 125.235 444.738 C 123.06 445.682 120.64 446.01 118.041 445.774 L 117.805 445.898 Q 116.671 445.716 115.187 445.306 C 113.806 444.984 112.386 444.522 110.933 443.925 Q 108.638 443.095 105.843 441.94 C 100.469 439.719 88.872 434.724 76.459 428.504 Q 68.507 424.519 59.239 416.004 C 53.036 411.271 47.701 405.097 43.783 397.669 C 30.076 371.681 38.838 340.042 63.307 326.707 L 63.305 326.703 C 63.326 326.692 63.347 326.681 63.368 326.67 L 63.368 326.67 C 63.457 326.623 63.546 326.576 63.635 326.532 Z " fill="#d32f2f"/>
			<path class="balloon-8" d=" M 54.729 90.936 C 54.837 90.957 54.945 90.98 55.054 91.004 L 55.054 91.004 C 55.079 91.009 55.105 91.015 55.13 91.021 L 55.129 91.026 C 85.002 98.03 103.131 131.108 95.653 165.257 C 93.515 175.018 89.514 183.825 84.187 191.282 Q 76.624 204.066 69.218 211.256 C 57.656 222.479 46.628 232.035 41.491 236.357 Q 38.82 238.605 36.593 240.316 C 35.204 241.479 33.812 242.48 32.424 243.307 Q 30.948 244.27 29.786 244.855 L 29.499 244.792 C 26.783 245.929 24.103 246.364 21.513 246.016 L 22.308 253.273 Q 20.591 253.876 19.444 253.979 L 19.406 254.155 Q 19.367 254.143 19.331 254.13 Q 19.18 254.075 19.02 254 Q 18.844 254.001 18.684 253.988 Q 18.646 253.985 18.605 253.979 L 18.644 253.804 Q 17.645 253.231 16.337 251.966 L 20.092 245.705 C 17.594 244.939 15.341 243.423 13.349 241.255 L 13.062 241.193 Q 12.25 240.175 11.313 238.684 C 10.397 237.352 9.55 235.861 8.775 234.224 Q 7.467 231.739 5.979 228.58 C 3.119 222.507 -2.905 209.217 -8.719 194.189 Q -12.443 184.562 -13.97 169.787 C -15.693 160.786 -15.648 151.112 -13.51 141.352 C -6.032 107.203 24.262 84.728 54.329 90.851 L 54.33 90.845 C 54.355 90.851 54.381 90.856 54.406 90.862 L 54.406 90.862 C 54.514 90.886 54.622 90.91 54.729 90.936 Z " fill="#fbc02d"/>
			<path class="balloon-9" d=" M 966.365 399.344 C 966.454 399.37 966.542 399.399 966.63 399.428 L 966.63 399.428 C 966.65 399.435 966.671 399.442 966.692 399.449 L 966.69 399.453 C 990.97 407.858 1003.053 437.51 993.674 465.984 C 990.993 474.123 986.845 481.296 981.715 487.213 Q 974.23 497.483 967.39 503.001 C 956.712 511.616 946.633 518.854 941.95 522.116 Q 939.514 523.812 937.5 525.087 C 936.234 525.965 934.98 526.703 933.746 527.294 Q 932.427 527.994 931.403 528.397 L 931.17 528.32 C 928.799 529.067 926.523 529.219 924.395 528.71 L 924.39 534.956 Q 922.903 535.329 921.936 535.324 L 921.888 535.47 Q 921.857 535.457 921.828 535.443 Q 921.707 535.384 921.58 535.307 Q 921.433 535.293 921.301 535.269 Q 921.269 535.263 921.236 535.255 L 921.285 535.109 Q 920.504 534.539 919.529 533.355 L 923.238 528.329 C 921.224 527.473 919.483 525.998 918.021 523.989 L 917.787 523.912 Q 917.204 522.979 916.558 521.633 C 915.917 520.424 915.348 519.085 914.851 517.627 Q 913.989 515.404 913.038 512.592 C 911.21 507.186 907.406 495.375 903.938 482.101 Q 901.716 473.598 901.8 460.89 C 901.19 453.083 902.117 444.848 904.798 436.709 C 914.177 408.236 941.518 391.569 966.039 399.238 L 966.04 399.234 C 966.061 399.241 966.082 399.248 966.103 399.254 L 966.103 399.254 C 966.191 399.283 966.278 399.313 966.365 399.344 Z " fill="#512da8"/>
		</g>
		<g>
			<path d=" M 254.64 311.615 C 266.295 310.394 288.556 318.743 341.017 337.284 L 344.824 318.364 Q 350.143 322.291 354.467 331.166 Q 358.79 340.04 395.831 338.131 Q 411.622 310.545 411.708 265.976 C 411.801 217.616 394.123 205.368 389.745 186.206 C 385.367 167.045 385.367 167.045 377.142 137.51 Q 350.136 71.333 341.728 63.859 Q 334.025 57.011 305.171 53.905 C 303.485 45.99 301.523 41.232 299.343 40.734 C 282.429 36.867 225.589 35.255 209.565 40.734 C 193.54 46.213 184.408 56.385 176 63.859 C 167.592 71.333 142.595 91.374 132 112 C 121.405 132.626 127.413 165.292 119.535 186.206 C 111.658 207.12 97.478 217.616 97.572 265.976 Q 97.658 310.545 113.448 338.131 Q 150.489 340.04 154.813 331.166 Q 159.137 322.291 164.456 318.364 L 168.263 337.284 Q 242.985 312.837 254.64 311.615 Z " fill="rgb(94,64,56)"/>
			<clipPath id="_clipPath_0ncUgiyCvweMKm4M3IrCLbWNX4PV3Q4n">
				<path d=" M 254.64 311.615 C 266.295 310.394 288.556 318.743 341.017 337.284 L 344.824 318.364 Q 350.143 322.291 354.467 331.166 Q 358.79 340.04 395.831 338.131 Q 411.622 310.545 411.708 265.976 C 411.801 217.616 394.123 205.368 389.745 186.206 C 385.367 167.045 385.367 167.045 377.142 137.51 Q 350.136 71.333 341.728 63.859 Q 334.025 57.011 305.171 53.905 C 303.485 45.99 301.523 41.232 299.343 40.734 C 282.429 36.867 225.589 35.255 209.565 40.734 C 193.54 46.213 184.408 56.385 176 63.859 C 167.592 71.333 142.595 91.374 132 112 C 121.405 132.626 127.413 165.292 119.535 186.206 C 111.658 207.12 97.478 217.616 97.572 265.976 Q 97.658 310.545 113.448 338.131 Q 150.489 340.04 154.813 331.166 Q 159.137 322.291 164.456 318.364 L 168.263 337.284 Q 242.985 312.837 254.64 311.615 Z " fill="rgb(94,64,56)"/>
			</clipPath>
			<g clip-path="url(#_clipPath_0ncUgiyCvweMKm4M3IrCLbWNX4PV3Q4n)">
				<path d=" M 368 116 C 378.515 119.396 397.2 204.556 392.368 244.782 C 388.901 273.649 393.604 330.966 395.664 343.681 Q 400.594 374.115 333.239 293.21 Q 357.485 112.604 368 116 Z " fill="rgb(91,60,52)"/>
				<path d=" M 375.031 352.878 Q 403.631 308.507 367.031 128.878 Q 164.125 92.314 159.031 116.878 C 153.936 141.441 117.324 330.371 143.031 348.878 C 168.737 367.385 346.43 397.248 375.031 352.878 Z " fill="rgb(70,47,40)"/>
			</g>
			<path d=" M 208.836 312.883 Q 213.527 340.994 212.66 364.17 C 212.498 368.496 212.191 372.693 211.739 376.761 C 184.931 388.167 153.717 406.045 117.969 430.232 L 254.502 479.157 L 386.941 429.849 Q 342.193 394.249 304.618 376.98 Q 297.513 345.887 299.483 288.414 L 208.836 312.883 Z " fill="rgb(248,222,200)"/>
			<clipPath id="_clipPath_L5YAcCUp1DHINVfQQq7wmfA3p0v9z7ke">
				<path d=" M 208.836 312.883 Q 213.527 340.994 212.66 364.17 C 212.498 368.496 212.191 372.693 211.739 376.761 C 184.931 388.167 153.717 406.045 117.969 430.232 L 254.502 479.157 L 386.941 429.849 Q 342.193 394.249 304.618 376.98 Q 297.513 345.887 299.483 288.414 L 208.836 312.883 Z " fill="rgb(248,222,200)"/>
			</clipPath>
			<g clip-path="url(#_clipPath_L5YAcCUp1DHINVfQQq7wmfA3p0v9z7ke)">
				<path d=" M 396 338.091 L 172.991 454.769 L 132 284 L 352 240 L 396 338.091 Z " fill="rgb(244,206,186)"/>
				<path d=" M 340 338.091 L 211.739 376.761 L 164.555 270.006 L 366.483 256.509 L 340 338.091 Z " fill="rgb(204,152,152)" fill-opacity="0.3" style="mix-blend-mode:multiply;"/>
				<path d=" M 274.316 430.563 L 295.211 418.143 L 344.588 413.679 L 274.316 430.563 Z " fill="rgb(237,186,169)"/>
			</g>
			<g class="clothes">
				<path d=" M 164.781 394.857 Q 203.44 435.682 246.089 441.812 Q 288.737 447.943 337.393 391.93 L 355.132 404.5 L 386.9 425.6 L 379.157 537.415 L 109.791 552 L 100.068 449.907 L 152.951 407.791 L 164.781 394.857 Z " fill="#212936"/>
				<clipPath id="_clipPath_RVPJNAhY5ON6w6sy1iaAxfhI55AmWGOA">
					<path d=" M 164.781 394.857 Q 203.44 435.682 246.089 441.812 Q 288.737 447.943 337.393 391.93 L 355.132 404.5 L 386.9 425.6 L 379.157 537.415 L 109.791 552 L 100.068 449.907 L 152.951 407.791 L 164.781 394.857 Z " fill="#212936"/>
				</clipPath>
				<g clip-path="url(#_clipPath_RVPJNAhY5ON6w6sy1iaAxfhI55AmWGOA)">
					<path d=" M 359.454 384 L 287.454 528 L 367.454 552 L 359.454 384 Z " fill="#1F2734"/>
					<path d=" M 143.822 372.122 L 367.454 372.122 Q 335.072 432.331 304.253 445.046 C 273.435 457.761 229.377 456.034 192.438 440.184 Q 155.498 424.334 143.822 372.122 Z " fill="#2A323F"/>
					<path d=" M 396 632 L 367.454 624 L 68 608 L 396 632 Z " fill="#1F2734"/>
				</g>
				<path d=" M 134.823 411.015 Q 139.035 410.05 154.27 401.292 Q 171.402 443.004 178.577 466.339 Q 185.752 489.674 198.024 552 L 52.177 552 Q 33.538 500.727 37.592 493.661 C 41.647 486.595 49.894 488.25 57.038 488.8 C 49.674 482.663 46.215 474.015 47.315 464.492 C 48.416 454.969 67.592 450.196 76.485 440.184 C 85.377 430.172 89.436 411.763 95.931 411.015 C 102.426 410.267 101.654 416.184 105.654 415.876 Q 109.654 415.569 115.377 406.153 Q 130.611 411.979 134.823 411.015 Z " fill="rgb(57,56,56)"/>
				<clipPath id="_clipPath_agq4QGGLOlFKsHeyp0vrvgUn1V6785SC">
					<path d=" M 134.823 411.015 Q 139.035 410.05 154.27 401.292 Q 171.402 443.004 178.577 466.339 Q 185.752 489.674 198.024 552 L 52.177 552 Q 33.538 500.727 37.592 493.661 C 41.647 486.595 49.894 488.25 57.038 488.8 C 49.674 482.663 46.215 474.015 47.315 464.492 C 48.416 454.969 67.592 450.196 76.485 440.184 C 85.377 430.172 89.436 411.763 95.931 411.015 C 102.426 410.267 101.654 416.184 105.654 415.876 Q 109.654 415.569 115.377 406.153 Q 130.611 411.979 134.823 411.015 Z " fill="rgb(57,56,56)"/>
				</clipPath>
				<g clip-path="url(#_clipPath_agq4QGGLOlFKsHeyp0vrvgUn1V6785SC)">
					<path d=" M 95.931 406.153 Q 139.416 449.041 154.27 483.938 Q 169.123 518.835 207.747 595.754 L 222.331 586.031 L 159.131 386.707 L 95.931 406.153 Z " fill="rgb(46,46,46)"/>
					<path d=" M 149.716 517.415 L 115.685 478.523 L 81.654 449.354 Q 108.427 461.542 120.546 473.661 Q 132.666 485.78 149.716 517.415 Z " fill="rgb(70,70,70)"/>
					<path d=" M 159.131 537.415 L 61.9 479.077 Q 60.536 488.659 61.9 493.661 Q 63.264 498.664 100.792 508.246 L 159.131 537.415 Z " fill="rgb(47,47,47)"/>
				</g>
				<path d=" M 377.177 411.015 Q 372.965 410.05 357.73 401.292 Q 340.598 443.004 333.423 466.339 Q 326.248 489.674 313.976 552 L 459.823 552 Q 478.462 500.727 474.408 493.661 C 470.353 486.595 462.106 488.25 454.962 488.8 C 462.326 482.663 465.785 474.015 464.685 464.492 C 463.584 454.969 444.408 450.196 435.515 440.184 C 426.623 430.172 422.564 411.763 416.069 411.015 C 409.574 410.267 410.346 416.184 406.346 415.876 Q 402.346 415.569 396.623 406.153 Q 381.389 411.979 377.177 411.015 Z " fill="rgb(57,56,56)"/>
				<clipPath id="_clipPath_OYDqCOU4kVc43cCoVbi2ryfCUva4uafB">
					<path d=" M 377.177 411.015 Q 372.965 410.05 357.73 401.292 Q 340.598 443.004 333.423 466.339 Q 326.248 489.674 313.976 552 L 459.823 552 Q 478.462 500.727 474.408 493.661 C 470.353 486.595 462.106 488.25 454.962 488.8 C 462.326 482.663 465.785 474.015 464.685 464.492 C 463.584 454.969 444.408 450.196 435.515 440.184 C 426.623 430.172 422.564 411.763 416.069 411.015 C 409.574 410.267 410.346 416.184 406.346 415.876 Q 402.346 415.569 396.623 406.153 Q 381.389 411.979 377.177 411.015 Z " fill="rgb(57,56,56)"/>
				</clipPath>
				<g clip-path="url(#_clipPath_OYDqCOU4kVc43cCoVbi2ryfCUva4uafB)">
					<path d=" M 416.069 406.153 Q 372.584 449.041 357.73 483.938 Q 342.877 518.835 304.253 595.754 L 289.669 586.031 L 352.869 386.707 L 416.069 406.153 Z " fill="rgb(46,46,46)"/>
					<path d=" M 338.284 537.415 L 372.315 498.523 L 406.346 469.354 Q 379.573 481.542 367.454 493.661 Q 355.334 505.78 338.284 537.415 Z " fill="rgb(47,47,47)"/>
					<path d=" M 352.869 537.415 L 450.1 479.077 Q 450.705 491.443 450.1 493.661 C 449.495 495.879 438.795 499.834 432.293 502.34 Q 425.103 505.111 411.208 508.246 L 352.869 537.415 Z " fill="rgb(70,70,70)"/>
				</g>
			</g>
			<g class="glasses">
				<g>
					<path d=" M 336.775 263.249 C 338.292 269.24 357.553 264.121 361.549 262.185 C 365.545 260.25 367.88 252.615 374.172 244.529 C 378.813 238.564 385.383 233.463 386.78 226.964 C 388.176 220.466 384.571 191.169 377.685 190.946 Q 363.88 190.754 356.964 197.527 Q 350.047 204.3 350.16 209.482 Q 335.257 257.258 336.775 263.249 Z " fill="rgb(248,209,187)"/>
					<clipPath id="_clipPath_nLJ9RGFGj6iMR6ceOKccxnjXtr6fLWtv">
						<path d=" M 336.775 263.249 C 338.292 269.24 357.553 264.121 361.549 262.185 C 365.545 260.25 367.88 252.615 374.172 244.529 C 378.813 238.564 385.383 233.463 386.78 226.964 C 388.176 220.466 384.571 191.169 377.685 190.946 Q 363.88 190.754 356.964 197.527 Q 350.047 204.3 350.16 209.482 Q 335.257 257.258 336.775 263.249 Z " fill="rgb(248,209,187)"/>
					</clipPath>
					<g clip-path="url(#_clipPath_nLJ9RGFGj6iMR6ceOKccxnjXtr6fLWtv)">
						<path d=" M 370.125 238.97 Q 382.585 223.424 382.754 221.273 C 382.923 219.122 382.472 217.082 381.653 215.113 C 380.239 211.713 377.728 208.527 375.417 205.354 Q 373.107 202.18 359.941 206.581 L 357.965 222.428 L 370.125 238.97 Z " fill="rgb(218,172,163)"/>
						<path d=" M 357.23 227.098 Q 362.527 234.483 360.52 237.458 C 358.514 240.434 348.524 250.164 348.301 252.552 C 348.079 254.94 367.822 242.853 370.125 238.97 C 372.428 235.088 374.903 224.251 373.178 219.577 Q 371.453 214.903 364.568 211.75 L 359.765 210.994 L 357.23 227.098 Z " fill="rgb(237,186,169)"/>
					</g>
					<path d=" M 359.363 256.698 C 358.803 265.638 356.59 272.786 354.425 272.651 C 353.222 272.575 352.285 270.268 351.786 266.698" fill="none" stroke-width="4" stroke="rgb(66,63,61)" stroke-linejoin="round" stroke-linecap="round" stroke-miterlimit="3"/>
					<path d=" M 378.892 215.806 C 387.758 214.522 394.703 211.736 394.392 209.589 C 394.219 208.396 391.843 207.65 388.244 207.442" fill="none" stroke-width="4" stroke="rgb(89,87,86)" stroke-linejoin="round" stroke-linecap="round" stroke-miterlimit="3"/>
					<path d=" M 342.479 259.088 C 342.904 256.384 345.402 254.527 348.052 254.945 C 350.703 255.362 352.509 257.896 352.083 260.6 C 351.658 263.304 349.16 265.16 346.51 264.743 C 343.859 264.326 342.053 261.792 342.479 259.088 Z " fill="rgb(66,63,61)"/>
				</g>
				<g>
					<path d=" M 177.228 265.521 C 175.148 271.341 156.46 264.416 152.666 262.109 C 148.872 259.803 147.273 251.981 141.778 243.334 C 137.724 236.955 131.668 231.253 130.895 224.651 C 130.122 218.05 136.493 189.228 143.369 189.66 Q 157.13 190.78 163.372 198.179 Q 169.613 205.578 169.009 210.726 Q 179.308 259.701 177.228 265.521 Z " fill="rgb(248,209,187)"/>
					<clipPath id="_clipPath_sztCn13pFRMyOBJwLQTBkQ9WC2YwUose">
						<path d=" M 177.228 265.521 C 175.148 271.341 156.46 264.416 152.666 262.109 C 148.872 259.803 147.273 251.981 141.778 243.334 C 137.724 236.955 131.668 231.253 130.895 224.651 C 130.122 218.05 136.493 189.228 143.369 189.66 Q 157.13 190.78 163.372 198.179 Q 169.613 205.578 169.009 210.726 Q 179.308 259.701 177.228 265.521 Z " fill="rgb(248,209,187)"/>
					</clipPath>
					<g clip-path="url(#_clipPath_sztCn13pFRMyOBJwLQTBkQ9WC2YwUose)">
						<path d=" M 146.334 238.185 Q 135.407 221.525 135.443 219.368 C 135.478 217.211 136.121 215.222 137.124 213.34 C 138.854 210.091 141.657 207.157 144.258 204.217 Q 146.859 201.278 159.304 204.217 L 160.01 222.872 L 146.334 238.185 Z " fill="rgb(218,172,163)"/>
						<path d=" M 160.298 227.59 Q 154.324 234.44 156.039 237.592 C 157.753 240.744 166.775 251.38 166.769 253.778 C 166.763 256.176 148.258 242.268 146.334 238.185 C 144.41 234.102 142.975 223.078 145.136 218.589 Q 147.297 214.1 154.451 211.615 L 159.304 211.319 L 160.298 227.59 Z " fill="rgb(237,186,169)"/>
					</g>
					<path d=" M 142.591 243.604 C 137.299 250.832 135.496 258.525 138.565 260.771 C 140.27 262.019 143.123 261.326 146.229 259.223" fill="none" stroke-width="4" stroke="rgb(59,57,55)" stroke-linejoin="round" stroke-linecap="round" stroke-miterlimit="3"/>
					<path d=" M 153.103 249.153 C 152.801 249.535 152.502 249.926 152.208 250.328 C 146.918 257.555 145.113 265.249 148.182 267.495 C 150.228 268.993 153.927 267.695 157.733 264.521" fill="none" stroke-width="4" stroke="rgb(66,63,61)" stroke-linejoin="round" stroke-linecap="round" stroke-miterlimit="3"/>
				</g>
			</g>
			<path d=" M 245 63.859 L 344.824 77 Q 375.936 170.57 364 223 C 352.064 275.43 351.999 284.759 327 309 Q 302.001 333.241 266 346 L 209.565 331.166 Q 171.099 283.139 164.456 274 C 157.813 264.861 155.832 253.736 150 240 C 142.498 222.331 122.357 206.019 123 186.206 Q 123.643 166.393 150 112 L 245 63.859 Z " fill="none" stroke-width="2" stroke="rgb(255,255,255)"/>
			<path d=" M 158.089 154.004 C 148.037 189.49 165.202 285.426 179.789 303.38 C 194.376 321.334 231.978 351.093 242.312 354.739 C 252.646 358.384 260.164 354.404 267.02 352.732 C 273.876 351.059 310.845 327.867 326.343 305.824 C 341.841 283.78 340.236 279.257 345.908 264.058 C 351.58 248.86 380.621 175.057 361.709 128.855 C 342.798 82.653 318.809 63.841 276.736 60.188 C 234.663 56.536 212.005 72.65 189.569 94.053 C 167.133 115.456 168.142 118.519 158.089 154.004 Z " fill="rgb(248,221,198)"/>
			<clipPath id="_clipPath_GfHGE5rPamZOn1mdOv4gmrt5SbajtGwC">
				<path d=" M 158.089 154.004 C 148.037 189.49 165.202 285.426 179.789 303.38 C 194.376 321.334 231.978 351.093 242.312 354.739 C 252.646 358.384 260.164 354.404 267.02 352.732 C 273.876 351.059 310.845 327.867 326.343 305.824 C 341.841 283.78 340.236 279.257 345.908 264.058 C 351.58 248.86 380.621 175.057 361.709 128.855 C 342.798 82.653 318.809 63.841 276.736 60.188 C 234.663 56.536 212.005 72.65 189.569 94.053 C 167.133 115.456 168.142 118.519 158.089 154.004 Z " fill="rgb(248,221,198)"/>
			</clipPath>
			<g clip-path="url(#_clipPath_GfHGE5rPamZOn1mdOv4gmrt5SbajtGwC)">
				<path class="cheeks" d=" M 154.906 276.664 C 156.697 261.34 172.251 250.547 189.618 252.577 C 206.986 254.607 219.632 268.695 217.841 284.019 C 216.05 299.343 200.496 310.136 183.129 308.107 C 165.761 306.077 153.115 291.988 154.906 276.664 Z " fill="rgb(244,185,176)" fill-opacity="0.5"/>
				<path class="cheeks" d=" M 297.849 287.531 C 294.061 272.576 304.747 256.948 321.698 252.655 C 338.648 248.361 355.485 257.018 359.273 271.974 C 363.061 286.93 352.375 302.558 335.425 306.851 C 318.474 311.144 301.637 302.487 297.849 287.531 Z " fill="rgb(244,185,176)" fill-opacity="0.5"/>
				<path class="cheeks" d=" M 327.92 246.06 C 328.076 244.728 329.284 243.772 330.617 243.928 C 331.949 244.084 332.905 245.292 332.749 246.624 C 332.593 247.957 331.385 248.912 330.052 248.757 C 328.72 248.601 327.764 247.393 327.92 246.06 Z " fill="rgb(237,186,169)"/>
				<path class="dot" d=" M 239.625 289.582 C 239.781 288.25 240.989 287.294 242.321 287.45 C 243.654 287.606 244.609 288.814 244.453 290.147 C 244.298 291.479 243.089 292.434 241.757 292.279 C 240.424 292.123 239.469 290.915 239.625 289.582 Z " fill="rgb(237,186,169)"/>
			</g>
			<g>
				<path d=" M 257.838 225.55 Q 255.366 225.538 252.921 229.55 Q 244.961 269.927 245.556 273.332 Q 246.15 276.737 257.838 284.724 Q 269.494 276.175 270.003 273.332 Q 270.511 270.49 262.756 229.55 Q 260.311 225.562 257.838 225.55 Z " fill="rgb(248,209,187)"/>
				<path d=" M 262.756 276.929 C 264.296 279.551 267.519 280.521 269.947 279.095 C 272.376 277.668 273.097 274.381 271.557 271.759 C 270.701 270.302 269.326 269.355 267.857 269.046" fill="none" stroke-width="0.5" stroke="rgb(185,185,185)" stroke-linejoin="round" stroke-linecap="round" stroke-miterlimit="3"/>
			</g>
			<path class="mouth" d=" M 256 296.231 Q 247.412 296.231 232 300.231 Q 242.886 307.856 256 308.061 Q 269.114 308.266 280 300.231 Q 264.588 296.231 256 296.231 Z " fill="rgb(244,206,186)"/>
			<clipPath class="mouth" id="_clipPath_JX8fiKH0Xb474edhzH4QCrP3N8s60Aq5">
				<path class="mouth" d=" M 256 296.231 Q 247.412 296.231 232 300.231 Q 242.886 307.856 256 308.061 Q 269.114 308.266 280 300.231 Q 264.588 296.231 256 296.231 Z " fill="rgb(244,206,186)"/>
			</clipPath>
			<g class="mouth" clip-path="url(#_clipPath_JX8fiKH0Xb474edhzH4QCrP3N8s60Aq5)">
				<rect class="mouth" x="229.261" y="300" width="53.477" height="9.723" transform="matrix(1,0,0,1,0,0)" fill="rgb(243,197,173)"/>
			</g>
			<g>
				<path d=" M 228.158 215.173 Q 235.352 225.531 234.864 239.037 C 230.364 242.088 223.278 244.424 220.694 245 C 218.11 245.576 209.109 246.401 196.086 242.012 Q 188.902 239.592 180.8 233.433 Q 183.759 220.289 189.007 213.3 C 195.945 204.061 204.699 202.077 207.653 202.118 C 210.607 202.16 223.448 205.417 228.158 215.173 Z " fill="rgb(248,221,198)" fill-opacity="0.75" style="mix-blend-mode:screen;"/>
				<clipPath id="_clipPath_1qZvNmwzPkV6QzG7yH1eDu6EdYNrxpwl">
					<path class="eyelid" d=" M 228.158 215.173 Q 235.352 225.531 234.864 239.037 C 230.364 242.088 223.278 244.424 220.694 245 C 218.11 245.576 209.109 246.401 196.086 242.012 Q 188.902 239.592 180.8 233.433 Q 183.759 220.289 189.007 213.3 C 195.945 204.061 204.699 202.077 207.653 202.118 C 210.607 202.16 223.448 205.417 228.158 215.173 Z " fill="rgb(248,221,198)" fill-opacity="0.75" style="mix-blend-mode:screen;"/>
				</clipPath>
				<g clip-path="url(#_clipPath_1qZvNmwzPkV6QzG7yH1eDu6EdYNrxpwl)">
					<g class="pupil">
						<path d=" M 190.57 224.205 C 190.529 212.159 198.64 202.351 208.673 202.317 C 218.706 202.282 226.884 212.034 226.926 224.08 C 226.967 236.126 218.856 245.934 208.823 245.969 C 198.79 246.003 190.612 236.251 190.57 224.205 Z " fill="rgb(85,102,102)"/>
						<clipPath id="_clipPath_0hos5BazCAMoZGy4nniACZvRfRmiAKAL">
							<path d=" M 190.57 224.205 C 190.529 212.159 198.64 202.351 208.673 202.317 C 218.706 202.282 226.884 212.034 226.926 224.08 C 226.967 236.126 218.856 245.934 208.823 245.969 C 198.79 246.003 190.612 236.251 190.57 224.205 Z " fill="rgb(85,102,102)"/>
						</clipPath>
						<g clip-path="url(#_clipPath_0hos5BazCAMoZGy4nniACZvRfRmiAKAL)">
							<rect x="187.828" y="223.191" width="50.339" height="25.379" transform="matrix(1,-0.003,0.003,1,-0.81,0.734)" fill="rgb(88,162,162)"/>
						</g>
						<path d=" M 199.236 224.175 C 199.214 217.872 203.459 212.739 208.709 212.721 C 213.959 212.703 218.238 217.806 218.26 224.11 C 218.282 230.413 214.037 235.546 208.787 235.564 C 203.537 235.582 199.258 230.479 199.236 224.175 Z " fill="transparent" r="NaN" stroke-width="3" stroke="rgb(255,255,255)" stroke-opacity="0.75" stroke-linejoin="miter" stroke-linecap="square" stroke-miterlimit="3"/>
						<path d=" M 199.236 224.175 C 199.214 217.872 203.459 212.739 208.709 212.721 C 213.959 212.703 218.238 217.806 218.26 224.11 C 218.282 230.413 214.037 235.546 208.787 235.564 C 203.537 235.582 199.258 230.479 199.236 224.175 Z " fill="rgb(66,63,61)"/>
					</g>
				</g>
				<path d=" M 292.256 214.263 Q 284.739 224.389 284.8 237.905 C 289.203 241.096 296.211 243.654 298.776 244.312 C 301.34 244.969 310.311 246.077 323.466 242.101 Q 330.722 239.908 339.014 234.008 Q 336.471 220.777 331.446 213.626 C 324.803 204.173 316.116 201.913 313.162 201.862 C 310.208 201.81 297.271 204.661 292.256 214.263 Z " fill="rgb(248,221,198)" fill-opacity="0.75" style="mix-blend-mode:screen;"/>
				<clipPath id="_clipPath_apV8bugBOf8k706v5ABbBNUo1DDER0Cx">
					<path class="eyelid" d=" M 292.256 214.263 Q 284.739 224.389 284.8 237.905 C 289.203 241.096 296.211 243.654 298.776 244.312 C 301.34 244.969 310.311 246.077 323.466 242.101 Q 330.722 239.908 339.014 234.008 Q 336.471 220.777 331.446 213.626 C 324.803 204.173 316.116 201.913 313.162 201.862 C 310.208 201.81 297.271 204.661 292.256 214.263 Z " fill="rgb(248,221,198)" fill-opacity="0.75" style="mix-blend-mode:screen;"/>
				</clipPath>
				<g clip-path="url(#_clipPath_apV8bugBOf8k706v5ABbBNUo1DDER0Cx)">
					<g class="pupil">
						<path d=" M 329.551 223.858 C 329.562 211.811 321.426 202.024 311.394 202.015 C 301.361 202.005 293.207 211.778 293.195 223.824 C 293.184 235.87 301.32 245.657 311.353 245.667 C 321.385 245.676 329.54 235.904 329.551 223.858 Z " fill="rgb(85,102,102)"/>
						<clipPath id="_clipPath_YFzsVwqUqkhAWNlZn914Yb7zaZEosGuq">
							<path d=" M 329.551 223.858 C 329.562 211.811 321.426 202.024 311.394 202.015 C 301.361 202.005 293.207 211.778 293.195 223.824 C 293.184 235.87 301.32 245.657 311.353 245.667 C 321.385 245.676 329.54 235.904 329.551 223.858 Z " fill="rgb(85,102,102)"/>
						</clipPath>
						<g clip-path="url(#_clipPath_YFzsVwqUqkhAWNlZn914Yb7zaZEosGuq)">
							<rect x="281.984" y="222.9" width="50.339" height="25.379" transform="matrix(1,0.001,-0.001,1,0.22,-0.287)" fill="rgb(88,162,162)"/>
						</g>
						<path d=" M 320.885 223.85 C 320.891 217.546 316.634 212.424 311.384 212.419 C 306.134 212.415 301.867 217.528 301.861 223.832 C 301.855 230.135 306.113 235.257 311.363 235.262 C 316.612 235.267 320.879 230.153 320.885 223.85 Z " fill="transparent" r="NaN" stroke-width="3" stroke="rgb(255,255,255)" stroke-opacity="0.75" stroke-linejoin="miter" stroke-linecap="square" stroke-miterlimit="3"/>
						<path d=" M 320.885 223.85 C 320.891 217.546 316.634 212.424 311.384 212.419 C 306.134 212.415 301.867 217.528 301.861 223.832 C 301.855 230.135 306.113 235.257 311.363 235.262 C 316.612 235.267 320.879 230.153 320.885 223.85 Z " fill="rgb(66,63,61)"/>
					</g>
				</g>
			</g>
			<g class="eyebrow">
				<path d=" M 310.614 188.732 L 278.946 187.478 Q 297.908 176.287 309.611 176.378 Q 321.313 176.469 342.283 189.986 L 310.614 188.732 Z " fill="rgb(94,64,56)"/>
				<path d=" M 206.892 188.785 L 238.524 186.803 Q 219.309 176.052 207.611 176.412 Q 195.914 176.772 175.261 190.767 L 206.892 188.785 Z " fill="rgb(94,64,56)"/>
			</g>
			<g>
				<path d=" M 152.226 185.576 C 153.681 192.418 161.628 215.911 160.862 216 Q 159.93 216.109 167.97 208 Q 154.824 186.514 152.341 183.871 C 151.901 183.402 151.913 184.104 152.226 185.576 Z " fill="rgb(66,63,61)"/>
				<clipPath id="_clipPath_1XDFHp4HWZd4vy30tLdXBRV5rhakNzRq">
					<path d=" M 152.226 185.576 C 153.681 192.418 161.628 215.911 160.862 216 Q 159.93 216.109 167.97 208 Q 154.824 186.514 152.341 183.871 C 151.901 183.402 151.913 184.104 152.226 185.576 Z " fill="rgb(66,63,61)"/>
				</clipPath>
				<g clip-path="url(#_clipPath_1XDFHp4HWZd4vy30tLdXBRV5rhakNzRq)">
					<rect x="123.213" y="192.186" width="54.127" height="11.305" transform="matrix(0.421,0.907,-0.79,0.673,243.243,-71.564)" fill="rgb(62,60,59)"/>
				</g>
				<path d=" M 163.774 209.959 Q 195.161 208.352 242.878 212.901 Q 244.846 236.494 239.505 250.59 Q 210.302 256.977 167.97 251.335 Q 162.421 226.376 163.774 209.959 Z " fill="none" stroke-width="6" stroke="rgb(66,63,61)" stroke-linejoin="round" stroke-linecap="round" stroke-miterlimit="3"/>
				<path d=" M 353.606 216 Q 354.515 216.232 349.606 206.903 Q 366.829 187.36 369.642 185.07 C 372.455 182.78 352.697 215.768 353.606 216 Z " fill="rgb(66,63,61)"/>
				<clipPath id="_clipPath_qgBuM5nhwR8QO17w6NlDtbotpFVkGGJD">
					<path d=" M 353.606 216 Q 354.515 216.232 349.606 206.903 Q 366.829 187.36 369.642 185.07 C 372.455 182.78 352.697 215.768 353.606 216 Z " fill="rgb(66,63,61)"/>
				</clipPath>
				<g clip-path="url(#_clipPath_qgBuM5nhwR8QO17w6NlDtbotpFVkGGJD)">
					<rect x="341.034" y="191.178" width="54.127" height="11.305" transform="matrix(0.538,-0.843,0.693,0.772,33.422,355.034)" fill="rgb(62,60,59)"/>
				</g>
				<path d=" M 352.093 207.999 Q 320.68 207.046 273.068 212.587 Q 271.591 236.216 277.225 250.198 Q 306.554 255.975 348.759 249.453 Q 353.788 224.385 352.093 207.999 Z " fill="none" stroke-width="6" stroke="rgb(66,63,61)" stroke-linejoin="round" stroke-linecap="round" stroke-miterlimit="3"/>
				<path d=" M 243.631 221.414 Q 247.074 216.242 258.012 216.509 Q 268.95 216.776 272.801 221.414" fill="none" stroke-width="6" stroke="rgb(66,63,61)" stroke-linejoin="round" stroke-linecap="round" stroke-miterlimit="3"/>
			</g>
			<g class="front-hair">
				<path d=" M 316 48 Q 267.799 19.815 240 20 C 212.201 20.185 195.276 29.515 180 48 C 164.724 66.485 155.159 100.342 144 117.668 Q 132.841 134.994 132 200 L 316 48 Z " fill="rgb(94,64,56)"/>
				<path d=" M 316 108 Q 335.522 150.24 343.412 176.329 Q 351.301 202.417 343.412 252 Q 363.365 229.339 372.315 211.691 C 381.265 194.043 380.356 173.012 378.091 151.871 C 375.826 130.73 371.816 79.134 343.412 64 Q 315.008 48.866 316 108 Z " fill="rgb(94,64,56)"/>
				<path d=" M 316 108 Q 299.409 99.54 289.292 100.205 Q 279.175 100.87 254.282 117.668 Q 262.384 79.872 271.829 65.195 C 281.274 50.518 302.173 18.473 320 20.094 C 322.9 20.137 332.344 24.475 336 28 C 339.656 31.525 348.656 43.6 348 54.975 C 347.37 65.888 341.075 71.503 332.537 80.691 Q 324 89.878 316 108 Z " fill="rgb(91,60,52)"/>
				<clipPath id="_clipPath_XSPPVdX3kR4SfWIPxHh8iTcopfpH2BQY">
					<path d=" M 316 108 Q 299.409 99.54 289.292 100.205 Q 279.175 100.87 254.282 117.668 Q 262.384 79.872 271.829 65.195 C 281.274 50.518 302.173 18.473 320 20.094 C 322.9 20.137 332.344 24.475 336 28 C 339.656 31.525 348.656 43.6 348 54.975 C 347.37 65.888 341.075 71.503 332.537 80.691 Q 324 89.878 316 108 Z " fill="rgb(91,60,52)"/>
				</clipPath>
				<g class="shadow-bangs" clip-path="url(#_clipPath_XSPPVdX3kR4SfWIPxHh8iTcopfpH2BQY)">
					<path d=" M 316 108 Q 300.87 107.417 292 108 Q 283.13 108.583 260.289 114.351 Q 266.353 82.828 275.672 68.346 C 284.992 53.864 304.881 23.177 323.533 29.591 C 342.185 36.006 344.98 46.328 342.454 59.387 C 340.4 70 323.485 83.945 316 92 Q 308.515 100.055 316 108 Z " fill="rgb(70,47,40)"/>
					<clipPath id="_clipPath_Z9tokDBMG9uPZLJC63KK82rNUr3YO9Bz">
						<path d=" M 316 108 Q 300.87 107.417 292 108 Q 283.13 108.583 260.289 114.351 Q 266.353 82.828 275.672 68.346 C 284.992 53.864 304.881 23.177 323.533 29.591 C 342.185 36.006 344.98 46.328 342.454 59.387 C 340.4 70 323.485 83.945 316 92 Q 308.515 100.055 316 108 Z " fill="rgb(70,47,40)"/>
					</clipPath>
					<g clip-path="url(#_clipPath_Z9tokDBMG9uPZLJC63KK82rNUr3YO9Bz)">
						<path d=" M 248 132 C 251.094 121.762 292.989 87.36 304 64 Q 315.011 40.64 320 20.094 Q 256.839 52.335 248 88 C 239.161 123.665 244.906 142.238 248 132 Z " fill="rgb(62,41,35)"/>
					</g>
				</g>
				<g>
					<path d=" M 116.631 6.062 L 140.565 128.938 Q 164.738 125.053 196.607 98.148 Q 228.477 71.242 236.385 54.785 L 116.631 6.062 Z "/>
					<clipPath id="_clipPath_xDCBFZWlLcgN8cp0EQ1JyThLaxARFziL">
						<path d=" M 116.631 6.062 L 140.565 128.938 Q 164.738 125.053 196.607 98.148 Q 228.477 71.242 236.385 54.785 L 116.631 6.062 Z "/>
					</clipPath>
					<g clip-path="url(#_clipPath_xDCBFZWlLcgN8cp0EQ1JyThLaxARFziL)">
						<path d=" M 164.479 123.247 L 196.551 23.954 L 220.297 37.703 L 204.068 100.816 L 164.479 123.247 Z " fill="#1a237e"/>
						<path d=" M 135.413 133.586 L 174.061 20.225 L 204.748 17.611 L 169.784 121.658 L 135.413 133.586 Z " fill="#4a148c"/>
						<path d=" M 200.829 102.664 L 220.668 34.476 L 251.708 36.118 L 223.786 99.491 L 200.829 102.664 Z " fill="#880e4f"/>
						<path d=" M 123.768 70.64 L 147.891 10.286 L 169.52 23.739 L 132.503 100.692 L 123.768 70.64 Z " fill="#b71c1c"/>
						<path d=" M 112.673 37.539 L 134.687 -0.631 L 152.182 6.965 L 127.369 67.853 L 112.673 37.539 Z " fill="#ff6f00"/>
						<path d=" M 130.426 93.318 L 171.805 10.742 L 188.48 20.561 L 137.886 136.782 L 130.426 93.318 Z " fill="#004d40"/>
						<path d=" M 92.485 50.859 L 112.325 -17.33 L 143.365 -15.688 L 115.442 47.685 L 92.485 50.859 Z " fill="#01579b"/>
					</g>
					<g>
						<line x1="109.581" y1="-4.925" x2="133.593" y2="26.104" stroke-width="10" stroke="#01579b"/>
						<line x1="104.277" y1="22.937" x2="135.612" y2="-1.312" stroke-width="10" stroke="#01579b"/>
						<line x1="100.141" y1="7.272" x2="140.202" y2="14.002" stroke-width="10" stroke="#01579b"/>
						<line x1="121.939" y1="-9.597" x2="118.404" y2="30.871" stroke-width="10" stroke="#01579b"/>
					</g>
				</g>
				<path d=" M 320 20.094 C 307.793 19.126 289.097 14.903 268 20.094 C 246.903 25.285 225.194 33.597 212 50.975 C 198.806 68.354 197.786 102.2 168 120 C 138.214 137.8 121.689 194.02 118.802 219.904 C 115.915 245.789 116.101 271.032 132.601 292.226 Q 149.1 313.42 153.763 323.999 Q 131.597 264.626 142.564 230.823 C 153.532 197.019 164.344 202.672 185.129 188.354 C 205.914 174.036 223.284 177.97 237.651 162.651 C 252.018 147.332 257.267 107.841 268 92 C 278.733 76.159 302.916 58.885 320 20.094 Z " fill="rgb(91,60,52)"/>
			</g>
		</g>
		<g class="dialog-5">
			<path d=" M 543.54 442.992 Q 540.599 443.14 541.063 440.62 Q 543.711 436.979 544.778 433.505 C 545.844 430.03 545.91 377.421 546.635 363.537 Q 546.635 355.631 554.064 355.235 L 903.571 355.235 Q 910.69 356.026 911 363.537 Q 911 377.421 911 433.505 Q 909.452 441.806 903.571 442.992 C 816.881 442.992 678.687 442.992 543.54 442.992 Z " fill="rgb(57,56,56)"/>
			<g clip-path="url(#_clipPath_cd6GMJ8GaVQpHZEklPJY27QnsFp6XqOK)">
				<text transform="matrix(1,0,0,1,565,381.172)" style="font-family:monospace;font-weight:400;font-size:16px;font-style:normal;fill:#e8e8e8;stroke:none;">If you want to know more about me </text>
				<text transform="matrix(1,0,0,1,565,404.61)" style="font-family:monospace;font-weight:400;font-size:16px;font-style:normal;fill:#e8e8e8;stroke:none;">you can reach me out on </text>
				<text transform="matrix(1,0,0,1,565,428.047)" style="font-family:monospace;font-weight:400;font-size:16px;font-style:normal;fill:#e8e8e8;stroke:none;">🔗 rightonhana.me</text>
			</g>
			<defs>
				<clipPath id="_clipPath_cd6GMJ8GaVQpHZEklPJY27QnsFp6XqOK">
					<rect x="0" y="0" width="338.571" height="73" transform="matrix(1,0,0,1,565,362.618)"/>
				</clipPath>
			</defs>
		</g>
		<g class="dialog-4">
			<path d=" M 543.142 442.993 Q 540.662 443.118 541.053 440.993 Q 543.286 437.923 544.186 434.993 C 545.085 432.063 545.141 416.701 545.752 404.993 Q 545.752 398.326 552.016 397.993 L 823.736 397.993 Q 829.739 398.66 830 404.993 Q 830 416.701 830 434.993 Q 828.695 441.993 823.736 442.993 C 750.635 442.993 657.103 442.993 543.142 442.993 Z " fill="rgb(57,56,56)"/>
			<g clip-path="url(#_clipPath_Ms0lecwxuJ44rVCTRwPcoZdoHehpvDLq)">
				<text transform="matrix(1,0,0,1,559.408,426.799)" style="font-family:monospace;font-weight:400;font-size:16px;font-style:normal;fill:#e8e8e8;stroke:none;">My pronouns are She/Her 👩‍💻</text>
			</g>
			<defs>
				<clipPath id="_clipPath_Ms0lecwxuJ44rVCTRwPcoZdoHehpvDLq">
					<rect x="0" y="0" width="258.183" height="24.503" transform="matrix(1,0,0,1,559.408,408.245)"/>
				</clipPath>
			</defs>
		</g>
		<g class="dialog-3">
			<path d=" M 543.54 442.992 Q 540.599 443.14 541.063 440.62 Q 543.711 436.979 544.778 433.505 C 545.844 430.03 545.91 377.421 546.635 363.537 Q 546.635 355.631 554.064 355.235 L 903.571 355.235 Q 910.69 356.026 911 363.537 Q 911 377.421 911 433.505 Q 909.452 441.806 903.571 442.992 C 816.881 442.992 678.687 442.992 543.54 442.992 Z " fill="rgb(57,56,56)"/>
			<g clip-path="url(#_clipPath_cd6GMJ8GaVQpHZEklPJY27QnsFp6XqOK)">
				<text transform="matrix(1,0,0,1,565,381.172)" style="font-family:monospace;font-weight:400;font-size:16px;font-style:normal;fill:#e8e8e8;stroke:none;">I'm a Front-end Developer with </text>
				<text transform="matrix(1,0,0,1,565,404.61)" style="font-family:monospace;font-weight:400;font-size:16px;font-style:normal;fill:#e8e8e8;stroke:none;">experience in Angular, React and </text>
				<text transform="matrix(1,0,0,1,565,428.047)" style="font-family:monospace;font-weight:400;font-size:16px;font-style:normal;fill:#e8e8e8;stroke:none;">Svelte.</text>
			</g>
			<defs>
				<clipPath id="_clipPath_cd6GMJ8GaVQpHZEklPJY27QnsFp6XqOK">
					<rect x="0" y="0" width="338.571" height="73" transform="matrix(1,0,0,1,565,362.618)"/>
				</clipPath>
			</defs>
		</g>
		<g class="dialog-2">
			<path d=" M 543.742 442.16 Q 540.567 442.285 541.068 440.155 Q 543.927 437.077 545.078 434.139 C 546.23 431.202 546.301 394.748 547.084 383.011 Q 547.084 376.327 555.104 375.993 L 902.98 375.993 Q 910.666 376.661 911 383.011 Q 911 394.748 911 434.139 Q 909.329 441.157 902.98 442.16 C 809.39 442.16 689.644 442.16 543.742 442.16 Z " fill="rgb(57,56,56)"/>
			<g clip-path="url(#_clipPath_ESlM0h8RX5VXCFQgA5t80sqGiBmZNFpN)">
				<text transform="matrix(1,0,0,1,561.068,404.114)" style="font-family:monospace;font-weight:400;font-size:16px;font-style:normal;fill:#e8e8e8;stroke:none;">I'm from Argentina 🇦🇷 but currently </text>
				<text transform="matrix(1,0,0,1,561.068,427.551)" style="font-family:monospace;font-weight:400;font-size:16px;font-style:normal;fill:#e8e8e8;stroke:none;">I'm living in the United States 🇺🇸</text>
			</g>
			<defs>
				<clipPath id="_clipPath_ESlM0h8RX5VXCFQgA5t80sqGiBmZNFpN">
					<rect x="0" y="0" width="341" height="46.875" transform="matrix(1,0,0,1,561.068,385.559)"/>
				</clipPath>
			</defs>
		</g>
		<g class="dialog-1">
			<path d=" M 543.297 442.993 Q 540.637 443.118 541.057 440.993 Q 543.452 437.923 544.417 434.993 C 545.382 432.063 545.441 416.701 546.097 404.993 Q 546.097 398.326 552.817 397.993 L 896.28 397.993 Q 902.72 398.66 903 404.993 Q 903 416.701 903 434.993 Q 901.6 441.993 896.28 442.993 C 817.868 442.993 665.54 442.993 543.297 442.993 Z " fill="rgb(57,56,56)"/>
			<g clip-path="url(#_clipPath_3D2gxkuakMBlARHwnRYqTgx1WEIpF5CZ)">
				<text transform="matrix(1,0,0,1,559,427.048)" style="font-family:monospace;font-weight:400;font-size:16px;font-style:normal;fill:#e8e8e8;stroke:none;">Hi there 👋 I'm Florencia Gonzalez</text>
			</g>
			<defs>
				<clipPath id="_clipPath_3D2gxkuakMBlARHwnRYqTgx1WEIpF5CZ">
					<rect x="0" y="0" width="350" height="24.007" transform="matrix(1,0,0,1,559,408.493)"/>
				</clipPath>
			</defs>
		</g>
	</g>
</svg>