<svg class="avatar" xmlns="http://www.w3.org/2000/svg"
	xmlns:xlink="http://www.w3.org/1999/xlink" style="isolation:isolate" viewBox="0 0 1024 512" width="1024pt" height="512pt">
	<style>
			.dialog-1 {
				opacity: 0;
				animation: greet 7s both;
			}

			.dialog-2 {
				opacity: 0;
				animation: from 7s both;
			}

			.dialog-3 {
				opacity: 0;
				animation: profession 7s both;
			}

			.dialog-4 {
				opacity: 0;
				animation: pronouns 7s both;
			}

			.dialog-5 {
				opacity: 0;
				animation: contact 7s both;
			}

			.eyelid {
				animation: eye 3s ease-in-out infinite;
				transform-origin: center;
			}

			.catEyelid {
				animation: eye 4s ease-in-out infinite;
				animation-delay: 1s;
				transform-origin: center;
			}
			
			.pupil {
				animation: pupil 15s ease-out infinite;
				transform-origin: center;
			}

			.eyebrow {
				animation: eyebrow 3s ease-in-out infinite;
				transform-origin: center;
			}

			.mouth {
				animation: mouth 15s ease infinite;
				transform-origin: center;
			}

			.dot {
				animation: dot 15s ease infinite;
				transform-origin: center;
			}

			.cheeks:first-child {
				animation: cheeks1 15s ease infinite;
				transform-origin: center;
			}

			.cheeks:nth-child(2), .cheeks:nth-child(3) {
				animation: cheeks2 15s ease infinite;
				transform-origin: center;
			}

			.catTail {
				animation: tail 15s ease-in-out infinite;
				transform-origin: bottom left;
				transform-box: fill-box;
			}

			.catTongue {
				animation: tongue 15s ease-in-out infinite;
				transform-origin: center;
			}

			@keyframes greet {
				0% {
					opacity: 0;
					transform: translate(0, 0);
				}
				20% {
					opacity: 1;
					transform: translate(0, 0);
				}
				40% {
					opacity: 1;
					transform: translate(0, -78px);
				}
				60% {
					opacity: 1;
					transform: translate(0, -180px);
				}
				80% {
					opacity: 1;
					transform: translate(0, -234px);
				}
				100%{
					opacity: 1;
					transform: translate(0, -333px);
				}
			}

			@keyframes from {
				0%, 20% {
					opacity: 0;
					transform: translate(0, 0);
				}
				40% {
					opacity: 1;
					transform: translate(0, 0);
				}
				60% {
					opacity: 1;
					transform: translate(0, -100px);
				}
				80%{
					opacity: 1;
					transform: translate(0, -155px);
				}
				100%{
					opacity: 1;
					transform: translate(0, -252px);
				}
			}

			@keyframes profession {
				0%, 40% {
					opacity: 0;
					transform: translate(0, 0);
				}
				60% {
					opacity: 1;
					transform: translate(0, 0);
				}
				80% {
					opacity: 1;
					transform: translate(0, -56px);
				}
				100% {
					opacity: 1;
					transform: translate(0, -155px);
				}
			}

			@keyframes pronouns {
				0%, 60% {
					opacity: 0;
					transform: translate(0, 0);
				}
				80% {
					opacity: 1;
					transform: translate(0, 0);
				}
				100%{
					opacity: 1;
					transform: translate(0, -99px);
				}
			}

			@keyframes contact {
				0%, 80% {
					opacity: 0;
					transform: translate(0, 0);
				}
				100%{
					opacity: 1;
					transform: translate(0, 0);
				}
			}
			
			@keyframes eye {
				5%, 20% {
					transform: scale(1, 1);
					stroke-width: 2px;
				}
				10%, 15% {
					transform: scale(1, 0);
					stroke-width: 20px;
				}
			}

			@keyframes pupil {
				5%, 20% {
					transform: translate(5px, -1px);
				}
				10%, 15% {
					transform: translate(-5px, 1px);
				}
				20%, 100% {
					transform: translate(0, 0);
				}
			}

			@keyframes eyebrow {
				0%, 9% {
					transform: translate(0, 0);
				}
				10%, 15% {
					transform: translate(0, 0.5px);
				}
				16%, 100% {
					transform: translate(0, 0);
				}
			}

			@keyframes mouth {
				0%, 4% {
					transform: scale(1, 1);
				}
				5%, 20% {
					transform-origin: 250px 280px;
					transform: scale(1.1 , 0.95);
				}
				21%, 100% {
					transform: scale(1, 1);
				}
			}

			@keyframes dot {
				0%, 4% {
					transform: translate(0, 0);
				}
				5%, 20% {
					transform: translate(0, -3px);
				}
				21%, 100% {
					transform: translate(0, 0);
				}
			}

			@keyframes cheeks1 {
				0%, 4% {
					transform: translate(0, 0);
				}
				5%, 20% {
					transform: translate(-2px, 0);
				}
				21%, 100% {
					transform: translate(0, 0);
				}
			}
			
			@keyframes cheeks2 {
				0%, 4% {
					transform: translate(0, 0);
				}
				5%, 20% {
					transform: translate(2px, 0);
				}
				21%, 100% {
					transform: translate(0, 0);
				}
			}
			
			@keyframes tail {
				0% {
					transform: rotate(0);
				}
				15% {
					transform: rotate(10deg);
				}
				25% {
					transform: rotate(-5deg);
				}
				30% {
					transform: rotate(10deg);
				}
				40% {
					transform: rotate(-2deg);
				}
				70% {
					transform: rotate(10deg);
				}
				80% {
					transform: rotate(-5deg);
				}
				85% {
					transform: rotate(10deg);
				}
			}

			@keyframes tongue {
				0%, 4% {
					transform: translate(0, 0);
				}
				5%, 50% {
					transform: translate(-4px, -4px);
				}
				51%, 100% {
					transform: translate(0, 0);
				}
			}
	</style>
	<defs>
		<clipPath id="_clipPath_uSaH7GvzYbWeM4qHwkmFMFjBW04XGMZb">
			<rect width="1024" height="512"/>
		</clipPath>
	</defs>
	<g clip-path="url(#_clipPath_uSaH7GvzYbWeM4qHwkmFMFjBW04XGMZb)">
		<g>
			<path d=" M 254.64 311.615 C 266.295 310.394 288.556 318.743 341.017 337.284 L 344.824 318.364 Q 350.143 322.291 354.467 331.166 Q 358.79 340.04 395.831 338.131 Q 411.622 310.545 411.708 265.976 C 411.801 217.616 394.123 205.368 389.745 186.206 C 385.367 167.045 385.367 167.045 377.142 137.51 Q 350.136 71.333 341.728 63.859 Q 334.025 57.011 305.171 53.905 C 303.485 45.99 301.523 41.232 299.343 40.734 C 282.429 36.867 225.589 35.255 209.565 40.734 C 193.54 46.213 184.408 56.385 176 63.859 C 167.592 71.333 142.595 91.374 132 112 C 121.405 132.626 127.413 165.292 119.535 186.206 C 111.658 207.12 97.478 217.616 97.572 265.976 Q 97.658 310.545 113.448 338.131 Q 150.489 340.04 154.813 331.166 Q 159.137 322.291 164.456 318.364 L 168.263 337.284 Q 242.985 312.837 254.64 311.615 Z " fill="rgb(94,64,56)"/>
			<clipPath id="_clipPath_0ncUgiyCvweMKm4M3IrCLbWNX4PV3Q4n">
				<path d=" M 254.64 311.615 C 266.295 310.394 288.556 318.743 341.017 337.284 L 344.824 318.364 Q 350.143 322.291 354.467 331.166 Q 358.79 340.04 395.831 338.131 Q 411.622 310.545 411.708 265.976 C 411.801 217.616 394.123 205.368 389.745 186.206 C 385.367 167.045 385.367 167.045 377.142 137.51 Q 350.136 71.333 341.728 63.859 Q 334.025 57.011 305.171 53.905 C 303.485 45.99 301.523 41.232 299.343 40.734 C 282.429 36.867 225.589 35.255 209.565 40.734 C 193.54 46.213 184.408 56.385 176 63.859 C 167.592 71.333 142.595 91.374 132 112 C 121.405 132.626 127.413 165.292 119.535 186.206 C 111.658 207.12 97.478 217.616 97.572 265.976 Q 97.658 310.545 113.448 338.131 Q 150.489 340.04 154.813 331.166 Q 159.137 322.291 164.456 318.364 L 168.263 337.284 Q 242.985 312.837 254.64 311.615 Z " fill="rgb(94,64,56)"/>
			</clipPath>
			<g clip-path="url(#_clipPath_0ncUgiyCvweMKm4M3IrCLbWNX4PV3Q4n)">
				<path d=" M 368 116 C 378.515 119.396 397.2 204.556 392.368 244.782 C 388.901 273.649 393.604 330.966 395.664 343.681 Q 400.594 374.115 333.239 293.21 Q 357.485 112.604 368 116 Z " fill="rgb(91,60,52)"/>
				<path d=" M 375.031 352.878 Q 403.631 308.507 367.031 128.878 Q 164.125 92.314 159.031 116.878 C 153.936 141.441 117.324 330.371 143.031 348.878 C 168.737 367.385 346.43 397.248 375.031 352.878 Z " fill="rgb(70,47,40)"/>
			</g>
			<path d=" M 208.836 312.883 Q 213.527 340.994 212.66 364.17 C 212.498 368.496 212.191 372.693 211.739 376.761 C 184.931 388.167 153.717 406.045 117.969 430.232 L 254.502 479.157 L 386.941 429.849 Q 342.193 394.249 304.618 376.98 Q 297.513 345.887 299.483 288.414 L 208.836 312.883 Z " fill="rgb(248,222,200)"/>
			<clipPath id="_clipPath_L5YAcCUp1DHINVfQQq7wmfA3p0v9z7ke">
				<path d=" M 208.836 312.883 Q 213.527 340.994 212.66 364.17 C 212.498 368.496 212.191 372.693 211.739 376.761 C 184.931 388.167 153.717 406.045 117.969 430.232 L 254.502 479.157 L 386.941 429.849 Q 342.193 394.249 304.618 376.98 Q 297.513 345.887 299.483 288.414 L 208.836 312.883 Z " fill="rgb(248,222,200)"/>
			</clipPath>
			<g clip-path="url(#_clipPath_L5YAcCUp1DHINVfQQq7wmfA3p0v9z7ke)">
				<path d=" M 396 338.091 L 172.991 454.769 L 132 284 L 352 240 L 396 338.091 Z " fill="rgb(244,206,186)"/>
				<path d=" M 340 338.091 L 211.739 376.761 L 164.555 270.006 L 366.483 256.509 L 340 338.091 Z " fill="rgb(204,152,152)" fill-opacity="0.3" style="mix-blend-mode:multiply;"/>
				<path d=" M 274.316 430.563 L 295.211 418.143 L 344.588 413.679 L 274.316 430.563 Z " fill="rgb(237,186,169)"/>
			</g>
			<g class="clothes">
				<path d=" M 164.781 394.857 Q 203.44 435.682 246.089 441.812 Q 288.737 447.943 337.393 391.93 L 355.132 404.5 L 386.9 425.6 L 379.157 537.415 L 109.791 552 L 100.068 449.907 L 152.951 407.791 L 164.781 394.857 Z " fill="#212936"/>
				<clipPath id="_clipPath_RVPJNAhY5ON6w6sy1iaAxfhI55AmWGOA">
					<path d=" M 164.781 394.857 Q 203.44 435.682 246.089 441.812 Q 288.737 447.943 337.393 391.93 L 355.132 404.5 L 386.9 425.6 L 379.157 537.415 L 109.791 552 L 100.068 449.907 L 152.951 407.791 L 164.781 394.857 Z " fill="#212936"/>
				</clipPath>
				<g clip-path="url(#_clipPath_RVPJNAhY5ON6w6sy1iaAxfhI55AmWGOA)">
					<path d=" M 359.454 384 L 287.454 528 L 367.454 552 L 359.454 384 Z " fill="#1F2734"/>
					<path d=" M 143.822 372.122 L 367.454 372.122 Q 335.072 432.331 304.253 445.046 C 273.435 457.761 229.377 456.034 192.438 440.184 Q 155.498 424.334 143.822 372.122 Z " fill="#2A323F"/>
					<path d=" M 396 632 L 367.454 624 L 68 608 L 396 632 Z " fill="#1F2734"/>
				</g>
				<path d=" M 134.823 411.015 Q 139.035 410.05 154.27 401.292 Q 171.402 443.004 178.577 466.339 Q 185.752 489.674 198.024 552 L 52.177 552 Q 33.538 500.727 37.592 493.661 C 41.647 486.595 49.894 488.25 57.038 488.8 C 49.674 482.663 46.215 474.015 47.315 464.492 C 48.416 454.969 67.592 450.196 76.485 440.184 C 85.377 430.172 89.436 411.763 95.931 411.015 C 102.426 410.267 101.654 416.184 105.654 415.876 Q 109.654 415.569 115.377 406.153 Q 130.611 411.979 134.823 411.015 Z " fill="rgb(57,56,56)"/>
				<clipPath id="_clipPath_agq4QGGLOlFKsHeyp0vrvgUn1V6785SC">
					<path d=" M 134.823 411.015 Q 139.035 410.05 154.27 401.292 Q 171.402 443.004 178.577 466.339 Q 185.752 489.674 198.024 552 L 52.177 552 Q 33.538 500.727 37.592 493.661 C 41.647 486.595 49.894 488.25 57.038 488.8 C 49.674 482.663 46.215 474.015 47.315 464.492 C 48.416 454.969 67.592 450.196 76.485 440.184 C 85.377 430.172 89.436 411.763 95.931 411.015 C 102.426 410.267 101.654 416.184 105.654 415.876 Q 109.654 415.569 115.377 406.153 Q 130.611 411.979 134.823 411.015 Z " fill="rgb(57,56,56)"/>
				</clipPath>
				<g clip-path="url(#_clipPath_agq4QGGLOlFKsHeyp0vrvgUn1V6785SC)">
					<path d=" M 95.931 406.153 Q 139.416 449.041 154.27 483.938 Q 169.123 518.835 207.747 595.754 L 222.331 586.031 L 159.131 386.707 L 95.931 406.153 Z " fill="rgb(46,46,46)"/>
					<path d=" M 149.716 517.415 L 115.685 478.523 L 81.654 449.354 Q 108.427 461.542 120.546 473.661 Q 132.666 485.78 149.716 517.415 Z " fill="rgb(70,70,70)"/>
					<path d=" M 159.131 537.415 L 61.9 479.077 Q 60.536 488.659 61.9 493.661 Q 63.264 498.664 100.792 508.246 L 159.131 537.415 Z " fill="rgb(47,47,47)"/>
				</g>
				<path d=" M 377.177 411.015 Q 372.965 410.05 357.73 401.292 Q 340.598 443.004 333.423 466.339 Q 326.248 489.674 313.976 552 L 459.823 552 Q 478.462 500.727 474.408 493.661 C 470.353 486.595 462.106 488.25 454.962 488.8 C 462.326 482.663 465.785 474.015 464.685 464.492 C 463.584 454.969 444.408 450.196 435.515 440.184 C 426.623 430.172 422.564 411.763 416.069 411.015 C 409.574 410.267 410.346 416.184 406.346 415.876 Q 402.346 415.569 396.623 406.153 Q 381.389 411.979 377.177 411.015 Z " fill="rgb(57,56,56)"/>
				<clipPath id="_clipPath_OYDqCOU4kVc43cCoVbi2ryfCUva4uafB">
					<path d=" M 377.177 411.015 Q 372.965 410.05 357.73 401.292 Q 340.598 443.004 333.423 466.339 Q 326.248 489.674 313.976 552 L 459.823 552 Q 478.462 500.727 474.408 493.661 C 470.353 486.595 462.106 488.25 454.962 488.8 C 462.326 482.663 465.785 474.015 464.685 464.492 C 463.584 454.969 444.408 450.196 435.515 440.184 C 426.623 430.172 422.564 411.763 416.069 411.015 C 409.574 410.267 410.346 416.184 406.346 415.876 Q 402.346 415.569 396.623 406.153 Q 381.389 411.979 377.177 411.015 Z " fill="rgb(57,56,56)"/>
				</clipPath>
				<g clip-path="url(#_clipPath_OYDqCOU4kVc43cCoVbi2ryfCUva4uafB)">
					<path d=" M 416.069 406.153 Q 372.584 449.041 357.73 483.938 Q 342.877 518.835 304.253 595.754 L 289.669 586.031 L 352.869 386.707 L 416.069 406.153 Z " fill="rgb(46,46,46)"/>
					<path d=" M 338.284 537.415 L 372.315 498.523 L 406.346 469.354 Q 379.573 481.542 367.454 493.661 Q 355.334 505.78 338.284 537.415 Z " fill="rgb(47,47,47)"/>
					<path d=" M 352.869 537.415 L 450.1 479.077 Q 450.705 491.443 450.1 493.661 C 449.495 495.879 438.795 499.834 432.293 502.34 Q 425.103 505.111 411.208 508.246 L 352.869 537.415 Z " fill="rgb(70,70,70)"/>
				</g>
			</g>
			<g>
				<path d=" M 415.74 332.544 Q 420.145 363.476 415.74 379.626 Q 411.336 395.777 400.046 411.015 Q 400.782 426.464 384.352 426.709 Q 367.922 426.955 368.657 411.015 L 337.335 395.321 Q 319.319 434.875 305.88 442.404 C 287.279 452.824 276.66 444.273 274.492 442.404 C 267.38 436.273 283.659 415.461 290.186 411.015 C 296.713 406.569 305.88 403.983 305.88 395.321 C 305.88 386.659 293.591 386.814 290.186 379.626 C 286.781 372.439 297.788 313.606 321.575 309.192 C 333.468 306.984 321.886 284.588 337.335 276.924 C 352.784 269.261 395.264 299.684 400.046 301.155 Q 409.61 304.098 415.74 332.544 Z " fill="rgb(135,136,138)"/>
				<clipPath id="_clipPath_btap6kpo3LmKizjShKt8c6akIQNAp94Q">
					<path d=" M 415.74 332.544 Q 420.145 363.476 415.74 379.626 Q 411.336 395.777 400.046 411.015 Q 400.782 426.464 384.352 426.709 Q 367.922 426.955 368.657 411.015 L 337.335 395.321 Q 319.319 434.875 305.88 442.404 C 287.279 452.824 276.66 444.273 274.492 442.404 C 267.38 436.273 283.659 415.461 290.186 411.015 C 296.713 406.569 305.88 403.983 305.88 395.321 C 305.88 386.659 293.591 386.814 290.186 379.626 C 286.781 372.439 297.788 313.606 321.575 309.192 C 333.468 306.984 321.886 284.588 337.335 276.924 C 352.784 269.261 395.264 299.684 400.046 301.155 Q 409.61 304.098 415.74 332.544 Z " fill="rgb(135,136,138)"/>
				</clipPath>
				<g clip-path="url(#_clipPath_btap6kpo3LmKizjShKt8c6akIQNAp94Q)">
					<path d=" M 286.63 382.945 L 305.068 392.164 Q 294.409 379.737 295.849 359.589 C 297.29 339.442 306.797 335.408 318.897 327.63 C 330.997 319.851 376.751 318.611 392.65 313.801 C 400.566 311.407 432.336 299.875 424.917 290.753 C 417.498 281.631 384.984 278.529 346.555 265.394 Q 314.38 254.397 277.411 359.897 L 286.63 382.945 Z " fill="rgb(116,119,123)"/>
					<clipPath id="_clipPath_3rAeolmr98SiRNQDrPiWB7Fb6Y8C34L3">
						<path d=" M 286.63 382.945 L 305.068 392.164 Q 294.409 379.737 295.849 359.589 C 297.29 339.442 306.797 335.408 318.897 327.63 C 330.997 319.851 376.751 318.611 392.65 313.801 C 400.566 311.407 432.336 299.875 424.917 290.753 C 417.498 281.631 384.984 278.529 346.555 265.394 Q 314.38 254.397 277.411 359.897 L 286.63 382.945 Z " fill="rgb(116,119,123)"/>
					</clipPath>
					<g clip-path="url(#_clipPath_3rAeolmr98SiRNQDrPiWB7Fb6Y8C34L3)">
						<path d=" M 268.192 364.506 Q 325.235 374.878 328.116 392.164 Q 330.997 409.45 268.192 396.773 L 268.192 364.506 Z " fill="rgb(232,232,232)"/>
						<line x1="-86.745" y1="429.04" x2="-137.451" y2="433.65"/>
					</g>
					<path d=" M 360.053 415.212 Q 372.673 419.504 383.433 419.821 C 400.964 420.338 414.792 400.083 424.917 398.85 Q 446.32 396.243 373.21 442.066 L 360.053 415.212 Z " fill="rgb(116,119,123)"/>
					<path d=" M 332.726 405.993 C 342.665 399.654 334.886 379.632 333.619 373.726 Q 333.584 367.868 338.229 359.897 Q 347.16 393.857 361.277 401.383 Q 375.393 408.909 374.104 410.602 L 356.667 415.212 Q 342.233 409.594 332.726 405.993 Z " fill="rgb(116,119,123)"/>
					<path d=" M 338.229 398.85 Q 336.387 357.305 351.164 341.459 C 365.941 325.612 380.155 311.825 397.26 323.02 C 414.364 334.216 403.778 356.712 397.26 373.726 Q 390.742 390.739 364.993 410.602 L 338.229 398.85 Z " fill="rgb(255,255,255)"/>
					<clipPath id="_clipPath_fmktK9e9NtEHJmVaiCypSbV2TVHTNO83">
						<path d=" M 338.229 398.85 Q 336.387 357.305 351.164 341.459 C 365.941 325.612 380.155 311.825 397.26 323.02 C 414.364 334.216 403.778 356.712 397.26 373.726 Q 390.742 390.739 364.993 410.602 L 338.229 398.85 Z " fill="rgb(255,255,255)"/>
					</clipPath>
					<g clip-path="url(#_clipPath_fmktK9e9NtEHJmVaiCypSbV2TVHTNO83)">
						<path d=" M 332.726 405.993 C 342.665 399.654 334.886 379.632 333.619 373.726 Q 333.584 367.868 338.229 359.897 Q 347.16 393.857 361.277 401.383 Q 375.393 408.909 374.104 410.602 L 356.667 415.212 Q 342.233 409.594 332.726 405.993 Z " fill="rgb(232,232,232)"/>
					</g>
					<path d=" M 305.068 415.212 Q 317.294 426.006 338.229 419.821 Q 289.883 485.594 271.459 467.447 Q 253.034 449.301 286.63 382.945 Q 292.843 404.417 305.068 415.212 Z " fill="rgb(255,255,255)"/>
				</g>
				<g class="catTail">
					<path d=" M 390.827 312.24 C 387.779 304.838 424.211 295.506 437.91 280.851 C 451.609 266.197 459.244 223.224 469.298 218.074 C 479.352 212.924 485.238 227.638 484.993 233.768 C 484.747 239.899 470.68 278.278 453.604 296.545 Q 436.528 314.812 406.521 327.934 Q 393.875 319.642 390.827 312.24 Z " fill="rgb(135,136,138)"/>
					<clipPath id="_clipPath_s7wRfywRbBQ6VVYYeCYo4ZSkS9fGion0">
						<path d=" M 390.827 312.24 C 387.779 304.838 424.211 295.506 437.91 280.851 C 451.609 266.197 459.244 223.224 469.298 218.074 C 479.352 212.924 485.238 227.638 484.993 233.768 C 484.747 239.899 470.68 278.278 453.604 296.545 Q 436.528 314.812 406.521 327.934 Q 393.875 319.642 390.827 312.24 Z " fill="rgb(135,136,138)"/>
					</clipPath>
					<g clip-path="url(#_clipPath_s7wRfywRbBQ6VVYYeCYo4ZSkS9fGion0)">
						<path d=" M 406.521 296.545 Q 417.803 315.428 447.965 296.545 Q 478.128 277.663 406.521 343.628 L 375.133 312.24 L 406.521 296.545 Z " fill="rgb(116,119,123)"/>
					</g>
				</g>
				<g>
					<path d=" M 283.964 433.88 C 285.56 432.926 287.386 433.037 288.039 434.129 C 288.691 435.221 287.925 436.882 286.328 437.837 C 284.732 438.791 282.906 438.679 282.253 437.587 C 281.601 436.495 282.367 434.834 283.964 433.88 Z " fill="rgb(246,203,187)"/>
					<path d=" M 290.878 438.264 C 292.475 437.31 294.301 437.422 294.953 438.514 C 295.606 439.605 294.839 441.267 293.243 442.221 C 291.646 443.175 289.82 443.063 289.168 441.971 C 288.515 440.879 289.281 439.218 290.878 438.264 Z " fill="rgb(246,203,187)"/>
					<path d=" M 300.212 436.507 C 301.809 435.552 303.635 435.664 304.287 436.756 C 304.94 437.848 304.173 439.509 302.577 440.463 C 300.98 441.417 299.154 441.306 298.502 440.214 C 297.849 439.122 298.616 437.461 300.212 436.507 Z " fill="rgb(246,203,187)"/>
					<path d=" M 284.627 425.979 C 286.223 425.025 288.049 425.137 288.702 426.229 C 289.355 427.321 288.588 428.982 286.992 429.936 C 285.395 430.89 283.569 430.778 282.916 429.686 C 282.264 428.594 283.03 426.933 284.627 425.979 Z " fill="rgb(246,203,187)"/>
					<path d=" M 299.945 425.331 C 303.236 424.543 306.215 425.307 306.753 427.139 C 307.324 429.085 304.923 431.506 301.394 432.541 C 298.511 433.387 294.347 433.532 292.577 432.541 C 290.807 431.551 290.781 427.321 292.577 424.112 C 294.373 420.903 297.269 419.102 299.039 420.093 C 300.37 420.838 300.688 422.95 299.945 425.331 Z " fill="rgb(246,203,187)"/>
				</g>
				<g>
					<line x1="395.364" y1="332.397" x2="384.863" y2="332.348" vector-effect="non-scaling-stroke" stroke-width="1" stroke="rgb(246,203,187)" stroke-linejoin="miter" stroke-linecap="round" stroke-miterlimit="3"/>
					<line x1="388.117" y1="327.517" x2="392.11" y2="337.228" vector-effect="non-scaling-stroke" stroke-width="1" stroke="rgb(246,203,187)" stroke-linejoin="miter" stroke-linecap="round" stroke-miterlimit="3"/>
				</g>
			</g>
			<g>
				<g>
					<path d=" M 336.775 263.249 C 338.292 269.24 357.553 264.121 361.549 262.185 C 365.545 260.25 367.88 252.615 374.172 244.529 C 378.813 238.564 385.383 233.463 386.78 226.964 C 388.176 220.466 384.571 191.169 377.685 190.946 Q 363.88 190.754 356.964 197.527 Q 350.047 204.3 350.16 209.482 Q 335.257 257.258 336.775 263.249 Z " fill="rgb(248,209,187)"/>
					<clipPath id="_clipPath_nLJ9RGFGj6iMR6ceOKccxnjXtr6fLWtv">
						<path d=" M 336.775 263.249 C 338.292 269.24 357.553 264.121 361.549 262.185 C 365.545 260.25 367.88 252.615 374.172 244.529 C 378.813 238.564 385.383 233.463 386.78 226.964 C 388.176 220.466 384.571 191.169 377.685 190.946 Q 363.88 190.754 356.964 197.527 Q 350.047 204.3 350.16 209.482 Q 335.257 257.258 336.775 263.249 Z " fill="rgb(248,209,187)"/>
					</clipPath>
					<g clip-path="url(#_clipPath_nLJ9RGFGj6iMR6ceOKccxnjXtr6fLWtv)">
						<path d=" M 370.125 238.97 Q 382.585 223.424 382.754 221.273 C 382.923 219.122 382.472 217.082 381.653 215.113 C 380.239 211.713 377.728 208.527 375.417 205.354 Q 373.107 202.18 359.941 206.581 L 357.965 222.428 L 370.125 238.97 Z " fill="rgb(218,172,163)"/>
						<path d=" M 357.23 227.098 Q 362.527 234.483 360.52 237.458 C 358.514 240.434 348.524 250.164 348.301 252.552 C 348.079 254.94 367.822 242.853 370.125 238.97 C 372.428 235.088 374.903 224.251 373.178 219.577 Q 371.453 214.903 364.568 211.75 L 359.765 210.994 L 357.23 227.098 Z " fill="rgb(237,186,169)"/>
					</g>
					<path d=" M 359.363 256.698 C 358.803 265.638 356.59 272.786 354.425 272.651 C 353.222 272.575 352.285 270.268 351.786 266.698" fill="none" stroke-width="4" stroke="rgb(66,63,61)" stroke-linejoin="round" stroke-linecap="round" stroke-miterlimit="3"/>
					<path d=" M 378.892 215.806 C 387.758 214.522 394.703 211.736 394.392 209.589 C 394.219 208.396 391.843 207.65 388.244 207.442" fill="none" stroke-width="4" stroke="rgb(89,87,86)" stroke-linejoin="round" stroke-linecap="round" stroke-miterlimit="3"/>
					<path d=" M 342.479 259.088 C 342.904 256.384 345.402 254.527 348.052 254.945 C 350.703 255.362 352.509 257.896 352.083 260.6 C 351.658 263.304 349.16 265.16 346.51 264.743 C 343.859 264.326 342.053 261.792 342.479 259.088 Z " fill="rgb(66,63,61)"/>
				</g>
				<g>
					<path d=" M 177.228 265.521 C 175.148 271.341 156.46 264.416 152.666 262.109 C 148.872 259.803 147.273 251.981 141.778 243.334 C 137.724 236.955 131.668 231.253 130.895 224.651 C 130.122 218.05 136.493 189.228 143.369 189.66 Q 157.13 190.78 163.372 198.179 Q 169.613 205.578 169.009 210.726 Q 179.308 259.701 177.228 265.521 Z " fill="rgb(248,209,187)"/>
					<clipPath id="_clipPath_sztCn13pFRMyOBJwLQTBkQ9WC2YwUose">
						<path d=" M 177.228 265.521 C 175.148 271.341 156.46 264.416 152.666 262.109 C 148.872 259.803 147.273 251.981 141.778 243.334 C 137.724 236.955 131.668 231.253 130.895 224.651 C 130.122 218.05 136.493 189.228 143.369 189.66 Q 157.13 190.78 163.372 198.179 Q 169.613 205.578 169.009 210.726 Q 179.308 259.701 177.228 265.521 Z " fill="rgb(248,209,187)"/>
					</clipPath>
					<g clip-path="url(#_clipPath_sztCn13pFRMyOBJwLQTBkQ9WC2YwUose)">
						<path d=" M 146.334 238.185 Q 135.407 221.525 135.443 219.368 C 135.478 217.211 136.121 215.222 137.124 213.34 C 138.854 210.091 141.657 207.157 144.258 204.217 Q 146.859 201.278 159.304 204.217 L 160.01 222.872 L 146.334 238.185 Z " fill="rgb(218,172,163)"/>
						<path d=" M 160.298 227.59 Q 154.324 234.44 156.039 237.592 C 157.753 240.744 166.775 251.38 166.769 253.778 C 166.763 256.176 148.258 242.268 146.334 238.185 C 144.41 234.102 142.975 223.078 145.136 218.589 Q 147.297 214.1 154.451 211.615 L 159.304 211.319 L 160.298 227.59 Z " fill="rgb(237,186,169)"/>
					</g>
					<path d=" M 142.591 243.604 C 137.299 250.832 135.496 258.525 138.565 260.771 C 140.27 262.019 143.123 261.326 146.229 259.223" fill="none" stroke-width="4" stroke="rgb(59,57,55)" stroke-linejoin="round" stroke-linecap="round" stroke-miterlimit="3"/>
					<path d=" M 153.103 249.153 C 152.801 249.535 152.502 249.926 152.208 250.328 C 146.918 257.555 145.113 265.249 148.182 267.495 C 150.228 268.993 153.927 267.695 157.733 264.521" fill="none" stroke-width="4" stroke="rgb(66,63,61)" stroke-linejoin="round" stroke-linecap="round" stroke-miterlimit="3"/>
				</g>
			</g>
			<g>
				<path d=" M 113.643 414.656 C 111.957 416.556 109.806 417.466 107.763 416.945 C 107.23 416.808 106.734 416.582 106.281 416.282 C 104.576 420.027 101.412 422.24 98.473 421.49 C 94.877 420.572 92.971 415.562 94.218 410.31 C 95.465 405.057 99.397 401.538 102.993 402.456 C 103.527 402.593 104.023 402.819 104.475 403.119 C 106.181 399.374 109.345 397.161 112.284 397.911 C 113.633 398.256 114.744 399.176 115.575 400.429 C 117.262 398.528 119.413 397.618 121.455 398.14 C 125.051 399.058 126.958 404.067 125.71 409.32 C 124.463 414.572 120.531 418.091 116.935 417.173 C 115.586 416.828 114.474 415.908 113.643 414.656 Z " fill="rgb(235,235,235)"/>
				<clipPath id="_clipPath_Nb1EQKJyWo0MWoc1jR0ppp4tjIVIs8Jn">
					<path d=" M 113.643 414.656 C 111.957 416.556 109.806 417.466 107.763 416.945 C 107.23 416.808 106.734 416.582 106.281 416.282 C 104.576 420.027 101.412 422.24 98.473 421.49 C 94.877 420.572 92.971 415.562 94.218 410.31 C 95.465 405.057 99.397 401.538 102.993 402.456 C 103.527 402.593 104.023 402.819 104.475 403.119 C 106.181 399.374 109.345 397.161 112.284 397.911 C 113.633 398.256 114.744 399.176 115.575 400.429 C 117.262 398.528 119.413 397.618 121.455 398.14 C 125.051 399.058 126.958 404.067 125.71 409.32 C 124.463 414.572 120.531 418.091 116.935 417.173 C 115.586 416.828 114.474 415.908 113.643 414.656 Z " fill="rgb(235,235,235)"/>
				</clipPath>
				<g clip-path="url(#_clipPath_Nb1EQKJyWo0MWoc1jR0ppp4tjIVIs8Jn)">
					<path d=" M 107.422 406.853 C 108.03 404.294 109.521 402.471 110.75 402.785 C 111.979 403.098 112.483 405.431 111.875 407.99 C 111.267 410.55 109.776 412.373 108.547 412.059 C 107.318 411.745 106.814 409.413 107.422 406.853 Z " fill="rgb(229,181,163)"/>
					<path d=" M 117.14 407.054 C 117.748 404.495 119.239 402.672 120.468 402.986 C 121.697 403.299 122.201 405.632 121.593 408.191 C 120.985 410.751 119.494 412.574 118.265 412.26 C 117.036 411.946 116.532 409.614 117.14 407.054 Z " fill="rgb(229,181,163)"/>
					<path d=" M 98.243 411.427 C 98.851 408.868 100.342 407.044 101.571 407.358 C 102.8 407.672 103.304 410.005 102.696 412.564 C 102.088 415.123 100.597 416.946 99.368 416.633 C 98.139 416.319 97.635 413.986 98.243 411.427 Z " fill="rgb(229,181,163)"/>
				</g>
				<path d=" M 220.648 352.448 C 224.976 365.719 230.086 395.344 229.627 401.276 C 229.168 407.208 196.767 472.538 196.087 474.459 C 195.406 476.379 199.246 478.474 198.786 484.406 C 198.327 490.338 189.594 492.841 187.474 493.884 C 185.354 494.927 181.264 495.163 177.981 494.324 C 174.699 493.485 167.003 485.355 166.244 482.557 C 165.485 479.76 168.406 470.791 169.883 464.482 C 171.359 458.173 191.398 406.511 191.656 403.036 Q 191.915 399.562 163.692 355.088 L 204.421 316.267 Q 216.321 339.177 220.648 352.448 Z " fill="rgb(128,128,128)"/>
				<clipPath id="_clipPath_HSldbuUeTbpSCgvw9sPhEqHO9KLJ2hgj">
					<path d=" M 220.648 352.448 C 224.976 365.719 230.086 395.344 229.627 401.276 C 229.168 407.208 196.767 472.538 196.087 474.459 C 195.406 476.379 199.246 478.474 198.786 484.406 C 198.327 490.338 189.594 492.841 187.474 493.884 C 185.354 494.927 181.264 495.163 177.981 494.324 C 174.699 493.485 167.003 485.355 166.244 482.557 C 165.485 479.76 168.406 470.791 169.883 464.482 C 171.359 458.173 191.398 406.511 191.656 403.036 Q 191.915 399.562 163.692 355.088 L 204.421 316.267 Q 216.321 339.177 220.648 352.448 Z " fill="rgb(128,128,128)"/>
				</clipPath>
				<g clip-path="url(#_clipPath_HSldbuUeTbpSCgvw9sPhEqHO9KLJ2hgj)">
					<path d=" M 251.144 439.869 L 140.514 485.965 L 186.61 375.335 L 228.096 352.287 L 251.144 439.869 Z " fill="rgb(123,125,130)"/>
					<path d=" M 126.685 338.459 Q 148.005 283.521 191.219 274.401 Q 234.434 265.282 264.973 356.897 Q 178.543 391.469 172.781 389.164 Q 167.019 386.859 126.685 338.459 Z " fill="rgb(116,119,123)"/>
					<path d=" M 158.952 476.746 C 168.748 460.612 196.981 475.017 209.658 481.355 Q 222.334 487.693 186.61 504.403 Q 149.157 492.879 158.952 476.746 Z " fill="rgb(255,255,255)"/>
					<clipPath id="_clipPath_Uqsh4wqNNqINu3bAuMCdBnpEb3dkyXQH">
						<path d=" M 158.952 476.746 C 168.748 460.612 196.981 475.017 209.658 481.355 Q 222.334 487.693 186.61 504.403 Q 149.157 492.879 158.952 476.746 Z " fill="rgb(255,255,255)"/>
					</clipPath>
					<g clip-path="url(#_clipPath_Uqsh4wqNNqINu3bAuMCdBnpEb3dkyXQH)">
						<path d=" M 251.144 439.869 L 140.514 485.965 L 186.61 375.335 L 228.096 352.287 L 251.144 439.869 Z " fill="rgb(232,232,232)"/>
					</g>
					<path d=" M 185.044 478.049 C 185.017 478.033 184.988 478.02 184.959 478.007 C 180.8 476.141 176.579 476.51 175.537 478.832 C 174.496 481.153 177.026 484.552 181.185 486.418 C 183.059 487.259 187.284 488.049 187.722 488.064 C 189.7 488.132 191.406 485.309 191.528 481.764 C 191.65 478.22 190.143 475.286 188.165 475.218 C 186.901 475.175 185.749 476.31 185.044 478.049 Z " fill="rgb(128,128,128)"/>
				</g>
				<path d=" M 126.685 338.459 Q 148.005 283.521 191.219 274.401 C 234.434 265.282 212.596 299.748 210.418 330.719 C 208.24 361.69 214.934 341.939 209.357 352.287 C 203.779 362.636 181.96 382.249 176.198 379.945 Q 170.437 377.64 126.685 338.459 Z " fill="rgb(116,119,123)"/>
				<g>
					<path d=" M 69.326 350.762 C 66.667 354.85 82.143 364.996 89.324 371.98 Q 96.506 378.964 104.152 385.162 L 111.073 346.622 Q 101.082 344.522 92.443 347.249 C 83.805 349.975 71.986 346.675 69.326 350.762 Z " fill="rgb(135,136,138)"/>
					<clipPath id="_clipPath_Hj8xiEejLzFwXu3iiBGEIYxv7lyInEGz">
						<path d=" M 69.326 350.762 C 66.667 354.85 82.143 364.996 89.324 371.98 Q 96.506 378.964 104.152 385.162 L 111.073 346.622 Q 101.082 344.522 92.443 347.249 C 83.805 349.975 71.986 346.675 69.326 350.762 Z " fill="rgb(135,136,138)"/>
					</clipPath>
					<g clip-path="url(#_clipPath_Hj8xiEejLzFwXu3iiBGEIYxv7lyInEGz)">
						<path d=" M 114.23 344.599 L 98.351 371.194 Q 95.93 351.847 102.033 346.3 Q 108.135 340.754 114.23 344.599 Z " fill="rgb(116,119,123)"/>
						<path d=" M 112.951 363.77 C 109.874 354.424 97.216 357.662 76.014 352.833 Q 54.812 348.004 94.664 391.528 L 103.883 391.478 Q 116.027 373.117 112.951 363.77 Z " fill="rgb(246,203,187)"/>
						<clipPath id="_clipPath_3gJNo9GoRpfJjHRQvY4ic94z9E8orRSF">
							<path d=" M 112.951 363.77 C 109.874 354.424 97.216 357.662 76.014 352.833 Q 54.812 348.004 94.664 391.528 L 103.883 391.478 Q 116.027 373.117 112.951 363.77 Z " fill="rgb(246,203,187)"/>
						</clipPath>
						<g clip-path="url(#_clipPath_3gJNo9GoRpfJjHRQvY4ic94z9E8orRSF)">
							<path d=" M 112.209 354.706 L 103.203 388.983 Q 95.736 359.617 98.798 351.96 Q 102.083 343.748 112.209 354.706 Z " fill="rgb(229,181,163)"/>
						</g>
					</g>
					<path d=" M 182.253 287.064 C 187.711 287.368 186.628 308.082 188.183 319.203 Q 189.738 330.324 190.275 341.344 L 150.846 322.062 Q 155.569 311.638 163.758 305.634 C 171.947 299.631 176.796 286.759 182.253 287.064 Z " fill="rgb(107,109,111)"/>
					<clipPath id="_clipPath_npEAlP5vvZLS1SeTHMBPNmFtmbg275ze">
						<path d=" M 182.253 287.064 C 187.711 287.368 186.628 308.082 188.183 319.203 Q 189.738 330.324 190.275 341.344 L 150.846 322.062 Q 155.569 311.638 163.758 305.634 C 171.947 299.631 176.796 286.759 182.253 287.064 Z " fill="rgb(107,109,111)"/>
					</clipPath>
					<g clip-path="url(#_clipPath_npEAlP5vvZLS1SeTHMBPNmFtmbg275ze)">
						<path d=" M 177.983 342.811 C 187.178 338.156 181.586 327.908 182.899 308.555 Q 184.212 289.201 145.865 332.934 L 147.534 340.89 Q 168.787 347.465 177.983 342.811 Z " fill="rgb(229,181,163)"/>
					</g>
					<path d=" M 109.657 341.575 C 115.465 334.641 119.435 330.782 126.351 326.738 C 133.267 322.693 139.582 320.216 147.467 319.462 C 155.352 318.707 188.294 334.491 190.447 338.724 C 192.6 342.957 198.36 355.709 198.596 365.672 C 198.833 375.635 189.065 387.911 186.968 397.845 C 184.87 407.778 165.542 417.093 158.611 414.43 C 151.679 411.767 132.729 413.667 123.923 409.346 C 115.117 405.024 104.111 388.556 102.612 383.753 C 101.112 378.95 103.85 348.509 109.657 341.575 Z " fill="rgb(135,136,138)"/>
					<clipPath id="_clipPath_Oz4CQztmc558HaLUB7q9SqRMnyyiItLR">
						<path d=" M 109.657 341.575 C 115.465 334.641 119.435 330.782 126.351 326.738 C 133.267 322.693 139.582 320.216 147.467 319.462 C 155.352 318.707 188.294 334.491 190.447 338.724 C 192.6 342.957 198.36 355.709 198.596 365.672 C 198.833 375.635 189.065 387.911 186.968 397.845 C 184.87 407.778 165.542 417.093 158.611 414.43 C 151.679 411.767 132.729 413.667 123.923 409.346 C 115.117 405.024 104.111 388.556 102.612 383.753 C 101.112 378.95 103.85 348.509 109.657 341.575 Z " fill="rgb(135,136,138)"/>
					</clipPath>
					<g clip-path="url(#_clipPath_Oz4CQztmc558HaLUB7q9SqRMnyyiItLR)">
						<path d=" M 209.658 370.726 C 222.611 412.682 105.366 341.339 114.839 318.078 Q 118.595 308.856 173.866 306.765 Q 196.704 328.769 209.658 370.726 Z " fill="rgb(116,119,123)"/>
						<path d=" M 103.637 343.161 Q 148.035 332.884 200.717 380.143 Q 253.398 427.403 209.962 310.801 L 112.883 310.801 L 103.637 343.161 Z " fill="rgb(107,109,111)"/>
					</g>
					<path class="catTongue" d=" M 174.625 399.305 L 166.328 388.242 L 158.952 393.773 L 167.25 404.836 L 167.25 404.836 C 168.776 406.872 171.668 407.285 173.703 405.758 C 175.738 404.232 176.151 401.34 174.625 399.305 L 174.625 399.305 Z " fill="rgb(246,203,187)"/>
					<path d=" M 144.566 402.347 C 143.721 408.615 143.203 410.211 151.12 412.468 Q 159.038 414.724 170.025 401.411 Q 180.464 401.739 185.425 393.038 C 190.386 384.338 187.971 385.028 183.401 380.902 C 178.831 376.776 176.608 376.773 173.147 374.214 C 169.686 371.655 163.239 363.292 160.128 362.799 C 157.017 362.306 151.761 361.35 147.911 363.602 C 144.062 365.853 141.676 370.734 141.223 373.856 C 140.77 376.978 142.904 385.219 144.79 390.799 C 146.676 396.379 145.412 396.078 144.566 402.347 Z " fill="rgb(116,119,123)"/>
					<path d=" M 159.77 394.723 Q 149.407 389.884 146.752 383.308 C 144.096 376.733 145.459 371.379 150.676 368.328 C 155.893 365.277 160.776 367.454 165.656 372.252 Q 170.537 377.049 169.223 389.194 L 159.77 394.723 Z " fill="rgb(107,109,111)"/>
					<clipPath id="_clipPath_kfgBFAo8tNPGYkyiyCw2QYoaQblnYIJC">
						<path d=" M 159.77 394.723 Q 149.407 389.884 146.752 383.308 C 144.096 376.733 145.459 371.379 150.676 368.328 C 155.893 365.277 160.776 367.454 165.656 372.252 Q 170.537 377.049 169.223 389.194 L 159.77 394.723 Z " fill="rgb(107,109,111)"/>
					</clipPath>
					<g clip-path="url(#_clipPath_kfgBFAo8tNPGYkyiyCw2QYoaQblnYIJC)">
						<path d=" M 167.781 398.706 Q 165.716 387.638 158.41 380.285 C 151.103 372.932 142.165 354.543 136.586 352.279 Q 125.474 347.768 178.806 376.09 L 167.781 398.706 Z " fill="rgb(255,255,255)"/>
					</g>
					<path d=" M 156.322 392.934 C 163.132 387.625 161.571 388.886 169.574 385.184 Q 170.045 390.308 167.261 396.685 Q 159.28 395.941 156.322 392.934 Z " fill="rgb(246,203,187)"/>
					<g>
						<path d=" M 177.087 347.833 Q 179.095 357.958 175.727 362.098 Q 172.359 366.237 163.772 366.716 Q 156.621 365.702 159.154 354.761 Q 161.686 343.819 177.087 347.833 Z " fill="rgb(232,232,232)"/>
						<clipPath id="_clipPath_oXksxONyJivSWSYFSWXNxFbsuSXeUfEJ">
							<path class="catEyelid" d=" M 177.087 347.833 Q 179.095 357.958 175.727 362.098 Q 172.359 366.237 163.772 366.716 Q 156.621 365.702 159.154 354.761 Q 161.686 343.819 177.087 347.833 Z " fill="rgb(232,232,232)"/>
						</clipPath>
						<g clip-path="url(#_clipPath_oXksxONyJivSWSYFSWXNxFbsuSXeUfEJ)">
							<path d=" M 158.933 355.95 C 159.746 350.934 164.478 347.521 169.494 348.334 C 174.51 349.146 177.923 353.879 177.11 358.895 C 176.298 363.911 171.566 367.324 166.549 366.511 C 161.533 365.699 158.12 360.967 158.933 355.95 Z " fill="rgb(140,136,17)"/>
							<clipPath id="_clipPath_I8NcLEYpX4jHRJq2Idx2HNpwAl9TgGWQ">
								<path d=" M 158.933 355.95 C 159.746 350.934 164.478 347.521 169.494 348.334 C 174.51 349.146 177.923 353.879 177.11 358.895 C 176.298 363.911 171.566 367.324 166.549 366.511 C 161.533 365.699 158.12 360.967 158.933 355.95 Z " fill="rgb(140,136,17)"/>
							</clipPath>
							<g clip-path="url(#_clipPath_I8NcLEYpX4jHRJq2Idx2HNpwAl9TgGWQ)">
								<rect x="158.273" y="354.929" width="27.657" height="10.283" transform="matrix(0.798,-0.603,0.603,0.798,-182.309,176.596)" fill="rgb(183,177,4)"/>
								<mask id="_mask_WA1TAwNQuzNjJF7BhapmmXPyuXeka8Qz">
									<path d=" M 163.795 359.485 C 160.276 354.005 158.847 348.64 160.605 347.511 C 162.363 346.382 166.647 349.914 170.166 355.393 C 173.685 360.873 175.114 366.238 173.356 367.367 C 171.598 368.496 167.314 364.964 163.795 359.485 Z " fill="white" stroke="none"/>
								</mask>
								<path d=" M 163.795 359.485 C 160.276 354.005 158.847 348.64 160.605 347.511 C 162.363 346.382 166.647 349.914 170.166 355.393 C 173.685 360.873 175.114 366.238 173.356 367.367 C 171.598 368.496 167.314 364.964 163.795 359.485 Z " fill="rgb(55,51,51)"/>
								<path d=" M 163.795 359.485 C 160.276 354.005 158.847 348.64 160.605 347.511 C 162.363 346.382 166.647 349.914 170.166 355.393 C 173.685 360.873 175.114 366.238 173.356 367.367 C 171.598 368.496 167.314 364.964 163.795 359.485 Z " fill="rgb(55,51,51)" mask="url(#_mask_WA1TAwNQuzNjJF7BhapmmXPyuXeka8Qz)" vector-effect="non-scaling-stroke" stroke-width="0.6" stroke="rgb(255,255,255)" stroke-opacity="0.75" stroke-linejoin="miter" stroke-linecap="square" stroke-miterlimit="3"/>
							</g>
						</g>
						<path d=" M 117.964 382.852 Q 124.46 390.873 129.796 390.934 Q 135.133 390.994 140.995 384.701 Q 144.791 378.557 134.762 373.502 Q 124.733 368.447 117.964 382.852 Z " fill="rgb(232,232,232)"/>
						<clipPath id="_clipPath_4e7yWcgLmIlT6tivIxYG4d4EichACYhy">
							<path class="catEyelid" d=" M 117.964 382.852 Q 124.46 390.873 129.796 390.934 Q 135.133 390.994 140.995 384.701 Q 144.791 378.557 134.762 373.502 Q 124.733 368.447 117.964 382.852 Z " fill="rgb(232,232,232)"/>
						</clipPath>
						<g clip-path="url(#_clipPath_4e7yWcgLmIlT6tivIxYG4d4EichACYhy)">
							<path d=" M 135.818 374.094 C 131.443 371.509 125.792 372.962 123.207 377.337 C 120.622 381.712 122.075 387.362 126.45 389.947 C 130.825 392.532 136.475 391.079 139.061 386.704 C 141.646 382.33 140.193 376.679 135.818 374.094 Z " fill="rgb(140,136,17)"/>
							<clipPath id="_clipPath_p0CUREqNjFcZJ6leQ7VCgEe2VBWEu8U6">
								<path d=" M 135.818 374.094 C 131.443 371.509 125.792 372.962 123.207 377.337 C 120.622 381.712 122.075 387.362 126.45 389.947 C 130.825 392.532 136.475 391.079 139.061 386.704 C 141.646 382.33 140.193 376.679 135.818 374.094 Z " fill="rgb(140,136,17)"/>
							</clipPath>
							<g clip-path="url(#_clipPath_p0CUREqNjFcZJ6leQ7VCgEe2VBWEu8U6)">
								<rect x="117.324" y="382.568" width="27.657" height="11.216" transform="matrix(0.879,-0.478,0.478,0.879,-169.445,109.747)" fill="rgb(183,177,4)"/>
								<mask id="_mask_gY3YTi5GYL3hXREPdBMxvVHua6aVKYum">
									<path d=" M 127.648 383.164 C 124.294 377.582 123.141 372.107 125.075 370.944 C 127.01 369.782 131.303 373.37 134.658 378.951 C 138.012 384.533 139.165 390.009 137.23 391.171 C 135.296 392.334 131.002 388.746 127.648 383.164 Z " fill="white" stroke="none"/>
								</mask>
								<path d=" M 127.648 383.164 C 124.294 377.582 123.141 372.107 125.075 370.944 C 127.01 369.782 131.303 373.37 134.658 378.951 C 138.012 384.533 139.165 390.009 137.23 391.171 C 135.296 392.334 131.002 388.746 127.648 383.164 Z " fill="rgb(55,51,51)"/>
								<path d=" M 127.648 383.164 C 124.294 377.582 123.141 372.107 125.075 370.944 C 127.01 369.782 131.303 373.37 134.658 378.951 C 138.012 384.533 139.165 390.009 137.23 391.171 C 135.296 392.334 131.002 388.746 127.648 383.164 Z " fill="rgb(55,51,51)" mask="url(#_mask_gY3YTi5GYL3hXREPdBMxvVHua6aVKYum)" vector-effect="non-scaling-stroke" stroke-width="0.6" stroke="rgb(255,255,255)" stroke-opacity="0.75" stroke-linejoin="miter" stroke-linecap="square" stroke-miterlimit="3"/>
							</g>
						</g>
					</g>
				</g>
			</g>
			<path d=" M 158.089 154.004 C 148.037 189.49 165.202 285.426 179.789 303.38 C 194.376 321.334 231.978 351.093 242.312 354.739 C 252.646 358.384 260.164 354.404 267.02 352.732 C 273.876 351.059 310.845 327.867 326.343 305.824 C 341.841 283.78 340.236 279.257 345.908 264.058 C 351.58 248.86 380.621 175.057 361.709 128.855 C 342.798 82.653 318.809 63.841 276.736 60.188 C 234.663 56.536 212.005 72.65 189.569 94.053 C 167.133 115.456 168.142 118.519 158.089 154.004 Z " fill="rgb(248,221,198)"/>
			<clipPath id="_clipPath_GfHGE5rPamZOn1mdOv4gmrt5SbajtGwC">
				<path d=" M 158.089 154.004 C 148.037 189.49 165.202 285.426 179.789 303.38 C 194.376 321.334 231.978 351.093 242.312 354.739 C 252.646 358.384 260.164 354.404 267.02 352.732 C 273.876 351.059 310.845 327.867 326.343 305.824 C 341.841 283.78 340.236 279.257 345.908 264.058 C 351.58 248.86 380.621 175.057 361.709 128.855 C 342.798 82.653 318.809 63.841 276.736 60.188 C 234.663 56.536 212.005 72.65 189.569 94.053 C 167.133 115.456 168.142 118.519 158.089 154.004 Z " fill="rgb(248,221,198)"/>
			</clipPath>
			<g clip-path="url(#_clipPath_GfHGE5rPamZOn1mdOv4gmrt5SbajtGwC)">
				<path class="cheeks" d=" M 154.906 276.664 C 156.697 261.34 172.251 250.547 189.618 252.577 C 206.986 254.607 219.632 268.695 217.841 284.019 C 216.05 299.343 200.496 310.136 183.129 308.107 C 165.761 306.077 153.115 291.988 154.906 276.664 Z " fill="rgb(244,185,176)" fill-opacity="0.5"/>
				<path class="cheeks" d=" M 297.849 287.531 C 294.061 272.576 304.747 256.948 321.698 252.655 C 338.648 248.361 355.485 257.018 359.273 271.974 C 363.061 286.93 352.375 302.558 335.425 306.851 C 318.474 311.144 301.637 302.487 297.849 287.531 Z " fill="rgb(244,185,176)" fill-opacity="0.5"/>
				<path class="cheeks" d=" M 327.92 246.06 C 328.076 244.728 329.284 243.772 330.617 243.928 C 331.949 244.084 332.905 245.292 332.749 246.624 C 332.593 247.957 331.385 248.912 330.052 248.757 C 328.72 248.601 327.764 247.393 327.92 246.06 Z " fill="rgb(237,186,169)"/>
				<path class="dot" d=" M 239.625 289.582 C 239.781 288.25 240.989 287.294 242.321 287.45 C 243.654 287.606 244.609 288.814 244.453 290.147 C 244.298 291.479 243.089 292.434 241.757 292.279 C 240.424 292.123 239.469 290.915 239.625 289.582 Z " fill="rgb(237,186,169)"/>
			</g>
			<g>
				<path d=" M 257.838 225.55 Q 255.366 225.538 252.921 229.55 Q 244.961 269.927 245.556 273.332 Q 246.15 276.737 257.838 284.724 Q 269.494 276.175 270.003 273.332 Q 270.511 270.49 262.756 229.55 Q 260.311 225.562 257.838 225.55 Z " fill="rgb(248,209,187)"/>
				<path d=" M 262.756 276.929 C 264.296 279.551 267.519 280.521 269.947 279.095 C 272.376 277.668 273.097 274.381 271.557 271.759 C 270.701 270.302 269.326 269.355 267.857 269.046" fill="none" stroke-width="0.5" stroke="rgb(185,185,185)" stroke-linejoin="round" stroke-linecap="round" stroke-miterlimit="3"/>
			</g>
			<path class="mouth" d=" M 256 296.231 Q 247.412 296.231 232 300.231 Q 242.886 307.856 256 308.061 Q 269.114 308.266 280 300.231 Q 264.588 296.231 256 296.231 Z " fill="rgb(244,206,186)"/>
			<clipPath class="mouth" id="_clipPath_JX8fiKH0Xb474edhzH4QCrP3N8s60Aq5">
				<path class="mouth" d=" M 256 296.231 Q 247.412 296.231 232 300.231 Q 242.886 307.856 256 308.061 Q 269.114 308.266 280 300.231 Q 264.588 296.231 256 296.231 Z " fill="rgb(244,206,186)"/>
			</clipPath>
			<g class="mouth" clip-path="url(#_clipPath_JX8fiKH0Xb474edhzH4QCrP3N8s60Aq5)">
				<rect class="mouth" x="229.261" y="300" width="53.477" height="9.723" transform="matrix(1,0,0,1,0,0)" fill="rgb(243,197,173)"/>
			</g>
			<g>
				<path d=" M 228.158 215.173 Q 235.352 225.531 234.864 239.037 C 230.364 242.088 223.278 244.424 220.694 245 C 218.11 245.576 209.109 246.401 196.086 242.012 Q 188.902 239.592 180.8 233.433 Q 183.759 220.289 189.007 213.3 C 195.945 204.061 204.699 202.077 207.653 202.118 C 210.607 202.16 223.448 205.417 228.158 215.173 Z " fill="rgb(248,221,198)" fill-opacity="0.75" style="mix-blend-mode:screen;"/>
				<clipPath id="_clipPath_1qZvNmwzPkV6QzG7yH1eDu6EdYNrxpwl">
					<path class="eyelid" d=" M 228.158 215.173 Q 235.352 225.531 234.864 239.037 C 230.364 242.088 223.278 244.424 220.694 245 C 218.11 245.576 209.109 246.401 196.086 242.012 Q 188.902 239.592 180.8 233.433 Q 183.759 220.289 189.007 213.3 C 195.945 204.061 204.699 202.077 207.653 202.118 C 210.607 202.16 223.448 205.417 228.158 215.173 Z " fill="rgb(248,221,198)" fill-opacity="0.75" style="mix-blend-mode:screen;"/>
				</clipPath>
				<g clip-path="url(#_clipPath_1qZvNmwzPkV6QzG7yH1eDu6EdYNrxpwl)">
					<g class="pupil">
						<path d=" M 190.57 224.205 C 190.529 212.159 198.64 202.351 208.673 202.317 C 218.706 202.282 226.884 212.034 226.926 224.08 C 226.967 236.126 218.856 245.934 208.823 245.969 C 198.79 246.003 190.612 236.251 190.57 224.205 Z " fill="rgb(85,102,102)"/>
						<clipPath id="_clipPath_0hos5BazCAMoZGy4nniACZvRfRmiAKAL">
							<path d=" M 190.57 224.205 C 190.529 212.159 198.64 202.351 208.673 202.317 C 218.706 202.282 226.884 212.034 226.926 224.08 C 226.967 236.126 218.856 245.934 208.823 245.969 C 198.79 246.003 190.612 236.251 190.57 224.205 Z " fill="rgb(85,102,102)"/>
						</clipPath>
						<g clip-path="url(#_clipPath_0hos5BazCAMoZGy4nniACZvRfRmiAKAL)">
							<rect x="187.828" y="223.191" width="50.339" height="25.379" transform="matrix(1,-0.003,0.003,1,-0.81,0.734)" fill="rgb(88,162,162)"/>
						</g>
						<path d=" M 199.236 224.175 C 199.214 217.872 203.459 212.739 208.709 212.721 C 213.959 212.703 218.238 217.806 218.26 224.11 C 218.282 230.413 214.037 235.546 208.787 235.564 C 203.537 235.582 199.258 230.479 199.236 224.175 Z " fill="transparent" r="NaN" stroke-width="3" stroke="rgb(255,255,255)" stroke-opacity="0.75" stroke-linejoin="miter" stroke-linecap="square" stroke-miterlimit="3"/>
						<path d=" M 199.236 224.175 C 199.214 217.872 203.459 212.739 208.709 212.721 C 213.959 212.703 218.238 217.806 218.26 224.11 C 218.282 230.413 214.037 235.546 208.787 235.564 C 203.537 235.582 199.258 230.479 199.236 224.175 Z " fill="rgb(66,63,61)"/>
					</g>
				</g>
				<path d=" M 292.256 214.263 Q 284.739 224.389 284.8 237.905 C 289.203 241.096 296.211 243.654 298.776 244.312 C 301.34 244.969 310.311 246.077 323.466 242.101 Q 330.722 239.908 339.014 234.008 Q 336.471 220.777 331.446 213.626 C 324.803 204.173 316.116 201.913 313.162 201.862 C 310.208 201.81 297.271 204.661 292.256 214.263 Z " fill="rgb(248,221,198)" fill-opacity="0.75" style="mix-blend-mode:screen;"/>
				<clipPath id="_clipPath_apV8bugBOf8k706v5ABbBNUo1DDER0Cx">
					<path class="eyelid" d=" M 292.256 214.263 Q 284.739 224.389 284.8 237.905 C 289.203 241.096 296.211 243.654 298.776 244.312 C 301.34 244.969 310.311 246.077 323.466 242.101 Q 330.722 239.908 339.014 234.008 Q 336.471 220.777 331.446 213.626 C 324.803 204.173 316.116 201.913 313.162 201.862 C 310.208 201.81 297.271 204.661 292.256 214.263 Z " fill="rgb(248,221,198)" fill-opacity="0.75" style="mix-blend-mode:screen;"/>
				</clipPath>
				<g clip-path="url(#_clipPath_apV8bugBOf8k706v5ABbBNUo1DDER0Cx)">
					<g class="pupil">
						<path d=" M 329.551 223.858 C 329.562 211.811 321.426 202.024 311.394 202.015 C 301.361 202.005 293.207 211.778 293.195 223.824 C 293.184 235.87 301.32 245.657 311.353 245.667 C 321.385 245.676 329.54 235.904 329.551 223.858 Z " fill="rgb(85,102,102)"/>
						<clipPath id="_clipPath_YFzsVwqUqkhAWNlZn914Yb7zaZEosGuq">
							<path d=" M 329.551 223.858 C 329.562 211.811 321.426 202.024 311.394 202.015 C 301.361 202.005 293.207 211.778 293.195 223.824 C 293.184 235.87 301.32 245.657 311.353 245.667 C 321.385 245.676 329.54 235.904 329.551 223.858 Z " fill="rgb(85,102,102)"/>
						</clipPath>
						<g clip-path="url(#_clipPath_YFzsVwqUqkhAWNlZn914Yb7zaZEosGuq)">
							<rect x="281.984" y="222.9" width="50.339" height="25.379" transform="matrix(1,0.001,-0.001,1,0.22,-0.287)" fill="rgb(88,162,162)"/>
						</g>
						<path d=" M 320.885 223.85 C 320.891 217.546 316.634 212.424 311.384 212.419 C 306.134 212.415 301.867 217.528 301.861 223.832 C 301.855 230.135 306.113 235.257 311.363 235.262 C 316.612 235.267 320.879 230.153 320.885 223.85 Z " fill="transparent" r="NaN" stroke-width="3" stroke="rgb(255,255,255)" stroke-opacity="0.75" stroke-linejoin="miter" stroke-linecap="square" stroke-miterlimit="3"/>
						<path d=" M 320.885 223.85 C 320.891 217.546 316.634 212.424 311.384 212.419 C 306.134 212.415 301.867 217.528 301.861 223.832 C 301.855 230.135 306.113 235.257 311.363 235.262 C 316.612 235.267 320.879 230.153 320.885 223.85 Z " fill="rgb(66,63,61)"/>
					</g>
				</g>
			</g>
			<g class="eyebrow">
				<path d=" M 310.614 188.732 L 278.946 187.478 Q 297.908 176.287 309.611 176.378 Q 321.313 176.469 342.283 189.986 L 310.614 188.732 Z " fill="rgb(94,64,56)"/>
				<path d=" M 206.892 188.785 L 238.524 186.803 Q 219.309 176.052 207.611 176.412 Q 195.914 176.772 175.261 190.767 L 206.892 188.785 Z " fill="rgb(94,64,56)"/>
			</g>
			<g class="glasses">
				<path d=" M 152.226 185.576 C 153.681 192.418 161.628 215.911 160.862 216 Q 159.93 216.109 167.97 208 Q 154.824 186.514 152.341 183.871 C 151.901 183.402 151.913 184.104 152.226 185.576 Z " fill="rgb(66,63,61)"/>
				<clipPath id="_clipPath_1XDFHp4HWZd4vy30tLdXBRV5rhakNzRq">
					<path d=" M 152.226 185.576 C 153.681 192.418 161.628 215.911 160.862 216 Q 159.93 216.109 167.97 208 Q 154.824 186.514 152.341 183.871 C 151.901 183.402 151.913 184.104 152.226 185.576 Z " fill="rgb(66,63,61)"/>
				</clipPath>
				<g clip-path="url(#_clipPath_1XDFHp4HWZd4vy30tLdXBRV5rhakNzRq)">
					<rect x="123.213" y="192.186" width="54.127" height="11.305" transform="matrix(0.421,0.907,-0.79,0.673,243.243,-71.564)" fill="rgb(62,60,59)"/>
				</g>
				<path d=" M 163.774 209.959 Q 195.161 208.352 242.878 212.901 Q 244.846 236.494 239.505 250.59 Q 210.302 256.977 167.97 251.335 Q 162.421 226.376 163.774 209.959 Z " fill="none" stroke-width="6" stroke="rgb(66,63,61)" stroke-linejoin="round" stroke-linecap="round" stroke-miterlimit="3"/>
				<path d=" M 353.606 216 Q 354.515 216.232 349.606 206.903 Q 366.829 187.36 369.642 185.07 C 372.455 182.78 352.697 215.768 353.606 216 Z " fill="rgb(66,63,61)"/>
				<clipPath id="_clipPath_qgBuM5nhwR8QO17w6NlDtbotpFVkGGJD">
					<path d=" M 353.606 216 Q 354.515 216.232 349.606 206.903 Q 366.829 187.36 369.642 185.07 C 372.455 182.78 352.697 215.768 353.606 216 Z " fill="rgb(66,63,61)"/>
				</clipPath>
				<g clip-path="url(#_clipPath_qgBuM5nhwR8QO17w6NlDtbotpFVkGGJD)">
					<rect x="341.034" y="191.178" width="54.127" height="11.305" transform="matrix(0.538,-0.843,0.693,0.772,33.422,355.034)" fill="rgb(62,60,59)"/>
				</g>
				<path d=" M 352.093 207.999 Q 320.68 207.046 273.068 212.587 Q 271.591 236.216 277.225 250.198 Q 306.554 255.975 348.759 249.453 Q 353.788 224.385 352.093 207.999 Z " fill="none" stroke-width="6" stroke="rgb(66,63,61)" stroke-linejoin="round" stroke-linecap="round" stroke-miterlimit="3"/>
				<path d=" M 243.631 221.414 Q 247.074 216.242 258.012 216.509 Q 268.95 216.776 272.801 221.414" fill="none" stroke-width="6" stroke="rgb(66,63,61)" stroke-linejoin="round" stroke-linecap="round" stroke-miterlimit="3"/>
			</g>
			<g class="front-hair">
				<path d=" M 316 48 Q 267.799 19.815 240 20 C 212.201 20.185 195.276 29.515 180 48 C 164.724 66.485 155.159 100.342 144 117.668 Q 132.841 134.994 132 200 L 316 48 Z " fill="rgb(94,64,56)"/>
				<path d=" M 316 108 Q 335.522 150.24 343.412 176.329 Q 351.301 202.417 343.412 252 Q 363.365 229.339 372.315 211.691 C 381.265 194.043 380.356 173.012 378.091 151.871 C 375.826 130.73 371.816 79.134 343.412 64 Q 315.008 48.866 316 108 Z " fill="rgb(94,64,56)"/>
				<path d=" M 316 108 Q 299.409 99.54 289.292 100.205 Q 279.175 100.87 254.282 117.668 Q 262.384 79.872 271.829 65.195 C 281.274 50.518 302.173 18.473 320 20.094 C 322.9 20.137 332.344 24.475 336 28 C 339.656 31.525 348.656 43.6 348 54.975 C 347.37 65.888 341.075 71.503 332.537 80.691 Q 324 89.878 316 108 Z " fill="rgb(91,60,52)"/>
				<clipPath id="_clipPath_XSPPVdX3kR4SfWIPxHh8iTcopfpH2BQY">
					<path d=" M 316 108 Q 299.409 99.54 289.292 100.205 Q 279.175 100.87 254.282 117.668 Q 262.384 79.872 271.829 65.195 C 281.274 50.518 302.173 18.473 320 20.094 C 322.9 20.137 332.344 24.475 336 28 C 339.656 31.525 348.656 43.6 348 54.975 C 347.37 65.888 341.075 71.503 332.537 80.691 Q 324 89.878 316 108 Z " fill="rgb(91,60,52)"/>
				</clipPath>
				<g class="shadow-bangs" clip-path="url(#_clipPath_XSPPVdX3kR4SfWIPxHh8iTcopfpH2BQY)">
					<path d=" M 316 108 Q 300.87 107.417 292 108 Q 283.13 108.583 260.289 114.351 Q 266.353 82.828 275.672 68.346 C 284.992 53.864 304.881 23.177 323.533 29.591 C 342.185 36.006 344.98 46.328 342.454 59.387 C 340.4 70 323.485 83.945 316 92 Q 308.515 100.055 316 108 Z " fill="rgb(70,47,40)"/>
					<clipPath id="_clipPath_Z9tokDBMG9uPZLJC63KK82rNUr3YO9Bz">
						<path d=" M 316 108 Q 300.87 107.417 292 108 Q 283.13 108.583 260.289 114.351 Q 266.353 82.828 275.672 68.346 C 284.992 53.864 304.881 23.177 323.533 29.591 C 342.185 36.006 344.98 46.328 342.454 59.387 C 340.4 70 323.485 83.945 316 92 Q 308.515 100.055 316 108 Z " fill="rgb(70,47,40)"/>
					</clipPath>
					<g clip-path="url(#_clipPath_Z9tokDBMG9uPZLJC63KK82rNUr3YO9Bz)">
						<path d=" M 248 132 C 251.094 121.762 292.989 87.36 304 64 Q 315.011 40.64 320 20.094 Q 256.839 52.335 248 88 C 239.161 123.665 244.906 142.238 248 132 Z " fill="rgb(62,41,35)"/>
					</g>
				</g>
				<path d=" M 320 20.094 C 307.793 19.126 289.097 14.903 268 20.094 C 246.903 25.285 225.194 33.597 212 50.975 C 198.806 68.354 197.786 102.2 168 120 C 138.214 137.8 121.689 194.02 118.802 219.904 C 115.915 245.789 116.101 271.032 132.601 292.226 Q 149.1 313.42 153.763 323.999 Q 131.597 264.626 142.564 230.823 C 153.532 197.019 164.344 202.672 185.129 188.354 C 205.914 174.036 223.284 177.97 237.651 162.651 C 252.018 147.332 257.267 107.841 268 92 C 278.733 76.159 302.916 58.885 320 20.094 Z " fill="rgb(91,60,52)"/>
			</g>
		</g>
		<g class="dialog-5">
			<path d=" M 543.54 442.992 Q 540.599 443.14 541.063 440.62 Q 543.711 436.979 544.778 433.505 C 545.844 430.03 545.91 377.421 546.635 363.537 Q 546.635 355.631 554.064 355.235 L 903.571 355.235 Q 910.69 356.026 911 363.537 Q 911 377.421 911 433.505 Q 909.452 441.806 903.571 442.992 C 816.881 442.992 678.687 442.992 543.54 442.992 Z " fill="rgb(57,56,56)"/>
			<g clip-path="url(#_clipPath_cd6GMJ8GaVQpHZEklPJY27QnsFp6XqOK)">
				<text transform="matrix(1,0,0,1,565,381.172)" style="font-family:monospace;font-weight:400;font-size:16px;font-style:normal;fill:#e8e8e8;stroke:none;">If you want to know more about me </text>
				<text transform="matrix(1,0,0,1,565,404.61)" style="font-family:monospace;font-weight:400;font-size:16px;font-style:normal;fill:#e8e8e8;stroke:none;">you can reach me out on </text>
				<text transform="matrix(1,0,0,1,565,428.047)" style="font-family:monospace;font-weight:400;font-size:16px;font-style:normal;fill:#e8e8e8;stroke:none;"> rightonhana.me</text>
			</g>
			<defs>
				<clipPath id="_clipPath_cd6GMJ8GaVQpHZEklPJY27QnsFp6XqOK">
					<rect x="0" y="0" width="338.571" height="73" transform="matrix(1,0,0,1,565,362.618)"/>
				</clipPath>
			</defs>
		</g>
		<g class="dialog-4">
			<path d=" M 543.142 442.993 Q 540.662 443.118 541.053 440.993 Q 543.286 437.923 544.186 434.993 C 545.085 432.063 545.141 416.701 545.752 404.993 Q 545.752 398.326 552.016 397.993 L 823.736 397.993 Q 829.739 398.66 830 404.993 Q 830 416.701 830 434.993 Q 828.695 441.993 823.736 442.993 C 750.635 442.993 657.103 442.993 543.142 442.993 Z " fill="rgb(57,56,56)"/>
			<g clip-path="url(#_clipPath_Ms0lecwxuJ44rVCTRwPcoZdoHehpvDLq)">
				<text transform="matrix(1,0,0,1,559.408,426.799)" style="font-family:monospace;font-weight:400;font-size:16px;font-style:normal;fill:#e8e8e8;stroke:none;">My pronouns are She/Her </text>
			</g>
			<defs>
				<clipPath id="_clipPath_Ms0lecwxuJ44rVCTRwPcoZdoHehpvDLq">
					<rect x="0" y="0" width="258.183" height="24.503" transform="matrix(1,0,0,1,559.408,408.245)"/>
				</clipPath>
			</defs>
		</g>
		<g class="dialog-3">
			<path d=" M 543.54 442.992 Q 540.599 443.14 541.063 440.62 Q 543.711 436.979 544.778 433.505 C 545.844 430.03 545.91 377.421 546.635 363.537 Q 546.635 355.631 554.064 355.235 L 903.571 355.235 Q 910.69 356.026 911 363.537 Q 911 377.421 911 433.505 Q 909.452 441.806 903.571 442.992 C 816.881 442.992 678.687 442.992 543.54 442.992 Z " fill="rgb(57,56,56)"/>
			<g clip-path="url(#_clipPath_cd6GMJ8GaVQpHZEklPJY27QnsFp6XqOK)">
				<text transform="matrix(1,0,0,1,565,381.172)" style="font-family:monospace;font-weight:400;font-size:16px;font-style:normal;fill:#e8e8e8;stroke:none;">I'm a Front-end Developer with </text>
				<text transform="matrix(1,0,0,1,565,404.61)" style="font-family:monospace;font-weight:400;font-size:16px;font-style:normal;fill:#e8e8e8;stroke:none;">experience in Angular, React and </text>
				<text transform="matrix(1,0,0,1,565,428.047)" style="font-family:monospace;font-weight:400;font-size:16px;font-style:normal;fill:#e8e8e8;stroke:none;">Svelte.</text>
			</g>
			<defs>
				<clipPath id="_clipPath_cd6GMJ8GaVQpHZEklPJY27QnsFp6XqOK">
					<rect x="0" y="0" width="338.571" height="73" transform="matrix(1,0,0,1,565,362.618)"/>
				</clipPath>
			</defs>
		</g>
		<g class="dialog-2">
			<path d=" M 543.742 442.16 Q 540.567 442.285 541.068 440.155 Q 543.927 437.077 545.078 434.139 C 546.23 431.202 546.301 394.748 547.084 383.011 Q 547.084 376.327 555.104 375.993 L 902.98 375.993 Q 910.666 376.661 911 383.011 Q 911 394.748 911 434.139 Q 909.329 441.157 902.98 442.16 C 809.39 442.16 689.644 442.16 543.742 442.16 Z " fill="rgb(57,56,56)"/>
			<g clip-path="url(#_clipPath_ESlM0h8RX5VXCFQgA5t80sqGiBmZNFpN)">
				<text transform="matrix(1,0,0,1,561.068,404.114)" style="font-family:monospace;font-weight:400;font-size:16px;font-style:normal;fill:#e8e8e8;stroke:none;">I'm from Argentina  but currently </text>
				<text transform="matrix(1,0,0,1,561.068,427.551)" style="font-family:monospace;font-weight:400;font-size:16px;font-style:normal;fill:#e8e8e8;stroke:none;">I'm living in the United States </text>
			</g>
			<defs>
				<clipPath id="_clipPath_ESlM0h8RX5VXCFQgA5t80sqGiBmZNFpN">
					<rect x="0" y="0" width="341" height="46.875" transform="matrix(1,0,0,1,561.068,385.559)"/>
				</clipPath>
			</defs>
		</g>
		<g class="dialog-1">
			<path d=" M 543.297 442.993 Q 540.637 443.118 541.057 440.993 Q 543.452 437.923 544.417 434.993 C 545.382 432.063 545.441 416.701 546.097 404.993 Q 546.097 398.326 552.817 397.993 L 896.28 397.993 Q 902.72 398.66 903 404.993 Q 903 416.701 903 434.993 Q 901.6 441.993 896.28 442.993 C 817.868 442.993 665.54 442.993 543.297 442.993 Z " fill="rgb(57,56,56)"/>
			<g clip-path="url(#_clipPath_3D2gxkuakMBlARHwnRYqTgx1WEIpF5CZ)">
				<text transform="matrix(1,0,0,1,559,427.048)" style="font-family:monospace;font-weight:400;font-size:16px;font-style:normal;fill:#e8e8e8;stroke:none;">Hi there  I'm Florencia Gonzalez</text>
			</g>
			<defs>
				<clipPath id="_clipPath_3D2gxkuakMBlARHwnRYqTgx1WEIpF5CZ">
					<rect x="0" y="0" width="350" height="24.007" transform="matrix(1,0,0,1,559,408.493)"/>
				</clipPath>
			</defs>
		</g>
	</g>
</svg>