<svg class="avatar"
	xmlns="http://www.w3.org/2000/svg"
	xmlns:xlink="http://www.w3.org/1999/xlink" style="isolation:isolate" viewBox="0 0 1024 512" width="1024pt" height="512pt">
	<style>
			.dialog-1 {
				opacity: 0;
				animation: greet 7s both;
			}

			.dialog-2 {
				opacity: 0;
				animation: from 7s both;
			}

			.dialog-3 {
				opacity: 0;
				animation: profession 7s both;
			}

			.dialog-4 {
				opacity: 0;
				animation: pronouns 7s both;
			}

			.dialog-5 {
				opacity: 0;
				animation: contact 7s both;
			}

			.eyelid {
				animation: eye 3s ease-in-out infinite;
				transform-origin: center;
			}

			.dogEyelid-1 {
				animation: eye 5s ease-in-out infinite;
				animation-delay: 1s;
				transform-origin: center;
			}

			.dogEyelid-2 {
				animation: eye 5s ease-in-out infinite;
				animation-delay: 0.95s;
				transform-origin: center;
			}
			
			.pupil {
				animation: pupil 15s ease-out infinite;
				transform-origin: center;
			}

			.eyebrow {
				animation: eyebrow 3s ease-in-out infinite;
				transform-origin: center;
			}

			.mouth {
				animation: mouth 15s ease infinite;
				transform-origin: center;
			}

			.dot {
				animation: dot 15s ease infinite;
				transform-origin: center;
			}

			.cheeks:first-child {
				animation: cheeks1 15s ease infinite;
				transform-origin: center;
			}

			.cheeks:nth-child(2), .cheeks:nth-child(3) {
				animation: cheeks2 15s ease infinite;
				transform-origin: center;
			}

			.dogPaw {
				animation: paw 5s ease-in-out infinite;
				transform-origin: bottom left;
				transform-box: fill-box;
			}

			.dogTongue {
				animation: tongue 1s linear infinite;
				transform-origin: center;
			}

			@keyframes greet {
				0% {
					opacity: 0;
					transform: translate(0, 0);
				}
				20% {
					opacity: 1;
					transform: translate(0, 0);
				}
				40% {
					opacity: 1;
					transform: translate(0, -78px);
				}
				60% {
					opacity: 1;
					transform: translate(0, -180px);
				}
				80% {
					opacity: 1;
					transform: translate(0, -234px);
				}
				100%{
					opacity: 1;
					transform: translate(0, -333px);
				}
			}

			@keyframes from {
				0%, 20% {
					opacity: 0;
					transform: translate(0, 0);
				}
				40% {
					opacity: 1;
					transform: translate(0, 0);
				}
				60% {
					opacity: 1;
					transform: translate(0, -100px);
				}
				80%{
					opacity: 1;
					transform: translate(0, -155px);
				}
				100%{
					opacity: 1;
					transform: translate(0, -252px);
				}
			}

			@keyframes profession {
				0%, 40% {
					opacity: 0;
					transform: translate(0, 0);
				}
				60% {
					opacity: 1;
					transform: translate(0, 0);
				}
				80% {
					opacity: 1;
					transform: translate(0, -56px);
				}
				100% {
					opacity: 1;
					transform: translate(0, -155px);
				}
			}

			@keyframes pronouns {
				0%, 60% {
					opacity: 0;
					transform: translate(0, 0);
				}
				80% {
					opacity: 1;
					transform: translate(0, 0);
				}
				100%{
					opacity: 1;
					transform: translate(0, -99px);
				}
			}

			@keyframes contact {
				0%, 80% {
					opacity: 0;
					transform: translate(0, 0);
				}
				100%{
					opacity: 1;
					transform: translate(0, 0);
				}
			}
			
			@keyframes eye {
				8%, 15% {
					transform: scale(1, 1);
					stroke-width: 2px;
				}
				10%, 13% {
					transform: scale(1, 0);
					stroke-width: 20px;
				}
			}

			@keyframes pupil {
				5%, 20% {
					transform: translate(5px, -1px);
				}
				10%, 15% {
					transform: translate(-5px, 1px);
				}
				20%, 100% {
					transform: translate(0, 0);
				}
			}

			@keyframes eyebrow {
				0%, 9% {
					transform: translate(0, 0);
				}
				10%, 15% {
					transform: translate(0, 0.5px);
				}
				16%, 100% {
					transform: translate(0, 0);
				}
			}

			@keyframes mouth {
				0%, 4% {
					transform: scale(1, 1);
				}
				5%, 20% {
					transform-origin: 250px 280px;
					transform: scale(1.1 , 0.95);
				}
				21%, 100% {
					transform: scale(1, 1);
				}
			}

			@keyframes dot {
				0%, 4% {
					transform: translate(0, 0);
				}
				5%, 20% {
					transform: translate(0, -3px);
				}
				21%, 100% {
					transform: translate(0, 0);
				}
			}

			@keyframes cheeks1 {
				0%, 4% {
					transform: translate(0, 0);
				}
				5%, 20% {
					transform: translate(-2px, 0);
				}
				21%, 100% {
					transform: translate(0, 0);
				}
			}
			
			@keyframes cheeks2 {
				0%, 4% {
					transform: translate(0, 0);
				}
				5%, 20% {
					transform: translate(2px, 0);
				}
				21%, 100% {
					transform: translate(0, 0);
				}
			}
			
			@keyframes paw {
				0% {
					transform: rotate(0);
				}
				50% {
					transform: rotate(5deg);
				}
				80% {
					transform: rotate(0);
				}
			}

			@keyframes tongue {
				0%, 4% {
					transform: translate(0, 0);
				}
				5%, 50% {
					transform: translate(-3px, -3px);
				}
				51%, 100% {
					transform: translate(0, 0);
				}
			}
	</style>
	<defs>
		<clipPath id="_clipPath_uSaH7GvzYbWeM4qHwkmFMFjBW04XGMZb">
			<rect width="1024" height="512"/>
		</clipPath>
	</defs>
	<g clip-path="url(#_clipPath_uSaH7GvzYbWeM4qHwkmFMFjBW04XGMZb)">
		<g>
			<path d=" M 254.64 311.615 C 266.295 310.394 288.556 318.743 341.017 337.284 L 344.824 318.364 Q 350.143 322.291 354.467 331.166 Q 358.79 340.04 395.831 338.131 Q 411.622 310.545 411.708 265.976 C 411.801 217.616 394.123 205.368 389.745 186.206 C 385.367 167.045 385.367 167.045 377.142 137.51 Q 350.136 71.333 341.728 63.859 Q 334.025 57.011 305.171 53.905 C 303.485 45.99 301.523 41.232 299.343 40.734 C 282.429 36.867 225.589 35.255 209.565 40.734 C 193.54 46.213 184.408 56.385 176 63.859 C 167.592 71.333 142.595 91.374 132 112 C 121.405 132.626 127.413 165.292 119.535 186.206 C 111.658 207.12 97.478 217.616 97.572 265.976 Q 97.658 310.545 113.448 338.131 Q 150.489 340.04 154.813 331.166 Q 159.137 322.291 164.456 318.364 L 168.263 337.284 Q 242.985 312.837 254.64 311.615 Z " fill="rgb(94,64,56)"/>
			<clipPath id="_clipPath_0ncUgiyCvweMKm4M3IrCLbWNX4PV3Q4n">
				<path d=" M 254.64 311.615 C 266.295 310.394 288.556 318.743 341.017 337.284 L 344.824 318.364 Q 350.143 322.291 354.467 331.166 Q 358.79 340.04 395.831 338.131 Q 411.622 310.545 411.708 265.976 C 411.801 217.616 394.123 205.368 389.745 186.206 C 385.367 167.045 385.367 167.045 377.142 137.51 Q 350.136 71.333 341.728 63.859 Q 334.025 57.011 305.171 53.905 C 303.485 45.99 301.523 41.232 299.343 40.734 C 282.429 36.867 225.589 35.255 209.565 40.734 C 193.54 46.213 184.408 56.385 176 63.859 C 167.592 71.333 142.595 91.374 132 112 C 121.405 132.626 127.413 165.292 119.535 186.206 C 111.658 207.12 97.478 217.616 97.572 265.976 Q 97.658 310.545 113.448 338.131 Q 150.489 340.04 154.813 331.166 Q 159.137 322.291 164.456 318.364 L 168.263 337.284 Q 242.985 312.837 254.64 311.615 Z " fill="rgb(94,64,56)"/>
			</clipPath>
			<g clip-path="url(#_clipPath_0ncUgiyCvweMKm4M3IrCLbWNX4PV3Q4n)">
				<path d=" M 368 116 C 378.515 119.396 397.2 204.556 392.368 244.782 C 388.901 273.649 393.604 330.966 395.664 343.681 Q 400.594 374.115 333.239 293.21 Q 357.485 112.604 368 116 Z " fill="rgb(91,60,52)"/>
				<path d=" M 375.031 352.878 Q 403.631 308.507 367.031 128.878 Q 164.125 92.314 159.031 116.878 C 153.936 141.441 117.324 330.371 143.031 348.878 C 168.737 367.385 346.43 397.248 375.031 352.878 Z " fill="rgb(70,47,40)"/>
			</g>
			<g class="dogPaw">
				<path d=" M 157.114 398.667 Q 161.322 395.875 161.471 387.733 C 161.621 379.59 157.223 361.208 159.62 354.482 C 162.016 347.755 163.677 345.576 167.34 344.746 C 171.003 343.915 169.995 349.444 173.508 347.251 C 177.021 345.059 173.536 336.699 181.352 335.174 C 189.167 333.649 187.22 339.708 189.984 340.212 C 192.748 340.715 196.275 335.623 201.613 339.218 C 206.95 342.812 203.301 350.247 204.717 352.752 C 206.133 355.258 210.491 353.828 212.86 357.654 C 215.229 361.481 214.14 370.154 210.858 375.315 C 207.577 380.476 206.392 380.938 206.365 386.739 Q 206.337 392.54 209.101 416.804 L 157.114 398.667 Z " fill="rgb(99,87,62)"/>
				<path d=" M 165.727 353.406 C 166.384 351.039 168.84 349.651 171.207 350.308 C 173.575 350.966 174.963 353.422 174.305 355.789 C 173.647 358.156 171.192 359.544 168.824 358.886 C 166.457 358.229 165.069 355.773 165.727 353.406 Z " fill="rgb(241,198,201)"/>
				<path d=" M 178.308 344.228 C 178.966 341.861 181.422 340.473 183.789 341.131 C 186.156 341.788 187.544 344.244 186.887 346.611 C 186.229 348.979 183.773 350.367 181.406 349.709 C 179.039 349.051 177.651 346.596 178.308 344.228 Z " fill="rgb(240,199,201)"/>
				<path d=" M 191.217 346.23 C 191.874 343.863 194.33 342.475 196.697 343.132 C 199.064 343.79 200.453 346.246 199.795 348.613 C 199.137 350.98 196.682 352.368 194.314 351.711 C 191.947 351.053 190.559 348.597 191.217 346.23 Z " fill="rgb(241,198,201)"/>
				<path d=" M 200.176 362.447 C 200.834 360.08 203.29 358.692 205.657 359.35 C 208.024 360.007 209.412 362.463 208.754 364.83 C 208.097 367.197 205.641 368.586 203.274 367.928 C 200.907 367.27 199.519 364.815 200.176 362.447 Z " fill="rgb(241,198,201)"/>
				<path d=" M 186.485 353.76 C 191.836 354.454 190.72 359.424 192.558 362.311 C 194.396 365.198 200.006 367.812 195.921 373.014 C 191.836 378.215 174.584 374.743 173.127 366.682 C 171.67 358.621 177.525 361.303 179.295 359.683 C 181.066 358.063 181.134 353.066 186.485 353.76 Z " fill="rgb(240,198,200)"/>
			</g>
			<path d=" M 208.836 312.883 Q 213.527 340.994 212.66 364.17 C 212.498 368.496 212.191 372.693 211.739 376.761 C 184.931 388.167 153.717 406.045 117.969 430.232 L 254.502 479.157 L 386.941 429.849 Q 342.193 394.249 304.618 376.98 Q 297.513 345.887 299.483 288.414 L 208.836 312.883 Z " fill="rgb(248,222,200)"/>
			<clipPath id="_clipPath_L5YAcCUp1DHINVfQQq7wmfA3p0v9z7ke">
				<path d=" M 208.836 312.883 Q 213.527 340.994 212.66 364.17 C 212.498 368.496 212.191 372.693 211.739 376.761 C 184.931 388.167 153.717 406.045 117.969 430.232 L 254.502 479.157 L 386.941 429.849 Q 342.193 394.249 304.618 376.98 Q 297.513 345.887 299.483 288.414 L 208.836 312.883 Z " fill="rgb(248,222,200)"/>
			</clipPath>
			<g clip-path="url(#_clipPath_L5YAcCUp1DHINVfQQq7wmfA3p0v9z7ke)">
				<path d=" M 396 338.091 L 172.991 454.769 L 132 284 L 352 240 L 396 338.091 Z " fill="rgb(244,206,186)"/>
				<path d=" M 340 338.091 L 211.739 376.761 L 164.555 270.006 L 366.483 256.509 L 340 338.091 Z " fill="rgb(204,152,152)" fill-opacity="0.3" style="mix-blend-mode:multiply;"/>
				<path d=" M 274.316 430.563 L 295.211 418.143 L 344.588 413.679 L 274.316 430.563 Z " fill="rgb(237,186,169)"/>
			</g>
			<g class="clothes">
				<path d=" M 164.781 394.857 Q 203.44 435.682 246.089 441.812 Q 288.737 447.943 337.393 391.93 L 355.132 404.5 L 386.9 425.6 L 379.157 537.415 L 109.791 552 L 100.068 449.907 L 152.951 407.791 L 164.781 394.857 Z " fill="#212936"/>
				<clipPath id="_clipPath_RVPJNAhY5ON6w6sy1iaAxfhI55AmWGOA">
					<path d=" M 164.781 394.857 Q 203.44 435.682 246.089 441.812 Q 288.737 447.943 337.393 391.93 L 355.132 404.5 L 386.9 425.6 L 379.157 537.415 L 109.791 552 L 100.068 449.907 L 152.951 407.791 L 164.781 394.857 Z " fill="#212936"/>
				</clipPath>
				<g clip-path="url(#_clipPath_RVPJNAhY5ON6w6sy1iaAxfhI55AmWGOA)">
					<path d=" M 359.454 384 L 287.454 528 L 367.454 552 L 359.454 384 Z " fill="#1F2734"/>
					<path d=" M 143.822 372.122 L 367.454 372.122 Q 335.072 432.331 304.253 445.046 C 273.435 457.761 229.377 456.034 192.438 440.184 Q 155.498 424.334 143.822 372.122 Z " fill="#2A323F"/>
					<path d=" M 396 632 L 367.454 624 L 68 608 L 396 632 Z " fill="#1F2734"/>
				</g>
				<path d=" M 134.823 411.015 Q 139.035 410.05 154.27 401.292 Q 171.402 443.004 178.577 466.339 Q 185.752 489.674 198.024 552 L 52.177 552 Q 33.538 500.727 37.592 493.661 C 41.647 486.595 49.894 488.25 57.038 488.8 C 49.674 482.663 46.215 474.015 47.315 464.492 C 48.416 454.969 67.592 450.196 76.485 440.184 C 85.377 430.172 89.436 411.763 95.931 411.015 C 102.426 410.267 101.654 416.184 105.654 415.876 Q 109.654 415.569 115.377 406.153 Q 130.611 411.979 134.823 411.015 Z " fill="rgb(57,56,56)"/>
				<clipPath id="_clipPath_agq4QGGLOlFKsHeyp0vrvgUn1V6785SC">
					<path d=" M 134.823 411.015 Q 139.035 410.05 154.27 401.292 Q 171.402 443.004 178.577 466.339 Q 185.752 489.674 198.024 552 L 52.177 552 Q 33.538 500.727 37.592 493.661 C 41.647 486.595 49.894 488.25 57.038 488.8 C 49.674 482.663 46.215 474.015 47.315 464.492 C 48.416 454.969 67.592 450.196 76.485 440.184 C 85.377 430.172 89.436 411.763 95.931 411.015 C 102.426 410.267 101.654 416.184 105.654 415.876 Q 109.654 415.569 115.377 406.153 Q 130.611 411.979 134.823 411.015 Z " fill="rgb(57,56,56)"/>
				</clipPath>
				<g clip-path="url(#_clipPath_agq4QGGLOlFKsHeyp0vrvgUn1V6785SC)">
					<path d=" M 95.931 406.153 Q 139.416 449.041 154.27 483.938 Q 169.123 518.835 207.747 595.754 L 222.331 586.031 L 159.131 386.707 L 95.931 406.153 Z " fill="rgb(46,46,46)"/>
					<path d=" M 149.716 517.415 L 115.685 478.523 L 81.654 449.354 Q 108.427 461.542 120.546 473.661 Q 132.666 485.78 149.716 517.415 Z " fill="rgb(70,70,70)"/>
					<path d=" M 159.131 537.415 L 61.9 479.077 Q 60.536 488.659 61.9 493.661 Q 63.264 498.664 100.792 508.246 L 159.131 537.415 Z " fill="rgb(47,47,47)"/>
				</g>
				<path d=" M 377.177 411.015 Q 372.965 410.05 357.73 401.292 Q 340.598 443.004 333.423 466.339 Q 326.248 489.674 313.976 552 L 459.823 552 Q 478.462 500.727 474.408 493.661 C 470.353 486.595 462.106 488.25 454.962 488.8 C 462.326 482.663 465.785 474.015 464.685 464.492 C 463.584 454.969 444.408 450.196 435.515 440.184 C 426.623 430.172 422.564 411.763 416.069 411.015 C 409.574 410.267 410.346 416.184 406.346 415.876 Q 402.346 415.569 396.623 406.153 Q 381.389 411.979 377.177 411.015 Z " fill="rgb(57,56,56)"/>
				<clipPath id="_clipPath_OYDqCOU4kVc43cCoVbi2ryfCUva4uafB">
					<path d=" M 377.177 411.015 Q 372.965 410.05 357.73 401.292 Q 340.598 443.004 333.423 466.339 Q 326.248 489.674 313.976 552 L 459.823 552 Q 478.462 500.727 474.408 493.661 C 470.353 486.595 462.106 488.25 454.962 488.8 C 462.326 482.663 465.785 474.015 464.685 464.492 C 463.584 454.969 444.408 450.196 435.515 440.184 C 426.623 430.172 422.564 411.763 416.069 411.015 C 409.574 410.267 410.346 416.184 406.346 415.876 Q 402.346 415.569 396.623 406.153 Q 381.389 411.979 377.177 411.015 Z " fill="rgb(57,56,56)"/>
				</clipPath>
				<g clip-path="url(#_clipPath_OYDqCOU4kVc43cCoVbi2ryfCUva4uafB)">
					<path d=" M 416.069 406.153 Q 372.584 449.041 357.73 483.938 Q 342.877 518.835 304.253 595.754 L 289.669 586.031 L 352.869 386.707 L 416.069 406.153 Z " fill="rgb(46,46,46)"/>
					<path d=" M 338.284 537.415 L 372.315 498.523 L 406.346 469.354 Q 379.573 481.542 367.454 493.661 Q 355.334 505.78 338.284 537.415 Z " fill="rgb(47,47,47)"/>
					<path d=" M 352.869 537.415 L 450.1 479.077 Q 450.705 491.443 450.1 493.661 C 449.495 495.879 438.795 499.834 432.293 502.34 Q 425.103 505.111 411.208 508.246 L 352.869 537.415 Z " fill="rgb(70,70,70)"/>
				</g>
			</g>
			<g>
				<g>
					<path d=" M 336.775 263.249 C 338.292 269.24 357.553 264.121 361.549 262.185 C 365.545 260.25 367.88 252.615 374.172 244.529 C 378.813 238.564 385.383 233.463 386.78 226.964 C 388.176 220.466 384.571 191.169 377.685 190.946 Q 363.88 190.754 356.964 197.527 Q 350.047 204.3 350.16 209.482 Q 335.257 257.258 336.775 263.249 Z " fill="rgb(248,209,187)"/>
					<clipPath id="_clipPath_nLJ9RGFGj6iMR6ceOKccxnjXtr6fLWtv">
						<path d=" M 336.775 263.249 C 338.292 269.24 357.553 264.121 361.549 262.185 C 365.545 260.25 367.88 252.615 374.172 244.529 C 378.813 238.564 385.383 233.463 386.78 226.964 C 388.176 220.466 384.571 191.169 377.685 190.946 Q 363.88 190.754 356.964 197.527 Q 350.047 204.3 350.16 209.482 Q 335.257 257.258 336.775 263.249 Z " fill="rgb(248,209,187)"/>
					</clipPath>
					<g clip-path="url(#_clipPath_nLJ9RGFGj6iMR6ceOKccxnjXtr6fLWtv)">
						<path d=" M 370.125 238.97 Q 382.585 223.424 382.754 221.273 C 382.923 219.122 382.472 217.082 381.653 215.113 C 380.239 211.713 377.728 208.527 375.417 205.354 Q 373.107 202.18 359.941 206.581 L 357.965 222.428 L 370.125 238.97 Z " fill="rgb(218,172,163)"/>
						<path d=" M 357.23 227.098 Q 362.527 234.483 360.52 237.458 C 358.514 240.434 348.524 250.164 348.301 252.552 C 348.079 254.94 367.822 242.853 370.125 238.97 C 372.428 235.088 374.903 224.251 373.178 219.577 Q 371.453 214.903 364.568 211.75 L 359.765 210.994 L 357.23 227.098 Z " fill="rgb(237,186,169)"/>
					</g>
					<path d=" M 359.363 256.698 C 358.803 265.638 356.59 272.786 354.425 272.651 C 353.222 272.575 352.285 270.268 351.786 266.698" fill="none" stroke-width="4" stroke="rgb(66,63,61)" stroke-linejoin="round" stroke-linecap="round" stroke-miterlimit="3"/>
					<path d=" M 378.892 215.806 C 387.758 214.522 394.703 211.736 394.392 209.589 C 394.219 208.396 391.843 207.65 388.244 207.442" fill="none" stroke-width="4" stroke="rgb(89,87,86)" stroke-linejoin="round" stroke-linecap="round" stroke-miterlimit="3"/>
					<path d=" M 342.479 259.088 C 342.904 256.384 345.402 254.527 348.052 254.945 C 350.703 255.362 352.509 257.896 352.083 260.6 C 351.658 263.304 349.16 265.16 346.51 264.743 C 343.859 264.326 342.053 261.792 342.479 259.088 Z " fill="rgb(66,63,61)"/>
				</g>
				<g>
					<path d=" M 177.228 265.521 C 175.148 271.341 156.46 264.416 152.666 262.109 C 148.872 259.803 147.273 251.981 141.778 243.334 C 137.724 236.955 131.668 231.253 130.895 224.651 C 130.122 218.05 136.493 189.228 143.369 189.66 Q 157.13 190.78 163.372 198.179 Q 169.613 205.578 169.009 210.726 Q 179.308 259.701 177.228 265.521 Z " fill="rgb(248,209,187)"/>
					<clipPath id="_clipPath_sztCn13pFRMyOBJwLQTBkQ9WC2YwUose">
						<path d=" M 177.228 265.521 C 175.148 271.341 156.46 264.416 152.666 262.109 C 148.872 259.803 147.273 251.981 141.778 243.334 C 137.724 236.955 131.668 231.253 130.895 224.651 C 130.122 218.05 136.493 189.228 143.369 189.66 Q 157.13 190.78 163.372 198.179 Q 169.613 205.578 169.009 210.726 Q 179.308 259.701 177.228 265.521 Z " fill="rgb(248,209,187)"/>
					</clipPath>
					<g clip-path="url(#_clipPath_sztCn13pFRMyOBJwLQTBkQ9WC2YwUose)">
						<path d=" M 146.334 238.185 Q 135.407 221.525 135.443 219.368 C 135.478 217.211 136.121 215.222 137.124 213.34 C 138.854 210.091 141.657 207.157 144.258 204.217 Q 146.859 201.278 159.304 204.217 L 160.01 222.872 L 146.334 238.185 Z " fill="rgb(218,172,163)"/>
						<path d=" M 160.298 227.59 Q 154.324 234.44 156.039 237.592 C 157.753 240.744 166.775 251.38 166.769 253.778 C 166.763 256.176 148.258 242.268 146.334 238.185 C 144.41 234.102 142.975 223.078 145.136 218.589 Q 147.297 214.1 154.451 211.615 L 159.304 211.319 L 160.298 227.59 Z " fill="rgb(237,186,169)"/>
					</g>
					<path d=" M 142.591 243.604 C 137.299 250.832 135.496 258.525 138.565 260.771 C 140.27 262.019 143.123 261.326 146.229 259.223" fill="none" stroke-width="4" stroke="rgb(59,57,55)" stroke-linejoin="round" stroke-linecap="round" stroke-miterlimit="3"/>
					<path d=" M 153.103 249.153 C 152.801 249.535 152.502 249.926 152.208 250.328 C 146.918 257.555 145.113 265.249 148.182 267.495 C 150.228 268.993 153.927 267.695 157.733 264.521" fill="none" stroke-width="4" stroke="rgb(66,63,61)" stroke-linejoin="round" stroke-linecap="round" stroke-miterlimit="3"/>
				</g>
			</g>
			<g>
				<path d=" M 60.103 318.786 C 86.702 304.695 93.834 300.636 113.057 301.234 C 132.281 301.832 148.968 331.15 158.098 349.033 C 167.227 366.916 171.164 379.362 167.641 389.76 C 164.118 400.158 154.256 414.164 121.659 430.619 C 89.063 447.075 78.323 444.795 60.233 442.502 C 42.143 440.21 40.584 426.411 33.819 414.526 C 27.053 402.64 -1.726 368.666 11.988 350.369 C 25.703 332.072 33.504 332.877 60.103 318.786 Z " fill="rgb(207,174,144)"/>
				<clipPath id="_clipPath_brZ1LhopJKFUbUQd3TMaE4wliY5van8D">
					<path d=" M 60.103 318.786 C 86.702 304.695 93.834 300.636 113.057 301.234 C 132.281 301.832 148.968 331.15 158.098 349.033 C 167.227 366.916 171.164 379.362 167.641 389.76 C 164.118 400.158 154.256 414.164 121.659 430.619 C 89.063 447.075 78.323 444.795 60.233 442.502 C 42.143 440.21 40.584 426.411 33.819 414.526 C 27.053 402.64 -1.726 368.666 11.988 350.369 C 25.703 332.072 33.504 332.877 60.103 318.786 Z " fill="rgb(207,174,144)"/>
				</clipPath>
				<g clip-path="url(#_clipPath_brZ1LhopJKFUbUQd3TMaE4wliY5van8D)">
					<path d=" M 79.111 287.717 C 88.477 302.125 97.637 334.998 115.352 355.779 Q 132.278 375.634 173.691 400.859 L 196.673 386.716 L 142.753 303.627 L 107.397 270.922 Q 56.129 252.36 79.111 287.717 Z " fill="rgb(176,147,119)"/>
				</g>
				<path d=" M 124.365 435.373 Q 137.043 428.157 139.104 413.347 L 122.623 395.451 L 89.576 411.114 L 88.636 431.581 L 104.117 438.506 Q 111.687 442.589 124.365 435.373 Z " fill="rgb(69,67,51)"/>
				<path d=" M 50.66 372.234 Q 61.812 366.343 69.214 367.968 Q 76.615 369.593 89.534 388.923" fill="none" vector-effect="non-scaling-stroke" stroke-width="5" stroke="rgb(149,114,78)" stroke-linejoin="round" stroke-linecap="round" stroke-miterlimit="3"/>
				<path d=" M 111.182 338.65 Q 100.423 345.231 98.041 352.425 Q 95.659 359.618 105.683 380.596" fill="none" vector-effect="non-scaling-stroke" stroke-width="5" stroke="rgb(149,114,78)" stroke-linejoin="round" stroke-linecap="round" stroke-miterlimit="3"/>
				<path d=" M 60.906 379.175 C 46.656 379.943 43.925 389.89 44.583 402.104 C 45.241 414.319 52.908 427.789 62.294 427.692 C 71.68 427.594 81.079 420.147 80.64 412.004 C 80.202 403.861 83.944 397.534 78.301 391.305 C 72.657 385.076 75.156 378.408 60.906 379.175 Z " fill="rgb(98,86,62)"/>
				<path d=" M 114.104 350.994 C 121.808 342.412 131.195 342.315 141.702 347.874 C 152.21 353.433 159.535 368.147 157.036 374.815 C 154.537 381.482 146.491 391.307 136.544 388.576 C 126.598 385.845 119.93 383.346 116.553 373.728 C 113.177 364.11 106.4 359.575 114.104 350.994 Z " fill="rgb(98,86,62)"/>
				<clipPath id="_clipPath_W8w3Ef95tYbLujLQEv0OmNZJDqoVhAEO">
					<path d=" M 114.104 350.994 C 121.808 342.412 131.195 342.315 141.702 347.874 C 152.21 353.433 159.535 368.147 157.036 374.815 C 154.537 381.482 146.491 391.307 136.544 388.576 C 126.598 385.845 119.93 383.346 116.553 373.728 C 113.177 364.11 106.4 359.575 114.104 350.994 Z " fill="rgb(98,86,62)"/>
				</clipPath>
				<g clip-path="url(#_clipPath_W8w3Ef95tYbLujLQEv0OmNZJDqoVhAEO)">
					<path d=" M 79.111 287.717 C 88.477 302.125 97.637 334.998 115.352 355.779 Q 132.278 375.634 173.691 400.859 L 196.673 386.716 L 142.753 303.627 L 107.397 270.922 Q 56.129 252.36 79.111 287.717 Z " fill="rgb(79,69,49)"/>
				</g>
				<path class="dogTongue" d=" M 117.039 420.66 Q 123.829 417.844 124.756 404.728 L 102.473 407.97 L 100.303 420.745 Q 110.25 423.475 117.039 420.66 Z " fill="rgb(238,159,164)"/>
				<path d=" M 93.929 378.213 C 126.074 360.966 141.067 389.149 147.832 401.035 C 154.597 412.92 155.609 416.541 144.516 422.855 C 133.423 429.169 127.133 403.375 111.627 411.151 C 96.121 418.928 113.394 436.373 98.681 443.698 C 83.967 451.024 78.372 428.935 80.152 433.263 C 81.932 437.591 61.783 395.461 93.929 378.213 Z " fill="rgb(46,52,46)"/>
				<path d=" M 97.073 391.111 C 106.582 385.699 109.751 383.895 112.457 388.649 C 115.163 393.403 118.881 401.778 109.372 407.19 C 99.864 412.602 89.906 403.63 89.027 400.935 C 88.149 398.241 87.565 396.523 97.073 391.111 Z " fill="rgb(9,15,13)"/>
				<path d=" M 51.396 406.752 C 48.161 401.07 50.149 393.831 55.831 390.597 C 61.513 387.363 68.752 389.35 71.987 395.032 C 75.221 400.715 73.233 407.954 67.551 411.188 C 61.869 414.422 54.63 412.435 51.396 406.752 Z " fill="rgb(83,73,51)"/>
				<clipPath id="_clipPath_w2XEETjtIoec2mTRktNRXnfPrRSSnGDs">
					<path class="dogEyelid-1" d=" M 51.396 406.752 C 48.161 401.07 50.149 393.831 55.831 390.597 C 61.513 387.363 68.752 389.35 71.987 395.032 C 75.221 400.715 73.233 407.954 67.551 411.188 C 61.869 414.422 54.63 412.435 51.396 406.752 Z " fill="rgb(83,73,51)"/>
				</clipPath>
				<g clip-path="url(#_clipPath_w2XEETjtIoec2mTRktNRXnfPrRSSnGDs)">
					<path d=" M 53.621 406.926 C 50.759 401.897 52.518 395.49 57.547 392.627 C 62.576 389.764 68.983 391.523 71.846 396.553 C 74.708 401.582 72.949 407.989 67.92 410.851 C 62.891 413.714 56.484 411.955 53.621 406.926 Z " fill="rgb(9,17,14)"/>
					<path d=" M 57.815 401.392 C 56.446 398.986 57.287 395.922 59.692 394.553 C 62.098 393.184 65.162 394.025 66.531 396.431 C 67.9 398.836 67.059 401.9 64.653 403.269 C 62.248 404.638 59.184 403.797 57.815 401.392 Z " fill="rgb(255,255,255)"/>
				</g>
				<path d=" M 121.806 368.435 C 118.673 362.931 120.598 355.92 126.102 352.787 C 131.606 349.654 138.617 351.579 141.75 357.083 C 144.882 362.587 142.957 369.598 137.454 372.731 C 131.95 375.864 124.939 373.939 121.806 368.435 Z " fill="rgb(82,72,51)"/>
				<clipPath id="_clipPath_lrRD4gnAEQBdC2fVtFw0Bl840NYwKkmr">
					<path class="dogEyelid-2" d=" M 121.806 368.435 C 118.673 362.931 120.598 355.92 126.102 352.787 C 131.606 349.654 138.617 351.579 141.75 357.083 C 144.882 362.587 142.957 369.598 137.454 372.731 C 131.95 375.864 124.939 373.939 121.806 368.435 Z " fill="rgb(82,72,51)"/>
				</clipPath>
				<g clip-path="url(#_clipPath_lrRD4gnAEQBdC2fVtFw0Bl840NYwKkmr)">
					<path d=" M 122.216 368.932 C 119.353 363.903 121.112 357.496 126.141 354.633 C 131.171 351.77 137.578 353.529 140.44 358.559 C 143.303 363.588 141.544 369.995 136.514 372.857 C 131.485 375.72 125.078 373.961 122.216 368.932 Z " fill="rgb(9,17,14)"/>
					<path d=" M 124.374 363.507 C 123.005 361.102 123.846 358.038 126.251 356.669 C 128.656 355.3 131.721 356.141 133.09 358.546 C 134.459 360.951 133.617 364.016 131.212 365.385 C 128.807 366.754 125.743 365.912 124.374 363.507 Z " fill="rgb(255,255,255)"/>
				</g>
				<path d=" M 18.801 401.043 C 31.93 394.619 19.264 394.485 27.091 380.588 C 34.917 366.692 39.549 369.301 32.675 355.38 Q 25.8 341.458 26.592 341.007 L 41.635 339.789 L 43.793 334.364 L 22.984 334.669 Q 8.612 340.751 -1.92 349.893 Q -12.453 359.035 -15.976 369.433 Q -10.796 382.221 -1.081 388.231 C 8.635 394.241 5.672 407.467 18.801 401.043 Z " fill="rgb(58,58,56)"/>
				<path d=" M 154.911 327.767 C 142.684 335.776 149.035 324.817 133.091 324.451 C 117.146 324.085 117.024 329.399 108.565 316.38 Q 100.105 303.361 99.313 303.812 L 90.584 316.124 L 84.819 315.209 L 95.705 297.473 Q 108.273 288.221 121.511 283.833 Q 134.75 279.445 145.489 281.725 Q 153.839 292.709 154.046 304.131 C 154.253 315.553 167.137 319.759 154.911 327.767 Z " fill="rgb(58,58,56)"/>
				<clipPath id="_clipPath_tBQMohu2qoKrhPZ9Q804pFdI4XTXTz9m">
					<path d=" M 154.911 327.767 C 142.684 335.776 149.035 324.817 133.091 324.451 C 117.146 324.085 117.024 329.399 108.565 316.38 Q 100.105 303.361 99.313 303.812 L 90.584 316.124 L 84.819 315.209 L 95.705 297.473 Q 108.273 288.221 121.511 283.833 Q 134.75 279.445 145.489 281.725 Q 153.839 292.709 154.046 304.131 C 154.253 315.553 167.137 319.759 154.911 327.767 Z " fill="rgb(58,58,56)"/>
				</clipPath>
				<g clip-path="url(#_clipPath_tBQMohu2qoKrhPZ9Q804pFdI4XTXTz9m)">
					<path d=" M 123.307 277.993 Q 109.892 281.15 87.95 297.44 Q 95.906 331.029 112.7 337.216 Q 129.495 343.404 161.316 344.288 C 166.586 326.531 166.007 303.853 159.548 276.226 Q 138.334 274.458 123.307 277.993 Z " fill="rgb(32,32,29)"/>
				</g>
				<path d=" M 39.549 369.301 Q 42.94 351.668 51.009 347.042 C 59.077 342.417 68.672 353.841 77.6 349.673 C 86.527 345.505 82.397 328.591 92.663 324.382 Q 102.928 320.173 118.213 328.723" fill="none" vector-effect="non-scaling-stroke" stroke-width="5" stroke="rgb(149,114,78)" stroke-linejoin="round" stroke-linecap="round" stroke-miterlimit="3"/>
				<g>
					<path d=" M 59.591 439.734 C 73.181 435.456 82.838 438.663 87.108 445.014 C 91.378 451.364 95.085 457.634 91.71 461.177 C 88.336 464.72 87.608 460.94 85.679 463.195 C 83.751 465.449 87.053 468.905 81.183 471.405 C 75.314 473.904 75.632 470.847 72.577 472.138 C 69.522 473.428 73.788 475.756 65.986 476.489 C 58.184 477.221 61.96 473.275 58.421 473.118 C 54.881 472.961 58.344 476.899 51.344 475.217 C 44.344 473.535 41.44 465.655 42.235 456.806 C 43.029 447.957 46.002 444.012 59.591 439.734 Z " fill="rgb(181,144,103)"/>
				</g>
			</g>
			<path d=" M 158.089 154.004 C 148.037 189.49 165.202 285.426 179.789 303.38 C 194.376 321.334 231.978 351.093 242.312 354.739 C 252.646 358.384 260.164 354.404 267.02 352.732 C 273.876 351.059 310.845 327.867 326.343 305.824 C 341.841 283.78 340.236 279.257 345.908 264.058 C 351.58 248.86 380.621 175.057 361.709 128.855 C 342.798 82.653 318.809 63.841 276.736 60.188 C 234.663 56.536 212.005 72.65 189.569 94.053 C 167.133 115.456 168.142 118.519 158.089 154.004 Z " fill="rgb(248,221,198)"/>
			<clipPath id="_clipPath_GfHGE5rPamZOn1mdOv4gmrt5SbajtGwC">
				<path d=" M 158.089 154.004 C 148.037 189.49 165.202 285.426 179.789 303.38 C 194.376 321.334 231.978 351.093 242.312 354.739 C 252.646 358.384 260.164 354.404 267.02 352.732 C 273.876 351.059 310.845 327.867 326.343 305.824 C 341.841 283.78 340.236 279.257 345.908 264.058 C 351.58 248.86 380.621 175.057 361.709 128.855 C 342.798 82.653 318.809 63.841 276.736 60.188 C 234.663 56.536 212.005 72.65 189.569 94.053 C 167.133 115.456 168.142 118.519 158.089 154.004 Z " fill="rgb(248,221,198)"/>
			</clipPath>
			<g clip-path="url(#_clipPath_GfHGE5rPamZOn1mdOv4gmrt5SbajtGwC)">
				<path class="cheeks" d=" M 154.906 276.664 C 156.697 261.34 172.251 250.547 189.618 252.577 C 206.986 254.607 219.632 268.695 217.841 284.019 C 216.05 299.343 200.496 310.136 183.129 308.107 C 165.761 306.077 153.115 291.988 154.906 276.664 Z " fill="rgb(244,185,176)" fill-opacity="0.5"/>
				<path class="cheeks" d=" M 297.849 287.531 C 294.061 272.576 304.747 256.948 321.698 252.655 C 338.648 248.361 355.485 257.018 359.273 271.974 C 363.061 286.93 352.375 302.558 335.425 306.851 C 318.474 311.144 301.637 302.487 297.849 287.531 Z " fill="rgb(244,185,176)" fill-opacity="0.5"/>
				<path class="cheeks" d=" M 327.92 246.06 C 328.076 244.728 329.284 243.772 330.617 243.928 C 331.949 244.084 332.905 245.292 332.749 246.624 C 332.593 247.957 331.385 248.912 330.052 248.757 C 328.72 248.601 327.764 247.393 327.92 246.06 Z " fill="rgb(237,186,169)"/>
				<path class="dot" d=" M 239.625 289.582 C 239.781 288.25 240.989 287.294 242.321 287.45 C 243.654 287.606 244.609 288.814 244.453 290.147 C 244.298 291.479 243.089 292.434 241.757 292.279 C 240.424 292.123 239.469 290.915 239.625 289.582 Z " fill="rgb(237,186,169)"/>
			</g>
			<g>
				<path d=" M 257.838 225.55 Q 255.366 225.538 252.921 229.55 Q 244.961 269.927 245.556 273.332 Q 246.15 276.737 257.838 284.724 Q 269.494 276.175 270.003 273.332 Q 270.511 270.49 262.756 229.55 Q 260.311 225.562 257.838 225.55 Z " fill="rgb(248,209,187)"/>
				<path d=" M 262.756 276.929 C 264.296 279.551 267.519 280.521 269.947 279.095 C 272.376 277.668 273.097 274.381 271.557 271.759 C 270.701 270.302 269.326 269.355 267.857 269.046" fill="none" stroke-width="0.5" stroke="rgb(185,185,185)" stroke-linejoin="round" stroke-linecap="round" stroke-miterlimit="3"/>
			</g>
			<path class="mouth" d=" M 256 296.231 Q 247.412 296.231 232 300.231 Q 242.886 307.856 256 308.061 Q 269.114 308.266 280 300.231 Q 264.588 296.231 256 296.231 Z " fill="rgb(244,206,186)"/>
			<clipPath class="mouth" id="_clipPath_JX8fiKH0Xb474edhzH4QCrP3N8s60Aq5">
				<path class="mouth" d=" M 256 296.231 Q 247.412 296.231 232 300.231 Q 242.886 307.856 256 308.061 Q 269.114 308.266 280 300.231 Q 264.588 296.231 256 296.231 Z " fill="rgb(244,206,186)"/>
			</clipPath>
			<g class="mouth" clip-path="url(#_clipPath_JX8fiKH0Xb474edhzH4QCrP3N8s60Aq5)">
				<rect class="mouth" x="229.261" y="300" width="53.477" height="9.723" transform="matrix(1,0,0,1,0,0)" fill="rgb(243,197,173)"/>
			</g>
			<g>
				<path d=" M 228.158 215.173 Q 235.352 225.531 234.864 239.037 C 230.364 242.088 223.278 244.424 220.694 245 C 218.11 245.576 209.109 246.401 196.086 242.012 Q 188.902 239.592 180.8 233.433 Q 183.759 220.289 189.007 213.3 C 195.945 204.061 204.699 202.077 207.653 202.118 C 210.607 202.16 223.448 205.417 228.158 215.173 Z " fill="rgb(248,221,198)" fill-opacity="0.75" style="mix-blend-mode:screen;"/>
				<clipPath id="_clipPath_1qZvNmwzPkV6QzG7yH1eDu6EdYNrxpwl">
					<path class="eyelid" d=" M 228.158 215.173 Q 235.352 225.531 234.864 239.037 C 230.364 242.088 223.278 244.424 220.694 245 C 218.11 245.576 209.109 246.401 196.086 242.012 Q 188.902 239.592 180.8 233.433 Q 183.759 220.289 189.007 213.3 C 195.945 204.061 204.699 202.077 207.653 202.118 C 210.607 202.16 223.448 205.417 228.158 215.173 Z " fill="rgb(248,221,198)" fill-opacity="0.75" style="mix-blend-mode:screen;"/>
				</clipPath>
				<g clip-path="url(#_clipPath_1qZvNmwzPkV6QzG7yH1eDu6EdYNrxpwl)">
					<g class="pupil">
						<path d=" M 190.57 224.205 C 190.529 212.159 198.64 202.351 208.673 202.317 C 218.706 202.282 226.884 212.034 226.926 224.08 C 226.967 236.126 218.856 245.934 208.823 245.969 C 198.79 246.003 190.612 236.251 190.57 224.205 Z " fill="rgb(85,102,102)"/>
						<clipPath id="_clipPath_0hos5BazCAMoZGy4nniACZvRfRmiAKAL">
							<path d=" M 190.57 224.205 C 190.529 212.159 198.64 202.351 208.673 202.317 C 218.706 202.282 226.884 212.034 226.926 224.08 C 226.967 236.126 218.856 245.934 208.823 245.969 C 198.79 246.003 190.612 236.251 190.57 224.205 Z " fill="rgb(85,102,102)"/>
						</clipPath>
						<g clip-path="url(#_clipPath_0hos5BazCAMoZGy4nniACZvRfRmiAKAL)">
							<rect x="187.828" y="223.191" width="50.339" height="25.379" transform="matrix(1,-0.003,0.003,1,-0.81,0.734)" fill="rgb(88,162,162)"/>
						</g>
						<path d=" M 199.236 224.175 C 199.214 217.872 203.459 212.739 208.709 212.721 C 213.959 212.703 218.238 217.806 218.26 224.11 C 218.282 230.413 214.037 235.546 208.787 235.564 C 203.537 235.582 199.258 230.479 199.236 224.175 Z " fill="transparent" r="NaN" stroke-width="3" stroke="rgb(255,255,255)" stroke-opacity="0.75" stroke-linejoin="miter" stroke-linecap="square" stroke-miterlimit="3"/>
						<path d=" M 199.236 224.175 C 199.214 217.872 203.459 212.739 208.709 212.721 C 213.959 212.703 218.238 217.806 218.26 224.11 C 218.282 230.413 214.037 235.546 208.787 235.564 C 203.537 235.582 199.258 230.479 199.236 224.175 Z " fill="rgb(66,63,61)"/>
					</g>
				</g>
				<path d=" M 292.256 214.263 Q 284.739 224.389 284.8 237.905 C 289.203 241.096 296.211 243.654 298.776 244.312 C 301.34 244.969 310.311 246.077 323.466 242.101 Q 330.722 239.908 339.014 234.008 Q 336.471 220.777 331.446 213.626 C 324.803 204.173 316.116 201.913 313.162 201.862 C 310.208 201.81 297.271 204.661 292.256 214.263 Z " fill="rgb(248,221,198)" fill-opacity="0.75" style="mix-blend-mode:screen;"/>
				<clipPath id="_clipPath_apV8bugBOf8k706v5ABbBNUo1DDER0Cx">
					<path class="eyelid" d=" M 292.256 214.263 Q 284.739 224.389 284.8 237.905 C 289.203 241.096 296.211 243.654 298.776 244.312 C 301.34 244.969 310.311 246.077 323.466 242.101 Q 330.722 239.908 339.014 234.008 Q 336.471 220.777 331.446 213.626 C 324.803 204.173 316.116 201.913 313.162 201.862 C 310.208 201.81 297.271 204.661 292.256 214.263 Z " fill="rgb(248,221,198)" fill-opacity="0.75" style="mix-blend-mode:screen;"/>
				</clipPath>
				<g clip-path="url(#_clipPath_apV8bugBOf8k706v5ABbBNUo1DDER0Cx)">
					<g class="pupil">
						<path d=" M 329.551 223.858 C 329.562 211.811 321.426 202.024 311.394 202.015 C 301.361 202.005 293.207 211.778 293.195 223.824 C 293.184 235.87 301.32 245.657 311.353 245.667 C 321.385 245.676 329.54 235.904 329.551 223.858 Z " fill="rgb(85,102,102)"/>
						<clipPath id="_clipPath_YFzsVwqUqkhAWNlZn914Yb7zaZEosGuq">
							<path d=" M 329.551 223.858 C 329.562 211.811 321.426 202.024 311.394 202.015 C 301.361 202.005 293.207 211.778 293.195 223.824 C 293.184 235.87 301.32 245.657 311.353 245.667 C 321.385 245.676 329.54 235.904 329.551 223.858 Z " fill="rgb(85,102,102)"/>
						</clipPath>
						<g clip-path="url(#_clipPath_YFzsVwqUqkhAWNlZn914Yb7zaZEosGuq)">
							<rect x="281.984" y="222.9" width="50.339" height="25.379" transform="matrix(1,0.001,-0.001,1,0.22,-0.287)" fill="rgb(88,162,162)"/>
						</g>
						<path d=" M 320.885 223.85 C 320.891 217.546 316.634 212.424 311.384 212.419 C 306.134 212.415 301.867 217.528 301.861 223.832 C 301.855 230.135 306.113 235.257 311.363 235.262 C 316.612 235.267 320.879 230.153 320.885 223.85 Z " fill="transparent" r="NaN" stroke-width="3" stroke="rgb(255,255,255)" stroke-opacity="0.75" stroke-linejoin="miter" stroke-linecap="square" stroke-miterlimit="3"/>
						<path d=" M 320.885 223.85 C 320.891 217.546 316.634 212.424 311.384 212.419 C 306.134 212.415 301.867 217.528 301.861 223.832 C 301.855 230.135 306.113 235.257 311.363 235.262 C 316.612 235.267 320.879 230.153 320.885 223.85 Z " fill="rgb(66,63,61)"/>
					</g>
				</g>
			</g>
			<g class="eyebrow">
				<path d=" M 310.614 188.732 L 278.946 187.478 Q 297.908 176.287 309.611 176.378 Q 321.313 176.469 342.283 189.986 L 310.614 188.732 Z " fill="rgb(94,64,56)"/>
				<path d=" M 206.892 188.785 L 238.524 186.803 Q 219.309 176.052 207.611 176.412 Q 195.914 176.772 175.261 190.767 L 206.892 188.785 Z " fill="rgb(94,64,56)"/>
			</g>
			<g class="glasses">
				<path d=" M 152.226 185.576 C 153.681 192.418 161.628 215.911 160.862 216 Q 159.93 216.109 167.97 208 Q 154.824 186.514 152.341 183.871 C 151.901 183.402 151.913 184.104 152.226 185.576 Z " fill="rgb(66,63,61)"/>
				<clipPath id="_clipPath_1XDFHp4HWZd4vy30tLdXBRV5rhakNzRq">
					<path d=" M 152.226 185.576 C 153.681 192.418 161.628 215.911 160.862 216 Q 159.93 216.109 167.97 208 Q 154.824 186.514 152.341 183.871 C 151.901 183.402 151.913 184.104 152.226 185.576 Z " fill="rgb(66,63,61)"/>
				</clipPath>
				<g clip-path="url(#_clipPath_1XDFHp4HWZd4vy30tLdXBRV5rhakNzRq)">
					<rect x="123.213" y="192.186" width="54.127" height="11.305" transform="matrix(0.421,0.907,-0.79,0.673,243.243,-71.564)" fill="rgb(62,60,59)"/>
				</g>
				<path d=" M 163.774 209.959 Q 195.161 208.352 242.878 212.901 Q 244.846 236.494 239.505 250.59 Q 210.302 256.977 167.97 251.335 Q 162.421 226.376 163.774 209.959 Z " fill="none" stroke-width="6" stroke="rgb(66,63,61)" stroke-linejoin="round" stroke-linecap="round" stroke-miterlimit="3"/>
				<path d=" M 353.606 216 Q 354.515 216.232 349.606 206.903 Q 366.829 187.36 369.642 185.07 C 372.455 182.78 352.697 215.768 353.606 216 Z " fill="rgb(66,63,61)"/>
				<clipPath id="_clipPath_qgBuM5nhwR8QO17w6NlDtbotpFVkGGJD">
					<path d=" M 353.606 216 Q 354.515 216.232 349.606 206.903 Q 366.829 187.36 369.642 185.07 C 372.455 182.78 352.697 215.768 353.606 216 Z " fill="rgb(66,63,61)"/>
				</clipPath>
				<g clip-path="url(#_clipPath_qgBuM5nhwR8QO17w6NlDtbotpFVkGGJD)">
					<rect x="341.034" y="191.178" width="54.127" height="11.305" transform="matrix(0.538,-0.843,0.693,0.772,33.422,355.034)" fill="rgb(62,60,59)"/>
				</g>
				<path d=" M 352.093 207.999 Q 320.68 207.046 273.068 212.587 Q 271.591 236.216 277.225 250.198 Q 306.554 255.975 348.759 249.453 Q 353.788 224.385 352.093 207.999 Z " fill="none" stroke-width="6" stroke="rgb(66,63,61)" stroke-linejoin="round" stroke-linecap="round" stroke-miterlimit="3"/>
				<path d=" M 243.631 221.414 Q 247.074 216.242 258.012 216.509 Q 268.95 216.776 272.801 221.414" fill="none" stroke-width="6" stroke="rgb(66,63,61)" stroke-linejoin="round" stroke-linecap="round" stroke-miterlimit="3"/>
			</g>
			<g class="front-hair">
				<path d=" M 316 48 Q 267.799 19.815 240 20 C 212.201 20.185 195.276 29.515 180 48 C 164.724 66.485 155.159 100.342 144 117.668 Q 132.841 134.994 132 200 L 316 48 Z " fill="rgb(94,64,56)"/>
				<path d=" M 316 108 Q 335.522 150.24 343.412 176.329 Q 351.301 202.417 343.412 252 Q 363.365 229.339 372.315 211.691 C 381.265 194.043 380.356 173.012 378.091 151.871 C 375.826 130.73 371.816 79.134 343.412 64 Q 315.008 48.866 316 108 Z " fill="rgb(94,64,56)"/>
				<path d=" M 316 108 Q 299.409 99.54 289.292 100.205 Q 279.175 100.87 254.282 117.668 Q 262.384 79.872 271.829 65.195 C 281.274 50.518 302.173 18.473 320 20.094 C 322.9 20.137 332.344 24.475 336 28 C 339.656 31.525 348.656 43.6 348 54.975 C 347.37 65.888 341.075 71.503 332.537 80.691 Q 324 89.878 316 108 Z " fill="rgb(91,60,52)"/>
				<clipPath id="_clipPath_XSPPVdX3kR4SfWIPxHh8iTcopfpH2BQY">
					<path d=" M 316 108 Q 299.409 99.54 289.292 100.205 Q 279.175 100.87 254.282 117.668 Q 262.384 79.872 271.829 65.195 C 281.274 50.518 302.173 18.473 320 20.094 C 322.9 20.137 332.344 24.475 336 28 C 339.656 31.525 348.656 43.6 348 54.975 C 347.37 65.888 341.075 71.503 332.537 80.691 Q 324 89.878 316 108 Z " fill="rgb(91,60,52)"/>
				</clipPath>
				<g class="shadow-bangs" clip-path="url(#_clipPath_XSPPVdX3kR4SfWIPxHh8iTcopfpH2BQY)">
					<path d=" M 316 108 Q 300.87 107.417 292 108 Q 283.13 108.583 260.289 114.351 Q 266.353 82.828 275.672 68.346 C 284.992 53.864 304.881 23.177 323.533 29.591 C 342.185 36.006 344.98 46.328 342.454 59.387 C 340.4 70 323.485 83.945 316 92 Q 308.515 100.055 316 108 Z " fill="rgb(70,47,40)"/>
					<clipPath id="_clipPath_Z9tokDBMG9uPZLJC63KK82rNUr3YO9Bz">
						<path d=" M 316 108 Q 300.87 107.417 292 108 Q 283.13 108.583 260.289 114.351 Q 266.353 82.828 275.672 68.346 C 284.992 53.864 304.881 23.177 323.533 29.591 C 342.185 36.006 344.98 46.328 342.454 59.387 C 340.4 70 323.485 83.945 316 92 Q 308.515 100.055 316 108 Z " fill="rgb(70,47,40)"/>
					</clipPath>
					<g clip-path="url(#_clipPath_Z9tokDBMG9uPZLJC63KK82rNUr3YO9Bz)">
						<path d=" M 248 132 C 251.094 121.762 292.989 87.36 304 64 Q 315.011 40.64 320 20.094 Q 256.839 52.335 248 88 C 239.161 123.665 244.906 142.238 248 132 Z " fill="rgb(62,41,35)"/>
					</g>
				</g>
				<path d=" M 320 20.094 C 307.793 19.126 289.097 14.903 268 20.094 C 246.903 25.285 225.194 33.597 212 50.975 C 198.806 68.354 197.786 102.2 168 120 C 138.214 137.8 121.689 194.02 118.802 219.904 C 115.915 245.789 116.101 271.032 132.601 292.226 Q 149.1 313.42 153.763 323.999 Q 131.597 264.626 142.564 230.823 C 153.532 197.019 164.344 202.672 185.129 188.354 C 205.914 174.036 223.284 177.97 237.651 162.651 C 252.018 147.332 257.267 107.841 268 92 C 278.733 76.159 302.916 58.885 320 20.094 Z " fill="rgb(91,60,52)"/>
			</g>
		</g>
		<g class="dialog-5">
			<path d=" M 543.54 442.992 Q 540.599 443.14 541.063 440.62 Q 543.711 436.979 544.778 433.505 C 545.844 430.03 545.91 377.421 546.635 363.537 Q 546.635 355.631 554.064 355.235 L 903.571 355.235 Q 910.69 356.026 911 363.537 Q 911 377.421 911 433.505 Q 909.452 441.806 903.571 442.992 C 816.881 442.992 678.687 442.992 543.54 442.992 Z " fill="rgb(57,56,56)"/>
			<g clip-path="url(#_clipPath_cd6GMJ8GaVQpHZEklPJY27QnsFp6XqOK)">
				<text transform="matrix(1,0,0,1,565,381.172)" style="font-family:monospace;font-weight:400;font-size:16px;font-style:normal;fill:#e8e8e8;stroke:none;">If you want to know more about me </text>
				<text transform="matrix(1,0,0,1,565,404.61)" style="font-family:monospace;font-weight:400;font-size:16px;font-style:normal;fill:#e8e8e8;stroke:none;">you can reach me out on </text>
				<text transform="matrix(1,0,0,1,565,428.047)" style="font-family:monospace;font-weight:400;font-size:16px;font-style:normal;fill:#e8e8e8;stroke:none;">🔗 rightonhana.dev</text>
			</g>
			<defs>
				<clipPath id="_clipPath_cd6GMJ8GaVQpHZEklPJY27QnsFp6XqOK">
					<rect x="0" y="0" width="338.571" height="73" transform="matrix(1,0,0,1,565,362.618)"/>
				</clipPath>
			</defs>
		</g>
		<g class="dialog-4">
			<path d=" M 543.142 442.993 Q 540.662 443.118 541.053 440.993 Q 543.286 437.923 544.186 434.993 C 545.085 432.063 545.141 416.701 545.752 404.993 Q 545.752 398.326 552.016 397.993 L 823.736 397.993 Q 829.739 398.66 830 404.993 Q 830 416.701 830 434.993 Q 828.695 441.993 823.736 442.993 C 750.635 442.993 657.103 442.993 543.142 442.993 Z " fill="rgb(57,56,56)"/>
			<g clip-path="url(#_clipPath_Ms0lecwxuJ44rVCTRwPcoZdoHehpvDLq)">
				<text transform="matrix(1,0,0,1,559.408,426.799)" style="font-family:monospace;font-weight:400;font-size:16px;font-style:normal;fill:#e8e8e8;stroke:none;">My pronouns are She/Her 👩‍💻</text>
			</g>
			<defs>
				<clipPath id="_clipPath_Ms0lecwxuJ44rVCTRwPcoZdoHehpvDLq">
					<rect x="0" y="0" width="258.183" height="24.503" transform="matrix(1,0,0,1,559.408,408.245)"/>
				</clipPath>
			</defs>
		</g>
		<g class="dialog-3">
			<path d=" M 543.54 442.992 Q 540.599 443.14 541.063 440.62 Q 543.711 436.979 544.778 433.505 C 545.844 430.03 545.91 377.421 546.635 363.537 Q 546.635 355.631 554.064 355.235 L 903.571 355.235 Q 910.69 356.026 911 363.537 Q 911 377.421 911 433.505 Q 909.452 441.806 903.571 442.992 C 816.881 442.992 678.687 442.992 543.54 442.992 Z " fill="rgb(57,56,56)"/>
			<g clip-path="url(#_clipPath_cd6GMJ8GaVQpHZEklPJY27QnsFp6XqOK)">
				<text transform="matrix(1,0,0,1,565,381.172)" style="font-family:monospace;font-weight:400;font-size:16px;font-style:normal;fill:#e8e8e8;stroke:none;">I'm a Front-end Developer with </text>
				<text transform="matrix(1,0,0,1,565,404.61)" style="font-family:monospace;font-weight:400;font-size:16px;font-style:normal;fill:#e8e8e8;stroke:none;">experience in Angular, React and </text>
				<text transform="matrix(1,0,0,1,565,428.047)" style="font-family:monospace;font-weight:400;font-size:16px;font-style:normal;fill:#e8e8e8;stroke:none;">Svelte.</text>
			</g>
			<defs>
				<clipPath id="_clipPath_cd6GMJ8GaVQpHZEklPJY27QnsFp6XqOK">
					<rect x="0" y="0" width="338.571" height="73" transform="matrix(1,0,0,1,565,362.618)"/>
				</clipPath>
			</defs>
		</g>
		<g class="dialog-2">
			<path d=" M 543.742 442.16 Q 540.567 442.285 541.068 440.155 Q 543.927 437.077 545.078 434.139 C 546.23 431.202 546.301 394.748 547.084 383.011 Q 547.084 376.327 555.104 375.993 L 902.98 375.993 Q 910.666 376.661 911 383.011 Q 911 394.748 911 434.139 Q 909.329 441.157 902.98 442.16 C 809.39 442.16 689.644 442.16 543.742 442.16 Z " fill="rgb(57,56,56)"/>
			<g clip-path="url(#_clipPath_ESlM0h8RX5VXCFQgA5t80sqGiBmZNFpN)">
				<text transform="matrix(1,0,0,1,561.068,404.114)" style="font-family:monospace;font-weight:400;font-size:16px;font-style:normal;fill:#e8e8e8;stroke:none;">I'm from Argentina 🇦🇷 but currently </text>
				<text transform="matrix(1,0,0,1,561.068,427.551)" style="font-family:monospace;font-weight:400;font-size:16px;font-style:normal;fill:#e8e8e8;stroke:none;">I'm living in the United States 🇺🇸</text>
			</g>
			<defs>
				<clipPath id="_clipPath_ESlM0h8RX5VXCFQgA5t80sqGiBmZNFpN">
					<rect x="0" y="0" width="341" height="46.875" transform="matrix(1,0,0,1,561.068,385.559)"/>
				</clipPath>
			</defs>
		</g>
		<g class="dialog-1">
			<path d=" M 543.297 442.993 Q 540.637 443.118 541.057 440.993 Q 543.452 437.923 544.417 434.993 C 545.382 432.063 545.441 416.701 546.097 404.993 Q 546.097 398.326 552.817 397.993 L 896.28 397.993 Q 902.72 398.66 903 404.993 Q 903 416.701 903 434.993 Q 901.6 441.993 896.28 442.993 C 817.868 442.993 665.54 442.993 543.297 442.993 Z " fill="rgb(57,56,56)"/>
			<g clip-path="url(#_clipPath_3D2gxkuakMBlARHwnRYqTgx1WEIpF5CZ)">
				<text transform="matrix(1,0,0,1,559,427.048)" style="font-family:monospace;font-weight:400;font-size:16px;font-style:normal;fill:#e8e8e8;stroke:none;">Hi there 👋 I'm Florencia Gonzalez</text>
			</g>
			<defs>
				<clipPath id="_clipPath_3D2gxkuakMBlARHwnRYqTgx1WEIpF5CZ">
					<rect x="0" y="0" width="350" height="24.007" transform="matrix(1,0,0,1,559,408.493)"/>
				</clipPath>
			</defs>
		</g>
	</g>
</svg>