<svg class="avatar"
	xmlns="http://www.w3.org/2000/svg"
	xmlns:xlink="http://www.w3.org/1999/xlink" style="isolation:isolate" viewBox="0 0 1024 512" width="1024pt" height="512pt">
	<style>
			.dialog-1 {
				opacity: 0;
				animation: greet 7s both;
			}

			.dialog-2 {
				opacity: 0;
				animation: from 7s both;
			}

			.dialog-3 {
				opacity: 0;
				animation: profession 7s both;
			}

			.dialog-4 {
				opacity: 0;
				animation: pronouns 7s both;
			}

			.dialog-5 {
				opacity: 0;
				animation: contact 7s both;
			}

			.eyelid {
				animation: eye 3s ease-in-out infinite;
				transform-origin: center;
			}
			
			.pupil {
				animation: pupil 15s ease-out infinite;
				transform-origin: center;
			}

			.eyebrow {
				animation: eyebrow 3s ease-in-out infinite;
				transform-origin: center;
			}

			.mouth {
				animation: mouth 15s ease infinite;
				transform-origin: center;
			}

			.dot {
				animation: dot 15s ease infinite;
				transform-origin: center;
			}

			.cheeks:first-child {
				animation: cheeks1 15s ease infinite;
				transform-origin: center;
			}

			.cheeks:nth-child(2), .cheeks:nth-child(3) {
				animation: cheeks2 15s ease infinite;
				transform-origin: center;
			}

			@keyframes greet {
				0% {
					opacity: 0;
					transform: translate(0, 0);
				}
				20% {
					opacity: 1;
					transform: translate(0, 0);
				}
				40% {
					opacity: 1;
					transform: translate(0, -78px);
				}
				60% {
					opacity: 1;
					transform: translate(0, -180px);
				}
				80% {
					opacity: 1;
					transform: translate(0, -234px);
				}
				100%{
					opacity: 1;
					transform: translate(0, -333px);
				}
			}

			@keyframes from {
				0%, 20% {
					opacity: 0;
					transform: translate(0, 0);
				}
				40% {
					opacity: 1;
					transform: translate(0, 0);
				}
				60% {
					opacity: 1;
					transform: translate(0, -100px);
				}
				80%{
					opacity: 1;
					transform: translate(0, -155px);
				}
				100%{
					opacity: 1;
					transform: translate(0, -252px);
				}
			}

			@keyframes profession {
				0%, 40% {
					opacity: 0;
					transform: translate(0, 0);
				}
				60% {
					opacity: 1;
					transform: translate(0, 0);
				}
				80%{
					opacity: 1;
					transform: translate(0, -56px);
				}
				100%{
					opacity: 1;
					transform: translate(0, -155px);
				}
			}

			@keyframes pronouns {
				0%, 60% {
					opacity: 0;
					transform: translate(0, 0);
				}
				80% {
					opacity: 1;
					transform: translate(0, 0);
				}
				100%{
					opacity: 1;
					transform: translate(0, -99px);
				}
			}

			@keyframes contact {
				0%, 80% {
					opacity: 0;
					transform: translate(0, 0);
				}
				100%{
					opacity: 1;
					transform: translate(0, 0);
				}
			}
			
			@keyframes eye {
				5%, 20% {
					transform: scale(1, 1);
					stroke-width: 2px;
				}
				10%, 15% {
					transform: scale(1, 0);
					stroke-width: 20px;
				}
			}

			@keyframes pupil {
				5%, 20% {
					transform: translate(5px, -1px);
				}
				10%, 15% {
					transform: translate(-5px, 1px);
				}
				20%, 100% {
					transform: translate(0, 0);
				}
			}

			@keyframes eyebrow {
				0%, 9% {
					transform: translate(0, 0);
				}
				10%, 15% {
					transform: translate(0, 0.5px);
				}
				16%, 100% {
					transform: translate(0, 0);
				}
			}

			@keyframes mouth {
				0%, 4% {
					transform: scale(1, 1);
				}
				5%, 20% {
					transform-origin: 250px 280px;
					transform: scale(1.1 , 0.95);
				}
				21%, 100% {
					transform: scale(1, 1);
				}
			}

			@keyframes dot {
				0%, 4% {
					transform: translate(0, 0);
				}
				5%, 20% {
					transform: translate(0, -3px);
				}
				21%, 100% {
					transform: translate(0, 0);
				}
			}

			@keyframes cheeks1 {
				0%, 4% {
					transform: translate(0, 0);
				}
				5%, 20% {
					transform: translate(-2px, 0);
				}
				21%, 100% {
					transform: translate(0, 0);
				}
			}
			
			@keyframes cheeks2 {
				0%, 4% {
					transform: translate(0, 0);
				}
				5%, 20% {
					transform: translate(2px, 0);
				}
				21%, 100% {
					transform: translate(0, 0);
				}
			}

			@keyframes materia1 {
				0%,100% {
					transform:translateY(10px);
				}
				50% {
					transform:translate(-3px);
				}
			}

			@keyframes materia2 {
				0%,100% {
					transform:translateY(-3px);
				}
				50% {
					transform:translate(10px);
				}
			}

			.materia-1 {
				animation: materia1 2.5s ease-in-out infinite;
			}

			.materia-2 {
				animation: materia2 3.5s ease-in-out infinite;
			}

			.materia-3 {
				animation: materia1 3s ease-in-out infinite;
			}

			.materia-4 {
				animation: materia2 4s ease-in-out infinite;
			}

			.materia-5 {
				animation: materia1 3s ease-in-out infinite;
			}
	</style>
	<defs>
		<clipPath id="_clipPath_uSaH7GvzYbWeM4qHwkmFMFjBW04XGMZb">
			<rect width="1024" height="512"/>
		</clipPath>
	</defs>
	<g clip-path="url(#_clipPath_uSaH7GvzYbWeM4qHwkmFMFjBW04XGMZb)">
		<g>
			<g class="materia-1">
				<path d=" M 446.333 164.011 C 428.116 147.991 426.331 120.195 442.351 101.978 C 458.371 83.76 486.167 81.976 504.384 97.996 C 522.601 114.015 524.386 141.811 508.366 160.029 C 492.346 178.246 464.55 180.03 446.333 164.011 Z " fill="rgb(219,219,13)" fill-opacity="0.75"/>
				<path d=" M 467.467 162.475 Q 501.827 167.082 505.527 133.754" fill="none" vector-effect="non-scaling-stroke" stroke-width="5" stroke="rgb(237,237,177)" stroke-opacity="0.9568627450980393" stroke-linejoin="round" stroke-linecap="round" stroke-miterlimit="3"/>
				<path d=" M 485.798 142.012 C 478.966 136.005 478.297 125.581 484.305 118.75 C 490.312 111.918 500.735 111.249 507.567 117.257 C 514.398 123.264 515.067 133.688 509.06 140.519 C 503.053 147.351 492.629 148.02 485.798 142.012 Z " fill="rgb(236,237,173)" fill-opacity="0.9882352941176471"/>
				<path d=" M 469.598 110.766 C 470.07 107.579 473.04 105.374 476.227 105.846 C 479.415 106.317 481.619 109.288 481.148 112.475 C 480.676 115.662 477.706 117.867 474.518 117.395 C 471.331 116.924 469.126 113.953 469.598 110.766 Z " fill="rgb(239,239,197)" fill-opacity="0.996078431372549"/>
				<path d=" M 444.509 122.444 C 447.475 123.702 448.862 127.132 447.603 130.098 C 446.345 133.064 442.915 134.45 439.949 133.192 C 436.983 131.933 435.597 128.503 436.855 125.537 C 438.114 122.571 441.543 121.185 444.509 122.444 Z " fill="rgb(237,237,177)" fill-opacity="0.9568627450980393"/>
				<path d=" M 484.964 105.334 C 485.331 102.856 487.64 101.141 490.119 101.508 C 492.597 101.875 494.311 104.185 493.945 106.663 C 493.578 109.141 491.268 110.856 488.79 110.489 C 486.312 110.122 484.597 107.812 484.964 105.334 Z " fill="rgb(237,237,177)" fill-opacity="0.9568627450980393"/>
				<path d=" M 445.9 138.682 C 448.206 139.66 449.284 142.327 448.306 144.634 C 447.327 146.94 444.66 148.018 442.354 147.039 C 440.048 146.061 438.97 143.394 439.948 141.088 C 440.927 138.781 443.594 137.703 445.9 138.682 Z " fill="rgb(237,237,177)" fill-opacity="0.9568627450980393"/>
			</g>
			<g class="materia-2">
				<path d=" M 87.307 112.712 C 100.947 132.773 95.733 160.134 75.672 173.774 C 55.611 187.414 28.25 182.2 14.61 162.139 C 0.97 142.078 6.183 114.717 26.245 101.077 C 46.306 87.437 73.667 92.651 87.307 112.712 Z " fill="rgb(163,62,221)" fill-opacity="0.82"/>
				<path d=" M 66.459 108.922 Q 34.338 95.88 22.432 127.229" fill="none" vector-effect="non-scaling-stroke" stroke-width="5" stroke="rgb(197,140,228)" stroke-opacity="0.9686274509803922" stroke-linejoin="round" stroke-linecap="round" stroke-miterlimit="3"/>
				<path d=" M 43.599 124.158 C 48.714 131.681 46.759 141.942 39.236 147.057 C 31.713 152.172 21.452 150.217 16.338 142.694 C 11.223 135.171 13.178 124.91 20.701 119.795 C 28.224 114.681 38.484 116.636 43.599 124.158 Z " fill="rgb(197,139,228)" fill-opacity="0.996078431372549"/>
				<path d=" M 51.483 158.46 C 50.23 161.429 46.803 162.822 43.835 161.569 C 40.866 160.317 39.473 156.89 40.726 153.921 C 41.978 150.953 45.405 149.56 48.374 150.812 C 51.342 152.065 52.735 155.492 51.483 158.46 Z " fill="rgb(197,140,228)" fill-opacity="0.9686274509803922"/>
				<path d=" M 78.693 153.417 C 76.135 151.458 75.649 147.791 77.608 145.233 C 79.567 142.676 83.235 142.19 85.792 144.149 C 88.35 146.108 88.836 149.775 86.877 152.333 C 84.918 154.891 81.25 155.377 78.693 153.417 Z " fill="rgb(197,140,228)" fill-opacity="0.9686274509803922"/>
				<path d=" M 35.247 159.883 C 34.273 162.191 31.609 163.274 29.3 162.3 C 26.992 161.326 25.909 158.662 26.883 156.354 C 27.857 154.045 30.521 152.962 32.83 153.936 C 35.138 154.91 36.221 157.575 35.247 159.883 Z " fill="rgb(197,140,228)" fill-opacity="0.9686274509803922"/>
				<path d=" M 81.401 137.346 C 79.412 135.823 79.034 132.971 80.558 130.983 C 82.081 128.994 84.933 128.616 86.922 130.139 C 88.911 131.663 89.288 134.514 87.765 136.503 C 86.241 138.492 83.39 138.87 81.401 137.346 Z " fill="rgb(197,140,228)" fill-opacity="0.9686274509803922"/>
			</g>
			<g class="materia-3">
				<path d=" M 43.056 324.329 C 66.194 317.04 90.897 329.907 98.186 353.045 C 105.475 376.183 92.608 400.886 69.47 408.175 C 46.332 415.464 21.629 402.597 14.34 379.459 C 7.05 356.321 19.918 331.618 43.056 324.329 Z " fill="rgb(39,213,91)" fill-opacity="0.82"/>
				<path d=" M 33.426 343.204 Q 11.692 370.212 38.287 390.636" fill="none" vector-effect="non-scaling-stroke" stroke-width="5" stroke="rgb(182,238,199)" stroke-linejoin="round" stroke-linecap="round" stroke-miterlimit="3"/>
				<path d=" M 41.439 369.482 C 50.116 366.749 59.379 371.574 62.113 380.251 C 64.846 388.927 60.021 398.191 51.344 400.924 C 42.667 403.658 33.404 398.832 30.67 390.156 C 27.937 381.479 32.762 372.215 41.439 369.482 Z " fill="rgb(182,238,199)"/>
				<path d=" M 76.558 371.804 C 79.041 373.858 79.388 377.54 77.335 380.023 C 75.281 382.505 71.598 382.853 69.115 380.799 C 66.633 378.745 66.285 375.063 68.339 372.58 C 70.393 370.098 74.076 369.75 76.558 371.804 Z " fill="rgb(182,238,199)"/>
				<path d=" M 79.56 344.294 C 76.948 346.179 73.296 345.589 71.41 342.977 C 69.524 340.364 70.114 336.713 72.727 334.827 C 75.339 332.941 78.991 333.531 80.877 336.144 C 82.762 338.756 82.172 342.408 79.56 344.294 Z " fill="rgb(182,238,199)"/>
				<path d=" M 73.248 387.762 C 75.178 389.359 75.449 392.223 73.852 394.153 C 72.255 396.083 69.391 396.354 67.461 394.757 C 65.531 393.159 65.26 390.296 66.857 388.366 C 68.454 386.435 71.318 386.165 73.248 387.762 Z " fill="rgb(182,238,199)"/>
				<path d=" M 64.948 337.075 C 62.917 338.541 60.077 338.082 58.611 336.051 C 57.145 334.019 57.604 331.18 59.635 329.713 C 61.666 328.247 64.506 328.706 65.972 330.737 C 67.439 332.769 66.98 335.608 64.948 337.075 Z " fill="rgb(182,238,199)"/>
			</g>
			<g class="materia-4">
				<path d=" M 522.384 319.433 C 541.554 334.3 545.046 361.934 530.178 381.103 C 515.311 400.272 487.677 403.764 468.508 388.897 C 449.339 374.029 445.847 346.396 460.714 327.227 C 475.582 308.057 503.215 304.565 522.384 319.433 Z " fill="rgb(133,172,230)" fill-opacity="0.91"/>
				<path d=" M 501.385 322.267 Q 466.807 319.784 465.166 353.277" fill="none" vector-effect="non-scaling-stroke" stroke-width="5" stroke="rgb(172,199,242)" stroke-linejoin="round" stroke-linecap="round" stroke-miterlimit="3"/>
				<path d=" M 484.349 343.819 C 491.537 349.395 492.847 359.757 487.272 366.946 C 481.696 374.134 471.334 375.444 464.145 369.868 C 456.957 364.293 455.647 353.93 461.223 346.742 C 466.798 339.554 477.161 338.244 484.349 343.819 Z " fill="rgb(173,200,243)" fill-opacity="0.9921568627450981"/>
				<path d=" M 502.442 374.009 C 502.167 377.219 499.338 379.602 496.128 379.328 C 492.918 379.054 490.534 376.224 490.809 373.014 C 491.083 369.804 493.912 367.421 497.123 367.695 C 500.333 367.97 502.716 370.799 502.442 374.009 Z " fill="rgb(172,199,242)"/>
				<path d=" M 526.764 360.809 C 523.726 359.735 522.131 356.397 523.205 353.36 C 524.278 350.322 527.616 348.727 530.654 349.8 C 533.692 350.874 535.286 354.212 534.213 357.249 C 533.14 360.287 529.802 361.882 526.764 360.809 Z " fill="rgb(172,199,242)"/>
				<path d=" M 487.44 380.377 C 487.226 382.873 485.026 384.726 482.53 384.513 C 480.034 384.299 478.181 382.099 478.394 379.603 C 478.608 377.107 480.807 375.254 483.304 375.467 C 485.8 375.681 487.653 377.88 487.44 380.377 Z " fill="rgb(172,199,242)"/>
				<path d=" M 524.376 344.687 C 522.014 343.852 520.774 341.257 521.609 338.894 C 522.443 336.532 525.039 335.292 527.401 336.127 C 529.763 336.962 531.003 339.557 530.168 341.919 C 529.334 344.281 526.738 345.521 524.376 344.687 Z " fill="rgb(172,199,242)"/>
			</g>
			<g class="materia-5">
				<path d=" M 207.365 26.436 C 203.327 2.516 219.47 -20.183 243.39 -24.221 C 267.311 -28.259 290.009 -12.116 294.047 11.804 C 298.085 35.725 281.943 58.423 258.022 62.461 C 234.102 66.499 211.403 50.357 207.365 26.436 Z " fill="rgb(213,39,39)" fill-opacity="0.82"/>
				<path d=" M 224.737 38.571 Q 248.499 63.812 272.387 40.278" fill="none" vector-effect="non-scaling-stroke" stroke-width="5" stroke="rgb(224,123,122)" stroke-opacity="0.9686274509803922" stroke-linejoin="round" stroke-linecap="round" stroke-miterlimit="3"/>
				<path d=" M 251.867 34.247 C 250.353 25.277 256.406 16.765 265.376 15.251 C 274.346 13.737 282.858 19.79 284.373 28.76 C 285.887 37.731 279.833 46.243 270.863 47.757 C 261.893 49.271 253.381 43.218 251.867 34.247 Z " fill="rgb(227,138,138)" fill-opacity="0.8196078431372549"/>
				<path d=" M 258.996 -0.219 C 261.372 -2.395 265.068 -2.233 267.244 0.142 C 269.42 2.518 269.258 6.214 266.883 8.39 C 264.507 10.566 260.811 10.405 258.635 8.029 C 256.459 5.653 256.62 1.957 258.996 -0.219 Z " fill="rgb(224,123,122)" fill-opacity="0.9686274509803922"/>
				<path d=" M 232.16 -6.975 C 233.669 -4.129 232.582 -0.592 229.735 0.916 C 226.888 2.424 223.352 1.338 221.844 -1.509 C 220.335 -4.356 221.422 -7.892 224.269 -9.401 C 227.116 -10.909 230.652 -9.822 232.16 -6.975 Z " fill="rgb(224,123,122)" fill-opacity="0.9686274509803922"/>
				<path d=" M 274.347 5.254 C 276.195 3.562 279.068 3.688 280.761 5.535 C 282.453 7.382 282.327 10.256 280.48 11.948 C 278.632 13.641 275.759 13.515 274.067 11.667 C 272.374 9.82 272.5 6.946 274.347 5.254 Z " fill="rgb(224,123,122)" fill-opacity="0.9686274509803922"/>
				<path d=" M 223 6.505 C 224.173 8.718 223.328 11.468 221.115 12.641 C 218.901 13.814 216.151 12.969 214.978 10.755 C 213.805 8.541 214.65 5.792 216.864 4.619 C 219.078 3.446 221.827 4.291 223 6.505 Z " fill="rgb(224,123,122)" fill-opacity="0.9686274509803922"/>
			</g>
		</g>
		<g>
			<g>
				<path d=" M 162.927 292.563 L 350.571 266.333 L 361.668 378.314 L 170.998 387.394 L 162.927 292.563 Z " fill="rgb(81,53,53)"/>
				<path d=" M 134.68 400.508 C 155.003 371.071 153.848 336.952 250.696 332.916 Q 347.544 328.881 383.863 404.544 L 390.924 430.774 L 118.538 457.003 Q 118.278 424.266 134.68 400.508 Z " fill="rgb(130,36,36)"/>
			</g>
			<path d=" M 208.836 312.883 Q 213.527 340.994 212.66 364.17 C 212.498 368.496 212.191 372.693 211.739 376.761 C 184.931 388.167 153.717 406.045 117.969 430.232 L 139.724 520.56 L 253.723 545.781 L 390.924 505.427 L 386.941 429.849 Q 342.193 394.249 304.618 376.98 Q 297.513 345.887 299.483 288.414 L 208.836 312.883 Z " fill="rgb(248,222,200)"/>
			<clipPath id="_clipPath_uYgztyNpZB06srHQ07G6FY2csdIl1wJK">
				<path d=" M 208.836 312.883 Q 213.527 340.994 212.66 364.17 C 212.498 368.496 212.191 372.693 211.739 376.761 C 184.931 388.167 153.717 406.045 117.969 430.232 L 139.724 520.56 L 253.723 545.781 L 390.924 505.427 L 386.941 429.849 Q 342.193 394.249 304.618 376.98 Q 297.513 345.887 299.483 288.414 L 208.836 312.883 Z " fill="rgb(248,222,200)"/>
			</clipPath>
			<g clip-path="url(#_clipPath_uYgztyNpZB06srHQ07G6FY2csdIl1wJK)">
				<path d=" M 396 338.091 L 172.991 454.769 L 132 284 L 352 240 L 396 338.091 Z " fill="rgb(244,206,186)"/>
				<path d=" M 340 338.091 L 211.739 376.761 L 164.555 270.006 L 366.483 256.509 L 340 338.091 Z " fill="rgb(204,152,152)" fill-opacity="0.3" style="mix-blend-mode:multiply;"/>
				<path d=" M 274.316 430.563 L 295.211 418.143 L 344.588 413.679 L 274.316 430.563 Z " fill="rgb(237,186,169)"/>
			</g>
			<g>
				<g>
					<path d=" M 188.148 572.011 L 28.808 527.608 Q 46.761 468.366 62.319 455.799 Q 77.878 443.232 190.977 395.958 L 188.148 572.011 Z " fill="rgb(183,51,51)"/>
					<clipPath id="_clipPath_nYX451HLf2oydRrox4rdn2aVGEAYLfU4">
						<path d=" M 188.148 572.011 L 28.808 527.608 Q 46.761 468.366 62.319 455.799 Q 77.878 443.232 190.977 395.958 L 188.148 572.011 Z " fill="rgb(183,51,51)"/>
					</clipPath>
					<g clip-path="url(#_clipPath_nYX451HLf2oydRrox4rdn2aVGEAYLfU4)">
						<path d=" M 64.114 447.421 L 82.665 541.372 L 9.061 536.584 L 64.114 447.421 Z " fill="rgb(142,20,20)"/>
					</g>
					<path d=" M 152.081 389.376 C 123.357 407.926 101.814 439.642 93.437 449.217 C 85.059 458.791 69.5 475.547 62.319 477.342 C 55.138 479.137 58.729 483.924 64.713 485.121 C 70.697 486.318 92.24 500.081 111.389 500.081 C 130.538 500.081 181.905 498.26 185.122 493.321 C 193.718 480.122 194.201 448.933 189.157 423.712 C 187.362 414.736 180.804 370.825 152.081 389.376 Z " fill="rgb(130,36,36)"/>
					<clipPath id="_clipPath_A5SA4FZlaqOS9XsYZ5bshnmr9o5PFOXq">
						<path d=" M 152.081 389.376 C 123.357 407.926 101.814 439.642 93.437 449.217 C 85.059 458.791 69.5 475.547 62.319 477.342 C 55.138 479.137 58.729 483.924 64.713 485.121 C 70.697 486.318 92.24 500.081 111.389 500.081 C 130.538 500.081 181.905 498.26 185.122 493.321 C 193.718 480.122 194.201 448.933 189.157 423.712 C 187.362 414.736 180.804 370.825 152.081 389.376 Z " fill="rgb(130,36,36)"/>
					</clipPath>
					<g clip-path="url(#_clipPath_A5SA4FZlaqOS9XsYZ5bshnmr9o5PFOXq)">
						<ellipse vector-effect="non-scaling-stroke" cx="91.6413112120446" cy="475.54654802664703" rx="7.18090914616198" ry="7.779318241675469" fill="rgb(170,170,82)"/>
					</g>
				</g>
				<g>
					<path d=" M 338.248 572.059 L 497.588 527.657 Q 479.636 468.414 464.077 455.848 Q 448.518 443.281 333.421 384.367 L 338.248 572.059 Z " fill="rgb(183,51,51)"/>
					<clipPath id="_clipPath_zXmpuc64dEjKUWPy9wFVFMoWy0eFJy4t">
						<path d=" M 338.248 572.059 L 497.588 527.657 Q 479.636 468.414 464.077 455.848 Q 448.518 443.281 333.421 384.367 L 338.248 572.059 Z " fill="rgb(183,51,51)"/>
					</clipPath>
					<g clip-path="url(#_clipPath_zXmpuc64dEjKUWPy9wFVFMoWy0eFJy4t)">
						<path d=" M 462.282 447.47 L 443.731 541.42 L 517.335 536.633 L 462.282 447.47 Z " fill="rgb(142,20,20)"/>
					</g>
					<path d=" M 333.447 395.416 C 308.2 360.155 342.497 350.12 374.316 389.424 C 395.83 416 393.644 430.279 402.022 439.853 C 410.399 449.428 430.896 464.595 438.077 466.39 C 445.258 468.186 441.668 472.973 435.683 474.17 C 429.699 475.367 425.157 489.13 406.007 489.13 C 386.858 489.13 344.491 488.309 341.275 483.37 C 332.678 470.17 334.069 454.131 333.421 425.729 C 333.183 415.323 332.989 404.727 333.447 395.416 Z " fill="rgb(130,36,36)"/>
					<clipPath id="_clipPath_98xkaKXFvGlBqzHmdVy9w9bvMU0u91zm">
						<path d=" M 333.447 395.416 C 308.2 360.155 342.497 350.12 374.316 389.424 C 395.83 416 393.644 430.279 402.022 439.853 C 410.399 449.428 430.896 464.595 438.077 466.39 C 445.258 468.186 441.668 472.973 435.683 474.17 C 429.699 475.367 425.157 489.13 406.007 489.13 C 386.858 489.13 344.491 488.309 341.275 483.37 C 332.678 470.17 334.069 454.131 333.421 425.729 C 333.183 415.323 332.989 404.727 333.447 395.416 Z " fill="rgb(130,36,36)"/>
					</clipPath>
					<g clip-path="url(#_clipPath_98xkaKXFvGlBqzHmdVy9w9bvMU0u91zm)">
						<ellipse vector-effect="non-scaling-stroke" cx="410.7549957675667" cy="468.5951454579851" rx="7.18090914616198" ry="7.779318241675469" fill="rgb(170,170,82)"/>
					</g>
				</g>
			</g>
			<g>
				<g>
					<path d=" M 336.775 263.249 C 338.292 269.24 357.553 264.121 361.549 262.185 C 365.545 260.25 367.88 252.615 374.172 244.529 C 378.813 238.564 385.383 233.463 386.78 226.964 C 388.176 220.466 384.571 191.169 377.685 190.946 Q 363.88 190.754 356.964 197.527 Q 350.047 204.3 350.16 209.482 Q 335.257 257.258 336.775 263.249 Z " fill="rgb(248,209,187)"/>
					<clipPath id="_clipPath_nLJ9RGFGj6iMR6ceOKccxnjXtr6fLWtv">
						<path d=" M 336.775 263.249 C 338.292 269.24 357.553 264.121 361.549 262.185 C 365.545 260.25 367.88 252.615 374.172 244.529 C 378.813 238.564 385.383 233.463 386.78 226.964 C 388.176 220.466 384.571 191.169 377.685 190.946 Q 363.88 190.754 356.964 197.527 Q 350.047 204.3 350.16 209.482 Q 335.257 257.258 336.775 263.249 Z " fill="rgb(248,209,187)"/>
					</clipPath>
					<g clip-path="url(#_clipPath_nLJ9RGFGj6iMR6ceOKccxnjXtr6fLWtv)">
						<path d=" M 370.125 238.97 Q 382.585 223.424 382.754 221.273 C 382.923 219.122 382.472 217.082 381.653 215.113 C 380.239 211.713 377.728 208.527 375.417 205.354 Q 373.107 202.18 359.941 206.581 L 357.965 222.428 L 370.125 238.97 Z " fill="rgb(218,172,163)"/>
						<path d=" M 357.23 227.098 Q 362.527 234.483 360.52 237.458 C 358.514 240.434 348.524 250.164 348.301 252.552 C 348.079 254.94 367.822 242.853 370.125 238.97 C 372.428 235.088 374.903 224.251 373.178 219.577 Q 371.453 214.903 364.568 211.75 L 359.765 210.994 L 357.23 227.098 Z " fill="rgb(237,186,169)"/>
					</g>
					<path d=" M 359.363 256.698 C 358.803 265.638 356.59 272.786 354.425 272.651 C 353.222 272.575 352.285 270.268 351.786 266.698" fill="none" stroke-width="4" stroke="rgb(66,63,61)" stroke-linejoin="round" stroke-linecap="round" stroke-miterlimit="3"/>
					<path d=" M 342.479 259.088 C 342.904 256.384 345.402 254.527 348.052 254.945 C 350.703 255.362 352.509 257.896 352.083 260.6 C 351.658 263.304 349.16 265.16 346.51 264.743 C 343.859 264.326 342.053 261.792 342.479 259.088 Z " fill="rgb(66,63,61)"/>
				</g>
				<g>
					<path d=" M 177.228 265.521 C 175.148 271.341 156.46 264.416 152.666 262.109 C 148.872 259.803 147.273 251.981 141.778 243.334 C 137.724 236.955 131.668 231.253 130.895 224.651 C 130.122 218.05 136.493 189.228 143.369 189.66 Q 157.13 190.78 163.372 198.179 Q 169.613 205.578 169.009 210.726 Q 179.308 259.701 177.228 265.521 Z " fill="rgb(248,209,187)"/>
					<clipPath id="_clipPath_sztCn13pFRMyOBJwLQTBkQ9WC2YwUose">
						<path d=" M 177.228 265.521 C 175.148 271.341 156.46 264.416 152.666 262.109 C 148.872 259.803 147.273 251.981 141.778 243.334 C 137.724 236.955 131.668 231.253 130.895 224.651 C 130.122 218.05 136.493 189.228 143.369 189.66 Q 157.13 190.78 163.372 198.179 Q 169.613 205.578 169.009 210.726 Q 179.308 259.701 177.228 265.521 Z " fill="rgb(248,209,187)"/>
					</clipPath>
					<g clip-path="url(#_clipPath_sztCn13pFRMyOBJwLQTBkQ9WC2YwUose)">
						<path d=" M 146.334 238.185 Q 135.407 221.525 135.443 219.368 C 135.478 217.211 136.121 215.222 137.124 213.34 C 138.854 210.091 141.657 207.157 144.258 204.217 Q 146.859 201.278 159.304 204.217 L 160.01 222.872 L 146.334 238.185 Z " fill="rgb(218,172,163)"/>
						<path d=" M 160.298 227.59 Q 154.324 234.44 156.039 237.592 C 157.753 240.744 166.775 251.38 166.769 253.778 C 166.763 256.176 148.258 242.268 146.334 238.185 C 144.41 234.102 142.975 223.078 145.136 218.589 Q 147.297 214.1 154.451 211.615 L 159.304 211.319 L 160.298 227.59 Z " fill="rgb(237,186,169)"/>
					</g>
					<path d=" M 142.591 243.604 C 137.299 250.832 135.496 258.525 138.565 260.771 C 140.27 262.019 143.123 261.326 146.229 259.223" fill="none" stroke-width="4" stroke="rgb(59,57,55)" stroke-linejoin="round" stroke-linecap="round" stroke-miterlimit="3"/>
					<path d=" M 153.103 249.153 C 152.801 249.535 152.502 249.926 152.208 250.328 C 146.918 257.555 145.113 265.249 148.182 267.495 C 150.228 268.993 153.927 267.695 157.733 264.521" fill="none" stroke-width="4" stroke="rgb(66,63,61)" stroke-linejoin="round" stroke-linecap="round" stroke-miterlimit="3"/>
				</g>
			</g>
			<path d=" M 158.089 154.004 C 148.037 189.49 165.202 285.426 179.789 303.38 C 194.376 321.334 231.978 351.093 242.312 354.739 C 252.646 358.384 260.164 354.404 267.02 352.732 C 273.876 351.059 310.845 327.867 326.343 305.824 C 341.841 283.78 340.236 279.257 345.908 264.058 C 351.58 248.86 380.621 175.057 361.709 128.855 C 342.798 82.653 318.809 63.841 276.736 60.188 C 234.663 56.536 212.005 72.65 189.569 94.053 C 167.133 115.456 168.142 118.519 158.089 154.004 Z " fill="rgb(248,221,198)"/>
			<clipPath id="_clipPath_GfHGE5rPamZOn1mdOv4gmrt5SbajtGwC">
				<path d=" M 158.089 154.004 C 148.037 189.49 165.202 285.426 179.789 303.38 C 194.376 321.334 231.978 351.093 242.312 354.739 C 252.646 358.384 260.164 354.404 267.02 352.732 C 273.876 351.059 310.845 327.867 326.343 305.824 C 341.841 283.78 340.236 279.257 345.908 264.058 C 351.58 248.86 380.621 175.057 361.709 128.855 C 342.798 82.653 318.809 63.841 276.736 60.188 C 234.663 56.536 212.005 72.65 189.569 94.053 C 167.133 115.456 168.142 118.519 158.089 154.004 Z " fill="rgb(248,221,198)"/>
			</clipPath>
			<g clip-path="url(#_clipPath_GfHGE5rPamZOn1mdOv4gmrt5SbajtGwC)">
				<path class="cheeks" d=" M 154.906 276.664 C 156.697 261.34 172.251 250.547 189.618 252.577 C 206.986 254.607 219.632 268.695 217.841 284.019 C 216.05 299.343 200.496 310.136 183.129 308.107 C 165.761 306.077 153.115 291.988 154.906 276.664 Z " fill="rgb(244,185,176)" fill-opacity="0.5"/>
				<path class="cheeks" d=" M 297.849 287.531 C 294.061 272.576 304.747 256.948 321.698 252.655 C 338.648 248.361 355.485 257.018 359.273 271.974 C 363.061 286.93 352.375 302.558 335.425 306.851 C 318.474 311.144 301.637 302.487 297.849 287.531 Z " fill="rgb(244,185,176)" fill-opacity="0.5"/>
				<path class="cheeks" d=" M 327.92 246.06 C 328.076 244.728 329.284 243.772 330.617 243.928 C 331.949 244.084 332.905 245.292 332.749 246.624 C 332.593 247.957 331.385 248.912 330.052 248.757 C 328.72 248.601 327.764 247.393 327.92 246.06 Z " fill="rgb(237,186,169)"/>
				<path class="dot" d=" M 239.625 289.582 C 239.781 288.25 240.989 287.294 242.321 287.45 C 243.654 287.606 244.609 288.814 244.453 290.147 C 244.298 291.479 243.089 292.434 241.757 292.279 C 240.424 292.123 239.469 290.915 239.625 289.582 Z " fill="rgb(237,186,169)"/>
			</g>
			<g>
				<path d=" M 257.838 225.55 Q 255.366 225.538 252.921 229.55 Q 244.961 269.927 245.556 273.332 Q 246.15 276.737 257.838 284.724 Q 269.494 276.175 270.003 273.332 Q 270.511 270.49 262.756 229.55 Q 260.311 225.562 257.838 225.55 Z " fill="rgb(248,209,187)"/>
				<path d=" M 262.756 276.929 C 264.296 279.551 267.519 280.521 269.947 279.095 C 272.376 277.668 273.097 274.381 271.557 271.759 C 270.701 270.302 269.326 269.355 267.857 269.046" fill="none" stroke-width="0.5" stroke="rgb(185,185,185)" stroke-linejoin="round" stroke-linecap="round" stroke-miterlimit="3"/>
			</g>
			<path class="mouth" d=" M 256 296.231 Q 247.412 296.231 232 300.231 Q 242.886 307.856 256 308.061 Q 269.114 308.266 280 300.231 Q 264.588 296.231 256 296.231 Z " fill="rgb(244,206,186)"/>
			<clipPath class="mouth" id="_clipPath_JX8fiKH0Xb474edhzH4QCrP3N8s60Aq5">
				<path class="mouth" d=" M 256 296.231 Q 247.412 296.231 232 300.231 Q 242.886 307.856 256 308.061 Q 269.114 308.266 280 300.231 Q 264.588 296.231 256 296.231 Z " fill="rgb(244,206,186)"/>
			</clipPath>
			<g class="mouth" clip-path="url(#_clipPath_JX8fiKH0Xb474edhzH4QCrP3N8s60Aq5)">
				<rect class="mouth" x="229.261" y="300" width="53.477" height="9.723" transform="matrix(1,0,0,1,0,0)" fill="rgb(243,197,173)"/>
			</g>
			<g>
				<path d=" M 228.158 215.173 Q 235.352 225.531 234.864 239.037 C 230.364 242.088 223.278 244.424 220.694 245 C 218.11 245.576 209.109 246.401 196.086 242.012 Q 188.902 239.592 180.8 233.433 Q 183.759 220.289 189.007 213.3 C 195.945 204.061 204.699 202.077 207.653 202.118 C 210.607 202.16 223.448 205.417 228.158 215.173 Z " fill="rgb(248,221,198)" fill-opacity="0.75" style="mix-blend-mode:screen;"/>
				<clipPath id="_clipPath_1qZvNmwzPkV6QzG7yH1eDu6EdYNrxpwl">
					<path class="eyelid" d=" M 228.158 215.173 Q 235.352 225.531 234.864 239.037 C 230.364 242.088 223.278 244.424 220.694 245 C 218.11 245.576 209.109 246.401 196.086 242.012 Q 188.902 239.592 180.8 233.433 Q 183.759 220.289 189.007 213.3 C 195.945 204.061 204.699 202.077 207.653 202.118 C 210.607 202.16 223.448 205.417 228.158 215.173 Z " fill="rgb(248,221,198)" fill-opacity="0.75" style="mix-blend-mode:screen;"/>
				</clipPath>
				<g clip-path="url(#_clipPath_1qZvNmwzPkV6QzG7yH1eDu6EdYNrxpwl)">
					<g class="pupil">
						<path d=" M 190.57 224.205 C 190.529 212.159 198.64 202.351 208.673 202.317 C 218.706 202.282 226.884 212.034 226.926 224.08 C 226.967 236.126 218.856 245.934 208.823 245.969 C 198.79 246.003 190.612 236.251 190.57 224.205 Z " fill="rgb(85,102,102)"/>
						<clipPath id="_clipPath_0hos5BazCAMoZGy4nniACZvRfRmiAKAL">
							<path d=" M 190.57 224.205 C 190.529 212.159 198.64 202.351 208.673 202.317 C 218.706 202.282 226.884 212.034 226.926 224.08 C 226.967 236.126 218.856 245.934 208.823 245.969 C 198.79 246.003 190.612 236.251 190.57 224.205 Z " fill="rgb(85,102,102)"/>
						</clipPath>
						<g clip-path="url(#_clipPath_0hos5BazCAMoZGy4nniACZvRfRmiAKAL)">
							<rect x="187.828" y="223.191" width="50.339" height="25.379" transform="matrix(1,-0.003,0.003,1,-0.81,0.734)" fill="rgb(88,162,162)"/>
						</g>
						<path d=" M 199.236 224.175 C 199.214 217.872 203.459 212.739 208.709 212.721 C 213.959 212.703 218.238 217.806 218.26 224.11 C 218.282 230.413 214.037 235.546 208.787 235.564 C 203.537 235.582 199.258 230.479 199.236 224.175 Z " fill="transparent" r="NaN" stroke-width="3" stroke="rgb(255,255,255)" stroke-opacity="0.75" stroke-linejoin="miter" stroke-linecap="square" stroke-miterlimit="3"/>
						<path d=" M 199.236 224.175 C 199.214 217.872 203.459 212.739 208.709 212.721 C 213.959 212.703 218.238 217.806 218.26 224.11 C 218.282 230.413 214.037 235.546 208.787 235.564 C 203.537 235.582 199.258 230.479 199.236 224.175 Z " fill="rgb(66,63,61)"/>
					</g>
				</g>
				<path d=" M 292.256 214.263 Q 284.739 224.389 284.8 237.905 C 289.203 241.096 296.211 243.654 298.776 244.312 C 301.34 244.969 310.311 246.077 323.466 242.101 Q 330.722 239.908 339.014 234.008 Q 336.471 220.777 331.446 213.626 C 324.803 204.173 316.116 201.913 313.162 201.862 C 310.208 201.81 297.271 204.661 292.256 214.263 Z " fill="rgb(248,221,198)" fill-opacity="0.75" style="mix-blend-mode:screen;"/>
				<clipPath id="_clipPath_apV8bugBOf8k706v5ABbBNUo1DDER0Cx">
					<path class="eyelid" d=" M 292.256 214.263 Q 284.739 224.389 284.8 237.905 C 289.203 241.096 296.211 243.654 298.776 244.312 C 301.34 244.969 310.311 246.077 323.466 242.101 Q 330.722 239.908 339.014 234.008 Q 336.471 220.777 331.446 213.626 C 324.803 204.173 316.116 201.913 313.162 201.862 C 310.208 201.81 297.271 204.661 292.256 214.263 Z " fill="rgb(248,221,198)" fill-opacity="0.75" style="mix-blend-mode:screen;"/>
				</clipPath>
				<g clip-path="url(#_clipPath_apV8bugBOf8k706v5ABbBNUo1DDER0Cx)">
					<g class="pupil">
						<path d=" M 329.551 223.858 C 329.562 211.811 321.426 202.024 311.394 202.015 C 301.361 202.005 293.207 211.778 293.195 223.824 C 293.184 235.87 301.32 245.657 311.353 245.667 C 321.385 245.676 329.54 235.904 329.551 223.858 Z " fill="rgb(85,102,102)"/>
						<clipPath id="_clipPath_YFzsVwqUqkhAWNlZn914Yb7zaZEosGuq">
							<path d=" M 329.551 223.858 C 329.562 211.811 321.426 202.024 311.394 202.015 C 301.361 202.005 293.207 211.778 293.195 223.824 C 293.184 235.87 301.32 245.657 311.353 245.667 C 321.385 245.676 329.54 235.904 329.551 223.858 Z " fill="rgb(85,102,102)"/>
						</clipPath>
						<g clip-path="url(#_clipPath_YFzsVwqUqkhAWNlZn914Yb7zaZEosGuq)">
							<rect x="281.984" y="222.9" width="50.339" height="25.379" transform="matrix(1,0.001,-0.001,1,0.22,-0.287)" fill="rgb(88,162,162)"/>
						</g>
						<path d=" M 320.885 223.85 C 320.891 217.546 316.634 212.424 311.384 212.419 C 306.134 212.415 301.867 217.528 301.861 223.832 C 301.855 230.135 306.113 235.257 311.363 235.262 C 316.612 235.267 320.879 230.153 320.885 223.85 Z " fill="transparent" r="NaN" stroke-width="3" stroke="rgb(255,255,255)" stroke-opacity="0.75" stroke-linejoin="miter" stroke-linecap="square" stroke-miterlimit="3"/>
						<path d=" M 320.885 223.85 C 320.891 217.546 316.634 212.424 311.384 212.419 C 306.134 212.415 301.867 217.528 301.861 223.832 C 301.855 230.135 306.113 235.257 311.363 235.262 C 316.612 235.267 320.879 230.153 320.885 223.85 Z " fill="rgb(66,63,61)"/>
					</g>
				</g>
			</g>
			<g class="eyebrow">
				<path d=" M 310.614 188.732 L 278.946 187.478 Q 297.908 176.287 309.611 176.378 Q 321.313 176.469 342.283 189.986 L 310.614 188.732 Z " fill="rgb(136,97,97)"/>
				<path d=" M 206.892 188.785 L 238.524 186.803 Q 219.309 176.052 207.611 176.412 Q 195.914 176.772 175.261 190.767 L 206.892 188.785 Z " fill="rgb(136,97,97)"/>
			</g>
			<g>
				<g>
					<path d=" M 196.464 385.113 Q 212.849 426.836 249.361 426.21 Q 285.872 425.584 310.151 379.429" fill="none" vector-effect="non-scaling-stroke" stroke-width="5" stroke="rgb(94,49,49)" stroke-linejoin="round" stroke-linecap="round" stroke-miterlimit="3"/>
					<path d=" M 195.754 385.587 Q 212.676 432.673 249.187 432.047 Q 285.699 431.421 309.677 379.665" fill="none" vector-effect="non-scaling-stroke" stroke-width="5" stroke="rgb(94,49,49)" stroke-linejoin="miter" stroke-linecap="round" stroke-miterlimit="3"/>
					<path d=" M 191.179 388.558 Q 205.511 424.337 217.773 433.824 C 230.036 443.312 253.038 455.97 254.51 463.996 Q 255.982 472.023 257.349 543.853" fill="none" vector-effect="non-scaling-stroke" stroke-width="5" stroke="rgb(94,49,49)" stroke-linejoin="round" stroke-linecap="round" stroke-miterlimit="3"/>
					<path d=" M 314.938 381.885 Q 293.705 426.957 280.901 435.7 C 268.097 444.443 249.552 458.147 247.606 466.072 Q 245.66 473.997 242.952 545.292" fill="none" vector-effect="non-scaling-stroke" stroke-width="5" stroke="rgb(94,49,49)" stroke-linejoin="round" stroke-linecap="round" stroke-miterlimit="3"/>
					<path d=" M 248.362 459.822 Q 241.61 456.77 242.044 461.345 Q 242.479 465.919 247.606 466.072 Q 240.098 469.27 245.141 472.271 Q 250.183 475.272 252.13 467.347 Q 255.311 475.424 258.864 470.968 Q 262.418 466.512 256.185 465.186 Q 264.161 465.423 262.001 461.368 Q 259.84 457.312 255.198 460.025 Q 258.786 454.43 252.519 454.244 Q 246.252 454.057 248.362 459.822 Z " fill="rgb(162,162,106)"/>
				</g>
				<g>
					<path d=" M 128.103 220.164 Q 110.176 228.847 102.852 241.298 C 95.528 253.748 102.12 268.396 94.796 283.776 C 87.472 299.156 78.683 310.142 83.078 314.536 C 87.472 318.93 103.584 302.086 116.035 300.621 Q 128.485 299.156 148.992 302.818 L 156.316 237.636 L 128.103 220.164 Z " fill="rgb(179,105,147)"/>
					<path d=" M 376.764 201.017 Q 392.876 206.876 401.665 217.861 C 410.453 228.847 409.721 244.227 414.115 253.016 C 418.509 261.804 432.425 277.184 429.495 280.846 C 426.566 284.508 414.848 278.649 403.862 278.649 C 392.876 278.649 383.355 285.973 374.566 280.114 Q 365.778 274.255 356.257 230.312 L 376.764 201.017 Z " fill="rgb(179,105,147)"/>
				</g>
				<g>
					<g>
						<path d=" M 138.739 474.928 Q 126.288 453.689 130.683 428.788 C 135.077 403.887 148.26 410.478 145.33 373.127 C 142.401 335.775 129.95 333.578 136.542 307.945 Q 143.133 282.311 149.725 274.255 L 162.908 283.776 Q 178.288 342.367 173.161 362.141 C 168.034 381.915 184.879 385.577 178.288 409.746 Q 171.696 433.915 143.866 482.984 L 138.739 474.928 Z " fill="rgb(98,67,66)"/>
						<path d=" M 133.612 522.533 Q 113.105 551.096 113.838 559.885 C 114.57 568.673 154.851 594.307 165.837 560.617 C 176.823 526.927 192.203 510.815 191.47 495.435 C 190.738 480.055 187.076 439.774 181.217 435.379 Q 175.358 430.985 133.612 522.533 Z " fill="rgb(107,72,72)"/>
						<path d=" M 165.105 373.859 Q 172.429 429.52 155.584 450.027 C 138.739 470.534 117.5 492.505 118.232 510.083 Q 118.964 527.66 127.753 547.434 Q 148.26 520.336 157.781 510.083 C 167.302 499.829 146.063 506.421 169.499 474.196 C 192.935 441.971 194.4 421.464 194.4 397.295 Q 194.4 373.127 185.611 334.31 L 170.231 292.565 L 153.387 299.156 L 165.105 373.859 Z " fill="rgb(121,86,86)"/>
					</g>
					<g>
						<path d=" M 348.201 481.661 Q 335.75 460.422 340.144 435.52 C 344.539 410.619 349.263 412.018 346.333 374.667 C 343.404 337.315 329.075 336.967 335.667 311.333 Q 342.258 285.7 353.667 266.667 L 372.369 290.508 Q 387.749 349.099 382.623 368.874 C 377.496 388.648 394.341 392.31 387.749 416.479 Q 381.158 440.647 353.327 489.717 L 348.201 481.661 Z " fill="rgb(98,67,66)"/>
						<path d=" M 343.074 529.266 Q 322.567 557.829 323.3 566.617 C 324.032 575.406 364.313 601.039 375.299 567.35 C 386.285 533.66 401.665 517.547 400.932 502.167 C 400.2 486.787 396.538 446.506 390.679 442.112 Q 384.82 437.718 343.074 529.266 Z " fill="rgb(106,72,73)"/>
						<path d=" M 374.566 380.592 Q 381.89 436.253 365.045 456.76 C 348.201 477.266 326.961 499.238 327.694 516.815 Q 328.426 534.392 337.215 554.167 Q 357.722 527.068 367.243 516.815 C 376.764 506.562 355.524 513.153 378.961 480.928 C 402.397 448.703 403.862 428.197 403.862 404.028 Q 403.862 379.859 395.073 341.043 L 373.693 277.297 L 356.848 283.889 L 374.566 380.592 Z " fill="rgb(121,86,86)"/>
					</g>
					<path d=" M 137.128 231.554 Q 131.76 230.42 129 229.333 C 126.24 228.247 114.57 209.073 120.429 161.468 C 126.288 113.863 140.081 100.55 161.236 84.327 C 186.941 64.614 201.771 58.512 236.193 57.779 C 259.658 57.28 291.878 55.864 319.227 69.818 C 331.999 76.334 343.911 86.435 353.004 101.123 C 381.567 147.263 386.78 175.539 386.78 190.919 C 386.78 197.465 386.124 205.679 379.778 212.338 Q 374.388 217.992 363.667 222.667 L 297.666 101.412 L 191.47 100.68 L 153.387 190.763 L 137.128 231.554 Z " fill="rgb(117,79,79)"/>
					<path d=" M 158.513 169.58 L 159.978 233.298 Q 166.933 221.969 170.964 212.059 C 187.757 170.766 202.018 135.066 205.386 132.961 C 208.753 130.857 238.02 137.001 248.596 136.623 C 258.992 136.252 272.483 130.64 294.737 124.905 Q 311.677 134.797 340.144 202.538 L 335.018 124.905 L 300.596 82.427 L 258.85 85.356 L 190.738 93.412 L 158.513 169.58 Z " fill="rgb(98,66,67)"/>
					<path d=" M 237.611 70.835 Q 241.568 133.088 246.695 133.088 C 251.822 133.088 258.85 85.483 277.892 90.609 C 296.934 95.736 312.835 130.158 309.905 155.059 C 306.976 179.96 302.581 188.749 309.173 188.749 C 315.764 188.749 317.961 150.665 322.356 155.059 C 326.75 159.454 316.801 256.355 319.426 259.79 C 322.052 263.225 332.609 228.298 339.201 234.157 C 345.792 240.016 332.609 280.297 322.356 294.212 C 312.102 308.127 303.314 322.043 299.652 328.634 C 297.511 332.488 316.077 320.213 331.144 302.268 C 341.845 289.524 349.826 269.255 351.651 270.776 Q 328.215 326.437 329.68 349.873 C 331.144 373.31 347.989 390.887 354.581 390.887 C 361.172 390.887 348.722 368.183 349.454 357.197 C 350.186 346.211 379.482 291.283 375.82 232.692 C 372.158 174.101 362.637 125.032 346.524 100.863 C 330.412 76.694 337.215 70.103 318.173 56.187 C 299.131 42.272 271.287 26.863 258.836 39.314 Q 246.386 51.764 237.611 70.835 Z " fill="rgb(136,97,97)"/>
					<path d=" M 239.075 134.623 C 234.681 134.623 236.502 102.535 212.333 104 C 188.165 105.465 195.414 130.229 194.682 144.876 C 193.95 159.524 196.147 198.34 199.809 207.861 C 203.47 217.382 194.682 214.453 188.823 202.002 C 182.964 189.552 181.499 162.454 180.767 174.904 C 180.297 182.884 181.499 199.311 181.499 215.918 C 181.499 225.221 183.15 238.113 187.358 245.213 C 199.076 264.987 221.691 295.139 207.132 286.226 C 200.574 282.211 193.695 277.262 187.096 272.705 C 180.497 268.147 173.795 257.024 172.71 257.663 C 167.069 260.993 185.755 286.577 190.288 294.283 C 199.523 309.986 218.118 327.24 210.794 327.972 C 203.47 328.705 174.189 306.179 170.527 300.32 C 166.865 294.461 183.696 338.226 194.682 350.676 C 205.668 363.127 231.301 388.028 218.118 382.169 C 204.935 376.31 177.837 358 173.443 344.085 C 169.048 330.169 144.986 302.975 136.824 263.523 C 128.035 221.044 122.756 185.276 140.333 141.333 C 157.911 97.39 156.46 66.138 184.29 50.026 C 212.121 33.913 231.752 67.976 233.949 73.835 C 236.146 79.694 243.47 134.623 239.075 134.623 Z " fill="rgb(137,96,97)"/>
				</g>
			</g>
		</g>
		<g class="dialog-5">
			<path d=" M 543.54 442.992 Q 540.599 443.14 541.063 440.62 Q 543.711 436.979 544.778 433.505 C 545.844 430.03 545.91 377.421 546.635 363.537 Q 546.635 355.631 554.064 355.235 L 903.571 355.235 Q 910.69 356.026 911 363.537 Q 911 377.421 911 433.505 Q 909.452 441.806 903.571 442.992 C 816.881 442.992 678.687 442.992 543.54 442.992 Z " fill="rgb(57,56,56)"/>
			<g clip-path="url(#_clipPath_cd6GMJ8GaVQpHZEklPJY27QnsFp6XqOK)">
				<text transform="matrix(1,0,0,1,565,381.172)" style="font-family:monospace;font-weight:400;font-size:16px;font-style:normal;fill:#e8e8e8;stroke:none;">If you want to know more about me </text>
				<text transform="matrix(1,0,0,1,565,404.61)" style="font-family:monospace;font-weight:400;font-size:16px;font-style:normal;fill:#e8e8e8;stroke:none;">you can reach me out on </text>
				<text transform="matrix(1,0,0,1,565,428.047)" style="font-family:monospace;font-weight:400;font-size:16px;font-style:normal;fill:#e8e8e8;stroke:none;">🔗 rightonhana.dev</text>
			</g>
			<defs>
				<clipPath id="_clipPath_cd6GMJ8GaVQpHZEklPJY27QnsFp6XqOK">
					<rect x="0" y="0" width="338.571" height="73" transform="matrix(1,0,0,1,565,362.618)"/>
				</clipPath>
			</defs>
		</g>
		<g class="dialog-4">
			<path d=" M 543.142 442.993 Q 540.662 443.118 541.053 440.993 Q 543.286 437.923 544.186 434.993 C 545.085 432.063 545.141 416.701 545.752 404.993 Q 545.752 398.326 552.016 397.993 L 823.736 397.993 Q 829.739 398.66 830 404.993 Q 830 416.701 830 434.993 Q 828.695 441.993 823.736 442.993 C 750.635 442.993 657.103 442.993 543.142 442.993 Z " fill="rgb(57,56,56)"/>
			<g clip-path="url(#_clipPath_Ms0lecwxuJ44rVCTRwPcoZdoHehpvDLq)">
				<text transform="matrix(1,0,0,1,559.408,426.799)" style="font-family:monospace;font-weight:400;font-size:16px;font-style:normal;fill:#e8e8e8;stroke:none;">My pronouns are She/Her 👩‍💻</text>
			</g>
			<defs>
				<clipPath id="_clipPath_Ms0lecwxuJ44rVCTRwPcoZdoHehpvDLq">
					<rect x="0" y="0" width="258.183" height="24.503" transform="matrix(1,0,0,1,559.408,408.245)"/>
				</clipPath>
			</defs>
		</g>
		<g class="dialog-3">
			<path d=" M 543.54 442.992 Q 540.599 443.14 541.063 440.62 Q 543.711 436.979 544.778 433.505 C 545.844 430.03 545.91 377.421 546.635 363.537 Q 546.635 355.631 554.064 355.235 L 903.571 355.235 Q 910.69 356.026 911 363.537 Q 911 377.421 911 433.505 Q 909.452 441.806 903.571 442.992 C 816.881 442.992 678.687 442.992 543.54 442.992 Z " fill="rgb(57,56,56)"/>
			<g clip-path="url(#_clipPath_cd6GMJ8GaVQpHZEklPJY27QnsFp6XqOK)">
				<text transform="matrix(1,0,0,1,565,381.172)" style="font-family:monospace;font-weight:400;font-size:16px;font-style:normal;fill:#e8e8e8;stroke:none;">I'm a Front-end Developer with </text>
				<text transform="matrix(1,0,0,1,565,404.61)" style="font-family:monospace;font-weight:400;font-size:16px;font-style:normal;fill:#e8e8e8;stroke:none;">experience in Angular, React and </text>
				<text transform="matrix(1,0,0,1,565,428.047)" style="font-family:monospace;font-weight:400;font-size:16px;font-style:normal;fill:#e8e8e8;stroke:none;">Svelte.</text>
			</g>
			<defs>
				<clipPath id="_clipPath_cd6GMJ8GaVQpHZEklPJY27QnsFp6XqOK">
					<rect x="0" y="0" width="338.571" height="73" transform="matrix(1,0,0,1,565,362.618)"/>
				</clipPath>
			</defs>
		</g>
		<g class="dialog-2">
			<path d=" M 543.742 442.16 Q 540.567 442.285 541.068 440.155 Q 543.927 437.077 545.078 434.139 C 546.23 431.202 546.301 394.748 547.084 383.011 Q 547.084 376.327 555.104 375.993 L 902.98 375.993 Q 910.666 376.661 911 383.011 Q 911 394.748 911 434.139 Q 909.329 441.157 902.98 442.16 C 809.39 442.16 689.644 442.16 543.742 442.16 Z " fill="rgb(57,56,56)"/>
			<g clip-path="url(#_clipPath_ESlM0h8RX5VXCFQgA5t80sqGiBmZNFpN)">
				<text transform="matrix(1,0,0,1,561.068,404.114)" style="font-family:monospace;font-weight:400;font-size:16px;font-style:normal;fill:#e8e8e8;stroke:none;">I'm from Argentina 🇦🇷 but currently </text>
				<text transform="matrix(1,0,0,1,561.068,427.551)" style="font-family:monospace;font-weight:400;font-size:16px;font-style:normal;fill:#e8e8e8;stroke:none;">I'm living in the United States 🇺🇸</text>
			</g>
			<defs>
				<clipPath id="_clipPath_ESlM0h8RX5VXCFQgA5t80sqGiBmZNFpN">
					<rect x="0" y="0" width="341" height="46.875" transform="matrix(1,0,0,1,561.068,385.559)"/>
				</clipPath>
			</defs>
		</g>
		<g class="dialog-1">
			<path d=" M 543.297 442.993 Q 540.637 443.118 541.057 440.993 Q 543.452 437.923 544.417 434.993 C 545.382 432.063 545.441 416.701 546.097 404.993 Q 546.097 398.326 552.817 397.993 L 896.28 397.993 Q 902.72 398.66 903 404.993 Q 903 416.701 903 434.993 Q 901.6 441.993 896.28 442.993 C 817.868 442.993 665.54 442.993 543.297 442.993 Z " fill="rgb(57,56,56)"/>
			<g clip-path="url(#_clipPath_3D2gxkuakMBlARHwnRYqTgx1WEIpF5CZ)">
				<text transform="matrix(1,0,0,1,559,427.048)" style="font-family:monospace;font-weight:400;font-size:16px;font-style:normal;fill:#e8e8e8;stroke:none;">Hi there 👋 I'm Florencia Gonzalez</text>
			</g>
			<defs>
				<clipPath id="_clipPath_3D2gxkuakMBlARHwnRYqTgx1WEIpF5CZ">
					<rect x="0" y="0" width="350" height="24.007" transform="matrix(1,0,0,1,559,408.493)"/>
				</clipPath>
			</defs>
		</g>
	</g>
</svg>