<svg class="avatar"
	xmlns="http://www.w3.org/2000/svg"
	xmlns:xlink="http://www.w3.org/1999/xlink" style="isolation: isolate" viewBox="0 0 1024 512" width="1024pt" height="512pt">
	<style>
		.dialog-1 {
			opacity: 0;
			animation: greet 7s both;
		}

		.dialog-2 {
			opacity: 0;
			animation: from 7s both;
		}

		.dialog-3 {
			opacity: 0;
			animation: profession 7s both;
		}

		.dialog-4 {
			opacity: 0;
			animation: pronouns 7s both;
		}

		.dialog-5 {
			opacity: 0;
			animation: contact 7s both;
		}

		.eyelid {
			animation: eye 3s ease-in-out infinite;
			transform-origin: center;
		}

		.pupil {
			animation: pupil 15s ease-out infinite;
			transform-origin: center;
		}

		.eyebrow {
			animation: eyebrow 3s ease-in-out infinite;
			transform-origin: center;
		}

		.open-mouth {
			opacity: 0;
			animation: 0.3s step-start 0s 22 talk;
		}

		.materia-1 {
			animation: materia1 2.5s ease-in-out infinite;
		}

		.materia-2 {
			animation: materia2 3.5s ease-in-out infinite;
		}

		.materia-3 {
			animation: materia1 3s ease-in-out infinite;
		}

		.materia-4 {
			animation: materia2 4s ease-in-out infinite;
		}

		.materia-5 {
			animation: materia1 3s ease-in-out infinite;
		}

		@keyframes greet {
			0% {
				opacity: 0;
				transform: translate(0, 0);
			}
			20% {
				opacity: 1;
				transform: translate(0, 0);
			}
			40% {
				opacity: 1;
				transform: translate(0, -78px);
			}
			60% {
				opacity: 1;
				transform: translate(0, -180px);
			}
			80% {
				opacity: 1;
				transform: translate(0, -234px);
			}
			100% {
				opacity: 1;
				transform: translate(0, -333px);
			}
		}

		@keyframes from {
			0%,
			20% {
				opacity: 0;
				transform: translate(0, 0);
			}
			40% {
				opacity: 1;
				transform: translate(0, 0);
			}
			60% {
				opacity: 1;
				transform: translate(0, -100px);
			}
			80% {
				opacity: 1;
				transform: translate(0, -155px);
			}
			100% {
				opacity: 1;
				transform: translate(0, -252px);
			}
		}

		@keyframes profession {
			0%,
			40% {
				opacity: 0;
				transform: translate(0, 0);
			}
			60% {
				opacity: 1;
				transform: translate(0, 0);
			}
			80% {
				opacity: 1;
				transform: translate(0, -56px);
			}
			100% {
				opacity: 1;
				transform: translate(0, -155px);
			}
		}

		@keyframes pronouns {
			0%,
			60% {
				opacity: 0;
				transform: translate(0, 0);
			}
			80% {
				opacity: 1;
				transform: translate(0, 0);
			}
			100% {
				opacity: 1;
				transform: translate(0, -99px);
			}
		}

		@keyframes contact {
			0%,
			80% {
				opacity: 0;
				transform: translate(0, 0);
			}
			100% {
				opacity: 1;
				transform: translate(0, 0);
			}
		}

		@keyframes eye {
			5%,
			20% {
				transform: scale(1, 1);
				stroke-width: 2px;
			}
			10%,
			15% {
				transform: scale(1, 0);
				stroke-width: 20px;
			}
		}

		@keyframes pupil {
			5%,
			20% {
				transform: translate(5px, -1px);
			}
			10%,
			15% {
				transform: translate(-5px, 1px);
			}
			20%,
			100% {
				transform: translate(0, 0);
			}
		}

		@keyframes eyebrow {
			0%,
			9% {
				transform: translate(0, 0);
			}
			10%,
			15% {
				transform: translate(0, 0.5px);
			}
			16%,
			100% {
				transform: translate(0, 0);
			}
		}

		@keyframes talk {
			50% {
				opacity: 1;
			}
		}

		@keyframes materia1 {
			0%,
			100% {
				transform: translateY(10px);
			}
			50% {
				transform: translate(-3px);
			}
		}

		@keyframes materia2 {
			0%,
			100% {
				transform: translateY(-3px);
			}
			50% {
				transform: translate(10px);
			}
		}
	</style>
	<defs>
		<clipPath id="_clipPath_uSaH7GvzYbWeM4qHwkmFMFjBW04XGMZb">
			<rect width="1024" height="512" />
		</clipPath>
	</defs>
	<g clip-path="url(#_clipPath_uSaH7GvzYbWeM4qHwkmFMFjBW04XGMZb)">
		<g>
			<g class="materia-1">
				<path d=" M 446.333 164.011 C 428.116 147.991 426.331 120.195 442.351 101.978 C 458.371 83.76 486.167 81.976 504.384 97.996 C 522.601 114.015 524.386 141.811 508.366 160.029 C 492.346 178.246 464.55 180.03 446.333 164.011 Z " fill="rgb(219,219,13)" fill-opacity="0.75" />
				<path d=" M 467.467 162.475 Q 501.827 167.082 505.527 133.754" fill="none" vector-effect="non-scaling-stroke" stroke-width="5" stroke="rgb(237,237,177)" stroke-opacity="0.9568627450980393" stroke-linejoin="round" stroke-linecap="round" stroke-miterlimit="3" />
				<path d=" M 485.798 142.012 C 478.966 136.005 478.297 125.581 484.305 118.75 C 490.312 111.918 500.735 111.249 507.567 117.257 C 514.398 123.264 515.067 133.688 509.06 140.519 C 503.053 147.351 492.629 148.02 485.798 142.012 Z " fill="rgb(236,237,173)" fill-opacity="0.9882352941176471" />
				<path d=" M 469.598 110.766 C 470.07 107.579 473.04 105.374 476.227 105.846 C 479.415 106.317 481.619 109.288 481.148 112.475 C 480.676 115.662 477.706 117.867 474.518 117.395 C 471.331 116.924 469.126 113.953 469.598 110.766 Z " fill="rgb(239,239,197)" fill-opacity="0.996078431372549" />
				<path d=" M 444.509 122.444 C 447.475 123.702 448.862 127.132 447.603 130.098 C 446.345 133.064 442.915 134.45 439.949 133.192 C 436.983 131.933 435.597 128.503 436.855 125.537 C 438.114 122.571 441.543 121.185 444.509 122.444 Z " fill="rgb(237,237,177)" fill-opacity="0.9568627450980393" />
				<path d=" M 484.964 105.334 C 485.331 102.856 487.64 101.141 490.119 101.508 C 492.597 101.875 494.311 104.185 493.945 106.663 C 493.578 109.141 491.268 110.856 488.79 110.489 C 486.312 110.122 484.597 107.812 484.964 105.334 Z " fill="rgb(237,237,177)" fill-opacity="0.9568627450980393" />
				<path d=" M 445.9 138.682 C 448.206 139.66 449.284 142.327 448.306 144.634 C 447.327 146.94 444.66 148.018 442.354 147.039 C 440.048 146.061 438.97 143.394 439.948 141.088 C 440.927 138.781 443.594 137.703 445.9 138.682 Z " fill="rgb(237,237,177)" fill-opacity="0.9568627450980393" />
			</g>
			<g class="materia-2">
				<path d=" M 87.307 112.712 C 100.947 132.773 95.733 160.134 75.672 173.774 C 55.611 187.414 28.25 182.2 14.61 162.139 C 0.97 142.078 6.183 114.717 26.245 101.077 C 46.306 87.437 73.667 92.651 87.307 112.712 Z " fill="rgb(163,62,221)" fill-opacity="0.82" />
				<path d=" M 66.459 108.922 Q 34.338 95.88 22.432 127.229" fill="none" vector-effect="non-scaling-stroke" stroke-width="5" stroke="rgb(197,140,228)" stroke-opacity="0.9686274509803922" stroke-linejoin="round" stroke-linecap="round" stroke-miterlimit="3" />
				<path d=" M 43.599 124.158 C 48.714 131.681 46.759 141.942 39.236 147.057 C 31.713 152.172 21.452 150.217 16.338 142.694 C 11.223 135.171 13.178 124.91 20.701 119.795 C 28.224 114.681 38.484 116.636 43.599 124.158 Z " fill="rgb(197,139,228)" fill-opacity="0.996078431372549" />
				<path d=" M 51.483 158.46 C 50.23 161.429 46.803 162.822 43.835 161.569 C 40.866 160.317 39.473 156.89 40.726 153.921 C 41.978 150.953 45.405 149.56 48.374 150.812 C 51.342 152.065 52.735 155.492 51.483 158.46 Z " fill="rgb(197,140,228)" fill-opacity="0.9686274509803922" />
				<path d=" M 78.693 153.417 C 76.135 151.458 75.649 147.791 77.608 145.233 C 79.567 142.676 83.235 142.19 85.792 144.149 C 88.35 146.108 88.836 149.775 86.877 152.333 C 84.918 154.891 81.25 155.377 78.693 153.417 Z " fill="rgb(197,140,228)" fill-opacity="0.9686274509803922" />
				<path d=" M 35.247 159.883 C 34.273 162.191 31.609 163.274 29.3 162.3 C 26.992 161.326 25.909 158.662 26.883 156.354 C 27.857 154.045 30.521 152.962 32.83 153.936 C 35.138 154.91 36.221 157.575 35.247 159.883 Z " fill="rgb(197,140,228)" fill-opacity="0.9686274509803922" />
				<path d=" M 81.401 137.346 C 79.412 135.823 79.034 132.971 80.558 130.983 C 82.081 128.994 84.933 128.616 86.922 130.139 C 88.911 131.663 89.288 134.514 87.765 136.503 C 86.241 138.492 83.39 138.87 81.401 137.346 Z " fill="rgb(197,140,228)" fill-opacity="0.9686274509803922" />
			</g>
			<g class="materia-3">
				<path d=" M 43.056 324.329 C 66.194 317.04 90.897 329.907 98.186 353.045 C 105.475 376.183 92.608 400.886 69.47 408.175 C 46.332 415.464 21.629 402.597 14.34 379.459 C 7.05 356.321 19.918 331.618 43.056 324.329 Z " fill="rgb(39,213,91)" fill-opacity="0.82" />
				<path d=" M 33.426 343.204 Q 11.692 370.212 38.287 390.636" fill="none" vector-effect="non-scaling-stroke" stroke-width="5" stroke="rgb(182,238,199)" stroke-linejoin="round" stroke-linecap="round" stroke-miterlimit="3" />
				<path d=" M 41.439 369.482 C 50.116 366.749 59.379 371.574 62.113 380.251 C 64.846 388.927 60.021 398.191 51.344 400.924 C 42.667 403.658 33.404 398.832 30.67 390.156 C 27.937 381.479 32.762 372.215 41.439 369.482 Z " fill="rgb(182,238,199)" />
				<path d=" M 76.558 371.804 C 79.041 373.858 79.388 377.54 77.335 380.023 C 75.281 382.505 71.598 382.853 69.115 380.799 C 66.633 378.745 66.285 375.063 68.339 372.58 C 70.393 370.098 74.076 369.75 76.558 371.804 Z " fill="rgb(182,238,199)" />
				<path d=" M 79.56 344.294 C 76.948 346.179 73.296 345.589 71.41 342.977 C 69.524 340.364 70.114 336.713 72.727 334.827 C 75.339 332.941 78.991 333.531 80.877 336.144 C 82.762 338.756 82.172 342.408 79.56 344.294 Z " fill="rgb(182,238,199)" />
				<path d=" M 73.248 387.762 C 75.178 389.359 75.449 392.223 73.852 394.153 C 72.255 396.083 69.391 396.354 67.461 394.757 C 65.531 393.159 65.26 390.296 66.857 388.366 C 68.454 386.435 71.318 386.165 73.248 387.762 Z " fill="rgb(182,238,199)" />
				<path d=" M 64.948 337.075 C 62.917 338.541 60.077 338.082 58.611 336.051 C 57.145 334.019 57.604 331.18 59.635 329.713 C 61.666 328.247 64.506 328.706 65.972 330.737 C 67.439 332.769 66.98 335.608 64.948 337.075 Z " fill="rgb(182,238,199)" />
			</g>
			<g class="materia-4">
				<path d=" M 522.384 319.433 C 541.554 334.3 545.046 361.934 530.178 381.103 C 515.311 400.272 487.677 403.764 468.508 388.897 C 449.339 374.029 445.847 346.396 460.714 327.227 C 475.582 308.057 503.215 304.565 522.384 319.433 Z " fill="rgb(133,172,230)" fill-opacity="0.91" />
				<path d=" M 501.385 322.267 Q 466.807 319.784 465.166 353.277" fill="none" vector-effect="non-scaling-stroke" stroke-width="5" stroke="rgb(172,199,242)" stroke-linejoin="round" stroke-linecap="round" stroke-miterlimit="3" />
				<path d=" M 484.349 343.819 C 491.537 349.395 492.847 359.757 487.272 366.946 C 481.696 374.134 471.334 375.444 464.145 369.868 C 456.957 364.293 455.647 353.93 461.223 346.742 C 466.798 339.554 477.161 338.244 484.349 343.819 Z " fill="rgb(173,200,243)" fill-opacity="0.9921568627450981" />
				<path d=" M 502.442 374.009 C 502.167 377.219 499.338 379.602 496.128 379.328 C 492.918 379.054 490.534 376.224 490.809 373.014 C 491.083 369.804 493.912 367.421 497.123 367.695 C 500.333 367.97 502.716 370.799 502.442 374.009 Z " fill="rgb(172,199,242)" />
				<path d=" M 526.764 360.809 C 523.726 359.735 522.131 356.397 523.205 353.36 C 524.278 350.322 527.616 348.727 530.654 349.8 C 533.692 350.874 535.286 354.212 534.213 357.249 C 533.14 360.287 529.802 361.882 526.764 360.809 Z " fill="rgb(172,199,242)" />
				<path d=" M 487.44 380.377 C 487.226 382.873 485.026 384.726 482.53 384.513 C 480.034 384.299 478.181 382.099 478.394 379.603 C 478.608 377.107 480.807 375.254 483.304 375.467 C 485.8 375.681 487.653 377.88 487.44 380.377 Z " fill="rgb(172,199,242)" />
				<path d=" M 524.376 344.687 C 522.014 343.852 520.774 341.257 521.609 338.894 C 522.443 336.532 525.039 335.292 527.401 336.127 C 529.763 336.962 531.003 339.557 530.168 341.919 C 529.334 344.281 526.738 345.521 524.376 344.687 Z " fill="rgb(172,199,242)" />
			</g>
			<g class="materia-5">
				<path d=" M 207.365 26.436 C 203.327 2.516 219.47 -20.183 243.39 -24.221 C 267.311 -28.259 290.009 -12.116 294.047 11.804 C 298.085 35.725 281.943 58.423 258.022 62.461 C 234.102 66.499 211.403 50.357 207.365 26.436 Z " fill="rgb(213,39,39)" fill-opacity="0.82" />
				<path d=" M 224.737 38.571 Q 248.499 63.812 272.387 40.278" fill="none" vector-effect="non-scaling-stroke" stroke-width="5" stroke="rgb(224,123,122)" stroke-opacity="0.9686274509803922" stroke-linejoin="round" stroke-linecap="round" stroke-miterlimit="3" />
				<path d=" M 251.867 34.247 C 250.353 25.277 256.406 16.765 265.376 15.251 C 274.346 13.737 282.858 19.79 284.373 28.76 C 285.887 37.731 279.833 46.243 270.863 47.757 C 261.893 49.271 253.381 43.218 251.867 34.247 Z " fill="rgb(227,138,138)" fill-opacity="0.8196078431372549" />
				<path d=" M 258.996 -0.219 C 261.372 -2.395 265.068 -2.233 267.244 0.142 C 269.42 2.518 269.258 6.214 266.883 8.39 C 264.507 10.566 260.811 10.405 258.635 8.029 C 256.459 5.653 256.62 1.957 258.996 -0.219 Z " fill="rgb(224,123,122)" fill-opacity="0.9686274509803922" />
				<path d=" M 232.16 -6.975 C 233.669 -4.129 232.582 -0.592 229.735 0.916 C 226.888 2.424 223.352 1.338 221.844 -1.509 C 220.335 -4.356 221.422 -7.892 224.269 -9.401 C 227.116 -10.909 230.652 -9.822 232.16 -6.975 Z " fill="rgb(224,123,122)" fill-opacity="0.9686274509803922" />
				<path d=" M 274.347 5.254 C 276.195 3.562 279.068 3.688 280.761 5.535 C 282.453 7.382 282.327 10.256 280.48 11.948 C 278.632 13.641 275.759 13.515 274.067 11.667 C 272.374 9.82 272.5 6.946 274.347 5.254 Z " fill="rgb(224,123,122)" fill-opacity="0.9686274509803922" />
				<path d=" M 223 6.505 C 224.173 8.718 223.328 11.468 221.115 12.641 C 218.901 13.814 216.151 12.969 214.978 10.755 C 213.805 8.541 214.65 5.792 216.864 4.619 C 219.078 3.446 221.827 4.291 223 6.505 Z " fill="rgb(224,123,122)" fill-opacity="0.9686274509803922" />
			</g>
		</g>
		<g>
			<g>
				<path d="M162.927,292.563L350.571,266.333L361.668,378.314L170.998,387.394L162.927,292.563Z" style="fill: #513535; fill-rule: nonzero" />
				<path d="M134.68,400.508C155.003,371.071 153.848,336.952 250.696,332.916C315.261,330.226 359.65,354.102 383.863,404.544L390.924,430.774L118.538,457.003C118.365,435.178 123.745,416.347 134.68,400.508Z" style="fill: #822424; fill-rule: nonzero" />
			</g>
			<path d="M208.836,312.883C211.963,331.624 213.238,348.719 212.66,364.17C212.498,368.496 212.191,372.693 211.739,376.761C184.931,388.167 153.717,406.045 117.969,430.232L139.724,520.56L253.723,545.781L390.924,505.427L386.941,429.849C357.109,406.116 329.668,388.493 304.618,376.98C299.881,356.251 298.17,326.729 299.483,288.414L208.836,312.883Z" style="fill: #f8dec8; fill-rule: nonzero" />
			<g>
				<clipPath id="_clip2">
					<path d="M208.836,312.883C211.963,331.624 213.238,348.719 212.66,364.17C212.498,368.496 212.191,372.693 211.739,376.761C184.931,388.167 153.717,406.045 117.969,430.232L139.724,520.56L253.723,545.781L390.924,505.427L386.941,429.849C357.109,406.116 329.668,388.493 304.618,376.98C299.881,356.251 298.17,326.729 299.483,288.414L208.836,312.883Z" />
				</clipPath>
				<g clip-path="url(#_clip2)">
					<path d="M315.141,300.669C315.141,300.669 276.046,367.884 238.878,387.33C201.709,406.777 131.173,395.539 131.173,395.539L132,284L311,240L315.141,300.669Z" style="fill: #f4ceba; fill-rule: nonzero" />
					<path d="M324.183,318C324.183,318 283.54,355.991 252.084,368.192C231.268,376.266 167.027,316.152 167.027,316.152L164.555,270.006L366.483,256.509L324.183,318Z" style="
							fill: #cc9898;
							fill-opacity: 0.3;
							fill-rule: nonzero;
						" />
					<g transform="matrix(1,0,0,1,9,-8)">
						<path d="M274.316,430.563L295.211,418.143L344.588,413.679L274.316,430.563Z" style="
								fill: #cc9898;
								fill-opacity: 0.3;
								fill-rule: nonzero;
							" />
					</g>
					<g transform="matrix(-1,0,0,1,494.904,-8)">
						<path d="M274.316,430.563L295.211,418.143L344.588,413.679L274.316,430.563Z" style="
								fill: #cc9898;
								fill-opacity: 0.3;
								fill-rule: nonzero;
							" />
					</g>
				</g>
			</g>
			<g transform="matrix(1,0,0,1,5,5)">
				<path d="M182.207,470.49L233.326,531.191L269.717,530.706L333.373,460.83L347.368,461.555L354.393,542.998L163.064,536.541L162.787,468.795L182.207,470.49Z" style="fill: #e0abcd" />
			</g>
			<g>
				<g>
					<path d="M188.148,572.011L28.808,527.608C40.777,488.113 51.947,464.177 62.319,455.799C72.692,447.421 115.578,427.474 190.977,395.958L188.148,572.011Z" style="fill: #b73333; fill-rule: nonzero" />
					<g>
						<clipPath id="_clip3">
							<path d="M188.148,572.011L28.808,527.608C40.777,488.113 51.947,464.177 62.319,455.799C72.692,447.421 115.578,427.474 190.977,395.958L188.148,572.011Z" />
						</clipPath>
						<g clip-path="url(#_clip3)">
							<path d="M64.114,447.421L82.665,541.372L9.061,536.584L64.114,447.421Z" style="fill: #8e1414; fill-rule: nonzero" />
						</g>
					</g>
					<path d="M152.081,389.376C123.357,407.926 101.814,439.642 93.437,449.217C85.059,458.791 69.5,475.547 62.319,477.342C55.138,479.137 58.729,483.924 64.713,485.121C70.697,486.318 92.24,500.081 111.389,500.081C130.538,500.081 181.905,498.26 185.122,493.321C193.718,480.122 194.201,448.933 189.157,423.712C187.362,414.736 180.804,370.825 152.081,389.376Z" style="fill: #822424; fill-rule: nonzero" />
					<g>
						<clipPath id="_clip4">
							<path d="M152.081,389.376C123.357,407.926 101.814,439.642 93.437,449.217C85.059,458.791 69.5,475.547 62.319,477.342C55.138,479.137 58.729,483.924 64.713,485.121C70.697,486.318 92.24,500.081 111.389,500.081C130.538,500.081 181.905,498.26 185.122,493.321C193.718,480.122 194.201,448.933 189.157,423.712C187.362,414.736 180.804,370.825 152.081,389.376Z" />
						</clipPath>
						<g clip-path="url(#_clip4)">
							<ellipse cx="91.641" cy="475.547" rx="7.181" ry="7.779" style="fill: #aaaa52" />
						</g>
					</g>
				</g>
				<g>
					<path d="M338.248,572.059L497.588,527.657C485.62,488.162 474.45,464.225 464.077,455.848C453.704,447.47 410.152,423.643 333.421,384.367L338.248,572.059Z" style="fill: #b73333; fill-rule: nonzero" />
					<g>
						<clipPath id="_clip5">
							<path d="M338.248,572.059L497.588,527.657C485.62,488.162 474.45,464.225 464.077,455.848C453.704,447.47 410.152,423.643 333.421,384.367L338.248,572.059Z" />
						</clipPath>
						<g clip-path="url(#_clip5)">
							<path d="M462.282,447.47L443.731,541.42L517.335,536.633L462.282,447.47Z" style="fill: #8e1414; fill-rule: nonzero" />
						</g>
					</g>
					<path d="M333.447,395.416C308.2,360.155 342.497,350.12 374.316,389.424C395.83,416 393.644,430.279 402.022,439.853C410.399,449.428 430.896,464.595 438.077,466.39C445.258,468.186 441.668,472.973 435.683,474.17C429.699,475.367 425.157,489.13 406.007,489.13C386.858,489.13 344.491,488.309 341.275,483.37C332.678,470.17 334.069,454.131 333.421,425.729C333.183,415.323 332.989,404.727 333.447,395.416Z" style="fill: #822424; fill-rule: nonzero" />
					<g>
						<clipPath id="_clip6">
							<path d="M333.447,395.416C308.2,360.155 342.497,350.12 374.316,389.424C395.83,416 393.644,430.279 402.022,439.853C410.399,449.428 430.896,464.595 438.077,466.39C445.258,468.186 441.668,472.973 435.683,474.17C429.699,475.367 425.157,489.13 406.007,489.13C386.858,489.13 344.491,488.309 341.275,483.37C332.678,470.17 334.069,454.131 333.421,425.729C333.183,415.323 332.989,404.727 333.447,395.416Z" />
						</clipPath>
						<g clip-path="url(#_clip6)">
							<ellipse cx="410.755" cy="468.595" rx="7.181" ry="7.779" style="fill: #aaaa52" />
						</g>
					</g>
				</g>
			</g>
			<g>
				<path d="M158.089,154.004C148.037,189.49 165.202,285.426 179.789,303.38C194.376,321.334 231.978,351.093 242.312,354.739C252.646,358.384 260.164,354.404 267.02,352.732C273.876,351.059 310.845,327.867 326.343,305.824C341.841,283.78 340.236,279.257 345.908,264.058C351.58,248.86 380.621,175.057 361.709,128.855C342.798,82.653 318.809,63.841 276.736,60.188C234.663,56.536 212.005,72.65 189.569,94.053C167.133,115.456 168.142,118.519 158.089,154.004Z" style="fill: #f8ddc6; fill-rule: nonzero" />
				<g>
					<clipPath id="_clip7">
						<path d="M158.089,154.004C148.037,189.49 165.202,285.426 179.789,303.38C194.376,321.334 231.978,351.093 242.312,354.739C252.646,358.384 260.164,354.404 267.02,352.732C273.876,351.059 310.845,327.867 326.343,305.824C341.841,283.78 340.236,279.257 345.908,264.058C351.58,248.86 380.621,175.057 361.709,128.855C342.798,82.653 318.809,63.841 276.736,60.188C234.663,56.536 212.005,72.65 189.569,94.053C167.133,115.456 168.142,118.519 158.089,154.004Z" />
					</clipPath>
					<g clip-path="url(#_clip7)">
						<path d="M154.906,276.664C156.697,261.34 172.251,250.547 189.618,252.577C206.986,254.607 219.632,268.695 217.841,284.019C216.05,299.343 200.496,310.136 183.129,308.107C165.761,306.077 153.115,291.988 154.906,276.664Z" style="
							fill: #f4b9b0;
							fill-opacity: 0.5;
							fill-rule: nonzero;
						" />
						<path d="M297.849,287.531C294.061,272.576 304.747,256.948 321.698,252.655C338.648,248.361 355.485,257.018 359.273,271.974C363.061,286.93 352.375,302.558 335.425,306.851C318.474,311.144 301.637,302.487 297.849,287.531Z" style="
							fill: #f4b9b0;
							fill-opacity: 0.5;
							fill-rule: nonzero;
						" />
						<path d="M327.92,246.06C328.076,244.728 329.284,243.772 330.617,243.928C331.949,244.084 332.905,245.292 332.749,246.624C332.593,247.957 331.385,248.912 330.052,248.757C328.72,248.601 327.764,247.393 327.92,246.06Z" style="fill: #edbaa9; fill-rule: nonzero" />
						<path d="M239.625,289.582C239.781,288.25 240.989,287.294 242.321,287.45C243.654,287.606 244.609,288.814 244.453,290.147C244.298,291.479 243.089,292.434 241.757,292.279C240.424,292.123 239.469,290.915 239.625,289.582Z" style="fill: #edbaa9; fill-rule: nonzero" />
					</g>
				</g>
			</g>
			<g>
				<path d="M257.838,225.55C256.19,225.542 254.551,226.875 252.921,229.55C247.614,256.468 245.159,271.062 245.556,273.332C245.952,275.602 250.046,279.399 257.838,284.724C265.609,279.025 269.664,275.227 270.003,273.332C270.342,271.437 267.926,256.843 262.756,229.55C261.126,226.891 259.487,225.558 257.838,225.55Z" style="fill: #f8d1bb; fill-rule: nonzero" />
				<path d="M262.756,276.929C264.296,279.551 267.519,280.521 269.947,279.095C272.376,277.668 273.097,274.381 271.557,271.759C270.701,270.302 269.326,269.355 267.857,269.046" style="
						fill: none;
						fill-rule: nonzero;
						stroke: #909090;
						stroke-width: 2px;
						stroke-linecap: round;
					" />
			</g>
			<g>
				<g class="mouth">
					<path d="M256,296.231C250.275,296.231 242.275,297.564 232,300.231C239.257,305.314 247.257,307.924 256,308.061C264.743,308.198 272.743,305.588 280,300.231C269.725,297.564 261.725,296.231 256,296.231Z" style="fill: #f4ceba; fill-rule: nonzero" />
					<g>
						<clipPath id="_clip8">
							<path d="M256,296.231C250.275,296.231 242.275,297.564 232,300.231C239.257,305.314 247.257,307.924 256,308.061C264.743,308.198 272.743,305.588 280,300.231C269.725,297.564 261.725,296.231 256,296.231Z" />
						</clipPath>
						<g clip-path="url(#_clip8)">
							<rect x="229.261" y="300" width="53.477" height="9.723" style="fill: #f3c5ad" />
						</g>
					</g>
				</g>
				<g class="open-mouth">
					<path d="M256,296.189C261.725,296.189 269.725,297.523 280,300.189C272.743,305.546 263.757,314.054 255.014,313.917C246.272,313.78 239.257,305.273 232,300.189C242.275,297.523 250.275,296.189 256,296.189Z" style="
							fill: #f4ceba;
							fill-opacity: 0.8;
							fill-rule: nonzero;
						" />
					<path d="M256.138,301.202C261.864,301.202 269.959,300.488 279.996,300.191C272.739,305.722 263.918,307.688 255.175,307.547C246.433,307.405 232.01,300.193 232.01,300.193C232.01,300.193 250.413,301.202 256.138,301.202Z" style="
							fill: #cc9898;
							fill-opacity: 0.3;
							fill-rule: nonzero;
						" />
					<path id="lower-lip" d="M255.229,307.58C260.954,307.58 270.681,303.419 280,300.189C272.743,305.546 264.282,314.431 255.539,314.295C246.796,314.158 239.257,305.273 232,300.189C242.219,301.651 249.504,307.58 255.229,307.58Z" style="fill: #f4ceba; fill-rule: nonzero" />
				</g>
			</g>
			<g>
				<g>
					<path d="M228.158,215.173C232.954,222.078 235.189,230.033 234.864,239.037C230.364,242.088 223.278,244.424 220.694,245C218.11,245.576 209.109,246.401 196.086,242.012C191.297,240.399 186.201,237.539 180.8,233.433C182.773,224.67 185.508,217.959 189.007,213.3C195.945,204.061 204.699,202.077 207.653,202.118C210.607,202.16 223.448,205.417 228.158,215.173Z" style="
							fill: #fff;
							fill-opacity: 0.75;
							fill-rule: nonzero;
						" />
					<g>
						<clipPath id="_clip9">
							<path class="eyelid" d="M228.158,215.173C232.954,222.078 235.189,230.033 234.864,239.037C230.364,242.088 223.278,244.424 220.694,245C218.11,245.576 209.109,246.401 196.086,242.012C191.297,240.399 186.201,237.539 180.8,233.433C182.773,224.67 185.508,217.959 189.007,213.3C195.945,204.061 204.699,202.077 207.653,202.118C210.607,202.16 223.448,205.417 228.158,215.173Z" />
						</clipPath>
						<g clip-path="url(#_clip9)">
							<g class="pupil">
								<path d="M190.57,224.205C190.529,212.159 198.64,202.351 208.673,202.317C218.706,202.282 226.884,212.034 226.926,224.08C226.967,236.126 218.856,245.934 208.823,245.969C198.79,246.003 190.612,236.251 190.57,224.205Z" style="fill: #566; fill-rule: nonzero" />
								<g>
									<clipPath id="_clip10">
										<path d="M190.57,224.205C190.529,212.159 198.64,202.351 208.673,202.317C218.706,202.282 226.884,212.034 226.926,224.08C226.967,236.126 218.856,245.934 208.823,245.969C198.79,246.003 190.612,236.251 190.57,224.205Z" />
									</clipPath>
									<g clip-path="url(#_clip10)">
										<g transform="matrix(1,-0.003,0.003,1,-0.81,0.734)">
											<rect x="187.828" y="223.191" width="50.339" height="25.379" style="fill: #58a2a2" />
										</g>
									</g>
								</g>
								<path d="M199.236,224.175C199.214,217.872 203.459,212.739 208.709,212.721C213.959,212.703 218.238,217.806 218.26,224.11C218.282,230.413 214.037,235.546 208.787,235.564C203.537,235.582 199.258,230.479 199.236,224.175Z" style="
										fill: none;
										fill-rule: nonzero;
										stroke: #fff;
										stroke-opacity: 0.75;
										stroke-width: 3px;
										stroke-linecap: square;
										stroke-linejoin: miter;
									" />
								<path d="M199.236,224.175C199.214,217.872 203.459,212.739 208.709,212.721C213.959,212.703 218.238,217.806 218.26,224.11C218.282,230.413 214.037,235.546 208.787,235.564C203.537,235.582 199.258,230.479 199.236,224.175Z" style="fill: #423f3d; fill-rule: nonzero" />
							</g>
						</g>
					</g>
					<path d="M292.256,214.263C287.245,221.014 284.759,228.894 284.8,237.905C289.203,241.096 296.211,243.654 298.776,244.312C301.34,244.969 310.311,246.077 323.466,242.101C328.303,240.639 333.486,237.941 339.014,234.008C337.319,225.187 334.796,218.393 331.446,213.626C324.803,204.173 316.116,201.913 313.162,201.862C310.208,201.81 297.271,204.661 292.256,214.263Z" style="
							fill: #fff;
							fill-opacity: 0.75;
							fill-rule: nonzero;
						" />
					<g>
						<clipPath id="_clip11">
							<path class="eyelid" d="M292.256,214.263C287.245,221.014 284.759,228.894 284.8,237.905C289.203,241.096 296.211,243.654 298.776,244.312C301.34,244.969 310.311,246.077 323.466,242.101C328.303,240.639 333.486,237.941 339.014,234.008C337.319,225.187 334.796,218.393 331.446,213.626C324.803,204.173 316.116,201.913 313.162,201.862C310.208,201.81 297.271,204.661 292.256,214.263Z" />
						</clipPath>
						<g clip-path="url(#_clip11)">
							<g class="pupil">
								<path d="M329.551,223.858C329.562,211.811 321.426,202.024 311.394,202.015C301.361,202.005 293.207,211.778 293.195,223.824C293.184,235.87 301.32,245.657 311.353,245.667C321.385,245.676 329.54,235.904 329.551,223.858Z" style="fill: #566; fill-rule: nonzero" />
								<g>
									<clipPath id="_clip12">
										<path d="M329.551,223.858C329.562,211.811 321.426,202.024 311.394,202.015C301.361,202.005 293.207,211.778 293.195,223.824C293.184,235.87 301.32,245.657 311.353,245.667C321.385,245.676 329.54,235.904 329.551,223.858Z" />
									</clipPath>
									<g clip-path="url(#_clip12)">
										<g transform="matrix(1,0.001,-0.001,1,0.22,-0.287)">
											<rect x="281.984" y="222.9" width="50.339" height="25.379" style="fill: #58a2a2" />
										</g>
									</g>
								</g>
								<path d="M320.885,223.85C320.891,217.546 316.634,212.424 311.384,212.419C306.134,212.415 301.867,217.528 301.861,223.832C301.855,230.135 306.113,235.257 311.363,235.262C316.612,235.267 320.879,230.153 320.885,223.85Z" style="
										fill: none;
										fill-rule: nonzero;
										stroke: #fff;
										stroke-opacity: 0.75;
										stroke-width: 3px;
										stroke-linecap: square;
										stroke-linejoin: miter;
									" />
								<path d="M320.885,223.85C320.891,217.546 316.634,212.424 311.384,212.419C306.134,212.415 301.867,217.528 301.861,223.832C301.855,230.135 306.113,235.257 311.363,235.262C316.612,235.267 320.879,230.153 320.885,223.85Z" style="fill: #423f3d; fill-rule: nonzero" />
							</g>
						</g>
					</g>
				</g>
			</g>
			<g class="eyebrow">
				<path d="M310.614,188.732L278.946,187.478C291.587,180.017 301.809,176.317 309.611,176.378C317.412,176.439 328.303,180.975 342.283,189.986L310.614,188.732Z" style="fill: #886161; fill-rule: nonzero" />
				<path d="M206.892,188.785L238.524,186.803C225.714,179.636 215.41,176.172 207.611,176.412C199.813,176.652 189.03,181.437 175.261,190.767L206.892,188.785Z" style="fill: #886161; fill-rule: nonzero" />
			</g>
			<g>
				<g>
					<path d="M196.464,385.113C207.387,412.928 225.02,426.627 249.361,426.21C273.702,425.793 293.965,410.199 310.151,379.429" style="
							fill: none;
							fill-rule: nonzero;
							stroke: #5e3131;
							stroke-width: 5px;
							stroke-linecap: round;
						" />
					<path d="M195.754,385.587C207.035,416.978 224.846,432.464 249.187,432.047C273.528,431.63 293.692,414.169 309.677,379.665" style="
							fill: none;
							fill-rule: nonzero;
							stroke: #5e3131;
							stroke-width: 5px;
							stroke-linejoin: miter;
							stroke-linecap: round;
						" />
					<path d="M191.179,388.558C200.734,412.411 209.598,427.499 217.773,433.824C230.036,443.312 253.038,455.97 254.51,463.996C255.491,469.347 256.438,495.966 257.349,543.853" style="
							fill: none;
							fill-rule: nonzero;
							stroke: #5e3131;
							stroke-width: 5px;
							stroke-linecap: round;
						" />
					<path d="M314.938,381.885C300.783,411.933 289.437,429.871 280.901,435.7C268.097,444.443 249.552,458.147 247.606,466.072C246.309,471.355 244.757,497.762 242.952,545.292" style="
							fill: none;
							fill-rule: nonzero;
							stroke: #5e3131;
							stroke-width: 5px;
							stroke-linecap: round;
						" />
					<path d="M248.362,459.822C243.861,457.787 241.755,458.295 242.044,461.345C242.334,464.394 244.188,465.97 247.606,466.072C242.601,468.204 241.779,470.27 245.141,472.271C248.502,474.272 250.832,472.63 252.13,467.347C254.251,472.732 256.495,473.939 258.864,470.968C261.233,467.997 260.34,466.07 256.185,465.186C261.502,465.344 263.441,464.071 262.001,461.368C260.56,458.664 258.293,458.216 255.198,460.025C257.59,456.295 256.697,454.368 252.519,454.244C248.341,454.119 246.955,455.979 248.362,459.822Z" style="fill: #a2a26a; fill-rule: nonzero" />
				</g>
				<g>
					<path d="M128.103,220.164C116.152,225.953 107.735,232.997 102.852,241.298C95.528,253.748 102.12,268.396 94.796,283.776C87.472,299.156 78.683,310.142 83.078,314.536C87.472,318.93 103.584,302.086 116.035,300.621C124.335,299.644 135.321,300.377 148.992,302.818L156.316,237.636L128.103,220.164Z" style="fill: #b36993; fill-rule: nonzero" />
					<path d="M376.764,201.017C387.505,204.923 395.806,210.538 401.665,217.861C410.453,228.847 409.721,244.227 414.115,253.016C418.509,261.804 432.425,277.184 429.495,280.846C426.566,284.508 414.848,278.649 403.862,278.649C392.876,278.649 383.355,285.973 374.566,280.114C368.707,276.208 362.604,259.607 356.257,230.312L376.764,201.017Z" style="fill: #b36993; fill-rule: nonzero" />
				</g>
				<g>
					<g>
						<path d="M138.739,474.928C130.438,460.769 127.753,445.389 130.683,428.788C135.077,403.887 148.26,410.478 145.33,373.127C142.401,335.775 129.95,333.578 136.542,307.945C140.936,290.856 145.33,279.626 149.725,274.255L162.908,283.776C173.161,322.837 176.579,348.958 173.161,362.141C168.034,381.915 184.879,385.577 178.288,409.746C173.893,425.859 162.419,450.271 143.866,482.984L138.739,474.928Z" style="fill: #624342; fill-rule: nonzero" />
						<path d="M133.612,522.533C119.941,541.575 113.349,554.026 113.838,559.885C114.57,568.673 154.851,594.307 165.837,560.617C176.823,526.927 192.203,510.815 191.47,495.435C190.738,480.055 187.076,439.774 181.217,435.379C177.311,432.45 161.443,461.501 133.612,522.533Z" style="fill: #6b4848; fill-rule: nonzero" />
						<path d="M165.105,373.859C169.988,410.966 166.814,436.356 155.584,450.027C138.739,470.534 117.5,492.505 118.232,510.083C118.72,521.801 121.894,534.251 127.753,547.434C141.424,529.369 151.434,516.918 157.781,510.083C167.302,499.829 146.063,506.421 169.499,474.196C192.935,441.971 194.4,421.464 194.4,397.295C194.4,381.183 191.47,360.188 185.611,334.31L170.231,292.565L153.387,299.156L165.105,373.859Z" style="fill: #795656; fill-rule: nonzero" />
					</g>
					<g>
						<path d="M348.201,481.661C339.9,467.502 337.215,452.121 340.144,435.52C344.539,410.619 349.263,412.018 346.333,374.667C343.404,337.315 329.075,336.967 335.667,311.333C340.061,294.244 346.061,279.356 353.667,266.667L372.369,290.508C382.622,329.569 386.04,355.691 382.623,368.874C377.496,388.648 394.341,392.31 387.749,416.479C383.355,432.591 371.881,457.004 353.327,489.717L348.201,481.661Z" style="fill: #624342; fill-rule: nonzero" />
						<path d="M343.074,529.266C329.403,548.308 322.811,560.758 323.3,566.617C324.032,575.406 364.313,601.039 375.299,567.35C386.285,533.66 401.665,517.547 400.932,502.167C400.2,486.787 396.538,446.506 390.679,442.112C386.773,439.183 370.905,468.234 343.074,529.266Z" style="fill: #6a4849; fill-rule: nonzero" />
						<path d="M374.566,380.592C379.449,417.699 376.275,443.089 365.045,456.76C348.201,477.266 326.961,499.238 327.694,516.815C328.182,528.533 331.356,540.984 337.215,554.167C350.886,536.101 360.896,523.65 367.243,516.815C376.764,506.562 355.524,513.153 378.961,480.928C402.397,448.703 403.862,428.197 403.862,404.028C403.862,387.915 400.932,366.92 395.073,341.043L373.693,277.297L356.848,283.889L374.566,380.592Z" style="fill: #795656; fill-rule: nonzero" />
					</g>
					<path d="M137.128,231.554C133.549,230.798 130.84,230.058 129,229.333C126.24,228.247 114.57,209.073 120.429,161.468C126.288,113.863 140.081,100.55 161.236,84.327C186.941,64.614 201.771,58.512 236.193,57.779C259.658,57.28 291.878,55.864 319.227,69.818C331.999,76.334 343.911,86.435 353.004,101.123C381.567,147.263 386.78,175.539 386.78,190.919C386.78,197.465 386.124,205.679 379.778,212.338C376.185,216.107 370.814,219.55 363.667,222.667L297.666,101.412L191.47,100.68L153.387,190.763L137.128,231.554Z" style="fill: #754f4f; fill-rule: nonzero" />
					<path d="M158.513,169.58L159.978,233.298C164.615,225.745 168.277,218.666 170.964,212.059C187.757,170.766 202.018,135.066 205.386,132.961C208.753,130.857 238.02,137.001 248.596,136.623C258.992,136.252 272.483,130.64 294.737,124.905C306.03,131.5 321.166,157.377 340.144,202.538L335.018,124.905L300.596,82.427L258.85,85.356L190.738,93.412L158.513,169.58Z" style="fill: #624243; fill-rule: nonzero" />
					<path d="M237.611,70.835C240.249,112.337 243.277,133.088 246.695,133.088C251.822,133.088 258.85,85.483 277.892,90.609C296.934,95.736 312.835,130.158 309.905,155.059C306.976,179.96 302.581,188.749 309.173,188.749C315.764,188.749 317.961,150.665 322.356,155.059C326.75,159.454 316.801,256.355 319.426,259.79C322.052,263.225 332.609,228.298 339.201,234.157C345.792,240.016 332.609,280.297 322.356,294.212C312.102,308.127 303.314,322.043 299.652,328.634C297.511,332.488 316.077,320.213 331.144,302.268C341.845,289.524 349.826,269.255 351.651,270.776C336.027,307.883 328.703,334.249 329.68,349.873C331.144,373.31 347.989,390.887 354.581,390.887C361.172,390.887 348.722,368.183 349.454,357.197C350.186,346.211 379.482,291.283 375.82,232.692C372.158,174.101 362.637,125.032 346.524,100.863C330.412,76.694 337.215,70.103 318.173,56.187C299.131,42.272 271.287,26.863 258.836,39.314C250.536,47.614 243.461,58.121 237.611,70.835Z" style="fill: #886161; fill-rule: nonzero" />
					<path d="M239.075,134.623C234.681,134.623 236.502,102.535 212.333,104C188.165,105.465 195.414,130.229 194.682,144.876C193.95,159.524 196.147,198.34 199.809,207.861C203.47,217.382 194.682,214.453 188.823,202.002C182.964,189.552 181.499,162.454 180.767,174.904C180.297,182.884 181.499,199.311 181.499,215.918C181.499,225.221 183.15,238.113 187.358,245.213C199.076,264.987 221.691,295.139 207.132,286.226C200.574,282.211 193.695,277.262 187.096,272.705C180.497,268.147 173.795,257.024 172.71,257.663C167.069,260.993 185.755,286.577 190.288,294.283C199.523,309.986 218.118,327.24 210.794,327.972C203.47,328.705 174.189,306.179 170.527,300.32C166.865,294.461 183.696,338.226 194.682,350.676C205.668,363.127 231.301,388.028 218.118,382.169C204.935,376.31 177.837,358 173.443,344.085C169.048,330.169 144.986,302.975 136.824,263.523C128.035,221.044 122.756,185.276 140.333,141.333C157.911,97.39 156.46,66.138 184.29,50.026C212.121,33.913 231.752,67.976 233.949,73.835C236.146,79.694 243.47,134.623 239.075,134.623Z" style="fill: #896061; fill-rule: nonzero" />
				</g>
			</g>
		</g>
		<g class="dialog-5">
			<path d=" M 543.54 442.992 Q 540.599 443.14 541.063 440.62 Q 543.711 436.979 544.778 433.505 C 545.844 430.03 545.91 377.421 546.635 363.537 Q 546.635 355.631 554.064 355.235 L 903.571 355.235 Q 910.69 356.026 911 363.537 Q 911 377.421 911 433.505 Q 909.452 441.806 903.571 442.992 C 816.881 442.992 678.687 442.992 543.54 442.992 Z " fill="rgb(57,56,56)" />
			<g clip-path="url(#_clipPath_cd6GMJ8GaVQpHZEklPJY27QnsFp6XqOK)">
				<text transform="matrix(1,0,0,1,565,381.172)" style="
						font-family: monospace;
						font-weight: 400;
						font-size: 16px;
						font-style: normal;
						fill: #e8e8e8;
						stroke: none;
					">
					If you want to learn more about me,
				</text>
				<text transform="matrix(1,0,0,1,565,404.61)" style="
						font-family: monospace;
						font-weight: 400;
						font-size: 16px;
						font-style: normal;
						fill: #e8e8e8;
						stroke: none;
					">
					I'm @rightonhana everywhere, or
				</text>
				<text transform="matrix(1,0,0,1,565,428.047)" style="
						font-family: monospace;
						font-weight: 400;
						font-size: 16px;
						font-style: normal;
						fill: #e8e8e8;
						stroke: none;
					">
					you can go to 🔗 rightonhana.dev
				</text>
			</g>
			<defs>
				<clipPath id="_clipPath_cd6GMJ8GaVQpHZEklPJY27QnsFp6XqOK">
					<rect x="0" y="0" width="338.571" height="73" transform="matrix(1,0,0,1,565,362.618)" />
				</clipPath>
			</defs>
		</g>
		<g class="dialog-4">
			<path d=" M 543.142 442.993 Q 540.662 443.118 541.053 440.993 Q 543.286 437.923 544.186 434.993 C 545.085 432.063 545.141 416.701 545.752 404.993 Q 545.752 398.326 552.016 397.993 L 823.736 397.993 Q 829.739 398.66 830 404.993 Q 830 416.701 830 434.993 Q 828.695 441.993 823.736 442.993 C 750.635 442.993 657.103 442.993 543.142 442.993 Z " fill="rgb(57,56,56)" />
			<g clip-path="url(#_clipPath_Ms0lecwxuJ44rVCTRwPcoZdoHehpvDLq)">
				<text transform="matrix(1,0,0,1,559.408,426.799)" style="
						font-family: monospace;
						font-weight: 400;
						font-size: 16px;
						font-style: normal;
						fill: #e8e8e8;
						stroke: none;
					">
					My pronouns are She/Her 👩‍💻
				</text>
			</g>
			<defs>
				<clipPath id="_clipPath_Ms0lecwxuJ44rVCTRwPcoZdoHehpvDLq">
					<rect x="0" y="0" width="258.183" height="24.503" transform="matrix(1,0,0,1,559.408,408.245)" />
				</clipPath>
			</defs>
		</g>
		<g class="dialog-3">
			<path d=" M 543.54 442.992 Q 540.599 443.14 541.063 440.62 Q 543.711 436.979 544.778 433.505 C 545.844 430.03 545.91 377.421 546.635 363.537 Q 546.635 355.631 554.064 355.235 L 903.571 355.235 Q 910.69 356.026 911 363.537 Q 911 377.421 911 433.505 Q 909.452 441.806 903.571 442.992 C 816.881 442.992 678.687 442.992 543.54 442.992 Z " fill="rgb(57,56,56)" />
			<g clip-path="url(#_clipPath_cd6GMJ8GaVQpHZEklPJY27QnsFp6XqOK)">
				<text transform="matrix(1,0,0,1,565,381.172)" style="
						font-family: monospace;
						font-weight: 400;
						font-size: 16px;
						font-style: normal;
						fill: #e8e8e8;
						stroke: none;
					">
					I'm a Front-end Developer with
				</text>
				<text transform="matrix(1,0,0,1,565,404.61)" style="
						font-family: monospace;
						font-weight: 400;
						font-size: 16px;
						font-style: normal;
						fill: #e8e8e8;
						stroke: none;
					">
					experience in Angular, React and
				</text>
				<text transform="matrix(1,0,0,1,565,428.047)" style="
						font-family: monospace;
						font-weight: 400;
						font-size: 16px;
						font-style: normal;
						fill: #e8e8e8;
						stroke: none;
					">
					Svelte.
				</text>
			</g>
			<defs>
				<clipPath id="_clipPath_cd6GMJ8GaVQpHZEklPJY27QnsFp6XqOK">
					<rect x="0" y="0" width="338.571" height="73" transform="matrix(1,0,0,1,565,362.618)" />
				</clipPath>
			</defs>
		</g>
		<g class="dialog-2">
			<path d=" M 543.742 442.16 Q 540.567 442.285 541.068 440.155 Q 543.927 437.077 545.078 434.139 C 546.23 431.202 546.301 394.748 547.084 383.011 Q 547.084 376.327 555.104 375.993 L 902.98 375.993 Q 910.666 376.661 911 383.011 Q 911 394.748 911 434.139 Q 909.329 441.157 902.98 442.16 C 809.39 442.16 689.644 442.16 543.742 442.16 Z " fill="rgb(57,56,56)" />
			<g clip-path="url(#_clipPath_ESlM0h8RX5VXCFQgA5t80sqGiBmZNFpN)">
				<text transform="matrix(1,0,0,1,561.068,404.114)" style="
						font-family: monospace;
						font-weight: 400;
						font-size: 16px;
						font-style: normal;
						fill: #e8e8e8;
						stroke: none;
					">
					I'm born and raised in Argentina 🇦🇷
				</text>
				<text transform="matrix(1,0,0,1,561.068,427.551)" style="
						font-family: monospace;
						font-weight: 400;
						font-size: 16px;
						font-style: normal;
						fill: #e8e8e8;
						stroke: none;
					">
					now living in Chicago, Illinois 🇺🇸
				</text>
			</g>
			<defs>
				<clipPath id="_clipPath_ESlM0h8RX5VXCFQgA5t80sqGiBmZNFpN">
					<rect x="0" y="0" width="341" height="46.875" transform="matrix(1,0,0,1,561.068,385.559)" />
				</clipPath>
			</defs>
		</g>
		<g class="dialog-1">
			<path d=" M 543.297 442.993 Q 540.637 443.118 541.057 440.993 Q 543.452 437.923 544.417 434.993 C 545.382 432.063 545.441 416.701 546.097 404.993 Q 546.097 398.326 552.817 397.993 L 896.28 397.993 Q 902.72 398.66 903 404.993 Q 903 416.701 903 434.993 Q 901.6 441.993 896.28 442.993 C 817.868 442.993 665.54 442.993 543.297 442.993 Z " fill="rgb(57,56,56)" />
			<g clip-path="url(#_clipPath_3D2gxkuakMBlARHwnRYqTgx1WEIpF5CZ)">
				<text transform="matrix(1,0,0,1,559,427.048)" style="
						font-family: monospace;
						font-weight: 400;
						font-size: 16px;
						font-style: normal;
						fill: #e8e8e8;
						stroke: none;
					">
					Hi there 👋 I'm Florencia Gonzalez
				</text>
			</g>
			<defs>
				<clipPath id="_clipPath_3D2gxkuakMBlARHwnRYqTgx1WEIpF5CZ">
					<rect x="0" y="0" width="350" height="24.007" transform="matrix(1,0,0,1,559,408.493)" />
				</clipPath>
			</defs>
		</g>
	</g>
</svg>
