<svg class="avatar"
	xmlns="http://www.w3.org/2000/svg"
	xmlns:xlink="http://www.w3.org/1999/xlink" style="isolation:isolate" viewBox="0 0 1024 512" width="1024pt" height="512pt">
	<style>
		.dialog-1 {
			opacity: 0;
			animation: greet 7s both;
		}

		.dialog-2 {
			opacity: 0;
			animation: from 7s both;
		}

		.dialog-3 {
			opacity: 0;
			animation: profession 7s both;
		}

		.dialog-4 {
			opacity: 0;
			animation: pronouns 7s both;
		}

		.dialog-5 {
			opacity: 0;
			animation: contact 7s both;
		}

		.eyelid {
			animation: eye 3s ease-in-out infinite;
			transform-origin: center;
		}
		
		.pupil {
			animation: pupil 15s ease-out infinite;
			transform-origin: center;
		}

		.eyebrow {
			animation: eyebrow 3s ease-in-out infinite;
			transform-origin: center;
		}

		.mouth {
			animation: mouth 15s ease infinite;
			transform-origin: center;
		}

		.dot {
			animation: dot 15s ease infinite;
			transform-origin: center;
		}

		.cheeks:first-child {
			animation: cheeks1 15s ease infinite;
			transform-origin: center;
		}

		.cheeks:nth-child(2), .cheeks:nth-child(3) {
			animation: cheeks2 15s ease infinite;
			transform-origin: center;
		}

		.catTail {
			animation: tail 15s ease-in-out infinite;
			transform-origin: bottom left;
			transform-box: fill-box;
		}

		.catTongue {
			animation: tongue 15s ease-in-out infinite;
			transform-origin: center;
		}

		@keyframes greet {
			0% {
				opacity: 0;
				transform: translate(0, 0);
			}
			20% {
				opacity: 1;
				transform: translate(0, 0);
			}
			40% {
				opacity: 1;
				transform: translate(0, -78px);
			}
			60% {
				opacity: 1;
				transform: translate(0, -180px);
			}
			80% {
				opacity: 1;
				transform: translate(0, -234px);
			}
			100%{
				opacity: 1;
				transform: translate(0, -333px);
			}
		}

		@keyframes from {
			0%, 20% {
				opacity: 0;
				transform: translate(0, 0);
			}
			40% {
				opacity: 1;
				transform: translate(0, 0);
			}
			60% {
				opacity: 1;
				transform: translate(0, -100px);
			}
			80%{
				opacity: 1;
				transform: translate(0, -155px);
			}
			100%{
				opacity: 1;
				transform: translate(0, -252px);
			}
		}

		@keyframes profession {
			0%, 40% {
				opacity: 0;
				transform: translate(0, 0);
			}
			60% {
				opacity: 1;
				transform: translate(0, 0);
			}
			80%{
				opacity: 1;
				transform: translate(0, -56px);
			}
			100%{
				opacity: 1;
				transform: translate(0, -155px);
			}
		}

		@keyframes pronouns {
			0%, 60% {
				opacity: 0;
				transform: translate(0, 0);
			}
			80% {
				opacity: 1;
				transform: translate(0, 0);
			}
			100%{
				opacity: 1;
				transform: translate(0, -99px);
			}
		}

		@keyframes contact {
			0%, 80% {
				opacity: 0;
				transform: translate(0, 0);
			}
			100%{
				opacity: 1;
				transform: translate(0, 0);
			}
		}
		
		@keyframes eye {
			5%, 20% {
				transform: scale(1, 1);
				stroke-width: 2px;
			}
			10%, 15% {
				transform: scale(1, 0);
				stroke-width: 20px;
			}
		}

		@keyframes pupil {
			5%, 20% {
				transform: translate(5px, -1px);
			}
			10%, 15% {
				transform: translate(-5px, 1px);
			}
			20%, 100% {
				transform: translate(0, 0);
			}
		}
		@keyframes catPupil {
			5%, 20% {
				transform: translate(10px, -1px);
			}
			10%, 15% {
				transform: translate(-10px, 1px);
			}
			20%, 100% {
				transform: translate(0, 0);
			}
		}

		@keyframes eyebrow {
			0%, 9% {
				transform: translate(0, 0);
			}
			10%, 15% {
				transform: translate(0, 0.5px);
			}
			16%, 100% {
				transform: translate(0, 0);
			}
		}

		@keyframes mouth {
			0%, 4% {
				transform: scale(1, 1);
			}
			5%, 20% {
				transform-origin: 250px 280px;
				transform: scale(1.1 , 0.95);
			}
			21%, 100% {
				transform: scale(1, 1);
			}
		}

		@keyframes dot {
			0%, 4% {
				transform: translate(0, 0);
			}
			5%, 20% {
				transform: translate(0, -3px);
			}
			21%, 100% {
				transform: translate(0, 0);
			}
		}

		@keyframes cheeks1 {
			0%, 4% {
				transform: translate(0, 0);
			}
			5%, 20% {
				transform: translate(-2px, 0);
			}
			21%, 100% {
				transform: translate(0, 0);
			}
		}
		
		@keyframes cheeks2 {
			0%, 4% {
				transform: translate(0, 0);
			}
			5%, 20% {
				transform: translate(2px, 0);
			}
			21%, 100% {
				transform: translate(0, 0);
			}
		}
		@keyframes catEye {
			25%, 40% {
				transform: scale(1, 1);
				stroke-width: 2px;
			}
			30%, 35% {
				transform: scale(1, 0);
				stroke-width: 20px;
			}
		}
		@keyframes catPupil {
			5%, 20% {
				transform: translate(5px, -1px);
			}
			10%, 15% {
				transform: translate(-5px, 1px);
			}
			20%, 100% {
				transform: translate(0, 0);
			}
		}
		@keyframes tail {
			0% {
				transform: rotate(0);
			}
			15% {
				transform: rotate(10deg);
			}
			25% {
				transform: rotate(-5deg);
			}
			30% {
				transform: rotate(10deg);
			}
			40% {
				transform: rotate(-2deg);
			}
			70% {
				transform: rotate(10deg);
			}
			80% {
				transform: rotate(-5deg);
			}
			85% {
				transform: rotate(10deg);
			}
		}

		@keyframes tongue {
			0%, 4% {
				transform: translate(0, 0);
			}
			5%, 50% {
				transform: translate(-4px, -4px);
			}
			51%, 100% {
				transform: translate(0, 0);
			}
		}
		@keyframes bat1 {
			from {
				transform: rotate(0deg) translateX(50px) rotate(0deg);
			}
			to {
				transform: rotate(360deg) translateX(50px) rotate(-360deg);
			}
		}
		@keyframes bat2 {
			from {
				transform: rotate(0deg) translateX(20px) rotate(0deg);
			}
			to {
				transform: rotate(-360deg) translateX(20px) rotate(360deg);
			}
		}
		@keyframes bat3 {
			from {
				transform: rotate(0deg) translateX(10px) rotate(0deg);
			}
			to {
				transform: rotate(-360deg) translateX(10px) rotate(360deg);
			}
		}
		@keyframes bat4 {
			from {
				transform: rotate(0deg) translateX(70px) rotate(0deg);
			}
			to {
				transform: rotate(360deg) translateX(70px) rotate(-360deg);
			}
		}
		@keyframes bat5 {
			from {
				transform: rotate(0deg) translateX(5px) rotate(0deg);
			}
			to {
				transform: rotate(-360deg) translateX(5px) rotate(360deg);
			}
		}
		@keyframes bat6 {
			from {
				transform: rotate(0deg) translateX(40px) rotate(0deg);
			}
			to {
				transform: rotate(360deg) translateX(40px) rotate(-360deg);
			}
		}
		.cat-eyelid {
			animation: catEye 3s ease-in-out infinite;
			transform-origin: center;
		}
		.cat-pupil {
			animation: catPupil 30s ease-out infinite;
			transform-origin: center;
		}
		.bat-1 {
			animation: bat1 4s linear infinite;
		}
		.bat-2 {
			animation: bat2 4s linear infinite;
		}
		.bat-3 {
			animation: bat3 3s linear infinite;
		}
		.bat-4 {
			animation: bat4 2s linear infinite;
		}
		.bat-5 {
			animation: bat5 1s linear infinite;
		}
		.bat-6 {
			animation: bat6 5s linear infinite;
		}
	</style>
	<defs>
		<clipPath id="_clipPath_uSaH7GvzYbWeM4qHwkmFMFjBW04XGMZb">
			<rect width="1024" height="512"/>
		</clipPath>
	</defs>
	<g clip-path="url(#_clipPath_uSaH7GvzYbWeM4qHwkmFMFjBW04XGMZb)">
		<g>
			<path class="bat-1" d=" M 926.561 17.557 Q 937.173 20.906 941.81 28.423 Q 946.448 35.941 944.074 44.511 L 947.133 48.281 Q 951.375 40.35 953.384 41.268 Q 955.392 42.187 954.498 46.32 L 956.016 46.209 L 957.107 47.271 Q 960.027 43.597 961.21 44.121 C 962.393 44.645 962.101 52.762 961.482 53.51 Q 960.863 54.259 966.249 52.594 Q 967.812 46.88 976.389 43.018 Q 984.966 39.156 997 43.231 Q 989.434 48.677 988.164 53.282 Q 986.895 57.887 988.875 63.495 Q 983.798 63.614 980.206 64.98 Q 976.614 66.346 973.529 73.164 Q 965.624 70.272 961.576 69.471 Q 957.527 68.669 944.7 77.255 Q 942.372 66.284 937.669 62.084 Q 932.965 57.885 925.704 56.396 Q 926.456 50.268 925.432 47.007 Q 924.408 43.746 919.74 38.296 Q 926.222 33.232 927.497 29.179 Q 928.771 25.125 926.561 17.557 Z " fill="rgb(46,46,46)"/>
			<path class="bat-2" d=" M 0 47.867 Q 17.247 40.25 31.558 44.622 Q 45.87 48.994 52.443 62.551 L 60.552 63.921 Q 57.071 49.087 60.654 48.008 Q 64.237 46.928 67.725 53.185 L 69.532 51.346 L 72.107 51.475 Q 71.71 43.533 73.802 42.877 C 75.893 42.22 84.606 52.869 84.656 54.515 Q 84.706 56.161 89.694 48.013 Q 85.287 38.997 91.874 24.485 Q 98.461 9.973 118.327 1.689 Q 114.799 17.084 118.338 24.362 Q 121.878 31.64 130.672 36.557 Q 124.348 42.391 121.308 48.148 Q 118.269 53.905 121.975 66.03 Q 108.684 71.199 102.637 74.71 Q 96.591 78.222 89.885 103.499 Q 74.645 92.148 63.963 92.071 Q 53.281 91.994 42.378 98.227 Q 36.476 89.59 31.524 86.589 Q 26.571 83.587 14.536 81.88 Q 17.113 68.185 14.198 61.602 Q 11.282 55.019 0 47.867 Z " fill="rgb(46,46,46)"/>
			<path class="bat-3" d=" M 849.091 426.84 Q 867.311 421.995 880.77 428.537 Q 894.228 435.078 898.616 449.492 L 906.414 452.105 Q 905.279 436.91 908.987 436.4 Q 912.694 435.89 915.167 442.613 L 917.238 441.077 L 919.762 441.604 Q 920.604 433.697 922.772 433.373 C 924.939 433.05 931.892 444.923 931.687 446.556 Q 931.481 448.19 937.673 440.916 Q 934.72 431.325 943.481 418.012 Q 952.242 404.7 973.154 399.601 Q 967.277 414.262 969.643 422.001 Q 972.009 429.74 979.934 435.963 Q 972.78 440.744 968.883 445.96 Q 964.986 451.175 966.764 463.728 Q 952.832 466.77 946.313 469.3 Q 939.794 471.829 929.244 495.758 Q 915.952 482.178 905.412 480.443 Q 894.871 478.707 883.133 483.172 Q 878.644 473.723 874.218 469.989 Q 869.792 466.254 858.168 462.698 Q 862.84 449.57 860.983 442.614 Q 859.125 435.658 849.091 426.84 Z " fill="rgb(46,46,46)"/>
			<path class="bat-4" d=" M 412.278 279.266 Q 429.263 278.037 440.104 286.109 Q 450.944 294.182 452.409 307.711 L 458.889 311.345 Q 460.442 297.67 463.818 297.842 Q 467.194 298.014 468.255 304.397 L 470.352 303.383 L 472.503 304.276 Q 474.582 297.401 476.56 297.479 C 478.538 297.557 482.708 309.264 482.25 310.679 Q 481.792 312.094 488.512 306.683 Q 487.508 297.674 497.526 287.337 Q 507.543 277 526.959 276 Q 519.274 288.019 520.069 295.285 Q 520.865 302.552 526.848 309.409 Q 519.695 312.446 515.358 316.418 Q 511.021 320.389 510.483 331.828 Q 497.607 332.18 491.397 333.326 Q 485.186 334.472 471.792 353.928 Q 462.285 339.638 453.224 336.322 Q 444.163 333.006 432.994 334.989 Q 430.603 325.848 427.305 321.789 Q 424.006 317.729 414.291 312.615 Q 420.649 301.752 420.173 295.267 Q 419.697 288.782 412.278 279.266 Z " fill="rgb(46,46,46)"/>
			<path class="bat-5" d=" M 502.908 52.594 Q 519.374 56.937 527.012 68.088 Q 534.65 79.239 531.649 92.513 L 536.601 98.051 Q 542.504 85.618 545.642 86.875 Q 548.779 88.132 547.714 94.514 L 550.027 94.235 L 551.772 95.777 Q 555.967 89.948 557.813 90.663 C 559.659 91.378 559.808 103.805 558.916 104.995 Q 558.024 106.185 566.136 103.244 Q 568.107 94.397 580.934 87.866 Q 593.762 81.334 612.454 86.683 Q 601.287 95.561 599.684 102.693 Q 598.081 109.825 601.517 118.251 Q 593.766 118.806 588.375 121.156 Q 582.985 123.507 578.768 134.154 Q 566.474 130.312 560.227 129.383 Q 553.98 128.454 535.002 142.517 Q 530.641 125.917 523.145 119.842 Q 515.648 113.768 504.44 112.023 Q 505.141 102.601 503.337 97.691 Q 501.533 92.782 494 84.794 Q 503.537 76.579 505.189 70.29 Q 506.84 64 502.908 52.594 Z " fill="rgb(46,46,46)"/>
			<path class="bat-6" d=" M 10.31 342.668 Q 22.725 347.774 27.534 357.283 Q 32.343 366.791 28.617 376.851 L 31.911 381.693 Q 37.817 372.592 40.138 373.901 Q 42.459 375.209 40.963 380.086 L 42.799 380.108 L 44.002 381.494 Q 47.887 377.376 49.255 378.126 C 50.623 378.877 49.447 388.603 48.626 389.44 Q 47.806 390.277 54.45 388.824 Q 56.91 382.115 67.613 378.345 Q 78.316 374.576 92.366 380.699 Q 82.717 386.475 80.722 391.882 Q 78.728 397.288 80.537 404.23 Q 74.422 403.857 69.966 405.133 Q 65.509 406.41 61.106 414.291 Q 51.899 410.01 47.114 408.635 Q 42.329 407.259 26.037 416.274 Q 24.356 402.849 19.129 397.322 Q 13.903 391.796 5.326 389.267 Q 6.854 381.977 5.955 377.953 Q 5.056 373.929 0 366.903 Q 8.307 361.476 10.251 356.733 Q 12.196 351.99 10.31 342.668 Z " fill="rgb(46,46,46)"/>
		</g>
		<g>
			<path d="M254.64,311.615C266.295,310.394 288.556,318.743 341.017,337.284L344.824,318.364C348.37,320.982 351.584,325.249 354.467,331.166C357.349,337.082 371.137,339.404 395.831,338.131C406.358,319.74 411.651,295.689 411.708,265.976C411.801,217.616 394.123,205.368 389.745,186.206C385.367,167.045 385.367,167.045 377.142,137.51C359.138,93.392 347.333,68.842 341.728,63.859C336.593,59.294 324.407,55.976 305.171,53.905C303.485,45.99 301.523,41.232 299.343,40.734C282.429,36.867 225.589,35.255 209.565,40.734C193.54,46.213 184.408,56.385 176,63.859C167.592,71.333 142.595,91.374 132,112C121.405,132.626 127.413,165.292 119.535,186.206C111.658,207.12 97.478,217.616 97.572,265.976C97.629,295.689 102.921,319.74 113.448,338.131C138.142,339.404 151.93,337.082 154.813,331.166C157.696,325.249 160.91,320.982 164.456,318.364L168.263,337.284C218.078,320.986 246.87,312.43 254.64,311.615Z" style="fill:#5e4038;fill-rule:nonzero;"/>
			<g>
				<clipPath id="_clip2">
					<path d="M254.64,311.615C266.295,310.394 288.556,318.743 341.017,337.284L344.824,318.364C348.37,320.982 351.584,325.249 354.467,331.166C357.349,337.082 371.137,339.404 395.831,338.131C406.358,319.74 411.651,295.689 411.708,265.976C411.801,217.616 394.123,205.368 389.745,186.206C385.367,167.045 385.367,167.045 377.142,137.51C359.138,93.392 347.333,68.842 341.728,63.859C336.593,59.294 324.407,55.976 305.171,53.905C303.485,45.99 301.523,41.232 299.343,40.734C282.429,36.867 225.589,35.255 209.565,40.734C193.54,46.213 184.408,56.385 176,63.859C167.592,71.333 142.595,91.374 132,112C121.405,132.626 127.413,165.292 119.535,186.206C111.658,207.12 97.478,217.616 97.572,265.976C97.629,295.689 102.921,319.74 113.448,338.131C138.142,339.404 151.93,337.082 154.813,331.166C157.696,325.249 160.91,320.982 164.456,318.364L168.263,337.284C218.078,320.986 246.87,312.43 254.64,311.615Z"/>
				</clipPath>
				<g clip-path="url(#_clip2)">
					<path d="M368,116C378.515,119.396 397.2,204.556 392.368,244.782C388.901,273.649 393.604,330.966 395.664,343.681C398.951,363.97 378.142,347.147 333.239,293.21C349.403,172.806 360.99,113.736 368,116Z" style="fill:#5b3c34;fill-rule:nonzero;"/>
					<path d="M375.031,352.878C394.098,323.297 391.431,248.631 367.031,128.878C231.76,104.502 162.427,100.502 159.031,116.878C153.936,141.441 117.324,330.371 143.031,348.878C168.737,367.385 346.43,397.248 375.031,352.878Z" style="fill:#462f28;fill-rule:nonzero;"/>
				</g>
			</g>
			<g transform="matrix(-0.312445,0.0724579,-0.085675,-0.369439,478.62,513.393)">
				<path d="M351.876,384.242L360.394,396.126L343.357,396.126L351.876,384.242Z" style="fill:#d6d4d4;"/>
			</g>
			<g transform="matrix(0.443106,0.102759,0.085675,-0.369439,-21.2765,505.945)">
				<path d="M351.876,384.242L360.394,396.126L343.357,396.126L351.876,384.242Z" style="fill:#a69b9b;"/>
			</g>
			<path d="M208.836,312.883C211.963,331.624 213.238,348.719 212.66,364.17C212.498,368.496 212.191,372.693 211.739,376.761C184.931,388.167 153.717,406.045 117.969,430.232L139.724,520.56L253.723,545.781L390.924,505.427L386.941,429.849C357.109,406.116 329.668,388.493 304.618,376.98C299.881,356.251 298.17,326.729 299.483,288.414L208.836,312.883Z" style="fill:#f8dec8;fill-rule:nonzero;"/>
			<g>
				<clipPath id="_clip3">
					<path d="M208.836,312.883C211.963,331.624 213.238,348.719 212.66,364.17C212.498,368.496 212.191,372.693 211.739,376.761C184.931,388.167 153.717,406.045 117.969,430.232L139.724,520.56L253.723,545.781L390.924,505.427L386.941,429.849C357.109,406.116 329.668,388.493 304.618,376.98C299.881,356.251 298.17,326.729 299.483,288.414L208.836,312.883Z"/>
				</clipPath>
				<g clip-path="url(#_clip3)">
					<path d="M315.141,300.669C315.141,300.669 276.046,367.884 238.878,387.33C201.709,406.777 131.173,395.539 131.173,395.539L132,284L311,240L315.141,300.669Z" style="fill:#f4ceba;fill-rule:nonzero;"/>
					<path d="M324.183,318C324.183,318 283.54,355.991 252.084,368.192C231.268,376.266 167.027,316.152 167.027,316.152L164.555,270.006L366.483,256.509L324.183,318Z" style="fill:#cc9898;fill-opacity:0.3;fill-rule:nonzero;"/>
					<g transform="matrix(1,0,0,1,9,-8)">
						<path d="M274.316,430.563L295.211,418.143L344.588,413.679L274.316,430.563Z" style="fill:#cc9898;fill-opacity:0.3;fill-rule:nonzero;"/>
					</g>
					<g transform="matrix(-1,0,0,1,494.904,-8)">
						<path d="M274.316,430.563L295.211,418.143L344.588,413.679L274.316,430.563Z" style="fill:#cc9898;fill-opacity:0.3;fill-rule:nonzero;"/>
					</g>
				</g>
			</g>
			<g>
				<g transform="matrix(0.505759,0.131166,0.141056,-0.54389,-75.2624,571.699)">
					<path d="M351.876,384.242L360.394,396.126L343.357,396.126L351.876,384.242Z"/>
				</g>
				<g transform="matrix(-0.505759,0.131166,-0.141056,-0.54389,587.262,571.703)">
					<path d="M351.876,384.242L360.394,396.126L343.357,396.126L351.876,384.242Z"/>
				</g>
				<path d="M164.781,394.857C190.554,422.074 217.656,437.725 246.089,441.812C274.521,445.899 304.956,429.272 337.393,391.93L355.132,404.5L386.9,425.6L379.157,537.415L109.791,552L100.068,449.907L152.951,407.791L164.781,394.857Z" style="fill:#5f0000;fill-rule:nonzero;"/>
				<g>
					<clipPath id="_clip4">
						<path d="M164.781,394.857C190.554,422.074 217.656,437.725 246.089,441.812C274.521,445.899 304.956,429.272 337.393,391.93L355.132,404.5L386.9,425.6L379.157,537.415L109.791,552L100.068,449.907L152.951,407.791L164.781,394.857Z"/>
					</clipPath>
					<g clip-path="url(#_clip4)">
						<g transform="matrix(1.19088,0.0677984,-0.0573258,1.00693,-42.2559,-25.5249)">
							<path d="M359.454,384C359.454,384 328.802,449.713 320.628,477.219C313.462,501.333 311.194,555.764 311.194,555.764L367.454,552L359.454,384Z" style="fill:#4b0000;fill-rule:nonzero;"/>
						</g>
						<path d="M143.822,372.122L367.454,372.122C345.866,412.261 324.799,436.569 304.253,445.046C273.435,457.761 229.377,456.034 192.438,440.184C167.811,429.617 151.606,406.93 143.822,372.122Z" style="fill:#850808;fill-rule:nonzero;"/>
					</g>
				</g>
				<path d="M134.823,411.015C137.631,410.372 144.113,407.131 154.27,401.292C165.691,429.1 173.794,450.782 178.577,466.339C183.36,481.896 189.843,510.449 198.024,552L52.177,552C39.751,517.818 34.889,498.372 37.592,493.661C41.647,486.595 49.894,488.25 57.038,488.8C49.674,482.663 46.215,474.015 47.315,464.492C48.416,454.969 67.592,450.196 76.485,440.184C85.377,430.172 89.436,411.763 95.931,411.015C102.426,410.267 101.654,416.184 105.654,415.876C108.321,415.671 111.562,412.43 115.377,406.153C125.533,410.037 132.015,411.658 134.823,411.015Z" style="fill:#393838;fill-rule:nonzero;"/>
				<g>
					<clipPath id="_clip5">
						<path d="M134.823,411.015C137.631,410.372 144.113,407.131 154.27,401.292C165.691,429.1 173.794,450.782 178.577,466.339C183.36,481.896 189.843,510.449 198.024,552L52.177,552C39.751,517.818 34.889,498.372 37.592,493.661C41.647,486.595 49.894,488.25 57.038,488.8C49.674,482.663 46.215,474.015 47.315,464.492C48.416,454.969 67.592,450.196 76.485,440.184C85.377,430.172 89.436,411.763 95.931,411.015C102.426,410.267 101.654,416.184 105.654,415.876C108.321,415.671 111.562,412.43 115.377,406.153C125.533,410.037 132.015,411.658 134.823,411.015Z"/>
					</clipPath>
					<g clip-path="url(#_clip5)">
						<path d="M95.931,406.153C124.921,434.745 144.367,460.673 154.27,483.938C164.172,507.203 181.998,544.475 207.747,595.754L222.331,586.031L159.131,386.707L95.931,406.153Z" style="fill:#2e2e2e;fill-rule:nonzero;"/>
						<path d="M149.716,517.415L115.685,478.523L81.654,449.354C99.503,457.479 112.467,465.582 120.546,473.661C128.626,481.74 138.349,496.325 149.716,517.415Z" style="fill:#464646;fill-rule:nonzero;"/>
						<path d="M159.131,537.415L61.9,479.077C60.991,485.465 60.991,490.326 61.9,493.661C62.809,496.996 75.773,501.858 100.792,508.246L159.131,537.415Z" style="fill:#2f2f2f;fill-rule:nonzero;"/>
					</g>
				</g>
				<path d="M377.177,411.015C374.369,410.372 367.887,407.131 357.73,401.292C346.309,429.1 338.206,450.782 333.423,466.339C328.64,481.896 322.157,510.449 313.976,552L459.823,552C472.249,517.818 477.111,498.372 474.408,493.661C470.353,486.595 462.106,488.25 454.962,488.8C462.326,482.663 465.785,474.015 464.685,464.492C463.584,454.969 444.408,450.196 435.515,440.184C426.623,430.172 422.564,411.763 416.069,411.015C409.574,410.267 410.346,416.184 406.346,415.876C403.679,415.671 400.438,412.43 396.623,406.153C386.467,410.037 379.985,411.658 377.177,411.015Z" style="fill:#393838;fill-rule:nonzero;"/>
				<g>
					<clipPath id="_clip6">
						<path d="M377.177,411.015C374.369,410.372 367.887,407.131 357.73,401.292C346.309,429.1 338.206,450.782 333.423,466.339C328.64,481.896 322.157,510.449 313.976,552L459.823,552C472.249,517.818 477.111,498.372 474.408,493.661C470.353,486.595 462.106,488.25 454.962,488.8C462.326,482.663 465.785,474.015 464.685,464.492C463.584,454.969 444.408,450.196 435.515,440.184C426.623,430.172 422.564,411.763 416.069,411.015C409.574,410.267 410.346,416.184 406.346,415.876C403.679,415.671 400.438,412.43 396.623,406.153C386.467,410.037 379.985,411.658 377.177,411.015Z"/>
					</clipPath>
					<g clip-path="url(#_clip6)">
						<path d="M416.069,406.153C387.079,434.745 367.633,460.673 357.73,483.938C347.828,507.203 330.002,544.475 304.253,595.754L289.669,586.031L352.869,386.707L416.069,406.153Z" style="fill:#2e2e2e;fill-rule:nonzero;"/>
						<path d="M338.284,537.415L372.315,498.523L406.346,469.354C388.497,477.479 375.533,485.582 367.454,493.661C359.374,501.74 349.651,516.325 338.284,537.415Z" style="fill:#2f2f2f;fill-rule:nonzero;"/>
						<path d="M352.869,537.415L450.1,479.077C450.503,487.321 450.503,492.182 450.1,493.661C449.495,495.879 438.795,499.834 432.293,502.34C427.5,504.187 420.471,506.156 411.208,508.246L352.869,537.415Z" style="fill:#464646;fill-rule:nonzero;"/>
					</g>
				</g>
			</g>
			<g>
				<path d="M415.74,332.544C418.677,353.165 418.677,368.859 415.74,379.626C412.804,390.393 407.573,400.856 400.046,411.015C400.537,421.314 395.305,426.546 384.352,426.709C373.399,426.873 368.167,421.642 368.657,411.015L337.335,395.321C325.324,421.69 314.839,437.385 305.88,442.404C287.279,452.824 276.66,444.273 274.492,442.404C267.38,436.273 283.659,415.461 290.186,411.015C296.713,406.569 305.88,403.983 305.88,395.321C305.88,386.659 293.591,386.814 290.186,379.626C286.781,372.439 297.788,313.606 321.575,309.192C333.468,306.984 321.886,284.588 337.335,276.924C352.784,269.261 395.264,299.684 400.046,301.155C406.422,303.117 411.653,313.58 415.74,332.544Z" style="fill:#87888a;fill-rule:nonzero;"/>
				<g>
					<g>
						<clipPath id="_clip7">
							<path d="M415.74,332.544C418.677,353.165 418.677,368.859 415.74,379.626C412.804,390.393 407.573,400.856 400.046,411.015C400.537,421.314 395.305,426.546 384.352,426.709C373.399,426.873 368.167,421.642 368.657,411.015L337.335,395.321C325.324,421.69 314.839,437.385 305.88,442.404C287.279,452.824 276.66,444.273 274.492,442.404C267.38,436.273 283.659,415.461 290.186,411.015C296.713,406.569 305.88,403.983 305.88,395.321C305.88,386.659 293.591,386.814 290.186,379.626C286.781,372.439 297.788,313.606 321.575,309.192C333.468,306.984 321.886,284.588 337.335,276.924C352.784,269.261 395.264,299.684 400.046,301.155C406.422,303.117 411.653,313.58 415.74,332.544Z"/>
						</clipPath>
						<g clip-path="url(#_clip7)">
							<path d="M286.63,382.945L305.068,392.164C297.962,383.879 294.889,373.021 295.849,359.589C297.29,339.442 306.797,335.408 318.897,327.63C330.997,319.851 376.751,318.611 392.65,313.801C400.566,311.407 432.336,299.875 424.917,290.753C417.498,281.631 384.984,278.529 346.555,265.394C325.105,258.063 302.057,289.564 277.411,359.897L286.63,382.945Z" style="fill:#74777b;fill-rule:nonzero;"/>
							<g>
								<g>
									<clipPath id="_clip8">
										<path d="M286.63,382.945L305.068,392.164C297.962,383.879 294.889,373.021 295.849,359.589C297.29,339.442 306.797,335.408 318.897,327.63C330.997,319.851 376.751,318.611 392.65,313.801C400.566,311.407 432.336,299.875 424.917,290.753C417.498,281.631 384.984,278.529 346.555,265.394C325.105,258.063 302.057,289.564 277.411,359.897L286.63,382.945Z"/>
									</clipPath>
									<g clip-path="url(#_clip8)">
										<path d="M268.192,364.506C306.221,371.421 326.195,380.64 328.116,392.164C330.037,403.688 310.062,405.224 268.192,396.773L268.192,364.506Z" style="fill:#e8e8e8;fill-rule:nonzero;"/>
									</g>
								</g>
							</g>
							<path d="M360.053,415.212C368.466,418.073 376.26,419.61 383.433,419.821C400.964,420.338 414.792,400.083 424.917,398.85C439.186,397.112 421.95,411.517 373.21,442.066L360.053,415.212Z" style="fill:#74777b;fill-rule:nonzero;"/>
							<path d="M332.726,405.993C342.665,399.654 334.886,379.632 333.619,373.726C333.596,369.821 335.132,365.211 338.229,359.897C344.183,382.537 351.866,396.366 361.277,401.383C370.688,406.4 374.963,409.473 374.104,410.602L356.667,415.212C347.044,411.467 339.064,408.394 332.726,405.993Z" style="fill:#74777b;fill-rule:nonzero;"/>
							<path d="M338.229,398.85C337.001,371.153 341.313,352.023 351.164,341.459C365.941,325.612 380.155,311.825 397.26,323.02C414.364,334.216 403.778,356.712 397.26,373.726C392.915,385.068 382.159,397.36 364.993,410.602L338.229,398.85Z" style="fill:#fff;fill-rule:nonzero;"/>
							<g>
								<g>
									<clipPath id="_clip9">
										<path d="M338.229,398.85C337.001,371.153 341.313,352.023 351.164,341.459C365.941,325.612 380.155,311.825 397.26,323.02C414.364,334.216 403.778,356.712 397.26,373.726C392.915,385.068 382.159,397.36 364.993,410.602L338.229,398.85Z"/>
									</clipPath>
									<g clip-path="url(#_clip9)">
										<path d="M332.726,405.993C342.665,399.654 334.886,379.632 333.619,373.726C333.596,369.821 335.132,365.211 338.229,359.897C344.183,382.537 351.866,396.366 361.277,401.383C370.688,406.4 374.963,409.473 374.104,410.602L356.667,415.212C347.044,411.467 339.064,408.394 332.726,405.993Z" style="fill:#e8e8e8;fill-rule:nonzero;"/>
									</g>
								</g>
							</g>
							<path d="M305.068,415.212C313.219,422.408 324.272,423.944 338.229,419.821C305.998,463.67 283.742,479.545 271.459,467.447C259.176,455.35 264.233,427.182 286.63,382.945C290.772,397.26 296.918,408.015 305.068,415.212Z" style="fill:#fff;fill-rule:nonzero;"/>
						</g>
					</g>
				</g>
				<g class="catTail">
					<path d="M390.827,312.24C387.779,304.838 424.211,295.506 437.91,280.851C451.609,266.197 459.244,223.224 469.298,218.074C479.352,212.924 485.238,227.638 484.993,233.768C484.747,239.899 470.68,278.278 453.604,296.545C442.22,308.723 426.526,319.186 406.521,327.934C398.09,322.406 392.859,317.175 390.827,312.24Z" style="fill:#87888a;fill-rule:nonzero;"/>
					<g>
						<g>
							<clipPath id="_clip10">
								<path d="M390.827,312.24C387.779,304.838 424.211,295.506 437.91,280.851C451.609,266.197 459.244,223.224 469.298,218.074C479.352,212.924 485.238,227.638 484.993,233.768C484.747,239.899 470.68,278.278 453.604,296.545C442.22,308.723 426.526,319.186 406.521,327.934C398.09,322.406 392.859,317.175 390.827,312.24Z"/>
							</clipPath>
							<g clip-path="url(#_clip10)">
								<path d="M406.521,296.545C414.042,309.134 427.857,309.134 447.965,296.545C468.074,283.957 454.259,299.651 406.521,343.628L375.133,312.24L406.521,296.545Z" style="fill:#74777b;fill-rule:nonzero;"/>
							</g>
						</g>
					</g>
				</g>
				<g>
					<path d="M283.964,433.88C285.56,432.926 287.386,433.037 288.039,434.129C288.691,435.221 287.925,436.882 286.328,437.837C284.732,438.791 282.906,438.679 282.253,437.587C281.601,436.495 282.367,434.834 283.964,433.88Z" style="fill:#f6cbbb;fill-rule:nonzero;"/>
					<path d="M290.878,438.264C292.475,437.31 294.301,437.422 294.953,438.514C295.606,439.605 294.839,441.267 293.243,442.221C291.646,443.175 289.82,443.063 289.168,441.971C288.515,440.879 289.281,439.218 290.878,438.264Z" style="fill:#f6cbbb;fill-rule:nonzero;"/>
					<path d="M300.212,436.507C301.809,435.552 303.635,435.664 304.287,436.756C304.94,437.848 304.173,439.509 302.577,440.463C300.98,441.417 299.154,441.306 298.502,440.214C297.849,439.122 298.616,437.461 300.212,436.507Z" style="fill:#f6cbbb;fill-rule:nonzero;"/>
					<path d="M284.627,425.979C286.223,425.025 288.049,425.137 288.702,426.229C289.355,427.321 288.588,428.982 286.992,429.936C285.395,430.89 283.569,430.778 282.916,429.686C282.264,428.594 283.03,426.933 284.627,425.979Z" style="fill:#f6cbbb;fill-rule:nonzero;"/>
					<path d="M299.945,425.331C303.236,424.543 306.215,425.307 306.753,427.139C307.324,429.085 304.923,431.506 301.394,432.541C298.511,433.387 294.347,433.532 292.577,432.541C290.807,431.551 290.781,427.321 292.577,424.112C294.373,420.903 297.269,419.102 299.039,420.093C300.37,420.838 300.688,422.95 299.945,425.331Z" style="fill:#f6cbbb;fill-rule:nonzero;"/>
				</g>
				<g>
					<path d="M395.364,332.397L384.863,332.348" style="fill:none;fill-rule:nonzero;stroke:#f6cbbb;stroke-width:3px;stroke-linecap:round;"/>
					<path d="M388.117,327.517L392.11,337.228" style="fill:none;fill-rule:nonzero;stroke:#f6cbbb;stroke-width:3px;stroke-linecap:round;"/>
				</g>
			</g>
			<g>
				<g>
					<path d="M336.775,263.249C338.292,269.24 357.553,264.121 361.549,262.185C365.545,260.25 367.88,252.615 374.172,244.529C378.813,238.564 385.383,233.463 386.78,226.964C388.176,220.466 384.571,191.169 377.685,190.946C368.482,190.818 361.575,193.012 356.964,197.527C352.353,202.042 350.085,206.027 350.16,209.482C340.225,241.333 335.763,259.255 336.775,263.249Z" style="fill:#f8d1bb;fill-rule:nonzero;"/>
					<g>
						<clipPath id="_clip11">
							<path d="M336.775,263.249C338.292,269.24 357.553,264.121 361.549,262.185C365.545,260.25 367.88,252.615 374.172,244.529C378.813,238.564 385.383,233.463 386.78,226.964C388.176,220.466 384.571,191.169 377.685,190.946C368.482,190.818 361.575,193.012 356.964,197.527C352.353,202.042 350.085,206.027 350.16,209.482C340.225,241.333 335.763,259.255 336.775,263.249Z"/>
						</clipPath>
						<g clip-path="url(#_clip11)">
							<path d="M370.125,238.97C378.432,228.606 382.641,222.707 382.754,221.273C382.923,219.122 382.472,217.082 381.653,215.113C380.239,211.713 377.728,208.527 375.417,205.354C373.877,203.238 368.718,203.647 359.941,206.581L357.965,222.428L370.125,238.97Z" style="fill:#daaca3;fill-rule:nonzero;"/>
							<path d="M357.23,227.098C360.761,232.021 361.858,235.475 360.52,237.458C358.514,240.434 348.524,250.164 348.301,252.552C348.079,254.94 367.822,242.853 370.125,238.97C372.428,235.088 374.903,224.251 373.178,219.577C372.028,216.461 369.158,213.852 364.568,211.75L359.765,210.994L357.23,227.098Z" style="fill:#edbaa9;fill-rule:nonzero;"/>
						</g>
					</g>
					<g transform="matrix(-0.995001,0.0998695,0.0998695,0.995001,484.026,-12.3032)">
						<path d="M151.313,251.343C151.011,251.725 149.817,253.211 149.523,253.613C144.233,260.84 145.113,265.249 148.182,267.495C150.228,268.993 153.927,267.695 157.733,264.521" style="fill:none;fill-rule:nonzero;stroke:#423f3d;stroke-width:4px;stroke-linejoin:round;stroke-miterlimit:3;stroke-linecap:round;"/>
					</g>
					<g transform="matrix(0.991444,-0.13053,0.13053,0.991444,-24.3152,52.2795)">
						<path d="M378.892,215.806C387.758,214.522 394.703,211.736 394.392,209.589C394.219,208.396 391.843,207.65 388.244,207.442" style="fill:none;fill-rule:nonzero;stroke:#595756;stroke-width:4px;stroke-linejoin:round;stroke-miterlimit:3;stroke-linecap:round;"/>
					</g>
					<path d="M342.479,259.088C342.904,256.384 345.402,254.527 348.052,254.945C350.703,255.362 352.509,257.896 352.083,260.6C351.658,263.304 349.16,265.16 346.51,264.743C343.859,264.326 342.053,261.792 342.479,259.088Z" style="fill:#423f3d;fill-rule:nonzero;"/>
				</g>
				<g>
					<path d="M177.228,265.521C175.148,271.341 156.46,264.416 152.666,262.109C148.872,259.803 147.273,251.981 141.778,243.334C137.724,236.955 131.668,231.253 130.895,224.651C130.122,218.05 136.493,189.228 143.369,189.66C152.543,190.407 159.211,193.246 163.372,198.179C167.533,203.112 169.412,207.294 169.009,210.726C175.875,243.376 178.615,261.641 177.228,265.521Z" style="fill:#f8d1bb;fill-rule:nonzero;"/>
					<g>
						<clipPath id="_clip12">
							<path d="M177.228,265.521C175.148,271.341 156.46,264.416 152.666,262.109C148.872,259.803 147.273,251.981 141.778,243.334C137.724,236.955 131.668,231.253 130.895,224.651C130.122,218.05 136.493,189.228 143.369,189.66C152.543,190.407 159.211,193.246 163.372,198.179C167.533,203.112 169.412,207.294 169.009,210.726C175.875,243.376 178.615,261.641 177.228,265.521Z"/>
						</clipPath>
						<g clip-path="url(#_clip12)">
							<path d="M146.334,238.185C139.049,227.078 135.419,220.806 135.443,219.368C135.478,217.211 136.121,215.222 137.124,213.34C138.854,210.091 141.657,207.157 144.258,204.217C145.992,202.258 151.007,202.258 159.304,204.217L160.01,222.872L146.334,238.185Z" style="fill:#daaca3;fill-rule:nonzero;"/>
							<path d="M160.298,227.59C156.315,232.157 154.896,235.491 156.039,237.592C157.753,240.744 166.775,251.38 166.769,253.778C166.763,256.176 148.258,242.268 146.334,238.185C144.41,234.102 142.975,223.078 145.136,218.589C146.577,215.596 149.682,213.272 154.451,211.615L159.304,211.319L160.298,227.59Z" style="fill:#edbaa9;fill-rule:nonzero;"/>
						</g>
					</g>
					<g transform="matrix(0.995001,0.0998695,-0.0998695,0.995001,27.2895,-12.4417)">
						<path d="M142.591,243.604C137.299,250.832 135.496,258.525 138.565,260.771C140.27,262.019 143.123,261.326 146.229,259.223" style="fill:none;fill-rule:nonzero;stroke:#3b3937;stroke-width:4px;stroke-linejoin:round;stroke-miterlimit:3;stroke-linecap:round;"/>
					</g>
					<g transform="matrix(0.995001,0.0998695,-0.0998695,0.995001,27.2895,-12.4417)">
						<path d="M151.313,251.343C151.011,251.725 149.817,253.211 149.523,253.613C144.233,260.84 145.113,265.249 148.182,267.495C150.228,268.993 153.927,267.695 157.733,264.521" style="fill:none;fill-rule:nonzero;stroke:#423f3d;stroke-width:4px;stroke-linejoin:round;stroke-miterlimit:3;stroke-linecap:round;"/>
					</g>
					<g transform="matrix(-0.859932,0.510409,-0.510409,-0.859932,595.204,305.866)">
						<path d="M342.479,259.088C342.904,256.384 345.402,254.527 348.052,254.945C350.703,255.362 352.509,257.896 352.083,260.6C351.658,263.304 349.16,265.16 346.51,264.743C343.859,264.326 342.053,261.792 342.479,259.088Z" style="fill:#423f3d;fill-rule:nonzero;"/>
					</g>
				</g>
			</g>
			<g>
				<g>
					<path d="M228.879,470.882L184.484,454.148C169.169,450.94 160.336,448.375 157.987,446.453C155.638,444.53 153.114,443.797 150.417,444.254C142.663,438.122 136.697,435.109 132.519,435.216C128.34,435.323 124.555,434.223 121.163,431.918L112.564,433.261L102.236,426.421L100.508,418.239L111.864,421.537L118.406,427.277C128.413,429.184 134.722,431.016 137.332,432.774C139.943,434.532 142.466,435.265 144.903,434.973L160.044,439.37C172.797,445.954 181.973,447.339 187.57,443.524L194.112,449.264L213.038,454.761L231.965,460.258L228.879,470.882Z" style="fill:#5e4038;fill-rule:nonzero;"/>
					<g>
						<clipPath id="_clip13">
							<path d="M228.879,470.882L184.484,454.148C169.169,450.94 160.336,448.375 157.987,446.453C155.638,444.53 153.114,443.797 150.417,444.254C142.663,438.122 136.697,435.109 132.519,435.216C128.34,435.323 124.555,434.223 121.163,431.918L112.564,433.261L102.236,426.421L100.508,418.239L111.864,421.537L118.406,427.277C128.413,429.184 134.722,431.016 137.332,432.774C139.943,434.532 142.466,435.265 144.903,434.973L160.044,439.37C172.797,445.954 181.973,447.339 187.57,443.524L194.112,449.264L213.038,454.761L231.965,460.258L228.879,470.882Z"/>
						</clipPath>
						<g clip-path="url(#_clip13)">
							<path d="M198.597,462.087C196.691,455.694 192.33,451.867 185.513,450.607L183.456,457.69C195.455,467.015 200.502,468.48 198.597,462.087Z" style="fill:#462f28;fill-rule:nonzero;"/>
							<path d="M163.829,440.47C161.924,434.076 157.562,430.249 150.745,428.989L148.688,436.072C160.688,445.397 165.735,446.863 163.829,440.47Z" style="fill:#462f28;fill-rule:nonzero;"/>
							<path d="M219.58,460.501C217.675,454.108 213.313,450.281 206.496,449.021L204.439,456.104C216.439,465.429 221.486,466.894 219.58,460.501Z" style="fill:#462f28;fill-rule:nonzero;"/>
							<path d="M140.089,437.415C138.184,431.021 133.822,427.194 127.005,425.935L124.948,433.017C136.948,442.342 141.995,443.808 140.089,437.415Z" style="fill:#462f28;fill-rule:nonzero;"/>
							<path d="M114.621,426.178L118.077,442.542L106.721,439.244L104.293,419.339L114.621,426.178Z" style="fill:#462f28;fill-rule:nonzero;"/>
							<path d="M179.155,453.835L182.611,470.199L171.255,466.901L168.827,446.996L179.155,453.835Z" style="fill:#462f28;fill-rule:nonzero;"/>
						</g>
					</g>
					<path d="M305.99,466.396L279.374,462.506L271.124,460.11L267.345,462.853L261.845,461.256L253.594,462.699L230.567,456.012L223.345,450.074L218.538,456.358L216.817,452.018L216.481,463.441L210.981,461.844L215.453,466.982L217.174,471.322L223.703,469.378L248.451,480.406L278.367,496.774L279.396,493.233L286.617,499.17L290.396,496.428L292.917,501L294.974,493.917L300.624,491.718L300.847,484.103L303.709,481.094L302.904,477.02L308.989,474.948L305.99,466.396Z" style="fill:#e8cba1;fill-rule:nonzero;"/>
					<g>
						<clipPath id="_clip14">
							<path d="M305.99,466.396L279.374,462.506L271.124,460.11L267.345,462.853L261.845,461.256L253.594,462.699L230.567,456.012L223.345,450.074L218.538,456.358L216.817,452.018L216.481,463.441L210.981,461.844L215.453,466.982L217.174,471.322L223.703,469.378L248.451,480.406L278.367,496.774L279.396,493.233L286.617,499.17L290.396,496.428L292.917,501L294.974,493.917L300.624,491.718L300.847,484.103L303.709,481.094L302.904,477.02L308.989,474.948L305.99,466.396Z"/>
						</clipPath>
						<g clip-path="url(#_clip14)">
							<path d="M236.782,496.217L252.902,450.978L229.874,448.13L221.31,487.884L236.782,496.217Z" style="fill:#b7b104;fill-rule:nonzero;"/>
							<path d="M292.703,489.89C269.06,478.242 253.819,472.12 246.982,471.523C301.105,495.415 316.346,501.537 292.703,489.89Z" style="fill:#b98741;fill-rule:nonzero;"/>
							<path d="M284.269,468.383C310.506,471.022 326.682,473.897 332.795,477.01C274.207,468.621 258.032,465.745 284.269,468.383Z" style="fill:#b98741;fill-rule:nonzero;"/>
							<path d="M296.863,476.359C322.088,483.432 337.501,489.053 343.103,493.222C287.052,474.907 271.638,469.286 296.863,476.359Z" style="fill:#b98741;fill-rule:nonzero;"/>
							<path d="M283.75,493.631C306.095,508.14 319.5,518.311 323.964,524.142C274.809,489.292 261.405,479.122 283.75,493.631Z" style="fill:#b98741;fill-rule:nonzero;"/>
							<path d="M304.875,489.113C280.994,478.058 265.623,472.313 258.76,471.88C313.384,494.424 328.756,500.168 304.875,489.113Z" style="fill:#b98741;fill-rule:nonzero;"/>
							<path d="M230.25,486.583C241.616,462.848 247.56,447.553 248.083,440.696C224.828,495.021 218.884,510.317 230.25,486.583Z" style="fill:#98930d;fill-rule:nonzero;"/>
							<path d="M221.031,486.583C232.397,462.848 238.341,447.553 238.864,440.696C215.609,495.021 209.665,510.317 221.031,486.583Z" style="fill:#98930d;fill-rule:nonzero;"/>
							<path d="M225.641,486.583C237.007,462.848 242.951,447.553 243.474,440.696C220.219,495.021 214.275,510.317 225.641,486.583Z" style="fill:#98930d;fill-rule:nonzero;"/>
							<path d="M234.86,486.583C246.226,462.848 252.17,447.553 252.693,440.696C229.438,495.021 223.494,510.317 234.86,486.583Z" style="fill:#98930d;fill-rule:nonzero;"/>
						</g>
					</g>
				</g>
				<g>
					<path d="M113.643,414.656C111.957,416.556 109.806,417.466 107.763,416.945C107.23,416.808 106.734,416.582 106.281,416.282C104.576,420.027 101.412,422.24 98.473,421.49C94.877,420.572 92.971,415.562 94.218,410.31C95.465,405.057 99.397,401.538 102.993,402.456C103.527,402.593 104.023,402.819 104.475,403.119C106.181,399.374 109.345,397.161 112.284,397.911C113.633,398.256 114.744,399.176 115.575,400.429C117.262,398.528 119.413,397.618 121.455,398.14C125.051,399.058 126.958,404.067 125.71,409.32C124.463,414.572 120.531,418.091 116.935,417.173C115.586,416.828 114.474,415.908 113.643,414.656Z" style="fill:#ebebeb;fill-rule:nonzero;"/>
					<g>
						<g>
							<clipPath id="_clip15">
								<path d="M113.643,414.656C111.957,416.556 109.806,417.466 107.763,416.945C107.23,416.808 106.734,416.582 106.281,416.282C104.576,420.027 101.412,422.24 98.473,421.49C94.877,420.572 92.971,415.562 94.218,410.31C95.465,405.057 99.397,401.538 102.993,402.456C103.527,402.593 104.023,402.819 104.475,403.119C106.181,399.374 109.345,397.161 112.284,397.911C113.633,398.256 114.744,399.176 115.575,400.429C117.262,398.528 119.413,397.618 121.455,398.14C125.051,399.058 126.958,404.067 125.71,409.32C124.463,414.572 120.531,418.091 116.935,417.173C115.586,416.828 114.474,415.908 113.643,414.656Z"/>
							</clipPath>
							<g clip-path="url(#_clip15)">
								<path d="M107.422,406.853C108.03,404.294 109.521,402.471 110.75,402.785C111.979,403.098 112.483,405.431 111.875,407.99C111.267,410.55 109.776,412.373 108.547,412.059C107.318,411.745 106.814,409.413 107.422,406.853Z" style="fill:#e5b5a3;fill-rule:nonzero;"/>
								<path d="M117.14,407.054C117.748,404.495 119.239,402.672 120.468,402.986C121.697,403.299 122.201,405.632 121.593,408.191C120.985,410.751 119.494,412.574 118.265,412.26C117.036,411.946 116.532,409.614 117.14,407.054Z" style="fill:#e5b5a3;fill-rule:nonzero;"/>
								<path d="M98.243,411.427C98.851,408.868 100.342,407.044 101.571,407.358C102.8,407.672 103.304,410.005 102.696,412.564C102.088,415.123 100.597,416.946 99.368,416.633C98.139,416.319 97.635,413.986 98.243,411.427Z" style="fill:#e5b5a3;fill-rule:nonzero;"/>
							</g>
						</g>
					</g>
					<path d="M220.648,352.448C224.976,365.719 230.086,395.344 229.627,401.276C229.168,407.208 196.767,472.538 196.087,474.459C195.406,476.379 199.246,478.474 198.786,484.406C198.327,490.338 189.594,492.841 187.474,493.884C185.354,494.927 181.264,495.163 177.981,494.324C174.699,493.485 167.003,485.355 166.244,482.557C165.485,479.76 168.406,470.791 169.883,464.482C171.359,458.173 191.398,406.511 191.656,403.036C191.829,400.72 182.507,384.737 163.692,355.088L204.421,316.267C212.354,331.54 217.763,343.601 220.648,352.448Z" style="fill:#808080;fill-rule:nonzero;"/>
					<g>
						<g>
							<clipPath id="_clip16">
								<path d="M220.648,352.448C224.976,365.719 230.086,395.344 229.627,401.276C229.168,407.208 196.767,472.538 196.087,474.459C195.406,476.379 199.246,478.474 198.786,484.406C198.327,490.338 189.594,492.841 187.474,493.884C185.354,494.927 181.264,495.163 177.981,494.324C174.699,493.485 167.003,485.355 166.244,482.557C165.485,479.76 168.406,470.791 169.883,464.482C171.359,458.173 191.398,406.511 191.656,403.036C191.829,400.72 182.507,384.737 163.692,355.088L204.421,316.267C212.354,331.54 217.763,343.601 220.648,352.448Z"/>
							</clipPath>
							<g clip-path="url(#_clip16)">
								<path d="M251.144,439.869L140.514,485.965L186.61,375.335L228.096,352.287L251.144,439.869Z" style="fill:#7b7d82;fill-rule:nonzero;"/>
								<g transform="matrix(0.903725,0.428113,0.428113,-0.903725,-104.041,555.137)">
									<path d="M126.685,338.459C140.898,301.834 162.41,280.481 191.219,274.401C220.029,268.322 244.614,295.82 264.973,356.897C207.353,379.945 176.622,390.701 172.781,389.164C168.94,387.627 153.574,370.726 126.685,338.459Z" style="fill:#74777b;fill-rule:nonzero;"/>
								</g>
								<path d="M158.952,476.746C168.748,460.612 196.981,475.017 209.658,481.355C218.109,485.58 210.426,493.263 186.61,504.403C161.641,496.72 152.422,487.501 158.952,476.746Z" style="fill:#fff;fill-rule:nonzero;"/>
								<g>
									<g>
										<clipPath id="_clip17">
											<path d="M158.952,476.746C168.748,460.612 196.981,475.017 209.658,481.355C218.109,485.58 210.426,493.263 186.61,504.403C161.641,496.72 152.422,487.501 158.952,476.746Z"/>
										</clipPath>
										<g clip-path="url(#_clip17)">
											<path d="M251.144,439.869L140.514,485.965L186.61,375.335L228.096,352.287L251.144,439.869Z" style="fill:#e8e8e8;fill-rule:nonzero;"/>
										</g>
									</g>
								</g>
								<path d="M185.044,478.049C185.017,478.033 184.988,478.02 184.959,478.007C180.8,476.141 176.579,476.51 175.537,478.832C174.496,481.153 177.026,484.552 181.185,486.418C183.059,487.259 187.284,488.049 187.722,488.064C189.7,488.132 191.406,485.309 191.528,481.764C191.65,478.22 190.143,475.286 188.165,475.218C186.901,475.175 185.749,476.31 185.044,478.049Z" style="fill:#808080;fill-rule:nonzero;"/>
							</g>
						</g>
					</g>
					<path d="M126.685,338.459C140.898,301.834 162.41,280.481 191.219,274.401C234.434,265.282 212.596,299.748 210.418,330.719C208.24,361.69 214.934,341.939 209.357,352.287C203.779,362.636 181.96,382.249 176.198,379.945C172.357,378.408 155.853,364.58 126.685,338.459Z" style="fill:#74777b;fill-rule:nonzero;"/>
					<g>
						<path d="M69.326,350.762C66.667,354.85 82.143,364.996 89.324,371.98C94.112,376.636 99.055,381.03 104.152,385.162L111.073,346.622C104.412,345.222 98.202,345.431 92.443,347.249C83.805,349.975 71.986,346.675 69.326,350.762Z" style="fill:#87888a;fill-rule:nonzero;"/>
						<g>
							<g>
								<clipPath id="_clip18">
									<path d="M69.326,350.762C66.667,354.85 82.143,364.996 89.324,371.98C94.112,376.636 99.055,381.03 104.152,385.162L111.073,346.622C104.412,345.222 98.202,345.431 92.443,347.249C83.805,349.975 71.986,346.675 69.326,350.762Z"/>
								</clipPath>
								<g clip-path="url(#_clip18)">
									<path d="M114.23,344.599L98.351,371.194C96.737,358.296 97.964,349.998 102.033,346.3C106.101,342.603 110.167,342.036 114.23,344.599Z" style="fill:#74777b;fill-rule:nonzero;"/>
									<path d="M112.951,363.77C109.874,354.424 97.216,357.662 76.014,352.833C61.879,349.614 68.096,362.512 94.664,391.528L103.883,391.478C111.979,379.237 115.002,370.001 112.951,363.77Z" style="fill:#f6cbbb;fill-rule:nonzero;"/>
									<g>
										<g>
											<clipPath id="_clip19">
												<path d="M112.951,363.77C109.874,354.424 97.216,357.662 76.014,352.833C61.879,349.614 68.096,362.512 94.664,391.528L103.883,391.478C111.979,379.237 115.002,370.001 112.951,363.77Z"/>
											</clipPath>
											<g clip-path="url(#_clip19)">
												<path d="M112.209,354.706L103.203,388.983C98.225,369.406 96.757,357.065 98.798,351.96C100.988,346.485 105.458,347.401 112.209,354.706Z" style="fill:#e5b5a3;fill-rule:nonzero;"/>
											</g>
										</g>
									</g>
								</g>
							</g>
						</g>
						<path d="M182.253,287.064C187.711,287.368 186.628,308.082 188.183,319.203C189.22,326.617 189.917,333.997 190.275,341.344L150.846,322.062C153.995,315.113 158.299,309.637 163.758,305.634C171.947,299.631 176.796,286.759 182.253,287.064Z" style="fill:#6b6d6f;fill-rule:nonzero;"/>
						<g>
							<g>
								<clipPath id="_clip20">
									<path d="M182.253,287.064C187.711,287.368 186.628,308.082 188.183,319.203C189.22,326.617 189.917,333.997 190.275,341.344L150.846,322.062C153.995,315.113 158.299,309.637 163.758,305.634C171.947,299.631 176.796,286.759 182.253,287.064Z"/>
								</clipPath>
								<g clip-path="url(#_clip20)">
									<path d="M177.983,342.811C187.178,338.156 181.586,327.908 182.899,308.555C183.774,295.652 171.43,303.779 145.865,332.934L147.534,340.89C161.703,345.273 171.852,345.914 177.983,342.811Z" style="fill:#e5b5a3;fill-rule:nonzero;"/>
								</g>
							</g>
						</g>
						<path d="M109.657,341.575C115.465,334.641 119.435,330.782 126.351,326.738C133.267,322.693 139.582,320.216 147.467,319.462C155.352,318.707 188.294,334.491 190.447,338.724C192.6,342.957 198.36,355.709 198.596,365.672C198.833,375.635 189.065,387.911 186.968,397.845C184.87,407.778 165.542,417.093 158.611,414.43C151.679,411.767 132.729,413.667 123.923,409.346C115.117,405.024 104.111,388.556 102.612,383.753C101.112,378.95 103.85,348.509 109.657,341.575Z" style="fill:#87888a;fill-rule:nonzero;"/>
						<g>
							<g>
								<clipPath id="_clip21">
									<path d="M109.657,341.575C115.465,334.641 119.435,330.782 126.351,326.738C133.267,322.693 139.582,320.216 147.467,319.462C155.352,318.707 188.294,334.491 190.447,338.724C192.6,342.957 198.36,355.709 198.596,365.672C198.833,375.635 189.065,387.911 186.968,397.845C184.87,407.778 165.542,417.093 158.611,414.43C151.679,411.767 132.729,413.667 123.923,409.346C115.117,405.024 104.111,388.556 102.612,383.753C101.112,378.95 103.85,348.509 109.657,341.575Z"/>
								</clipPath>
								<g clip-path="url(#_clip21)">
									<path d="M209.658,370.726C222.611,412.682 105.366,341.339 114.839,318.078C117.343,311.93 137.019,308.159 173.866,306.765C189.091,321.434 201.022,342.755 209.658,370.726Z" style="fill:#74777b;fill-rule:nonzero;"/>
									<g transform="matrix(0.991462,0.130397,-0.130397,0.991462,47.3598,-18.7181)">
										<path d="M103.637,343.161C133.236,336.31 165.596,348.637 200.717,380.143C235.838,411.65 238.919,388.536 209.962,310.801L112.883,310.801L103.637,343.161Z" style="fill:#6b6d6f;fill-rule:nonzero;"/>
									</g>
								</g>
							</g>
						</g>
						<path class="catTongue" d="M174.625,399.305L166.328,388.242L158.952,393.773L167.25,404.836C168.776,406.872 171.668,407.285 173.703,405.758C175.738,404.232 176.151,401.34 174.625,399.305Z" style="fill:#f6cbbb;fill-rule:nonzero;"/>
						<path d="M144.566,402.347C143.721,408.615 143.203,410.211 151.12,412.468C156.399,413.972 162.7,410.286 170.025,401.411C176.984,401.63 182.118,398.839 185.425,393.038C190.386,384.338 187.971,385.028 183.401,380.902C178.831,376.776 176.608,376.773 173.147,374.214C169.686,371.655 163.239,363.292 160.128,362.799C157.017,362.306 151.761,361.35 147.911,363.602C144.062,365.853 141.676,370.734 141.223,373.856C140.77,376.978 142.904,385.219 144.79,390.799C146.676,396.379 145.412,396.078 144.566,402.347Z" style="fill:#74777b;fill-rule:nonzero;"/>
						<path d="M159.77,394.723C152.861,391.497 148.522,387.692 146.752,383.308C144.096,376.733 145.459,371.379 150.676,368.328C155.893,365.277 160.776,367.454 165.656,372.252C168.91,375.45 170.099,381.097 169.223,389.194L159.77,394.723Z" style="fill:#6b6d6f;fill-rule:nonzero;"/>
						<g>
							<g>
								<clipPath id="_clip22">
									<path d="M159.77,394.723C152.861,391.497 148.522,387.692 146.752,383.308C144.096,376.733 145.459,371.379 150.676,368.328C155.893,365.277 160.776,367.454 165.656,372.252C168.91,375.45 170.099,381.097 169.223,389.194L159.77,394.723Z"/>
								</clipPath>
								<g clip-path="url(#_clip22)">
									<path d="M167.781,398.706C166.404,391.327 163.281,385.187 158.41,380.285C151.103,372.932 142.165,354.543 136.586,352.279C129.178,349.272 143.251,357.209 178.806,376.09L167.781,398.706Z" style="fill:#fff;fill-rule:nonzero;"/>
								</g>
							</g>
						</g>
						<path d="M156.322,392.934C163.132,387.625 161.571,388.886 169.574,385.184C169.888,388.6 169.117,392.434 167.261,396.685C161.94,396.189 158.294,394.939 156.322,392.934Z" style="fill:#f6cbbb;fill-rule:nonzero;"/>
						<g>
							<path d="M177.087,347.833C178.426,354.583 177.972,359.338 175.727,362.098C173.482,364.857 169.497,366.397 163.772,366.716C159.005,366.04 157.465,362.055 159.154,354.761C160.842,347.466 166.82,345.157 177.087,347.833Z" style="fill:#e8e8e8;fill-rule:nonzero;"/>
							<g>
								<g>
									<clipPath id="_clip23">
										<path class="cat-eyelid" d="M177.087,347.833C178.426,354.583 177.972,359.338 175.727,362.098C173.482,364.857 169.497,366.397 163.772,366.716C159.005,366.04 157.465,362.055 159.154,354.761C160.842,347.466 166.82,345.157 177.087,347.833Z"/>
									</clipPath>
									<g clip-path="url(#_clip23)">
										<path d="M158.933,355.95C159.746,350.934 164.478,347.521 169.494,348.334C174.51,349.146 177.923,353.879 177.11,358.895C176.298,363.911 171.566,367.324 166.549,366.511C161.533,365.699 158.12,360.967 158.933,355.95Z" style="fill:#8c8811;fill-rule:nonzero;"/>
										<g>
											<g>
												<clipPath id="_clip24">
													<path d="M158.933,355.95C159.746,350.934 164.478,347.521 169.494,348.334C174.51,349.146 177.923,353.879 177.11,358.895C176.298,363.911 171.566,367.324 166.549,366.511C161.533,365.699 158.12,360.967 158.933,355.95Z"/>
												</clipPath>
												<g clip-path="url(#_clip24)">
													<g transform="matrix(0.798,-0.603,0.603,0.798,-182.309,176.596)">
														<rect x="158.273" y="354.929" width="27.657" height="10.283" style="fill:#b7b104;"/>

													</g>
													<path d="M163.795,359.485C160.276,354.005 158.847,348.64 160.605,347.511C162.363,346.382 166.647,349.914 170.166,355.393C173.685,360.873 175.114,366.238 173.356,367.367C171.598,368.496 167.314,364.964 163.795,359.485Z" style="fill:#373333;fill-rule:nonzero;"/>
													<path d="M163.795,359.485C160.276,354.005 158.847,348.64 160.605,347.511C162.363,346.382 166.647,349.914 170.166,355.393C173.685,360.873 175.114,366.238 173.356,367.367C171.598,368.496 167.314,364.964 163.795,359.485Z" style="fill:#373333;fill-rule:nonzero;stroke:#fff;stroke-opacity:0.75;stroke-width:1.5px;stroke-linecap:square;"/>
												</g>
											</g>
										</g>
									</g>
								</g>
							</g>
							<path d="M117.964,382.852C122.295,388.199 126.239,390.893 129.796,390.934C133.354,390.974 137.087,388.896 140.995,384.701C143.526,380.605 141.448,376.872 134.762,373.502C128.076,370.132 122.477,373.249 117.964,382.852Z" style="fill:#e8e8e8;fill-rule:nonzero;"/>
							<g>
								<g>
									<clipPath id="_clip25">
										<path class="cat-eyelid" d="M117.964,382.852C122.295,388.199 126.239,390.893 129.796,390.934C133.354,390.974 137.087,388.896 140.995,384.701C143.526,380.605 141.448,376.872 134.762,373.502C128.076,370.132 122.477,373.249 117.964,382.852Z"/>
									</clipPath>
									<g clip-path="url(#_clip25)">
										<path d="M135.818,374.094C131.443,371.509 125.792,372.962 123.207,377.337C120.622,381.712 122.075,387.362 126.45,389.947C130.825,392.532 136.475,391.079 139.061,386.704C141.646,382.33 140.193,376.679 135.818,374.094Z" style="fill:#8c8811;fill-rule:nonzero;"/>
										<g>
											<g>
												<clipPath id="_clip26">
													<path d="M135.818,374.094C131.443,371.509 125.792,372.962 123.207,377.337C120.622,381.712 122.075,387.362 126.45,389.947C130.825,392.532 136.475,391.079 139.061,386.704C141.646,382.33 140.193,376.679 135.818,374.094Z"/>
												</clipPath>
												<g clip-path="url(#_clip26)">
													<g transform="matrix(0.879,-0.478,0.478,0.879,-169.445,109.747)">
														<rect x="117.324" y="382.568" width="27.657" height="11.216" style="fill:#b7b104;"/>
													</g>
													<path d="M127.648,383.164C124.294,377.582 123.141,372.107 125.075,370.944C127.01,369.782 131.303,373.37 134.658,378.951C138.012,384.533 139.165,390.009 137.23,391.171C135.296,392.334 131.002,388.746 127.648,383.164Z" style="fill:#373333;fill-rule:nonzero;"/>
													<path d="M127.648,383.164C124.294,377.582 123.141,372.107 125.075,370.944C127.01,369.782 131.303,373.37 134.658,378.951C138.012,384.533 139.165,390.009 137.23,391.171C135.296,392.334 131.002,388.746 127.648,383.164Z" style="fill:#373333;fill-rule:nonzero;stroke:#fff;stroke-opacity:0.75;stroke-width:1.5px;stroke-linecap:square;"/>
												</g>
											</g>
										</g>
									</g>
								</g>
							</g>
						</g>
					</g>
				</g>
				<path d="M77.051,366.921C71.783,367.43 70.764,369.35 73.994,372.679C77.223,376.008 82.981,379.065 91.267,381.849C95.127,385.028 98.782,385.929 102.233,384.554C121.245,376.979 134.048,364.809 140.643,362.193C149.894,356.072 166.987,345.977 177.551,339.588C182.467,336.615 190.88,339.264 191.219,338.459C192.756,334.81 193.133,322.878 192.352,302.663L184.888,309.772L158.952,323.632L152.686,314.818C151.825,315.283 149.906,314.264 146.929,311.761C142.464,308.007 132.823,301.62 132.712,296.833C132.638,293.642 130.719,292.623 126.954,293.776C125.737,283.904 122.918,279.947 118.495,281.904C114.073,283.862 105.827,283.175 93.758,279.842C93.262,281.501 90.774,283.87 86.294,286.951C79.574,291.571 72.192,291.573 70.015,296.76C68.564,300.218 67.995,303.606 68.309,306.925C73.011,300.964 76.968,298.145 80.18,298.466C84.998,298.948 93.606,300.981 97.809,293.064C100.612,287.786 101.062,289.255 99.16,297.472L107.975,294.771L100.51,301.879C103.905,303.45 106.274,305.938 107.619,309.343C109.636,314.45 102.996,323.264 104.206,329.673C105.013,333.946 105.914,336.884 106.907,338.488L106.907,347.678C106.245,352.501 103.638,356.665 99.087,360.168C94.536,363.672 87.191,365.923 77.051,366.921Z" style="fill:#2e2e2e;fill-rule:nonzero;"/>
				<g>
					<clipPath id="_clip27">
						<path d="M77.051,366.921C71.783,367.43 70.764,369.35 73.994,372.679C77.223,376.008 82.981,379.065 91.267,381.849C95.127,385.028 98.782,385.929 102.233,384.554C121.245,376.979 134.048,364.809 140.643,362.193C149.894,356.072 166.987,345.977 177.551,339.588C182.467,336.615 190.88,339.264 191.219,338.459C192.756,334.81 193.133,322.878 192.352,302.663L184.888,309.772L158.952,323.632L152.686,314.818C151.825,315.283 149.906,314.264 146.929,311.761C142.464,308.007 132.823,301.62 132.712,296.833C132.638,293.642 130.719,292.623 126.954,293.776C125.737,283.904 122.918,279.947 118.495,281.904C114.073,283.862 105.827,283.175 93.758,279.842C93.262,281.501 90.774,283.87 86.294,286.951C79.574,291.571 72.192,291.573 70.015,296.76C68.564,300.218 67.995,303.606 68.309,306.925C73.011,300.964 76.968,298.145 80.18,298.466C84.998,298.948 93.606,300.981 97.809,293.064C100.612,287.786 101.062,289.255 99.16,297.472L107.975,294.771L100.51,301.879C103.905,303.45 106.274,305.938 107.619,309.343C109.636,314.45 102.996,323.264 104.206,329.673C105.013,333.946 105.914,336.884 106.907,338.488L106.907,347.678C106.245,352.501 103.638,356.665 99.087,360.168C94.536,363.672 87.191,365.923 77.051,366.921Z"/>
					</clipPath>
					<g clip-path="url(#_clip27)">
						<path d="M103.637,352.287C106.685,342.684 114.457,335.001 126.954,329.239C136.176,324.988 141.241,322.275 149.687,320.876C151.839,320.52 154.927,320.235 158.952,320.02L158.952,324.63C153.19,325.437 143.971,330.057 131.295,338.488C118.618,346.919 108.931,353.056 102.233,356.897L103.637,352.287Z" style="fill:#b7b104;fill-rule:nonzero;"/>
					</g>
				</g>
			</g>
			<path d="M158.089,154.004C148.037,189.49 165.202,285.426 179.789,303.38C194.376,321.334 231.978,351.093 242.312,354.739C252.646,358.384 260.164,354.404 267.02,352.732C273.876,351.059 310.845,327.867 326.343,305.824C341.841,283.78 340.236,279.257 345.908,264.058C351.58,248.86 380.621,175.057 361.709,128.855C342.798,82.653 318.809,63.841 276.736,60.188C234.663,56.536 212.005,72.65 189.569,94.053C167.133,115.456 168.142,118.519 158.089,154.004Z" style="fill:#f8ddc6;fill-rule:nonzero;"/>
			<g>
				<clipPath id="_clip28">
					<path d="M158.089,154.004C148.037,189.49 165.202,285.426 179.789,303.38C194.376,321.334 231.978,351.093 242.312,354.739C252.646,358.384 260.164,354.404 267.02,352.732C273.876,351.059 310.845,327.867 326.343,305.824C341.841,283.78 340.236,279.257 345.908,264.058C351.58,248.86 380.621,175.057 361.709,128.855C342.798,82.653 318.809,63.841 276.736,60.188C234.663,56.536 212.005,72.65 189.569,94.053C167.133,115.456 168.142,118.519 158.089,154.004Z"/>
				</clipPath>
				<g clip-path="url(#_clip28)">
					<path class="cheeks" d="M154.906,276.664C156.697,261.34 172.251,250.547 189.618,252.577C206.986,254.607 219.632,268.695 217.841,284.019C216.05,299.343 200.496,310.136 183.129,308.107C165.761,306.077 153.115,291.988 154.906,276.664Z" style="fill:#f4b9b0;fill-opacity:0.5;fill-rule:nonzero;"/>
					<path class="cheeks" d="M297.849,287.531C294.061,272.576 304.747,256.948 321.698,252.655C338.648,248.361 355.485,257.018 359.273,271.974C363.061,286.93 352.375,302.558 335.425,306.851C318.474,311.144 301.637,302.487 297.849,287.531Z" style="fill:#f4b9b0;fill-opacity:0.5;fill-rule:nonzero;"/>
					<path class="cheeks" d="M327.92,246.06C328.076,244.728 329.284,243.772 330.617,243.928C331.949,244.084 332.905,245.292 332.749,246.624C332.593,247.957 331.385,248.912 330.052,248.757C328.72,248.601 327.764,247.393 327.92,246.06Z" style="fill:#edbaa9;fill-rule:nonzero;"/>
					<path class="dot" d="M239.625,289.582C239.781,288.25 240.989,287.294 242.321,287.45C243.654,287.606 244.609,288.814 244.453,290.147C244.298,291.479 243.089,292.434 241.757,292.279C240.424,292.123 239.469,290.915 239.625,289.582Z" style="fill:#edbaa9;fill-rule:nonzero;"/>
				</g>
			</g>
			<g>
				<path d="M257.838,225.55C256.19,225.542 254.551,226.875 252.921,229.55C247.614,256.468 245.159,271.062 245.556,273.332C245.952,275.602 250.046,279.399 257.838,284.724C265.609,279.025 269.664,275.227 270.003,273.332C270.342,271.437 267.926,256.843 262.756,229.55C261.126,226.891 259.487,225.558 257.838,225.55Z" style="fill:#f8d1bb;fill-rule:nonzero;"/>
				<path d="M262.756,276.929C264.296,279.551 267.519,280.521 269.947,279.095C272.376,277.668 273.097,274.381 271.557,271.759C270.701,270.302 269.326,269.355 267.857,269.046" style="fill:none;fill-rule:nonzero;stroke:#909090;stroke-width:2px;stroke-linejoin:round;stroke-miterlimit:3;stroke-linecap:round;"/>
			</g>
			<path class="mouth" d="M256,296.231C250.275,296.231 242.275,297.564 232,300.231C239.257,305.314 247.257,307.924 256,308.061C264.743,308.198 272.743,305.588 280,300.231C269.725,297.564 261.725,296.231 256,296.231Z" style="fill:#f4ceba;fill-rule:nonzero;"/>
			<g>
				<clipPath class="mouth" id="_clip29">
					<path class="mouth" d="M256,296.231C250.275,296.231 242.275,297.564 232,300.231C239.257,305.314 247.257,307.924 256,308.061C264.743,308.198 272.743,305.588 280,300.231C269.725,297.564 261.725,296.231 256,296.231Z"/>
				</clipPath>
				<g class="mouth" clip-path="url(#_clip29)">
					<rect class="mouth" x="229.261" y="300" width="53.477" height="9.723" style="fill:#f3c5ad;"/>
				</g>
			</g>
			<g class="mouth">
				<g transform="matrix(-1,1.22465e-16,-1.22465e-16,-1,488.283,607.259)">
					<path d="M244.764,301.062L247.855,307.242L241.674,307.242L244.764,301.062Z" style="fill:#fff;"/>
				</g>
				<g transform="matrix(-1,1.22465e-16,-1.22465e-16,-1,512.738,607.238)">
					<path d="M244.764,301.062L247.855,307.242L241.674,307.242L244.764,301.062Z" style="fill:#fff;"/>
				</g>
			</g>
			<g>
				<g>
					<path d="M228.158,215.173C232.954,222.078 235.189,230.033 234.864,239.037C230.364,242.088 223.278,244.424 220.694,245C218.11,245.576 209.109,246.401 196.086,242.012C191.297,240.399 186.201,237.539 180.8,233.433C182.773,224.67 185.508,217.959 189.007,213.3C195.945,204.061 204.699,202.077 207.653,202.118C210.607,202.16 223.448,205.417 228.158,215.173Z" style="fill:#fff;fill-opacity:0.75;fill-rule:nonzero;"/>
					<g>
						<clipPath id="_clip30">
							<path class="eyelid" d="M228.158,215.173C232.954,222.078 235.189,230.033 234.864,239.037C230.364,242.088 223.278,244.424 220.694,245C218.11,245.576 209.109,246.401 196.086,242.012C191.297,240.399 186.201,237.539 180.8,233.433C182.773,224.67 185.508,217.959 189.007,213.3C195.945,204.061 204.699,202.077 207.653,202.118C210.607,202.16 223.448,205.417 228.158,215.173Z"/>
						</clipPath>
						<g clip-path="url(#_clip30)">
							<g class="pupil">
								<path d="M190.57,224.205C190.529,212.159 198.64,202.351 208.673,202.317C218.706,202.282 226.884,212.034 226.926,224.08C226.967,236.126 218.856,245.934 208.823,245.969C198.79,246.003 190.612,236.251 190.57,224.205Z" style="fill:#566;fill-rule:nonzero;"/>
								<g>
									<clipPath id="_clip31">
										<path d="M190.57,224.205C190.529,212.159 198.64,202.351 208.673,202.317C218.706,202.282 226.884,212.034 226.926,224.08C226.967,236.126 218.856,245.934 208.823,245.969C198.79,246.003 190.612,236.251 190.57,224.205Z"/>
									</clipPath>
									<g clip-path="url(#_clip31)">
										<g transform="matrix(1,-0.003,0.003,1,-0.81,0.734)">
											<rect x="187.828" y="223.191" width="50.339" height="25.379" style="fill:#58a2a2;"/>
										</g>
									</g>
								</g>
								<path d="M199.236,224.175C199.214,217.872 203.459,212.739 208.709,212.721C213.959,212.703 218.238,217.806 218.26,224.11C218.282,230.413 214.037,235.546 208.787,235.564C203.537,235.582 199.258,230.479 199.236,224.175Z" style="fill:none;fill-rule:nonzero;stroke:#fff;stroke-opacity:0.75;stroke-width:3px;stroke-linecap:square;stroke-miterlimit:3;"/>
								<path d="M199.236,224.175C199.214,217.872 203.459,212.739 208.709,212.721C213.959,212.703 218.238,217.806 218.26,224.11C218.282,230.413 214.037,235.546 208.787,235.564C203.537,235.582 199.258,230.479 199.236,224.175Z" style="fill:#423f3d;fill-rule:nonzero;"/>
							</g>
						</g>
					</g>
					<path d="M292.256,214.263C287.245,221.014 284.759,228.894 284.8,237.905C289.203,241.096 296.211,243.654 298.776,244.312C301.34,244.969 310.311,246.077 323.466,242.101C328.303,240.639 333.486,237.941 339.014,234.008C337.319,225.187 334.796,218.393 331.446,213.626C324.803,204.173 316.116,201.913 313.162,201.862C310.208,201.81 297.271,204.661 292.256,214.263Z" style="fill:#fff;fill-opacity:0.75;fill-rule:nonzero;"/>
					<g>
						<clipPath id="_clip32">
							<path class="eyelid" d="M292.256,214.263C287.245,221.014 284.759,228.894 284.8,237.905C289.203,241.096 296.211,243.654 298.776,244.312C301.34,244.969 310.311,246.077 323.466,242.101C328.303,240.639 333.486,237.941 339.014,234.008C337.319,225.187 334.796,218.393 331.446,213.626C324.803,204.173 316.116,201.913 313.162,201.862C310.208,201.81 297.271,204.661 292.256,214.263Z"/>
						</clipPath>
						<g clip-path="url(#_clip32)">
							<g class="pupil">
								<path d="M329.551,223.858C329.562,211.811 321.426,202.024 311.394,202.015C301.361,202.005 293.207,211.778 293.195,223.824C293.184,235.87 301.32,245.657 311.353,245.667C321.385,245.676 329.54,235.904 329.551,223.858Z" style="fill:#566;fill-rule:nonzero;"/>
								<g>
									<clipPath id="_clip33">
										<path d="M329.551,223.858C329.562,211.811 321.426,202.024 311.394,202.015C301.361,202.005 293.207,211.778 293.195,223.824C293.184,235.87 301.32,245.657 311.353,245.667C321.385,245.676 329.54,235.904 329.551,223.858Z"/>
									</clipPath>
									<g clip-path="url(#_clip33)">
										<g transform="matrix(1,0.001,-0.001,1,0.22,-0.287)">
											<rect x="281.984" y="222.9" width="50.339" height="25.379" style="fill:#58a2a2;"/>
										</g>
									</g>
								</g>
								<path d="M320.885,223.85C320.891,217.546 316.634,212.424 311.384,212.419C306.134,212.415 301.867,217.528 301.861,223.832C301.855,230.135 306.113,235.257 311.363,235.262C316.612,235.267 320.879,230.153 320.885,223.85Z" style="fill:none;fill-rule:nonzero;stroke:#fff;stroke-opacity:0.75;stroke-width:3px;stroke-linecap:square;stroke-miterlimit:3;"/>
								<path d="M320.885,223.85C320.891,217.546 316.634,212.424 311.384,212.419C306.134,212.415 301.867,217.528 301.861,223.832C301.855,230.135 306.113,235.257 311.363,235.262C316.612,235.267 320.879,230.153 320.885,223.85Z" style="fill:#423f3d;fill-rule:nonzero;"/>
							</g>
						</g>
					</g>
				</g>
			</g>
			<g class="eyebrow">
				<path d="M310.614,188.732L278.946,187.478C291.587,180.017 301.809,176.317 309.611,176.378C317.412,176.439 328.303,180.975 342.283,189.986L310.614,188.732Z" style="fill:#5e4038;fill-rule:nonzero;"/>
				<path d="M206.892,188.785L238.524,186.803C225.714,179.636 215.41,176.172 207.611,176.412C199.813,176.652 189.03,181.437 175.261,190.767L206.892,188.785Z" style="fill:#5e4038;fill-rule:nonzero;"/>
			</g>
			<g>
				<path d="M152.226,185.576C153.681,192.418 161.628,215.911 160.862,216C160.241,216.073 162.61,213.406 167.97,208C159.206,193.676 153.996,185.633 152.341,183.871C151.901,183.402 151.913,184.104 152.226,185.576Z" style="fill:#423f3d;fill-rule:nonzero;"/>
				<g>
					<clipPath id="_clip34">
						<path d="M152.226,185.576C153.681,192.418 161.628,215.911 160.862,216C160.241,216.073 162.61,213.406 167.97,208C159.206,193.676 153.996,185.633 152.341,183.871C151.901,183.402 151.913,184.104 152.226,185.576Z"/>
					</clipPath>
					<g clip-path="url(#_clip34)">
						<g transform="matrix(0.421,0.907,-0.79,0.673,243.243,-71.564)">
							<rect x="123.213" y="192.186" width="54.127" height="11.305" style="fill:#3e3c3b;"/>
						</g>
					</g>
				</g>
				<path d="M163.774,209.959C184.699,208.888 211.067,209.868 242.878,212.901C244.19,228.63 243.066,241.193 239.505,250.59C220.036,254.848 196.191,255.096 167.97,251.335C164.271,234.696 162.872,220.904 163.774,209.959Z" style="fill:none;fill-rule:nonzero;stroke:#423f3d;stroke-width:6px;stroke-linejoin:round;stroke-miterlimit:3;"/>
				<path d="M353.606,216C354.212,216.155 352.879,213.122 349.606,206.903C361.088,193.874 367.767,186.597 369.642,185.07C372.455,182.78 352.697,215.768 353.606,216Z" style="fill:#423f3d;fill-rule:nonzero;"/>
				<g>
					<clipPath id="_clip35">
						<path d="M353.606,216C354.212,216.155 352.879,213.122 349.606,206.903C361.088,193.874 367.767,186.597 369.642,185.07C372.455,182.78 352.697,215.768 353.606,216Z"/>
					</clipPath>
					<g clip-path="url(#_clip35)">
						<g transform="matrix(0.538,-0.843,0.693,0.772,33.422,355.034)">
							<rect x="341.034" y="191.178" width="54.127" height="11.305" style="fill:#3e3c3b;"/>
						</g>
					</g>
				</g>
				<path d="M352.093,207.999C331.151,207.364 304.809,208.893 273.068,212.587C272.083,228.34 273.469,240.877 277.225,250.198C296.778,254.049 320.622,253.801 348.759,249.453C352.112,232.741 353.223,218.923 352.093,207.999Z" style="fill:none;fill-rule:nonzero;stroke:#423f3d;stroke-width:6px;stroke-linejoin:round;stroke-miterlimit:3;"/>
				<path d="M243.631,221.414C245.926,217.966 250.72,216.331 258.012,216.509C265.304,216.687 270.234,218.322 272.801,221.414" style="fill:none;fill-rule:nonzero;stroke:#423f3d;stroke-width:6px;stroke-linejoin:round;stroke-miterlimit:3;"/>
			</g>
			<g>
				<path d="M316,48C283.866,29.21 258.533,19.877 240,20C212.201,20.185 195.276,29.515 180,48C164.724,66.485 155.159,100.342 144,117.668C136.561,129.219 132.561,156.663 132,200L316,48Z" style="fill:#5e4038;fill-rule:nonzero;"/>
				<path d="M316,108C329.015,136.16 338.152,158.936 343.412,176.329C348.671,193.721 348.671,218.945 343.412,252C356.714,236.893 366.348,223.456 372.315,211.691C381.265,194.043 380.356,173.012 378.091,151.871C375.826,130.73 371.816,79.134 343.412,64C324.476,53.911 315.339,68.577 316,108Z" style="fill:#5e4038;fill-rule:nonzero;"/>
				<path d="M316,108C304.939,102.36 296.037,99.762 289.292,100.205C282.547,100.648 270.877,106.469 254.282,117.668C259.683,92.471 265.532,74.98 271.829,65.195C281.274,50.518 302.173,18.473 320,20.094C322.9,20.137 332.344,24.475 336,28C339.656,31.525 348.656,43.6 348,54.975C347.37,65.888 341.075,71.503 332.537,80.691C326.846,86.816 321.333,95.919 316,108Z" style="fill:#5b3c34;fill-rule:nonzero;"/>
				<g>
					<clipPath id="_clip36">
						<path d="M316,108C304.939,102.36 296.037,99.762 289.292,100.205C282.547,100.648 270.877,106.469 254.282,117.668C259.683,92.471 265.532,74.98 271.829,65.195C281.274,50.518 302.173,18.473 320,20.094C322.9,20.137 332.344,24.475 336,28C339.656,31.525 348.656,43.6 348,54.975C347.37,65.888 341.075,71.503 332.537,80.691C326.846,86.816 321.333,95.919 316,108Z"/>
					</clipPath>
					<g clip-path="url(#_clip36)">
						<path d="M316,108C305.913,107.611 297.913,107.611 292,108C286.087,108.389 275.516,110.506 260.289,114.351C264.332,93.336 269.459,78.001 275.672,68.346C284.992,53.864 304.881,23.177 323.533,29.591C342.185,36.006 344.98,46.328 342.454,59.387C340.4,70 323.485,83.945 316,92C311.01,97.37 311.01,102.703 316,108Z" style="fill:#462f28;fill-rule:nonzero;"/>
						<g>
							<clipPath id="_clip37">
								<path d="M316,108C305.913,107.611 297.913,107.611 292,108C286.087,108.389 275.516,110.506 260.289,114.351C264.332,93.336 269.459,78.001 275.672,68.346C284.992,53.864 304.881,23.177 323.533,29.591C342.185,36.006 344.98,46.328 342.454,59.387C340.4,70 323.485,83.945 316,92C311.01,97.37 311.01,102.703 316,108Z"/>
							</clipPath>
							<g clip-path="url(#_clip37)">
								<path d="M248,132C251.094,121.762 292.989,87.36 304,64C311.341,48.427 316.674,33.791 320,20.094C277.893,41.588 253.893,64.223 248,88C239.161,123.665 244.906,142.238 248,132Z" style="fill:#3e2923;fill-rule:nonzero;"/>
							</g>
						</g>
					</g>
				</g>
				<path d="M320,20.094C307.793,19.126 289.097,14.903 268,20.094C246.903,25.285 225.194,33.597 212,50.975C198.806,68.354 197.786,102.2 168,120C138.214,137.8 121.689,194.02 118.802,219.904C115.915,245.789 116.101,271.032 132.601,292.226C143.6,306.355 150.654,316.946 153.763,323.999C138.986,284.417 135.253,253.358 142.564,230.823C153.532,197.019 164.344,202.672 185.129,188.354C205.914,174.036 223.284,177.97 237.651,162.651C252.018,147.332 257.267,107.841 268,92C278.733,76.159 302.916,58.885 320,20.094Z" style="fill:#5b3c34;fill-rule:nonzero;"/>
			</g>
			<path d="M308.311,111.09C315.594,109.673 321.79,110.427 326.899,113.353C332.009,116.28 335.234,120.631 336.573,126.406L341.061,128.256C341.02,122.26 341.733,119.211 343.202,119.11C344.671,119.009 345.802,120.311 346.594,123.016L347.875,122.194L349.34,122.605C349.881,119.523 350.581,117.947 351.441,117.878C352.731,117.774 356.351,125.043 356.165,125.997C356.041,126.633 357.291,125.605 359.915,122.914C359.011,119.07 360.456,114.651 364.25,109.658C368.043,104.665 374.113,101.445 382.459,100C379.762,105.599 378.774,109.95 379.497,113.051C380.22,116.152 382.055,119.03 385,121.684C382.065,123.371 379.763,125.186 378.094,127.13C376.425,129.074 375.772,132.534 376.136,137.509C370.586,138.332 366.498,139.154 363.871,139.974C361.244,140.794 357.542,145.761 352.763,154.874C347.906,149.189 343.431,145.866 339.339,144.904C335.247,143.942 330.838,144.181 326.111,145.622C324.6,141.793 323.025,139.086 321.387,137.503C319.748,135.919 316.695,134.274 312.226,132.569C314.409,127.539 315.229,123.634 314.685,120.854C314.141,118.074 312.016,114.819 308.311,111.09Z" style="fill:#2e2e2e;fill-rule:nonzero;"/>
		</g>
		<g class="dialog-5">
			<path d=" M 543.54 442.992 Q 540.599 443.14 541.063 440.62 Q 543.711 436.979 544.778 433.505 C 545.844 430.03 545.91 377.421 546.635 363.537 Q 546.635 355.631 554.064 355.235 L 903.571 355.235 Q 910.69 356.026 911 363.537 Q 911 377.421 911 433.505 Q 909.452 441.806 903.571 442.992 C 816.881 442.992 678.687 442.992 543.54 442.992 Z " fill="rgb(57,56,56)"/>
			<g clip-path="url(#_clipPath_cd6GMJ8GaVQpHZEklPJY27QnsFp6XqOK)">
				<text transform="matrix(1,0,0,1,565,381.172)" style="font-family:monospace;font-weight:400;font-size:16px;font-style:normal;fill:#e8e8e8;stroke:none;">If you want to learn more about me, </text>
				<text transform="matrix(1,0,0,1,565,404.61)" style="font-family:monospace;font-weight:400;font-size:16px;font-style:normal;fill:#e8e8e8;stroke:none;">I'm @rightonhana everywhere, or </text>
				<text transform="matrix(1,0,0,1,565,428.047)" style="font-family:monospace;font-weight:400;font-size:16px;font-style:normal;fill:#e8e8e8;stroke:none;">you can go to  rightonhana.dev</text>
			</g>
			<defs>
				<clipPath id="_clipPath_cd6GMJ8GaVQpHZEklPJY27QnsFp6XqOK">
					<rect x="0" y="0" width="338.571" height="73" transform="matrix(1,0,0,1,565,362.618)"/>
				</clipPath>
			</defs>
		</g>
		<g class="dialog-4">
			<path d=" M 543.142 442.993 Q 540.662 443.118 541.053 440.993 Q 543.286 437.923 544.186 434.993 C 545.085 432.063 545.141 416.701 545.752 404.993 Q 545.752 398.326 552.016 397.993 L 823.736 397.993 Q 829.739 398.66 830 404.993 Q 830 416.701 830 434.993 Q 828.695 441.993 823.736 442.993 C 750.635 442.993 657.103 442.993 543.142 442.993 Z " fill="rgb(57,56,56)"/>
			<g clip-path="url(#_clipPath_Ms0lecwxuJ44rVCTRwPcoZdoHehpvDLq)">
				<text transform="matrix(1,0,0,1,559.408,426.799)" style="font-family:monospace;font-weight:400;font-size:16px;font-style:normal;fill:#e8e8e8;stroke:none;">My pronouns are She/Her </text>
			</g>
			<defs>
				<clipPath id="_clipPath_Ms0lecwxuJ44rVCTRwPcoZdoHehpvDLq">
					<rect x="0" y="0" width="258.183" height="24.503" transform="matrix(1,0,0,1,559.408,408.245)"/>
				</clipPath>
			</defs>
		</g>
		<g class="dialog-3">
			<path d=" M 543.54 442.992 Q 540.599 443.14 541.063 440.62 Q 543.711 436.979 544.778 433.505 C 545.844 430.03 545.91 377.421 546.635 363.537 Q 546.635 355.631 554.064 355.235 L 903.571 355.235 Q 910.69 356.026 911 363.537 Q 911 377.421 911 433.505 Q 909.452 441.806 903.571 442.992 C 816.881 442.992 678.687 442.992 543.54 442.992 Z " fill="rgb(57,56,56)"/>
			<g clip-path="url(#_clipPath_cd6GMJ8GaVQpHZEklPJY27QnsFp6XqOK)">
				<text transform="matrix(1,0,0,1,565,381.172)" style="font-family:monospace;font-weight:400;font-size:16px;font-style:normal;fill:#e8e8e8;stroke:none;">I'm a Front-end Developer with </text>
				<text transform="matrix(1,0,0,1,565,404.61)" style="font-family:monospace;font-weight:400;font-size:16px;font-style:normal;fill:#e8e8e8;stroke:none;">experience in Angular, React and </text>
				<text transform="matrix(1,0,0,1,565,428.047)" style="font-family:monospace;font-weight:400;font-size:16px;font-style:normal;fill:#e8e8e8;stroke:none;">Svelte.</text>
			</g>
			<defs>
				<clipPath id="_clipPath_cd6GMJ8GaVQpHZEklPJY27QnsFp6XqOK">
					<rect x="0" y="0" width="338.571" height="73" transform="matrix(1,0,0,1,565,362.618)"/>
				</clipPath>
			</defs>
		</g>
		<g class="dialog-2">
			<path d=" M 543.742 442.16 Q 540.567 442.285 541.068 440.155 Q 543.927 437.077 545.078 434.139 C 546.23 431.202 546.301 394.748 547.084 383.011 Q 547.084 376.327 555.104 375.993 L 902.98 375.993 Q 910.666 376.661 911 383.011 Q 911 394.748 911 434.139 Q 909.329 441.157 902.98 442.16 C 809.39 442.16 689.644 442.16 543.742 442.16 Z " fill="rgb(57,56,56)"/>
			<g clip-path="url(#_clipPath_ESlM0h8RX5VXCFQgA5t80sqGiBmZNFpN)">
				<text transform="matrix(1,0,0,1,561.068,404.114)" style="font-family:monospace;font-weight:400;font-size:16px;font-style:normal;fill:#e8e8e8;stroke:none;">I'm born and raised in Argentina  </text>
				<text transform="matrix(1,0,0,1,561.068,427.551)" style="font-family:monospace;font-weight:400;font-size:16px;font-style:normal;fill:#e8e8e8;stroke:none;">now living in Chicago, Illinois </text>
			</g>
			<defs>
				<clipPath id="_clipPath_ESlM0h8RX5VXCFQgA5t80sqGiBmZNFpN">
					<rect x="0" y="0" width="341" height="46.875" transform="matrix(1,0,0,1,561.068,385.559)"/>
				</clipPath>
			</defs>
		</g>
		<g class="dialog-1">
			<path d=" M 543.297 442.993 Q 540.637 443.118 541.057 440.993 Q 543.452 437.923 544.417 434.993 C 545.382 432.063 545.441 416.701 546.097 404.993 Q 546.097 398.326 552.817 397.993 L 896.28 397.993 Q 902.72 398.66 903 404.993 Q 903 416.701 903 434.993 Q 901.6 441.993 896.28 442.993 C 817.868 442.993 665.54 442.993 543.297 442.993 Z " fill="rgb(57,56,56)"/>
			<g clip-path="url(#_clipPath_3D2gxkuakMBlARHwnRYqTgx1WEIpF5CZ)">
				<text transform="matrix(1,0,0,1,559,427.048)" style="font-family:monospace;font-weight:400;font-size:16px;font-style:normal;fill:#e8e8e8;stroke:none;">Hi there  I'm Florencia Gonzalez</text>
			</g>
			<defs>
				<clipPath id="_clipPath_3D2gxkuakMBlARHwnRYqTgx1WEIpF5CZ">
					<rect x="0" y="0" width="350" height="24.007" transform="matrix(1,0,0,1,559,408.493)"/>
				</clipPath>
			</defs>
		</g>
	</g>
</svg>