<svg class="avatar"
	xmlns="http://www.w3.org/2000/svg"
	xmlns:xlink="http://www.w3.org/1999/xlink" style="isolation: isolate" viewBox="0 0 1024 512" width="1024pt" height="512pt">
	<style>
		.dialog-1 {
			opacity: 0;
			animation: greet 7s both;
		}

		.dialog-2 {
			opacity: 0;
			animation: from 7s both;
		}

		.dialog-3 {
			opacity: 0;
			animation: profession 7s both;
		}

		.dialog-4 {
			opacity: 0;
			animation: pronouns 7s both;
		}

		.dialog-5 {
			opacity: 0;
			animation: contact 7s both;
		}

		.eyelid {
			animation: eye 3s ease-in-out infinite;
			transform-origin: center;
		}

		.pupil {
			animation: pupil 15s ease-out infinite;
			transform-origin: center;
		}

		.eyebrow {
			animation: eyebrow 3s ease-in-out infinite;
			transform-origin: center;
		}

		.mouth {
			animation: mouth 15s ease infinite;
			transform-origin: center;
		}

		.dot {
			animation: dot 15s ease infinite;
			transform-origin: center;
		}

		.cheeks:first-child {
			animation: cheeks1 15s ease infinite;
			transform-origin: center;
		}

		.cheeks:nth-child(2),
		.cheeks:nth-child(3) {
			animation: cheeks2 15s ease infinite;
			transform-origin: center;
		}

		@keyframes greet {
			0% {
				opacity: 0;
				transform: translate(0, 0);
			}
			20% {
				opacity: 1;
				transform: translate(0, 0);
			}
			40% {
				opacity: 1;
				transform: translate(0, -78px);
			}
			60% {
				opacity: 1;
				transform: translate(0, -180px);
			}
			80% {
				opacity: 1;
				transform: translate(0, -234px);
			}
			100% {
				opacity: 1;
				transform: translate(0, -333px);
			}
		}

		@keyframes from {
			0%,
			20% {
				opacity: 0;
				transform: translate(0, 0);
			}
			40% {
				opacity: 1;
				transform: translate(0, 0);
			}
			60% {
				opacity: 1;
				transform: translate(0, -100px);
			}
			80% {
				opacity: 1;
				transform: translate(0, -155px);
			}
			100% {
				opacity: 1;
				transform: translate(0, -252px);
			}
		}

		@keyframes profession {
			0%,
			40% {
				opacity: 0;
				transform: translate(0, 0);
			}
			60% {
				opacity: 1;
				transform: translate(0, 0);
			}
			80% {
				opacity: 1;
				transform: translate(0, -56px);
			}
			100% {
				opacity: 1;
				transform: translate(0, -155px);
			}
		}

		@keyframes pronouns {
			0%,
			60% {
				opacity: 0;
				transform: translate(0, 0);
			}
			80% {
				opacity: 1;
				transform: translate(0, 0);
			}
			100% {
				opacity: 1;
				transform: translate(0, -99px);
			}
		}

		@keyframes contact {
			0%,
			80% {
				opacity: 0;
				transform: translate(0, 0);
			}
			100% {
				opacity: 1;
				transform: translate(0, 0);
			}
		}

		@keyframes eye {
			5%,
			20% {
				transform: scale(1, 1);
				stroke-width: 2px;
			}
			10%,
			15% {
				transform: scale(1, 0);
				stroke-width: 20px;
			}
		}

		@keyframes pupil {
			5%,
			20% {
				transform: translate(5px, -1px);
			}
			10%,
			15% {
				transform: translate(-5px, 1px);
			}
			20%,
			100% {
				transform: translate(0, 0);
			}
		}

		@keyframes eyebrow {
			0%,
			9% {
				transform: translate(0, 0);
			}
			10%,
			15% {
				transform: translate(0, 0.5px);
			}
			16%,
			100% {
				transform: translate(0, 0);
			}
		}

		@keyframes mouth {
			0%,
			4% {
				transform: scale(1, 1);
			}
			5%,
			20% {
				transform-origin: 250px 280px;
				transform: scale(1.1, 0.95);
			}
			21%,
			100% {
				transform: scale(1, 1);
			}
		}

		@keyframes dot {
			0%,
			4% {
				transform: translate(0, 0);
			}
			5%,
			20% {
				transform: translate(0, -3px);
			}
			21%,
			100% {
				transform: translate(0, 0);
			}
		}

		@keyframes cheeks1 {
			0%,
			4% {
				transform: translate(0, 0);
			}
			5%,
			20% {
				transform: translate(-2px, 0);
			}
			21%,
			100% {
				transform: translate(0, 0);
			}
		}

		@keyframes cheeks2 {
			0%,
			4% {
				transform: translate(0, 0);
			}
			5%,
			20% {
				transform: translate(2px, 0);
			}
			21%,
			100% {
				transform: translate(0, 0);
			}
		}
	</style>
	<defs>
		<clipPath id="_clipPath_uSaH7GvzYbWeM4qHwkmFMFjBW04XGMZb">
			<rect width="1024" height="512" />
		</clipPath>
	</defs>
	<g>
		<path d="M13.368,374.427L152.62,305.736C157.872,303.145 164.239,305.306 166.83,310.558L187.514,352.493C190.105,357.745 187.944,364.112 182.692,366.703L43.44,435.394C38.188,437.985 31.821,435.824 29.23,430.572L8.546,388.637C5.955,383.385 8.116,377.018 13.368,374.427Z" style="fill:#393838;fill-rule:nonzero;"/>
		<g>
			<clipPath id="_clip1">
				<path d="M13.368,374.427L152.62,305.736C157.872,303.145 164.239,305.306 166.83,310.558L187.514,352.493C190.105,357.745 187.944,364.112 182.692,366.703L43.44,435.394C38.188,437.985 31.821,435.824 29.23,430.572L8.546,388.637C5.955,383.385 8.116,377.018 13.368,374.427Z"/>
			</clipPath>
			<g clip-path="url(#_clip1)">
				<path d="M133.97,362.451L138.99,360.045L137.299,370.753L139.536,375.421L135.379,377.413L133.142,372.745L123.737,367.355L128.757,364.949L133.228,367.636L133.97,362.451ZM155.615,359.983C156.282,361.375 156.56,362.7 156.448,363.959C156.337,365.218 155.849,366.358 154.985,367.379C154.12,368.4 152.925,369.276 151.398,370.007C149.871,370.738 148.442,371.118 147.109,371.147C145.776,371.176 144.595,370.839 143.566,370.138C142.537,369.436 141.687,368.384 141.014,366.981C140.505,365.918 140.218,364.906 140.154,363.944C140.09,362.982 140.237,362.076 140.595,361.225C140.953,360.375 141.516,359.591 142.283,358.873C143.051,358.155 144.007,357.522 145.152,356.973C146.673,356.244 148.105,355.867 149.45,355.84C150.794,355.813 151.991,356.149 153.041,356.848C154.09,357.547 154.948,358.592 155.615,359.983ZM145.549,364.851C145.94,365.667 146.463,366.289 147.12,366.718C147.777,367.147 148.645,367.103 149.726,366.585C150.559,366.186 151.107,365.728 151.369,365.213C151.631,364.698 151.716,364.211 151.623,363.754C151.53,363.297 151.364,362.772 151.123,362.179C150.697,361.38 150.159,360.763 149.51,360.327C148.861,359.891 147.961,359.949 146.81,360.5C144.995,361.369 144.575,362.82 145.549,364.851ZM152.702,353.474L156.841,351.491L160.445,359.012C160.82,359.886 161.27,360.403 161.795,360.563C162.32,360.724 162.975,360.63 163.761,360.282C164.378,359.972 164.81,359.541 165.058,358.989C165.306,358.437 165.219,357.75 164.796,356.927L161.192,349.406L165.331,347.423L168.905,354.882C169.394,355.947 169.624,356.875 169.595,357.665C169.566,358.455 169.398,359.183 169.093,359.849C168.788,360.515 168.308,361.149 167.654,361.751C167.001,362.353 166.21,362.891 165.282,363.365C164.493,363.722 163.647,363.995 162.745,364.185C161.844,364.375 160.991,364.403 160.187,364.269C159.382,364.134 158.658,363.813 158.014,363.306C157.371,362.799 156.793,362.011 156.281,360.942L152.702,353.474ZM87.303,400.451L83.109,395.833L84.353,401.865L80.214,403.848L70.245,392.988L74.384,391.005L78.761,395.664L77.643,389.443L81.447,387.62L85.851,392.267L84.397,386.206L88.537,384.223L91.443,398.467L87.303,400.451ZM93.776,397.349L87.682,384.632L91.821,382.649L97.915,395.365L93.776,397.349ZM92.086,382.522L104.292,376.673L106.106,380.46L102.073,382.393L106.352,391.322L102.213,393.306L97.934,384.376L93.9,386.309L92.086,382.522ZM110.797,378.948L114.126,377.353L112.024,372.967L116.163,370.984L122.257,383.701L118.118,385.684L115.923,381.105L112.594,382.7L114.789,387.28L110.65,389.263L104.556,376.546L108.695,374.563L110.797,378.948ZM51.443,417.635L43.42,421.48L37.326,408.763L46,404.606C47.397,403.951 48.571,403.685 49.521,403.807C50.471,403.929 51.287,404.505 51.969,405.536C52.427,406.356 52.566,407.105 52.385,407.784C52.205,408.463 51.717,409.184 50.921,409.948L50.938,409.983C51.43,409.82 51.918,409.739 52.403,409.741C52.888,409.744 53.326,409.811 53.718,409.944C54.111,410.077 54.459,410.273 54.763,410.532C55.068,410.791 55.296,411.078 55.448,411.395C55.929,412.399 56.037,413.282 55.77,414.045C55.504,414.808 55.005,415.463 54.274,416.008C53.543,416.553 52.599,417.096 51.443,417.635ZM48.273,413.101L45.446,414.455L46.573,416.807L49.4,415.452C49.896,415.236 50.271,414.926 50.525,414.523C50.78,414.12 50.827,413.751 50.666,413.416C50.524,413.029 50.236,412.81 49.803,412.757C49.37,412.705 48.86,412.82 48.273,413.101ZM46.262,408.271L43.189,409.744L44.113,411.672L47.195,410.195C47.366,410.114 47.502,409.938 47.604,409.669C47.706,409.4 47.691,409.113 47.559,408.808C47.37,408.473 47.14,408.283 46.87,408.24C46.6,408.196 46.397,408.206 46.262,408.271ZM69.734,408.87L57.757,414.609L51.663,401.893L62.566,396.668L64.38,400.455L57.617,403.696L58.317,405.158L62.686,403.065L63.749,405.284L59.381,407.377L60.081,408.839L67.919,405.083L69.734,408.87ZM124.6,335.981L123.121,341.573L126.503,339.953L124.6,335.981ZM125.929,330.915L129.568,338.484L131.778,337.425L133.078,340.138L130.859,341.201L132.023,343.632L128.967,345.096L127.803,342.665L120.96,345.944L119.66,343.232L122.873,332.379L125.929,330.915ZM128.351,329.754L140.557,323.905L142.372,327.692L138.338,329.625L142.618,338.555L138.479,340.538L134.199,331.608L130.166,333.541L128.351,329.754ZM147.062,326.181L150.391,324.585L148.289,320.2L152.429,318.216L158.523,330.933L154.383,332.917L152.189,328.337L148.86,329.932L151.055,334.512L146.915,336.495L140.821,323.778L144.961,321.795L147.062,326.181ZM70.967,357.253L83.173,351.404L84.988,355.191L80.954,357.124L85.233,366.053L81.094,368.037L76.815,359.107L72.782,361.04L70.967,357.253ZM89.678,353.679L93.007,352.084L90.905,347.698L95.044,345.715L101.138,358.432L96.999,360.415L94.805,355.836L91.476,357.431L93.67,362.011L89.531,363.994L83.437,351.277L87.576,349.294L89.678,353.679ZM113.996,352.27L102.019,358.01L95.925,345.293L106.828,340.068L108.642,343.855L101.879,347.096L102.579,348.558L106.948,346.465L108.011,348.684L103.643,350.778L104.343,352.239L112.181,348.483L113.996,352.27ZM32.437,391.354L28.298,393.337L24.019,384.407L21.377,385.673L19.562,381.886L26.344,378.637L31.659,382.587L31.892,375.978L36.031,373.994L42.125,386.711L37.986,388.695L35.454,383.411L35.326,389.969L35.097,390.079L29.905,386.07L32.437,391.354ZM46.334,384.694L41.773,386.88L39.862,372.159L46.176,369.133L56.524,379.811L51.715,382.116L49.817,380.21L46.039,382.02L46.334,384.694ZM48.479,377.689L44.383,373.458L44.974,379.369L48.479,377.689ZM58.814,363.077L63.834,360.671L62.143,371.379L64.379,376.047L60.223,378.039L57.986,373.371L48.58,367.981L53.6,365.575L58.072,368.262L58.814,363.077Z" style="fill:#f90;fill-rule:nonzero;"/>
				<path d="M135.758,361.591L140.778,359.186L139.087,369.894L141.323,374.561L137.167,376.553L134.93,371.886L125.524,366.495L130.544,364.089L135.016,366.777L135.758,361.591ZM157.403,359.124C158.07,360.515 158.347,361.841 158.236,363.1C158.125,364.359 157.637,365.498 156.772,366.519C155.907,367.54 154.712,368.416 153.186,369.147C151.659,369.879 150.23,370.259 148.897,370.288C147.564,370.316 146.383,369.979 145.354,369.278C144.325,368.577 143.474,367.524 142.802,366.121C142.293,365.058 142.006,364.046 141.942,363.084C141.878,362.122 142.025,361.216 142.383,360.366C142.74,359.516 143.303,358.732 144.071,358.013C144.839,357.295 145.795,356.662 146.94,356.114C148.461,355.385 149.893,355.007 151.237,354.98C152.582,354.953 153.779,355.289 154.828,355.988C155.878,356.687 156.736,357.733 157.403,359.124ZM147.336,363.991C147.727,364.807 148.251,365.43 148.908,365.859C149.565,366.288 150.433,366.243 151.513,365.725C152.347,365.326 152.895,364.868 153.157,364.353C153.419,363.838 153.504,363.351 153.411,362.894C153.318,362.437 153.152,361.912 152.911,361.32C152.484,360.521 151.946,359.903 151.297,359.467C150.648,359.031 149.748,359.089 148.597,359.64C146.783,360.509 146.363,361.96 147.336,363.991ZM154.49,352.615L158.629,350.631L162.233,358.152C162.608,359.026 163.058,359.543 163.583,359.704C164.107,359.864 164.762,359.77 165.549,359.422C166.166,359.112 166.598,358.681 166.846,358.129C167.094,357.577 167.006,356.89 166.583,356.067L162.979,348.547L167.118,346.563L170.693,354.022C171.182,355.087 171.411,356.015 171.382,356.805C171.353,357.595 171.185,358.323 170.88,358.99C170.575,359.656 170.095,360.29 169.442,360.892C168.788,361.494 167.997,362.032 167.069,362.505C166.28,362.862 165.434,363.135 164.533,363.325C163.632,363.516 162.779,363.544 161.974,363.409C161.17,363.275 160.446,362.954 159.802,362.447C159.158,361.94 158.58,361.152 158.068,360.083L154.49,352.615ZM89.091,399.591L84.897,394.974L86.141,401.005L82.002,402.988L72.033,392.128L76.172,390.145L80.549,394.805L79.43,388.583L83.235,386.76L87.638,391.407L86.185,385.347L90.324,383.363L93.23,397.608L89.091,399.591ZM95.564,396.489L89.47,383.772L93.609,381.789L99.703,394.506L95.564,396.489ZM93.873,381.662L106.079,375.813L107.894,379.6L103.861,381.533L108.14,390.463L104.001,392.446L99.721,383.516L95.688,385.449L93.873,381.662ZM112.584,378.089L115.913,376.494L113.812,372.108L117.951,370.124L124.045,382.841L119.905,384.825L117.711,380.245L114.382,381.84L116.577,386.42L112.437,388.403L106.343,375.687L110.483,373.703L112.584,378.089ZM53.23,416.776L45.207,420.62L39.113,407.903L47.788,403.747C49.185,403.092 50.359,402.825 51.309,402.947C52.259,403.07 53.075,403.646 53.756,404.677C54.214,405.497 54.353,406.246 54.173,406.924C53.993,407.603 53.505,408.324 52.708,409.088L52.725,409.123C53.217,408.96 53.705,408.879 54.19,408.881C54.675,408.884 55.114,408.952 55.506,409.085C55.899,409.218 56.247,409.414 56.551,409.672C56.856,409.931 57.084,410.219 57.235,410.536C57.716,411.54 57.824,412.423 57.558,413.186C57.292,413.949 56.793,414.603 56.062,415.148C55.331,415.693 54.387,416.236 53.23,416.776ZM50.061,412.241L47.234,413.596L48.361,415.947L51.188,414.592C51.683,414.377 52.058,414.067 52.313,413.663C52.567,413.26 52.614,412.891 52.454,412.556C52.312,412.169 52.024,411.95 51.591,411.898C51.158,411.845 50.648,411.96 50.061,412.241ZM48.05,407.411L44.976,408.884L45.9,410.813L48.983,409.336C49.153,409.254 49.289,409.079 49.391,408.81C49.493,408.541 49.478,408.253 49.347,407.948C49.157,407.613 48.927,407.424 48.657,407.38C48.387,407.336 48.185,407.346 48.05,407.411ZM71.522,408.01L59.545,413.75L53.451,401.033L64.353,395.808L66.168,399.595L59.404,402.836L60.105,404.298L64.473,402.205L65.537,404.424L61.168,406.518L61.869,407.979L69.707,404.224L71.522,408.01ZM126.387,335.121L124.909,340.714L128.29,339.093L126.387,335.121ZM127.717,330.055L131.355,337.625L133.566,336.565L134.865,339.278L132.646,340.341L133.811,342.772L130.755,344.236L129.59,341.806L122.747,345.085L121.448,342.372L124.661,331.52L127.717,330.055ZM130.139,328.895L142.345,323.045L144.16,326.832L140.126,328.765L144.405,337.695L140.266,339.679L135.987,330.749L131.953,332.681L130.139,328.895ZM148.85,325.321L152.179,323.726L150.077,319.34L154.216,317.357L160.31,330.073L156.171,332.057L153.977,327.477L150.648,329.073L152.842,333.652L148.703,335.636L142.609,322.919L146.748,320.935L148.85,325.321ZM72.755,356.393L84.961,350.544L86.775,354.331L82.742,356.264L87.021,365.194L82.882,367.177L78.603,358.247L74.569,360.18L72.755,356.393ZM91.466,352.82L94.794,351.225L92.693,346.839L96.832,344.855L102.926,357.572L98.787,359.556L96.592,354.976L93.263,356.571L95.458,361.151L91.319,363.134L85.225,350.418L89.364,348.434L91.466,352.82ZM115.784,351.411L103.807,357.15L97.713,344.433L108.615,339.209L110.43,342.996L103.666,346.237L104.367,347.699L108.735,345.605L109.799,347.825L105.43,349.918L106.131,351.38L113.969,347.624L115.784,351.411ZM34.225,390.494L30.086,392.477L25.807,383.547L23.165,384.813L21.35,381.027L28.131,377.777L33.446,381.727L33.679,375.118L37.818,373.135L43.912,385.852L39.773,387.835L37.241,382.551L37.114,389.11L36.885,389.219L31.693,385.21L34.225,390.494ZM48.122,383.834L43.56,386.02L41.649,371.299L47.964,368.273L58.311,378.952L53.503,381.256L51.604,379.35L47.826,381.161L48.122,383.834ZM50.266,376.829L46.17,372.598L46.761,378.509L50.266,376.829ZM60.601,362.217L65.621,359.812L63.93,370.52L66.167,375.187L62.01,377.179L59.773,372.512L50.368,367.121L55.388,364.716L59.859,367.403L60.601,362.217Z" style="fill:#ffd18d;fill-rule:nonzero;"/>
			</g>
		</g>
	</g>
	<g>
		<clipPath id="_clip2">
			<rect x="0" y="0" width="1024" height="512"/>
		</clipPath>
		<g clip-path="url(#_clip2)">
			<g>
				<path d="M206.8,346.186L311.983,338.28L311.983,389.163L206.8,389.163L206.8,346.186Z" style="fill:#b5b4b4;fill-rule:nonzero;"/>
				<path d="M208.836,312.883C211.963,331.624 213.238,348.719 212.66,364.17C212.498,368.496 212.191,372.693 211.739,376.761C184.931,388.167 153.717,406.045 117.969,430.232L254.502,479.157L386.941,429.849C357.109,406.116 329.668,388.493 304.618,376.98C299.881,356.251 298.17,326.729 299.483,288.414L208.836,312.883Z" style="fill:#f8dec8;fill-rule:nonzero;"/>
				<g>
					<clipPath id="_clip3">
						<path d="M208.836,312.883C211.963,331.624 213.238,348.719 212.66,364.17C212.498,368.496 212.191,372.693 211.739,376.761C184.931,388.167 153.717,406.045 117.969,430.232L254.502,479.157L386.941,429.849C357.109,406.116 329.668,388.493 304.618,376.98C299.881,356.251 298.17,326.729 299.483,288.414L208.836,312.883Z"/>
					</clipPath>
					<g clip-path="url(#_clip3)">
						<path d="M315.141,300.669C315.141,300.669 276.046,367.884 238.878,387.33C201.709,406.777 131.173,395.539 131.173,395.539L132,284L311,240L315.141,300.669Z" style="fill:#f4ceba;fill-rule:nonzero;"/>
						<path d="M324.183,318C324.183,318 283.54,355.991 252.084,368.192C231.268,376.266 167.027,316.152 167.027,316.152L164.555,270.006L366.483,256.509L324.183,318Z" style="fill:#cc9898;fill-opacity:0.3;fill-rule:nonzero;"/>
					</g>
				</g>
				<g>
					<path d="M199.191,377.206C126.547,402.571 86.602,419.601 79.355,428.297C72.108,436.994 64.136,472.142 55.439,533.741L480.476,525.045C465.982,469.968 454.024,437.718 444.603,428.297C435.182,418.876 390.975,401.846 311.983,377.206L199.191,377.206Z" style="fill:#eee;fill-rule:nonzero;"/>
					<g>
						<clipPath id="_clip4">
							<path d="M199.191,377.206C126.547,402.571 86.602,419.601 79.355,428.297C72.108,436.994 64.136,472.142 55.439,533.741L480.476,525.045C465.982,469.968 454.024,437.718 444.603,428.297C435.182,418.876 390.975,401.846 311.983,377.206L199.191,377.206Z"/>
						</clipPath>
						<g clip-path="url(#_clip4)">
							<path d="M259.805,334.469L263.066,588.839L270.675,586.665L259.805,334.469Z" style="fill:#d1d1d1;fill-rule:nonzero;"/>
							<path d="M204.8,352.682C223.917,371.757 240.077,381.758 253.282,382.684C266.487,383.609 286.054,372.739 311.983,350.072L334.811,377.206C299.737,402.87 273.648,415.566 256.544,415.295C239.439,415.024 216.611,402.327 188.059,377.206L204.8,352.682Z" style="fill:#d1d1d1;fill-rule:nonzero;"/>
						</g>
					</g>
					<path d="M206.8,345.682C224.583,361.424 240.077,369.758 253.282,370.684C266.487,371.609 286.054,360.739 311.983,338.072L318.505,373.945C294.302,393.783 273.648,403.566 256.544,403.295C239.439,403.024 220.322,394.327 199.191,377.206L206.8,345.682Z" style="fill:#eee;fill-rule:nonzero;"/>
				</g>
			</g>
			<g>
				<g>
					<path d="M336.775,263.249C338.292,269.24 357.553,264.121 361.549,262.185C365.545,260.25 367.88,252.615 374.172,244.529C378.813,238.564 385.383,233.463 386.78,226.964C388.176,220.466 384.571,191.169 377.685,190.946C368.482,190.818 361.575,193.012 356.964,197.527C352.353,202.042 350.085,206.027 350.16,209.482C340.225,241.333 335.763,259.255 336.775,263.249Z" style="fill:#f8d1bb;fill-rule:nonzero;"/>
					<g>
						<clipPath id="_clip5">
							<path d="M336.775,263.249C338.292,269.24 357.553,264.121 361.549,262.185C365.545,260.25 367.88,252.615 374.172,244.529C378.813,238.564 385.383,233.463 386.78,226.964C388.176,220.466 384.571,191.169 377.685,190.946C368.482,190.818 361.575,193.012 356.964,197.527C352.353,202.042 350.085,206.027 350.16,209.482C340.225,241.333 335.763,259.255 336.775,263.249Z"/>
						</clipPath>
						<g clip-path="url(#_clip5)">
							<path d="M370.125,238.97C378.432,228.606 382.641,222.707 382.754,221.273C382.923,219.122 382.472,217.082 381.653,215.113C380.239,211.713 377.728,208.527 375.417,205.354C373.877,203.238 368.718,203.647 359.941,206.581L357.965,222.428L370.125,238.97Z" style="fill:#daaca3;fill-rule:nonzero;"/>
							<path d="M357.23,227.098C360.761,232.021 361.858,235.475 360.52,237.458C358.514,240.434 348.524,250.164 348.301,252.552C348.079,254.94 367.822,242.853 370.125,238.97C372.428,235.088 374.903,224.251 373.178,219.577C372.028,216.461 369.158,213.852 364.568,211.75L359.765,210.994L357.23,227.098Z" style="fill:#edbaa9;fill-rule:nonzero;"/>
						</g>
					</g>
					<path d="M359.363,256.698C358.803,265.638 356.59,272.786 354.425,272.651C353.222,272.575 352.285,270.268 351.786,266.698" style="fill:none;fill-rule:nonzero;stroke:#423f3d;stroke-width:4px;"/>
					<path d="M378.892,215.806C387.758,214.522 394.703,211.736 394.392,209.589C394.219,208.396 391.843,207.65 388.244,207.442" style="fill:none;fill-rule:nonzero;stroke:#595756;stroke-width:4px;"/>
					<path d="M342.479,259.088C342.904,256.384 345.402,254.527 348.052,254.945C350.703,255.362 352.509,257.896 352.083,260.6C351.658,263.304 349.16,265.16 346.51,264.743C343.859,264.326 342.053,261.792 342.479,259.088Z" style="fill:#423f3d;fill-rule:nonzero;"/>
				</g>
				<g>
					<path d="M177.228,265.521C175.148,271.341 156.46,264.416 152.666,262.109C148.872,259.803 147.273,251.981 141.778,243.334C137.724,236.955 131.668,231.253 130.895,224.651C130.122,218.05 136.493,189.228 143.369,189.66C152.543,190.407 159.211,193.246 163.372,198.179C167.533,203.112 169.412,207.294 169.009,210.726C175.875,243.376 178.615,261.641 177.228,265.521Z" style="fill:#f8d1bb;fill-rule:nonzero;"/>
					<g>
						<clipPath id="_clip6">
							<path d="M177.228,265.521C175.148,271.341 156.46,264.416 152.666,262.109C148.872,259.803 147.273,251.981 141.778,243.334C137.724,236.955 131.668,231.253 130.895,224.651C130.122,218.05 136.493,189.228 143.369,189.66C152.543,190.407 159.211,193.246 163.372,198.179C167.533,203.112 169.412,207.294 169.009,210.726C175.875,243.376 178.615,261.641 177.228,265.521Z"/>
						</clipPath>
						<g clip-path="url(#_clip6)">
							<path d="M146.334,238.185C139.049,227.078 135.419,220.806 135.443,219.368C135.478,217.211 136.121,215.222 137.124,213.34C138.854,210.091 141.657,207.157 144.258,204.217C145.992,202.258 151.007,202.258 159.304,204.217L160.01,222.872L146.334,238.185Z" style="fill:#daaca3;fill-rule:nonzero;"/>
							<path d="M160.298,227.59C156.315,232.157 154.896,235.491 156.039,237.592C157.753,240.744 166.775,251.38 166.769,253.778C166.763,256.176 148.258,242.268 146.334,238.185C144.41,234.102 142.975,223.078 145.136,218.589C146.577,215.596 149.682,213.272 154.451,211.615L159.304,211.319L160.298,227.59Z" style="fill:#edbaa9;fill-rule:nonzero;"/>
						</g>
					</g>
					<path d="M142.591,243.604C137.299,250.832 135.496,258.525 138.565,260.771C140.27,262.019 143.123,261.326 146.229,259.223" style="fill:none;fill-rule:nonzero;stroke:#3b3937;stroke-width:4px;"/>
					<path d="M153.103,249.153C152.801,249.535 152.502,249.926 152.208,250.328C146.918,257.555 145.113,265.249 148.182,267.495C150.228,268.993 153.927,267.695 157.733,264.521" style="fill:none;fill-rule:nonzero;stroke:#423f3d;stroke-width:4px;"/>
				</g>
			</g>
			<path d="M158.089,154.004C148.037,189.49 165.202,285.426 179.789,303.38C194.376,321.334 231.978,351.093 242.312,354.739C252.646,358.384 260.164,354.404 267.02,352.732C273.876,351.059 310.845,327.867 326.343,305.824C341.841,283.78 340.236,279.257 345.908,264.058C351.58,248.86 380.621,175.057 361.709,128.855C342.798,82.653 318.809,63.841 276.736,60.188C234.663,56.536 212.005,72.65 189.569,94.053C167.133,115.456 168.142,118.519 158.089,154.004Z" style="fill:#f8ddc6;fill-rule:nonzero;"/>
			<g>
				<clipPath id="_clip7">
					<path d="M158.089,154.004C148.037,189.49 165.202,285.426 179.789,303.38C194.376,321.334 231.978,351.093 242.312,354.739C252.646,358.384 260.164,354.404 267.02,352.732C273.876,351.059 310.845,327.867 326.343,305.824C341.841,283.78 340.236,279.257 345.908,264.058C351.58,248.86 380.621,175.057 361.709,128.855C342.798,82.653 318.809,63.841 276.736,60.188C234.663,56.536 212.005,72.65 189.569,94.053C167.133,115.456 168.142,118.519 158.089,154.004Z"/>
				</clipPath>
				<g clip-path="url(#_clip7)">
					<path class="cheeks" d="M154.906,276.664C156.697,261.34 172.251,250.547 189.618,252.577C206.986,254.607 219.632,268.695 217.841,284.019C216.05,299.343 200.496,310.136 183.129,308.107C165.761,306.077 153.115,291.988 154.906,276.664Z" style="fill:#f4b9b0;fill-opacity:0.5;fill-rule:nonzero;"/>
					<path class="cheeks" d="M297.849,287.531C294.061,272.576 304.747,256.948 321.698,252.655C338.648,248.361 355.485,257.018 359.273,271.974C363.061,286.93 352.375,302.558 335.425,306.851C318.474,311.144 301.637,302.487 297.849,287.531Z" style="fill:#f4b9b0;fill-opacity:0.5;fill-rule:nonzero;"/>
					<path class="cheeks" d="M327.92,246.06C328.076,244.728 329.284,243.772 330.617,243.928C331.949,244.084 332.905,245.292 332.749,246.624C332.593,247.957 331.385,248.912 330.052,248.757C328.72,248.601 327.764,247.393 327.92,246.06Z" style="fill:#edbaa9;fill-rule:nonzero;"/>
					<path class="dot" d="M239.625,289.582C239.781,288.25 240.989,287.294 242.321,287.45C243.654,287.606 244.609,288.814 244.453,290.147C244.298,291.479 243.089,292.434 241.757,292.279C240.424,292.123 239.469,290.915 239.625,289.582Z" style="fill:#edbaa9;fill-rule:nonzero;"/>
				</g>
			</g>
			<g>
				<path d="M257.838,225.55C256.19,225.542 254.551,226.875 252.921,229.55C247.614,256.468 245.159,271.062 245.556,273.332C245.952,275.602 250.046,279.399 257.838,284.724C265.609,279.025 269.664,275.227 270.003,273.332C270.342,271.437 267.926,256.843 262.756,229.55C261.126,226.891 259.487,225.558 257.838,225.55Z" style="fill:#f8d1bb;fill-rule:nonzero;"/>
				<path d="M262.756,276.929C264.296,279.551 267.519,280.521 269.947,279.095C272.376,277.668 273.097,274.381 271.557,271.759C270.701,270.302 269.326,269.355 267.857,269.046" style="fill:none;fill-rule:nonzero;stroke:#909090;stroke-width:2px;stroke-linecap:round;"/>
			</g>
			<path class="mouth" d="M256,296.231C250.275,296.231 242.275,297.564 232,300.231C239.257,305.314 247.257,307.924 256,308.061C264.743,308.198 272.743,305.588 280,300.231C269.725,297.564 261.725,296.231 256,296.231Z" style="fill:#f4ceba;fill-rule:nonzero;"/>
			<g>
				<clipPath class="mouth" id="_clip8">
					<path class="mouth" d="M256,296.231C250.275,296.231 242.275,297.564 232,300.231C239.257,305.314 247.257,307.924 256,308.061C264.743,308.198 272.743,305.588 280,300.231C269.725,297.564 261.725,296.231 256,296.231Z"/>
				</clipPath>
				<g class="mouth" clip-path="url(#_clip8)">
					<rect class="mouth" x="229.261" y="300" width="53.477" height="9.723" style="fill:#f3c5ad;"/>
				</g>
			</g>
			<g>
				<path d="M228.158,215.173C232.954,222.078 235.189,230.033 234.864,239.037C230.364,242.088 223.278,244.424 220.694,245C218.11,245.576 209.109,246.401 196.086,242.012C191.297,240.399 186.201,237.539 180.8,233.433C182.773,224.67 185.508,217.959 189.007,213.3C195.945,204.061 204.699,202.077 207.653,202.118C210.607,202.16 223.448,205.417 228.158,215.173Z" style="fill:#ffffff;fill-opacity:0.75;fill-rule:nonzero;"/>
				<g>
					<clipPath id="_clip9">
						<path class="eyelid" d="M228.158,215.173C232.954,222.078 235.189,230.033 234.864,239.037C230.364,242.088 223.278,244.424 220.694,245C218.11,245.576 209.109,246.401 196.086,242.012C191.297,240.399 186.201,237.539 180.8,233.433C182.773,224.67 185.508,217.959 189.007,213.3C195.945,204.061 204.699,202.077 207.653,202.118C210.607,202.16 223.448,205.417 228.158,215.173Z"/>
					</clipPath>
					<g clip-path="url(#_clip9)">
						<g class="pupil">
							<path d="M190.57,224.205C190.529,212.159 198.64,202.351 208.673,202.317C218.706,202.282 226.884,212.034 226.926,224.08C226.967,236.126 218.856,245.934 208.823,245.969C198.79,246.003 190.612,236.251 190.57,224.205Z" style="fill:#566;fill-rule:nonzero;"/>
							<g>
								<clipPath id="_clip10">
									<path d="M190.57,224.205C190.529,212.159 198.64,202.351 208.673,202.317C218.706,202.282 226.884,212.034 226.926,224.08C226.967,236.126 218.856,245.934 208.823,245.969C198.79,246.003 190.612,236.251 190.57,224.205Z"/>
								</clipPath>
								<g clip-path="url(#_clip10)">
									<g transform="matrix(1,-0.003,0.003,1,-0.81,0.734)">
										<rect x="187.828" y="223.191" width="50.339" height="25.379" style="fill:#58a2a2;"/>
									</g>
								</g>
							</g>
							<path d="M199.236,224.175C199.214,217.872 203.459,212.739 208.709,212.721C213.959,212.703 218.238,217.806 218.26,224.11C218.282,230.413 214.037,235.546 208.787,235.564C203.537,235.582 199.258,230.479 199.236,224.175Z" style="fill:none;fill-rule:nonzero;stroke:#fff;stroke-opacity:0.75;stroke-width:3px;stroke-linecap:square;stroke-linejoin:miter;"/>
							<path d="M199.236,224.175C199.214,217.872 203.459,212.739 208.709,212.721C213.959,212.703 218.238,217.806 218.26,224.11C218.282,230.413 214.037,235.546 208.787,235.564C203.537,235.582 199.258,230.479 199.236,224.175Z" style="fill:#423f3d;fill-rule:nonzero;"/>
						</g>
					</g>
				</g>
				<path d="M292.256,214.263C287.245,221.014 284.759,228.894 284.8,237.905C289.203,241.096 296.211,243.654 298.776,244.312C301.34,244.969 310.311,246.077 323.466,242.101C328.303,240.639 333.486,237.941 339.014,234.008C337.319,225.187 334.796,218.393 331.446,213.626C324.803,204.173 316.116,201.913 313.162,201.862C310.208,201.81 297.271,204.661 292.256,214.263Z" style="fill:#ffffff;fill-opacity:0.75;fill-rule:nonzero;"/>
				<g>
					<clipPath id="_clip11">
						<path class="eyelid" d="M292.256,214.263C287.245,221.014 284.759,228.894 284.8,237.905C289.203,241.096 296.211,243.654 298.776,244.312C301.34,244.969 310.311,246.077 323.466,242.101C328.303,240.639 333.486,237.941 339.014,234.008C337.319,225.187 334.796,218.393 331.446,213.626C324.803,204.173 316.116,201.913 313.162,201.862C310.208,201.81 297.271,204.661 292.256,214.263Z"/>
					</clipPath>
					<g clip-path="url(#_clip11)">
						<g class="pupil">
							<path d="M329.551,223.858C329.562,211.811 321.426,202.024 311.394,202.015C301.361,202.005 293.207,211.778 293.195,223.824C293.184,235.87 301.32,245.657 311.353,245.667C321.385,245.676 329.54,235.904 329.551,223.858Z" style="fill:#566;fill-rule:nonzero;"/>
							<g>
								<clipPath id="_clip12">
									<path d="M329.551,223.858C329.562,211.811 321.426,202.024 311.394,202.015C301.361,202.005 293.207,211.778 293.195,223.824C293.184,235.87 301.32,245.657 311.353,245.667C321.385,245.676 329.54,235.904 329.551,223.858Z"/>
								</clipPath>
								<g clip-path="url(#_clip12)">
									<g transform="matrix(1,0.001,-0.001,1,0.22,-0.287)">
										<rect x="281.984" y="222.9" width="50.339" height="25.379" style="fill:#58a2a2;"/>
									</g>
								</g>
							</g>
							<path d="M320.885,223.85C320.891,217.546 316.634,212.424 311.384,212.419C306.134,212.415 301.867,217.528 301.861,223.832C301.855,230.135 306.113,235.257 311.363,235.262C316.612,235.267 320.879,230.153 320.885,223.85Z" style="fill:none;fill-rule:nonzero;stroke:#fff;stroke-opacity:0.75;stroke-width:3px;stroke-linecap:square;stroke-linejoin:miter;"/>
							<path d="M320.885,223.85C320.891,217.546 316.634,212.424 311.384,212.419C306.134,212.415 301.867,217.528 301.861,223.832C301.855,230.135 306.113,235.257 311.363,235.262C316.612,235.267 320.879,230.153 320.885,223.85Z" style="fill:#423f3d;fill-rule:nonzero;"/>
						</g>
					</g>
				</g>
			</g>
			<g class="eyebrow">
				<path d="M310.614,188.732L278.946,187.478C291.587,180.017 301.809,176.317 309.611,176.378C317.412,176.439 328.303,180.975 342.283,189.986L310.614,188.732Z" style="fill:#5e4038;fill-rule:nonzero;"/>
				<path d="M206.892,188.785L238.524,186.803C225.714,179.636 215.41,176.172 207.611,176.412C199.813,176.652 189.03,181.437 175.261,190.767L206.892,188.785Z" style="fill:#5e4038;fill-rule:nonzero;"/>
			</g>
			<g>
				<path d="M256.544,123.924C234.742,125.467 229.827,135.982 211.444,144.403C201.447,148.982 189.108,150.427 184.147,157.05C181.31,160.838 178.728,164.957 176.453,169.403C172.334,177.452 169.219,186.575 167.406,196.756C164.361,213.849 164.361,231.604 167.406,250.021C136.959,210.723 122.827,178.112 125.011,152.187C128.286,113.299 137.311,114.074 146.752,94.573C156.192,75.073 162.139,64.59 182.711,49.786C203.284,34.981 229.302,35.625 255.544,34.567C281.785,33.509 308.809,33.48 327.289,43.263C345.769,53.047 358.726,55.439 368.51,80.442C378.293,105.444 389.284,131.063 384.815,159.796C381.836,178.951 371.691,199.605 354.378,221.758C354.378,204.365 351.842,188.422 346.769,173.928C344.469,167.358 340.516,158.054 337.827,153.306C331.618,142.344 317.959,144.571 309.388,141.85C295.571,137.462 278.345,122.38 256.544,123.924Z" style="fill:#5e4038;fill-rule:nonzero;"/>
				<clipPath id="_clip13">
					<path d="M256.544,123.924C234.742,125.467 229.827,135.982 211.444,144.403C201.447,148.982 189.108,150.427 184.147,157.05C181.31,160.838 178.728,164.957 176.453,169.403C172.334,177.452 169.219,186.575 167.406,196.756C164.361,213.849 164.361,231.604 167.406,250.021C136.959,210.723 122.827,178.112 125.011,152.187C128.286,113.299 137.311,114.074 146.752,94.573C156.192,75.073 162.139,64.59 182.711,49.786C203.284,34.981 229.302,35.625 255.544,34.567C281.785,33.509 308.809,33.48 327.289,43.263C345.769,53.047 358.726,55.439 368.51,80.442C378.293,105.444 389.284,131.063 384.815,159.796C381.836,178.951 371.691,199.605 354.378,221.758C354.378,204.365 351.842,188.422 346.769,173.928C344.469,167.358 340.516,158.054 337.827,153.306C331.618,142.344 317.959,144.571 309.388,141.85C295.571,137.462 278.345,122.38 256.544,123.924Z" clip-rule="nonzero"/>
				</clipPath>
				<g clip-path="url(#_clip13)">
					<g transform="matrix(-0.00207694,0.999998,-0.999998,-0.00207694,260.016,-85.7281)">
						<path d="M245.67,102.881C229.722,102.618 166.643,111.572 133.961,140.248L155.507,104.533C170.557,83.007 178.904,81.594 194.477,81.055C210.05,80.516 233.518,81.628 264.881,84.389C317.206,88.718 346.234,104.535 245.67,102.881Z" style="fill:#462f28;fill-rule:nonzero;"/>
					</g>
					<g transform="matrix(0.00207694,0.999998,0.999998,-0.00207694,255.147,-86.7281)">
						<path d="M245.67,102.881C229.722,102.618 166.643,111.572 133.961,140.248L155.507,104.533C170.557,83.007 178.904,81.594 194.477,81.055C210.05,80.516 214.063,81.406 245.426,84.168C297.75,88.496 346.234,104.535 245.67,102.881Z" style="fill:#462f28;fill-rule:nonzero;"/>
					</g>
				</g>
				<g>
					<clipPath id="_clip14">
						<path d="M256.544,123.924C234.742,125.467 217.41,128.272 201.104,140.229C184.798,152.187 171.972,171.115 167.406,196.756C164.361,213.849 164.361,231.604 167.406,250.021C136.959,210.723 122.827,178.112 125.011,152.187C128.286,113.299 137.311,114.074 146.752,94.573C156.192,75.073 162.139,64.59 182.711,49.786C203.284,34.981 229.302,35.625 255.544,34.567C281.785,33.509 308.809,33.48 327.289,43.263C345.769,53.047 358.726,55.439 368.51,80.442C378.293,105.444 389.284,131.063 384.815,159.796C381.836,178.951 371.691,199.605 354.378,221.758C354.378,204.365 351.842,188.422 346.769,173.928C339.159,152.187 329.454,141.789 317.418,133.707C305.382,125.625 278.345,122.38 256.544,123.924Z"/>
					</clipPath>
					<g clip-path="url(#_clip14)">
						<path d="M320.459,126.363C335.496,131.684 356.046,151.744 382.11,186.544L385.935,172.767C359.65,140.923 338.944,123.131 323.817,119.392C308.69,115.653 285.497,111.899 254.24,108.132C283.349,114.965 305.422,121.042 320.459,126.363Z" style="fill:#462f28;fill-rule:nonzero;"/>
						<path d="M320.459,109.363C335.496,114.684 356.046,134.744 382.11,169.544L385.935,155.767C359.65,123.923 338.944,106.131 323.817,102.392C308.69,98.653 285.497,94.899 254.24,91.132C283.349,97.965 305.422,104.042 320.459,109.363Z" style="fill:#462f28;fill-rule:nonzero;"/>
						<path d="M325.08,88.569C340.891,90.673 365.137,106.063 397.819,134.738L398.72,120.468C366.432,94.731 342.501,81.594 326.928,81.055C311.355,80.516 287.887,81.628 256.524,84.389C286.417,85.071 309.269,86.464 325.08,88.569Z" style="fill:#462f28;fill-rule:nonzero;"/>
						<path d="M327.182,71.947C343.119,72.596 368.672,85.704 403.839,111.27L403.431,96.978C368.924,74.301 343.892,63.407 328.335,64.295C312.778,65.183 289.511,68.436 258.532,74.054C288.361,71.999 311.245,71.297 327.182,71.947Z" style="fill:#462f28;fill-rule:nonzero;"/>
						<path d="M324.578,54.192C340.373,51.967 367.864,60.271 407.052,79.102L404.083,65.116C366.064,49.009 339.482,42.789 324.338,46.458C309.193,50.127 286.888,57.507 257.423,68.599C286.398,61.219 308.783,56.417 324.578,54.192Z" style="fill:#462f28;fill-rule:nonzero;"/>
						<path d="M326.176,29.465C341.555,25.232 369.884,29.938 411.165,43.585L406.426,30.095C366.654,19 339.494,16.244 324.945,21.825C310.397,27.407 289.224,37.589 261.426,52.371C289.214,41.334 310.797,33.698 326.176,29.465Z" style="fill:#462f28;fill-rule:nonzero;"/>
						<path d="M322.901,5.95C337.169,-1.18 365.874,-2.046 409.016,3.351L401.755,-8.966C360.588,-12.153 333.408,-9.6 320.215,-1.307C307.022,6.986 288.22,21.074 263.809,40.957C288.935,24.749 308.632,13.08 322.901,5.95Z" style="fill:#462f28;fill-rule:nonzero;"/>
						<path d="M200.947,126.363C185.91,131.684 165.359,151.744 139.295,186.544L135.47,172.767C161.755,140.923 182.461,123.131 197.588,119.392C212.715,115.653 235.908,111.899 267.165,108.132C238.056,114.965 215.984,121.042 200.947,126.363Z" style="fill:#462f28;fill-rule:nonzero;"/>
						<path d="M200.947,109.363C185.91,114.684 165.359,134.744 139.295,169.544L135.47,155.767C161.755,123.923 182.461,106.131 197.588,102.392C212.715,98.653 235.908,94.899 267.165,91.132C238.056,97.965 215.984,104.042 200.947,109.363Z" style="fill:#462f28;fill-rule:nonzero;"/>
						<path d="M196.326,88.569C180.515,90.673 156.268,106.063 123.586,134.738L122.685,120.468C154.974,94.731 178.904,81.594 194.477,81.055C210.05,80.516 233.518,81.628 264.881,84.389C234.988,85.071 212.137,86.464 196.326,88.569Z" style="fill:#462f28;fill-rule:nonzero;"/>
						<path d="M194.224,71.947C178.286,72.596 152.734,85.704 117.567,111.27L117.974,96.978C152.481,74.301 177.513,63.407 193.07,64.295C208.627,65.183 231.895,68.436 262.874,74.054C233.045,71.999 210.161,71.297 194.224,71.947Z" style="fill:#462f28;fill-rule:nonzero;"/>
						<path d="M196.828,54.192C181.033,51.967 153.542,60.271 114.353,79.102L117.322,65.116C155.341,49.009 181.923,42.789 197.068,46.458C212.212,50.127 234.517,57.507 263.982,68.599C235.007,61.219 212.623,56.417 196.828,54.192Z" style="fill:#462f28;fill-rule:nonzero;"/>
						<path d="M195.23,29.465C179.851,25.232 151.521,29.938 110.24,43.585L114.979,30.095C154.752,19 181.912,16.244 196.46,21.825C211.009,27.407 232.182,37.589 259.98,52.371C232.191,41.334 210.608,33.698 195.23,29.465Z" style="fill:#462f28;fill-rule:nonzero;"/>
						<path d="M198.505,5.95C184.236,-1.18 155.531,-2.046 112.389,3.351L119.65,-8.966C160.818,-12.153 187.998,-9.6 201.191,-1.307C214.384,6.986 233.185,21.074 257.596,40.957C232.47,24.749 212.773,13.08 198.505,5.95Z" style="fill:#462f28;fill-rule:nonzero;"/>
						<g transform="matrix(0.62852,0,0,1,98.5314,0)">
							<path d="M251.108,133.707L265.24,135.881L265.24,3.261L251.108,133.707Z" style="fill:#977971;fill-rule:nonzero;"/>
						</g>
					</g>
				</g>
				<path d="M160.883,77.18C142.403,60.875 129.212,66.415 114.14,75.006C104.092,80.734 96.845,91.605 92.399,107.618C98.788,123.213 102.05,135.533 102.183,144.577C102.382,158.144 85.76,174.392 86.964,192.408C88.168,210.423 101.308,221.908 108.705,238.064C116.102,254.219 112.617,279.94 131.533,290.242C144.144,297.11 156.464,298.197 168.493,293.503C174.406,286.928 178.391,281.493 180.45,277.197C182.509,272.902 175.987,249.711 160.883,207.626C163.443,185.107 164.892,167.714 165.231,155.448C165.74,137.049 179.363,93.486 160.883,77.18Z" style="fill:#5c3e36;fill-rule:nonzero;"/>
				<g>
					<clipPath id="_clip15">
						<path d="M160.883,77.18C142.403,60.875 129.212,66.415 114.14,75.006C104.092,80.734 96.845,91.605 92.399,107.618C98.788,123.213 102.05,135.533 102.183,144.577C102.382,158.144 85.76,174.392 86.964,192.408C88.168,210.423 101.308,221.908 108.705,238.064C116.102,254.219 112.617,279.94 131.533,290.242C144.144,297.11 156.464,298.197 168.493,293.503C174.406,286.928 178.391,281.493 180.45,277.197C182.509,272.902 175.987,249.711 160.883,207.626C163.443,185.107 164.892,167.714 165.231,155.448C165.74,137.049 179.363,93.486 160.883,77.18Z"/>
					</clipPath>
					<g clip-path="url(#_clip15)">
						<path d="M132.62,197.843C118.829,215.396 110.132,229.89 106.531,241.325C102.929,252.759 101.842,270.152 103.27,293.503L142.403,293.503C146.027,279.009 147.477,266.689 146.752,256.544C146.027,246.398 141.317,226.831 132.62,197.843Z" style="fill:#462f28;fill-rule:nonzero;"/>
						<path d="M146.752,71.745C134.889,78.951 127.28,85.836 123.924,92.399C120.568,98.962 137.236,123.602 173.928,166.318L173.928,219.584C129.721,147.839 109.067,105.444 111.966,92.399C114.865,79.354 128.272,68.122 152.187,58.701L146.752,71.745Z" style="fill:#7b554b;fill-rule:nonzero;"/>
						<path d="M139.118,298.024C145.87,283.169 149.391,273.792 149.682,269.894C150.118,264.047 145.559,240.682 122.837,206.539C113.18,192.028 99.237,176.085 81.008,158.709L85.877,129.359C106.29,155.86 121.871,178.728 132.62,197.963C152.89,234.238 157.15,257.594 158.072,268.031C158.687,274.99 152.246,290.443 138.749,314.391L139.118,298.024Z" style="fill:#7b554b;fill-rule:nonzero;"/>
						<path d="M165.231,129.359C159.096,136.45 154.023,142.247 150.013,146.752C146.003,151.256 140.205,168.286 132.62,197.843C131.895,175.377 128.634,162.332 122.837,158.709C117.039,155.086 107.98,155.086 95.66,158.709C102.091,138.014 108.976,123.158 116.314,114.14C123.652,105.122 142.857,93.527 173.928,79.355L165.231,129.359Z" style="fill:#462f28;fill-rule:nonzero;"/>
					</g>
				</g>
				<path d="M355.839,77.18C374.319,60.875 387.51,66.415 402.582,75.006C412.63,80.734 419.877,91.605 424.323,107.618C417.934,123.213 414.673,135.533 414.54,144.577C414.34,158.144 430.962,174.392 429.758,192.408C428.555,210.423 415.414,221.908 408.017,238.064C400.62,254.219 404.105,279.94 385.189,290.242C372.578,297.11 360.259,298.197 348.23,293.503C342.317,286.928 338.331,281.493 336.272,277.197C334.213,272.902 340.736,249.711 355.839,207.626C353.279,185.107 351.83,167.714 351.491,155.448C350.982,137.049 337.359,93.486 355.839,77.18Z" style="fill:#5c3e36;fill-rule:nonzero;"/>
				<g>
					<clipPath id="_clip16">
						<path d="M355.839,77.18C374.319,60.875 387.51,66.415 402.582,75.006C412.63,80.734 419.877,91.605 424.323,107.618C417.934,123.213 414.673,135.533 414.54,144.577C414.34,158.144 430.962,174.392 429.758,192.408C428.555,210.423 415.414,221.908 408.017,238.064C400.62,254.219 404.105,279.94 385.189,290.242C372.578,297.11 360.259,298.197 348.23,293.503C342.317,286.928 338.331,281.493 336.272,277.197C334.213,272.902 340.736,249.711 355.839,207.626C353.279,185.107 351.83,167.714 351.491,155.448C350.982,137.049 337.359,93.486 355.839,77.18Z"/>
					</clipPath>
					<g clip-path="url(#_clip16)">
						<path d="M384.102,197.843C397.893,215.396 406.59,229.89 410.191,241.325C413.793,252.759 414.88,270.152 413.453,293.503L374.319,293.503C370.696,279.009 369.246,266.689 369.971,256.544C370.696,246.398 375.406,226.831 384.102,197.843Z" style="fill:#462f28;fill-rule:nonzero;"/>
						<path d="M369.971,71.745C381.834,78.951 389.443,85.836 392.799,92.399C396.155,98.962 379.487,123.602 342.794,166.318L342.794,219.584C387.001,147.839 407.655,105.444 404.756,92.399C401.857,79.354 388.45,68.122 364.535,58.701L369.971,71.745Z" style="fill:#7b554b;fill-rule:nonzero;"/>
						<path d="M377.604,298.024C370.852,283.169 367.331,273.792 367.04,269.894C366.604,264.047 371.164,240.682 393.886,206.539C403.543,192.028 417.485,176.085 435.714,158.709L430.845,129.359C410.432,155.86 394.851,178.728 384.102,197.963C363.832,234.238 359.572,257.594 358.65,268.031C358.035,274.99 364.476,290.443 377.973,314.391L377.604,298.024Z" style="fill:#7b554b;fill-rule:nonzero;"/>
						<path d="M351.491,129.359C357.626,136.45 362.699,142.247 366.709,146.752C370.72,151.256 376.517,168.286 384.102,197.843C384.827,175.377 388.088,162.332 393.886,158.709C399.683,155.086 408.742,155.086 421.062,158.709C414.631,138.014 407.746,123.158 400.408,114.14C393.07,105.122 373.865,93.527 342.794,79.355L351.491,129.359Z" style="fill:#462f28;fill-rule:nonzero;"/>
					</g>
				</g>
			</g>
		</g>
	</g>
	<g class="dialog-5">
		<path d=" M 543.54 442.992 Q 540.599 443.14 541.063 440.62 Q 543.711 436.979 544.778 433.505 C 545.844 430.03 545.91 377.421 546.635 363.537 Q 546.635 355.631 554.064 355.235 L 903.571 355.235 Q 910.69 356.026 911 363.537 Q 911 377.421 911 433.505 Q 909.452 441.806 903.571 442.992 C 816.881 442.992 678.687 442.992 543.54 442.992 Z " fill="rgb(57,56,56)" />
		<g clip-path="url(#_clipPath_cd6GMJ8GaVQpHZEklPJY27QnsFp6XqOK)">
			<text transform="matrix(1,0,0,1,565,381.172)" style="
					font-family: monospace;
					font-weight: 400;
					font-size: 16px;
					font-style: normal;
					fill: #e8e8e8;
					stroke: none;
				">
				If you want to learn more about me,
			</text>
			<text transform="matrix(1,0,0,1,565,404.61)" style="
					font-family: monospace;
					font-weight: 400;
					font-size: 16px;
					font-style: normal;
					fill: #e8e8e8;
					stroke: none;
				">
				I'm @rightonhana everywhere, or
			</text>
			<text transform="matrix(1,0,0,1,565,428.047)" style="
					font-family: monospace;
					font-weight: 400;
					font-size: 16px;
					font-style: normal;
					fill: #e8e8e8;
					stroke: none;
				">
				you can go to 🔗 rightonhana.dev
			</text>
		</g>
		<defs>
			<clipPath id="_clipPath_cd6GMJ8GaVQpHZEklPJY27QnsFp6XqOK">
				<rect x="0" y="0" width="338.571" height="73" transform="matrix(1,0,0,1,565,362.618)" />
			</clipPath>
		</defs>
	</g>
	<g class="dialog-4">
		<path d=" M 543.142 442.993 Q 540.662 443.118 541.053 440.993 Q 543.286 437.923 544.186 434.993 C 545.085 432.063 545.141 416.701 545.752 404.993 Q 545.752 398.326 552.016 397.993 L 823.736 397.993 Q 829.739 398.66 830 404.993 Q 830 416.701 830 434.993 Q 828.695 441.993 823.736 442.993 C 750.635 442.993 657.103 442.993 543.142 442.993 Z " fill="rgb(57,56,56)" />
		<g clip-path="url(#_clipPath_Ms0lecwxuJ44rVCTRwPcoZdoHehpvDLq)">
			<text transform="matrix(1,0,0,1,559.408,426.799)" style="
					font-family: monospace;
					font-weight: 400;
					font-size: 16px;
					font-style: normal;
					fill: #e8e8e8;
					stroke: none;
				">
				My pronouns are She/Her 👩‍💻
			</text>
		</g>
		<defs>
			<clipPath id="_clipPath_Ms0lecwxuJ44rVCTRwPcoZdoHehpvDLq">
				<rect x="0" y="0" width="258.183" height="24.503" transform="matrix(1,0,0,1,559.408,408.245)" />
			</clipPath>
		</defs>
	</g>
	<g class="dialog-3">
		<path d=" M 543.54 442.992 Q 540.599 443.14 541.063 440.62 Q 543.711 436.979 544.778 433.505 C 545.844 430.03 545.91 377.421 546.635 363.537 Q 546.635 355.631 554.064 355.235 L 903.571 355.235 Q 910.69 356.026 911 363.537 Q 911 377.421 911 433.505 Q 909.452 441.806 903.571 442.992 C 816.881 442.992 678.687 442.992 543.54 442.992 Z " fill="rgb(57,56,56)" />
		<g clip-path="url(#_clipPath_cd6GMJ8GaVQpHZEklPJY27QnsFp6XqOK)">
			<text transform="matrix(1,0,0,1,565,381.172)" style="
					font-family: monospace;
					font-weight: 400;
					font-size: 16px;
					font-style: normal;
					fill: #e8e8e8;
					stroke: none;
				">
				I'm a Front-end Developer with
			</text>
			<text transform="matrix(1,0,0,1,565,404.61)" style="
					font-family: monospace;
					font-weight: 400;
					font-size: 16px;
					font-style: normal;
					fill: #e8e8e8;
					stroke: none;
				">
				experience in Angular, React and
			</text>
			<text transform="matrix(1,0,0,1,565,428.047)" style="
					font-family: monospace;
					font-weight: 400;
					font-size: 16px;
					font-style: normal;
					fill: #e8e8e8;
					stroke: none;
				">
				Svelte.
			</text>
		</g>
		<defs>
			<clipPath id="_clipPath_cd6GMJ8GaVQpHZEklPJY27QnsFp6XqOK">
				<rect x="0" y="0" width="338.571" height="73" transform="matrix(1,0,0,1,565,362.618)" />
			</clipPath>
		</defs>
	</g>
	<g class="dialog-2">
		<path d=" M 543.742 442.16 Q 540.567 442.285 541.068 440.155 Q 543.927 437.077 545.078 434.139 C 546.23 431.202 546.301 394.748 547.084 383.011 Q 547.084 376.327 555.104 375.993 L 902.98 375.993 Q 910.666 376.661 911 383.011 Q 911 394.748 911 434.139 Q 909.329 441.157 902.98 442.16 C 809.39 442.16 689.644 442.16 543.742 442.16 Z " fill="rgb(57,56,56)" />
		<g clip-path="url(#_clipPath_ESlM0h8RX5VXCFQgA5t80sqGiBmZNFpN)">
			<text transform="matrix(1,0,0,1,561.068,404.114)" style="
					font-family: monospace;
					font-weight: 400;
					font-size: 16px;
					font-style: normal;
					fill: #e8e8e8;
					stroke: none;
				">
				I'm born and raised in Argentina 🇦🇷 
			</text>
			<text transform="matrix(1,0,0,1,561.068,427.551)" style="
					font-family: monospace;
					font-weight: 400;
					font-size: 16px;
					font-style: normal;
					fill: #e8e8e8;
					stroke: none;
				">
				now living in Chicago, Illinois 🇺🇸
			</text>
		</g>
		<defs>
			<clipPath id="_clipPath_ESlM0h8RX5VXCFQgA5t80sqGiBmZNFpN">
				<rect x="0" y="0" width="341" height="46.875" transform="matrix(1,0,0,1,561.068,385.559)" />
			</clipPath>
		</defs>
	</g>
	<g class="dialog-1">
		<path d=" M 543.297 442.993 Q 540.637 443.118 541.057 440.993 Q 543.452 437.923 544.417 434.993 C 545.382 432.063 545.441 416.701 546.097 404.993 Q 546.097 398.326 552.817 397.993 L 896.28 397.993 Q 902.72 398.66 903 404.993 Q 903 416.701 903 434.993 Q 901.6 441.993 896.28 442.993 C 817.868 442.993 665.54 442.993 543.297 442.993 Z " fill="rgb(57,56,56)" />
		<g clip-path="url(#_clipPath_3D2gxkuakMBlARHwnRYqTgx1WEIpF5CZ)">
			<text transform="matrix(1,0,0,1,559,427.048)" style="
					font-family: monospace;
					font-weight: 400;
					font-size: 16px;
					font-style: normal;
					fill: #e8e8e8;
					stroke: none;
				">
				Hi there 👋 I'm Florencia Gonzalez
			</text>
		</g>
		<defs>
			<clipPath id="_clipPath_3D2gxkuakMBlARHwnRYqTgx1WEIpF5CZ">
				<rect x="0" y="0" width="350" height="24.007" transform="matrix(1,0,0,1,559,408.493)" />
			</clipPath>
		</defs>
	</g>
</svg>
