<svg
	class="avatar"
	xmlns="http://www.w3.org/2000/svg"
	xmlns:xlink="http://www.w3.org/1999/xlink"
	style="isolation: isolate"
	viewBox="0 0 1024 512"
	width="1024pt"
	height="512pt"
>
	<style>
		.dialog-1 {
			opacity: 0;
			animation: greet 7s both;
		}

		.dialog-2 {
			opacity: 0;
			animation: from 7s both;
		}

		.dialog-3 {
			opacity: 0;
			animation: profession 7s both;
		}

		.dialog-4 {
			opacity: 0;
			animation: pronouns 7s both;
		}

		.dialog-5 {
			opacity: 0;
			animation: contact 7s both;
		}

		.eyelid {
			animation: eye 3s ease-in-out infinite;
			transform-origin: center;
		}

		.pupil {
			animation: pupil 15s ease-out infinite;
			transform-origin: center;
		}

		.eyebrow {
			animation: eyebrow 3s ease-in-out infinite;
			transform-origin: center;
		}

		.mouth {
			animation: mouth 15s ease infinite;
			transform-origin: center;
		}

		.dot {
			animation: dot 15s ease infinite;
			transform-origin: center;
		}

		.cheeks:first-child {
			animation: cheeks1 15s ease infinite;
			transform-origin: center;
		}

		.cheeks:nth-child(2),
		.cheeks:nth-child(3) {
			animation: cheeks2 15s ease infinite;
			transform-origin: center;
		}

		@keyframes greet {
			0% {
				opacity: 0;
				transform: translate(0, 0);
			}
			20% {
				opacity: 1;
				transform: translate(0, 0);
			}
			40% {
				opacity: 1;
				transform: translate(0, -78px);
			}
			60% {
				opacity: 1;
				transform: translate(0, -180px);
			}
			80% {
				opacity: 1;
				transform: translate(0, -234px);
			}
			100% {
				opacity: 1;
				transform: translate(0, -333px);
			}
		}

		@keyframes from {
			0%,
			20% {
				opacity: 0;
				transform: translate(0, 0);
			}
			40% {
				opacity: 1;
				transform: translate(0, 0);
			}
			60% {
				opacity: 1;
				transform: translate(0, -100px);
			}
			80% {
				opacity: 1;
				transform: translate(0, -155px);
			}
			100% {
				opacity: 1;
				transform: translate(0, -252px);
			}
		}

		@keyframes profession {
			0%,
			40% {
				opacity: 0;
				transform: translate(0, 0);
			}
			60% {
				opacity: 1;
				transform: translate(0, 0);
			}
			80% {
				opacity: 1;
				transform: translate(0, -56px);
			}
			100% {
				opacity: 1;
				transform: translate(0, -155px);
			}
		}

		@keyframes pronouns {
			0%,
			60% {
				opacity: 0;
				transform: translate(0, 0);
			}
			80% {
				opacity: 1;
				transform: translate(0, 0);
			}
			100% {
				opacity: 1;
				transform: translate(0, -99px);
			}
		}

		@keyframes contact {
			0%,
			80% {
				opacity: 0;
				transform: translate(0, 0);
			}
			100% {
				opacity: 1;
				transform: translate(0, 0);
			}
		}

		@keyframes eye {
			5%,
			20% {
				transform: scale(1, 1);
				stroke-width: 2px;
			}
			10%,
			15% {
				transform: scale(1, 0);
				stroke-width: 20px;
			}
		}

		@keyframes pupil {
			5%,
			20% {
				transform: translate(5px, -1px);
			}
			10%,
			15% {
				transform: translate(-5px, 1px);
			}
			20%,
			100% {
				transform: translate(0, 0);
			}
		}

		@keyframes eyebrow {
			0%,
			9% {
				transform: translate(0, 0);
			}
			10%,
			15% {
				transform: translate(0, 0.5px);
			}
			16%,
			100% {
				transform: translate(0, 0);
			}
		}

		@keyframes mouth {
			0%,
			4% {
				transform: scale(1, 1);
			}
			5%,
			20% {
				transform-origin: 250px 280px;
				transform: scale(1.1, 0.95);
			}
			21%,
			100% {
				transform: scale(1, 1);
			}
		}

		@keyframes dot {
			0%,
			4% {
				transform: translate(0, 0);
			}
			5%,
			20% {
				transform: translate(0, -3px);
			}
			21%,
			100% {
				transform: translate(0, 0);
			}
		}

		@keyframes cheeks1 {
			0%,
			4% {
				transform: translate(0, 0);
			}
			5%,
			20% {
				transform: translate(-2px, 0);
			}
			21%,
			100% {
				transform: translate(0, 0);
			}
		}

		@keyframes cheeks2 {
			0%,
			4% {
				transform: translate(0, 0);
			}
			5%,
			20% {
				transform: translate(2px, 0);
			}
			21%,
			100% {
				transform: translate(0, 0);
			}
		}
	</style>
	<defs>
		<clipPath id="_clipPath_uSaH7GvzYbWeM4qHwkmFMFjBW04XGMZb">
			<rect width="1024" height="512" />
		</clipPath>
	</defs>
	<g clip-path="url(#_clipPath_uSaH7GvzYbWeM4qHwkmFMFjBW04XGMZb)">
		<g>
			<path
				d="M 13.368 374.427 L 152.62 305.736 C 157.872 303.145 164.239 305.306 166.83 310.558 L 187.514 352.493 C 190.105 357.745 187.944 364.112 182.692 366.703 L 43.44 435.394 C 38.188 437.985 31.821 435.824 29.23 430.572 L 8.546 388.637 C 5.955 383.385 8.116 377.018 13.368 374.427 Z"
				style="stroke: none; fill: #171717; stroke-miterlimit: 10"
			/>
			<clipPath id="_clipPath_gn1ybNMkub2GKfWXb6jqZwFGpSnL9cIZ">
				<path
					d="M 13.368 374.427 L 152.62 305.736 C 157.872 303.145 164.239 305.306 166.83 310.558 L 187.514 352.493 C 190.105 357.745 187.944 364.112 182.692 366.703 L 43.44 435.394 C 38.188 437.985 31.821 435.824 29.23 430.572 L 8.546 388.637 C 5.955 383.385 8.116 377.018 13.368 374.427 Z"
					style="stroke: none; fill: #171717; stroke-miterlimit: 10"
				/>
			</clipPath>
			<g clip-path="url(#_clipPath_gn1ybNMkub2GKfWXb6jqZwFGpSnL9cIZ)">
				<path
					d=" M 133.97 362.451 L 138.99 360.045 L 137.299 370.753 L 139.536 375.421 L 135.379 377.413 L 133.142 372.745 L 123.737 367.355 L 128.757 364.949 L 133.228 367.636 L 133.97 362.451 L 133.97 362.451 Z  M 155.615 359.983 L 155.615 359.983 L 155.615 359.983 Q 156.616 362.071 156.448 363.959 L 156.448 363.959 L 156.448 363.959 Q 156.281 365.848 154.985 367.379 L 154.985 367.379 L 154.985 367.379 Q 153.688 368.91 151.398 370.007 L 151.398 370.007 L 151.398 370.007 Q 149.108 371.104 147.109 371.147 L 147.109 371.147 L 147.109 371.147 Q 145.11 371.19 143.566 370.138 L 143.566 370.138 L 143.566 370.138 Q 142.023 369.085 141.014 366.981 L 141.014 366.981 L 141.014 366.981 Q 140.25 365.387 140.154 363.944 L 140.154 363.944 L 140.154 363.944 Q 140.058 362.501 140.595 361.225 L 140.595 361.225 L 140.595 361.225 Q 141.132 359.95 142.283 358.873 L 142.283 358.873 L 142.283 358.873 Q 143.435 357.796 145.152 356.973 L 145.152 356.973 L 145.152 356.973 Q 147.433 355.88 149.45 355.84 L 149.45 355.84 L 149.45 355.84 Q 151.466 355.799 153.041 356.848 L 153.041 356.848 L 153.041 356.848 Q 154.615 357.896 155.615 359.983 Z  M 145.549 364.851 L 145.549 364.851 L 145.549 364.851 Q 146.135 366.075 147.12 366.718 L 147.12 366.718 L 147.12 366.718 Q 148.105 367.362 149.726 366.585 L 149.726 366.585 L 149.726 366.585 Q 150.976 365.986 151.369 365.213 L 151.369 365.213 L 151.369 365.213 Q 151.762 364.44 151.623 363.754 L 151.623 363.754 L 151.623 363.754 Q 151.484 363.068 151.123 362.179 L 151.123 362.179 L 151.123 362.179 Q 150.484 360.981 149.51 360.327 L 149.51 360.327 L 149.51 360.327 Q 148.536 359.673 146.81 360.5 L 146.81 360.5 L 146.81 360.5 Q 144.088 361.804 145.549 364.851 Z  M 152.702 353.474 L 156.841 351.491 L 160.445 359.012 L 160.445 359.012 Q 161.008 360.323 161.795 360.563 L 161.795 360.563 L 161.795 360.563 Q 162.582 360.804 163.761 360.282 L 163.761 360.282 L 163.761 360.282 Q 164.686 359.817 165.058 358.989 L 165.058 358.989 L 165.058 358.989 Q 165.43 358.161 164.796 356.927 L 164.796 356.927 L 161.192 349.406 L 165.331 347.423 L 168.905 354.882 L 168.905 354.882 Q 169.638 356.48 169.595 357.665 L 169.595 357.665 L 169.595 357.665 Q 169.551 358.85 169.093 359.849 L 169.093 359.849 L 169.093 359.849 Q 168.635 360.848 167.654 361.751 L 167.654 361.751 L 167.654 361.751 Q 166.674 362.654 165.282 363.365 L 165.282 363.365 L 165.282 363.365 Q 164.098 363.9 162.745 364.185 L 162.745 364.185 L 162.745 364.185 Q 161.393 364.47 160.187 364.269 L 160.187 364.269 L 160.187 364.269 Q 158.98 364.067 158.014 363.306 L 158.014 363.306 L 158.014 363.306 Q 157.049 362.545 156.281 360.942 L 156.281 360.942 L 152.702 353.474 L 152.702 353.474 Z  M 87.303 400.451 L 83.109 395.833 L 84.353 401.865 L 80.214 403.848 L 70.245 392.988 L 74.384 391.005 L 78.761 395.664 L 77.643 389.443 L 81.447 387.62 L 85.851 392.267 L 84.397 386.206 L 88.537 384.223 L 91.443 398.467 L 87.303 400.451 L 87.303 400.451 Z  M 93.776 397.349 L 87.682 384.632 L 91.821 382.649 L 97.915 395.365 L 93.776 397.349 L 93.776 397.349 Z  M 92.086 382.522 L 104.292 376.673 L 106.106 380.46 L 102.073 382.393 L 106.352 391.322 L 102.213 393.306 L 97.934 384.376 L 93.9 386.309 L 92.086 382.522 L 92.086 382.522 Z  M 110.797 378.948 L 114.126 377.353 L 112.024 372.967 L 116.163 370.984 L 122.257 383.701 L 118.118 385.684 L 115.923 381.105 L 112.594 382.7 L 114.789 387.28 L 110.65 389.263 L 104.556 376.546 L 108.695 374.563 L 110.797 378.948 L 110.797 378.948 Z  M 51.443 417.635 L 43.42 421.48 L 37.326 408.763 L 46 404.606 L 46 404.606 Q 48.096 403.624 49.521 403.807 L 49.521 403.807 L 49.521 403.807 Q 50.946 403.99 51.969 405.536 L 51.969 405.536 L 51.969 405.536 Q 52.656 406.766 52.385 407.784 L 52.385 407.784 L 52.385 407.784 Q 52.115 408.802 50.921 409.948 L 50.921 409.948 L 50.938 409.983 L 50.938 409.983 Q 51.676 409.738 52.403 409.741 L 52.403 409.741 L 52.403 409.741 Q 53.13 409.745 53.718 409.944 L 53.718 409.944 L 53.718 409.944 Q 54.307 410.144 54.763 410.532 L 54.763 410.532 L 54.763 410.532 Q 55.22 410.92 55.448 411.395 L 55.448 411.395 L 55.448 411.395 Q 56.17 412.901 55.77 414.045 L 55.77 414.045 L 55.77 414.045 Q 55.371 415.19 54.274 416.008 L 54.274 416.008 L 54.274 416.008 Q 53.177 416.826 51.443 417.635 L 51.443 417.635 L 51.443 417.635 Z  M 48.273 413.101 L 45.446 414.455 L 46.573 416.807 L 49.4 415.452 L 49.4 415.452 Q 50.144 415.128 50.525 414.523 L 50.525 414.523 L 50.525 414.523 Q 50.907 413.918 50.666 413.416 L 50.666 413.416 L 50.666 413.416 Q 50.453 412.836 49.803 412.757 L 49.803 412.757 L 49.803 412.757 Q 49.154 412.679 48.273 413.101 L 48.273 413.101 L 48.273 413.101 Z  M 46.262 408.271 L 43.189 409.744 L 44.113 411.672 L 47.195 410.195 L 47.195 410.195 Q 47.451 410.073 47.604 409.669 L 47.604 409.669 L 47.604 409.669 Q 47.757 409.266 47.559 408.808 L 47.559 408.808 L 47.559 408.808 Q 47.275 408.305 46.87 408.24 L 46.87 408.24 L 46.87 408.24 Q 46.465 408.174 46.262 408.271 L 46.262 408.271 L 46.262 408.271 Z  M 69.734 408.87 L 57.757 414.609 L 51.663 401.893 L 62.566 396.668 L 64.38 400.455 L 57.617 403.696 L 58.317 405.158 L 62.686 403.065 L 63.749 405.284 L 59.381 407.377 L 60.081 408.839 L 67.919 405.083 L 69.734 408.87 L 69.734 408.87 Z  M 124.6 335.981 L 123.121 341.573 L 126.503 339.953 L 124.6 335.981 L 124.6 335.981 Z  M 125.929 330.915 L 129.568 338.484 L 131.778 337.425 L 133.078 340.138 L 130.859 341.201 L 132.023 343.632 L 128.967 345.096 L 127.803 342.665 L 120.96 345.944 L 119.66 343.232 L 122.873 332.379 L 125.929 330.915 L 125.929 330.915 Z  M 128.351 329.754 L 140.557 323.905 L 142.372 327.692 L 138.338 329.625 L 142.618 338.555 L 138.479 340.538 L 134.199 331.608 L 130.166 333.541 L 128.351 329.754 L 128.351 329.754 Z  M 147.062 326.181 L 150.391 324.585 L 148.289 320.2 L 152.429 318.216 L 158.523 330.933 L 154.383 332.917 L 152.189 328.337 L 148.86 329.932 L 151.055 334.512 L 146.915 336.495 L 140.821 323.778 L 144.961 321.795 L 147.062 326.181 L 147.062 326.181 Z  M 70.967 357.253 L 83.173 351.404 L 84.988 355.191 L 80.954 357.124 L 85.233 366.053 L 81.094 368.037 L 76.815 359.107 L 72.782 361.04 L 70.967 357.253 L 70.967 357.253 Z  M 89.678 353.679 L 93.007 352.084 L 90.905 347.698 L 95.044 345.715 L 101.138 358.432 L 96.999 360.415 L 94.805 355.836 L 91.476 357.431 L 93.67 362.011 L 89.531 363.994 L 83.437 351.277 L 87.576 349.294 L 89.678 353.679 L 89.678 353.679 Z  M 113.996 352.27 L 102.019 358.01 L 95.925 345.293 L 106.828 340.068 L 108.642 343.855 L 101.879 347.096 L 102.579 348.558 L 106.948 346.465 L 108.011 348.684 L 103.643 350.778 L 104.343 352.239 L 112.181 348.483 L 113.996 352.27 L 113.996 352.27 Z  M 32.437 391.354 L 28.298 393.337 L 24.019 384.407 L 21.377 385.673 L 19.562 381.886 L 26.344 378.637 L 31.659 382.587 L 31.892 375.978 L 36.031 373.994 L 42.125 386.711 L 37.986 388.695 L 35.454 383.411 L 35.326 389.969 L 35.097 390.079 L 29.905 386.07 L 32.437 391.354 L 32.437 391.354 Z  M 46.334 384.694 L 41.773 386.88 L 39.862 372.159 L 46.176 369.133 L 56.524 379.811 L 51.715 382.116 L 49.817 380.21 L 46.039 382.02 L 46.334 384.694 L 46.334 384.694 Z  M 48.479 377.689 L 44.383 373.458 L 44.974 379.369 L 48.479 377.689 L 48.479 377.689 Z  M 58.814 363.077 L 63.834 360.671 L 62.143 371.379 L 64.379 376.047 L 60.223 378.039 L 57.986 373.371 L 48.58 367.981 L 53.6 365.575 L 58.072 368.262 L 58.814 363.077 L 58.814 363.077 Z "
					fill="rgb(255,153,0)"
				/>
				<path
					d=" M 135.758 361.591 L 140.778 359.186 L 139.087 369.894 L 141.323 374.561 L 137.167 376.553 L 134.93 371.886 L 125.524 366.495 L 130.544 364.089 L 135.016 366.777 L 135.758 361.591 L 135.758 361.591 Z  M 157.403 359.124 L 157.403 359.124 L 157.403 359.124 Q 158.403 361.211 158.236 363.1 L 158.236 363.1 L 158.236 363.1 Q 158.069 364.988 156.772 366.519 L 156.772 366.519 L 156.772 366.519 Q 155.475 368.05 153.186 369.147 L 153.186 369.147 L 153.186 369.147 Q 150.896 370.245 148.897 370.288 L 148.897 370.288 L 148.897 370.288 Q 146.898 370.33 145.354 369.278 L 145.354 369.278 L 145.354 369.278 Q 143.81 368.226 142.802 366.121 L 142.802 366.121 L 142.802 366.121 Q 142.038 364.527 141.942 363.084 L 141.942 363.084 L 141.942 363.084 Q 141.846 361.641 142.383 360.366 L 142.383 360.366 L 142.383 360.366 Q 142.919 359.091 144.071 358.013 L 144.071 358.013 L 144.071 358.013 Q 145.223 356.936 146.94 356.114 L 146.94 356.114 L 146.94 356.114 Q 149.221 355.02 151.237 354.98 L 151.237 354.98 L 151.237 354.98 Q 153.254 354.94 154.828 355.988 L 154.828 355.988 L 154.828 355.988 Q 156.403 357.037 157.403 359.124 Z  M 147.336 363.991 L 147.336 363.991 L 147.336 363.991 Q 147.923 365.215 148.908 365.859 L 148.908 365.859 L 148.908 365.859 Q 149.893 366.502 151.513 365.725 L 151.513 365.725 L 151.513 365.725 Q 152.764 365.126 153.157 364.353 L 153.157 364.353 L 153.157 364.353 Q 153.55 363.58 153.411 362.894 L 153.411 362.894 L 153.411 362.894 Q 153.272 362.208 152.911 361.32 L 152.911 361.32 L 152.911 361.32 Q 152.271 360.121 151.297 359.467 L 151.297 359.467 L 151.297 359.467 Q 150.323 358.813 148.597 359.64 L 148.597 359.64 L 148.597 359.64 Q 145.876 360.944 147.336 363.991 Z  M 154.49 352.615 L 158.629 350.631 L 162.233 358.152 L 162.233 358.152 Q 162.796 359.463 163.583 359.704 L 163.583 359.704 L 163.583 359.704 Q 164.369 359.944 165.549 359.422 L 165.549 359.422 L 165.549 359.422 Q 166.474 358.957 166.846 358.129 L 166.846 358.129 L 166.846 358.129 Q 167.218 357.301 166.583 356.067 L 166.583 356.067 L 162.979 348.547 L 167.118 346.563 L 170.693 354.022 L 170.693 354.022 Q 171.426 355.62 171.382 356.805 L 171.382 356.805 L 171.382 356.805 Q 171.338 357.99 170.88 358.99 L 170.88 358.99 L 170.88 358.99 Q 170.422 359.989 169.442 360.892 L 169.442 360.892 L 169.442 360.892 Q 168.461 361.795 167.069 362.505 L 167.069 362.505 L 167.069 362.505 Q 165.885 363.04 164.533 363.325 L 164.533 363.325 L 164.533 363.325 Q 163.181 363.611 161.974 363.409 L 161.974 363.409 L 161.974 363.409 Q 160.768 363.208 159.802 362.447 L 159.802 362.447 L 159.802 362.447 Q 158.836 361.686 158.068 360.083 L 158.068 360.083 L 154.49 352.615 L 154.49 352.615 Z  M 89.091 399.591 L 84.897 394.974 L 86.141 401.005 L 82.002 402.988 L 72.033 392.128 L 76.172 390.145 L 80.549 394.805 L 79.43 388.583 L 83.235 386.76 L 87.638 391.407 L 86.185 385.347 L 90.324 383.363 L 93.23 397.608 L 89.091 399.591 L 89.091 399.591 Z  M 95.564 396.489 L 89.47 383.772 L 93.609 381.789 L 99.703 394.506 L 95.564 396.489 L 95.564 396.489 Z  M 93.873 381.662 L 106.079 375.813 L 107.894 379.6 L 103.861 381.533 L 108.14 390.463 L 104.001 392.446 L 99.721 383.516 L 95.688 385.449 L 93.873 381.662 L 93.873 381.662 Z  M 112.584 378.089 L 115.913 376.494 L 113.812 372.108 L 117.951 370.124 L 124.045 382.841 L 119.905 384.825 L 117.711 380.245 L 114.382 381.84 L 116.577 386.42 L 112.437 388.403 L 106.343 375.687 L 110.483 373.703 L 112.584 378.089 L 112.584 378.089 Z  M 53.23 416.776 L 45.207 420.62 L 39.113 407.903 L 47.788 403.747 L 47.788 403.747 Q 49.884 402.764 51.309 402.947 L 51.309 402.947 L 51.309 402.947 Q 52.734 403.131 53.756 404.677 L 53.756 404.677 L 53.756 404.677 Q 54.443 405.907 54.173 406.924 L 54.173 406.924 L 54.173 406.924 Q 53.903 407.942 52.708 409.088 L 52.708 409.088 L 52.725 409.123 L 52.725 409.123 Q 53.463 408.878 54.19 408.881 L 54.19 408.881 L 54.19 408.881 Q 54.918 408.885 55.506 409.085 L 55.506 409.085 L 55.506 409.085 Q 56.095 409.285 56.551 409.672 L 56.551 409.672 L 56.551 409.672 Q 57.008 410.06 57.235 410.536 L 57.235 410.536 L 57.235 410.536 Q 57.957 412.042 57.558 413.186 L 57.558 413.186 L 57.558 413.186 Q 57.159 414.33 56.062 415.148 L 56.062 415.148 L 56.062 415.148 Q 54.965 415.966 53.23 416.776 L 53.23 416.776 L 53.23 416.776 Z  M 50.061 412.241 L 47.234 413.596 L 48.361 415.947 L 51.188 414.592 L 51.188 414.592 Q 51.931 414.269 52.313 413.663 L 52.313 413.663 L 52.313 413.663 Q 52.694 413.058 52.454 412.556 L 52.454 412.556 L 52.454 412.556 Q 52.241 411.976 51.591 411.898 L 51.591 411.898 L 51.591 411.898 Q 50.942 411.819 50.061 412.241 L 50.061 412.241 L 50.061 412.241 Z  M 48.05 407.411 L 44.976 408.884 L 45.9 410.813 L 48.983 409.336 L 48.983 409.336 Q 49.238 409.213 49.391 408.81 L 49.391 408.81 L 49.391 408.81 Q 49.544 408.406 49.347 407.948 L 49.347 407.948 L 49.347 407.948 Q 49.062 407.446 48.657 407.38 L 48.657 407.38 L 48.657 407.38 Q 48.252 407.314 48.05 407.411 L 48.05 407.411 L 48.05 407.411 Z  M 71.522 408.01 L 59.545 413.75 L 53.451 401.033 L 64.353 395.808 L 66.168 399.595 L 59.404 402.836 L 60.105 404.298 L 64.473 402.205 L 65.537 404.424 L 61.168 406.518 L 61.869 407.979 L 69.707 404.224 L 71.522 408.01 L 71.522 408.01 Z  M 126.387 335.121 L 124.909 340.714 L 128.29 339.093 L 126.387 335.121 L 126.387 335.121 Z  M 127.717 330.055 L 131.355 337.625 L 133.566 336.565 L 134.865 339.278 L 132.646 340.341 L 133.811 342.772 L 130.755 344.236 L 129.59 341.806 L 122.747 345.085 L 121.448 342.372 L 124.661 331.52 L 127.717 330.055 L 127.717 330.055 Z  M 130.139 328.895 L 142.345 323.045 L 144.16 326.832 L 140.126 328.765 L 144.405 337.695 L 140.266 339.679 L 135.987 330.749 L 131.953 332.681 L 130.139 328.895 L 130.139 328.895 Z  M 148.85 325.321 L 152.179 323.726 L 150.077 319.34 L 154.216 317.357 L 160.31 330.073 L 156.171 332.057 L 153.977 327.477 L 150.648 329.073 L 152.842 333.652 L 148.703 335.636 L 142.609 322.919 L 146.748 320.935 L 148.85 325.321 L 148.85 325.321 Z  M 72.755 356.393 L 84.961 350.544 L 86.775 354.331 L 82.742 356.264 L 87.021 365.194 L 82.882 367.177 L 78.603 358.247 L 74.569 360.18 L 72.755 356.393 L 72.755 356.393 Z  M 91.466 352.82 L 94.794 351.225 L 92.693 346.839 L 96.832 344.855 L 102.926 357.572 L 98.787 359.556 L 96.592 354.976 L 93.263 356.571 L 95.458 361.151 L 91.319 363.134 L 85.225 350.418 L 89.364 348.434 L 91.466 352.82 L 91.466 352.82 Z  M 115.784 351.411 L 103.807 357.15 L 97.713 344.433 L 108.615 339.209 L 110.43 342.996 L 103.666 346.237 L 104.367 347.699 L 108.735 345.605 L 109.799 347.825 L 105.43 349.918 L 106.131 351.38 L 113.969 347.624 L 115.784 351.411 L 115.784 351.411 Z  M 34.225 390.494 L 30.086 392.477 L 25.807 383.547 L 23.165 384.813 L 21.35 381.027 L 28.131 377.777 L 33.446 381.727 L 33.679 375.118 L 37.818 373.135 L 43.912 385.852 L 39.773 387.835 L 37.241 382.551 L 37.114 389.11 L 36.885 389.219 L 31.693 385.21 L 34.225 390.494 L 34.225 390.494 Z  M 48.122 383.834 L 43.56 386.02 L 41.649 371.299 L 47.964 368.273 L 58.311 378.952 L 53.503 381.256 L 51.604 379.35 L 47.826 381.161 L 48.122 383.834 L 48.122 383.834 Z  M 50.266 376.829 L 46.17 372.598 L 46.761 378.509 L 50.266 376.829 L 50.266 376.829 Z  M 60.601 362.217 L 65.621 359.812 L 63.93 370.52 L 66.167 375.187 L 62.01 377.179 L 59.773 372.512 L 50.368 367.121 L 55.388 364.716 L 59.859 367.403 L 60.601 362.217 L 60.601 362.217 Z "
					fill="rgb(255,209,141)"
				/>
			</g>
		</g>
		<g>
			<path
				d=" M 206.8 346.186 L 311.983 338.28 L 311.983 389.163 L 206.8 389.163 L 206.8 346.186 Z "
				fill="rgb(181,180,180)"
			/>
			<path
				d=" M 208.836 312.883 Q 213.527 340.994 212.66 364.17 C 212.498 368.496 212.191 372.693 211.739 376.761 C 184.931 388.167 153.717 406.045 117.969 430.232 L 254.502 479.157 L 386.941 429.849 Q 342.193 394.249 304.618 376.98 Q 297.513 345.887 299.483 288.414 L 208.836 312.883 Z "
				fill="rgb(248,222,200)"
			/>
			<clipPath id="_clipPath_L5YAcCUp1DHINVfQQq7wmfA3p0v9z7ke">
				<path
					d=" M 208.836 312.883 Q 213.527 340.994 212.66 364.17 C 212.498 368.496 212.191 372.693 211.739 376.761 C 184.931 388.167 153.717 406.045 117.969 430.232 L 254.502 479.157 L 386.941 429.849 Q 342.193 394.249 304.618 376.98 Q 297.513 345.887 299.483 288.414 L 208.836 312.883 Z "
					fill="rgb(248,222,200)"
				/>
			</clipPath>
			<g clip-path="url(#_clipPath_L5YAcCUp1DHINVfQQq7wmfA3p0v9z7ke)">
				<path
					d=" M 396 338.091 L 172.991 454.769 L 132 284 L 352 240 L 396 338.091 Z "
					fill="rgb(244,206,186)"
				/>
				<path
					d=" M 340 338.091 L 211.739 376.761 L 164.555 270.006 L 366.483 256.509 L 340 338.091 Z "
					fill="rgb(204,152,152)"
					fill-opacity="0.3"
					style="mix-blend-mode: multiply"
				/>
				<path
					d=" M 274.316 430.563 L 295.211 418.143 L 344.588 413.679 L 274.316 430.563 Z "
					fill="rgb(237,186,169)"
				/>
			</g>
			<g class="clothes">
				<path
					d=" M 199.191 377.206 Q 90.225 415.253 79.355 428.297 Q 68.484 441.342 55.439 533.741 L 480.476 525.045 Q 458.735 442.429 444.603 428.297 Q 430.471 414.166 311.983 377.206 L 199.191 377.206 Z "
					fill="rgb(238,238,238)"
				/>
				<clipPath id="_clipPath_lsUNaonsr4MVUXSiWVPGfDyyFRMBrCCF">
					<path
						d=" M 199.191 377.206 Q 90.225 415.253 79.355 428.297 Q 68.484 441.342 55.439 533.741 L 480.476 525.045 Q 458.735 442.429 444.603 428.297 Q 430.471 414.166 311.983 377.206 L 199.191 377.206 Z "
						fill="rgb(238,238,238)"
					/>
				</clipPath>
				<g clip-path="url(#_clipPath_lsUNaonsr4MVUXSiWVPGfDyyFRMBrCCF)">
					<path
						d=" M 259.805 334.469 L 263.066 588.839 L 270.675 586.665 L 259.805 334.469 Z "
						fill="rgb(209,209,209)"
					/>
					<path
						d=" M 204.8 352.682 Q 233.475 381.295 253.282 382.684 Q 273.09 384.072 311.983 350.072 L 334.811 377.206 Q 282.2 415.702 256.544 415.295 Q 230.887 414.888 188.059 377.206 L 204.8 352.682 Z "
						fill="rgb(209,209,209)"
					/>
				</g>
				<path
					d=" M 206.8 345.682 Q 233.475 369.295 253.282 370.684 Q 273.09 372.072 311.983 338.072 L 318.505 373.945 Q 282.2 403.702 256.544 403.295 Q 230.887 402.888 199.191 377.206 L 206.8 345.682 Z "
					fill="rgb(238,238,238)"
				/>
			</g>
		</g>
		<g>
			<g>
				<path
					d=" M 336.775 263.249 C 338.292 269.24 357.553 264.121 361.549 262.185 C 365.545 260.25 367.88 252.615 374.172 244.529 C 378.813 238.564 385.383 233.463 386.78 226.964 C 388.176 220.466 384.571 191.169 377.685 190.946 Q 363.88 190.754 356.964 197.527 Q 350.047 204.3 350.16 209.482 Q 335.257 257.258 336.775 263.249 Z "
					fill="rgb(248,209,187)"
				/>
				<clipPath id="_clipPath_nLJ9RGFGj6iMR6ceOKccxnjXtr6fLWtv">
					<path
						d=" M 336.775 263.249 C 338.292 269.24 357.553 264.121 361.549 262.185 C 365.545 260.25 367.88 252.615 374.172 244.529 C 378.813 238.564 385.383 233.463 386.78 226.964 C 388.176 220.466 384.571 191.169 377.685 190.946 Q 363.88 190.754 356.964 197.527 Q 350.047 204.3 350.16 209.482 Q 335.257 257.258 336.775 263.249 Z "
						fill="rgb(248,209,187)"
					/>
				</clipPath>
				<g clip-path="url(#_clipPath_nLJ9RGFGj6iMR6ceOKccxnjXtr6fLWtv)">
					<path
						d=" M 370.125 238.97 Q 382.585 223.424 382.754 221.273 C 382.923 219.122 382.472 217.082 381.653 215.113 C 380.239 211.713 377.728 208.527 375.417 205.354 Q 373.107 202.18 359.941 206.581 L 357.965 222.428 L 370.125 238.97 Z "
						fill="rgb(218,172,163)"
					/>
					<path
						d=" M 357.23 227.098 Q 362.527 234.483 360.52 237.458 C 358.514 240.434 348.524 250.164 348.301 252.552 C 348.079 254.94 367.822 242.853 370.125 238.97 C 372.428 235.088 374.903 224.251 373.178 219.577 Q 371.453 214.903 364.568 211.75 L 359.765 210.994 L 357.23 227.098 Z "
						fill="rgb(237,186,169)"
					/>
				</g>
				<path
					d=" M 359.363 256.698 C 358.803 265.638 356.59 272.786 354.425 272.651 C 353.222 272.575 352.285 270.268 351.786 266.698"
					fill="none"
					stroke-width="4"
					stroke="rgb(66,63,61)"
					stroke-linejoin="round"
					stroke-linecap="round"
					stroke-miterlimit="3"
				/>
				<path
					d=" M 378.892 215.806 C 387.758 214.522 394.703 211.736 394.392 209.589 C 394.219 208.396 391.843 207.65 388.244 207.442"
					fill="none"
					stroke-width="4"
					stroke="rgb(89,87,86)"
					stroke-linejoin="round"
					stroke-linecap="round"
					stroke-miterlimit="3"
				/>
				<path
					d=" M 342.479 259.088 C 342.904 256.384 345.402 254.527 348.052 254.945 C 350.703 255.362 352.509 257.896 352.083 260.6 C 351.658 263.304 349.16 265.16 346.51 264.743 C 343.859 264.326 342.053 261.792 342.479 259.088 Z "
					fill="rgb(66,63,61)"
				/>
			</g>
			<g>
				<path
					d=" M 177.228 265.521 C 175.148 271.341 156.46 264.416 152.666 262.109 C 148.872 259.803 147.273 251.981 141.778 243.334 C 137.724 236.955 131.668 231.253 130.895 224.651 C 130.122 218.05 136.493 189.228 143.369 189.66 Q 157.13 190.78 163.372 198.179 Q 169.613 205.578 169.009 210.726 Q 179.308 259.701 177.228 265.521 Z "
					fill="rgb(248,209,187)"
				/>
				<clipPath id="_clipPath_sztCn13pFRMyOBJwLQTBkQ9WC2YwUose">
					<path
						d=" M 177.228 265.521 C 175.148 271.341 156.46 264.416 152.666 262.109 C 148.872 259.803 147.273 251.981 141.778 243.334 C 137.724 236.955 131.668 231.253 130.895 224.651 C 130.122 218.05 136.493 189.228 143.369 189.66 Q 157.13 190.78 163.372 198.179 Q 169.613 205.578 169.009 210.726 Q 179.308 259.701 177.228 265.521 Z "
						fill="rgb(248,209,187)"
					/>
				</clipPath>
				<g clip-path="url(#_clipPath_sztCn13pFRMyOBJwLQTBkQ9WC2YwUose)">
					<path
						d=" M 146.334 238.185 Q 135.407 221.525 135.443 219.368 C 135.478 217.211 136.121 215.222 137.124 213.34 C 138.854 210.091 141.657 207.157 144.258 204.217 Q 146.859 201.278 159.304 204.217 L 160.01 222.872 L 146.334 238.185 Z "
						fill="rgb(218,172,163)"
					/>
					<path
						d=" M 160.298 227.59 Q 154.324 234.44 156.039 237.592 C 157.753 240.744 166.775 251.38 166.769 253.778 C 166.763 256.176 148.258 242.268 146.334 238.185 C 144.41 234.102 142.975 223.078 145.136 218.589 Q 147.297 214.1 154.451 211.615 L 159.304 211.319 L 160.298 227.59 Z "
						fill="rgb(237,186,169)"
					/>
				</g>
				<path
					d=" M 142.591 243.604 C 137.299 250.832 135.496 258.525 138.565 260.771 C 140.27 262.019 143.123 261.326 146.229 259.223"
					fill="none"
					stroke-width="4"
					stroke="rgb(59,57,55)"
					stroke-linejoin="round"
					stroke-linecap="round"
					stroke-miterlimit="3"
				/>
				<path
					d=" M 153.103 249.153 C 152.801 249.535 152.502 249.926 152.208 250.328 C 146.918 257.555 145.113 265.249 148.182 267.495 C 150.228 268.993 153.927 267.695 157.733 264.521"
					fill="none"
					stroke-width="4"
					stroke="rgb(66,63,61)"
					stroke-linejoin="round"
					stroke-linecap="round"
					stroke-miterlimit="3"
				/>
			</g>
		</g>
		<path
			d=" M 158.089 154.004 C 148.037 189.49 165.202 285.426 179.789 303.38 C 194.376 321.334 231.978 351.093 242.312 354.739 C 252.646 358.384 260.164 354.404 267.02 352.732 C 273.876 351.059 310.845 327.867 326.343 305.824 C 341.841 283.78 340.236 279.257 345.908 264.058 C 351.58 248.86 380.621 175.057 361.709 128.855 C 342.798 82.653 318.809 63.841 276.736 60.188 C 234.663 56.536 212.005 72.65 189.569 94.053 C 167.133 115.456 168.142 118.519 158.089 154.004 Z "
			fill="rgb(248,221,198)"
		/>
		<clipPath id="_clipPath_GfHGE5rPamZOn1mdOv4gmrt5SbajtGwC">
			<path
				d=" M 158.089 154.004 C 148.037 189.49 165.202 285.426 179.789 303.38 C 194.376 321.334 231.978 351.093 242.312 354.739 C 252.646 358.384 260.164 354.404 267.02 352.732 C 273.876 351.059 310.845 327.867 326.343 305.824 C 341.841 283.78 340.236 279.257 345.908 264.058 C 351.58 248.86 380.621 175.057 361.709 128.855 C 342.798 82.653 318.809 63.841 276.736 60.188 C 234.663 56.536 212.005 72.65 189.569 94.053 C 167.133 115.456 168.142 118.519 158.089 154.004 Z "
				fill="rgb(248,221,198)"
			/>
		</clipPath>
		<g clip-path="url(#_clipPath_GfHGE5rPamZOn1mdOv4gmrt5SbajtGwC)">
			<path
				class="cheeks"
				d=" M 154.906 276.664 C 156.697 261.34 172.251 250.547 189.618 252.577 C 206.986 254.607 219.632 268.695 217.841 284.019 C 216.05 299.343 200.496 310.136 183.129 308.107 C 165.761 306.077 153.115 291.988 154.906 276.664 Z "
				fill="rgb(244,185,176)"
				fill-opacity="0.5"
			/>
			<path
				class="cheeks"
				d=" M 297.849 287.531 C 294.061 272.576 304.747 256.948 321.698 252.655 C 338.648 248.361 355.485 257.018 359.273 271.974 C 363.061 286.93 352.375 302.558 335.425 306.851 C 318.474 311.144 301.637 302.487 297.849 287.531 Z "
				fill="rgb(244,185,176)"
				fill-opacity="0.5"
			/>
			<path
				class="cheeks"
				d=" M 327.92 246.06 C 328.076 244.728 329.284 243.772 330.617 243.928 C 331.949 244.084 332.905 245.292 332.749 246.624 C 332.593 247.957 331.385 248.912 330.052 248.757 C 328.72 248.601 327.764 247.393 327.92 246.06 Z "
				fill="rgb(237,186,169)"
			/>
			<path
				class="dot"
				d=" M 239.625 289.582 C 239.781 288.25 240.989 287.294 242.321 287.45 C 243.654 287.606 244.609 288.814 244.453 290.147 C 244.298 291.479 243.089 292.434 241.757 292.279 C 240.424 292.123 239.469 290.915 239.625 289.582 Z "
				fill="rgb(237,186,169)"
			/>
		</g>
		<g>
			<path
				d=" M 257.838 225.55 Q 255.366 225.538 252.921 229.55 Q 244.961 269.927 245.556 273.332 Q 246.15 276.737 257.838 284.724 Q 269.494 276.175 270.003 273.332 Q 270.511 270.49 262.756 229.55 Q 260.311 225.562 257.838 225.55 Z "
				fill="rgb(248,209,187)"
			/>
			<path
				d=" M 262.756 276.929 C 264.296 279.551 267.519 280.521 269.947 279.095 C 272.376 277.668 273.097 274.381 271.557 271.759 C 270.701 270.302 269.326 269.355 267.857 269.046"
				fill="none"
				stroke-width="0.5"
				stroke="rgb(185,185,185)"
				stroke-linejoin="round"
				stroke-linecap="round"
				stroke-miterlimit="3"
			/>
		</g>
		<path
			class="mouth"
			d=" M 256 296.231 Q 247.412 296.231 232 300.231 Q 242.886 307.856 256 308.061 Q 269.114 308.266 280 300.231 Q 264.588 296.231 256 296.231 Z "
			fill="rgb(244,206,186)"
		/>
		<clipPath class="mouth" id="_clipPath_JX8fiKH0Xb474edhzH4QCrP3N8s60Aq5">
			<path
				class="mouth"
				d=" M 256 296.231 Q 247.412 296.231 232 300.231 Q 242.886 307.856 256 308.061 Q 269.114 308.266 280 300.231 Q 264.588 296.231 256 296.231 Z "
				fill="rgb(244,206,186)"
			/>
		</clipPath>
		<g
			class="mouth"
			clip-path="url(#_clipPath_JX8fiKH0Xb474edhzH4QCrP3N8s60Aq5)"
		>
			<rect
				class="mouth"
				x="229.261"
				y="300"
				width="53.477"
				height="9.723"
				transform="matrix(1,0,0,1,0,0)"
				fill="rgb(243,197,173)"
			/>
		</g>
		<g>
			<path
				d=" M 228.158 215.173 Q 235.352 225.531 234.864 239.037 C 230.364 242.088 223.278 244.424 220.694 245 C 218.11 245.576 209.109 246.401 196.086 242.012 Q 188.902 239.592 180.8 233.433 Q 183.759 220.289 189.007 213.3 C 195.945 204.061 204.699 202.077 207.653 202.118 C 210.607 202.16 223.448 205.417 228.158 215.173 Z "
				fill="rgb(248,221,198)"
				fill-opacity="0.75"
				style="mix-blend-mode: screen"
			/>
			<clipPath id="_clipPath_1qZvNmwzPkV6QzG7yH1eDu6EdYNrxpwl">
				<path
					class="eyelid"
					d=" M 228.158 215.173 Q 235.352 225.531 234.864 239.037 C 230.364 242.088 223.278 244.424 220.694 245 C 218.11 245.576 209.109 246.401 196.086 242.012 Q 188.902 239.592 180.8 233.433 Q 183.759 220.289 189.007 213.3 C 195.945 204.061 204.699 202.077 207.653 202.118 C 210.607 202.16 223.448 205.417 228.158 215.173 Z "
					fill="rgb(248,221,198)"
					fill-opacity="0.75"
					style="mix-blend-mode: screen"
				/>
			</clipPath>
			<g clip-path="url(#_clipPath_1qZvNmwzPkV6QzG7yH1eDu6EdYNrxpwl)">
				<g class="pupil">
					<path
						d=" M 190.57 224.205 C 190.529 212.159 198.64 202.351 208.673 202.317 C 218.706 202.282 226.884 212.034 226.926 224.08 C 226.967 236.126 218.856 245.934 208.823 245.969 C 198.79 246.003 190.612 236.251 190.57 224.205 Z "
						fill="rgb(85,102,102)"
					/>
					<clipPath id="_clipPath_0hos5BazCAMoZGy4nniACZvRfRmiAKAL">
						<path
							d=" M 190.57 224.205 C 190.529 212.159 198.64 202.351 208.673 202.317 C 218.706 202.282 226.884 212.034 226.926 224.08 C 226.967 236.126 218.856 245.934 208.823 245.969 C 198.79 246.003 190.612 236.251 190.57 224.205 Z "
							fill="rgb(85,102,102)"
						/>
					</clipPath>
					<g
						clip-path="url(#_clipPath_0hos5BazCAMoZGy4nniACZvRfRmiAKAL)"
					>
						<rect
							x="187.828"
							y="223.191"
							width="50.339"
							height="25.379"
							transform="matrix(1,-0.003,0.003,1,-0.81,0.734)"
							fill="rgb(88,162,162)"
						/>
					</g>
					<path
						d=" M 199.236 224.175 C 199.214 217.872 203.459 212.739 208.709 212.721 C 213.959 212.703 218.238 217.806 218.26 224.11 C 218.282 230.413 214.037 235.546 208.787 235.564 C 203.537 235.582 199.258 230.479 199.236 224.175 Z "
						fill="transparent"
						r="NaN"
						stroke-width="3"
						stroke="rgb(255,255,255)"
						stroke-opacity="0.75"
						stroke-linejoin="miter"
						stroke-linecap="square"
						stroke-miterlimit="3"
					/>
					<path
						d=" M 199.236 224.175 C 199.214 217.872 203.459 212.739 208.709 212.721 C 213.959 212.703 218.238 217.806 218.26 224.11 C 218.282 230.413 214.037 235.546 208.787 235.564 C 203.537 235.582 199.258 230.479 199.236 224.175 Z "
						fill="rgb(66,63,61)"
					/>
				</g>
			</g>
			<path
				d=" M 292.256 214.263 Q 284.739 224.389 284.8 237.905 C 289.203 241.096 296.211 243.654 298.776 244.312 C 301.34 244.969 310.311 246.077 323.466 242.101 Q 330.722 239.908 339.014 234.008 Q 336.471 220.777 331.446 213.626 C 324.803 204.173 316.116 201.913 313.162 201.862 C 310.208 201.81 297.271 204.661 292.256 214.263 Z "
				fill="rgb(248,221,198)"
				fill-opacity="0.75"
				style="mix-blend-mode: screen"
			/>
			<clipPath id="_clipPath_apV8bugBOf8k706v5ABbBNUo1DDER0Cx">
				<path
					class="eyelid"
					d=" M 292.256 214.263 Q 284.739 224.389 284.8 237.905 C 289.203 241.096 296.211 243.654 298.776 244.312 C 301.34 244.969 310.311 246.077 323.466 242.101 Q 330.722 239.908 339.014 234.008 Q 336.471 220.777 331.446 213.626 C 324.803 204.173 316.116 201.913 313.162 201.862 C 310.208 201.81 297.271 204.661 292.256 214.263 Z "
					fill="rgb(248,221,198)"
					fill-opacity="0.75"
					style="mix-blend-mode: screen"
				/>
			</clipPath>
			<g clip-path="url(#_clipPath_apV8bugBOf8k706v5ABbBNUo1DDER0Cx)">
				<g class="pupil">
					<path
						d=" M 329.551 223.858 C 329.562 211.811 321.426 202.024 311.394 202.015 C 301.361 202.005 293.207 211.778 293.195 223.824 C 293.184 235.87 301.32 245.657 311.353 245.667 C 321.385 245.676 329.54 235.904 329.551 223.858 Z "
						fill="rgb(85,102,102)"
					/>
					<clipPath id="_clipPath_YFzsVwqUqkhAWNlZn914Yb7zaZEosGuq">
						<path
							d=" M 329.551 223.858 C 329.562 211.811 321.426 202.024 311.394 202.015 C 301.361 202.005 293.207 211.778 293.195 223.824 C 293.184 235.87 301.32 245.657 311.353 245.667 C 321.385 245.676 329.54 235.904 329.551 223.858 Z "
							fill="rgb(85,102,102)"
						/>
					</clipPath>
					<g
						clip-path="url(#_clipPath_YFzsVwqUqkhAWNlZn914Yb7zaZEosGuq)"
					>
						<rect
							x="281.984"
							y="222.9"
							width="50.339"
							height="25.379"
							transform="matrix(1,0.001,-0.001,1,0.22,-0.287)"
							fill="rgb(88,162,162)"
						/>
					</g>
					<path
						d=" M 320.885 223.85 C 320.891 217.546 316.634 212.424 311.384 212.419 C 306.134 212.415 301.867 217.528 301.861 223.832 C 301.855 230.135 306.113 235.257 311.363 235.262 C 316.612 235.267 320.879 230.153 320.885 223.85 Z "
						fill="transparent"
						r="NaN"
						stroke-width="3"
						stroke="rgb(255,255,255)"
						stroke-opacity="0.75"
						stroke-linejoin="miter"
						stroke-linecap="square"
						stroke-miterlimit="3"
					/>
					<path
						d=" M 320.885 223.85 C 320.891 217.546 316.634 212.424 311.384 212.419 C 306.134 212.415 301.867 217.528 301.861 223.832 C 301.855 230.135 306.113 235.257 311.363 235.262 C 316.612 235.267 320.879 230.153 320.885 223.85 Z "
						fill="rgb(66,63,61)"
					/>
				</g>
			</g>
		</g>
		<g class="eyebrow">
			<path
				d=" M 310.614 188.732 L 278.946 187.478 Q 297.908 176.287 309.611 176.378 Q 321.313 176.469 342.283 189.986 L 310.614 188.732 Z "
				fill="rgb(94,64,56)"
			/>
			<path
				d=" M 206.892 188.785 L 238.524 186.803 Q 219.309 176.052 207.611 176.412 Q 195.914 176.772 175.261 190.767 L 206.892 188.785 Z "
				fill="rgb(94,64,56)"
			/>
		</g>
		<g class="front-hair">
			<path
				d=" M 256.544 123.924 C 234.742 125.467 217.41 128.272 201.104 140.229 C 184.798 152.187 171.972 171.115 167.406 196.756 Q 162.839 222.396 167.406 250.021 Q 121.735 191.074 125.011 152.187 C 128.286 113.299 137.311 114.074 146.752 94.573 C 156.192 75.073 162.139 64.59 182.711 49.786 C 203.284 34.981 229.302 35.625 255.544 34.567 C 281.785 33.509 308.809 33.48 327.289 43.263 C 345.769 53.047 358.726 55.439 368.51 80.442 C 378.293 105.444 389.284 131.063 384.815 159.796 Q 380.347 188.529 354.378 221.758 Q 354.378 195.669 346.769 173.928 C 339.159 152.187 329.454 141.789 317.418 133.707 C 305.382 125.625 278.345 122.38 256.544 123.924 Z "
				fill="rgb(94,64,56)"
			/>
			<clipPath id="_clipPath_2bFJKFc1lf23wLyLDpI9rtb5aMgj05h9">
				<path
					d=" M 256.544 123.924 C 234.742 125.467 217.41 128.272 201.104 140.229 C 184.798 152.187 171.972 171.115 167.406 196.756 Q 162.839 222.396 167.406 250.021 Q 121.735 191.074 125.011 152.187 C 128.286 113.299 137.311 114.074 146.752 94.573 C 156.192 75.073 162.139 64.59 182.711 49.786 C 203.284 34.981 229.302 35.625 255.544 34.567 C 281.785 33.509 308.809 33.48 327.289 43.263 C 345.769 53.047 358.726 55.439 368.51 80.442 C 378.293 105.444 389.284 131.063 384.815 159.796 Q 380.347 188.529 354.378 221.758 Q 354.378 195.669 346.769 173.928 C 339.159 152.187 329.454 141.789 317.418 133.707 C 305.382 125.625 278.345 122.38 256.544 123.924 Z "
					fill="rgb(94,64,56)"
				/>
			</clipPath>
			<g clip-path="url(#_clipPath_2bFJKFc1lf23wLyLDpI9rtb5aMgj05h9)">
				<path
					d=" M 320.459 126.363 Q 343.014 134.344 382.11 186.544 L 385.935 172.767 Q 346.508 125.001 323.817 119.392 Q 301.126 113.783 254.24 108.132 Q 297.903 118.382 320.459 126.363 Z "
					fill="rgb(70,47,40)"
				/>
				<path
					d=" M 320.459 109.363 Q 343.014 117.344 382.11 169.544 L 385.935 155.767 Q 346.508 108.001 323.817 102.392 Q 301.126 96.783 254.24 91.132 Q 297.903 101.382 320.459 109.363 Z "
					fill="rgb(70,47,40)"
				/>
				<path
					d=" M 325.08 88.569 Q 348.796 91.725 397.819 134.738 L 398.72 120.468 Q 350.288 81.863 326.928 81.055 Q 303.568 80.247 256.524 84.389 Q 301.363 85.412 325.08 88.569 Z "
					fill="rgb(70,47,40)"
				/>
				<path
					d=" M 327.182 71.947 Q 351.088 72.921 403.839 111.27 L 403.431 96.978 Q 351.671 62.963 328.335 64.295 Q 305 65.627 258.532 74.054 Q 303.276 70.972 327.182 71.947 Z "
					fill="rgb(70,47,40)"
				/>
				<path
					d=" M 324.578 54.192 Q 348.27 50.855 407.052 79.102 L 404.083 65.116 Q 347.054 40.955 324.338 46.458 Q 301.621 51.961 257.423 68.599 Q 300.886 57.529 324.578 54.192 Z "
					fill="rgb(70,47,40)"
				/>
				<path
					d=" M 326.176 29.465 Q 349.244 23.115 411.165 43.585 L 406.426 30.095 Q 346.768 13.453 324.945 21.825 Q 303.123 30.198 261.426 52.371 Q 303.108 35.815 326.176 29.465 Z "
					fill="rgb(70,47,40)"
				/>
				<path
					d=" M 322.901 5.95 Q 344.303 -4.745 409.016 3.351 L 401.755 -8.966 Q 340.004 -13.746 320.215 -1.307 Q 300.426 11.132 263.809 40.957 Q 301.498 16.645 322.901 5.95 Z "
					fill="rgb(70,47,40)"
				/>
				<path
					d=" M 200.947 126.363 Q 178.391 134.344 139.295 186.544 L 135.47 172.767 Q 174.897 125.001 197.588 119.392 Q 220.279 113.783 267.165 108.132 Q 223.502 118.382 200.947 126.363 Z "
					fill="rgb(70,47,40)"
				/>
				<path
					d=" M 200.947 109.363 Q 178.391 117.344 139.295 169.544 L 135.47 155.767 Q 174.897 108.001 197.588 102.392 Q 220.279 96.783 267.165 91.132 Q 223.502 101.382 200.947 109.363 Z "
					fill="rgb(70,47,40)"
				/>
				<path
					d=" M 196.326 88.569 Q 172.609 91.725 123.586 134.738 L 122.685 120.468 Q 171.118 81.863 194.477 81.055 Q 217.837 80.247 264.881 84.389 Q 220.042 85.412 196.326 88.569 Z "
					fill="rgb(70,47,40)"
				/>
				<path
					d=" M 194.224 71.947 Q 170.317 72.921 117.567 111.27 L 117.974 96.978 Q 169.734 62.963 193.07 64.295 Q 216.406 65.627 262.874 74.054 Q 218.13 70.972 194.224 71.947 Z "
					fill="rgb(70,47,40)"
				/>
				<path
					d=" M 196.828 54.192 Q 173.136 50.855 114.353 79.102 L 117.322 65.116 Q 174.351 40.955 197.068 46.458 Q 219.784 51.961 263.982 68.599 Q 220.52 57.529 196.828 54.192 Z "
					fill="rgb(70,47,40)"
				/>
				<path
					d=" M 195.23 29.465 Q 172.162 23.115 110.24 43.585 L 114.979 30.095 Q 174.638 13.453 196.46 21.825 Q 218.283 30.198 259.98 52.371 Q 218.297 35.815 195.23 29.465 Z "
					fill="rgb(70,47,40)"
				/>
				<path
					d=" M 198.505 5.95 Q 177.102 -4.745 112.389 3.351 L 119.65 -8.966 Q 181.402 -13.746 201.191 -1.307 Q 220.98 11.132 257.596 40.957 Q 219.907 16.645 198.505 5.95 Z "
					fill="rgb(70,47,40)"
				/>
				<path
					d=" M 251.108 133.707 L 265.24 135.881 L 265.24 3.261 L 251.108 133.707 Z "
					fill="rgb(151,121,113)"
				/>
			</g>
			<path
				d=" M 160.883 77.18 C 142.403 60.875 129.212 66.415 114.14 75.006 Q 99.068 83.598 92.399 107.618 Q 101.983 131.011 102.183 144.577 C 102.382 158.144 85.76 174.392 86.964 192.408 C 88.168 210.423 101.308 221.908 108.705 238.064 C 116.102 254.219 112.617 279.94 131.533 290.242 Q 150.449 300.544 168.493 293.503 Q 177.362 283.641 180.45 277.197 Q 183.539 270.754 160.883 207.626 Q 164.723 173.847 165.231 155.448 C 165.74 137.049 179.363 93.486 160.883 77.18 Z "
				fill="rgb(92,62,54)"
			/>
			<clipPath id="_clipPath_sIsctMO3MQaIcMHjOYeFivQCA4kW5frx">
				<path
					d=" M 160.883 77.18 C 142.403 60.875 129.212 66.415 114.14 75.006 Q 99.068 83.598 92.399 107.618 Q 101.983 131.011 102.183 144.577 C 102.382 158.144 85.76 174.392 86.964 192.408 C 88.168 210.423 101.308 221.908 108.705 238.064 C 116.102 254.219 112.617 279.94 131.533 290.242 Q 150.449 300.544 168.493 293.503 Q 177.362 283.641 180.45 277.197 Q 183.539 270.754 160.883 207.626 Q 164.723 173.847 165.231 155.448 C 165.74 137.049 179.363 93.486 160.883 77.18 Z "
					fill="rgb(92,62,54)"
				/>
			</clipPath>
			<g clip-path="url(#_clipPath_sIsctMO3MQaIcMHjOYeFivQCA4kW5frx)">
				<path
					d=" M 132.62 197.843 Q 111.933 224.173 106.531 241.325 Q 101.128 258.476 103.27 293.503 L 142.403 293.503 Q 147.839 271.762 146.752 256.544 Q 145.665 241.325 132.62 197.843 Z "
					fill="rgb(70,47,40)"
				/>
				<path
					d=" M 146.752 71.745 Q 128.958 82.554 123.924 92.399 Q 118.89 102.244 173.928 166.318 L 173.928 219.584 Q 107.618 111.966 111.966 92.399 Q 116.314 72.832 152.187 58.701 L 146.752 71.745 Z "
					fill="rgb(123,85,75)"
				/>
				<path
					d=" M 139.118 298.024 Q 149.246 275.741 149.682 269.894 C 150.118 264.047 145.559 240.682 122.837 206.539 Q 108.351 184.773 81.008 158.709 L 85.877 129.359 Q 116.497 169.11 132.62 197.963 C 152.89 234.238 157.15 257.594 158.072 268.031 Q 158.994 278.469 138.749 314.391 L 139.118 298.024 Z "
					fill="rgb(123,85,75)"
				/>
				<path
					d=" M 165.231 129.359 Q 156.028 139.995 150.013 146.752 Q 143.998 153.508 132.62 197.843 Q 131.533 164.144 122.837 158.709 Q 114.14 153.274 95.66 158.709 Q 105.307 127.667 116.314 114.14 Q 127.321 100.613 173.928 79.355 L 165.231 129.359 Z "
					fill="rgb(70,47,40)"
				/>
			</g>
			<path
				d=" M 355.839 77.18 C 374.319 60.875 387.51 66.415 402.582 75.006 Q 417.654 83.598 424.323 107.618 Q 414.739 131.011 414.54 144.577 C 414.34 158.144 430.962 174.392 429.758 192.408 C 428.555 210.423 415.414 221.908 408.017 238.064 C 400.62 254.219 404.105 279.94 385.189 290.242 Q 366.273 300.544 348.23 293.503 Q 339.361 283.641 336.272 277.197 Q 333.184 270.754 355.839 207.626 Q 351.999 173.847 351.491 155.448 C 350.982 137.049 337.359 93.486 355.839 77.18 Z "
				fill="rgb(92,62,54)"
			/>
			<clipPath id="_clipPath_Z802x3FVCSpS3ZLozVzQpyS0uKmn4uLm">
				<path
					d=" M 355.839 77.18 C 374.319 60.875 387.51 66.415 402.582 75.006 Q 417.654 83.598 424.323 107.618 Q 414.739 131.011 414.54 144.577 C 414.34 158.144 430.962 174.392 429.758 192.408 C 428.555 210.423 415.414 221.908 408.017 238.064 C 400.62 254.219 404.105 279.94 385.189 290.242 Q 366.273 300.544 348.23 293.503 Q 339.361 283.641 336.272 277.197 Q 333.184 270.754 355.839 207.626 Q 351.999 173.847 351.491 155.448 C 350.982 137.049 337.359 93.486 355.839 77.18 Z "
					fill="rgb(92,62,54)"
				/>
			</clipPath>
			<g clip-path="url(#_clipPath_Z802x3FVCSpS3ZLozVzQpyS0uKmn4uLm)">
				<path
					d=" M 384.102 197.843 Q 404.789 224.173 410.191 241.325 Q 415.594 258.476 413.453 293.503 L 374.319 293.503 Q 368.884 271.762 369.971 256.544 Q 371.058 241.325 384.102 197.843 Z "
					fill="rgb(70,47,40)"
				/>
				<path
					d=" M 369.971 71.745 Q 387.765 82.554 392.799 92.399 Q 397.833 102.244 342.794 166.318 L 342.794 219.584 Q 409.104 111.966 404.756 92.399 Q 400.408 72.832 364.535 58.701 L 369.971 71.745 Z "
					fill="rgb(123,85,75)"
				/>
				<path
					d=" M 377.604 298.024 Q 367.476 275.741 367.04 269.894 C 366.604 264.047 371.164 240.682 393.886 206.539 Q 408.371 184.773 435.714 158.709 L 430.845 129.359 Q 400.225 169.11 384.102 197.963 C 363.832 234.238 359.572 257.594 358.65 268.031 Q 357.728 278.469 377.973 314.391 L 377.604 298.024 Z "
					fill="rgb(123,85,75)"
				/>
				<path
					d=" M 351.491 129.359 Q 360.694 139.995 366.709 146.752 Q 372.725 153.508 384.102 197.843 Q 385.189 164.144 393.886 158.709 Q 402.582 153.274 421.062 158.709 Q 411.415 127.667 400.408 114.14 Q 389.401 100.613 342.794 79.355 L 351.491 129.359 Z "
					fill="rgb(70,47,40)"
				/>
			</g>
		</g>
	</g>
	<g class="dialog-5">
		<path
			d=" M 543.54 442.992 Q 540.599 443.14 541.063 440.62 Q 543.711 436.979 544.778 433.505 C 545.844 430.03 545.91 377.421 546.635 363.537 Q 546.635 355.631 554.064 355.235 L 903.571 355.235 Q 910.69 356.026 911 363.537 Q 911 377.421 911 433.505 Q 909.452 441.806 903.571 442.992 C 816.881 442.992 678.687 442.992 543.54 442.992 Z "
			fill="rgb(57,56,56)"
		/>
		<g clip-path="url(#_clipPath_cd6GMJ8GaVQpHZEklPJY27QnsFp6XqOK)">
			<text
				transform="matrix(1,0,0,1,565,381.172)"
				style="
					font-family: monospace;
					font-weight: 400;
					font-size: 16px;
					font-style: normal;
					fill: #e8e8e8;
					stroke: none;
				"
			>
				If you want to know more about me
			</text>
			<text
				transform="matrix(1,0,0,1,565,404.61)"
				style="
					font-family: monospace;
					font-weight: 400;
					font-size: 16px;
					font-style: normal;
					fill: #e8e8e8;
					stroke: none;
				"
			>
				you can reach me out on
			</text>
			<text
				transform="matrix(1,0,0,1,565,428.047)"
				style="
					font-family: monospace;
					font-weight: 400;
					font-size: 16px;
					font-style: normal;
					fill: #e8e8e8;
					stroke: none;
				"
			>
				🔗 rightonhana.me
			</text>
		</g>
		<defs>
			<clipPath id="_clipPath_cd6GMJ8GaVQpHZEklPJY27QnsFp6XqOK">
				<rect
					x="0"
					y="0"
					width="338.571"
					height="73"
					transform="matrix(1,0,0,1,565,362.618)"
				/>
			</clipPath>
		</defs>
	</g>
	<g class="dialog-4">
		<path
			d=" M 543.142 442.993 Q 540.662 443.118 541.053 440.993 Q 543.286 437.923 544.186 434.993 C 545.085 432.063 545.141 416.701 545.752 404.993 Q 545.752 398.326 552.016 397.993 L 823.736 397.993 Q 829.739 398.66 830 404.993 Q 830 416.701 830 434.993 Q 828.695 441.993 823.736 442.993 C 750.635 442.993 657.103 442.993 543.142 442.993 Z "
			fill="rgb(57,56,56)"
		/>
		<g clip-path="url(#_clipPath_Ms0lecwxuJ44rVCTRwPcoZdoHehpvDLq)">
			<text
				transform="matrix(1,0,0,1,559.408,426.799)"
				style="
					font-family: monospace;
					font-weight: 400;
					font-size: 16px;
					font-style: normal;
					fill: #e8e8e8;
					stroke: none;
				"
			>
				My pronouns are She/Her 👩‍💻
			</text>
		</g>
		<defs>
			<clipPath id="_clipPath_Ms0lecwxuJ44rVCTRwPcoZdoHehpvDLq">
				<rect
					x="0"
					y="0"
					width="258.183"
					height="24.503"
					transform="matrix(1,0,0,1,559.408,408.245)"
				/>
			</clipPath>
		</defs>
	</g>
	<g class="dialog-3">
		<path
			d=" M 543.54 442.992 Q 540.599 443.14 541.063 440.62 Q 543.711 436.979 544.778 433.505 C 545.844 430.03 545.91 377.421 546.635 363.537 Q 546.635 355.631 554.064 355.235 L 903.571 355.235 Q 910.69 356.026 911 363.537 Q 911 377.421 911 433.505 Q 909.452 441.806 903.571 442.992 C 816.881 442.992 678.687 442.992 543.54 442.992 Z "
			fill="rgb(57,56,56)"
		/>
		<g clip-path="url(#_clipPath_cd6GMJ8GaVQpHZEklPJY27QnsFp6XqOK)">
			<text
				transform="matrix(1,0,0,1,565,381.172)"
				style="
					font-family: monospace;
					font-weight: 400;
					font-size: 16px;
					font-style: normal;
					fill: #e8e8e8;
					stroke: none;
				"
			>
				I'm a Front-end Developer with
			</text>
			<text
				transform="matrix(1,0,0,1,565,404.61)"
				style="
					font-family: monospace;
					font-weight: 400;
					font-size: 16px;
					font-style: normal;
					fill: #e8e8e8;
					stroke: none;
				"
			>
				experience in Angular, React and
			</text>
			<text
				transform="matrix(1,0,0,1,565,428.047)"
				style="
					font-family: monospace;
					font-weight: 400;
					font-size: 16px;
					font-style: normal;
					fill: #e8e8e8;
					stroke: none;
				"
			>
				Svelte.
			</text>
		</g>
		<defs>
			<clipPath id="_clipPath_cd6GMJ8GaVQpHZEklPJY27QnsFp6XqOK">
				<rect
					x="0"
					y="0"
					width="338.571"
					height="73"
					transform="matrix(1,0,0,1,565,362.618)"
				/>
			</clipPath>
		</defs>
	</g>
	<g class="dialog-2">
		<path
			d=" M 543.742 442.16 Q 540.567 442.285 541.068 440.155 Q 543.927 437.077 545.078 434.139 C 546.23 431.202 546.301 394.748 547.084 383.011 Q 547.084 376.327 555.104 375.993 L 902.98 375.993 Q 910.666 376.661 911 383.011 Q 911 394.748 911 434.139 Q 909.329 441.157 902.98 442.16 C 809.39 442.16 689.644 442.16 543.742 442.16 Z "
			fill="rgb(57,56,56)"
		/>
		<g clip-path="url(#_clipPath_ESlM0h8RX5VXCFQgA5t80sqGiBmZNFpN)">
			<text
				transform="matrix(1,0,0,1,561.068,404.114)"
				style="
					font-family: monospace;
					font-weight: 400;
					font-size: 16px;
					font-style: normal;
					fill: #e8e8e8;
					stroke: none;
				"
			>
				I'm from Argentina 🇦🇷 but currently
			</text>
			<text
				transform="matrix(1,0,0,1,561.068,427.551)"
				style="
					font-family: monospace;
					font-weight: 400;
					font-size: 16px;
					font-style: normal;
					fill: #e8e8e8;
					stroke: none;
				"
			>
				I'm living in the United States 🇺🇸
			</text>
		</g>
		<defs>
			<clipPath id="_clipPath_ESlM0h8RX5VXCFQgA5t80sqGiBmZNFpN">
				<rect
					x="0"
					y="0"
					width="341"
					height="46.875"
					transform="matrix(1,0,0,1,561.068,385.559)"
				/>
			</clipPath>
		</defs>
	</g>
	<g class="dialog-1">
		<path
			d=" M 543.297 442.993 Q 540.637 443.118 541.057 440.993 Q 543.452 437.923 544.417 434.993 C 545.382 432.063 545.441 416.701 546.097 404.993 Q 546.097 398.326 552.817 397.993 L 896.28 397.993 Q 902.72 398.66 903 404.993 Q 903 416.701 903 434.993 Q 901.6 441.993 896.28 442.993 C 817.868 442.993 665.54 442.993 543.297 442.993 Z "
			fill="rgb(57,56,56)"
		/>
		<g clip-path="url(#_clipPath_3D2gxkuakMBlARHwnRYqTgx1WEIpF5CZ)">
			<text
				transform="matrix(1,0,0,1,559,427.048)"
				style="
					font-family: monospace;
					font-weight: 400;
					font-size: 16px;
					font-style: normal;
					fill: #e8e8e8;
					stroke: none;
				"
			>
				Hi there 👋 I'm Florencia Gonzalez
			</text>
		</g>
		<defs>
			<clipPath id="_clipPath_3D2gxkuakMBlARHwnRYqTgx1WEIpF5CZ">
				<rect
					x="0"
					y="0"
					width="350"
					height="24.007"
					transform="matrix(1,0,0,1,559,408.493)"
				/>
			</clipPath>
		</defs>
	</g>
</svg>
