<svg
	class="avatar"
	xmlns="http://www.w3.org/2000/svg"
	xmlns:xlink="http://www.w3.org/1999/xlink"
	style="isolation: isolate"
	viewBox="0 0 1024 512"
	width="1024pt"
	height="512pt"
>
	<style>
		.dialog-1 {
			opacity: 0;
			animation: greet 7s both;
		}

		.dialog-2 {
			opacity: 0;
			animation: from 7s both;
		}

		.dialog-3 {
			opacity: 0;
			animation: profession 7s both;
		}

		.dialog-4 {
			opacity: 0;
			animation: pronouns 7s both;
		}

		.dialog-5 {
			opacity: 0;
			animation: contact 7s both;
		}

		.eyelid {
			animation: eye 3s ease-in-out infinite;
			transform-origin: center;
		}

		.pupil {
			animation: pupil 15s ease-out infinite;
			transform-origin: center;
		}

		.eyebrow {
			animation: eyebrow 3s ease-in-out infinite;
			transform-origin: center;
		}

		.open-mouth {
			opacity: 0;
			animation: 0.3s step-start 0s 22 talk;
		}

		@keyframes greet {
			0% {
				opacity: 0;
				transform: translate(0, 0);
			}
			20% {
				opacity: 1;
				transform: translate(0, 0);
			}
			40% {
				opacity: 1;
				transform: translate(0, -78px);
			}
			60% {
				opacity: 1;
				transform: translate(0, -180px);
			}
			80% {
				opacity: 1;
				transform: translate(0, -234px);
			}
			100% {
				opacity: 1;
				transform: translate(0, -333px);
			}
		}

		@keyframes from {
			0%,
			20% {
				opacity: 0;
				transform: translate(0, 0);
			}
			40% {
				opacity: 1;
				transform: translate(0, 0);
			}
			60% {
				opacity: 1;
				transform: translate(0, -100px);
			}
			80% {
				opacity: 1;
				transform: translate(0, -155px);
			}
			100% {
				opacity: 1;
				transform: translate(0, -252px);
			}
		}

		@keyframes profession {
			0%,
			40% {
				opacity: 0;
				transform: translate(0, 0);
			}
			60% {
				opacity: 1;
				transform: translate(0, 0);
			}
			80% {
				opacity: 1;
				transform: translate(0, -56px);
			}
			100% {
				opacity: 1;
				transform: translate(0, -155px);
			}
		}

		@keyframes pronouns {
			0%,
			60% {
				opacity: 0;
				transform: translate(0, 0);
			}
			80% {
				opacity: 1;
				transform: translate(0, 0);
			}
			100% {
				opacity: 1;
				transform: translate(0, -99px);
			}
		}

		@keyframes contact {
			0%,
			80% {
				opacity: 0;
				transform: translate(0, 0);
			}
			100% {
				opacity: 1;
				transform: translate(0, 0);
			}
		}

		@keyframes eye {
			5%,
			20% {
				transform: scale(1, 1);
				stroke-width: 2px;
			}
			10%,
			15% {
				transform: scale(1, 0);
				stroke-width: 20px;
			}
		}

		@keyframes pupil {
			5%,
			20% {
				transform: translate(5px, -1px);
			}
			10%,
			15% {
				transform: translate(-5px, 1px);
			}
			20%,
			100% {
				transform: translate(0, 0);
			}
		}

		@keyframes eyebrow {
			0%,
			9% {
				transform: translate(0, 0);
			}
			10%,
			15% {
				transform: translate(0, 0.5px);
			}
			16%,
			100% {
				transform: translate(0, 0);
			}
		}

		@keyframes talk {
			50% {
				opacity: 1;
			}
		}
	</style>
	<defs>
		<clipPath id="_clipPath_uSaH7GvzYbWeM4qHwkmFMFjBW04XGMZb">
			<rect width="1024" height="512" />
		</clipPath>
	</defs>
	<g clip-path="url(#_clipPath_uSaH7GvzYbWeM4qHwkmFMFjBW04XGMZb)">
		<g>
			<path
				d="M254.64,311.615C266.295,310.394 288.556,318.743 341.017,337.284L344.824,318.364C348.37,320.982 351.584,325.249 354.467,331.166C357.349,337.082 371.137,339.404 395.831,338.131C406.358,319.74 411.651,295.689 411.708,265.976C411.801,217.616 394.123,205.368 389.745,186.206C385.367,167.045 385.367,167.045 377.142,137.51C359.138,93.392 347.333,68.842 341.728,63.859C336.593,59.294 324.407,55.976 305.171,53.905C303.485,45.99 301.523,41.232 299.343,40.734C282.429,36.867 225.589,35.255 209.565,40.734C193.54,46.213 184.408,56.385 176,63.859C167.592,71.333 142.595,91.374 132,112C121.405,132.626 127.413,165.292 119.535,186.206C111.658,207.12 97.478,217.616 97.572,265.976C97.629,295.689 102.921,319.74 113.448,338.131C138.142,339.404 151.93,337.082 154.813,331.166C157.696,325.249 160.91,320.982 164.456,318.364L168.263,337.284C218.078,320.986 246.87,312.43 254.64,311.615Z"
				style="fill: #5e4038; fill-rule: nonzero"
			/>
			<g>
				<clipPath id="_clip2">
					<path
						d="M254.64,311.615C266.295,310.394 288.556,318.743 341.017,337.284L344.824,318.364C348.37,320.982 351.584,325.249 354.467,331.166C357.349,337.082 371.137,339.404 395.831,338.131C406.358,319.74 411.651,295.689 411.708,265.976C411.801,217.616 394.123,205.368 389.745,186.206C385.367,167.045 385.367,167.045 377.142,137.51C359.138,93.392 347.333,68.842 341.728,63.859C336.593,59.294 324.407,55.976 305.171,53.905C303.485,45.99 301.523,41.232 299.343,40.734C282.429,36.867 225.589,35.255 209.565,40.734C193.54,46.213 184.408,56.385 176,63.859C167.592,71.333 142.595,91.374 132,112C121.405,132.626 127.413,165.292 119.535,186.206C111.658,207.12 97.478,217.616 97.572,265.976C97.629,295.689 102.921,319.74 113.448,338.131C138.142,339.404 151.93,337.082 154.813,331.166C157.696,325.249 160.91,320.982 164.456,318.364L168.263,337.284C218.078,320.986 246.87,312.43 254.64,311.615Z"
					/>
				</clipPath>
				<g clip-path="url(#_clip2)">
					<path
						d="M368,116C378.515,119.396 397.2,204.556 392.368,244.782C388.901,273.649 393.604,330.966 395.664,343.681C398.951,363.97 378.142,347.147 333.239,293.21C349.403,172.806 360.99,113.736 368,116Z"
						style="fill: #5b3c34; fill-rule: nonzero"
					/>
					<path
						d="M375.031,352.878C394.098,323.297 391.431,248.631 367.031,128.878C231.76,104.502 162.427,100.502 159.031,116.878C153.936,141.441 117.324,330.371 143.031,348.878C168.737,367.385 346.43,397.248 375.031,352.878Z"
						style="fill: #462f28; fill-rule: nonzero"
					/>
				</g>
			</g>
			<g
				transform="matrix(-0.312445,0.0724579,-0.085675,-0.369439,478.62,513.393)"
			>
				<path
					d="M351.876,384.242L360.394,396.126L343.357,396.126L351.876,384.242Z"
					style="fill: #d6ae3a"
				/>
			</g>
			<g
				transform="matrix(0.443106,0.102759,0.085675,-0.369439,-21.2765,505.945)"
			>
				<path
					d="M351.876,384.242L360.394,396.126L343.357,396.126L351.876,384.242Z"
					style="fill: #c59815"
				/>
			</g>
			<path
				d="M208.836,312.883C211.963,331.624 213.238,348.719 212.66,364.17C212.498,368.496 212.191,372.693 211.739,376.761C184.931,388.167 153.717,406.045 117.969,430.232L139.724,520.56L253.723,545.781L390.924,505.427L386.941,429.849C357.109,406.116 329.668,388.493 304.618,376.98C299.881,356.251 298.17,326.729 299.483,288.414L208.836,312.883Z"
				style="fill: #f8dec8; fill-rule: nonzero"
			/>
			<g>
				<clipPath id="_clip3">
					<path
						d="M208.836,312.883C211.963,331.624 213.238,348.719 212.66,364.17C212.498,368.496 212.191,372.693 211.739,376.761C184.931,388.167 153.717,406.045 117.969,430.232L139.724,520.56L253.723,545.781L390.924,505.427L386.941,429.849C357.109,406.116 329.668,388.493 304.618,376.98C299.881,356.251 298.17,326.729 299.483,288.414L208.836,312.883Z"
					/>
				</clipPath>
				<g clip-path="url(#_clip3)">
					<path
						d="M315.141,300.669C315.141,300.669 276.046,367.884 238.878,387.33C201.709,406.777 131.173,395.539 131.173,395.539L132,284L311,240L315.141,300.669Z"
						style="fill: #f4ceba; fill-rule: nonzero"
					/>
					<path
						d="M324.183,318C324.183,318 283.54,355.991 252.084,368.192C231.268,376.266 167.027,316.152 167.027,316.152L164.555,270.006L366.483,256.509L324.183,318Z"
						style="
							fill: #cc9898;
							fill-opacity: 0.3;
							fill-rule: nonzero;
						"
					/>
					<g transform="matrix(1,0,0,1,9,-8)">
						<path
							d="M274.316,430.563L295.211,418.143L344.588,413.679L274.316,430.563Z"
							style="
								fill: #cc9898;
								fill-opacity: 0.3;
								fill-rule: nonzero;
							"
						/>
					</g>
					<g transform="matrix(-1,0,0,1,494.904,-8)">
						<path
							d="M274.316,430.563L295.211,418.143L344.588,413.679L274.316,430.563Z"
							style="
								fill: #cc9898;
								fill-opacity: 0.3;
								fill-rule: nonzero;
							"
						/>
					</g>
				</g>
			</g>
			<g>
				<g
					transform="matrix(0.505759,0.131166,0.141056,-0.54389,-75.2624,571.699)"
				>
					<path
						d="M351.876,384.242L360.394,396.126L343.357,396.126L351.876,384.242Z"
					/>
				</g>
				<g
					transform="matrix(-0.505759,0.131166,-0.141056,-0.54389,587.262,571.703)"
				>
					<path
						d="M351.876,384.242L360.394,396.126L343.357,396.126L351.876,384.242Z"
					/>
				</g>
				<path
					d="M164.781,394.857C190.554,422.074 217.656,437.725 246.089,441.812C274.521,445.899 304.956,429.272 337.393,391.93L355.132,404.5L386.9,425.6L379.157,537.415L109.791,552L100.068,449.907L152.951,407.791L164.781,394.857Z"
					style="fill: #e8d49b; fill-rule: nonzero"
				/>
				<g>
					<clipPath id="_clip4">
						<path
							d="M164.781,394.857C190.554,422.074 217.656,437.725 246.089,441.812C274.521,445.899 304.956,429.272 337.393,391.93L355.132,404.5L386.9,425.6L379.157,537.415L109.791,552L100.068,449.907L152.951,407.791L164.781,394.857Z"
						/>
					</clipPath>
					<g clip-path="url(#_clip4)">
						<g
							transform="matrix(1.19088,0.0677984,-0.0573258,1.00693,-42.2559,-25.5249)"
						>
							<path
								d="M359.454,384C359.454,384 328.802,449.713 320.628,477.219C313.462,501.333 311.194,555.764 311.194,555.764L367.454,552L359.454,384Z"
								style="fill: #dbc485; fill-rule: nonzero"
							/>
						</g>
						<path
							d="M143.822,372.122L367.454,372.122C345.866,412.261 324.799,436.569 304.253,445.046C273.435,457.761 229.377,456.034 192.438,440.184C167.811,429.617 151.606,406.93 143.822,372.122Z"
							style="fill: #ffcb36; fill-rule: nonzero"
						/>
					</g>
				</g>
				<path
					d="M134.823,411.015C137.631,410.372 144.113,407.131 154.27,401.292C165.691,429.1 173.794,450.782 178.577,466.339C183.36,481.896 189.843,510.449 198.024,552L52.177,552C39.751,517.818 34.889,498.372 37.592,493.661C41.647,486.595 49.894,488.25 57.038,488.8C49.674,482.663 46.215,474.015 47.315,464.492C48.416,454.969 67.592,450.196 76.485,440.184C85.377,430.172 89.436,411.763 95.931,411.015C102.426,410.267 101.654,416.184 105.654,415.876C108.321,415.671 111.562,412.43 115.377,406.153C125.533,410.037 132.015,411.658 134.823,411.015Z"
					style="fill: #393838; fill-rule: nonzero"
				/>
				<g>
					<clipPath id="_clip5">
						<path
							d="M134.823,411.015C137.631,410.372 144.113,407.131 154.27,401.292C165.691,429.1 173.794,450.782 178.577,466.339C183.36,481.896 189.843,510.449 198.024,552L52.177,552C39.751,517.818 34.889,498.372 37.592,493.661C41.647,486.595 49.894,488.25 57.038,488.8C49.674,482.663 46.215,474.015 47.315,464.492C48.416,454.969 67.592,450.196 76.485,440.184C85.377,430.172 89.436,411.763 95.931,411.015C102.426,410.267 101.654,416.184 105.654,415.876C108.321,415.671 111.562,412.43 115.377,406.153C125.533,410.037 132.015,411.658 134.823,411.015Z"
						/>
					</clipPath>
					<g clip-path="url(#_clip5)">
						<path
							d="M95.931,406.153C124.921,434.745 144.367,460.673 154.27,483.938C164.172,507.203 181.998,544.475 207.747,595.754L222.331,586.031L159.131,386.707L95.931,406.153Z"
							style="fill: #2e2e2e; fill-rule: nonzero"
						/>
						<path
							d="M149.716,517.415L115.685,478.523L81.654,449.354C99.503,457.479 112.467,465.582 120.546,473.661C128.626,481.74 138.349,496.325 149.716,517.415Z"
							style="fill: #464646; fill-rule: nonzero"
						/>
						<path
							d="M159.131,537.415L61.9,479.077C60.991,485.465 60.991,490.326 61.9,493.661C62.809,496.996 75.773,501.858 100.792,508.246L159.131,537.415Z"
							style="fill: #2f2f2f; fill-rule: nonzero"
						/>
					</g>
				</g>
				<path
					d="M377.177,411.015C374.369,410.372 367.887,407.131 357.73,401.292C346.309,429.1 338.206,450.782 333.423,466.339C328.64,481.896 322.157,510.449 313.976,552L459.823,552C472.249,517.818 477.111,498.372 474.408,493.661C470.353,486.595 462.106,488.25 454.962,488.8C462.326,482.663 465.785,474.015 464.685,464.492C463.584,454.969 444.408,450.196 435.515,440.184C426.623,430.172 422.564,411.763 416.069,411.015C409.574,410.267 410.346,416.184 406.346,415.876C403.679,415.671 400.438,412.43 396.623,406.153C386.467,410.037 379.985,411.658 377.177,411.015Z"
					style="fill: #393838; fill-rule: nonzero"
				/>
				<g>
					<clipPath id="_clip6">
						<path
							d="M377.177,411.015C374.369,410.372 367.887,407.131 357.73,401.292C346.309,429.1 338.206,450.782 333.423,466.339C328.64,481.896 322.157,510.449 313.976,552L459.823,552C472.249,517.818 477.111,498.372 474.408,493.661C470.353,486.595 462.106,488.25 454.962,488.8C462.326,482.663 465.785,474.015 464.685,464.492C463.584,454.969 444.408,450.196 435.515,440.184C426.623,430.172 422.564,411.763 416.069,411.015C409.574,410.267 410.346,416.184 406.346,415.876C403.679,415.671 400.438,412.43 396.623,406.153C386.467,410.037 379.985,411.658 377.177,411.015Z"
						/>
					</clipPath>
					<g clip-path="url(#_clip6)">
						<path
							d="M416.069,406.153C387.079,434.745 367.633,460.673 357.73,483.938C347.828,507.203 330.002,544.475 304.253,595.754L289.669,586.031L352.869,386.707L416.069,406.153Z"
							style="fill: #2e2e2e; fill-rule: nonzero"
						/>
						<path
							d="M338.284,537.415L372.315,498.523L406.346,469.354C388.497,477.479 375.533,485.582 367.454,493.661C359.374,501.74 349.651,516.325 338.284,537.415Z"
							style="fill: #2f2f2f; fill-rule: nonzero"
						/>
						<path
							d="M352.869,537.415L450.1,479.077C450.503,487.321 450.503,492.182 450.1,493.661C449.495,495.879 438.795,499.834 432.293,502.34C427.5,504.187 420.471,506.156 411.208,508.246L352.869,537.415Z"
							style="fill: #464646; fill-rule: nonzero"
						/>
					</g>
				</g>
			</g>
			<path
				d="M281.884,488.934L283.492,488.934C283.887,487.195 284.847,485.876 286.371,484.979C287.896,484.082 289.815,483.661 292.129,483.717L291.283,494.991C290.549,498.188 289.928,500.348 289.42,501.47C288.912,502.591 287.67,505.227 285.694,509.378C285.073,511.903 285.525,513.586 287.049,514.427C288.573,515.268 289.928,515.493 291.113,515.1C293.71,513.473 295.234,511.791 295.686,510.052C296.363,507.443 297.633,501.133 297.887,498.273C298.056,496.366 298.423,491.542 298.988,483.801L307.371,483.885L305.931,496.842C305.706,502.227 305.734,505.676 306.016,507.191C306.439,509.463 308.048,513.922 309.996,514.427C311.943,514.931 315.161,515.689 317.278,514.595C319.395,513.501 320.496,512.071 321.342,509.463C321.907,507.724 322.33,504.863 322.613,500.881L320.919,501.049C320.806,505.985 319.028,508.201 315.584,507.696C312.141,507.191 311.351,501.582 313.214,490.869L313.976,483.885L322.782,483.801L322.867,475.472L294.754,475.304C291.593,475.416 289.307,476.117 287.896,477.407C285.779,479.342 284.847,481.193 283.662,483.801C282.871,485.54 282.279,487.251 281.884,488.934Z"
				style="fill: #f90; fill-rule: nonzero"
			/>
			<clipPath id="_clip7">
				<path
					d="M281.884,488.934L283.492,488.934C283.887,487.195 284.847,485.876 286.371,484.979C287.896,484.082 289.815,483.661 292.129,483.717L291.283,494.991C290.549,498.188 289.928,500.348 289.42,501.47C288.912,502.591 287.67,505.227 285.694,509.378C285.073,511.903 285.525,513.586 287.049,514.427C288.573,515.268 289.928,515.493 291.113,515.1C293.71,513.473 295.234,511.791 295.686,510.052C296.363,507.443 297.633,501.133 297.887,498.273C298.056,496.366 298.423,491.542 298.988,483.801L307.371,483.885L305.931,496.842C305.706,502.227 305.734,505.676 306.016,507.191C306.439,509.463 308.048,513.922 309.996,514.427C311.943,514.931 315.161,515.689 317.278,514.595C319.395,513.501 320.496,512.071 321.342,509.463C321.907,507.724 322.33,504.863 322.613,500.881L320.919,501.049C320.806,505.985 319.028,508.201 315.584,507.696C312.141,507.191 311.351,501.582 313.214,490.869L313.976,483.885L322.782,483.801L322.867,475.472L294.754,475.304C291.593,475.416 289.307,476.117 287.896,477.407C285.779,479.342 284.847,481.193 283.662,483.801C282.871,485.54 282.279,487.251 281.884,488.934Z"
					clip-rule="nonzero"
				/>
			</clipPath>
			<g clip-path="url(#_clip7)">
				<g
					transform="matrix(1.19088,0.0677984,-0.0573258,1.00693,-42.2559,-25.5249)"
				>
					<path
						d="M359.454,384C359.454,384 328.802,449.713 320.628,477.219C313.462,501.333 311.194,555.764 311.194,555.764L367.454,552L359.454,384Z"
						style="fill: #e28800; fill-rule: nonzero"
					/>
				</g>
			</g>
			<g>
				<g>
					<path
						d="M336.775,263.249C338.292,269.24 357.553,264.121 361.549,262.185C365.545,260.25 367.88,252.615 374.172,244.529C378.813,238.564 385.383,233.463 386.78,226.964C388.176,220.466 384.571,191.169 377.685,190.946C368.482,190.818 361.575,193.012 356.964,197.527C352.353,202.042 350.085,206.027 350.16,209.482C340.225,241.333 335.763,259.255 336.775,263.249Z"
						style="fill: #f8d1bb; fill-rule: nonzero"
					/>
					<g>
						<clipPath id="_clip8">
							<path
								d="M336.775,263.249C338.292,269.24 357.553,264.121 361.549,262.185C365.545,260.25 367.88,252.615 374.172,244.529C378.813,238.564 385.383,233.463 386.78,226.964C388.176,220.466 384.571,191.169 377.685,190.946C368.482,190.818 361.575,193.012 356.964,197.527C352.353,202.042 350.085,206.027 350.16,209.482C340.225,241.333 335.763,259.255 336.775,263.249Z"
							/>
						</clipPath>
						<g clip-path="url(#_clip8)">
							<path
								d="M370.125,238.97C378.432,228.606 382.641,222.707 382.754,221.273C382.923,219.122 382.472,217.082 381.653,215.113C380.239,211.713 377.728,208.527 375.417,205.354C373.877,203.238 368.718,203.647 359.941,206.581L357.965,222.428L370.125,238.97Z"
								style="fill: #daaca3; fill-rule: nonzero"
							/>
							<path
								d="M357.23,227.098C360.761,232.021 361.858,235.475 360.52,237.458C358.514,240.434 348.524,250.164 348.301,252.552C348.079,254.94 367.822,242.853 370.125,238.97C372.428,235.088 374.903,224.251 373.178,219.577C372.028,216.461 369.158,213.852 364.568,211.75L359.765,210.994L357.23,227.098Z"
								style="fill: #edbaa9; fill-rule: nonzero"
							/>
						</g>
					</g>
					<g
						transform="matrix(-0.995001,0.0998695,0.0998695,0.995001,484.026,-12.3032)"
					>
						<path
							d="M151.313,251.343C151.011,251.725 149.817,253.211 149.523,253.613C144.233,260.84 145.113,265.249 148.182,267.495C150.228,268.993 153.927,267.695 157.733,264.521"
							style="
								fill: none;
								fill-rule: nonzero;
								stroke: #423f3d;
								stroke-width: 4px;
								stroke-linecap: round;
							"
						/>
					</g>
					<g
						transform="matrix(0.991444,-0.13053,0.13053,0.991444,-24.3152,52.2795)"
					>
						<path
							d="M378.892,215.806C387.758,214.522 394.703,211.736 394.392,209.589C394.219,208.396 391.843,207.65 388.244,207.442"
							style="
								fill: none;
								fill-rule: nonzero;
								stroke: #595756;
								stroke-width: 4px;
								stroke-linecap: round;
							"
						/>
					</g>
					<path
						d="M342.479,259.088C342.904,256.384 345.402,254.527 348.052,254.945C350.703,255.362 352.509,257.896 352.083,260.6C351.658,263.304 349.16,265.16 346.51,264.743C343.859,264.326 342.053,261.792 342.479,259.088Z"
						style="fill: #423f3d; fill-rule: nonzero"
					/>
				</g>
				<g>
					<path
						d="M177.228,265.521C175.148,271.341 156.46,264.416 152.666,262.109C148.872,259.803 147.273,251.981 141.778,243.334C137.724,236.955 131.668,231.253 130.895,224.651C130.122,218.05 136.493,189.228 143.369,189.66C152.543,190.407 159.211,193.246 163.372,198.179C167.533,203.112 169.412,207.294 169.009,210.726C175.875,243.376 178.615,261.641 177.228,265.521Z"
						style="fill: #f8d1bb; fill-rule: nonzero"
					/>
					<g>
						<clipPath id="_clip9">
							<path
								d="M177.228,265.521C175.148,271.341 156.46,264.416 152.666,262.109C148.872,259.803 147.273,251.981 141.778,243.334C137.724,236.955 131.668,231.253 130.895,224.651C130.122,218.05 136.493,189.228 143.369,189.66C152.543,190.407 159.211,193.246 163.372,198.179C167.533,203.112 169.412,207.294 169.009,210.726C175.875,243.376 178.615,261.641 177.228,265.521Z"
							/>
						</clipPath>
						<g clip-path="url(#_clip9)">
							<path
								d="M146.334,238.185C139.049,227.078 135.419,220.806 135.443,219.368C135.478,217.211 136.121,215.222 137.124,213.34C138.854,210.091 141.657,207.157 144.258,204.217C145.992,202.258 151.007,202.258 159.304,204.217L160.01,222.872L146.334,238.185Z"
								style="fill: #daaca3; fill-rule: nonzero"
							/>
							<path
								d="M160.298,227.59C156.315,232.157 154.896,235.491 156.039,237.592C157.753,240.744 166.775,251.38 166.769,253.778C166.763,256.176 148.258,242.268 146.334,238.185C144.41,234.102 142.975,223.078 145.136,218.589C146.577,215.596 149.682,213.272 154.451,211.615L159.304,211.319L160.298,227.59Z"
								style="fill: #edbaa9; fill-rule: nonzero"
							/>
						</g>
					</g>
					<g
						transform="matrix(0.995001,0.0998695,-0.0998695,0.995001,27.2895,-12.4417)"
					>
						<path
							d="M142.591,243.604C137.299,250.832 135.496,258.525 138.565,260.771C140.27,262.019 143.123,261.326 146.229,259.223"
							style="
								fill: none;
								fill-rule: nonzero;
								stroke: #3b3937;
								stroke-width: 4px;
								stroke-linecap: round;
							"
						/>
					</g>
					<g
						transform="matrix(0.995001,0.0998695,-0.0998695,0.995001,27.2895,-12.4417)"
					>
						<path
							d="M151.313,251.343C151.011,251.725 149.817,253.211 149.523,253.613C144.233,260.84 145.113,265.249 148.182,267.495C150.228,268.993 153.927,267.695 157.733,264.521"
							style="
								fill: none;
								fill-rule: nonzero;
								stroke: #423f3d;
								stroke-width: 4px;
								stroke-linecap: round;
							"
						/>
					</g>
					<g
						transform="matrix(-0.859932,0.510409,-0.510409,-0.859932,595.204,305.866)"
					>
						<path
							d="M342.479,259.088C342.904,256.384 345.402,254.527 348.052,254.945C350.703,255.362 352.509,257.896 352.083,260.6C351.658,263.304 349.16,265.16 346.51,264.743C343.859,264.326 342.053,261.792 342.479,259.088Z"
							style="fill: #423f3d; fill-rule: nonzero"
						/>
					</g>
				</g>
			</g>
			<g>
				<path
					d="M158.089,154.004C148.037,189.49 165.202,285.426 179.789,303.38C194.376,321.334 231.978,351.093 242.312,354.739C252.646,358.384 260.164,354.404 267.02,352.732C273.876,351.059 310.845,327.867 326.343,305.824C341.841,283.78 340.236,279.257 345.908,264.058C351.58,248.86 380.621,175.057 361.709,128.855C342.798,82.653 318.809,63.841 276.736,60.188C234.663,56.536 212.005,72.65 189.569,94.053C167.133,115.456 168.142,118.519 158.089,154.004Z"
					style="fill: #f8ddc6; fill-rule: nonzero"
				/>
				<g>
					<clipPath id="_clip10">
						<path
							d="M158.089,154.004C148.037,189.49 165.202,285.426 179.789,303.38C194.376,321.334 231.978,351.093 242.312,354.739C252.646,358.384 260.164,354.404 267.02,352.732C273.876,351.059 310.845,327.867 326.343,305.824C341.841,283.78 340.236,279.257 345.908,264.058C351.58,248.86 380.621,175.057 361.709,128.855C342.798,82.653 318.809,63.841 276.736,60.188C234.663,56.536 212.005,72.65 189.569,94.053C167.133,115.456 168.142,118.519 158.089,154.004Z"
						/>
					</clipPath>
					<g clip-path="url(#_clip10)">
						<path
							d="M154.906,276.664C156.697,261.34 172.251,250.547 189.618,252.577C206.986,254.607 219.632,268.695 217.841,284.019C216.05,299.343 200.496,310.136 183.129,308.107C165.761,306.077 153.115,291.988 154.906,276.664Z"
							style="
								fill: #f4b9b0;
								fill-opacity: 0.5;
								fill-rule: nonzero;
							"
						/>
						<path
							d="M297.849,287.531C294.061,272.576 304.747,256.948 321.698,252.655C338.648,248.361 355.485,257.018 359.273,271.974C363.061,286.93 352.375,302.558 335.425,306.851C318.474,311.144 301.637,302.487 297.849,287.531Z"
							style="
								fill: #f4b9b0;
								fill-opacity: 0.5;
								fill-rule: nonzero;
							"
						/>
						<path
							d="M327.92,246.06C328.076,244.728 329.284,243.772 330.617,243.928C331.949,244.084 332.905,245.292 332.749,246.624C332.593,247.957 331.385,248.912 330.052,248.757C328.72,248.601 327.764,247.393 327.92,246.06Z"
							style="fill: #edbaa9; fill-rule: nonzero"
						/>
						<path
							d="M239.625,289.582C239.781,288.25 240.989,287.294 242.321,287.45C243.654,287.606 244.609,288.814 244.453,290.147C244.298,291.479 243.089,292.434 241.757,292.279C240.424,292.123 239.469,290.915 239.625,289.582Z"
							style="fill: #edbaa9; fill-rule: nonzero"
						/>
					</g>
				</g>
			</g>
			<g>
				<path
					d="M257.838,225.55C256.19,225.542 254.551,226.875 252.921,229.55C247.614,256.468 245.159,271.062 245.556,273.332C245.952,275.602 250.046,279.399 257.838,284.724C265.609,279.025 269.664,275.227 270.003,273.332C270.342,271.437 267.926,256.843 262.756,229.55C261.126,226.891 259.487,225.558 257.838,225.55Z"
					style="fill: #f8d1bb; fill-rule: nonzero"
				/>
				<path
					d="M262.756,276.929C264.296,279.551 267.519,280.521 269.947,279.095C272.376,277.668 273.097,274.381 271.557,271.759C270.701,270.302 269.326,269.355 267.857,269.046"
					style="
						fill: none;
						fill-rule: nonzero;
						stroke: #909090;
						stroke-width: 2px;
						stroke-linecap: round;
					"
				/>
			</g>
			<g>
				<g class="mouth">
					<path
						d="M256,296.231C250.275,296.231 242.275,297.564 232,300.231C239.257,305.314 247.257,307.924 256,308.061C264.743,308.198 272.743,305.588 280,300.231C269.725,297.564 261.725,296.231 256,296.231Z"
						style="fill: #f4ceba; fill-rule: nonzero"
					/>
					<g>
						<clipPath id="_clip11">
							<path
								d="M256,296.231C250.275,296.231 242.275,297.564 232,300.231C239.257,305.314 247.257,307.924 256,308.061C264.743,308.198 272.743,305.588 280,300.231C269.725,297.564 261.725,296.231 256,296.231Z"
							/>
						</clipPath>
						<g clip-path="url(#_clip11)">
							<rect
								x="229.261"
								y="300"
								width="53.477"
								height="9.723"
								style="fill: #f3c5ad"
							/>
						</g>
					</g>
				</g>
				<g class="open-mouth">
					<path
						d="M256,296.189C261.725,296.189 269.725,297.523 280,300.189C272.743,305.546 263.757,314.054 255.014,313.917C246.272,313.78 239.257,305.273 232,300.189C242.275,297.523 250.275,296.189 256,296.189Z"
						style="
							fill: #f4ceba;
							fill-opacity: 0.8;
							fill-rule: nonzero;
						"
					/>
					<path
						d="M256.138,301.202C261.864,301.202 269.959,300.488 279.996,300.191C272.739,305.722 263.918,307.688 255.175,307.547C246.433,307.405 232.01,300.193 232.01,300.193C232.01,300.193 250.413,301.202 256.138,301.202Z"
						style="
							fill: #cc9898;
							fill-opacity: 0.3;
							fill-rule: nonzero;
						"
					/>
					<path
						id="lower-lip"
						d="M255.229,307.58C260.954,307.58 270.681,303.419 280,300.189C272.743,305.546 264.282,314.431 255.539,314.295C246.796,314.158 239.257,305.273 232,300.189C242.219,301.651 249.504,307.58 255.229,307.58Z"
						style="fill: #f4ceba; fill-rule: nonzero"
					/>
				</g>
			</g>
			<g>
				<g>
					<path
						d="M228.158,215.173C232.954,222.078 235.189,230.033 234.864,239.037C230.364,242.088 223.278,244.424 220.694,245C218.11,245.576 209.109,246.401 196.086,242.012C191.297,240.399 186.201,237.539 180.8,233.433C182.773,224.67 185.508,217.959 189.007,213.3C195.945,204.061 204.699,202.077 207.653,202.118C210.607,202.16 223.448,205.417 228.158,215.173Z"
						style="
							fill: #fff;
							fill-opacity: 0.75;
							fill-rule: nonzero;
						"
					/>
					<g>
						<clipPath id="_clip12">
							<path
								class="eyelid"
								d="M228.158,215.173C232.954,222.078 235.189,230.033 234.864,239.037C230.364,242.088 223.278,244.424 220.694,245C218.11,245.576 209.109,246.401 196.086,242.012C191.297,240.399 186.201,237.539 180.8,233.433C182.773,224.67 185.508,217.959 189.007,213.3C195.945,204.061 204.699,202.077 207.653,202.118C210.607,202.16 223.448,205.417 228.158,215.173Z"
							/>
						</clipPath>
						<g clip-path="url(#_clip12)">
							<g class="pupil">
								<path
									d="M190.57,224.205C190.529,212.159 198.64,202.351 208.673,202.317C218.706,202.282 226.884,212.034 226.926,224.08C226.967,236.126 218.856,245.934 208.823,245.969C198.79,246.003 190.612,236.251 190.57,224.205Z"
									style="fill: #566; fill-rule: nonzero"
								/>
								<g>
									<clipPath id="_clip13">
										<path
											d="M190.57,224.205C190.529,212.159 198.64,202.351 208.673,202.317C218.706,202.282 226.884,212.034 226.926,224.08C226.967,236.126 218.856,245.934 208.823,245.969C198.79,246.003 190.612,236.251 190.57,224.205Z"
										/>
									</clipPath>
									<g clip-path="url(#_clip13)">
										<g
											transform="matrix(1,-0.003,0.003,1,-0.81,0.734)"
										>
											<rect
												x="187.828"
												y="223.191"
												width="50.339"
												height="25.379"
												style="fill: #58a2a2"
											/>
										</g>
									</g>
								</g>
								<path
									d="M199.236,224.175C199.214,217.872 203.459,212.739 208.709,212.721C213.959,212.703 218.238,217.806 218.26,224.11C218.282,230.413 214.037,235.546 208.787,235.564C203.537,235.582 199.258,230.479 199.236,224.175Z"
									style="
										fill: none;
										fill-rule: nonzero;
										stroke: #fff;
										stroke-opacity: 0.75;
										stroke-width: 3px;
										stroke-linecap: square;
										stroke-linejoin: miter;
									"
								/>
								<path
									d="M199.236,224.175C199.214,217.872 203.459,212.739 208.709,212.721C213.959,212.703 218.238,217.806 218.26,224.11C218.282,230.413 214.037,235.546 208.787,235.564C203.537,235.582 199.258,230.479 199.236,224.175Z"
									style="fill: #423f3d; fill-rule: nonzero"
								/>
							</g>
						</g>
					</g>
					<path
						d="M292.256,214.263C287.245,221.014 284.759,228.894 284.8,237.905C289.203,241.096 296.211,243.654 298.776,244.312C301.34,244.969 310.311,246.077 323.466,242.101C328.303,240.639 333.486,237.941 339.014,234.008C337.319,225.187 334.796,218.393 331.446,213.626C324.803,204.173 316.116,201.913 313.162,201.862C310.208,201.81 297.271,204.661 292.256,214.263Z"
						style="
							fill: #fff;
							fill-opacity: 0.75;
							fill-rule: nonzero;
						"
					/>
					<g>
						<clipPath id="_clip14">
							<path
								class="eyelid"
								d="M292.256,214.263C287.245,221.014 284.759,228.894 284.8,237.905C289.203,241.096 296.211,243.654 298.776,244.312C301.34,244.969 310.311,246.077 323.466,242.101C328.303,240.639 333.486,237.941 339.014,234.008C337.319,225.187 334.796,218.393 331.446,213.626C324.803,204.173 316.116,201.913 313.162,201.862C310.208,201.81 297.271,204.661 292.256,214.263Z"
							/>
						</clipPath>
						<g clip-path="url(#_clip14)">
							<g class="pupil">
								<path
									d="M329.551,223.858C329.562,211.811 321.426,202.024 311.394,202.015C301.361,202.005 293.207,211.778 293.195,223.824C293.184,235.87 301.32,245.657 311.353,245.667C321.385,245.676 329.54,235.904 329.551,223.858Z"
									style="fill: #566; fill-rule: nonzero"
								/>
								<g>
									<clipPath id="_clip15">
										<path
											d="M329.551,223.858C329.562,211.811 321.426,202.024 311.394,202.015C301.361,202.005 293.207,211.778 293.195,223.824C293.184,235.87 301.32,245.657 311.353,245.667C321.385,245.676 329.54,235.904 329.551,223.858Z"
										/>
									</clipPath>
									<g clip-path="url(#_clip15)">
										<g
											transform="matrix(1,0.001,-0.001,1,0.22,-0.287)"
										>
											<rect
												x="281.984"
												y="222.9"
												width="50.339"
												height="25.379"
												style="fill: #58a2a2"
											/>
										</g>
									</g>
								</g>
								<path
									d="M320.885,223.85C320.891,217.546 316.634,212.424 311.384,212.419C306.134,212.415 301.867,217.528 301.861,223.832C301.855,230.135 306.113,235.257 311.363,235.262C316.612,235.267 320.879,230.153 320.885,223.85Z"
									style="
										fill: none;
										fill-rule: nonzero;
										stroke: #fff;
										stroke-opacity: 0.75;
										stroke-width: 3px;
										stroke-linecap: square;
										stroke-linejoin: miter;
									"
								/>
								<path
									d="M320.885,223.85C320.891,217.546 316.634,212.424 311.384,212.419C306.134,212.415 301.867,217.528 301.861,223.832C301.855,230.135 306.113,235.257 311.363,235.262C316.612,235.267 320.879,230.153 320.885,223.85Z"
									style="fill: #423f3d; fill-rule: nonzero"
								/>
							</g>
						</g>
					</g>
				</g>
			</g>
			<g class="eyebrow">
				<path
					d="M310.614,188.732L278.946,187.478C291.587,180.017 301.809,176.317 309.611,176.378C317.412,176.439 328.303,180.975 342.283,189.986L310.614,188.732Z"
					style="fill: #5e4038; fill-rule: nonzero"
				/>
				<path
					d="M206.892,188.785L238.524,186.803C225.714,179.636 215.41,176.172 207.611,176.412C199.813,176.652 189.03,181.437 175.261,190.767L206.892,188.785Z"
					style="fill: #5e4038; fill-rule: nonzero"
				/>
			</g>
			<g class="glasses">
				<path
					d="M152.226,185.576C153.681,192.418 161.628,215.911 160.862,216C160.241,216.073 162.61,213.406 167.97,208C159.206,193.676 153.996,185.633 152.341,183.871C151.901,183.402 151.913,184.104 152.226,185.576Z"
					style="fill: #423f3d; fill-rule: nonzero"
				/>
				<g>
					<clipPath id="_clip16">
						<path
							d="M152.226,185.576C153.681,192.418 161.628,215.911 160.862,216C160.241,216.073 162.61,213.406 167.97,208C159.206,193.676 153.996,185.633 152.341,183.871C151.901,183.402 151.913,184.104 152.226,185.576Z"
						/>
					</clipPath>
					<g clip-path="url(#_clip16)">
						<g
							transform="matrix(0.421,0.907,-0.79,0.673,243.243,-71.564)"
						>
							<rect
								x="123.213"
								y="192.186"
								width="54.127"
								height="11.305"
								style="fill: #3e3c3b"
							/>
						</g>
					</g>
				</g>
				<path
					d="M163.774,209.959C184.699,208.888 211.067,209.868 242.878,212.901C244.19,228.63 243.066,241.193 239.505,250.59C220.036,254.848 196.191,255.096 167.97,251.335C164.271,234.696 162.872,220.904 163.774,209.959Z"
					style="
						fill: none;
						fill-rule: nonzero;
						stroke: #423f3d;
						stroke-width: 6px;
					"
				/>
				<path
					d="M353.606,216C354.212,216.155 352.879,213.122 349.606,206.903C361.088,193.874 367.767,186.597 369.642,185.07C372.455,182.78 352.697,215.768 353.606,216Z"
					style="fill: #423f3d; fill-rule: nonzero"
				/>
				<g>
					<clipPath id="_clip17">
						<path
							d="M353.606,216C354.212,216.155 352.879,213.122 349.606,206.903C361.088,193.874 367.767,186.597 369.642,185.07C372.455,182.78 352.697,215.768 353.606,216Z"
						/>
					</clipPath>
					<g clip-path="url(#_clip17)">
						<g
							transform="matrix(0.538,-0.843,0.693,0.772,33.422,355.034)"
						>
							<rect
								x="341.034"
								y="191.178"
								width="54.127"
								height="11.305"
								style="fill: #3e3c3b"
							/>
						</g>
					</g>
				</g>
				<path
					d="M352.093,207.999C331.151,207.364 304.809,208.893 273.068,212.587C272.083,228.34 273.469,240.877 277.225,250.198C296.778,254.049 320.622,253.801 348.759,249.453C352.112,232.741 353.223,218.923 352.093,207.999Z"
					style="
						fill: none;
						fill-rule: nonzero;
						stroke: #423f3d;
						stroke-width: 6px;
					"
				/>
				<path
					d="M243.631,221.414C245.926,217.966 250.72,216.331 258.012,216.509C265.304,216.687 270.234,218.322 272.801,221.414"
					style="
						fill: none;
						fill-rule: nonzero;
						stroke: #423f3d;
						stroke-width: 6px;
					"
				/>
			</g>
			<g>
				<path
					d="M125.23,79.823C125.125,72.503 130.982,66.475 138.302,66.37C145.621,66.265 151.649,72.122 151.755,79.442C151.86,86.761 146.002,92.789 138.683,92.895C131.363,93 125.335,87.143 125.23,79.823Z"
					style="fill: #b59667; fill-rule: nonzero"
				/>
				<path
					d="M407.334,27.316L397.64,17.852C389.614,10.017 376.738,10.172 368.903,18.197L349.975,37.585C342.14,45.611 342.294,58.487 350.32,66.322C358.345,74.157 371.222,74.003 379.057,65.977C386.892,57.952 386.737,45.075 378.712,37.24L373.865,32.508L378.597,27.661C381.208,24.986 385.501,24.935 388.176,27.546L397.87,37.01C400.545,39.622 404.837,39.57 407.449,36.895C410.06,34.22 410.009,29.928 407.334,27.316ZM359.669,47.049C357.057,49.724 357.109,54.016 359.784,56.628C362.459,59.24 366.751,59.188 369.363,56.513C371.974,53.838 371.923,49.546 369.248,46.934C366.573,44.323 362.28,44.374 359.669,47.049Z"
					style="fill: #955c07"
				/>
				<path
					d="M125.861,116.221C127.556,112.889 126.227,108.807 122.895,107.112C119.563,105.417 115.481,106.746 113.786,110.078L107.643,122.153C105.948,125.486 101.866,126.815 98.534,125.12C95.202,123.424 93.873,119.343 95.568,116.011L101.711,103.935C103.406,100.603 102.077,96.522 98.745,94.827C95.412,93.131 91.331,94.461 89.636,97.793L83.493,109.868C81.798,113.2 77.716,114.529 74.384,112.834C71.052,111.139 69.723,107.057 71.418,103.725L77.56,91.65C82.646,81.653 94.891,77.666 104.887,82.751C109.594,85.146 112.969,89.127 114.475,93.784C119.126,92.259 124.331,92.643 129.037,95.037C139.034,100.122 143.021,112.367 137.936,122.364L131.793,134.439C130.098,137.771 126.017,139.1 122.684,137.405C119.352,135.71 118.023,131.628 119.718,128.296L125.861,116.221Z"
					style="fill: #f90; fill-rule: nonzero"
				/>
				<path
					d="M394.179,126.705C395.086,130.332 398.767,132.54 402.394,131.632C406.021,130.725 408.229,127.044 407.322,123.417L404.034,110.274C403.127,106.648 405.335,102.966 408.961,102.059C412.588,101.152 416.269,103.36 417.177,106.987L420.464,120.129C421.372,123.756 425.053,125.964 428.68,125.057C432.306,124.15 434.514,120.469 433.607,116.842L430.319,103.699C429.412,100.072 431.62,96.391 435.247,95.484C438.874,94.576 442.555,96.784 443.462,100.411L446.75,113.554C449.472,124.434 442.848,135.478 431.967,138.2C426.844,139.481 421.685,138.691 417.493,136.165C414.984,140.367 410.805,143.494 405.682,144.775C394.801,147.497 383.758,140.873 381.036,129.993L377.748,116.85C376.841,113.223 379.049,109.542 382.676,108.635C386.303,107.727 389.984,109.935 390.891,113.562L394.179,126.705Z"
					style="fill: #f90; fill-rule: nonzero"
				/>
				<path
					d="M115.913,30.836L153.419,69.951C156.006,72.65 160.298,72.74 162.996,70.152C165.695,67.565 165.785,63.273 163.197,60.575L125.692,21.46C123.104,18.761 118.813,18.671 116.114,21.259C113.416,23.846 113.325,28.138 115.913,30.836Z"
					style="fill: #dda654; fill-rule: nonzero"
				/>
				<path
					d="M192.243,-9.432L206.684,42.799C207.681,46.402 211.415,48.519 215.018,47.523C218.622,46.526 220.739,42.792 219.742,39.189L205.301,-13.043C204.305,-16.646 200.571,-18.763 196.967,-17.767C193.364,-16.77 191.247,-13.036 192.243,-9.432Z"
					style="fill: #957950; fill-rule: nonzero"
				/>
				<path
					d="M258.996,-21.507L231.904,-21.118C228.165,-21.064 225.174,-17.986 225.228,-14.247L225.617,12.845C225.671,16.584 228.749,19.575 232.488,19.521L246.034,19.327C249.772,19.273 252.851,22.264 252.904,26.002C252.958,29.741 249.967,32.819 246.229,32.873L232.682,33.068C228.944,33.121 225.953,36.2 226.006,39.938C226.06,43.676 229.139,46.668 232.877,46.614L246.423,46.419C257.638,46.258 266.612,37.022 266.451,25.808C266.29,14.593 257.054,5.619 245.839,5.78L239.066,5.878L238.871,-7.669L259.191,-7.961C262.929,-8.014 265.921,-11.093 265.867,-14.831C265.813,-18.569 262.735,-21.561 258.996,-21.507Z"
					style="fill: #bf8124; fill-rule: nonzero"
				/>
				<path
					d="M437.629,72.505L423.871,49.162C421.973,45.941 417.817,44.867 414.596,46.765L391.253,60.522C388.032,62.42 386.958,66.576 388.857,69.797L395.735,81.469C397.633,84.69 396.559,88.846 393.338,90.744C390.118,92.642 385.962,91.568 384.063,88.347L377.185,76.676C375.287,73.455 371.131,72.381 367.91,74.279C364.689,76.177 363.615,80.333 365.513,83.554L372.392,95.226C378.086,104.888 390.554,108.11 400.217,102.416C409.88,96.721 413.101,84.253 407.407,74.59L403.967,68.754L415.639,61.876L425.957,79.383C427.855,82.604 432.011,83.678 435.232,81.78C438.453,79.882 439.527,75.726 437.629,72.505Z"
					style="fill: #a67224; fill-rule: nonzero"
				/>
				<path
					d="M332.484,-21.656L345.322,-17.326C355.949,-13.741 361.667,-2.202 358.082,8.425C354.498,19.053 342.959,24.771 332.332,21.186C328.789,19.991 324.943,21.897 323.748,25.44C322.553,28.982 324.459,32.828 328.002,34.023L340.839,38.353C344.381,39.548 346.287,43.394 345.093,46.937C343.898,50.479 340.052,52.385 336.509,51.19L323.672,46.86C313.044,43.276 307.326,31.737 310.911,21.11C314.496,10.482 326.034,4.764 336.662,8.349C340.204,9.544 344.05,7.638 345.245,4.095C346.44,0.553 344.534,-3.294 340.992,-4.488L328.154,-8.818C324.612,-10.013 322.706,-13.859 323.901,-17.402C325.096,-20.944 328.942,-22.85 332.484,-21.656Z"
					style="fill: #ca7a02; fill-rule: nonzero"
				/>
				<path
					d="M136.921,20.419L144.265,31.804C150.345,41.229 162.933,43.945 172.358,37.865L178.05,34.193L189.066,51.27C191.093,54.411 195.289,55.317 198.43,53.29C201.572,51.263 202.477,47.067 200.451,43.926L171.075,-1.612C169.048,-4.754 164.852,-5.659 161.71,-3.633C158.569,-1.606 157.664,2.59 159.69,5.732L167.034,17.116C169.061,20.258 168.156,24.454 165.014,26.48C161.872,28.507 157.676,27.602 155.65,24.46L148.306,13.076C146.279,9.934 142.083,9.029 138.941,11.055C135.8,13.082 134.895,17.278 136.921,20.419Z"
					style="fill: #8c5e18; fill-rule: nonzero"
				/>
				<path
					d="M299.844,40.772L310.768,1.624C313.783,-9.179 307.46,-20.397 296.657,-23.412C285.854,-26.427 274.636,-20.104 271.621,-9.301C268.606,1.502 274.929,12.721 285.732,15.736L292.257,17.556L286.794,37.13C285.789,40.731 287.897,44.47 291.498,45.475C295.099,46.48 298.839,44.373 299.844,40.772ZM284.67,-5.659C283.665,-2.058 285.773,1.681 289.374,2.686C292.975,3.691 296.714,1.584 297.719,-2.017C298.724,-5.618 296.616,-9.358 293.015,-10.363C289.414,-11.368 285.675,-9.26 284.67,-5.659Z"
					style="fill: #c89851"
				/>
				<path
					d="M144.725,91.286C140.666,99.364 137.663,108.288 135.716,118.056C133.153,130.921 132.001,158.716 132.26,201.442C138.825,120.812 173.959,76.454 237.661,68.368C300.569,60.383 354.289,92.801 377.437,189.281C377.729,190.498 378.313,191.227 379.188,191.469C384.739,148.93 382.735,117.121 373.176,96.041C350.544,46.132 294.957,29.236 238.068,34.591C186.487,39.446 161.258,58.38 144.725,91.286Z"
					style="fill: #f90; fill-rule: nonzero"
				/>
			</g>
			<g>
				<path
					d="M316,48C283.866,29.21 258.533,19.877 240,20C212.201,20.185 195.276,29.515 180,48C164.724,66.485 155.159,100.342 144,117.668C136.561,129.219 132.561,156.663 132,200L316,48Z"
					style="fill: #5e4038; fill-rule: nonzero"
				/>
				<path
					d="M316,108C329.015,136.16 338.152,158.936 343.412,176.329C348.671,193.721 348.671,218.945 343.412,252C356.714,236.893 366.348,223.456 372.315,211.691C381.265,194.043 380.356,173.012 378.091,151.871C375.826,130.73 371.816,79.134 343.412,64C324.476,53.911 315.339,68.577 316,108Z"
					style="fill: #5e4038; fill-rule: nonzero"
				/>
				<path
					d="M316,108C304.939,102.36 296.037,99.762 289.292,100.205C282.547,100.648 270.877,106.469 254.282,117.668C259.683,92.471 265.532,74.98 271.829,65.195C281.274,50.518 302.173,18.473 320,20.094C322.9,20.137 332.344,24.475 336,28C339.656,31.525 348.656,43.6 348,54.975C347.37,65.888 341.075,71.503 332.537,80.691C326.846,86.816 321.333,95.919 316,108Z"
					style="fill: #5b3c34; fill-rule: nonzero"
				/>
				<g>
					<clipPath id="_clip18">
						<path
							d="M316,108C304.939,102.36 296.037,99.762 289.292,100.205C282.547,100.648 270.877,106.469 254.282,117.668C259.683,92.471 265.532,74.98 271.829,65.195C281.274,50.518 302.173,18.473 320,20.094C322.9,20.137 332.344,24.475 336,28C339.656,31.525 348.656,43.6 348,54.975C347.37,65.888 341.075,71.503 332.537,80.691C326.846,86.816 321.333,95.919 316,108Z"
						/>
					</clipPath>
					<g clip-path="url(#_clip18)">
						<path
							d="M316,108C305.913,107.611 297.913,107.611 292,108C286.087,108.389 275.516,110.506 260.289,114.351C264.332,93.336 269.459,78.001 275.672,68.346C284.992,53.864 304.881,23.177 323.533,29.591C342.185,36.006 344.98,46.328 342.454,59.387C340.4,70 323.485,83.945 316,92C311.01,97.37 311.01,102.703 316,108Z"
							style="fill: #462f28; fill-rule: nonzero"
						/>
						<g>
							<clipPath id="_clip19">
								<path
									d="M316,108C305.913,107.611 297.913,107.611 292,108C286.087,108.389 275.516,110.506 260.289,114.351C264.332,93.336 269.459,78.001 275.672,68.346C284.992,53.864 304.881,23.177 323.533,29.591C342.185,36.006 344.98,46.328 342.454,59.387C340.4,70 323.485,83.945 316,92C311.01,97.37 311.01,102.703 316,108Z"
								/>
							</clipPath>
							<g clip-path="url(#_clip19)">
								<path
									d="M248,132C251.094,121.762 292.989,87.36 304,64C311.341,48.427 316.674,33.791 320,20.094C277.893,41.588 253.893,64.223 248,88C239.161,123.665 244.906,142.238 248,132Z"
									style="fill: #3e2923; fill-rule: nonzero"
								/>
							</g>
						</g>
					</g>
				</g>
				<path
					d="M320,20.094C307.793,19.126 289.097,14.903 268,20.094C246.903,25.285 225.194,33.597 212,50.975C198.806,68.354 197.786,102.2 168,120C138.214,137.8 121.689,194.02 118.802,219.904C115.915,245.789 116.101,271.032 132.601,292.226C143.6,306.355 150.654,316.946 153.763,323.999C138.986,284.417 135.253,253.358 142.564,230.823C153.532,197.019 164.344,202.672 185.129,188.354C205.914,174.036 223.284,177.97 237.651,162.651C252.018,147.332 257.267,107.841 268,92C278.733,76.159 302.916,58.885 320,20.094Z"
					style="fill: #5b3c34; fill-rule: nonzero"
				/>
			</g>
		</g>
		<g class="dialog-5">
			<path
				d=" M 543.54 442.992 Q 540.599 443.14 541.063 440.62 Q 543.711 436.979 544.778 433.505 C 545.844 430.03 545.91 377.421 546.635 363.537 Q 546.635 355.631 554.064 355.235 L 903.571 355.235 Q 910.69 356.026 911 363.537 Q 911 377.421 911 433.505 Q 909.452 441.806 903.571 442.992 C 816.881 442.992 678.687 442.992 543.54 442.992 Z "
				fill="rgb(57,56,56)"
			/>
			<g clip-path="url(#_clipPath_cd6GMJ8GaVQpHZEklPJY27QnsFp6XqOK)">
				<text
					transform="matrix(1,0,0,1,565,381.172)"
					style="
						font-family: monospace;
						font-weight: 400;
						font-size: 16px;
						font-style: normal;
						fill: #e8e8e8;
						stroke: none;
					"
				>
					If you want to learn more about me,
				</text>
				<text
					transform="matrix(1,0,0,1,565,404.61)"
					style="
						font-family: monospace;
						font-weight: 400;
						font-size: 16px;
						font-style: normal;
						fill: #e8e8e8;
						stroke: none;
					"
				>
					I'm @rightonhana everywhere, or
				</text>
				<text
					transform="matrix(1,0,0,1,565,428.047)"
					style="
						font-family: monospace;
						font-weight: 400;
						font-size: 16px;
						font-style: normal;
						fill: #e8e8e8;
						stroke: none;
					"
				>
					you can go to 🔗 rightonhana.dev
				</text>
			</g>
			<defs>
				<clipPath id="_clipPath_cd6GMJ8GaVQpHZEklPJY27QnsFp6XqOK">
					<rect
						x="0"
						y="0"
						width="338.571"
						height="73"
						transform="matrix(1,0,0,1,565,362.618)"
					/>
				</clipPath>
			</defs>
		</g>
		<g class="dialog-4">
			<path
				d=" M 543.142 442.993 Q 540.662 443.118 541.053 440.993 Q 543.286 437.923 544.186 434.993 C 545.085 432.063 545.141 416.701 545.752 404.993 Q 545.752 398.326 552.016 397.993 L 823.736 397.993 Q 829.739 398.66 830 404.993 Q 830 416.701 830 434.993 Q 828.695 441.993 823.736 442.993 C 750.635 442.993 657.103 442.993 543.142 442.993 Z "
				fill="rgb(57,56,56)"
			/>
			<g clip-path="url(#_clipPath_Ms0lecwxuJ44rVCTRwPcoZdoHehpvDLq)">
				<text
					transform="matrix(1,0,0,1,559.408,426.799)"
					style="
						font-family: monospace;
						font-weight: 400;
						font-size: 16px;
						font-style: normal;
						fill: #e8e8e8;
						stroke: none;
					"
				>
					My pronouns are She/Her 👩‍💻
				</text>
			</g>
			<defs>
				<clipPath id="_clipPath_Ms0lecwxuJ44rVCTRwPcoZdoHehpvDLq">
					<rect
						x="0"
						y="0"
						width="258.183"
						height="24.503"
						transform="matrix(1,0,0,1,559.408,408.245)"
					/>
				</clipPath>
			</defs>
		</g>
		<g class="dialog-3">
			<path
				d=" M 543.54 442.992 Q 540.599 443.14 541.063 440.62 Q 543.711 436.979 544.778 433.505 C 545.844 430.03 545.91 377.421 546.635 363.537 Q 546.635 355.631 554.064 355.235 L 903.571 355.235 Q 910.69 356.026 911 363.537 Q 911 377.421 911 433.505 Q 909.452 441.806 903.571 442.992 C 816.881 442.992 678.687 442.992 543.54 442.992 Z "
				fill="rgb(57,56,56)"
			/>
			<g clip-path="url(#_clipPath_cd6GMJ8GaVQpHZEklPJY27QnsFp6XqOK)">
				<text
					transform="matrix(1,0,0,1,565,381.172)"
					style="
						font-family: monospace;
						font-weight: 400;
						font-size: 16px;
						font-style: normal;
						fill: #e8e8e8;
						stroke: none;
					"
				>
					I'm a Front-end Developer with
				</text>
				<text
					transform="matrix(1,0,0,1,565,404.61)"
					style="
						font-family: monospace;
						font-weight: 400;
						font-size: 16px;
						font-style: normal;
						fill: #e8e8e8;
						stroke: none;
					"
				>
					experience in Angular, React and
				</text>
				<text
					transform="matrix(1,0,0,1,565,428.047)"
					style="
						font-family: monospace;
						font-weight: 400;
						font-size: 16px;
						font-style: normal;
						fill: #e8e8e8;
						stroke: none;
					"
				>
					Svelte.
				</text>
			</g>
			<defs>
				<clipPath id="_clipPath_cd6GMJ8GaVQpHZEklPJY27QnsFp6XqOK">
					<rect
						x="0"
						y="0"
						width="338.571"
						height="73"
						transform="matrix(1,0,0,1,565,362.618)"
					/>
				</clipPath>
			</defs>
		</g>
		<g class="dialog-2">
			<path
				d=" M 543.742 442.16 Q 540.567 442.285 541.068 440.155 Q 543.927 437.077 545.078 434.139 C 546.23 431.202 546.301 394.748 547.084 383.011 Q 547.084 376.327 555.104 375.993 L 902.98 375.993 Q 910.666 376.661 911 383.011 Q 911 394.748 911 434.139 Q 909.329 441.157 902.98 442.16 C 809.39 442.16 689.644 442.16 543.742 442.16 Z "
				fill="rgb(57,56,56)"
			/>
			<g clip-path="url(#_clipPath_ESlM0h8RX5VXCFQgA5t80sqGiBmZNFpN)">
				<text
					transform="matrix(1,0,0,1,561.068,404.114)"
					style="
						font-family: monospace;
						font-weight: 400;
						font-size: 16px;
						font-style: normal;
						fill: #e8e8e8;
						stroke: none;
					"
				>
					I'm born and raised in Argentina 🇦🇷
				</text>
				<text
					transform="matrix(1,0,0,1,561.068,427.551)"
					style="
						font-family: monospace;
						font-weight: 400;
						font-size: 16px;
						font-style: normal;
						fill: #e8e8e8;
						stroke: none;
					"
				>
					now living in Chicago, Illinois 🇺🇸
				</text>
			</g>
			<defs>
				<clipPath id="_clipPath_ESlM0h8RX5VXCFQgA5t80sqGiBmZNFpN">
					<rect
						x="0"
						y="0"
						width="341"
						height="46.875"
						transform="matrix(1,0,0,1,561.068,385.559)"
					/>
				</clipPath>
			</defs>
		</g>
		<g class="dialog-1">
			<path
				d=" M 543.297 442.993 Q 540.637 443.118 541.057 440.993 Q 543.452 437.923 544.417 434.993 C 545.382 432.063 545.441 416.701 546.097 404.993 Q 546.097 398.326 552.817 397.993 L 896.28 397.993 Q 902.72 398.66 903 404.993 Q 903 416.701 903 434.993 Q 901.6 441.993 896.28 442.993 C 817.868 442.993 665.54 442.993 543.297 442.993 Z "
				fill="rgb(57,56,56)"
			/>
			<g clip-path="url(#_clipPath_3D2gxkuakMBlARHwnRYqTgx1WEIpF5CZ)">
				<text
					transform="matrix(1,0,0,1,559,427.048)"
					style="
						font-family: monospace;
						font-weight: 400;
						font-size: 16px;
						font-style: normal;
						fill: #e8e8e8;
						stroke: none;
					"
				>
					Hi there 👋 I'm Florencia Gonzalez
				</text>
			</g>
			<defs>
				<clipPath id="_clipPath_3D2gxkuakMBlARHwnRYqTgx1WEIpF5CZ">
					<rect
						x="0"
						y="0"
						width="350"
						height="24.007"
						transform="matrix(1,0,0,1,559,408.493)"
					/>
				</clipPath>
			</defs>
		</g>
	</g>
</svg>
