<svg class="avatar" xmlns="http://www.w3.org/2000/svg"
	xmlns:xlink="http://www.w3.org/1999/xlink" style="isolation:isolate" viewBox="0 0 1024 512" width="1024pt" height="512pt">
	<style>
			.dialog-1 {
				opacity: 0;
				animation: greet 7s both;
			}

			.dialog-2 {
				opacity: 0;
				animation: from 7s both;
			}

			.dialog-3 {
				opacity: 0;
				animation: profession 7s both;
			}

			.dialog-4 {
				opacity: 0;
				animation: pronouns 7s both;
			}

			.dialog-5 {
				opacity: 0;
				animation: contact 7s both;
			}

			.eyelid {
				animation: eye 3s ease-in-out infinite;
				transform-origin: center;
			}
			
			.pupil {
				animation: pupil 15s ease-out infinite;
				transform-origin: center;
			}

			.eyebrow {
				animation: eyebrow 3s ease-in-out infinite;
				transform-origin: center;
			}

			.mouth {
				animation: mouth 15s ease infinite;
				transform-origin: center;
			}

			.dot {
				animation: dot 15s ease infinite;
				transform-origin: center;
			}

			.cheeks:first-child {
				animation: cheeks1 15s ease infinite;
				transform-origin: center;
			}

			.cheeks:nth-child(2), .cheeks:nth-child(3) {
				animation: cheeks2 15s ease infinite;
				transform-origin: center;
			}

			@keyframes greet {
				0% {
					opacity: 0;
					transform: translate(0, 0);
				}
				20% {
					opacity: 1;
					transform: translate(0, 0);
				}
				40% {
					opacity: 1;
					transform: translate(0, -78px);
				}
				60% {
					opacity: 1;
					transform: translate(0, -180px);
				}
				80% {
					opacity: 1;
					transform: translate(0, -234px);
				}
				100%{
					opacity: 1;
					transform: translate(0, -333px);
				}
			}

			@keyframes from {
				0%, 20% {
					opacity: 0;
					transform: translate(0, 0);
				}
				40% {
					opacity: 1;
					transform: translate(0, 0);
				}
				60% {
					opacity: 1;
					transform: translate(0, -100px);
				}
				80%{
					opacity: 1;
					transform: translate(0, -155px);
				}
				100%{
					opacity: 1;
					transform: translate(0, -252px);
				}
			}

			@keyframes profession {
				0%, 40% {
					opacity: 0;
					transform: translate(0, 0);
				}
				60% {
					opacity: 1;
					transform: translate(0, 0);
				}
				80%{
					opacity: 1;
					transform: translate(0, -56px);
				}
				100%{
					opacity: 1;
					transform: translate(0, -155px);
				}
			}

			@keyframes pronouns {
				0%, 60% {
					opacity: 0;
					transform: translate(0, 0);
				}
				80% {
					opacity: 1;
					transform: translate(0, 0);
				}
				100%{
					opacity: 1;
					transform: translate(0, -99px);
				}
			}

			@keyframes contact {
				0%, 80% {
					opacity: 0;
					transform: translate(0, 0);
				}
				100%{
					opacity: 1;
					transform: translate(0, 0);
				}
			}
			
			@keyframes eye {
				5%, 20% {
					transform: scale(1, 1);
					stroke-width: 2px;
				}
				10%, 15% {
					transform: scale(1, 0);
					stroke-width: 20px;
				}
			}

			@keyframes pupil {
				5%, 20% {
					transform: translate(5px, -1px);
				}
				10%, 15% {
					transform: translate(-5px, 1px);
				}
				20%, 100% {
					transform: translate(0, 0);
				}
			}

			@keyframes eyebrow {
				0%, 9% {
					transform: translate(0, 0);
				}
				10%, 15% {
					transform: translate(0, 0.5px);
				}
				16%, 100% {
					transform: translate(0, 0);
				}
			}

			@keyframes mouth {
				0%, 4% {
					transform: scale(1, 1);
				}
				5%, 20% {
					transform-origin: 250px 280px;
					transform: scale(1.1 , 0.95);
				}
				21%, 100% {
					transform: scale(1, 1);
				}
			}

			@keyframes dot {
				0%, 4% {
					transform: translate(0, 0);
				}
				5%, 20% {
					transform: translate(0, -3px);
				}
				21%, 100% {
					transform: translate(0, 0);
				}
			}

			@keyframes cheeks1 {
				0%, 4% {
					transform: translate(0, 0);
				}
				5%, 20% {
					transform: translate(-2px, 0);
				}
				21%, 100% {
					transform: translate(0, 0);
				}
			}
			
			@keyframes cheeks2 {
				0%, 4% {
					transform: translate(0, 0);
				}
				5%, 20% {
					transform: translate(2px, 0);
				}
				21%, 100% {
					transform: translate(0, 0);
				}
			}
	</style>
	<defs>
		<clipPath id="_clipPath_uSaH7GvzYbWeM4qHwkmFMFjBW04XGMZb">
			<rect width="1024" height="512"/>
		</clipPath>
	</defs>
	<g clip-path="url(#_clipPath_uSaH7GvzYbWeM4qHwkmFMFjBW04XGMZb)">
		<g>
			<path d=" M 254.64 311.615 C 266.295 310.394 288.556 318.743 341.017 337.284 L 344.824 318.364 Q 350.143 322.291 354.467 331.166 Q 358.79 340.04 395.831 338.131 Q 411.622 310.545 411.708 265.976 C 411.801 217.616 394.123 205.368 389.745 186.206 C 385.367 167.045 385.367 167.045 377.142 137.51 Q 350.136 71.333 341.728 63.859 Q 334.025 57.011 305.171 53.905 C 303.485 45.99 301.523 41.232 299.343 40.734 C 282.429 36.867 225.589 35.255 209.565 40.734 C 193.54 46.213 184.408 56.385 176 63.859 C 167.592 71.333 142.595 91.374 132 112 C 121.405 132.626 127.413 165.292 119.535 186.206 C 111.658 207.12 97.478 217.616 97.572 265.976 Q 97.658 310.545 113.448 338.131 Q 150.489 340.04 154.813 331.166 Q 159.137 322.291 164.456 318.364 L 168.263 337.284 Q 242.985 312.837 254.64 311.615 Z " fill="rgb(94,64,56)"/>
			<clipPath id="_clipPath_0ncUgiyCvweMKm4M3IrCLbWNX4PV3Q4n">
				<path d=" M 254.64 311.615 C 266.295 310.394 288.556 318.743 341.017 337.284 L 344.824 318.364 Q 350.143 322.291 354.467 331.166 Q 358.79 340.04 395.831 338.131 Q 411.622 310.545 411.708 265.976 C 411.801 217.616 394.123 205.368 389.745 186.206 C 385.367 167.045 385.367 167.045 377.142 137.51 Q 350.136 71.333 341.728 63.859 Q 334.025 57.011 305.171 53.905 C 303.485 45.99 301.523 41.232 299.343 40.734 C 282.429 36.867 225.589 35.255 209.565 40.734 C 193.54 46.213 184.408 56.385 176 63.859 C 167.592 71.333 142.595 91.374 132 112 C 121.405 132.626 127.413 165.292 119.535 186.206 C 111.658 207.12 97.478 217.616 97.572 265.976 Q 97.658 310.545 113.448 338.131 Q 150.489 340.04 154.813 331.166 Q 159.137 322.291 164.456 318.364 L 168.263 337.284 Q 242.985 312.837 254.64 311.615 Z " fill="rgb(94,64,56)"/>
			</clipPath>
			<g clip-path="url(#_clipPath_0ncUgiyCvweMKm4M3IrCLbWNX4PV3Q4n)">
				<path d=" M 368 116 C 378.515 119.396 397.2 204.556 392.368 244.782 C 388.901 273.649 393.604 330.966 395.664 343.681 Q 400.594 374.115 333.239 293.21 Q 357.485 112.604 368 116 Z " fill="rgb(91,60,52)"/>
				<path d=" M 375.031 352.878 Q 403.631 308.507 367.031 128.878 Q 164.125 92.314 159.031 116.878 C 153.936 141.441 117.324 330.371 143.031 348.878 C 168.737 367.385 346.43 397.248 375.031 352.878 Z " fill="rgb(70,47,40)"/>
			</g>
			<path d=" M 208.836 312.883 Q 213.527 340.994 212.66 364.17 C 212.498 368.496 212.191 372.693 211.739 376.761 C 184.931 388.167 153.717 406.045 117.969 430.232 L 254.502 479.157 L 386.941 429.849 Q 342.193 394.249 304.618 376.98 Q 297.513 345.887 299.483 288.414 L 208.836 312.883 Z " fill="rgb(248,222,200)"/>
			<clipPath id="_clipPath_L5YAcCUp1DHINVfQQq7wmfA3p0v9z7ke">
				<path d=" M 208.836 312.883 Q 213.527 340.994 212.66 364.17 C 212.498 368.496 212.191 372.693 211.739 376.761 C 184.931 388.167 153.717 406.045 117.969 430.232 L 254.502 479.157 L 386.941 429.849 Q 342.193 394.249 304.618 376.98 Q 297.513 345.887 299.483 288.414 L 208.836 312.883 Z " fill="rgb(248,222,200)"/>
			</clipPath>
			<g clip-path="url(#_clipPath_L5YAcCUp1DHINVfQQq7wmfA3p0v9z7ke)">
				<path d=" M 396 338.091 L 172.991 454.769 L 132 284 L 352 240 L 396 338.091 Z " fill="rgb(244,206,186)"/>
				<path d=" M 340 338.091 L 211.739 376.761 L 164.555 270.006 L 366.483 256.509 L 340 338.091 Z " fill="rgb(204,152,152)" fill-opacity="0.3" style="mix-blend-mode:multiply;"/>
				<path d=" M 274.316 430.563 L 295.211 418.143 L 344.588 413.679 L 274.316 430.563 Z " fill="rgb(237,186,169)"/>
			</g>
			<g class="clothes">
				<path d=" M 164.781 394.857 Q 203.44 435.682 246.089 441.812 Q 288.737 447.943 337.393 391.93 L 355.132 404.5 L 386.9 425.6 L 379.157 537.415 L 109.791 552 L 100.068 449.907 L 152.951 407.791 L 164.781 394.857 Z " fill="rgb(198,198,198)"/>
				<clipPath id="_clipPath_3UDb786YIDmBDrPXLxu3rlgpXr9c9UGP">
					<path d=" M 164.781 394.857 Q 203.44 435.682 246.089 441.812 Q 288.737 447.943 337.393 391.93 L 355.132 404.5 L 386.9 425.6 L 379.157 537.415 L 109.791 552 L 100.068 449.907 L 152.951 407.791 L 164.781 394.857 Z " fill="rgb(198,198,198)"/>
				</clipPath>
				<g clip-path="url(#_clipPath_3UDb786YIDmBDrPXLxu3rlgpXr9c9UGP)">
					<path d=" M 359.454 384 L 287.454 528 L 367.454 552 L 359.454 384 Z " fill="rgb(185,183,183)"/>
					<path d=" M 143.822 372.122 L 367.454 372.122 Q 335.072 432.331 304.253 445.046 C 273.435 457.761 229.377 456.034 192.438 440.184 Q 155.498 424.334 143.822 372.122 Z " fill="rgb(232,232,232)"/>
					<path d=" M 396 632 L 367.454 624 L 68 608 L 396 632 Z " fill="rgb(185,183,183)"/>
				</g>
				<path d=" M 134.823 411.015 Q 139.035 410.05 154.27 401.292 Q 171.402 443.004 178.577 466.339 Q 185.752 489.674 198.024 552 L 52.177 552 Q 33.538 500.727 37.592 493.661 C 41.647 486.595 49.894 488.25 57.038 488.8 C 49.674 482.663 46.215 474.015 47.315 464.492 C 48.416 454.969 67.592 450.196 76.485 440.184 C 85.377 430.172 89.436 411.763 95.931 411.015 C 102.426 410.267 101.654 416.184 105.654 415.876 Q 109.654 415.569 115.377 406.153 Q 130.611 411.979 134.823 411.015 Z " fill="rgb(57,56,56)"/>
				<clipPath id="_clipPath_agq4QGGLOlFKsHeyp0vrvgUn1V6785SC">
					<path d=" M 134.823 411.015 Q 139.035 410.05 154.27 401.292 Q 171.402 443.004 178.577 466.339 Q 185.752 489.674 198.024 552 L 52.177 552 Q 33.538 500.727 37.592 493.661 C 41.647 486.595 49.894 488.25 57.038 488.8 C 49.674 482.663 46.215 474.015 47.315 464.492 C 48.416 454.969 67.592 450.196 76.485 440.184 C 85.377 430.172 89.436 411.763 95.931 411.015 C 102.426 410.267 101.654 416.184 105.654 415.876 Q 109.654 415.569 115.377 406.153 Q 130.611 411.979 134.823 411.015 Z " fill="rgb(57,56,56)"/>
				</clipPath>
				<g clip-path="url(#_clipPath_agq4QGGLOlFKsHeyp0vrvgUn1V6785SC)">
					<path d=" M 95.931 406.153 Q 139.416 449.041 154.27 483.938 Q 169.123 518.835 207.747 595.754 L 222.331 586.031 L 159.131 386.707 L 95.931 406.153 Z " fill="rgb(46,46,46)"/>
					<path d=" M 149.716 517.415 L 115.685 478.523 L 81.654 449.354 Q 108.427 461.542 120.546 473.661 Q 132.666 485.78 149.716 517.415 Z " fill="rgb(70,70,70)"/>
					<path d=" M 159.131 537.415 L 61.9 479.077 Q 60.536 488.659 61.9 493.661 Q 63.264 498.664 100.792 508.246 L 159.131 537.415 Z " fill="rgb(47,47,47)"/>
				</g>
				<path d=" M 377.177 411.015 Q 372.965 410.05 357.73 401.292 Q 340.598 443.004 333.423 466.339 Q 326.248 489.674 313.976 552 L 459.823 552 Q 478.462 500.727 474.408 493.661 C 470.353 486.595 462.106 488.25 454.962 488.8 C 462.326 482.663 465.785 474.015 464.685 464.492 C 463.584 454.969 444.408 450.196 435.515 440.184 C 426.623 430.172 422.564 411.763 416.069 411.015 C 409.574 410.267 410.346 416.184 406.346 415.876 Q 402.346 415.569 396.623 406.153 Q 381.389 411.979 377.177 411.015 Z " fill="rgb(57,56,56)"/>
				<clipPath id="_clipPath_OYDqCOU4kVc43cCoVbi2ryfCUva4uafB">
					<path d=" M 377.177 411.015 Q 372.965 410.05 357.73 401.292 Q 340.598 443.004 333.423 466.339 Q 326.248 489.674 313.976 552 L 459.823 552 Q 478.462 500.727 474.408 493.661 C 470.353 486.595 462.106 488.25 454.962 488.8 C 462.326 482.663 465.785 474.015 464.685 464.492 C 463.584 454.969 444.408 450.196 435.515 440.184 C 426.623 430.172 422.564 411.763 416.069 411.015 C 409.574 410.267 410.346 416.184 406.346 415.876 Q 402.346 415.569 396.623 406.153 Q 381.389 411.979 377.177 411.015 Z " fill="rgb(57,56,56)"/>
				</clipPath>
				<g clip-path="url(#_clipPath_OYDqCOU4kVc43cCoVbi2ryfCUva4uafB)">
					<path d=" M 416.069 406.153 Q 372.584 449.041 357.73 483.938 Q 342.877 518.835 304.253 595.754 L 289.669 586.031 L 352.869 386.707 L 416.069 406.153 Z " fill="rgb(46,46,46)"/>
					<path d=" M 338.284 537.415 L 372.315 498.523 L 406.346 469.354 Q 379.573 481.542 367.454 493.661 Q 355.334 505.78 338.284 537.415 Z " fill="rgb(47,47,47)"/>
					<path d=" M 352.869 537.415 L 450.1 479.077 Q 450.705 491.443 450.1 493.661 C 449.495 495.879 438.795 499.834 432.293 502.34 Q 425.103 505.111 411.208 508.246 L 352.869 537.415 Z " fill="rgb(70,70,70)"/>
				</g>
			</g>
			<path d=" M 281.884 488.934 L 283.492 488.934 Q 284.085 486.325 286.371 484.979 Q 288.658 483.633 292.129 483.717 L 291.283 494.991 Q 290.182 499.787 289.42 501.47 Q 288.658 503.152 285.694 509.378 Q 284.763 513.165 287.049 514.427 Q 289.335 515.689 291.113 515.1 Q 295.008 512.66 295.686 510.052 C 296.363 507.443 297.633 501.133 297.887 498.273 Q 298.141 495.412 298.988 483.801 L 307.371 483.885 L 305.931 496.842 Q 305.593 504.919 306.016 507.191 C 306.439 509.463 308.048 513.922 309.996 514.427 C 311.943 514.931 315.161 515.689 317.278 514.595 C 319.395 513.501 320.496 512.071 321.342 509.463 Q 322.189 506.854 322.613 500.881 L 320.919 501.049 Q 320.75 508.453 315.584 507.696 Q 310.419 506.939 313.214 490.869 L 313.976 483.885 L 322.782 483.801 L 322.867 475.472 L 294.754 475.304 Q 290.012 475.472 287.896 477.407 C 285.779 479.342 284.847 481.193 283.662 483.801 Q 282.476 486.409 281.884 488.934 Z " fill="rgb(255,153,0)"/>
			<clipPath id="_clipPath_YYqUGBDDaoNy9kIDEfmMC92CuQb3pnxj">
				<path d=" M 281.884 488.934 L 283.492 488.934 Q 284.085 486.325 286.371 484.979 Q 288.658 483.633 292.129 483.717 L 291.283 494.991 Q 290.182 499.787 289.42 501.47 Q 288.658 503.152 285.694 509.378 Q 284.763 513.165 287.049 514.427 Q 289.335 515.689 291.113 515.1 Q 295.008 512.66 295.686 510.052 C 296.363 507.443 297.633 501.133 297.887 498.273 Q 298.141 495.412 298.988 483.801 L 307.371 483.885 L 305.931 496.842 Q 305.593 504.919 306.016 507.191 C 306.439 509.463 308.048 513.922 309.996 514.427 C 311.943 514.931 315.161 515.689 317.278 514.595 C 319.395 513.501 320.496 512.071 321.342 509.463 Q 322.189 506.854 322.613 500.881 L 320.919 501.049 Q 320.75 508.453 315.584 507.696 Q 310.419 506.939 313.214 490.869 L 313.976 483.885 L 322.782 483.801 L 322.867 475.472 L 294.754 475.304 Q 290.012 475.472 287.896 477.407 C 285.779 479.342 284.847 481.193 283.662 483.801 Q 282.476 486.409 281.884 488.934 Z " fill="rgb(255,153,0)"/>
			</clipPath>
			<g clip-path="url(#_clipPath_YYqUGBDDaoNy9kIDEfmMC92CuQb3pnxj)">
				<path d=" M 323.866 457.311 L 281.884 541.276 L 342.858 538.278 L 323.866 457.311 Z " fill="rgb(208,129,10)"/>
			</g>
			<g>
				<g>
					<path d=" M 336.775 263.249 C 338.292 269.24 357.553 264.121 361.549 262.185 C 365.545 260.25 367.88 252.615 374.172 244.529 C 378.813 238.564 385.383 233.463 386.78 226.964 C 388.176 220.466 384.571 191.169 377.685 190.946 Q 363.88 190.754 356.964 197.527 Q 350.047 204.3 350.16 209.482 Q 335.257 257.258 336.775 263.249 Z " fill="rgb(248,209,187)"/>
					<clipPath id="_clipPath_nLJ9RGFGj6iMR6ceOKccxnjXtr6fLWtv">
						<path d=" M 336.775 263.249 C 338.292 269.24 357.553 264.121 361.549 262.185 C 365.545 260.25 367.88 252.615 374.172 244.529 C 378.813 238.564 385.383 233.463 386.78 226.964 C 388.176 220.466 384.571 191.169 377.685 190.946 Q 363.88 190.754 356.964 197.527 Q 350.047 204.3 350.16 209.482 Q 335.257 257.258 336.775 263.249 Z " fill="rgb(248,209,187)"/>
					</clipPath>
					<g clip-path="url(#_clipPath_nLJ9RGFGj6iMR6ceOKccxnjXtr6fLWtv)">
						<path d=" M 370.125 238.97 Q 382.585 223.424 382.754 221.273 C 382.923 219.122 382.472 217.082 381.653 215.113 C 380.239 211.713 377.728 208.527 375.417 205.354 Q 373.107 202.18 359.941 206.581 L 357.965 222.428 L 370.125 238.97 Z " fill="rgb(218,172,163)"/>
						<path d=" M 357.23 227.098 Q 362.527 234.483 360.52 237.458 C 358.514 240.434 348.524 250.164 348.301 252.552 C 348.079 254.94 367.822 242.853 370.125 238.97 C 372.428 235.088 374.903 224.251 373.178 219.577 Q 371.453 214.903 364.568 211.75 L 359.765 210.994 L 357.23 227.098 Z " fill="rgb(237,186,169)"/>
					</g>
					<path d=" M 359.363 256.698 C 358.803 265.638 356.59 272.786 354.425 272.651 C 353.222 272.575 352.285 270.268 351.786 266.698" fill="none" stroke-width="4" stroke="rgb(66,63,61)" stroke-linejoin="round" stroke-linecap="round" stroke-miterlimit="3"/>
					<path d=" M 378.892 215.806 C 387.758 214.522 394.703 211.736 394.392 209.589 C 394.219 208.396 391.843 207.65 388.244 207.442" fill="none" stroke-width="4" stroke="rgb(89,87,86)" stroke-linejoin="round" stroke-linecap="round" stroke-miterlimit="3"/>
					<path d=" M 342.479 259.088 C 342.904 256.384 345.402 254.527 348.052 254.945 C 350.703 255.362 352.509 257.896 352.083 260.6 C 351.658 263.304 349.16 265.16 346.51 264.743 C 343.859 264.326 342.053 261.792 342.479 259.088 Z " fill="rgb(66,63,61)"/>
				</g>
				<g>
					<path d=" M 177.228 265.521 C 175.148 271.341 156.46 264.416 152.666 262.109 C 148.872 259.803 147.273 251.981 141.778 243.334 C 137.724 236.955 131.668 231.253 130.895 224.651 C 130.122 218.05 136.493 189.228 143.369 189.66 Q 157.13 190.78 163.372 198.179 Q 169.613 205.578 169.009 210.726 Q 179.308 259.701 177.228 265.521 Z " fill="rgb(248,209,187)"/>
					<clipPath id="_clipPath_sztCn13pFRMyOBJwLQTBkQ9WC2YwUose">
						<path d=" M 177.228 265.521 C 175.148 271.341 156.46 264.416 152.666 262.109 C 148.872 259.803 147.273 251.981 141.778 243.334 C 137.724 236.955 131.668 231.253 130.895 224.651 C 130.122 218.05 136.493 189.228 143.369 189.66 Q 157.13 190.78 163.372 198.179 Q 169.613 205.578 169.009 210.726 Q 179.308 259.701 177.228 265.521 Z " fill="rgb(248,209,187)"/>
					</clipPath>
					<g clip-path="url(#_clipPath_sztCn13pFRMyOBJwLQTBkQ9WC2YwUose)">
						<path d=" M 146.334 238.185 Q 135.407 221.525 135.443 219.368 C 135.478 217.211 136.121 215.222 137.124 213.34 C 138.854 210.091 141.657 207.157 144.258 204.217 Q 146.859 201.278 159.304 204.217 L 160.01 222.872 L 146.334 238.185 Z " fill="rgb(218,172,163)"/>
						<path d=" M 160.298 227.59 Q 154.324 234.44 156.039 237.592 C 157.753 240.744 166.775 251.38 166.769 253.778 C 166.763 256.176 148.258 242.268 146.334 238.185 C 144.41 234.102 142.975 223.078 145.136 218.589 Q 147.297 214.1 154.451 211.615 L 159.304 211.319 L 160.298 227.59 Z " fill="rgb(237,186,169)"/>
					</g>
					<path d=" M 142.591 243.604 C 137.299 250.832 135.496 258.525 138.565 260.771 C 140.27 262.019 143.123 261.326 146.229 259.223" fill="none" stroke-width="4" stroke="rgb(59,57,55)" stroke-linejoin="round" stroke-linecap="round" stroke-miterlimit="3"/>
					<path d=" M 153.103 249.153 C 152.801 249.535 152.502 249.926 152.208 250.328 C 146.918 257.555 145.113 265.249 148.182 267.495 C 150.228 268.993 153.927 267.695 157.733 264.521" fill="none" stroke-width="4" stroke="rgb(66,63,61)" stroke-linejoin="round" stroke-linecap="round" stroke-miterlimit="3"/>
				</g>
			</g>
			<path d=" M 158.089 154.004 C 148.037 189.49 165.202 285.426 179.789 303.38 C 194.376 321.334 231.978 351.093 242.312 354.739 C 252.646 358.384 260.164 354.404 267.02 352.732 C 273.876 351.059 310.845 327.867 326.343 305.824 C 341.841 283.78 340.236 279.257 345.908 264.058 C 351.58 248.86 380.621 175.057 361.709 128.855 C 342.798 82.653 318.809 63.841 276.736 60.188 C 234.663 56.536 212.005 72.65 189.569 94.053 C 167.133 115.456 168.142 118.519 158.089 154.004 Z " fill="rgb(248,221,198)"/>
			<clipPath id="_clipPath_GfHGE5rPamZOn1mdOv4gmrt5SbajtGwC">
				<path d=" M 158.089 154.004 C 148.037 189.49 165.202 285.426 179.789 303.38 C 194.376 321.334 231.978 351.093 242.312 354.739 C 252.646 358.384 260.164 354.404 267.02 352.732 C 273.876 351.059 310.845 327.867 326.343 305.824 C 341.841 283.78 340.236 279.257 345.908 264.058 C 351.58 248.86 380.621 175.057 361.709 128.855 C 342.798 82.653 318.809 63.841 276.736 60.188 C 234.663 56.536 212.005 72.65 189.569 94.053 C 167.133 115.456 168.142 118.519 158.089 154.004 Z " fill="rgb(248,221,198)"/>
			</clipPath>
			<g clip-path="url(#_clipPath_GfHGE5rPamZOn1mdOv4gmrt5SbajtGwC)">
				<path class="cheeks" d=" M 154.906 276.664 C 156.697 261.34 172.251 250.547 189.618 252.577 C 206.986 254.607 219.632 268.695 217.841 284.019 C 216.05 299.343 200.496 310.136 183.129 308.107 C 165.761 306.077 153.115 291.988 154.906 276.664 Z " fill="rgb(244,185,176)" fill-opacity="0.5"/>
				<path class="cheeks" d=" M 297.849 287.531 C 294.061 272.576 304.747 256.948 321.698 252.655 C 338.648 248.361 355.485 257.018 359.273 271.974 C 363.061 286.93 352.375 302.558 335.425 306.851 C 318.474 311.144 301.637 302.487 297.849 287.531 Z " fill="rgb(244,185,176)" fill-opacity="0.5"/>
				<path class="cheeks" d=" M 327.92 246.06 C 328.076 244.728 329.284 243.772 330.617 243.928 C 331.949 244.084 332.905 245.292 332.749 246.624 C 332.593 247.957 331.385 248.912 330.052 248.757 C 328.72 248.601 327.764 247.393 327.92 246.06 Z " fill="rgb(237,186,169)"/>
				<path class="dot" d=" M 239.625 289.582 C 239.781 288.25 240.989 287.294 242.321 287.45 C 243.654 287.606 244.609 288.814 244.453 290.147 C 244.298 291.479 243.089 292.434 241.757 292.279 C 240.424 292.123 239.469 290.915 239.625 289.582 Z " fill="rgb(237,186,169)"/>
			</g>
			<g>
				<path d=" M 257.838 225.55 Q 255.366 225.538 252.921 229.55 Q 244.961 269.927 245.556 273.332 Q 246.15 276.737 257.838 284.724 Q 269.494 276.175 270.003 273.332 Q 270.511 270.49 262.756 229.55 Q 260.311 225.562 257.838 225.55 Z " fill="rgb(248,209,187)"/>
				<path d=" M 262.756 276.929 C 264.296 279.551 267.519 280.521 269.947 279.095 C 272.376 277.668 273.097 274.381 271.557 271.759 C 270.701 270.302 269.326 269.355 267.857 269.046" fill="none" stroke-width="0.5" stroke="rgb(185,185,185)" stroke-linejoin="round" stroke-linecap="round" stroke-miterlimit="3"/>
			</g>
			<path class="mouth" d=" M 256 296.231 Q 247.412 296.231 232 300.231 Q 242.886 307.856 256 308.061 Q 269.114 308.266 280 300.231 Q 264.588 296.231 256 296.231 Z " fill="rgb(244,206,186)"/>
			<clipPath class="mouth" id="_clipPath_JX8fiKH0Xb474edhzH4QCrP3N8s60Aq5">
				<path class="mouth" d=" M 256 296.231 Q 247.412 296.231 232 300.231 Q 242.886 307.856 256 308.061 Q 269.114 308.266 280 300.231 Q 264.588 296.231 256 296.231 Z " fill="rgb(244,206,186)"/>
			</clipPath>
			<g class="mouth" clip-path="url(#_clipPath_JX8fiKH0Xb474edhzH4QCrP3N8s60Aq5)">
				<rect class="mouth" x="229.261" y="300" width="53.477" height="9.723" transform="matrix(1,0,0,1,0,0)" fill="rgb(243,197,173)"/>
			</g>
			<g>
				<path d=" M 228.158 215.173 Q 235.352 225.531 234.864 239.037 C 230.364 242.088 223.278 244.424 220.694 245 C 218.11 245.576 209.109 246.401 196.086 242.012 Q 188.902 239.592 180.8 233.433 Q 183.759 220.289 189.007 213.3 C 195.945 204.061 204.699 202.077 207.653 202.118 C 210.607 202.16 223.448 205.417 228.158 215.173 Z " fill="rgb(248,221,198)" fill-opacity="0.75" style="mix-blend-mode:screen;"/>
				<clipPath id="_clipPath_1qZvNmwzPkV6QzG7yH1eDu6EdYNrxpwl">
					<path class="eyelid" d=" M 228.158 215.173 Q 235.352 225.531 234.864 239.037 C 230.364 242.088 223.278 244.424 220.694 245 C 218.11 245.576 209.109 246.401 196.086 242.012 Q 188.902 239.592 180.8 233.433 Q 183.759 220.289 189.007 213.3 C 195.945 204.061 204.699 202.077 207.653 202.118 C 210.607 202.16 223.448 205.417 228.158 215.173 Z " fill="rgb(248,221,198)" fill-opacity="0.75" style="mix-blend-mode:screen;"/>
				</clipPath>
				<g clip-path="url(#_clipPath_1qZvNmwzPkV6QzG7yH1eDu6EdYNrxpwl)">
					<g class="pupil">
						<path d=" M 190.57 224.205 C 190.529 212.159 198.64 202.351 208.673 202.317 C 218.706 202.282 226.884 212.034 226.926 224.08 C 226.967 236.126 218.856 245.934 208.823 245.969 C 198.79 246.003 190.612 236.251 190.57 224.205 Z " fill="rgb(85,102,102)"/>
						<clipPath id="_clipPath_0hos5BazCAMoZGy4nniACZvRfRmiAKAL">
							<path d=" M 190.57 224.205 C 190.529 212.159 198.64 202.351 208.673 202.317 C 218.706 202.282 226.884 212.034 226.926 224.08 C 226.967 236.126 218.856 245.934 208.823 245.969 C 198.79 246.003 190.612 236.251 190.57 224.205 Z " fill="rgb(85,102,102)"/>
						</clipPath>
						<g clip-path="url(#_clipPath_0hos5BazCAMoZGy4nniACZvRfRmiAKAL)">
							<rect x="187.828" y="223.191" width="50.339" height="25.379" transform="matrix(1,-0.003,0.003,1,-0.81,0.734)" fill="rgb(88,162,162)"/>
						</g>
						<path d=" M 199.236 224.175 C 199.214 217.872 203.459 212.739 208.709 212.721 C 213.959 212.703 218.238 217.806 218.26 224.11 C 218.282 230.413 214.037 235.546 208.787 235.564 C 203.537 235.582 199.258 230.479 199.236 224.175 Z " fill="transparent" r="NaN" stroke-width="3" stroke="rgb(255,255,255)" stroke-opacity="0.75" stroke-linejoin="miter" stroke-linecap="square" stroke-miterlimit="3"/>
						<path d=" M 199.236 224.175 C 199.214 217.872 203.459 212.739 208.709 212.721 C 213.959 212.703 218.238 217.806 218.26 224.11 C 218.282 230.413 214.037 235.546 208.787 235.564 C 203.537 235.582 199.258 230.479 199.236 224.175 Z " fill="rgb(66,63,61)"/>
					</g>
				</g>
				<path d=" M 292.256 214.263 Q 284.739 224.389 284.8 237.905 C 289.203 241.096 296.211 243.654 298.776 244.312 C 301.34 244.969 310.311 246.077 323.466 242.101 Q 330.722 239.908 339.014 234.008 Q 336.471 220.777 331.446 213.626 C 324.803 204.173 316.116 201.913 313.162 201.862 C 310.208 201.81 297.271 204.661 292.256 214.263 Z " fill="rgb(248,221,198)" fill-opacity="0.75" style="mix-blend-mode:screen;"/>
				<clipPath id="_clipPath_apV8bugBOf8k706v5ABbBNUo1DDER0Cx">
					<path class="eyelid" d=" M 292.256 214.263 Q 284.739 224.389 284.8 237.905 C 289.203 241.096 296.211 243.654 298.776 244.312 C 301.34 244.969 310.311 246.077 323.466 242.101 Q 330.722 239.908 339.014 234.008 Q 336.471 220.777 331.446 213.626 C 324.803 204.173 316.116 201.913 313.162 201.862 C 310.208 201.81 297.271 204.661 292.256 214.263 Z " fill="rgb(248,221,198)" fill-opacity="0.75" style="mix-blend-mode:screen;"/>
				</clipPath>
				<g clip-path="url(#_clipPath_apV8bugBOf8k706v5ABbBNUo1DDER0Cx)">
					<g class="pupil">
						<path d=" M 329.551 223.858 C 329.562 211.811 321.426 202.024 311.394 202.015 C 301.361 202.005 293.207 211.778 293.195 223.824 C 293.184 235.87 301.32 245.657 311.353 245.667 C 321.385 245.676 329.54 235.904 329.551 223.858 Z " fill="rgb(85,102,102)"/>
						<clipPath id="_clipPath_YFzsVwqUqkhAWNlZn914Yb7zaZEosGuq">
							<path d=" M 329.551 223.858 C 329.562 211.811 321.426 202.024 311.394 202.015 C 301.361 202.005 293.207 211.778 293.195 223.824 C 293.184 235.87 301.32 245.657 311.353 245.667 C 321.385 245.676 329.54 235.904 329.551 223.858 Z " fill="rgb(85,102,102)"/>
						</clipPath>
						<g clip-path="url(#_clipPath_YFzsVwqUqkhAWNlZn914Yb7zaZEosGuq)">
							<rect x="281.984" y="222.9" width="50.339" height="25.379" transform="matrix(1,0.001,-0.001,1,0.22,-0.287)" fill="rgb(88,162,162)"/>
						</g>
						<path d=" M 320.885 223.85 C 320.891 217.546 316.634 212.424 311.384 212.419 C 306.134 212.415 301.867 217.528 301.861 223.832 C 301.855 230.135 306.113 235.257 311.363 235.262 C 316.612 235.267 320.879 230.153 320.885 223.85 Z " fill="transparent" r="NaN" stroke-width="3" stroke="rgb(255,255,255)" stroke-opacity="0.75" stroke-linejoin="miter" stroke-linecap="square" stroke-miterlimit="3"/>
						<path d=" M 320.885 223.85 C 320.891 217.546 316.634 212.424 311.384 212.419 C 306.134 212.415 301.867 217.528 301.861 223.832 C 301.855 230.135 306.113 235.257 311.363 235.262 C 316.612 235.267 320.879 230.153 320.885 223.85 Z " fill="rgb(66,63,61)"/>
					</g>
				</g>
			</g>
			<g class="eyebrow">
				<path d=" M 310.614 188.732 L 278.946 187.478 Q 297.908 176.287 309.611 176.378 Q 321.313 176.469 342.283 189.986 L 310.614 188.732 Z " fill="rgb(94,64,56)"/>
				<path d=" M 206.892 188.785 L 238.524 186.803 Q 219.309 176.052 207.611 176.412 Q 195.914 176.772 175.261 190.767 L 206.892 188.785 Z " fill="rgb(94,64,56)"/>
			</g>
			<g class="glasses">
				<path d=" M 152.226 185.576 C 153.681 192.418 161.628 215.911 160.862 216 Q 159.93 216.109 167.97 208 Q 154.824 186.514 152.341 183.871 C 151.901 183.402 151.913 184.104 152.226 185.576 Z " fill="rgb(66,63,61)"/>
				<clipPath id="_clipPath_1XDFHp4HWZd4vy30tLdXBRV5rhakNzRq">
					<path d=" M 152.226 185.576 C 153.681 192.418 161.628 215.911 160.862 216 Q 159.93 216.109 167.97 208 Q 154.824 186.514 152.341 183.871 C 151.901 183.402 151.913 184.104 152.226 185.576 Z " fill="rgb(66,63,61)"/>
				</clipPath>
				<g clip-path="url(#_clipPath_1XDFHp4HWZd4vy30tLdXBRV5rhakNzRq)">
					<rect x="123.213" y="192.186" width="54.127" height="11.305" transform="matrix(0.421,0.907,-0.79,0.673,243.243,-71.564)" fill="rgb(62,60,59)"/>
				</g>
				<path d=" M 163.774 209.959 Q 195.161 208.352 242.878 212.901 Q 244.846 236.494 239.505 250.59 Q 210.302 256.977 167.97 251.335 Q 162.421 226.376 163.774 209.959 Z " fill="none" stroke-width="6" stroke="rgb(66,63,61)" stroke-linejoin="round" stroke-linecap="round" stroke-miterlimit="3"/>
				<path d=" M 353.606 216 Q 354.515 216.232 349.606 206.903 Q 366.829 187.36 369.642 185.07 C 372.455 182.78 352.697 215.768 353.606 216 Z " fill="rgb(66,63,61)"/>
				<clipPath id="_clipPath_qgBuM5nhwR8QO17w6NlDtbotpFVkGGJD">
					<path d=" M 353.606 216 Q 354.515 216.232 349.606 206.903 Q 366.829 187.36 369.642 185.07 C 372.455 182.78 352.697 215.768 353.606 216 Z " fill="rgb(66,63,61)"/>
				</clipPath>
				<g clip-path="url(#_clipPath_qgBuM5nhwR8QO17w6NlDtbotpFVkGGJD)">
					<rect x="341.034" y="191.178" width="54.127" height="11.305" transform="matrix(0.538,-0.843,0.693,0.772,33.422,355.034)" fill="rgb(62,60,59)"/>
				</g>
				<path d=" M 352.093 207.999 Q 320.68 207.046 273.068 212.587 Q 271.591 236.216 277.225 250.198 Q 306.554 255.975 348.759 249.453 Q 353.788 224.385 352.093 207.999 Z " fill="none" stroke-width="6" stroke="rgb(66,63,61)" stroke-linejoin="round" stroke-linecap="round" stroke-miterlimit="3"/>
				<path d=" M 243.631 221.414 Q 247.074 216.242 258.012 216.509 Q 268.95 216.776 272.801 221.414" fill="none" stroke-width="6" stroke="rgb(66,63,61)" stroke-linejoin="round" stroke-linecap="round" stroke-miterlimit="3"/>
			</g>
			<g>
				<path d=" M 125.23 79.823 C 125.125 72.503 130.982 66.475 138.302 66.37 C 145.621 66.265 151.649 72.122 151.755 79.442 C 151.86 86.761 146.002 92.789 138.683 92.895 C 131.363 93 125.335 87.143 125.23 79.823 Z " fill="rgb(181,150,103)"/>
				<path d=" M 407.334 27.316 L 397.64 17.852 C 389.614 10.017 376.738 10.172 368.903 18.197 L 349.975 37.585 C 342.14 45.611 342.294 58.487 350.32 66.322 L 350.32 66.322 C 358.345 74.157 371.222 74.003 379.057 65.977 L 379.057 65.977 C 386.892 57.952 386.737 45.075 378.712 37.24 L 373.865 32.508 L 378.597 27.661 C 381.208 24.986 385.501 24.935 388.176 27.546 L 397.87 37.01 C 400.545 39.622 404.837 39.57 407.449 36.895 L 407.449 36.895 C 410.06 34.22 410.009 29.928 407.334 27.316 Z  M 359.669 47.049 L 359.669 47.049 C 357.057 49.724 357.109 54.016 359.784 56.628 L 359.784 56.628 C 362.459 59.24 366.751 59.188 369.363 56.513 L 369.363 56.513 C 371.974 53.838 371.923 49.546 369.248 46.934 L 369.248 46.934 C 366.573 44.323 362.28 44.374 359.669 47.049 Z " fill-rule="evenodd" fill="rgb(149,92,7)"/>
				<path d=" M 125.861 116.221 L 125.861 116.221 C 127.556 112.889 126.227 108.807 122.895 107.112 C 119.563 105.417 115.481 106.746 113.786 110.078 L 113.786 110.078 L 107.643 122.153 C 105.948 125.486 101.866 126.815 98.534 125.12 L 98.534 125.12 C 95.202 123.424 93.873 119.343 95.568 116.011 L 101.711 103.935 C 103.406 100.603 102.077 96.522 98.745 94.827 C 95.412 93.131 91.331 94.461 89.636 97.793 L 89.636 97.793 L 83.493 109.868 C 81.798 113.2 77.716 114.529 74.384 112.834 L 74.384 112.834 C 71.052 111.139 69.723 107.057 71.418 103.725 L 77.56 91.65 C 82.646 81.653 94.891 77.666 104.887 82.751 C 109.594 85.146 112.969 89.127 114.475 93.784 C 119.126 92.259 124.331 92.643 129.037 95.037 C 139.034 100.122 143.021 112.367 137.936 122.364 L 137.936 122.364 L 131.793 134.439 C 130.098 137.771 126.017 139.1 122.684 137.405 L 122.684 137.405 C 119.352 135.71 118.023 131.628 119.718 128.296 L 125.861 116.221 Z " fill="rgb(255,153,0)"/>
				<path d=" M 394.179 126.705 L 394.179 126.705 C 395.086 130.332 398.767 132.54 402.394 131.632 C 406.021 130.725 408.229 127.044 407.322 123.417 L 407.322 123.417 L 404.034 110.274 C 403.127 106.648 405.335 102.966 408.961 102.059 L 408.961 102.059 C 412.588 101.152 416.269 103.36 417.177 106.987 L 420.464 120.129 C 421.372 123.756 425.053 125.964 428.68 125.057 C 432.306 124.15 434.514 120.469 433.607 116.842 L 433.607 116.842 L 430.319 103.699 C 429.412 100.072 431.62 96.391 435.247 95.484 L 435.247 95.484 C 438.874 94.576 442.555 96.784 443.462 100.411 L 446.75 113.554 C 449.472 124.434 442.848 135.478 431.967 138.2 C 426.844 139.481 421.685 138.691 417.493 136.165 C 414.984 140.367 410.805 143.494 405.682 144.775 C 394.801 147.497 383.758 140.873 381.036 129.993 L 381.036 129.993 L 377.748 116.85 C 376.841 113.223 379.049 109.542 382.676 108.635 L 382.676 108.635 C 386.303 107.727 389.984 109.935 390.891 113.562 L 394.179 126.705 Z " fill="rgb(255,153,0)"/>
				<path d=" M 115.913 30.836 L 153.419 69.951 C 156.006 72.65 160.298 72.74 162.996 70.152 L 162.996 70.152 C 165.695 67.565 165.785 63.273 163.197 60.575 L 125.692 21.46 C 123.104 18.761 118.813 18.671 116.114 21.259 L 116.114 21.259 C 113.416 23.846 113.325 28.138 115.913 30.836 Z " fill="rgb(221,166,84)"/>
				<path d=" M 192.243 -9.432 L 206.684 42.799 C 207.681 46.402 211.415 48.519 215.018 47.523 L 215.018 47.523 C 218.622 46.526 220.739 42.792 219.742 39.189 L 205.301 -13.043 C 204.305 -16.646 200.571 -18.763 196.967 -17.767 L 196.967 -17.767 C 193.364 -16.77 191.247 -13.036 192.243 -9.432 Z " fill="rgb(149,121,80)"/>
				<path d=" M 258.996 -21.507 L 231.904 -21.118 C 228.165 -21.064 225.174 -17.986 225.228 -14.247 L 225.617 12.845 C 225.671 16.584 228.749 19.575 232.488 19.521 L 246.034 19.327 C 249.772 19.273 252.851 22.264 252.904 26.002 L 252.904 26.002 C 252.958 29.741 249.967 32.819 246.229 32.873 L 232.682 33.068 C 228.944 33.121 225.953 36.2 226.006 39.938 L 226.006 39.938 C 226.06 43.676 229.139 46.668 232.877 46.614 L 246.423 46.419 C 257.638 46.258 266.612 37.022 266.451 25.808 L 266.451 25.808 C 266.29 14.593 257.054 5.619 245.839 5.78 L 239.066 5.878 L 238.871 -7.669 L 259.191 -7.961 C 262.929 -8.014 265.921 -11.093 265.867 -14.831 L 265.867 -14.831 C 265.813 -18.569 262.735 -21.561 258.996 -21.507 Z " fill="rgb(191,129,36)"/>
				<path d=" M 437.629 72.505 L 423.871 49.162 C 421.973 45.941 417.817 44.867 414.596 46.765 L 391.253 60.522 C 388.032 62.42 386.958 66.576 388.857 69.797 L 395.735 81.469 C 397.633 84.69 396.559 88.846 393.338 90.744 L 393.338 90.744 C 390.118 92.642 385.962 91.568 384.063 88.347 L 377.185 76.676 C 375.287 73.455 371.131 72.381 367.91 74.279 L 367.91 74.279 C 364.689 76.177 363.615 80.333 365.513 83.554 L 372.392 95.226 C 378.086 104.888 390.554 108.11 400.217 102.416 L 400.217 102.416 C 409.88 96.721 413.101 84.253 407.407 74.59 L 403.967 68.754 L 415.639 61.876 L 425.957 79.383 C 427.855 82.604 432.011 83.678 435.232 81.78 L 435.232 81.78 C 438.453 79.882 439.527 75.726 437.629 72.505 Z " fill="rgb(166,114,36)"/>
				<path d=" M 332.484 -21.656 L 345.322 -17.326 C 355.949 -13.741 361.667 -2.202 358.082 8.425 L 358.082 8.425 C 354.498 19.053 342.959 24.771 332.332 21.186 L 332.332 21.186 C 328.789 19.991 324.943 21.897 323.748 25.44 L 323.748 25.44 C 322.553 28.982 324.459 32.828 328.002 34.023 L 340.839 38.353 C 344.381 39.548 346.287 43.394 345.093 46.937 L 345.093 46.937 C 343.898 50.479 340.052 52.385 336.509 51.19 L 323.672 46.86 C 313.044 43.276 307.326 31.737 310.911 21.11 L 310.911 21.11 C 314.496 10.482 326.034 4.764 336.662 8.349 L 336.662 8.349 C 340.204 9.544 344.05 7.638 345.245 4.095 L 345.245 4.095 C 346.44 0.553 344.534 -3.294 340.992 -4.488 L 328.154 -8.818 C 324.612 -10.013 322.706 -13.859 323.901 -17.402 L 323.901 -17.402 C 325.096 -20.944 328.942 -22.85 332.484 -21.656 Z " fill="rgb(202,122,2)"/>
				<path d=" M 136.921 20.419 L 144.265 31.804 C 150.345 41.229 162.933 43.945 172.358 37.865 L 178.05 34.193 L 189.066 51.27 C 191.093 54.411 195.289 55.317 198.43 53.29 L 198.43 53.29 C 201.572 51.263 202.477 47.067 200.451 43.926 L 171.075 -1.612 C 169.048 -4.754 164.852 -5.659 161.71 -3.633 L 161.71 -3.633 C 158.569 -1.606 157.664 2.59 159.69 5.732 L 167.034 17.116 C 169.061 20.258 168.156 24.454 165.014 26.48 L 165.014 26.48 C 161.872 28.507 157.676 27.602 155.65 24.46 L 148.306 13.076 C 146.279 9.934 142.083 9.029 138.941 11.055 L 138.941 11.055 C 135.8 13.082 134.895 17.278 136.921 20.419 Z " fill="rgb(140,94,24)"/>
				<path d=" M 299.844 40.772 L 310.768 1.624 C 313.783 -9.179 307.46 -20.397 296.657 -23.412 L 296.657 -23.412 C 285.854 -26.427 274.636 -20.104 271.621 -9.301 L 271.621 -9.301 C 268.606 1.502 274.929 12.721 285.732 15.736 L 292.257 17.556 L 286.794 37.13 C 285.789 40.731 287.897 44.47 291.498 45.475 L 291.498 45.475 C 295.099 46.48 298.839 44.373 299.844 40.772 Z  M 284.67 -5.659 L 284.67 -5.659 C 283.665 -2.058 285.773 1.681 289.374 2.686 L 289.374 2.686 C 292.975 3.691 296.714 1.584 297.719 -2.017 L 297.719 -2.017 C 298.724 -5.618 296.616 -9.358 293.015 -10.363 L 293.015 -10.363 C 289.414 -11.368 285.675 -9.26 284.67 -5.659 Z " fill-rule="evenodd" fill="rgb(200,152,81)"/>
				<path d=" M 144.725 91.286 C 140.666 99.364 137.663 108.288 135.716 118.056 Q 131.871 137.353 132.26 201.442 Q 142.108 80.497 237.661 68.368 C 300.569 60.383 354.289 92.801 377.437 189.281 Q 377.875 191.106 379.188 191.469 Q 387.515 127.661 373.176 96.041 C 350.544 46.132 294.957 29.236 238.068 34.591 C 186.487 39.446 161.258 58.38 144.725 91.286 Z " fill="rgb(255,153,0)"/>
			</g>
			<g class="front-hair">
				<path d=" M 316 48 Q 267.799 19.815 240 20 C 212.201 20.185 195.276 29.515 180 48 C 164.724 66.485 155.159 100.342 144 117.668 Q 132.841 134.994 132 200 L 316 48 Z " fill="rgb(94,64,56)"/>
				<path d=" M 316 108 Q 335.522 150.24 343.412 176.329 Q 351.301 202.417 343.412 252 Q 363.365 229.339 372.315 211.691 C 381.265 194.043 380.356 173.012 378.091 151.871 C 375.826 130.73 371.816 79.134 343.412 64 Q 315.008 48.866 316 108 Z " fill="rgb(94,64,56)"/>
				<path d=" M 316 108 Q 299.409 99.54 289.292 100.205 Q 279.175 100.87 254.282 117.668 Q 262.384 79.872 271.829 65.195 C 281.274 50.518 302.173 18.473 320 20.094 C 322.9 20.137 332.344 24.475 336 28 C 339.656 31.525 348.656 43.6 348 54.975 C 347.37 65.888 341.075 71.503 332.537 80.691 Q 324 89.878 316 108 Z " fill="rgb(91,60,52)"/>
				<clipPath id="_clipPath_XSPPVdX3kR4SfWIPxHh8iTcopfpH2BQY">
					<path d=" M 316 108 Q 299.409 99.54 289.292 100.205 Q 279.175 100.87 254.282 117.668 Q 262.384 79.872 271.829 65.195 C 281.274 50.518 302.173 18.473 320 20.094 C 322.9 20.137 332.344 24.475 336 28 C 339.656 31.525 348.656 43.6 348 54.975 C 347.37 65.888 341.075 71.503 332.537 80.691 Q 324 89.878 316 108 Z " fill="rgb(91,60,52)"/>
				</clipPath>
				<g class="shadow-bangs" clip-path="url(#_clipPath_XSPPVdX3kR4SfWIPxHh8iTcopfpH2BQY)">
					<path d=" M 316 108 Q 300.87 107.417 292 108 Q 283.13 108.583 260.289 114.351 Q 266.353 82.828 275.672 68.346 C 284.992 53.864 304.881 23.177 323.533 29.591 C 342.185 36.006 344.98 46.328 342.454 59.387 C 340.4 70 323.485 83.945 316 92 Q 308.515 100.055 316 108 Z " fill="rgb(70,47,40)"/>
					<clipPath id="_clipPath_Z9tokDBMG9uPZLJC63KK82rNUr3YO9Bz">
						<path d=" M 316 108 Q 300.87 107.417 292 108 Q 283.13 108.583 260.289 114.351 Q 266.353 82.828 275.672 68.346 C 284.992 53.864 304.881 23.177 323.533 29.591 C 342.185 36.006 344.98 46.328 342.454 59.387 C 340.4 70 323.485 83.945 316 92 Q 308.515 100.055 316 108 Z " fill="rgb(70,47,40)"/>
					</clipPath>
					<g clip-path="url(#_clipPath_Z9tokDBMG9uPZLJC63KK82rNUr3YO9Bz)">
						<path d=" M 248 132 C 251.094 121.762 292.989 87.36 304 64 Q 315.011 40.64 320 20.094 Q 256.839 52.335 248 88 C 239.161 123.665 244.906 142.238 248 132 Z " fill="rgb(62,41,35)"/>
					</g>
				</g>
				<path d=" M 320 20.094 C 307.793 19.126 289.097 14.903 268 20.094 C 246.903 25.285 225.194 33.597 212 50.975 C 198.806 68.354 197.786 102.2 168 120 C 138.214 137.8 121.689 194.02 118.802 219.904 C 115.915 245.789 116.101 271.032 132.601 292.226 Q 149.1 313.42 153.763 323.999 Q 131.597 264.626 142.564 230.823 C 153.532 197.019 164.344 202.672 185.129 188.354 C 205.914 174.036 223.284 177.97 237.651 162.651 C 252.018 147.332 257.267 107.841 268 92 C 278.733 76.159 302.916 58.885 320 20.094 Z " fill="rgb(91,60,52)"/>
			</g>
		</g>
		<g class="dialog-5">
			<path d=" M 543.54 442.992 Q 540.599 443.14 541.063 440.62 Q 543.711 436.979 544.778 433.505 C 545.844 430.03 545.91 377.421 546.635 363.537 Q 546.635 355.631 554.064 355.235 L 903.571 355.235 Q 910.69 356.026 911 363.537 Q 911 377.421 911 433.505 Q 909.452 441.806 903.571 442.992 C 816.881 442.992 678.687 442.992 543.54 442.992 Z " fill="rgb(57,56,56)"/>
			<g clip-path="url(#_clipPath_cd6GMJ8GaVQpHZEklPJY27QnsFp6XqOK)">
				<text transform="matrix(1,0,0,1,565,381.172)" style="font-family:monospace;font-weight:400;font-size:16px;font-style:normal;fill:#e8e8e8;stroke:none;">If you want to know more about me </text>
				<text transform="matrix(1,0,0,1,565,404.61)" style="font-family:monospace;font-weight:400;font-size:16px;font-style:normal;fill:#e8e8e8;stroke:none;">you can reach me out on </text>
				<text transform="matrix(1,0,0,1,565,428.047)" style="font-family:monospace;font-weight:400;font-size:16px;font-style:normal;fill:#e8e8e8;stroke:none;">🔗 rightonhana.dev</text>
			</g>
			<defs>
				<clipPath id="_clipPath_cd6GMJ8GaVQpHZEklPJY27QnsFp6XqOK">
					<rect x="0" y="0" width="338.571" height="73" transform="matrix(1,0,0,1,565,362.618)"/>
				</clipPath>
			</defs>
		</g>
		<g class="dialog-4">
			<path d=" M 543.142 442.993 Q 540.662 443.118 541.053 440.993 Q 543.286 437.923 544.186 434.993 C 545.085 432.063 545.141 416.701 545.752 404.993 Q 545.752 398.326 552.016 397.993 L 823.736 397.993 Q 829.739 398.66 830 404.993 Q 830 416.701 830 434.993 Q 828.695 441.993 823.736 442.993 C 750.635 442.993 657.103 442.993 543.142 442.993 Z " fill="rgb(57,56,56)"/>
			<g clip-path="url(#_clipPath_Ms0lecwxuJ44rVCTRwPcoZdoHehpvDLq)">
				<text transform="matrix(1,0,0,1,559.408,426.799)" style="font-family:monospace;font-weight:400;font-size:16px;font-style:normal;fill:#e8e8e8;stroke:none;">My pronouns are She/Her 👩‍💻</text>
			</g>
			<defs>
				<clipPath id="_clipPath_Ms0lecwxuJ44rVCTRwPcoZdoHehpvDLq">
					<rect x="0" y="0" width="258.183" height="24.503" transform="matrix(1,0,0,1,559.408,408.245)"/>
				</clipPath>
			</defs>
		</g>
		<g class="dialog-3">
			<path d=" M 543.54 442.992 Q 540.599 443.14 541.063 440.62 Q 543.711 436.979 544.778 433.505 C 545.844 430.03 545.91 377.421 546.635 363.537 Q 546.635 355.631 554.064 355.235 L 903.571 355.235 Q 910.69 356.026 911 363.537 Q 911 377.421 911 433.505 Q 909.452 441.806 903.571 442.992 C 816.881 442.992 678.687 442.992 543.54 442.992 Z " fill="rgb(57,56,56)"/>
			<g clip-path="url(#_clipPath_cd6GMJ8GaVQpHZEklPJY27QnsFp6XqOK)">
				<text transform="matrix(1,0,0,1,565,381.172)" style="font-family:monospace;font-weight:400;font-size:16px;font-style:normal;fill:#e8e8e8;stroke:none;">I'm a Front-end Developer with </text>
				<text transform="matrix(1,0,0,1,565,404.61)" style="font-family:monospace;font-weight:400;font-size:16px;font-style:normal;fill:#e8e8e8;stroke:none;">experience in Angular, React and </text>
				<text transform="matrix(1,0,0,1,565,428.047)" style="font-family:monospace;font-weight:400;font-size:16px;font-style:normal;fill:#e8e8e8;stroke:none;">Svelte.</text>
			</g>
			<defs>
				<clipPath id="_clipPath_cd6GMJ8GaVQpHZEklPJY27QnsFp6XqOK">
					<rect x="0" y="0" width="338.571" height="73" transform="matrix(1,0,0,1,565,362.618)"/>
				</clipPath>
			</defs>
		</g>
		<g class="dialog-2">
			<path d=" M 543.742 442.16 Q 540.567 442.285 541.068 440.155 Q 543.927 437.077 545.078 434.139 C 546.23 431.202 546.301 394.748 547.084 383.011 Q 547.084 376.327 555.104 375.993 L 902.98 375.993 Q 910.666 376.661 911 383.011 Q 911 394.748 911 434.139 Q 909.329 441.157 902.98 442.16 C 809.39 442.16 689.644 442.16 543.742 442.16 Z " fill="rgb(57,56,56)"/>
			<g clip-path="url(#_clipPath_ESlM0h8RX5VXCFQgA5t80sqGiBmZNFpN)">
				<text transform="matrix(1,0,0,1,561.068,404.114)" style="font-family:monospace;font-weight:400;font-size:16px;font-style:normal;fill:#e8e8e8;stroke:none;">I'm from Argentina 🇦🇷 but currently </text>
				<text transform="matrix(1,0,0,1,561.068,427.551)" style="font-family:monospace;font-weight:400;font-size:16px;font-style:normal;fill:#e8e8e8;stroke:none;">I'm living in the United States 🇺🇸</text>
			</g>
			<defs>
				<clipPath id="_clipPath_ESlM0h8RX5VXCFQgA5t80sqGiBmZNFpN">
					<rect x="0" y="0" width="341" height="46.875" transform="matrix(1,0,0,1,561.068,385.559)"/>
				</clipPath>
			</defs>
		</g>
		<g class="dialog-1">
			<path d=" M 543.297 442.993 Q 540.637 443.118 541.057 440.993 Q 543.452 437.923 544.417 434.993 C 545.382 432.063 545.441 416.701 546.097 404.993 Q 546.097 398.326 552.817 397.993 L 896.28 397.993 Q 902.72 398.66 903 404.993 Q 903 416.701 903 434.993 Q 901.6 441.993 896.28 442.993 C 817.868 442.993 665.54 442.993 543.297 442.993 Z " fill="rgb(57,56,56)"/>
			<g clip-path="url(#_clipPath_3D2gxkuakMBlARHwnRYqTgx1WEIpF5CZ)">
				<text transform="matrix(1,0,0,1,559,427.048)" style="font-family:monospace;font-weight:400;font-size:16px;font-style:normal;fill:#e8e8e8;stroke:none;">Hi there 👋 I'm Florencia Gonzalez</text>
			</g>
			<defs>
				<clipPath id="_clipPath_3D2gxkuakMBlARHwnRYqTgx1WEIpF5CZ">
					<rect x="0" y="0" width="350" height="24.007" transform="matrix(1,0,0,1,559,408.493)"/>
				</clipPath>
			</defs>
		</g>
	</g>
</svg>