<svg class="avatar"
	xmlns="http://www.w3.org/2000/svg"
	xmlns:xlink="http://www.w3.org/1999/xlink" style="isolation: isolate" viewBox="0 0 1024 512" width="1024pt" height="512pt">
	<style>
		.dialog-1 {
			opacity: 0;
			animation: greet 7s both;
		}

		.dialog-2 {
			opacity: 0;
			animation: from 7s both;
		}

		.dialog-3 {
			opacity: 0;
			animation: profession 7s both;
		}

		.dialog-4 {
			opacity: 0;
			animation: pronouns 7s both;
		}

		.dialog-5 {
			opacity: 0;
			animation: contact 7s both;
		}

		.eyelid {
			animation: eye 3s ease-in-out infinite;
			transform-origin: center;
		}

		.pupil {
			animation: pupil 15s ease-out infinite;
			transform-origin: center;
		}

		.eyebrow {
			animation: eyebrow 3s ease-in-out infinite;
			transform-origin: center;
		}

		.breath {
			animation: 2s ease-in-out infinite both breath;
		}

		.open-mouth {
			opacity: 0;
			animation: 0.3s step-start 0s 22 talk;
		}

		@keyframes greet {
			0% {
				opacity: 0;
				transform: translate(0, 0);
			}
			20% {
				opacity: 1;
				transform: translate(0, 0);
			}
			40% {
				opacity: 1;
				transform: translate(0, -78px);
			}
			60% {
				opacity: 1;
				transform: translate(0, -180px);
			}
			80% {
				opacity: 1;
				transform: translate(0, -234px);
			}
			100% {
				opacity: 1;
				transform: translate(0, -333px);
			}
		}

		@keyframes from {
			0%,
			20% {
				opacity: 0;
				transform: translate(0, 0);
			}
			40% {
				opacity: 1;
				transform: translate(0, 0);
			}
			60% {
				opacity: 1;
				transform: translate(0, -100px);
			}
			80% {
				opacity: 1;
				transform: translate(0, -155px);
			}
			100% {
				opacity: 1;
				transform: translate(0, -252px);
			}
		}

		@keyframes profession {
			0%,
			40% {
				opacity: 0;
				transform: translate(0, 0);
			}
			60% {
				opacity: 1;
				transform: translate(0, 0);
			}
			80% {
				opacity: 1;
				transform: translate(0, -56px);
			}
			100% {
				opacity: 1;
				transform: translate(0, -155px);
			}
		}

		@keyframes pronouns {
			0%,
			60% {
				opacity: 0;
				transform: translate(0, 0);
			}
			80% {
				opacity: 1;
				transform: translate(0, 0);
			}
			100% {
				opacity: 1;
				transform: translate(0, -99px);
			}
		}

		@keyframes contact {
			0%,
			80% {
				opacity: 0;
				transform: translate(0, 0);
			}
			100% {
				opacity: 1;
				transform: translate(0, 0);
			}
		}

		@keyframes eye {
			5%,
			20% {
				transform: scale(1, 1);
				stroke-width: 2px;
			}
			10%,
			15% {
				transform: scale(1, 0);
				stroke-width: 20px;
			}
		}

		@keyframes pupil {
			5%,
			20% {
				transform: translate(5px, -1px);
			}
			10%,
			15% {
				transform: translate(-5px, 1px);
			}
			20%,
			100% {
				transform: translate(0, 0);
			}
		}

		@keyframes eyebrow {
			0%,
			9% {
				transform: translate(0, 0);
			}
			10%,
			15% {
				transform: translate(0, 0.5px);
			}
			16%,
			100% {
				transform: translate(0, 0);
			}
		}

		@keyframes talk {
			50% {
				opacity: 1;
			}
		}

		@keyframes breath {
			from,
			to {
				transform: translateY(calc(var(--z, 1) * 2px));
			}
			50% {
				transform: translateY(0);
			}
		}
	</style>
	<defs>
		<clipPath id="a">
			<rect width="1024" height="512" />
		</clipPath>
	</defs>
	<g clip-path="url(#a)">
		<g>
			<g>
				<g>
					<g>
						<path fill="#587034" d="M60.2 294.8s1.2 18.5 2.5 25.8c1.3 6.5 6.8 14.7 5.5 20.9-1.7 8-15.6 27.1-15.6 27.1l-18.3-11.5s-2.8-20-2.5-30c.3-11 12-14.4 17.9-21.7 5.8-7.3 9.2-11.1 10.5-10.6Z"/>
						<clipPath id="b">
							<path d="M60.2 294.8s1.2 18.5 2.5 25.8c1.3 6.5 6.8 14.7 5.5 20.9-1.7 8-15.6 27.1-15.6 27.1l-18.3-11.5s-2.8-20-2.5-30c.3-11 12-14.4 17.9-21.7 5.8-7.3 9.2-11.1 10.5-10.6Z"/>
						</clipPath>
						<g clip-path="url(#b)">
							<path fill="#788d52" d="M49.5 301.7s-4.1 9.6-3.6 13.8c.4 4.2 6.2 7.7 6.5 11.5.2 3.8-5.3 7-5.2 11.1.2 5.4 6.2 21 6.2 21l-29.9-23.6 7.8-19 18.2-14.8Z"/>
						</g>
						<path fill="#587034" d="M135.7 333.6s-18.6.5-26-.3c-6.5-.6-15.2-5.5-21.2-3.6-7.8 2.3-25.8 17.8-25.8 17.8l13 17.2s20.1 1.2 30.1 0c11-1.2 13.4-13.2 20.2-19.7 6.7-6.4 10.3-10 9.7-11.4Z"/>
						<clipPath id="c">
							<path d="M135.7 333.6s-18.6.5-26-.3c-6.5-.6-15.2-5.5-21.2-3.6-7.8 2.3-25.8 17.8-25.8 17.8l13 17.2s20.1 1.2 30.1 0c11-1.2 13.4-13.2 20.2-19.7 6.7-6.4 10.3-10 9.7-11.4Z"/>
						</clipPath>
						<g clip-path="url(#c)">
							<path fill="#788d52" d="M129.7 345s-9.2 4.8-13.4 4.7c-4.3-.1-8.3-5.6-12-5.5-3.8.1-6.6 5.8-10.7 6-5.4.3-21.5-4.3-21.5-4.3l26 27.8 18.3-9.4 13.3-19.4Z"/>
						</g>
						<path fill="#587034" d="M54 472s-5.2-18-8.2-24.7c-2.6-6-9.8-12.8-10-19.2 0-8.1 9.2-29.9 9.2-29.9l20.4 7.1s7.2 18.8 9.2 28.7c2.1 10.7-8.6 16.8-12.7 25.2-4 8.4-6.4 12.8-7.9 12.7Z"/>
						<clipPath id="d">
							<path d="M54 472s-5.2-18-8.2-24.7c-2.6-6-9.8-12.8-10-19.2 0-8.1 9.2-29.9 9.2-29.9l20.4 7.1s7.2 18.8 9.2 28.7c2.1 10.7-8.6 16.8-12.7 25.2-4 8.4-6.4 12.8-7.9 12.7Z"/>
						</clipPath>
						<g clip-path="url(#d)">
							<path fill="#788d52" d="M63 462.8s1.8-10.3.4-14.3-7.8-6.1-8.9-9.8c-1-3.6 3.6-8 2.5-12-1.3-5.2-10.6-19-10.6-19L80.8 424l-3.4 20.2L63 462.8Z"/>
						</g>
						<path fill="#587034" d="M145 404.6s-14.6-11.6-19.8-16.9c-4.6-4.7-8.1-14-14-16.4-7.5-3.2-31.1-2.9-31.1-2.9l-8.4 32.8s22 2.6 30.4 8.1c9.1 6 18.7-1.6 28.1-2.2 9.3-.6 14.3-1.1 14.8-2.5Z"/>
						<clipPath id="e">
							<path d="M145 404.6s-14.6-11.6-19.8-16.9c-4.6-4.7-8.1-14-14-16.4-7.5-3.2-31.1-2.9-31.1-2.9l-8.4 32.8s22 2.6 30.4 8.1c9.1 6 18.7-1.6 28.1-2.2 9.3-.6 14.3-1.1 14.8-2.5Z"/>
						</clipPath>
						<g clip-path="url(#e)">
							<path fill="#788d52" d="M133.1 409.4s-10.2-2.1-13.4-5c-3.2-2.7-2.7-9.5-5.7-11.8-3-2.4-8.8.2-12-2.3a115 115 0 0 1-13.7-17L67.8 407l42.7 8.7 22.6-6.4Z"/>
						</g>
						<path fill="#587034" d="M-6.5 432.4s17-7.3 24.3-9.4c6.3-1.8 16-.5 21-4.4 6.4-5.1 17.4-26.1 17.4-26.1l-18.5-11.2s-19.1 6.4-28 11c-9.6 5.3-7.5 17.4-11.4 25.9-3.9 8.4-5.8 13.1-4.8 14.2Z"/>
						<clipPath id="f">
							<path d="M-6.5 432.4s17-7.3 24.3-9.4c6.3-1.8 16-.5 21-4.4 6.4-5.1 17.4-26.1 17.4-26.1l-18.5-11.2s-19.1 6.4-28 11c-9.6 5.3-7.5 17.4-11.4 25.9-3.9 8.4-5.8 13.1-4.8 14.2Z"/>
						</clipPath>
						<g clip-path="url(#f)">
							<path fill="#788d52" d="M-5.1 419.7s6.7-8 10.7-9.5c4-1.4 9.7 2.2 13.2.7 3.5-1.5 4-7.9 7.7-9.6 4.9-2.2 21.5-3.9 21.5-3.9l-34.5-16.1L0 396.7l-5.1 23Z"/>
						</g>
					</g>
					<g>
						<g>
							<path fill="#bc001c" d="M42.4 346.4a26.5 26.5 0 1 1-20 49 26.5 26.5 0 0 1 20-49Z"/>
							<clipPath id="g">
								<path d="M42.4 346.4a26.5 26.5 0 1 1-20 49 26.5 26.5 0 0 1 20-49Z"/>
							</clipPath>
							<g clip-path="url(#g)">
								<path fill="#e40918" d="M-2.8 339S9.5 358 15 364.1c3 3.5 1.2 10.9 4.9 13.2 7 4.2 10.7-1.1 15.7-1.2 15.3-.2 18.6 10.7 18.6 10.7l20-16.7-35-28.2-42-3Z"/>
								<path fill="#f55" d="M12.9 334.4s-2.2 38.7 21.4 31.8c9-2.7 17.5-43 17.5-43l-39 11.2Z"/>
							</g>
							<path fill="#4b2a25" d="M12.3 370.4c.8 3.6-.8 7.1-3.7 7.8-3 .7-6-1.7-6.9-5.2-.8-3.6.9-7.1 3.8-7.8 2.9-.7 6 1.7 6.8 5.2Z"/>
						</g>
						<g>
							<path fill="#bc001c" d="M61 340.7a26.5 26.5 0 1 0 23.2 47.7A26.5 26.5 0 0 0 61 340.7Z"/>
							<clipPath id="h">
								<path d="M61 340.7a26.5 26.5 0 1 0 23.2 47.7A26.5 26.5 0 0 0 61 340.7Z"/>
							</clipPath>
							<g clip-path="url(#h)">
								<path fill="#e40918" d="M105.6 330.3s-11 19.9-16 26.4c-3 3.7-.6 11-4.1 13.5-6.7 4.7-10.7-.4-15.7-.2-15.4.9-18 12-18 12l-21-15.4 33-30.4 41.8-5.9Z"/>
								<path fill="#f55" d="M89.7 326.8s4.6 38.5-19.4 33.2c-9.1-2.1-20.3-41.8-20.3-41.8l39.7 8.6Z"/>
							</g>
							<path fill="#4b2a25" d="M92.6 362.8c-.6 3.6 1.3 7 4.3 7.4 3 .5 5.8-2 6.4-5.6.6-3.7-1.3-7-4.2-7.5-3-.5-5.9 2-6.5 5.7Z"/>
						</g>
						<g>
							<path fill="#bc001c" d="M67.5 373.7a26.5 26.5 0 1 0-19 49.5 26.5 26.5 0 0 0 19-49.5Z"/>
							<clipPath id="i">
								<path d="M67.5 373.7a26.5 26.5 0 1 0-19 49.5 26.5 26.5 0 0 0 19-49.5Z"/>
							</clipPath>
							<g clip-path="url(#i)">
								<path fill="#e40918" d="M105.6 399.1s-22 5.5-30.3 6.3c-4.7.5-8.3 7.2-12.6 6.3-8-1.7-7-8.1-10.6-11.6-11.1-10.6-21-4.9-21-4.9L28 369.4l44.8 3.2 32.9 26.5Z"/>
								<path fill="#f55" d="M97.2 385.1s-24.9 29.7-37.4 8.5c-4.8-8 16.6-43.3 16.6-43.3L97.2 385Z"/>
							</g>
							<path fill="#4b2a25" d="M73 411.8c-3 2-4.2 5.7-2.6 8.2 1.7 2.5 5.5 2.9 8.6.9 3-2 4.2-5.8 2.6-8.2-1.7-2.5-5.5-2.9-8.6-.9Z"/>
						</g>
					</g>
				</g>
				<g>
					<path fill="#db7636" d="M86.9 24.4c20.5-4.2 42.4 17.8 48.8 49.2 6.5 31.4-5 60.4-25.5 64.6-20.5 4.2-42.4-17.9-48.9-49.3-6.4-31.4 5-60.3 25.6-64.5Z"/>
					<path fill="#c9773f" d="M56.4 47.4c20.6-4.2 42.5 17.8 49 49.3 6.3 31.4-5.1 60.3-25.6 64.5-20.6 4.2-42.5-17.9-49-49.3-6.3-31.4 5.1-60.3 25.6-64.5Z"/>
					<path fill="#f39d41" d="M30.8 63.4c21.3-12 50.4-.7 64.8 25.1 14.5 25.9 9 56.5-12.4 68.4-21.3 12-50.4.7-64.8-25C3.9 106 9.5 75.3 30.8 63.3Z"/>
					<path fill="#f68635" d="M116.3 17.8c20.6-4.2 42.5 17.9 48.9 49.3 6.4 31.4-5 60.3-25.6 64.5-20.5 4.2-42.4-17.8-48.8-49.2-6.5-31.5 5-60.4 25.5-64.6Z"/>
					<path fill="#5c2b11" d="M65.3 60.7s-.7-13.3-4-22c-2-5.2-7.3-15-7.3-15s1.4-3.2 2.8-4c1.6-.7 6.4-.7 6.4-.7S74 33 78.1 40.9c4.2 8 10.7 26.2 10.7 26.2l-23.5-6.4Z"/>
					<path fill="#f89839" d="M101.3 38c20.6-4.3 42.2 16.4 48.3 46.1 6 29.7-5.7 57.2-26.2 61.4-20.5 4.2-42.2-16.4-48.2-46.1C69 69.7 80.8 42 101.3 37.9Z"/>
					<path fill="#f9af3b" d="M67.8 55.1c20.6-4.2 42.2 16.5 48.3 46.2 6 29.7-5.7 57.2-26.2 61.4-20.5 4.2-42.1-16.5-48.2-46.2-6.1-29.7 5.6-57.2 26.1-61.4Z"/>
				</g>
				<g>
					<path fill="#db7636" d="M526 417.7c-11.8 0-21.4 14.7-21.3 32.8 0 18 9.6 32.7 21.4 32.6 11.8 0 21.4-14.7 21.3-32.7 0-18-9.6-32.7-21.4-32.7Z"/>
					<path fill="#c9773f" d="M545.4 427c-11.8 0-21.4 14.6-21.3 32.7 0 18 9.6 32.7 21.4 32.6 11.8 0 21.4-14.7 21.3-32.7 0-18-9.6-32.7-21.4-32.7Z"/>
					<path fill="#f39d41" d="M561.3 432.9c-13-4.2-27.8 5.3-32.8 21.2-5 15.9 1.5 32.1 14.7 36.3 13 4.1 27.8-5.4 32.8-21.3 5-15.8-1.5-32.1-14.7-36.2Z"/>
					<path fill="#f68635" d="M509 417.5c-11.8 0-21.3 14.7-21.3 32.7 0 18 9.7 32.7 21.5 32.7s21.3-14.7 21.3-32.8c0-18-9.7-32.6-21.5-32.6Z"/>
					<path fill="#5c2b11" d="M542 435.3s-1-7.4-.3-12.6c.5-3 2.3-9 2.3-9s-1.1-1.7-2-2c-1-.2-3.6.3-3.6.3s-4.3 9-5.7 13.8c-1.4 5-2.9 15.7-2.9 15.7l12.3-6.2Z"/>
					<path fill="#f89839" d="M519.6 426.9c-11.8 0-21.4 13.9-21.3 31 0 17 9.6 30.8 21.4 30.8 11.8 0 21.4-14 21.3-31 0-17-9.6-30.9-21.4-30.8Z"/>
					<path fill="#f9af3b" d="M540 432.5c-11.8 0-21.4 13.9-21.3 31 0 17 9.6 30.9 21.4 30.8 11.8 0 21.4-13.9 21.3-31 0-17-9.6-30.8-21.4-30.8Z"/>
				</g>
				<g>
					<path fill="#768e54" d="M432.4 140c-4.6-1.2-7.3 2.8-8.5 6a34.2 34.2 0 0 0-1.3 19.8c1.6 4.7 6.1 24 6.1 24s1.7-5.2 5.2-12.5c3.2-6.6 6-14.7 6.3-19.2.4-4.4-.6-8.8-1.4-11.6-.6-2-4.3-6-6.4-6.6Z"/>
					<path fill="#768e54" d="M403.1 184.8c3.6-5.6 7.9-3 11.6-1.9a35 35 0 0 1 13.8 9.7c4.1 4.7 10.8 18.7 10.8 18.7s-12.7-2-17.9-4.2a36 36 0 0 1-13.2-9c-3-3.7-8.2-8.5-5-13.3Z"/>
					<path fill="#768e54" d="M392.2 143.4c-4.5 3.3-3.2 9-1.3 12.9 2.4 5 9 14.3 16 17.5a59 59 0 0 0 17 2.7s-7.7-16.3-11.8-22.2c-3-4.3-9.6-11.4-12.6-13-2.3-1.1-5.2.6-7.3 2.1Z"/>
					<path fill="#768e54" d="M445.3 220.4s-6-17.7-7-24.3a39 39 0 0 1 1.6-15.3c1-2.6 3.7-5.3 6-5.9 2.4-.6 6.1.5 8 2.5 2 2 4 6 3.4 9.2-.6 4.2-5.7 10.4-7.3 16-1.7 6-2.9 19.7-2.9 19.7l-1.8-1.9Z"/>
					<path fill="#768e54" d="M417.8 217.2c2.8-4.4 7.9-3 11.1-2 4.7 1.5 12.7 8 16.7 11 2.8 2.2 9.2 9.5 9.2 9.5h-19s-11-3.7-14-6.8c-2.9-3-6.7-7.5-4-11.7Z"/>
					<path fill="#768e54" d="m471.4 252.7-10.8-11c2.6 2.8-1.4-11.7-3.8-19.9a23.9 23.9 0 0 1 1.5-16c2-3.2 7.7-4.8 10.6-3.6 2.9 1.2 6.2 6.7 6.5 10.9.4 5.8-3.4 17-4 23.6-.6 5.3 0 16 0 16Z"/>
					<path fill="#768e54" d="M439 248.6c-1.2 3.6 2.2 7.3 5.3 8.9a62 62 0 0 0 19 4.3c6 .6 18-.6 18-.6l-8.2-5s-8.5-6.8-12.4-9c-3.3-2-7.2-4.4-10.8-4.1-3.7.2-9 0-10.9 5.5Z"/>
					<path fill="#768e54" d="M494.6 271s-7.8-8.8-10-13a27.3 27.3 0 0 1-2-25.1c1.5-2.6 5.8-5.3 8.3-4.3 2.4 1.1 5.5 6.7 6.5 10.7 1.2 4.5.4 11 .7 16.4l.9 17.2-4.4-2Z"/>
					<path fill="#768e54" d="M470 276.5c-.2 2.4 2.4 6.5 5.2 8 3.2 1.7 9.3 2.5 14.1 2.3 6.4-.3 24-3.9 24-3.9-.4-.1-.2-1.4-2-2-2.2-1-6.4-1.3-7.7-1.9-4.2-2-10.9-5.7-15.3-7.2-3.7-1.3-8.5-2.6-11.5-1.8-3 .7-6.5 4-6.7 6.5Z"/>
					<path fill="#607441" d="M551.2 296.2c-.3 1.4-2.1 1-2.1 1l-14.3-4.2s-14.6-6.2-21.5-10a302 302 0 0 1-26.2-15.9c-5.8-4-11-9-16-13.9a194.8 194.8 0 0 1-15.1-15.4c-4.4-5.1-8-11-11.8-16.3-3.6-5.2-7.7-10-10.6-15.6-3-5.8-5.2-12.7-7.6-19.2-2.8-7.7-7.2-19.8-9.2-26.8-1.5-5-3-15.3-3-15.3s-.2-2.5 1.5-2.7c1.5-.1 2 2 2 2s1.5 10.7 3 15.9c1.9 7 5.7 19 8.5 26.4a148.7 148.7 0 0 0 18.5 33.7c3.5 5.3 7 10.7 11 15.6a204 204 0 0 0 15 15.4c4.9 4.7 9.7 9.4 15.1 13.3 6.8 4.8 17.9 11.4 25.7 15.6 7 3.7 21.5 9.4 21.5 9.4l13.5 4.9s2.4.4 2 2Z"/>
					<path fill="#768e54" d="M417.9 109.2c-4.7-1-7.3 2.9-8.5 6.2A34.2 34.2 0 0 0 408 135c1.6 4.7 8.3 12.4 8.3 12.4s5.3-15.7 6.4-21.5c.9-4.3 1.4-10.3.6-13.1-.7-2.1-3.4-3-5.5-3.6Z"/>
				</g>
				<g>
					<path fill="#fd9300" d="M681.4 53.8S669 25.9 650.4 15C640.1 9 629 2 617.2 1.6 605.4 1.2 589 8 579.6 12.4c-7.4 3.4-13 12-18.8 15.7-4.8 3.1-12.6 5.5-15.8 6.9-1.3.5-3.7 1-3.8 1.8-.2.8 2 1.9 3 3 .9 1.2 21.5 28.8 34 36.9a91.5 91.5 0 0 0 42 11A51 51 0 0 0 646 79c6.6-4 10.6-12.3 16.4-16.3 5.3-3.7 18-7.8 18-7.8l1.1-1.1Z"/>
					<clipPath id="j">
						<path d="M681.4 53.8S669 25.9 650.4 15C640.1 9 629 2 617.2 1.6 605.4 1.2 589 8 579.6 12.4c-7.4 3.4-13 12-18.8 15.7-4.8 3.1-12.6 5.5-15.8 6.9-1.3.5-3.7 1-3.8 1.8-.2.8 2 1.9 3 3 .9 1.2 21.5 28.8 34 36.9a91.5 91.5 0 0 0 42 11A51 51 0 0 0 646 79c6.6-4 10.6-12.3 16.4-16.3 5.3-3.7 18-7.8 18-7.8l1.1-1.1Z"/>
					</clipPath>
					<g clip-path="url(#j)">
						<path fill="#feba0f" d="M667.7 27s-9.2 4.7-14 4.6a38.6 38.6 0 0 1-15.4-5.3c-5.1-2.7-10.2-8.6-15.3-10.7-5-2-11.1-4-15.7-1.8-4.7 2-7.9 10.6-12.2 14.5-4 3.7-8.6 7.1-13.6 9.1-5.1 2-11.2 3-16.8 2.9a229 229 0 0 1-25.7-4.5L565.3 73l35 9.4 42.3-12.1 26.6-3.9 18.6-14L667.7 27Z"/>
						<path fill="#ffe047" d="M665.5 66s-12.7-11.5-26.7-10.3c-9 .9-19.2 3.2-27.7 5.3-7.8 2-15 7.5-23 7.7-8.6.2-28.3-6.4-28.3-6.4l22.3 18.9 26.3 10 28.2-4.5 20.7-12.5 8.2-8.2Z"/>
					</g>
					<path fill="#be5013" d="M564.8 36.8c.8-2 2.3-1.5 2.3-1.5s7.3 2.7 11.1 3.4c4.7.9 12.4 1.7 17 2 3.7.1 11-.6 11-.6s-5.6-2.9-8-4.4c-2-1.3-6-4.5-6-4.5s-.5-1.2.6-2.3c.8-.8 2-.3 2-.3s4.6 4.1 7 5.5c2.4 1.3 7.7 2.7 7.7 2.7l5.4 3s10.9-.2 16.4 0c5.9.3 12.7.4 19 1.6a104.1 104.1 0 0 1 39 15.5c4 2.6 11.1 9.1 11.1 9.1s-.6 1.8-1.1 2.3c-.5.6-2 .9-2 .9s-7-6.6-11-9.3c-4.6-3-11.4-7-16.4-9a94 94 0 0 0-13.8-3.6s-5.7 2-8.3 3.6c-3 1.7-6.6 4.9-9.3 7l-7 6s-1 .6-2.1-.5c-1-1-.4-2-.4-2l7.1-5.9c2.7-2.2 6.5-6 8.8-7.5 1.4-1 4.7-2.2 4.7-2.2s-14.5-1.8-20.5-2.2a181 181 0 0 0-15.5-.1c-2.3 0-4.5.8-6.7.9-3.1 0-7.9 0-11.8-.2a201 201 0 0 1-18.4-2.1c-3.8-.8-11-3.6-11-3.6s-1.2-1-.9-1.7Z"/>
				</g>
				<g>
					<path fill="#b30016" d="M775.5 167c4.2 2.4 8.2 9.7 8.3 14.6.2 5-8.6 9.4-7.6 14.8 1.2 5.9 14.2 8.6 14.7 20.3.3 5.8-8.3 10.7-13.7 14.5-6.4 4.5-21.9 6.8-24.6 12.2-2.6 5.4 8.4 13.5 8.6 20.4.1 6.9 2.5 13.4-7.4 21-13.3 10-22.3 6-27.2 10.7-4.3 4.2.7 13.5-2.3 17.7-5.6 7.7-31 28.1-31 28.1s-23.2-48.2-28-62.6c-2.4-7.5-5.5-17.5-.6-23.7 6-7.6 31-13.2 36.3-21.7 5.2-8.3-8.2-20.9-4.4-29.2 3.8-8.3 9-18.8 27-20.9 5.8-.6 11.8 2.2 17.7-.4 5.8-2.7 11.8-12.7 17.3-15.3 5-2.4 12.6-2.8 16.9-.4Z"/>
					<clipPath id="k">
						<path d="M775.5 167c4.2 2.4 8.2 9.7 8.3 14.6.2 5-8.6 9.4-7.6 14.8 1.2 5.9 14.2 8.6 14.7 20.3.3 5.8-8.3 10.7-13.7 14.5-6.4 4.5-21.9 6.8-24.6 12.2-2.6 5.4 8.4 13.5 8.6 20.4.1 6.9 2.5 13.4-7.4 21-13.3 10-22.3 6-27.2 10.7-4.3 4.2.7 13.5-2.3 17.7-5.6 7.7-31 28.1-31 28.1s-23.2-48.2-28-62.6c-2.4-7.5-5.5-17.5-.6-23.7 6-7.6 31-13.2 36.3-21.7 5.2-8.3-8.2-20.9-4.4-29.2 3.8-8.3 9-18.8 27-20.9 5.8-.6 11.8 2.2 17.7-.4 5.8-2.7 11.8-12.7 17.3-15.3 5-2.4 12.6-2.8 16.9-.4Z"/>
					</clipPath>
					<g clip-path="url(#k)">
						<path fill="#e80716" d="M691.4 343.5s12-42.2 18.6-53.2c4.4-7 17.3-5.3 21.9-12.3 6.1-9.6-8-35 15.3-45 10.7-4.5 40.3 3.4 40.3 3.4a90 90 0 0 0 5.3-54.3l-22.4-19.5-54.8 35-46.5 69.2 1 38.3 21.3 38.4Z"/>
						<path fill="#f55" d="M672 314.7s1-32.8 7.9-43.7c7-11 25.5-11.7 33.9-22.1 8.5-10.6 9.2-32.2 17.1-41.2 7.1-8.2 24.6-4.2 30.3-13 5.7-8.8 3.9-39.8 3.9-39.8l-69.6 41.6-36 68.5 12.4 49.7Z"/>
					</g>
					<path fill="#870119" d="M691.9 345.4s2.3-7.9 3.6-16.5c1.2-8.2 4.4-24.6 4.4-24.6s-2.4-12.2-4.2-17.1a98.4 98.4 0 0 0-6.8-12.8s-1.3-1.1 0-2c1.5-1.1 3.3 0 3.3 0s4.4 6.7 6 10.4c1.6 3.8 3.7 12.2 3.7 12.2l10.1-26.7 6.8-17.5 6.3-13.9s-.7-11.7-1.6-16.7c-.9-4.4-4-12.9-4-12.9s.6-2.2 1.4-2.5c.8-.2 3.4 1.2 3.4 1.2s2.3 7.4 3 11.1c.8 3.8 1.6 11.6 1.6 11.6s7.7-14.4 12.5-21c5.8-8 22.3-27.2 22.3-27.2s2.3-.5 2.8 0c.5.3 0 2.6 0 2.6s-14.9 18.3-20.9 27c-5.5 8-15 25.1-15 25.1l-13.3 33s7.8-4.6 11.2-6c3-1.4 9.4-3 9.4-3s1.2.8 1.3 1.4c0 .6-1.2 2.3-1.2 2.3s-9.1 2.8-13.2 5c-4.1 2.3-11.4 8.6-11.4 8.6l-7 19.4-2.8 9.2s-4.3 21.6-5.3 30l-1.2 10.2-2.4 1.2-2.8-1Z"/>
				</g>
				<g>
					<path fill="#442d27" d="M944.6 405.6c52.7 26.2 86.1 66.3 74.6 89.3-11.4 23-63.5 20.4-116.2-5.9-52.7-26.2-86.2-66.3-74.7-89.3s63.6-20.4 116.3 5.9Z"/>
					<clipPath id="l">
						<path d="M944.6 405.6c52.7 26.2 86.1 66.3 74.6 89.3-11.4 23-63.5 20.4-116.2-5.9-52.7-26.2-86.2-66.3-74.7-89.3s63.6-20.4 116.3 5.9Z"/>
					</clipPath>
					<g clip-path="url(#l)">
						<path fill="#633d34" d="M848.3 457.1s24.5.7 35.6 2.7c20 3.6 68.6 53.7 87.1 25.3 18.5-28.4-59.3-108-59.3-108l-59 1.6c-10.4 25.9-25.9 44.4-4.4 78.4Z"/>
						<path fill="#7b4e48" d="M859.6 388.3c7.5 8.3-9.8 20.3-7 28.5 3.5 10 39.3 17.8 38.8 27.2-.2 5.5-21.3 2.5-30.2 4.3-7.8 1.6-23 6.8-23 6.8l-23.6-47.4s37.1-28.3 45-19.4Z"/>
					</g>
					<g>
						<path fill="#472b27" d="M991.4 451.6 1012 352l-74.6-34-57.1 81 44.5 52 66.6.6Z"/>
						<clipPath id="m">
							<path d="M991.4 451.6 1012 352l-74.6-34-57.1 81 44.5 52 66.6.6Z"/>
						</clipPath>
						<g clip-path="url(#m)">
							<path fill="#633d34" d="M935.8 313.8s5.4 19.8 11.5 27.3c6 7.4 17.5 5.6 24.8 17.5 3 4.8-4.9 10.6-5.3 16.2-.4 6.8 9.5 10.5 2.5 24.2-2.4 4.7-12 1-16 5-6.6 6.4-29.5 23-29.5 23l-44.3-27.2 56.3-86Z"/>
							<path fill="#7b4e48" d="M925.4 333.3s12.3 14.8 12 21.8c-.4 7-10 13.3-10.6 20.2-.7 7 10.1 14.4 6 20.7-8.6 13.4-63 16-63 16l23.5-53.2 32-25.5Z"/>
						</g>
						<path fill="#633d34" d="M979.5 324.8c20.5 9.4 35 21.5 32.5 27-2.5 5.6-21.2 2.5-41.7-6.9-20.5-9.4-35-21.5-32.5-27 2.5-5.6 21.2-2.5 41.7 7Z"/>
					</g>
					<path fill="#c25200" d="M882.7 396c1-1.9 8.5-12.4 8.5-12.4s6.4 20.3 44 39.9c34.9 18.1 60.3 8.5 60.3 8.5s-3.4 18.3-5 21.2c-8 15-38.9 14-69-2.2-30-16.1-46.8-40.2-38.8-55Z"/>
					<clipPath id="n">
						<path d="M882.7 396c1-1.9 8.5-12.4 8.5-12.4s6.4 20.3 44 39.9c34.9 18.1 60.3 8.5 60.3 8.5s-3.4 18.3-5 21.2c-8 15-38.9 14-69-2.2-30-16.1-46.8-40.2-38.8-55Z"/>
					</clipPath>
					<g clip-path="url(#n)">
						<path fill="#fc7500" d="M935.8 313.8s5.4 19.8 11.5 27.3c6 7.4 17.5 5.6 24.8 17.5 3 4.8-4.9 10.6-5.3 16.2-.4 6.8 9.5 10.5 2.5 24.2-2.4 4.7-12 1-16 5-6.6 6.4-17.6 19.9-29.5 23-12.2 3.3-47.5 6.8-44.3-27.2l56.3-86Z"/>
						<path fill="#fda54b" d="M925.4 333.3s12.3 14.8 12 21.8c-.4 7-10 13.3-10.6 20.2-.7 7 10.1 14.4 6 20.7-8.6 13.4-63 16-63 16l23.5-53.2 32-25.5Z"/>
					</g>
					<path fill="none" stroke="#ffdb45" stroke-width="10" d="M918.2 413.4s-4.5 6.6-6 9.7c-2 3.9-5.7 13.3-5.7 13.3s12.2 9.6 18 12.7c5.5 3 17.4 6.2 17.4 6.2s5.1-8.5 6.9-12.5c1.6-3.6 3.7-11.5 3.7-11.5s-14-8.2-19.8-11.2c-5.4-2.8-14.5-6.7-14.5-6.7Z"/>
				</g>
				<g>
					<g>
						<g>
							<path fill="#587034" d="M985.5.7c2.6 1.3 5.3 5.7 5.6 8.7.2 3-5 6-4.2 9.4.9 3.5 9 4.8 9.6 12 .4 3.5-4.7 6.8-8 9.3-3.7 3-13.2 4.8-14.6 8.3-1.5 3.4 5.5 8 5.8 12.2.4 4.3 2 8.2-3.8 13.1-7.9 6.7-13.5 4.5-16.4 7.5-2.5 2.7.9 8.3-.9 11-3.1 4.9-18 18.2-18 18.2s-15.9-28.9-19.3-37.6c-1.7-4.5-3.9-10.6-1.1-14.5 3.4-4.9 18.6-9.1 21.6-14.5 3-5.3-5.7-12.6-3.6-17.8 2-5.2 4.9-11.9 15.9-13.7 3.6-.6 7.4 1 10.9-.8s6.8-8.2 10.1-10c3-1.6 7.7-2 10.4-.8Z"/>
							<clipPath id="o">
								<path d="M985.5.7c2.6 1.3 5.3 5.7 5.6 8.7.2 3-5 6-4.2 9.4.9 3.5 9 4.8 9.6 12 .4 3.5-4.7 6.8-8 9.3-3.7 3-13.2 4.8-14.6 8.3-1.5 3.4 5.5 8 5.8 12.2.4 4.3 2 8.2-3.8 13.1-7.9 6.7-13.5 4.5-16.4 7.5-2.5 2.7.9 8.3-.9 11-3.1 4.9-18 18.2-18 18.2s-15.9-28.9-19.3-37.6c-1.7-4.5-3.9-10.6-1.1-14.5 3.4-4.9 18.6-9.1 21.6-14.5 3-5.3-5.7-12.6-3.6-17.8 2-5.2 4.9-11.9 15.9-13.7 3.6-.6 7.4 1 10.9-.8s6.8-8.2 10.1-10c3-1.6 7.7-2 10.4-.8Z"/>
							</clipPath>
							<g clip-path="url(#o)">
								<path fill="#768e54" d="M939.4 111.8s6-26.3 9.8-33.2c2.4-4.5 10.4-3.9 13-8.3 3.5-6-6-21.3 8-28.1 6.4-3.2 24.8.8 24.8.8 4.7-12.6 4-23.3 1.6-33.6L982.2-1.8l-32.5 23.2-26.4 44 1.8 23.5 14.3 23Z"/>
								<path fill="#7f9e4d" d="M926.5 94.7s-.4-20.1 3.5-27c4-7 15.3-8 20.1-14.7 5-6.8 4.7-20.1 9.3-25.9 4.1-5.2 15-3.3 18.2-9 3.2-5.5 1-24.5 1-24.5l-41.3 27.8-20 43.2 9.2 30.1Z"/>
							</g>
							<path fill="#587035" d="M939.8 113s1.1-5 1.6-10.2c.5-5.2 2-15.3 2-15.3s-1.9-7.4-3.1-10.4a60.6 60.6 0 0 0-4.6-7.7s-.9-.6-.1-1.2c1-.7 2-.1 2-.1s3 4 4 6.2c1.2 2.3 2.7 7.4 2.7 7.4l5.4-16.7 3.6-11 3.5-8.7s-.9-7.2-1.6-10.2c-.7-2.7-2.9-7.9-2.9-7.9s.4-1.4.9-1.5c.4-.2 2 .6 2 .6s1.7 4.4 2.3 6.7c.6 2.3 1.3 7.1 1.3 7.1s4.3-9 7-13.3c3.3-5.1 12.9-17.4 12.9-17.4s1.4-.4 1.7-.2c.3.3.1 1.6.1 1.6s-8.6 11.8-12 17.3c-3.2 5.1-8.5 16-8.5 16l-7 20.6s4.6-3 6.6-4c1.9-1 5.7-2.2 5.7-2.2s.8.5.8.9-.6 1.4-.6 1.4-5.5 2-8 3.5c-2.4 1.6-6.7 5.6-6.7 5.6l-3.7 12.2-1.4 5.7s-2 13.5-2.3 18.7l-.5 6.2-1.4.9-1.7-.6Z"/>
						</g>
						<g>
							<path fill="#587034" d="M843.7 115.4a9.4 9.4 0 0 0 4.4 6.4c2 1 5.6-1.8 7.7-.3 2.2 1.6.8 7.6 5.6 10 2.4 1.3 6.1-1.3 8.8-2.8 3-1.8 7-7.8 9.8-7.9 2.8 0 4 6.1 7 7.6 2.8 1.4 5 3.6 10.1 1 6.8-3.6 6.9-8.2 9.8-9.3 2.6-1 5.6 3 7.9 2.5 4.3-.8 17.8-7.4 17.8-7.4s-15.7-19.2-20.7-24c-2.7-2.5-6.3-5.7-9.8-4.9-4.4 1-11.6 10.4-16.2 11-4.5.5-7.1-7.5-11.3-7.6-4.3 0-9.6 0-14 7.2-1.4 2.3-1.4 5.4-3.7 7.3-2.2 2-7.6 2.5-9.7 4.3-2 1.6-3.7 4.7-3.5 7Z"/>
							<clipPath id="p">
								<path d="M843.7 115.4a9.4 9.4 0 0 0 4.4 6.4c2 1 5.6-1.8 7.7-.3 2.2 1.6.8 7.6 5.6 10 2.4 1.3 6.1-1.3 8.8-2.8 3-1.8 7-7.8 9.8-7.9 2.8 0 4 6.1 7 7.6 2.8 1.4 5 3.6 10.1 1 6.8-3.6 6.9-8.2 9.8-9.3 2.6-1 5.6 3 7.9 2.5 4.3-.8 17.8-7.4 17.8-7.4s-15.7-19.2-20.7-24c-2.7-2.5-6.3-5.7-9.8-4.9-4.4 1-11.6 10.4-16.2 11-4.5.5-7.1-7.5-11.3-7.6-4.3 0-9.6 0-14 7.2-1.4 2.3-1.4 5.4-3.7 7.3-2.2 2-7.6 2.5-9.7 4.3-2 1.6-3.7 4.7-3.5 7Z"/>
							</clipPath>
							<g clip-path="url(#p)">
								<path fill="#768e54" d="M933.9 114.8s-20-3.3-25.9-2.6c-3.8.4-5.6 6.1-9.4 6.7-5.2.7-13.1-10.2-21.8-2.4-4 3.6-6.5 17.5-6.5 17.5-10 .5-17.2-3.4-23.7-8.4l-3.8-13.2 25.4-16 38-6 15.8 8 11.9 16.4Z"/>
								<path fill="#7f9e4d" d="M925.7 100.8s-13.8-6-19.7-5.3c-5.9.7-9.6 8-15.6 9.5-6 1.3-15-2.6-20.3-1.1-4.8 1.3-6.5 8.6-11.1 9.7-7.1 1.6-21.4-4.4-17.3-6.2l30.4-20 35.3-1.3 18.3 14.7Z"/>
							</g>
							<path fill="#587035" d="M937.5 114.4s-3.8.1-7.6-1c-3.7-1.1-11.2-3-11.2-3s-4.6-3.4-6.4-5.1c-1.5-1.6-4-5.3-4-5.3s-.2-.8-.8-.5c-.8.5-.7 1.4-.7 1.4s2 3.2 3.2 4.6c1.3 1.4 4.4 4 4.4 4l-13.1-1-8.7-.6-7-.1s-4.8-2.6-6.7-4c-1.6-1.2-4.6-4.2-4.6-4.2s-1-.1-1.3.2c-.2.3-.2 1.6-.2 1.6l4 3.4c1.5 1.1 4.6 3 4.6 3s-7.5.4-11.2 1.1c-4.5.9-15.7 4-15.7 4s-.7.9-.6 1.2c0 .2 1 .5 1 .5s10.7-2.7 15.5-3.5c4.4-.7 13.4-1.4 13.4-1.4l16.4 1s-3.4 2.3-4.7 3.4c-1.2 1-3 3.4-3 3.4s0 .7.3.8h1.1s3-3.3 4.7-4.6c1.8-1.3 5.8-3 5.8-3l9.5.8 4.4.6s9.9 2.4 13.6 3.7c3 1 4.5.8 4.5.8l1-.8.1-1.4Z"/>
						</g>
					</g>
					<g>
						<path fill="#823616" d="M948 139.7s-5-6.7-5.6-9.2c-.5-2 1.9-4.4 1.6-6.2-.4-1.8-1.8-5.7-2.9-5.5-1 .2-3 4.5-3.5 6.7a21 21 0 0 0 .6 6.7l-8.2-2.5-1.1-3.6s2.9-2.3 3.9-3.8c1.1-1.7 3.4-5.2 3-6.4-.5-1.3-9.6-7.3-13.3-10.6-3-2.7-8.5-8.8-8.5-8.8l3.8-7.6s23.5 21.8 24.9 22.3c1.3.5 4.9-2.4 7.3-3.6l10.4-5.4-1.4 12.1s-3.2-2.6-4.9-2.5c-1.6 0-5.4 2.9-5.4 2.9s2.8 3.1 3 5.7c.1 2.6-2.5 7.5-2 9.9.6 2.4 4.7 6.3 4.7 6.3l-6.4 3.1Z"/>
						<path fill="#5d1e0c" d="M914.3 92.3c1-2.3 2.4-3.9 3.1-3.5.8.3.7 2.4-.3 4.7-1 2.3-2.4 3.8-3.2 3.5-.7-.3-.6-2.4.4-4.7Z"/>
					</g>
					<g>
						<path fill="#fe9001" d="M902.8 180.8c.7.5 2-.7 3-.8 2.5 0 8 1.5 11.7.3 9.9-3.3 21.1-22.4 21.1-22.4s-7.6-11.4-13.1-14.7a73 73 0 0 0-20.1-5.3s-11.8 21.8-9 29.7c1.3 3.5 4.2 7.7 5.3 10 .5 1 .4 2.8 1.1 3.2Z"/>
						<clipPath id="q">
							<path d="M902.8 180.8c.7.5 2-.7 3-.8 2.5 0 8 1.5 11.7.3 9.9-3.3 21.1-22.4 21.1-22.4s-7.6-11.4-13.1-14.7a73 73 0 0 0-20.1-5.3s-11.8 21.8-9 29.7c1.3 3.5 4.2 7.7 5.3 10 .5 1 .4 2.8 1.1 3.2Z"/>
						</clipPath>
						<g clip-path="url(#q)">
							<path fill="#fabc09" d="M913.5 136.7s13.7 12.5 13 20.3c-.2 4.1-8.3 3.7-10.4 6.7-2 3-.4 9-2 11.3-1.6 2.3-5.7 1-7.9 2.7-2.4 1.8-6.8 8.4-6.8 8.4L898 154l6.5-16.5 9-.8Z"/>
							<path fill="#ffe047" d="M899.8 179s2.7-3.5 3-5.6c.2-2.4-2.5-6.1-1.5-9 1.2-3.4 8.6-7.2 8.5-11.2-.1-5.5-9.9-12.3-9.9-12.3l-5.8 21.4 5.7 16.7Z"/>
						</g>
						<path fill="#5d1e0c" d="M935.3 125.6a22.8 22.8 0 0 1 7.5 31.1c-.7 1.2-1.5 2.9-2.9 3.2-3 .8-2.5-2.8-5-6.3a45.5 45.5 0 0 0-10.9-9.2 34.4 34.4 0 0 0-14.5-4.9c-5.2-.5-5.7 3-6.7-2-.3-1.3 1.2-3.5 2-4.8a22 22 0 0 1 30.5-7Z"/>
						<clipPath id="r">
							<path d="M935.3 125.6a22.8 22.8 0 0 1 7.5 31.1c-.7 1.2-1.5 2.9-2.9 3.2-3 .8-2.5-2.8-5-6.3a45.5 45.5 0 0 0-10.9-9.2 34.4 34.4 0 0 0-14.5-4.9c-5.2-.5-5.7 3-6.7-2-.3-1.3 1.2-3.5 2-4.8a22 22 0 0 1 30.5-7Z"/>
						</clipPath>
						<g clip-path="url(#r)">
							<path fill="#823616" d="M942.5 129.8s-1.8 3.3-2.5 5c-1 2.2-.5 7.5-3.4 8.3-3.2 1-11.8-3-15.9-3-3 .2-8.6 3.7-8.6 3.7l-10.5-3.5 6.8-16.5s9.9-3.3 14.8-2.5c5.7 1 19.3 8.5 19.3 8.5Z"/>
							<path fill="#ac5b3d" d="M902.6 130.2s9 6.7 12.4 6.4c3.4-.3 5.1-7 8.1-8.3 3-1.3 7.4 1 10 .6 2.4-.4 6.3-3 6.3-3s-15.2-5-21.3-4.3c-5.9.7-15.5 8.6-15.5 8.6Z"/>
						</g>
					</g>
					<g>
						<path fill="#fe9001" d="M1019.7 123c-.2.7-2 .8-2.7 1.6-1.7 1.7-4.4 6.8-7.8 8.6-9.2 5-30.8 0-30.8 0s-3-13.4-1.7-19.7c1.4-6.3 10-18.2 10-18.2s24 6.4 27.7 13.9c1.7 3.3 2.8 8.3 3.7 10.6.4 1.1 1.7 2.4 1.6 3.2Z"/>
						<clipPath id="s">
							<path d="M1019.7 123c-.2.7-2 .8-2.7 1.6-1.7 1.7-4.4 6.8-7.8 8.6-9.2 5-30.8 0-30.8 0s-3-13.4-1.7-19.7c1.4-6.3 10-18.2 10-18.2s24 6.4 27.7 13.9c1.7 3.3 2.8 8.3 3.7 10.6.4 1.1 1.7 2.4 1.6 3.2Z"/>
						</clipPath>
						<g clip-path="url(#s)">
							<path fill="#fabc09" d="M980.3 100.4s-.4 18.5 5.7 23.4c3.2 2.6 8.5-3.5 12.1-3 3.6.6 6.8 5.9 9.6 6.3 2.7.4 4.6-3.4 7.3-3.8 3-.5 10.8.8 10.8.8l-22.3-23.1-16.5-6.6-6.7 6Z"/>
							<path fill="#ffe047" d="M1020.4 119.5s-4.4-.4-6-1.7c-2-1.5-2.9-6-5.7-7.2-3.2-1.5-11.1 1.2-13.9-1.5-4-4-2.1-15.7-2.1-15.7l19.5 10.5 8.2 15.6Z"/>
						</g>
						<path fill="#5d1e0c" d="M957.3 108.6a22.8 22.8 0 0 0 17.3 26.8c1.5.3 3.2.9 4.3.1 2.7-1.6-.2-3.7-1-8a46 46 0 0 1 .7-14.2c.9-5 3.8-10.4 6.5-14 3.2-4 6-2 3.1-6-.8-1.2-3.4-1.7-4.8-2a22 22 0 0 0-26.1 17.3Z"/>
						<clipPath id="t">
							<path d="M957.3 108.6a22.8 22.8 0 0 0 17.3 26.8c1.5.3 3.2.9 4.3.1 2.7-1.6-.2-3.7-1-8a46 46 0 0 1 .7-14.2c.9-5 3.8-10.4 6.5-14 3.2-4 6-2 3.1-6-.8-1.2-3.4-1.7-4.8-2a22 22 0 0 0-26.1 17.3Z"/>
						</clipPath>
						<g clip-path="url(#t)">
							<path fill="#823616" d="m955.3 116.7 5.3 1.6c2.3.8 5.9 4.8 8.4 3.3 3-1.7 6-10.7 8.8-13.6 2.2-2.2 8.6-3.7 8.6-3.7l4.7-10.1-16.7-6.4s-9.2 4.9-12 9c-3.1 4.9-7.1 20-7.1 20Z"/>
							<path fill="#ac5b3d" d="M983 88s-1.2 11.1-3.8 13.4c-2.6 2.3-8.7-1.1-11.7.2s-4.3 6-6.4 7.7c-1.9 1.4-6.5 2.4-6.5 2.4s6.8-14.4 11.5-18.4c4.6-3.8 17-5.3 17-5.3Z"/>
						</g>
					</g>
					<g>
						<path fill="#fe9001" d="M1001.7 183.9c-.6.7-2.4 0-3.5.3-2.6.8-7.8 4.4-12.1 4.5-11.6.3-30.4-15.6-30.4-15.6s3.7-14.8 8.3-20.3c4.6-5.6 19.1-13 19.1-13s20.4 18.5 20.4 27.8c0 4.2-1.5 9.7-1.9 12.4-.1 1.3.6 3.2 0 3.9Z"/>
						<clipPath id="u">
							<path d="M1001.7 183.9c-.6.7-2.4 0-3.5.3-2.6.8-7.8 4.4-12.1 4.5-11.6.3-30.4-15.6-30.4-15.6s3.7-14.8 8.3-20.3c4.6-5.6 19.1-13 19.1-13s20.4 18.5 20.4 27.8c0 4.2-1.5 9.7-1.9 12.4-.1 1.3.6 3.2 0 3.9Z"/>
						</clipPath>
						<g clip-path="url(#u)">
							<path fill="#fabc09" d="M974.2 141.6s-9.8 18.2-6.3 26c2 4.2 10.2.9 13.5 3.3 3.3 2.4 3.7 9.2 6.3 11 2.5 1.8 6.3-1 9.2 0 3.2 1 10.2 6.2 10.2 6.2L996.8 154 984 139l-9.7 2.5Z"/>
							<path fill="#ffe047" d="M1004.2 180.8s-4.2-2.6-5.2-4.7c-1.2-2.5.3-7.4-1.8-10-2.5-3-11.7-4.4-13-8.5-2-6 5.8-16.6 5.8-16.6l14 20.3.2 19.5Z"/>
						</g>
						<path fill="#5d1e0c" d="M947.3 138a25.3 25.3 0 0 0 3.5 35.3c1.3 1 2.7 2.5 4.2 2.3 3.5-.3 1.6-3.8 3-8.4 1.3-4.3 5-9.8 8-13.7a37 37 0 0 1 13.5-10.4c5.2-2.5 7 1 6.2-4.6-.2-1.5-2.5-3.3-3.8-4.3a24.5 24.5 0 0 0-34.6 3.8Z"/>
						<clipPath id="v">
							<path d="M947.3 138a25.3 25.3 0 0 0 3.5 35.3c1.3 1 2.7 2.5 4.2 2.3 3.5-.3 1.6-3.8 3-8.4 1.3-4.3 5-9.8 8-13.7a37 37 0 0 1 13.5-10.4c5.2-2.5 7 1 6.2-4.6-.2-1.5-2.5-3.3-3.8-4.3a24.5 24.5 0 0 0-34.6 3.8Z"/>
						</clipPath>
						<g clip-path="url(#v)">
							<path fill="#823616" d="m941.2 145 4.5 4.3c1.8 2 3.3 7.8 6.6 7.5 3.7-.2 11.3-7.5 15.6-9 3.3-1 10.3.7 10.3.7l9.8-7.6-13.2-14.7s-11.6.1-16.4 2.8c-5.6 3.2-17.2 16-17.2 16Z"/>
							<path fill="#ac5b3d" d="M983.2 130.7s-6.9 10.4-10.6 11.3c-3.7 1-8-5.5-11.6-5.7-3.7-.2-7.3 3.8-10.3 4.3-2.5.5-7.7-.9-7.7-.9s14.1-10.8 20.8-12.3a49.5 49.5 0 0 1 19.4 3.3Z"/>
						</g>
					</g>
				</g>
			</g>
			<g class="breath" style="--z: -3">
				<path d="M254.64,311.615C266.295,310.394 288.556,318.743 341.017,337.284L344.824,318.364C348.37,320.982 351.584,325.249 354.467,331.166C357.349,337.082 371.137,339.404 395.831,338.131C406.358,319.74 411.651,295.689 411.708,265.976C411.801,217.616 394.123,205.368 389.745,186.206C385.367,167.045 385.367,167.045 377.142,137.51C359.138,93.392 347.333,68.842 341.728,63.859C336.593,59.294 324.407,55.976 305.171,53.905C303.485,45.99 301.523,41.232 299.343,40.734C282.429,36.867 225.589,35.255 209.565,40.734C193.54,46.213 184.408,56.385 176,63.859C167.592,71.333 142.595,91.374 132,112C121.405,132.626 127.413,165.292 119.535,186.206C111.658,207.12 97.478,217.616 97.572,265.976C97.629,295.689 102.921,319.74 113.448,338.131C138.142,339.404 151.93,337.082 154.813,331.166C157.696,325.249 160.91,320.982 164.456,318.364L168.263,337.284C218.078,320.986 246.87,312.43 254.64,311.615Z" style="fill: #5e4038; fill-rule: nonzero" />
				<clipPath id="w">
					<path d="M254.64,311.615C266.295,310.394 288.556,318.743 341.017,337.284L344.824,318.364C348.37,320.982 351.584,325.249 354.467,331.166C357.349,337.082 371.137,339.404 395.831,338.131C406.358,319.74 411.651,295.689 411.708,265.976C411.801,217.616 394.123,205.368 389.745,186.206C385.367,167.045 385.367,167.045 377.142,137.51C359.138,93.392 347.333,68.842 341.728,63.859C336.593,59.294 324.407,55.976 305.171,53.905C303.485,45.99 301.523,41.232 299.343,40.734C282.429,36.867 225.589,35.255 209.565,40.734C193.54,46.213 184.408,56.385 176,63.859C167.592,71.333 142.595,91.374 132,112C121.405,132.626 127.413,165.292 119.535,186.206C111.658,207.12 97.478,217.616 97.572,265.976C97.629,295.689 102.921,319.74 113.448,338.131C138.142,339.404 151.93,337.082 154.813,331.166C157.696,325.249 160.91,320.982 164.456,318.364L168.263,337.284C218.078,320.986 246.87,312.43 254.64,311.615Z" />
				</clipPath>
				<g clip-path="url(#w)">
					<path d="M368,116C378.515,119.396 397.2,204.556 392.368,244.782C388.901,273.649 393.604,330.966 395.664,343.681C398.951,363.97 378.142,347.147 333.239,293.21C349.403,172.806 360.99,113.736 368,116Z" style="fill: #5b3c34; fill-rule: nonzero" />
					<path d="M375.031,352.878C394.098,323.297 391.431,248.631 367.031,128.878C231.76,104.502 162.427,100.502 159.031,116.878C153.936,141.441 117.324,330.371 143.031,348.878C168.737,367.385 346.43,397.248 375.031,352.878Z" style="fill: #462f28; fill-rule: nonzero" />
				</g>
			</g>
			<g transform="matrix(-0.312445,0.0724579,-0.085675,-0.369439,478.62,513.393)">
				<path d="M351.876,384.242L360.394,396.126L343.357,396.126L351.876,384.242Z" style="fill: #fc7500" />
			</g>
			<g transform="matrix(0.443106,0.102759,0.085675,-0.369439,-21.2765,505.945)">
				<path d="M351.876,384.242L360.394,396.126L343.357,396.126L351.876,384.242Z" style="fill: #fc7500" />
			</g>
			<path d="M208.836,312.883C211.963,331.624 213.238,348.719 212.66,364.17C212.498,368.496 212.191,372.693 211.739,376.761C184.931,388.167 153.717,406.045 117.969,430.232L139.724,520.56L253.723,545.781L390.924,505.427L386.941,429.849C357.109,406.116 329.668,388.493 304.618,376.98C299.881,356.251 298.17,326.729 299.483,288.414L208.836,312.883Z" style="fill: #f8dec8; fill-rule: nonzero" />
			<g>
				<clipPath id="x">
					<path d="M208.836,312.883C211.963,331.624 213.238,348.719 212.66,364.17C212.498,368.496 212.191,372.693 211.739,376.761C184.931,388.167 153.717,406.045 117.969,430.232L139.724,520.56L253.723,545.781L390.924,505.427L386.941,429.849C357.109,406.116 329.668,388.493 304.618,376.98C299.881,356.251 298.17,326.729 299.483,288.414L208.836,312.883Z" />
				</clipPath>
				<g clip-path="url(#x)">
					<path class="breath" d="M315.141,300.669C315.141,300.669 276.046,367.884 238.878,387.33C201.709,406.777 131.173,395.539 131.173,395.539L132,284L311,240L315.141,300.669Z" style="fill: #f4ceba; fill-rule: nonzero" />
					<path class="breath" d="M324.183,318C324.183,318 283.54,355.991 252.084,368.192C231.268,376.266 167.027,316.152 167.027,316.152L164.555,270.006L366.483,256.509L324.183,318Z" style="
							fill: #cc9898;
							fill-opacity: 0.3;
							fill-rule: nonzero;
						" />
					<g transform="matrix(1,0,0,1,9,-8)">
						<path d="M274.316,430.563L295.211,418.143L344.588,413.679L274.316,430.563Z" style="
								fill: #cc9898;
								fill-opacity: 0.3;
								fill-rule: nonzero;
							" />
					</g>
					<g transform="matrix(-1,0,0,1,494.904,-8)">
						<path d="M274.316,430.563L295.211,418.143L344.588,413.679L274.316,430.563Z" style="
								fill: #cc9898;
								fill-opacity: 0.3;
								fill-rule: nonzero;
							" />
					</g>
				</g>
			</g>
			<g>
				<g transform="matrix(0.505759,0.131166,0.141056,-0.54389,-75.2624,571.699)">
					<path d="M351.876,384.242L360.394,396.126L343.357,396.126L351.876,384.242Z" />
				</g>
				<g transform="matrix(-0.505759,0.131166,-0.141056,-0.54389,587.262,571.703)">
					<path d="M351.876,384.242L360.394,396.126L343.357,396.126L351.876,384.242Z" />
				</g>
				<path d="M164.781,394.857C190.554,422.074 217.656,437.725 246.089,441.812C274.521,445.899 304.956,429.272 337.393,391.93L355.132,404.5L386.9,425.6L379.157,537.415L109.791,552L100.068,449.907L152.951,407.791L164.781,394.857Z" style="fill: #fc7500; fill-rule: nonzero" />
				<g>
					<clipPath id="y">
						<path d="M164.781,394.857C190.554,422.074 217.656,437.725 246.089,441.812C274.521,445.899 304.956,429.272 337.393,391.93L355.132,404.5L386.9,425.6L379.157,537.415L109.791,552L100.068,449.907L152.951,407.791L164.781,394.857Z" />
					</clipPath>
					<g clip-path="url(#y)">
						<g transform="matrix(1.19088,0.0677984,-0.0573258,1.00693,-42.2559,-25.5249)">
							<path d="M359.454,384C359.454,384 328.802,449.713 320.628,477.219C313.462,501.333 311.194,555.764 311.194,555.764L367.454,552L359.454,384Z" style="fill: #c25200; fill-rule: nonzero" />
						</g>
						<path d="M143.822,372.122L367.454,372.122C345.866,412.261 324.799,436.569 304.253,445.046C273.435,457.761 229.377,456.034 192.438,440.184C167.811,429.617 151.606,406.93 143.822,372.122Z" style="fill: #fda54b; fill-rule: nonzero" />
					</g>
				</g>
				<path d="M134.823,411.015C137.631,410.372 144.113,407.131 154.27,401.292C165.691,429.1 173.794,450.782 178.577,466.339C183.36,481.896 189.843,510.449 198.024,552L52.177,552C39.751,517.818 34.889,498.372 37.592,493.661C41.647,486.595 49.894,488.25 57.038,488.8C49.674,482.663 46.215,474.015 47.315,464.492C48.416,454.969 67.592,450.196 76.485,440.184C85.377,430.172 89.436,411.763 95.931,411.015C102.426,410.267 101.654,416.184 105.654,415.876C108.321,415.671 111.562,412.43 115.377,406.153C125.533,410.037 132.015,411.658 134.823,411.015Z" style="fill: #633d34; fill-rule: nonzero" />
				<g>
					<clipPath id="z">
						<path d="M134.823,411.015C137.631,410.372 144.113,407.131 154.27,401.292C165.691,429.1 173.794,450.782 178.577,466.339C183.36,481.896 189.843,510.449 198.024,552L52.177,552C39.751,517.818 34.889,498.372 37.592,493.661C41.647,486.595 49.894,488.25 57.038,488.8C49.674,482.663 46.215,474.015 47.315,464.492C48.416,454.969 67.592,450.196 76.485,440.184C85.377,430.172 89.436,411.763 95.931,411.015C102.426,410.267 101.654,416.184 105.654,415.876C108.321,415.671 111.562,412.43 115.377,406.153C125.533,410.037 132.015,411.658 134.823,411.015Z" />
					</clipPath>
					<g clip-path="url(#z)">
						<path d="M95.931,406.153C124.921,434.745 144.367,460.673 154.27,483.938C164.172,507.203 181.998,544.475 207.747,595.754L222.331,586.031L159.131,386.707L95.931,406.153Z" style="fill: #442d27; fill-rule: nonzero" />
						<path d="M149.716,517.415L115.685,478.523L81.654,449.354C99.503,457.479 112.467,465.582 120.546,473.661C128.626,481.74 138.349,496.325 149.716,517.415Z" style="fill: #7b4e48; fill-rule: nonzero" />
						<path d="M159.131,537.415L61.9,479.077C60.991,485.465 60.991,490.326 61.9,493.661C62.809,496.996 75.773,501.858 100.792,508.246L159.131,537.415Z" style="fill: #442d27; fill-rule: nonzero" />
					</g>
				</g>
				<path d="M377.177,411.015C374.369,410.372 367.887,407.131 357.73,401.292C346.309,429.1 338.206,450.782 333.423,466.339C328.64,481.896 322.157,510.449 313.976,552L459.823,552C472.249,517.818 477.111,498.372 474.408,493.661C470.353,486.595 462.106,488.25 454.962,488.8C462.326,482.663 465.785,474.015 464.685,464.492C463.584,454.969 444.408,450.196 435.515,440.184C426.623,430.172 422.564,411.763 416.069,411.015C409.574,410.267 410.346,416.184 406.346,415.876C403.679,415.671 400.438,412.43 396.623,406.153C386.467,410.037 379.985,411.658 377.177,411.015Z" style="fill: #633d34; fill-rule: nonzero" />
				<g>
					<clipPath id="A">
						<path d="M377.177,411.015C374.369,410.372 367.887,407.131 357.73,401.292C346.309,429.1 338.206,450.782 333.423,466.339C328.64,481.896 322.157,510.449 313.976,552L459.823,552C472.249,517.818 477.111,498.372 474.408,493.661C470.353,486.595 462.106,488.25 454.962,488.8C462.326,482.663 465.785,474.015 464.685,464.492C463.584,454.969 444.408,450.196 435.515,440.184C426.623,430.172 422.564,411.763 416.069,411.015C409.574,410.267 410.346,416.184 406.346,415.876C403.679,415.671 400.438,412.43 396.623,406.153C386.467,410.037 379.985,411.658 377.177,411.015Z" />
					</clipPath>
					<g clip-path="url(#A)">
						<path d="M416.069,406.153C387.079,434.745 367.633,460.673 357.73,483.938C347.828,507.203 330.002,544.475 304.253,595.754L289.669,586.031L352.869,386.707L416.069,406.153Z" style="fill: #442d27; fill-rule: nonzero" />
						<path d="M338.284,537.415L372.315,498.523L406.346,469.354C388.497,477.479 375.533,485.582 367.454,493.661C359.374,501.74 349.651,516.325 338.284,537.415Z" style="fill: #442d27; fill-rule: nonzero" />
						<path d="M352.869,537.415L450.1,479.077C450.503,487.321 450.503,492.182 450.1,493.661C449.495,495.879 438.795,499.834 432.293,502.34C427.5,504.187 420.471,506.156 411.208,508.246L352.869,537.415Z" style="fill: #7b4e48; fill-rule: nonzero" />
					</g>
				</g>
			</g>
			<g class="breath" style="--z: -0.6">
				<g>
					<path d="M336.775,263.249C338.292,269.24 357.553,264.121 361.549,262.185C365.545,260.25 367.88,252.615 374.172,244.529C378.813,238.564 385.383,233.463 386.78,226.964C388.176,220.466 384.571,191.169 377.685,190.946C368.482,190.818 361.575,193.012 356.964,197.527C352.353,202.042 350.085,206.027 350.16,209.482C340.225,241.333 335.763,259.255 336.775,263.249Z" style="fill: #f8d1bb; fill-rule: nonzero" />
					<g>
						<clipPath id="B">
							<path d="M336.775,263.249C338.292,269.24 357.553,264.121 361.549,262.185C365.545,260.25 367.88,252.615 374.172,244.529C378.813,238.564 385.383,233.463 386.78,226.964C388.176,220.466 384.571,191.169 377.685,190.946C368.482,190.818 361.575,193.012 356.964,197.527C352.353,202.042 350.085,206.027 350.16,209.482C340.225,241.333 335.763,259.255 336.775,263.249Z" />
						</clipPath>
						<g clip-path="url(#B)">
							<path d="M370.125,238.97C378.432,228.606 382.641,222.707 382.754,221.273C382.923,219.122 382.472,217.082 381.653,215.113C380.239,211.713 377.728,208.527 375.417,205.354C373.877,203.238 368.718,203.647 359.941,206.581L357.965,222.428L370.125,238.97Z" style="fill: #daaca3; fill-rule: nonzero" />
							<path d="M357.23,227.098C360.761,232.021 361.858,235.475 360.52,237.458C358.514,240.434 348.524,250.164 348.301,252.552C348.079,254.94 367.822,242.853 370.125,238.97C372.428,235.088 374.903,224.251 373.178,219.577C372.028,216.461 369.158,213.852 364.568,211.75L359.765,210.994L357.23,227.098Z" style="fill: #edbaa9; fill-rule: nonzero" />
						</g>
					</g>
					<g transform="matrix(-0.995001,0.0998695,0.0998695,0.995001,484.026,-12.3032)">
						<path d="M151.313,251.343C151.011,251.725 149.817,253.211 149.523,253.613C144.233,260.84 145.113,265.249 148.182,267.495C150.228,268.993 153.927,267.695 157.733,264.521" style="
								fill: none;
								fill-rule: nonzero;
								stroke: #423f3d;
								stroke-width: 4px;
								stroke-linecap: round;
							" />
					</g>
					<g transform="matrix(0.991444,-0.13053,0.13053,0.991444,-24.3152,52.2795)">
						<path d="M378.892,215.806C387.758,214.522 394.703,211.736 394.392,209.589C394.219,208.396 391.843,207.65 388.244,207.442" style="
								fill: none;
								fill-rule: nonzero;
								stroke: #595756;
								stroke-width: 4px;
								stroke-linecap: round;
							" />
					</g>
					<path d="M342.479,259.088C342.904,256.384 345.402,254.527 348.052,254.945C350.703,255.362 352.509,257.896 352.083,260.6C351.658,263.304 349.16,265.16 346.51,264.743C343.859,264.326 342.053,261.792 342.479,259.088Z" style="fill: #423f3d; fill-rule: nonzero" />
				</g>
				<g>
					<path d="M177.228,265.521C175.148,271.341 156.46,264.416 152.666,262.109C148.872,259.803 147.273,251.981 141.778,243.334C137.724,236.955 131.668,231.253 130.895,224.651C130.122,218.05 136.493,189.228 143.369,189.66C152.543,190.407 159.211,193.246 163.372,198.179C167.533,203.112 169.412,207.294 169.009,210.726C175.875,243.376 178.615,261.641 177.228,265.521Z" style="fill: #f8d1bb; fill-rule: nonzero" />
					<g>
						<clipPath id="C">
							<path d="M177.228,265.521C175.148,271.341 156.46,264.416 152.666,262.109C148.872,259.803 147.273,251.981 141.778,243.334C137.724,236.955 131.668,231.253 130.895,224.651C130.122,218.05 136.493,189.228 143.369,189.66C152.543,190.407 159.211,193.246 163.372,198.179C167.533,203.112 169.412,207.294 169.009,210.726C175.875,243.376 178.615,261.641 177.228,265.521Z" />
						</clipPath>
						<g clip-path="url(#C)">
							<path d="M146.334,238.185C139.049,227.078 135.419,220.806 135.443,219.368C135.478,217.211 136.121,215.222 137.124,213.34C138.854,210.091 141.657,207.157 144.258,204.217C145.992,202.258 151.007,202.258 159.304,204.217L160.01,222.872L146.334,238.185Z" style="fill: #daaca3; fill-rule: nonzero" />
							<path d="M160.298,227.59C156.315,232.157 154.896,235.491 156.039,237.592C157.753,240.744 166.775,251.38 166.769,253.778C166.763,256.176 148.258,242.268 146.334,238.185C144.41,234.102 142.975,223.078 145.136,218.589C146.577,215.596 149.682,213.272 154.451,211.615L159.304,211.319L160.298,227.59Z" style="fill: #edbaa9; fill-rule: nonzero" />
						</g>
					</g>
					<g transform="matrix(0.995001,0.0998695,-0.0998695,0.995001,27.2895,-12.4417)">
						<path d="M142.591,243.604C137.299,250.832 135.496,258.525 138.565,260.771C140.27,262.019 143.123,261.326 146.229,259.223" style="
								fill: none;
								fill-rule: nonzero;
								stroke: #3b3937;
								stroke-width: 4px;
								stroke-linecap: round;
							" />
					</g>
					<g transform="matrix(0.995001,0.0998695,-0.0998695,0.995001,27.2895,-12.4417)">
						<path d="M151.313,251.343C151.011,251.725 149.817,253.211 149.523,253.613C144.233,260.84 145.113,265.249 148.182,267.495C150.228,268.993 153.927,267.695 157.733,264.521" style="
								fill: none;
								fill-rule: nonzero;
								stroke: #423f3d;
								stroke-width: 4px;
								stroke-linecap: round;
							" />
					</g>
					<g transform="matrix(-0.859932,0.510409,-0.510409,-0.859932,595.204,305.866)">
						<path d="M342.479,259.088C342.904,256.384 345.402,254.527 348.052,254.945C350.703,255.362 352.509,257.896 352.083,260.6C351.658,263.304 349.16,265.16 346.51,264.743C343.859,264.326 342.053,261.792 342.479,259.088Z" style="fill: #423f3d; fill-rule: nonzero" />
					</g>
				</g>
			</g>
			<path class="breath" d="M158.089,154.004C148.037,189.49 165.202,285.426 179.789,303.38C194.376,321.334 231.978,351.093 242.312,354.739C252.646,358.384 260.164,354.404 267.02,352.732C273.876,351.059 310.845,327.867 326.343,305.824C341.841,283.78 340.236,279.257 345.908,264.058C351.58,248.86 380.621,175.057 361.709,128.855C342.798,82.653 318.809,63.841 276.736,60.188C234.663,56.536 212.005,72.65 189.569,94.053C167.133,115.456 168.142,118.519 158.089,154.004Z" style="fill: #f8ddc6; fill-rule: nonzero" />
			<g class="breath">
				<clipPath id="D">
					<path d="M158.089,154.004C148.037,189.49 165.202,285.426 179.789,303.38C194.376,321.334 231.978,351.093 242.312,354.739C252.646,358.384 260.164,354.404 267.02,352.732C273.876,351.059 310.845,327.867 326.343,305.824C341.841,283.78 340.236,279.257 345.908,264.058C351.58,248.86 380.621,175.057 361.709,128.855C342.798,82.653 318.809,63.841 276.736,60.188C234.663,56.536 212.005,72.65 189.569,94.053C167.133,115.456 168.142,118.519 158.089,154.004Z" />
				</clipPath>
				<g clip-path="url(#D)">
					<path d="M154.906,276.664C156.697,261.34 172.251,250.547 189.618,252.577C206.986,254.607 219.632,268.695 217.841,284.019C216.05,299.343 200.496,310.136 183.129,308.107C165.761,306.077 153.115,291.988 154.906,276.664Z" style="
							fill: #f4b9b0;
							fill-opacity: 0.5;
							fill-rule: nonzero;
						" />
					<path d="M297.849,287.531C294.061,272.576 304.747,256.948 321.698,252.655C338.648,248.361 355.485,257.018 359.273,271.974C363.061,286.93 352.375,302.558 335.425,306.851C318.474,311.144 301.637,302.487 297.849,287.531Z" style="
							fill: #f4b9b0;
							fill-opacity: 0.5;
							fill-rule: nonzero;
						" />
					<path d="M327.92,246.06C328.076,244.728 329.284,243.772 330.617,243.928C331.949,244.084 332.905,245.292 332.749,246.624C332.593,247.957 331.385,248.912 330.052,248.757C328.72,248.601 327.764,247.393 327.92,246.06Z" style="fill: #edbaa9; fill-rule: nonzero" />
					<path d="M239.625,289.582C239.781,288.25 240.989,287.294 242.321,287.45C243.654,287.606 244.609,288.814 244.453,290.147C244.298,291.479 243.089,292.434 241.757,292.279C240.424,292.123 239.469,290.915 239.625,289.582Z" style="fill: #edbaa9; fill-rule: nonzero" />
				</g>
			</g>
			<g class="nose breath" style="--z: 2">
				<path d="M257.838,225.55C256.19,225.542 254.551,226.875 252.921,229.55C247.614,256.468 245.159,271.062 245.556,273.332C245.952,275.602 250.046,279.399 257.838,284.724C265.609,279.025 269.664,275.227 270.003,273.332C270.342,271.437 267.926,256.843 262.756,229.55C261.126,226.891 259.487,225.558 257.838,225.55Z" style="fill: #f8d1bb; fill-rule: nonzero" />
				<path d="M262.756,276.929C264.296,279.551 267.519,280.521 269.947,279.095C272.376,277.668 273.097,274.381 271.557,271.759C270.701,270.302 269.326,269.355 267.857,269.046" style="
						fill: none;
						fill-rule: nonzero;
						stroke: #909090;
						stroke-width: 2px;
						stroke-linecap: round;
					" />
			</g>
			<g class="breath" style="--z: 1.25">
				<g class="mouth">
					<path d="M256,296.231C250.275,296.231 242.275,297.564 232,300.231C239.257,305.314 247.257,307.924 256,308.061C264.743,308.198 272.743,305.588 280,300.231C269.725,297.564 261.725,296.231 256,296.231Z" style="fill: #f4ceba; fill-rule: nonzero" />
					<g>
						<clipPath id="E">
							<path d="M256,296.231C250.275,296.231 242.275,297.564 232,300.231C239.257,305.314 247.257,307.924 256,308.061C264.743,308.198 272.743,305.588 280,300.231C269.725,297.564 261.725,296.231 256,296.231Z" />
						</clipPath>
						<g clip-path="url(#E)">
							<rect x="229.261" y="300" width="53.477" height="9.723" style="fill: #f3c5ad" />
						</g>
					</g>
				</g>
				<g class="open-mouth">
					<path d="M256,296.189C261.725,296.189 269.725,297.523 280,300.189C272.743,305.546 263.757,314.054 255.014,313.917C246.272,313.78 239.257,305.273 232,300.189C242.275,297.523 250.275,296.189 256,296.189Z" style="
							fill: #f4ceba;
							fill-opacity: 0.8;
							fill-rule: nonzero;
						" />
					<path d="M256.138,301.202C261.864,301.202 269.959,300.488 279.996,300.191C272.739,305.722 263.918,307.688 255.175,307.547C246.433,307.405 232.01,300.193 232.01,300.193C232.01,300.193 250.413,301.202 256.138,301.202Z" style="
							fill: #cc9898;
							fill-opacity: 0.3;
							fill-rule: nonzero;
						" />
					<path d="M255.229,307.58C260.954,307.58 270.681,303.419 280,300.189C272.743,305.546 264.282,314.431 255.539,314.295C246.796,314.158 239.257,305.273 232,300.189C242.219,301.651 249.504,307.58 255.229,307.58Z" style="fill: #f4ceba; fill-rule: nonzero" />
				</g>
			</g>
			<g class="breath" style="--z: 1.5">
				<path d="M228.158,215.173C232.954,222.078 235.189,230.033 234.864,239.037C230.364,242.088 223.278,244.424 220.694,245C218.11,245.576 209.109,246.401 196.086,242.012C191.297,240.399 186.201,237.539 180.8,233.433C182.773,224.67 185.508,217.959 189.007,213.3C195.945,204.061 204.699,202.077 207.653,202.118C210.607,202.16 223.448,205.417 228.158,215.173Z" style="fill: #fff; fill-opacity: 0.75; fill-rule: nonzero" />
				<g>
					<clipPath id="F">
						<path class="eyelid" d="M228.158,215.173C232.954,222.078 235.189,230.033 234.864,239.037C230.364,242.088 223.278,244.424 220.694,245C218.11,245.576 209.109,246.401 196.086,242.012C191.297,240.399 186.201,237.539 180.8,233.433C182.773,224.67 185.508,217.959 189.007,213.3C195.945,204.061 204.699,202.077 207.653,202.118C210.607,202.16 223.448,205.417 228.158,215.173Z" />
					</clipPath>
					<g clip-path="url(#F)">
						<g class="pupil">
							<path d="M190.57,224.205C190.529,212.159 198.64,202.351 208.673,202.317C218.706,202.282 226.884,212.034 226.926,224.08C226.967,236.126 218.856,245.934 208.823,245.969C198.79,246.003 190.612,236.251 190.57,224.205Z" style="fill: #566; fill-rule: nonzero" />
							<g>
								<clipPath id="G">
									<path d="M190.57,224.205C190.529,212.159 198.64,202.351 208.673,202.317C218.706,202.282 226.884,212.034 226.926,224.08C226.967,236.126 218.856,245.934 208.823,245.969C198.79,246.003 190.612,236.251 190.57,224.205Z" />
								</clipPath>
								<g clip-path="url(#G)">
									<g transform="matrix(1,-0.003,0.003,1,-0.81,0.734)">
										<rect x="187.828" y="223.191" width="50.339" height="25.379" style="fill: #58a2a2" />
									</g>
								</g>
							</g>
							<path d="M199.236,224.175C199.214,217.872 203.459,212.739 208.709,212.721C213.959,212.703 218.238,217.806 218.26,224.11C218.282,230.413 214.037,235.546 208.787,235.564C203.537,235.582 199.258,230.479 199.236,224.175Z" style="
									fill: none;
									fill-rule: nonzero;
									stroke: #fff;
									stroke-opacity: 0.75;
									stroke-width: 3px;
									stroke-linecap: square;
									stroke-linejoin: miter;
								" />
							<path d="M199.236,224.175C199.214,217.872 203.459,212.739 208.709,212.721C213.959,212.703 218.238,217.806 218.26,224.11C218.282,230.413 214.037,235.546 208.787,235.564C203.537,235.582 199.258,230.479 199.236,224.175Z" style="fill: #423f3d; fill-rule: nonzero" />
						</g>
					</g>
				</g>
				<path d="M292.256,214.263C287.245,221.014 284.759,228.894 284.8,237.905C289.203,241.096 296.211,243.654 298.776,244.312C301.34,244.969 310.311,246.077 323.466,242.101C328.303,240.639 333.486,237.941 339.014,234.008C337.319,225.187 334.796,218.393 331.446,213.626C324.803,204.173 316.116,201.913 313.162,201.862C310.208,201.81 297.271,204.661 292.256,214.263Z" style="fill: #fff; fill-opacity: 0.75; fill-rule: nonzero" />
				<g>
					<clipPath id="H">
						<path class="eyelid" d="M292.256,214.263C287.245,221.014 284.759,228.894 284.8,237.905C289.203,241.096 296.211,243.654 298.776,244.312C301.34,244.969 310.311,246.077 323.466,242.101C328.303,240.639 333.486,237.941 339.014,234.008C337.319,225.187 334.796,218.393 331.446,213.626C324.803,204.173 316.116,201.913 313.162,201.862C310.208,201.81 297.271,204.661 292.256,214.263Z" />
					</clipPath>
					<g clip-path="url(#H)">
						<g class="pupil">
							<path d="M329.551,223.858C329.562,211.811 321.426,202.024 311.394,202.015C301.361,202.005 293.207,211.778 293.195,223.824C293.184,235.87 301.32,245.657 311.353,245.667C321.385,245.676 329.54,235.904 329.551,223.858Z" style="fill: #566; fill-rule: nonzero" />
							<g>
								<clipPath id="I">
									<path d="M329.551,223.858C329.562,211.811 321.426,202.024 311.394,202.015C301.361,202.005 293.207,211.778 293.195,223.824C293.184,235.87 301.32,245.657 311.353,245.667C321.385,245.676 329.54,235.904 329.551,223.858Z" />
								</clipPath>
								<g clip-path="url(#I)">
									<g transform="matrix(1,0.001,-0.001,1,0.22,-0.287)">
										<rect x="281.984" y="222.9" width="50.339" height="25.379" style="fill: #58a2a2" />
									</g>
								</g>
							</g>
							<path d="M320.885,223.85C320.891,217.546 316.634,212.424 311.384,212.419C306.134,212.415 301.867,217.528 301.861,223.832C301.855,230.135 306.113,235.257 311.363,235.262C316.612,235.267 320.879,230.153 320.885,223.85Z" style="
									fill: none;
									fill-rule: nonzero;
									stroke: #fff;
									stroke-opacity: 0.75;
									stroke-width: 3px;
									stroke-linecap: square;
									stroke-linejoin: miter;
								" />
							<path d="M320.885,223.85C320.891,217.546 316.634,212.424 311.384,212.419C306.134,212.415 301.867,217.528 301.861,223.832C301.855,230.135 306.113,235.257 311.363,235.262C316.612,235.267 320.879,230.153 320.885,223.85Z" style="fill: #423f3d; fill-rule: nonzero" />
						</g>
					</g>
				</g>
			</g>
			<g class="breath" style="--z: 1.5">
				<g class="eyebrow">
					<path d="M310.614,188.732L278.946,187.478C291.587,180.017 301.809,176.317 309.611,176.378C317.412,176.439 328.303,180.975 342.283,189.986L310.614,188.732Z" style="fill: #5e4038; fill-rule: nonzero" />
					<path d="M206.892,188.785L238.524,186.803C225.714,179.636 215.41,176.172 207.611,176.412C199.813,176.652 189.03,181.437 175.261,190.767L206.892,188.785Z" style="fill: #5e4038; fill-rule: nonzero" />
				</g>
			</g>
			<g class="glasses breath" style="--z: 2">
				<path d="M152.226,185.576C153.681,192.418 161.628,215.911 160.862,216C160.241,216.073 162.61,213.406 167.97,208C159.206,193.676 153.996,185.633 152.341,183.871C151.901,183.402 151.913,184.104 152.226,185.576Z" style="fill: #423f3d; fill-rule: nonzero" />
				<g>
					<clipPath id="J">
						<path d="M152.226,185.576C153.681,192.418 161.628,215.911 160.862,216C160.241,216.073 162.61,213.406 167.97,208C159.206,193.676 153.996,185.633 152.341,183.871C151.901,183.402 151.913,184.104 152.226,185.576Z" />
					</clipPath>
					<g clip-path="url(#J)">
						<g transform="matrix(0.421,0.907,-0.79,0.673,243.243,-71.564)">
							<rect x="123.213" y="192.186" width="54.127" height="11.305" style="fill: #3e3c3b" />
						</g>
					</g>
				</g>
				<path d="M163.774,209.959C184.699,208.888 211.067,209.868 242.878,212.901C244.19,228.63 243.066,241.193 239.505,250.59C220.036,254.848 196.191,255.096 167.97,251.335C164.271,234.696 162.872,220.904 163.774,209.959Z" style="
						fill: none;
						fill-rule: nonzero;
						stroke: #423f3d;
						stroke-width: 6px;
					" />
				<path d="M353.606,216C354.212,216.155 352.879,213.122 349.606,206.903C361.088,193.874 367.767,186.597 369.642,185.07C372.455,182.78 352.697,215.768 353.606,216Z" style="fill: #423f3d; fill-rule: nonzero" />
				<g>
					<clipPath id="K">
						<path d="M353.606,216C354.212,216.155 352.879,213.122 349.606,206.903C361.088,193.874 367.767,186.597 369.642,185.07C372.455,182.78 352.697,215.768 353.606,216Z" />
					</clipPath>
					<g clip-path="url(#K)">
						<g transform="matrix(0.538,-0.843,0.693,0.772,33.422,355.034)">
							<rect x="341.034" y="191.178" width="54.127" height="11.305" style="fill: #3e3c3b" />
						</g>
					</g>
				</g>
				<path d="M352.093,207.999C331.151,207.364 304.809,208.893 273.068,212.587C272.083,228.34 273.469,240.877 277.225,250.198C296.778,254.049 320.622,253.801 348.759,249.453C352.112,232.741 353.223,218.923 352.093,207.999Z" style="
						fill: none;
						fill-rule: nonzero;
						stroke: #423f3d;
						stroke-width: 6px;
					" />
				<path d="M243.631,221.414C245.926,217.966 250.72,216.331 258.012,216.509C265.304,216.687 270.234,218.322 272.801,221.414" style="
						fill: none;
						fill-rule: nonzero;
						stroke: #423f3d;
						stroke-width: 6px;
					" />
			</g>
			<g class="breath" style="--z: 3">
				<path d="M316,48C283.866,29.21 258.533,19.877 240,20C212.201,20.185 195.276,29.515 180,48C164.724,66.485 155.159,100.342 144,117.668C136.561,129.219 132.561,156.663 132,200L316,48Z" style="fill: #5e4038; fill-rule: nonzero" />
				<path d="M316,108C329.015,136.16 338.152,158.936 343.412,176.329C348.671,193.721 348.671,218.945 343.412,252C356.714,236.893 366.348,223.456 372.315,211.691C381.265,194.043 380.356,173.012 378.091,151.871C375.826,130.73 371.816,79.134 343.412,64C324.476,53.911 315.339,68.577 316,108Z" style="fill: #5e4038; fill-rule: nonzero" />
				<path d="M316,108C304.939,102.36 296.037,99.762 289.292,100.205C282.547,100.648 270.877,106.469 254.282,117.668C259.683,92.471 265.532,74.98 271.829,65.195C281.274,50.518 302.173,18.473 320,20.094C322.9,20.137 332.344,24.475 336,28C339.656,31.525 348.656,43.6 348,54.975C347.37,65.888 341.075,71.503 332.537,80.691C326.846,86.816 321.333,95.919 316,108Z" style="fill: #5b3c34; fill-rule: nonzero" />
				<g>
					<clipPath id="L">
						<path d="M316,108C304.939,102.36 296.037,99.762 289.292,100.205C282.547,100.648 270.877,106.469 254.282,117.668C259.683,92.471 265.532,74.98 271.829,65.195C281.274,50.518 302.173,18.473 320,20.094C322.9,20.137 332.344,24.475 336,28C339.656,31.525 348.656,43.6 348,54.975C347.37,65.888 341.075,71.503 332.537,80.691C326.846,86.816 321.333,95.919 316,108Z" />
					</clipPath>
					<g clip-path="url(#L)">
						<path d="M316,108C305.913,107.611 297.913,107.611 292,108C286.087,108.389 275.516,110.506 260.289,114.351C264.332,93.336 269.459,78.001 275.672,68.346C284.992,53.864 304.881,23.177 323.533,29.591C342.185,36.006 344.98,46.328 342.454,59.387C340.4,70 323.485,83.945 316,92C311.01,97.37 311.01,102.703 316,108Z" style="fill: #462f28; fill-rule: nonzero" />
						<g>
							<clipPath id="M">
								<path d="M316,108C305.913,107.611 297.913,107.611 292,108C286.087,108.389 275.516,110.506 260.289,114.351C264.332,93.336 269.459,78.001 275.672,68.346C284.992,53.864 304.881,23.177 323.533,29.591C342.185,36.006 344.98,46.328 342.454,59.387C340.4,70 323.485,83.945 316,92C311.01,97.37 311.01,102.703 316,108Z" />
							</clipPath>
							<g clip-path="url(#M)">
								<path d="M248,132C251.094,121.762 292.989,87.36 304,64C311.341,48.427 316.674,33.791 320,20.094C277.893,41.588 253.893,64.223 248,88C239.161,123.665 244.906,142.238 248,132Z" style="fill: #3e2923; fill-rule: nonzero" />
							</g>
						</g>
					</g>
				</g>
				<path d="M320,20.094C307.793,19.126 289.097,14.903 268,20.094C246.903,25.285 225.194,33.597 212,50.975C198.806,68.354 197.786,102.2 168,120C138.214,137.8 121.689,194.02 118.802,219.904C115.915,245.789 116.101,271.032 132.601,292.226C143.6,306.355 150.654,316.946 153.763,323.999C138.986,284.417 135.253,253.358 142.564,230.823C153.532,197.019 164.344,202.672 185.129,188.354C205.914,174.036 223.284,177.97 237.651,162.651C252.018,147.332 257.267,107.841 268,92C278.733,76.159 302.916,58.885 320,20.094Z" style="fill: #5b3c34; fill-rule: nonzero" />
			</g>
		</g>
		<g class="dialog-5">
			<path d=" M 543.54 442.992 Q 540.599 443.14 541.063 440.62 Q 543.711 436.979 544.778 433.505 C 545.844 430.03 545.91 377.421 546.635 363.537 Q 546.635 355.631 554.064 355.235 L 903.571 355.235 Q 910.69 356.026 911 363.537 Q 911 377.421 911 433.505 Q 909.452 441.806 903.571 442.992 C 816.881 442.992 678.687 442.992 543.54 442.992 Z " fill="rgb(57,56,56)" />
			<g clip-path="url(#_clipPath_cd6GMJ8GaVQpHZEklPJY27QnsFp6XqOK)">
				<text transform="matrix(1,0,0,1,565,381.172)" style="
						font-family: monospace;
						font-weight: 400;
						font-size: 16px;
						font-style: normal;
						fill: #e8e8e8;
						stroke: none;
					">
					If you want to learn more about me,
				</text>
				<text transform="matrix(1,0,0,1,565,404.61)" style="
						font-family: monospace;
						font-weight: 400;
						font-size: 16px;
						font-style: normal;
						fill: #e8e8e8;
						stroke: none;
					">
					I'm @rightonhana everywhere, or
				</text>
				<text transform="matrix(1,0,0,1,565,428.047)" style="
						font-family: monospace;
						font-weight: 400;
						font-size: 16px;
						font-style: normal;
						fill: #e8e8e8;
						stroke: none;
					">
					you can go to  rightonhana.dev
				</text>
			</g>
			<defs>
				<clipPath id="_clipPath_cd6GMJ8GaVQpHZEklPJY27QnsFp6XqOK">
					<rect x="0" y="0" width="338.571" height="73" transform="matrix(1,0,0,1,565,362.618)" />
				</clipPath>
			</defs>
		</g>
		<g class="dialog-4">
			<path d=" M 543.142 442.993 Q 540.662 443.118 541.053 440.993 Q 543.286 437.923 544.186 434.993 C 545.085 432.063 545.141 416.701 545.752 404.993 Q 545.752 398.326 552.016 397.993 L 823.736 397.993 Q 829.739 398.66 830 404.993 Q 830 416.701 830 434.993 Q 828.695 441.993 823.736 442.993 C 750.635 442.993 657.103 442.993 543.142 442.993 Z " fill="rgb(57,56,56)" />
			<g clip-path="url(#_clipPath_Ms0lecwxuJ44rVCTRwPcoZdoHehpvDLq)">
				<text transform="matrix(1,0,0,1,559.408,426.799)" style="
						font-family: monospace;
						font-weight: 400;
						font-size: 16px;
						font-style: normal;
						fill: #e8e8e8;
						stroke: none;
					">
					My pronouns are She/Her 
				</text>
			</g>
			<defs>
				<clipPath id="_clipPath_Ms0lecwxuJ44rVCTRwPcoZdoHehpvDLq">
					<rect x="0" y="0" width="258.183" height="24.503" transform="matrix(1,0,0,1,559.408,408.245)" />
				</clipPath>
			</defs>
		</g>
		<g class="dialog-3">
			<path d=" M 543.54 442.992 Q 540.599 443.14 541.063 440.62 Q 543.711 436.979 544.778 433.505 C 545.844 430.03 545.91 377.421 546.635 363.537 Q 546.635 355.631 554.064 355.235 L 903.571 355.235 Q 910.69 356.026 911 363.537 Q 911 377.421 911 433.505 Q 909.452 441.806 903.571 442.992 C 816.881 442.992 678.687 442.992 543.54 442.992 Z " fill="rgb(57,56,56)" />
			<g clip-path="url(#_clipPath_cd6GMJ8GaVQpHZEklPJY27QnsFp6XqOK)">
				<text transform="matrix(1,0,0,1,565,381.172)" style="
						font-family: monospace;
						font-weight: 400;
						font-size: 16px;
						font-style: normal;
						fill: #e8e8e8;
						stroke: none;
					">
					I'm a Front-end Developer with
				</text>
				<text transform="matrix(1,0,0,1,565,404.61)" style="
						font-family: monospace;
						font-weight: 400;
						font-size: 16px;
						font-style: normal;
						fill: #e8e8e8;
						stroke: none;
					">
					experience in Angular, React and
				</text>
				<text transform="matrix(1,0,0,1,565,428.047)" style="
						font-family: monospace;
						font-weight: 400;
						font-size: 16px;
						font-style: normal;
						fill: #e8e8e8;
						stroke: none;
					">
					Svelte.
				</text>
			</g>
			<defs>
				<clipPath id="_clipPath_cd6GMJ8GaVQpHZEklPJY27QnsFp6XqOK">
					<rect x="0" y="0" width="338.571" height="73" transform="matrix(1,0,0,1,565,362.618)" />
				</clipPath>
			</defs>
		</g>
		<g class="dialog-2">
			<path d=" M 543.742 442.16 Q 540.567 442.285 541.068 440.155 Q 543.927 437.077 545.078 434.139 C 546.23 431.202 546.301 394.748 547.084 383.011 Q 547.084 376.327 555.104 375.993 L 902.98 375.993 Q 910.666 376.661 911 383.011 Q 911 394.748 911 434.139 Q 909.329 441.157 902.98 442.16 C 809.39 442.16 689.644 442.16 543.742 442.16 Z " fill="rgb(57,56,56)" />
			<g clip-path="url(#_clipPath_ESlM0h8RX5VXCFQgA5t80sqGiBmZNFpN)">
				<text transform="matrix(1,0,0,1,561.068,404.114)" style="
						font-family: monospace;
						font-weight: 400;
						font-size: 16px;
						font-style: normal;
						fill: #e8e8e8;
						stroke: none;
					">
					I'm born and raised in Argentina 
				</text>
				<text transform="matrix(1,0,0,1,561.068,427.551)" style="
						font-family: monospace;
						font-weight: 400;
						font-size: 16px;
						font-style: normal;
						fill: #e8e8e8;
						stroke: none;
					">
					now living in Chicago, Illinois 
				</text>
			</g>
			<defs>
				<clipPath id="_clipPath_ESlM0h8RX5VXCFQgA5t80sqGiBmZNFpN">
					<rect x="0" y="0" width="341" height="46.875" transform="matrix(1,0,0,1,561.068,385.559)" />
				</clipPath>
			</defs>
		</g>
		<g class="dialog-1">
			<path d=" M 543.297 442.993 Q 540.637 443.118 541.057 440.993 Q 543.452 437.923 544.417 434.993 C 545.382 432.063 545.441 416.701 546.097 404.993 Q 546.097 398.326 552.817 397.993 L 896.28 397.993 Q 902.72 398.66 903 404.993 Q 903 416.701 903 434.993 Q 901.6 441.993 896.28 442.993 C 817.868 442.993 665.54 442.993 543.297 442.993 Z " fill="rgb(57,56,56)" />
			<g clip-path="url(#_clipPath_3D2gxkuakMBlARHwnRYqTgx1WEIpF5CZ)">
				<text transform="matrix(1,0,0,1,559,427.048)" style="
						font-family: monospace;
						font-weight: 400;
						font-size: 16px;
						font-style: normal;
						fill: #e8e8e8;
						stroke: none;
					">
					Hi there  I'm Florencia Gonzalez
				</text>
			</g>
			<defs>
				<clipPath id="_clipPath_3D2gxkuakMBlARHwnRYqTgx1WEIpF5CZ">
					<rect x="0" y="0" width="350" height="24.007" transform="matrix(1,0,0,1,559,408.493)" />
				</clipPath>
			</defs>
		</g>
	</g>
</svg>
