<svg
	class="avatar"
	xmlns="http://www.w3.org/2000/svg"
	xmlns:xlink="http://www.w3.org/1999/xlink"
	style="isolation: isolate"
	viewBox="0 0 1024 512"
	width="1024pt"
	height="512pt"
>
	<style>
		.dialog-1 {
			opacity: 0;
			animation: greet 7s both;
		}

		.dialog-2 {
			opacity: 0;
			animation: from 7s both;
		}

		.dialog-3 {
			opacity: 0;
			animation: profession 7s both;
		}

		.dialog-4 {
			opacity: 0;
			animation: pronouns 7s both;
		}

		.dialog-5 {
			opacity: 0;
			animation: contact 7s both;
		}

		.eyelid {
			animation: eye 3s ease-in-out infinite;
			transform-origin: center;
		}

		.pupil {
			animation: pupil 15s ease-out infinite;
			transform-origin: center;
		}

		.eyebrow {
			animation: eyebrow 3s ease-in-out infinite;
			transform-origin: center;
		}

		.open-mouth {
			opacity: 0;
			animation: 0.3s step-start 0s 22 talk;
		}

		@keyframes greet {
			0% {
				opacity: 0;
				transform: translate(0, 0);
			}
			20% {
				opacity: 1;
				transform: translate(0, 0);
			}
			40% {
				opacity: 1;
				transform: translate(0, -78px);
			}
			60% {
				opacity: 1;
				transform: translate(0, -180px);
			}
			80% {
				opacity: 1;
				transform: translate(0, -234px);
			}
			100% {
				opacity: 1;
				transform: translate(0, -333px);
			}
		}

		@keyframes from {
			0%,
			20% {
				opacity: 0;
				transform: translate(0, 0);
			}
			40% {
				opacity: 1;
				transform: translate(0, 0);
			}
			60% {
				opacity: 1;
				transform: translate(0, -100px);
			}
			80% {
				opacity: 1;
				transform: translate(0, -155px);
			}
			100% {
				opacity: 1;
				transform: translate(0, -252px);
			}
		}

		@keyframes profession {
			0%,
			40% {
				opacity: 0;
				transform: translate(0, 0);
			}
			60% {
				opacity: 1;
				transform: translate(0, 0);
			}
			80% {
				opacity: 1;
				transform: translate(0, -56px);
			}
			100% {
				opacity: 1;
				transform: translate(0, -155px);
			}
		}

		@keyframes pronouns {
			0%,
			60% {
				opacity: 0;
				transform: translate(0, 0);
			}
			80% {
				opacity: 1;
				transform: translate(0, 0);
			}
			100% {
				opacity: 1;
				transform: translate(0, -99px);
			}
		}

		@keyframes contact {
			0%,
			80% {
				opacity: 0;
				transform: translate(0, 0);
			}
			100% {
				opacity: 1;
				transform: translate(0, 0);
			}
		}

		@keyframes eye {
			5%,
			20% {
				transform: scale(1, 1);
				stroke-width: 2px;
			}
			10%,
			15% {
				transform: scale(1, 0);
				stroke-width: 20px;
			}
		}

		@keyframes pupil {
			5%,
			20% {
				transform: translate(5px, -1px);
			}
			10%,
			15% {
				transform: translate(-5px, 1px);
			}
			20%,
			100% {
				transform: translate(0, 0);
			}
		}

		@keyframes eyebrow {
			0%,
			9% {
				transform: translate(0, 0);
			}
			10%,
			15% {
				transform: translate(0, 0.5px);
			}
			16%,
			100% {
				transform: translate(0, 0);
			}
		}

		@keyframes talk {
			50% {
				opacity: 1;
			}
		}
	</style>
	<defs>
		<clipPath id="_clipPath_uSaH7GvzYbWeM4qHwkmFMFjBW04XGMZb">
			<rect width="1024" height="512" />
		</clipPath>
	</defs>
	<g clip-path="url(#_clipPath_uSaH7GvzYbWeM4qHwkmFMFjBW04XGMZb)">
		<g>
			<path
				d="M254.64,311.615C266.295,310.394 288.556,318.743 341.017,337.284L344.824,318.364C348.37,320.982 351.584,325.249 354.467,331.166C357.349,337.082 371.137,339.404 395.831,338.131C406.358,319.74 411.651,295.689 411.708,265.976C411.801,217.616 394.123,205.368 389.745,186.206C385.367,167.045 385.367,167.045 377.142,137.51C359.138,93.392 347.333,68.842 341.728,63.859C336.593,59.294 324.407,55.976 305.171,53.905C303.485,45.99 301.523,41.232 299.343,40.734C282.429,36.867 225.589,35.255 209.565,40.734C193.54,46.213 184.408,56.385 176,63.859C167.592,71.333 142.595,91.374 132,112C121.405,132.626 127.413,165.292 119.535,186.206C111.658,207.12 97.478,217.616 97.572,265.976C97.629,295.689 102.921,319.74 113.448,338.131C138.142,339.404 151.93,337.082 154.813,331.166C157.696,325.249 160.91,320.982 164.456,318.364L168.263,337.284C218.078,320.986 246.87,312.43 254.64,311.615Z"
				style="fill: #5e4038; fill-rule: nonzero"
			/>
			<g>
				<clipPath id="_clip2">
					<path
						d="M254.64,311.615C266.295,310.394 288.556,318.743 341.017,337.284L344.824,318.364C348.37,320.982 351.584,325.249 354.467,331.166C357.349,337.082 371.137,339.404 395.831,338.131C406.358,319.74 411.651,295.689 411.708,265.976C411.801,217.616 394.123,205.368 389.745,186.206C385.367,167.045 385.367,167.045 377.142,137.51C359.138,93.392 347.333,68.842 341.728,63.859C336.593,59.294 324.407,55.976 305.171,53.905C303.485,45.99 301.523,41.232 299.343,40.734C282.429,36.867 225.589,35.255 209.565,40.734C193.54,46.213 184.408,56.385 176,63.859C167.592,71.333 142.595,91.374 132,112C121.405,132.626 127.413,165.292 119.535,186.206C111.658,207.12 97.478,217.616 97.572,265.976C97.629,295.689 102.921,319.74 113.448,338.131C138.142,339.404 151.93,337.082 154.813,331.166C157.696,325.249 160.91,320.982 164.456,318.364L168.263,337.284C218.078,320.986 246.87,312.43 254.64,311.615Z"
					/>
				</clipPath>
				<g clip-path="url(#_clip2)">
					<path
						d="M368,116C378.515,119.396 397.2,204.556 392.368,244.782C388.901,273.649 393.604,330.966 395.664,343.681C398.951,363.97 378.142,347.147 333.239,293.21C349.403,172.806 360.99,113.736 368,116Z"
						style="fill: #5b3c34; fill-rule: nonzero"
					/>
					<path
						d="M375.031,352.878C394.098,323.297 391.431,248.631 367.031,128.878C231.76,104.502 162.427,100.502 159.031,116.878C153.936,141.441 117.324,330.371 143.031,348.878C168.737,367.385 346.43,397.248 375.031,352.878Z"
						style="fill: #462f28; fill-rule: nonzero"
					/>
				</g>
			</g>
			<g
				transform="matrix(-0.312445,0.0724579,-0.085675,-0.369439,478.62,513.393)"
			>
				<path
					d="M351.876,384.242L360.394,396.126L343.357,396.126L351.876,384.242Z"
					style="fill: #d6d4d4"
				/>
			</g>
			<g
				transform="matrix(0.443106,0.102759,0.085675,-0.369439,-21.2765,505.945)"
			>
				<path
					d="M351.876,384.242L360.394,396.126L343.357,396.126L351.876,384.242Z"
					style="fill: #a69b9b"
				/>
			</g>
			<path
				d="M208.836,312.883C211.963,331.624 213.238,348.719 212.66,364.17C212.498,368.496 212.191,372.693 211.739,376.761C184.931,388.167 153.717,406.045 117.969,430.232L254.502,479.157L386.941,429.849C357.109,406.116 329.668,388.493 304.618,376.98C299.881,356.251 298.17,326.729 299.483,288.414L208.836,312.883Z"
				style="fill: #f8dec8; fill-rule: nonzero"
			/>
			<g>
				<clipPath id="_clip3">
					<path
						d="M208.836,312.883C211.963,331.624 213.238,348.719 212.66,364.17C212.498,368.496 212.191,372.693 211.739,376.761C184.931,388.167 153.717,406.045 117.969,430.232L139.724,520.56L253.723,545.781L390.924,505.427L386.941,429.849C357.109,406.116 329.668,388.493 304.618,376.98C299.881,356.251 298.17,326.729 299.483,288.414L208.836,312.883Z"
					/>
				</clipPath>
				<g clip-path="url(#_clip3)">
					<path
						d="M315.141,300.669C315.141,300.669 276.046,367.884 238.878,387.33C201.709,406.777 131.173,395.539 131.173,395.539L132,284L311,240L315.141,300.669Z"
						style="fill: #f4ceba; fill-rule: nonzero"
					/>
					<path
						d="M324.183,318C324.183,318 283.54,355.991 252.084,368.192C231.268,376.266 167.027,316.152 167.027,316.152L164.555,270.006L366.483,256.509L324.183,318Z"
						style="
							fill: #cc9898;
							fill-opacity: 0.3;
							fill-rule: nonzero;
						"
					/>
					<g transform="matrix(1,0,0,1,9,-8)">
						<path
							d="M274.316,430.563L295.211,418.143L344.588,413.679L274.316,430.563Z"
							style="
								fill: #cc9898;
								fill-opacity: 0.3;
								fill-rule: nonzero;
							"
						/>
					</g>
					<g transform="matrix(-1,0,0,1,494.904,-8)">
						<path
							d="M274.316,430.563L295.211,418.143L344.588,413.679L274.316,430.563Z"
							style="
								fill: #cc9898;
								fill-opacity: 0.3;
								fill-rule: nonzero;
							"
						/>
					</g>
				</g>
			</g>
			<g>
				<g
					transform="matrix(0.505759,0.131166,0.141056,-0.54389,-75.2624,571.699)"
				>
					<path
						d="M351.876,384.242L360.394,396.126L343.357,396.126L351.876,384.242Z"
						style="fill: #954f58"
					/>
				</g>
				<g
					transform="matrix(-0.505759,0.131166,-0.141056,-0.54389,587.262,571.703)"
				>
					<path
						d="M351.876,384.242L360.394,396.126L343.357,396.126L351.876,384.242Z"
						style="fill: #b76771"
					/>
				</g>
				<path
					d="M164.781,394.857C190.554,422.074 217.656,437.725 246.089,441.812C274.521,445.899 304.956,429.272 337.393,391.93L355.132,404.5L386.9,425.6L379.157,537.415L109.791,552L100.068,449.907L152.951,407.791L164.781,394.857Z"
					style="fill: #c6c6c6; fill-rule: nonzero"
				/>
				<g>
					<clipPath id="_clip4">
						<path
							d="M164.781,394.857C190.554,422.074 217.656,437.725 246.089,441.812C274.521,445.899 304.956,429.272 337.393,391.93L355.132,404.5L386.9,425.6L379.157,537.415L109.791,552L100.068,449.907L152.951,407.791L164.781,394.857Z"
						/>
					</clipPath>
					<g clip-path="url(#_clip4)">
						<path
							d="M359.454,384L287.454,528L367.454,552L359.454,384Z"
							style="fill: #b9b7b7; fill-rule: nonzero"
						/>
						<path
							d="M143.822,372.122L367.454,372.122C345.866,412.261 324.799,436.569 304.253,445.046C273.435,457.761 229.377,456.034 192.438,440.184C167.811,429.617 151.606,406.93 143.822,372.122Z"
							style="fill: #e8e8e8; fill-rule: nonzero"
						/>
					</g>
				</g>
				<path
					d="M134.823,411.015C137.631,410.372 144.113,407.131 154.27,401.292C165.691,429.1 173.794,450.782 178.577,466.339C183.36,481.896 189.843,510.449 198.024,552L52.177,552C39.751,517.818 34.889,498.372 37.592,493.661C41.647,486.595 49.894,488.25 57.038,488.8C49.674,482.663 46.215,474.015 47.315,464.492C48.416,454.969 67.592,450.196 76.485,440.184C85.377,430.172 89.436,411.763 95.931,411.015C102.426,410.267 101.654,416.184 105.654,415.876C108.321,415.671 111.562,412.43 115.377,406.153C125.533,410.037 132.015,411.658 134.823,411.015Z"
					style="fill: #ebb4ba; fill-rule: nonzero"
				/>
				<g>
					<clipPath id="_clip5">
						<path
							d="M134.823,411.015C137.631,410.372 144.113,407.131 154.27,401.292C165.691,429.1 173.794,450.782 178.577,466.339C183.36,481.896 189.843,510.449 198.024,552L52.177,552C39.751,517.818 34.889,498.372 37.592,493.661C41.647,486.595 49.894,488.25 57.038,488.8C49.674,482.663 46.215,474.015 47.315,464.492C48.416,454.969 67.592,450.196 76.485,440.184C85.377,430.172 89.436,411.763 95.931,411.015C102.426,410.267 101.654,416.184 105.654,415.876C108.321,415.671 111.562,412.43 115.377,406.153C125.533,410.037 132.015,411.658 134.823,411.015Z"
						/>
					</clipPath>
					<g clip-path="url(#_clip5)">
						<path
							d="M95.931,406.153C124.921,434.745 144.367,460.673 154.27,483.938C164.172,507.203 181.998,544.475 207.747,595.754L222.331,586.031L159.131,386.707L95.931,406.153Z"
							style="fill: #d37683; fill-rule: nonzero"
						/>
						<path
							d="M149.716,517.415L115.685,478.523L81.654,449.354C99.503,457.479 112.467,465.582 120.546,473.661C128.626,481.74 138.349,496.325 149.716,517.415Z"
							style="fill: #b76771; fill-rule: nonzero"
						/>
						<path
							d="M159.131,537.415L61.9,479.077C60.991,485.465 60.991,490.326 61.9,493.661C62.809,496.996 75.773,501.858 100.792,508.246L159.131,537.415Z"
							style="fill: #954f58; fill-rule: nonzero"
						/>
					</g>
				</g>
				<path
					d="M377.177,411.015C374.369,410.372 367.887,407.131 357.73,401.292C346.309,429.1 338.206,450.782 333.423,466.339C328.64,481.896 322.157,510.449 313.976,552L459.823,552C472.249,517.818 477.111,498.372 474.408,493.661C470.353,486.595 462.106,488.25 454.962,488.8C462.326,482.663 465.785,474.015 464.685,464.492C463.584,454.969 444.408,450.196 435.515,440.184C426.623,430.172 422.564,411.763 416.069,411.015C409.574,410.267 410.346,416.184 406.346,415.876C403.679,415.671 400.438,412.43 396.623,406.153C386.467,410.037 379.985,411.658 377.177,411.015Z"
					style="fill: #eab4bb; fill-rule: nonzero"
				/>
				<g>
					<clipPath id="_clip6">
						<path
							d="M377.177,411.015C374.369,410.372 367.887,407.131 357.73,401.292C346.309,429.1 338.206,450.782 333.423,466.339C328.64,481.896 322.157,510.449 313.976,552L459.823,552C472.249,517.818 477.111,498.372 474.408,493.661C470.353,486.595 462.106,488.25 454.962,488.8C462.326,482.663 465.785,474.015 464.685,464.492C463.584,454.969 444.408,450.196 435.515,440.184C426.623,430.172 422.564,411.763 416.069,411.015C409.574,410.267 410.346,416.184 406.346,415.876C403.679,415.671 400.438,412.43 396.623,406.153C386.467,410.037 379.985,411.658 377.177,411.015Z"
						/>
					</clipPath>
					<g clip-path="url(#_clip6)">
						<path
							d="M416.069,406.153C387.079,434.745 367.633,460.673 357.73,483.938C347.828,507.203 330.002,544.475 304.253,595.754L289.669,586.031L352.869,386.707L416.069,406.153Z"
							style="fill: #d27783; fill-rule: nonzero"
						/>
						<path
							d="M338.284,537.415L372.315,498.523L406.346,469.354C388.497,477.479 375.533,485.582 367.454,493.661C359.374,501.74 349.651,516.325 338.284,537.415Z"
							style="fill: #944e58; fill-rule: nonzero"
						/>
						<path
							d="M352.869,537.415L450.1,479.077C450.503,487.321 450.503,492.182 450.1,493.661C449.495,495.879 438.795,499.834 432.293,502.34C427.5,504.187 420.471,506.156 411.208,508.246L352.869,537.415Z"
							style="fill: #b76771; fill-rule: nonzero"
						/>
					</g>
				</g>
			</g>
			<g>
				<g>
					<path
						d="M336.775,263.249C338.292,269.24 357.553,264.121 361.549,262.185C365.545,260.25 367.88,252.615 374.172,244.529C378.813,238.564 385.383,233.463 386.78,226.964C388.176,220.466 384.571,191.169 377.685,190.946C368.482,190.818 361.575,193.012 356.964,197.527C352.353,202.042 350.085,206.027 350.16,209.482C340.225,241.333 335.763,259.255 336.775,263.249Z"
						style="fill: #f8d1bb; fill-rule: nonzero"
					/>
					<g>
						<clipPath id="_clip7">
							<path
								d="M336.775,263.249C338.292,269.24 357.553,264.121 361.549,262.185C365.545,260.25 367.88,252.615 374.172,244.529C378.813,238.564 385.383,233.463 386.78,226.964C388.176,220.466 384.571,191.169 377.685,190.946C368.482,190.818 361.575,193.012 356.964,197.527C352.353,202.042 350.085,206.027 350.16,209.482C340.225,241.333 335.763,259.255 336.775,263.249Z"
							/>
						</clipPath>
						<g clip-path="url(#_clip7)">
							<path
								d="M370.125,238.97C378.432,228.606 382.641,222.707 382.754,221.273C382.923,219.122 382.472,217.082 381.653,215.113C380.239,211.713 377.728,208.527 375.417,205.354C373.877,203.238 368.718,203.647 359.941,206.581L357.965,222.428L370.125,238.97Z"
								style="fill: #daaca3; fill-rule: nonzero"
							/>
							<path
								d="M357.23,227.098C360.761,232.021 361.858,235.475 360.52,237.458C358.514,240.434 348.524,250.164 348.301,252.552C348.079,254.94 367.822,242.853 370.125,238.97C372.428,235.088 374.903,224.251 373.178,219.577C372.028,216.461 369.158,213.852 364.568,211.75L359.765,210.994L357.23,227.098Z"
								style="fill: #edbaa9; fill-rule: nonzero"
							/>
						</g>
					</g>
					<g
						transform="matrix(-0.995001,0.0998695,0.0998695,0.995001,484.026,-12.3032)"
					>
						<path
							d="M151.313,251.343C151.011,251.725 149.817,253.211 149.523,253.613C144.233,260.84 145.113,265.249 148.182,267.495C150.228,268.993 153.927,267.695 157.733,264.521"
							style="
								fill: none;
								fill-rule: nonzero;
								stroke: #423f3d;
								stroke-width: 4px;
								stroke-linecap: round;
							"
						/>
					</g>
					<g
						transform="matrix(0.991444,-0.13053,0.13053,0.991444,-24.3152,52.2795)"
					>
						<path
							d="M378.892,215.806C387.758,214.522 394.703,211.736 394.392,209.589C394.219,208.396 391.843,207.65 388.244,207.442"
							style="
								fill: none;
								fill-rule: nonzero;
								stroke: #595756;
								stroke-width: 4px;
								stroke-linecap: round;
							"
						/>
					</g>
					<path
						d="M342.479,259.088C342.904,256.384 345.402,254.527 348.052,254.945C350.703,255.362 352.509,257.896 352.083,260.6C351.658,263.304 349.16,265.16 346.51,264.743C343.859,264.326 342.053,261.792 342.479,259.088Z"
						style="fill: #423f3d; fill-rule: nonzero"
					/>
				</g>
				<g>
					<path
						d="M177.228,265.521C175.148,271.341 156.46,264.416 152.666,262.109C148.872,259.803 147.273,251.981 141.778,243.334C137.724,236.955 131.668,231.253 130.895,224.651C130.122,218.05 136.493,189.228 143.369,189.66C152.543,190.407 159.211,193.246 163.372,198.179C167.533,203.112 169.412,207.294 169.009,210.726C175.875,243.376 178.615,261.641 177.228,265.521Z"
						style="fill: #f8d1bb; fill-rule: nonzero"
					/>
					<g>
						<clipPath id="_clip8">
							<path
								d="M177.228,265.521C175.148,271.341 156.46,264.416 152.666,262.109C148.872,259.803 147.273,251.981 141.778,243.334C137.724,236.955 131.668,231.253 130.895,224.651C130.122,218.05 136.493,189.228 143.369,189.66C152.543,190.407 159.211,193.246 163.372,198.179C167.533,203.112 169.412,207.294 169.009,210.726C175.875,243.376 178.615,261.641 177.228,265.521Z"
							/>
						</clipPath>
						<g clip-path="url(#_clip8)">
							<path
								d="M146.334,238.185C139.049,227.078 135.419,220.806 135.443,219.368C135.478,217.211 136.121,215.222 137.124,213.34C138.854,210.091 141.657,207.157 144.258,204.217C145.992,202.258 151.007,202.258 159.304,204.217L160.01,222.872L146.334,238.185Z"
								style="fill: #daaca3; fill-rule: nonzero"
							/>
							<path
								d="M160.298,227.59C156.315,232.157 154.896,235.491 156.039,237.592C157.753,240.744 166.775,251.38 166.769,253.778C166.763,256.176 148.258,242.268 146.334,238.185C144.41,234.102 142.975,223.078 145.136,218.589C146.577,215.596 149.682,213.272 154.451,211.615L159.304,211.319L160.298,227.59Z"
								style="fill: #edbaa9; fill-rule: nonzero"
							/>
						</g>
					</g>
					<g
						transform="matrix(0.995001,0.0998695,-0.0998695,0.995001,27.2895,-12.4417)"
					>
						<path
							d="M142.591,243.604C137.299,250.832 135.496,258.525 138.565,260.771C140.27,262.019 143.123,261.326 146.229,259.223"
							style="
								fill: none;
								fill-rule: nonzero;
								stroke: #3b3937;
								stroke-width: 4px;
								stroke-linecap: round;
							"
						/>
					</g>
					<g
						transform="matrix(0.995001,0.0998695,-0.0998695,0.995001,27.2895,-12.4417)"
					>
						<path
							d="M151.313,251.343C151.011,251.725 149.817,253.211 149.523,253.613C144.233,260.84 145.113,265.249 148.182,267.495C150.228,268.993 153.927,267.695 157.733,264.521"
							style="
								fill: none;
								fill-rule: nonzero;
								stroke: #423f3d;
								stroke-width: 4px;
								stroke-linecap: round;
								stroke-linecap: round;
							"
						/>
					</g>
					<g
						transform="matrix(-0.859932,0.510409,-0.510409,-0.859932,595.204,305.866)"
					>
						<path
							d="M342.479,259.088C342.904,256.384 345.402,254.527 348.052,254.945C350.703,255.362 352.509,257.896 352.083,260.6C351.658,263.304 349.16,265.16 346.51,264.743C343.859,264.326 342.053,261.792 342.479,259.088Z"
							style="fill: #423f3d; fill-rule: nonzero"
						/>
					</g>
				</g>
			</g>
			<g>
				<path
					d="M158.089,154.004C148.037,189.49 165.202,285.426 179.789,303.38C194.376,321.334 231.978,351.093 242.312,354.739C252.646,358.384 260.164,354.404 267.02,352.732C273.876,351.059 310.845,327.867 326.343,305.824C341.841,283.78 340.236,279.257 345.908,264.058C351.58,248.86 380.621,175.057 361.709,128.855C342.798,82.653 318.809,63.841 276.736,60.188C234.663,56.536 212.005,72.65 189.569,94.053C167.133,115.456 168.142,118.519 158.089,154.004Z"
					style="fill: #f8ddc6; fill-rule: nonzero"
				/>
				<g>
					<clipPath id="_clip9">
						<path
							d="M158.089,154.004C148.037,189.49 165.202,285.426 179.789,303.38C194.376,321.334 231.978,351.093 242.312,354.739C252.646,358.384 260.164,354.404 267.02,352.732C273.876,351.059 310.845,327.867 326.343,305.824C341.841,283.78 340.236,279.257 345.908,264.058C351.58,248.86 380.621,175.057 361.709,128.855C342.798,82.653 318.809,63.841 276.736,60.188C234.663,56.536 212.005,72.65 189.569,94.053C167.133,115.456 168.142,118.519 158.089,154.004Z"
						/>
					</clipPath>
					<g clip-path="url(#_clip9)">
						<path
							d="M154.906,276.664C156.697,261.34 172.251,250.547 189.618,252.577C206.986,254.607 219.632,268.695 217.841,284.019C216.05,299.343 200.496,310.136 183.129,308.107C165.761,306.077 153.115,291.988 154.906,276.664Z"
							style="
								fill: #f4b9b0;
								fill-opacity: 0.5;
								fill-rule: nonzero;
							"
						/>
						<path
							d="M297.849,287.531C294.061,272.576 304.747,256.948 321.698,252.655C338.648,248.361 355.485,257.018 359.273,271.974C363.061,286.93 352.375,302.558 335.425,306.851C318.474,311.144 301.637,302.487 297.849,287.531Z"
							style="
								fill: #f4b9b0;
								fill-opacity: 0.5;
								fill-rule: nonzero;
							"
						/>
						<path
							d="M327.92,246.06C328.076,244.728 329.284,243.772 330.617,243.928C331.949,244.084 332.905,245.292 332.749,246.624C332.593,247.957 331.385,248.912 330.052,248.757C328.72,248.601 327.764,247.393 327.92,246.06Z"
							style="fill: #edbaa9; fill-rule: nonzero"
						/>
						<path
							d="M239.625,289.582C239.781,288.25 240.989,287.294 242.321,287.45C243.654,287.606 244.609,288.814 244.453,290.147C244.298,291.479 243.089,292.434 241.757,292.279C240.424,292.123 239.469,290.915 239.625,289.582Z"
							style="fill: #edbaa9; fill-rule: nonzero"
						/>
					</g>
				</g>
			</g>
			<g>
				<path
					d="M257.838,225.55C256.19,225.542 254.551,226.875 252.921,229.55C247.614,256.468 245.159,271.062 245.556,273.332C245.952,275.602 250.046,279.399 257.838,284.724C265.609,279.025 269.664,275.227 270.003,273.332C270.342,271.437 267.926,256.843 262.756,229.55C261.126,226.891 259.487,225.558 257.838,225.55Z"
					style="fill: #f8d1bb; fill-rule: nonzero"
				/>
				<path
					d="M262.756,276.929C264.296,279.551 267.519,280.521 269.947,279.095C272.376,277.668 273.097,274.381 271.557,271.759C270.701,270.302 269.326,269.355 267.857,269.046"
					style="
						fill: none;
						fill-rule: nonzero;
						stroke: #909090;
						stroke-width: 2px;
						stroke-linecap: round;
					"
				/>
			</g>
			<g>
				<g class="mouth">
					<path
						d="M256,296.231C250.275,296.231 242.275,297.564 232,300.231C239.257,305.314 247.257,307.924 256,308.061C264.743,308.198 272.743,305.588 280,300.231C269.725,297.564 261.725,296.231 256,296.231Z"
						style="fill: #f4ceba; fill-rule: nonzero"
					/>
					<g>
						<clipPath id="_clip10">
							<path
								d="M256,296.231C250.275,296.231 242.275,297.564 232,300.231C239.257,305.314 247.257,307.924 256,308.061C264.743,308.198 272.743,305.588 280,300.231C269.725,297.564 261.725,296.231 256,296.231Z"
							/>
						</clipPath>
						<g clip-path="url(#_clip10)">
							<rect
								x="229.261"
								y="300"
								width="53.477"
								height="9.723"
								style="fill: #f3c5ad"
							/>
						</g>
					</g>
				</g>
				<g class="open-mouth">
					<path
						d="M256,296.189C261.725,296.189 269.725,297.523 280,300.189C272.743,305.546 263.757,314.054 255.014,313.917C246.272,313.78 239.257,305.273 232,300.189C242.275,297.523 250.275,296.189 256,296.189Z"
						style="
							fill: #f4ceba;
							fill-opacity: 0.8;
							fill-rule: nonzero;
						"
					/>
					<path
						d="M256.138,301.202C261.864,301.202 269.959,300.488 279.996,300.191C272.739,305.722 263.918,307.688 255.175,307.547C246.433,307.405 232.01,300.193 232.01,300.193C232.01,300.193 250.413,301.202 256.138,301.202Z"
						style="
							fill: #cc9898;
							fill-opacity: 0.3;
							fill-rule: nonzero;
						"
					/>
					<path
						id="lower-lip"
						d="M255.229,307.58C260.954,307.58 270.681,303.419 280,300.189C272.743,305.546 264.282,314.431 255.539,314.295C246.796,314.158 239.257,305.273 232,300.189C242.219,301.651 249.504,307.58 255.229,307.58Z"
						style="fill: #f4ceba; fill-rule: nonzero"
					/>
				</g>
			</g>
			<g>
				<g>
					<path
						d="M228.158,215.173C232.954,222.078 235.189,230.033 234.864,239.037C230.364,242.088 223.278,244.424 220.694,245C218.11,245.576 209.109,246.401 196.086,242.012C191.297,240.399 186.201,237.539 180.8,233.433C182.773,224.67 185.508,217.959 189.007,213.3C195.945,204.061 204.699,202.077 207.653,202.118C210.607,202.16 223.448,205.417 228.158,215.173Z"
						style="
							fill: #fff;
							fill-opacity: 0.75;
							fill-rule: nonzero;
						"
					/>
					<g>
						<clipPath id="_clip11">
							<path
								class="eyelid"
								d="M228.158,215.173C232.954,222.078 235.189,230.033 234.864,239.037C230.364,242.088 223.278,244.424 220.694,245C218.11,245.576 209.109,246.401 196.086,242.012C191.297,240.399 186.201,237.539 180.8,233.433C182.773,224.67 185.508,217.959 189.007,213.3C195.945,204.061 204.699,202.077 207.653,202.118C210.607,202.16 223.448,205.417 228.158,215.173Z"
							/>
						</clipPath>
						<g clip-path="url(#_clip11)">
							<g class="pupil">
								<path
									d="M190.57,224.205C190.529,212.159 198.64,202.351 208.673,202.317C218.706,202.282 226.884,212.034 226.926,224.08C226.967,236.126 218.856,245.934 208.823,245.969C198.79,246.003 190.612,236.251 190.57,224.205Z"
									style="fill: #566; fill-rule: nonzero"
								/>
								<g>
									<clipPath id="_clip12">
										<path
											d="M190.57,224.205C190.529,212.159 198.64,202.351 208.673,202.317C218.706,202.282 226.884,212.034 226.926,224.08C226.967,236.126 218.856,245.934 208.823,245.969C198.79,246.003 190.612,236.251 190.57,224.205Z"
										/>
									</clipPath>
									<g clip-path="url(#_clip12)">
										<g
											transform="matrix(1,-0.003,0.003,1,-0.81,0.734)"
										>
											<rect
												x="187.828"
												y="223.191"
												width="50.339"
												height="25.379"
												style="fill: #58a2a2"
											/>
										</g>
									</g>
								</g>
								<path
									d="M199.236,224.175C199.214,217.872 203.459,212.739 208.709,212.721C213.959,212.703 218.238,217.806 218.26,224.11C218.282,230.413 214.037,235.546 208.787,235.564C203.537,235.582 199.258,230.479 199.236,224.175Z"
									style="
										fill: none;
										fill-rule: nonzero;
										stroke: #fff;
										stroke-opacity: 0.75;
										stroke-width: 3px;
										stroke-linecap: square;
										stroke-linejoin: miter;
									"
								/>
								<path
									d="M199.236,224.175C199.214,217.872 203.459,212.739 208.709,212.721C213.959,212.703 218.238,217.806 218.26,224.11C218.282,230.413 214.037,235.546 208.787,235.564C203.537,235.582 199.258,230.479 199.236,224.175Z"
									style="fill: #423f3d; fill-rule: nonzero"
								/>
							</g>
						</g>
					</g>
					<path
						d="M292.256,214.263C287.245,221.014 284.759,228.894 284.8,237.905C289.203,241.096 296.211,243.654 298.776,244.312C301.34,244.969 310.311,246.077 323.466,242.101C328.303,240.639 333.486,237.941 339.014,234.008C337.319,225.187 334.796,218.393 331.446,213.626C324.803,204.173 316.116,201.913 313.162,201.862C310.208,201.81 297.271,204.661 292.256,214.263Z"
						style="
							fill: #fff;
							fill-opacity: 0.75;
							fill-rule: nonzero;
						"
					/>
					<g>
						<clipPath id="_clip13">
							<path
								class="eyelid"
								d="M292.256,214.263C287.245,221.014 284.759,228.894 284.8,237.905C289.203,241.096 296.211,243.654 298.776,244.312C301.34,244.969 310.311,246.077 323.466,242.101C328.303,240.639 333.486,237.941 339.014,234.008C337.319,225.187 334.796,218.393 331.446,213.626C324.803,204.173 316.116,201.913 313.162,201.862C310.208,201.81 297.271,204.661 292.256,214.263Z"
							/>
						</clipPath>
						<g clip-path="url(#_clip13)">
							<g class="pupil">
								<path
									d="M329.551,223.858C329.562,211.811 321.426,202.024 311.394,202.015C301.361,202.005 293.207,211.778 293.195,223.824C293.184,235.87 301.32,245.657 311.353,245.667C321.385,245.676 329.54,235.904 329.551,223.858Z"
									style="fill: #566; fill-rule: nonzero"
								/>
								<g>
									<clipPath id="_clip14">
										<path
											d="M329.551,223.858C329.562,211.811 321.426,202.024 311.394,202.015C301.361,202.005 293.207,211.778 293.195,223.824C293.184,235.87 301.32,245.657 311.353,245.667C321.385,245.676 329.54,235.904 329.551,223.858Z"
										/>
									</clipPath>
									<g clip-path="url(#_clip14)">
										<g
											transform="matrix(1,0.001,-0.001,1,0.22,-0.287)"
										>
											<rect
												x="281.984"
												y="222.9"
												width="50.339"
												height="25.379"
												style="fill: #58a2a2"
											/>
										</g>
									</g>
								</g>
								<path
									d="M320.885,223.85C320.891,217.546 316.634,212.424 311.384,212.419C306.134,212.415 301.867,217.528 301.861,223.832C301.855,230.135 306.113,235.257 311.363,235.262C316.612,235.267 320.879,230.153 320.885,223.85Z"
									style="
										fill: none;
										fill-rule: nonzero;
										stroke: #fff;
										stroke-opacity: 0.75;
										stroke-width: 3px;
										stroke-linecap: square;
										stroke-linejoin: miter;
									"
								/>
								<path
									d="M320.885,223.85C320.891,217.546 316.634,212.424 311.384,212.419C306.134,212.415 301.867,217.528 301.861,223.832C301.855,230.135 306.113,235.257 311.363,235.262C316.612,235.267 320.879,230.153 320.885,223.85Z"
									style="fill: #423f3d; fill-rule: nonzero"
								/>
							</g>
						</g>
					</g>
				</g>
			</g>
			<g class="eyebrow">
				<path
					d="M310.614,188.732L278.946,187.478C291.587,180.017 301.809,176.317 309.611,176.378C317.412,176.439 328.303,180.975 342.283,189.986L310.614,188.732Z"
					style="fill: #5e4038; fill-rule: nonzero"
				/>
				<path
					d="M206.892,188.785L238.524,186.803C225.714,179.636 215.41,176.172 207.611,176.412C199.813,176.652 189.03,181.437 175.261,190.767L206.892,188.785Z"
					style="fill: #5e4038; fill-rule: nonzero"
				/>
			</g>
			<g class="glasses">
				<path
					d="M152.226,185.576C153.681,192.418 161.628,215.911 160.862,216C160.241,216.073 162.61,213.406 167.97,208C159.206,193.676 153.996,185.633 152.341,183.871C151.901,183.402 151.913,184.104 152.226,185.576Z"
					style="fill: #423f3d; fill-rule: nonzero"
				/>
				<g>
					<clipPath id="_clip15">
						<path
							d="M152.226,185.576C153.681,192.418 161.628,215.911 160.862,216C160.241,216.073 162.61,213.406 167.97,208C159.206,193.676 153.996,185.633 152.341,183.871C151.901,183.402 151.913,184.104 152.226,185.576Z"
						/>
					</clipPath>
					<g clip-path="url(#_clip15)">
						<g
							transform="matrix(0.421,0.907,-0.79,0.673,243.243,-71.564)"
						>
							<rect
								x="123.213"
								y="192.186"
								width="54.127"
								height="11.305"
								style="fill: #3e3c3b"
							/>
						</g>
					</g>
				</g>
				<path
					d="M163.774,209.959C184.699,208.888 211.067,209.868 242.878,212.901C244.19,228.63 243.066,241.193 239.505,250.59C220.036,254.848 196.191,255.096 167.97,251.335C164.271,234.696 162.872,220.904 163.774,209.959Z"
					style="
						fill: none;
						fill-rule: nonzero;
						stroke: #423f3d;
						stroke-width: 6px;
					"
				/>
				<path
					d="M353.606,216C354.212,216.155 352.879,213.122 349.606,206.903C361.088,193.874 367.767,186.597 369.642,185.07C372.455,182.78 352.697,215.768 353.606,216Z"
					style="fill: #423f3d; fill-rule: nonzero"
				/>
				<g>
					<clipPath id="_clip16">
						<path
							d="M353.606,216C354.212,216.155 352.879,213.122 349.606,206.903C361.088,193.874 367.767,186.597 369.642,185.07C372.455,182.78 352.697,215.768 353.606,216Z"
						/>
					</clipPath>
					<g clip-path="url(#_clip16)">
						<g
							transform="matrix(0.538,-0.843,0.693,0.772,33.422,355.034)"
						>
							<rect
								x="341.034"
								y="191.178"
								width="54.127"
								height="11.305"
								style="fill: #3e3c3b"
							/>
						</g>
					</g>
				</g>
				<path
					d="M352.093,207.999C331.151,207.364 304.809,208.893 273.068,212.587C272.083,228.34 273.469,240.877 277.225,250.198C296.778,254.049 320.622,253.801 348.759,249.453C352.112,232.741 353.223,218.923 352.093,207.999Z"
					style="
						fill: none;
						fill-rule: nonzero;
						stroke: #423f3d;
						stroke-width: 6px;
					"
				/>
				<path
					d="M243.631,221.414C245.926,217.966 250.72,216.331 258.012,216.509C265.304,216.687 270.234,218.322 272.801,221.414"
					style="
						fill: none;
						fill-rule: nonzero;
						stroke: #423f3d;
						stroke-width: 6px;
					"
				/>
			</g>
			<g>
				<path
					d="M316,48C283.866,29.21 258.533,19.877 240,20C212.201,20.185 195.276,29.515 180,48C164.724,66.485 155.159,100.342 144,117.668C136.561,129.219 132.561,156.663 132,200L316,48Z"
					style="fill: #5e4038; fill-rule: nonzero"
				/>
				<path
					d="M316,108C329.015,136.16 338.152,158.936 343.412,176.329C348.671,193.721 348.671,218.945 343.412,252C356.714,236.893 366.348,223.456 372.315,211.691C381.265,194.043 380.356,173.012 378.091,151.871C375.826,130.73 371.816,79.134 343.412,64C324.476,53.911 315.339,68.577 316,108Z"
					style="fill: #5e4038; fill-rule: nonzero"
				/>
				<path
					d="M316,108C304.939,102.36 296.037,99.762 289.292,100.205C282.547,100.648 270.877,106.469 254.282,117.668C259.683,92.471 265.532,74.98 271.829,65.195C281.274,50.518 302.173,18.473 320,20.094C322.9,20.137 332.344,24.475 336,28C339.656,31.525 348.656,43.6 348,54.975C347.37,65.888 341.075,71.503 332.537,80.691C326.846,86.816 321.333,95.919 316,108Z"
					style="fill: #5b3c34; fill-rule: nonzero"
				/>
				<g>
					<clipPath id="_clip17">
						<path
							d="M316,108C304.939,102.36 296.037,99.762 289.292,100.205C282.547,100.648 270.877,106.469 254.282,117.668C259.683,92.471 265.532,74.98 271.829,65.195C281.274,50.518 302.173,18.473 320,20.094C322.9,20.137 332.344,24.475 336,28C339.656,31.525 348.656,43.6 348,54.975C347.37,65.888 341.075,71.503 332.537,80.691C326.846,86.816 321.333,95.919 316,108Z"
						/>
					</clipPath>
					<g clip-path="url(#_clip17)">
						<path
							d="M316,108C305.913,107.611 297.913,107.611 292,108C286.087,108.389 275.516,110.506 260.289,114.351C264.332,93.336 269.459,78.001 275.672,68.346C284.992,53.864 304.881,23.177 323.533,29.591C342.185,36.006 344.98,46.328 342.454,59.387C340.4,70 323.485,83.945 316,92C311.01,97.37 311.01,102.703 316,108Z"
							style="fill: #462f28; fill-rule: nonzero"
						/>
						<g>
							<clipPath id="_clip18">
								<path
									d="M316,108C305.913,107.611 297.913,107.611 292,108C286.087,108.389 275.516,110.506 260.289,114.351C264.332,93.336 269.459,78.001 275.672,68.346C284.992,53.864 304.881,23.177 323.533,29.591C342.185,36.006 344.98,46.328 342.454,59.387C340.4,70 323.485,83.945 316,92C311.01,97.37 311.01,102.703 316,108Z"
								/>
							</clipPath>
							<g clip-path="url(#_clip18)">
								<path
									d="M248,132C251.094,121.762 292.989,87.36 304,64C311.341,48.427 316.674,33.791 320,20.094C277.893,41.588 253.893,64.223 248,88C239.161,123.665 244.906,142.238 248,132Z"
									style="fill: #3e2923; fill-rule: nonzero"
								/>
							</g>
						</g>
					</g>
				</g>
				<path
					d="M320,20.094C307.793,19.126 289.097,14.903 268,20.094C246.903,25.285 225.194,33.597 212,50.975C198.806,68.354 197.786,102.2 168,120C138.214,137.8 121.689,194.02 118.802,219.904C115.915,245.789 116.101,271.032 132.601,292.226C143.6,306.355 150.654,316.946 153.763,323.999C138.986,284.417 135.253,253.358 142.564,230.823C153.532,197.019 164.344,202.672 185.129,188.354C205.914,174.036 223.284,177.97 237.651,162.651C252.018,147.332 257.267,107.841 268,92C278.733,76.159 302.916,58.885 320,20.094Z"
					style="fill: #5b3c34; fill-rule: nonzero"
				/>
			</g>
		</g>
		<g>
			<path
				d="M377.503,135.734C380.921,129.898 378.961,122.395 373.126,118.978C369.584,116.903 365.433,116.821 361.95,118.37C361.598,114.574 359.496,110.994 355.955,108.92C350.118,105.502 342.617,107.461 339.198,113.298C338.714,114.125 338.349,114.987 338.077,115.865C334.205,125.84 338.707,141.395 344.425,148.29C353.236,149.904 369.006,146.224 375.81,137.967C376.444,137.301 377.018,136.562 377.503,135.734Z"
				style="fill: #a22435; fill-rule: nonzero"
			/>
			<path
				d="M374.38,133.391C377.798,127.555 375.838,120.053 370.003,116.635C366.46,114.56 362.31,114.478 358.827,116.028C358.474,112.232 356.373,108.652 352.831,106.578C346.995,103.159 339.494,105.118 336.075,110.956C335.59,111.782 335.226,112.645 334.954,113.522C331.081,123.498 335.584,139.052 341.302,145.948C350.113,147.562 365.883,143.881 372.686,135.624C373.321,134.959 373.895,134.219 374.38,133.391Z"
				style="fill: #dd2e44; fill-rule: nonzero"
			/>
		</g>
		<g class="dialog-5">
			<path
				d=" M 543.54 442.992 Q 540.599 443.14 541.063 440.62 Q 543.711 436.979 544.778 433.505 C 545.844 430.03 545.91 377.421 546.635 363.537 Q 546.635 355.631 554.064 355.235 L 903.571 355.235 Q 910.69 356.026 911 363.537 Q 911 377.421 911 433.505 Q 909.452 441.806 903.571 442.992 C 816.881 442.992 678.687 442.992 543.54 442.992 Z "
				fill="rgb(57,56,56)"
			/>
			<g clip-path="url(#_clipPath_cd6GMJ8GaVQpHZEklPJY27QnsFp6XqOK)">
				<text
					transform="matrix(1,0,0,1,565,381.172)"
					style="
						font-family: monospace;
						font-weight: 400;
						font-size: 16px;
						font-style: normal;
						fill: #e8e8e8;
						stroke: none;
					"
				>
					If you want to learn more about me,
				</text>
				<text
					transform="matrix(1,0,0,1,565,404.61)"
					style="
						font-family: monospace;
						font-weight: 400;
						font-size: 16px;
						font-style: normal;
						fill: #e8e8e8;
						stroke: none;
					"
				>
					I'm @rightonhana everywhere, or
				</text>
				<text
					transform="matrix(1,0,0,1,565,428.047)"
					style="
						font-family: monospace;
						font-weight: 400;
						font-size: 16px;
						font-style: normal;
						fill: #e8e8e8;
						stroke: none;
					"
				>
					you can go to 🔗 rightonhana.dev
				</text>
			</g>
			<defs>
				<clipPath id="_clipPath_cd6GMJ8GaVQpHZEklPJY27QnsFp6XqOK">
					<rect
						x="0"
						y="0"
						width="338.571"
						height="73"
						transform="matrix(1,0,0,1,565,362.618)"
					/>
				</clipPath>
			</defs>
		</g>
		<g class="dialog-4">
			<path
				d=" M 543.142 442.993 Q 540.662 443.118 541.053 440.993 Q 543.286 437.923 544.186 434.993 C 545.085 432.063 545.141 416.701 545.752 404.993 Q 545.752 398.326 552.016 397.993 L 823.736 397.993 Q 829.739 398.66 830 404.993 Q 830 416.701 830 434.993 Q 828.695 441.993 823.736 442.993 C 750.635 442.993 657.103 442.993 543.142 442.993 Z "
				fill="rgb(57,56,56)"
			/>
			<g clip-path="url(#_clipPath_Ms0lecwxuJ44rVCTRwPcoZdoHehpvDLq)">
				<text
					transform="matrix(1,0,0,1,559.408,426.799)"
					style="
						font-family: monospace;
						font-weight: 400;
						font-size: 16px;
						font-style: normal;
						fill: #e8e8e8;
						stroke: none;
					"
				>
					My pronouns are She/Her 👩‍💻
				</text>
			</g>
			<defs>
				<clipPath id="_clipPath_Ms0lecwxuJ44rVCTRwPcoZdoHehpvDLq">
					<rect
						x="0"
						y="0"
						width="258.183"
						height="24.503"
						transform="matrix(1,0,0,1,559.408,408.245)"
					/>
				</clipPath>
			</defs>
		</g>
		<g class="dialog-3">
			<path
				d=" M 543.54 442.992 Q 540.599 443.14 541.063 440.62 Q 543.711 436.979 544.778 433.505 C 545.844 430.03 545.91 377.421 546.635 363.537 Q 546.635 355.631 554.064 355.235 L 903.571 355.235 Q 910.69 356.026 911 363.537 Q 911 377.421 911 433.505 Q 909.452 441.806 903.571 442.992 C 816.881 442.992 678.687 442.992 543.54 442.992 Z "
				fill="rgb(57,56,56)"
			/>
			<g clip-path="url(#_clipPath_cd6GMJ8GaVQpHZEklPJY27QnsFp6XqOK)">
				<text
					transform="matrix(1,0,0,1,565,381.172)"
					style="
						font-family: monospace;
						font-weight: 400;
						font-size: 16px;
						font-style: normal;
						fill: #e8e8e8;
						stroke: none;
					"
				>
					I'm a Front-end Developer with
				</text>
				<text
					transform="matrix(1,0,0,1,565,404.61)"
					style="
						font-family: monospace;
						font-weight: 400;
						font-size: 16px;
						font-style: normal;
						fill: #e8e8e8;
						stroke: none;
					"
				>
					experience in Angular, React and
				</text>
				<text
					transform="matrix(1,0,0,1,565,428.047)"
					style="
						font-family: monospace;
						font-weight: 400;
						font-size: 16px;
						font-style: normal;
						fill: #e8e8e8;
						stroke: none;
					"
				>
					Svelte.
				</text>
			</g>
			<defs>
				<clipPath id="_clipPath_cd6GMJ8GaVQpHZEklPJY27QnsFp6XqOK">
					<rect
						x="0"
						y="0"
						width="338.571"
						height="73"
						transform="matrix(1,0,0,1,565,362.618)"
					/>
				</clipPath>
			</defs>
		</g>
		<g class="dialog-2">
			<path
				d=" M 543.742 442.16 Q 540.567 442.285 541.068 440.155 Q 543.927 437.077 545.078 434.139 C 546.23 431.202 546.301 394.748 547.084 383.011 Q 547.084 376.327 555.104 375.993 L 902.98 375.993 Q 910.666 376.661 911 383.011 Q 911 394.748 911 434.139 Q 909.329 441.157 902.98 442.16 C 809.39 442.16 689.644 442.16 543.742 442.16 Z "
				fill="rgb(57,56,56)"
			/>
			<g clip-path="url(#_clipPath_ESlM0h8RX5VXCFQgA5t80sqGiBmZNFpN)">
				<text
					transform="matrix(1,0,0,1,561.068,404.114)"
					style="
						font-family: monospace;
						font-weight: 400;
						font-size: 16px;
						font-style: normal;
						fill: #e8e8e8;
						stroke: none;
					"
				>
					I'm born and raised in Argentina 🇦🇷
				</text>
				<text
					transform="matrix(1,0,0,1,561.068,427.551)"
					style="
						font-family: monospace;
						font-weight: 400;
						font-size: 16px;
						font-style: normal;
						fill: #e8e8e8;
						stroke: none;
					"
				>
					now living in Chicago, Illinois 🇺🇸
				</text>
			</g>
			<defs>
				<clipPath id="_clipPath_ESlM0h8RX5VXCFQgA5t80sqGiBmZNFpN">
					<rect
						x="0"
						y="0"
						width="341"
						height="46.875"
						transform="matrix(1,0,0,1,561.068,385.559)"
					/>
				</clipPath>
			</defs>
		</g>
		<g class="dialog-1">
			<path
				d=" M 543.297 442.993 Q 540.637 443.118 541.057 440.993 Q 543.452 437.923 544.417 434.993 C 545.382 432.063 545.441 416.701 546.097 404.993 Q 546.097 398.326 552.817 397.993 L 896.28 397.993 Q 902.72 398.66 903 404.993 Q 903 416.701 903 434.993 Q 901.6 441.993 896.28 442.993 C 817.868 442.993 665.54 442.993 543.297 442.993 Z "
				fill="rgb(57,56,56)"
			/>
			<g clip-path="url(#_clipPath_3D2gxkuakMBlARHwnRYqTgx1WEIpF5CZ)">
				<text
					transform="matrix(1,0,0,1,559,427.048)"
					style="
						font-family: monospace;
						font-weight: 400;
						font-size: 16px;
						font-style: normal;
						fill: #e8e8e8;
						stroke: none;
					"
				>
					Hi there 👋 I'm Florencia Gonzalez
				</text>
			</g>
			<defs>
				<clipPath id="_clipPath_3D2gxkuakMBlARHwnRYqTgx1WEIpF5CZ">
					<rect
						x="0"
						y="0"
						width="350"
						height="24.007"
						transform="matrix(1,0,0,1,559,408.493)"
					/>
				</clipPath>
			</defs>
		</g>
		<g>
			<path
				d=" M 377.503 135.734 C 380.921 129.898 378.961 122.395 373.126 118.978 C 369.584 116.903 365.433 116.821 361.95 118.37 C 361.598 114.574 359.496 110.994 355.955 108.92 C 350.118 105.502 342.617 107.461 339.198 113.298 C 338.714 114.125 338.349 114.987 338.077 115.865 C 334.205 125.84 338.707 141.395 344.425 148.29 C 353.236 149.904 369.006 146.224 375.81 137.967 C 376.444 137.301 377.018 136.562 377.503 135.734 Z "
				fill="rgb(162,36,53)"
			/>
			<path
				d=" M 374.38 133.391 C 377.798 127.555 375.838 120.053 370.003 116.635 C 366.46 114.56 362.31 114.478 358.827 116.028 C 358.474 112.232 356.373 108.652 352.831 106.578 C 346.995 103.159 339.494 105.118 336.075 110.956 C 335.59 111.782 335.226 112.645 334.954 113.522 C 331.081 123.498 335.584 139.052 341.302 145.948 C 350.113 147.562 365.883 143.881 372.686 135.624 C 373.321 134.959 373.895 134.219 374.38 133.391 Z "
				fill="rgb(221,46,68)"
			/>
		</g>
	</g>
</svg>
